<svg width="48" height="47" viewBox="0 0 48 47" fill="none" xmlns="http://www.w3.org/2000/svg">
<circle cx="1.5" cy="1.5" r="1.5" fill="#CDD6E0"/>
<circle cx="37.5" cy="1.5" r="1.5" fill="#CDD6E0"/>
<circle cx="10.5" cy="1.5" r="1.5" fill="#CDD6E0"/>
<circle cx="46.5" cy="1.5" r="1.5" fill="#CDD6E0"/>
<circle cx="19.5" cy="1.5" r="1.5" fill="#CDD6E0"/>
<circle cx="28.5" cy="1.5" r="1.5" fill="#CDD6E0"/>
<circle cx="1.5" cy="12.5" r="1.5" fill="#CDD6E0"/>
<circle cx="37.5" cy="12.5" r="1.5" fill="#CDD6E0"/>
<circle cx="10.5" cy="12.5" r="1.5" fill="#CDD6E0"/>
<circle cx="46.5" cy="12.5" r="1.5" fill="#CDD6E0"/>
<circle cx="19.5" cy="12.5" r="1.5" fill="#CDD6E0"/>
<circle cx="28.5" cy="12.5" r="1.5" fill="#CDD6E0"/>
<circle cx="1.5" cy="23.5" r="1.5" fill="#CDD6E0"/>
<circle cx="37.5" cy="23.5" r="1.5" fill="#CDD6E0"/>
<circle cx="10.5" cy="23.5" r="1.5" fill="#CDD6E0"/>
<circle cx="46.5" cy="23.5" r="1.5" fill="#CDD6E0"/>
<circle cx="19.5" cy="23.5" r="1.5" fill="#CDD6E0"/>
<circle cx="28.5" cy="23.5" r="1.5" fill="#CDD6E0"/>
<circle cx="1.5" cy="34.5" r="1.5" fill="#CDD6E0"/>
<circle cx="37.5" cy="34.5" r="1.5" fill="#CDD6E0"/>
<circle cx="10.5" cy="34.5" r="1.5" fill="#CDD6E0"/>
<circle cx="46.5" cy="34.5" r="1.5" fill="#CDD6E0"/>
<circle cx="19.5" cy="34.5" r="1.5" fill="#CDD6E0"/>
<circle cx="28.5" cy="34.5" r="1.5" fill="#CDD6E0"/>
<circle cx="1.5" cy="45.5" r="1.5" fill="#CDD6E0"/>
<circle cx="37.5" cy="45.5" r="1.5" fill="#CDD6E0"/>
<circle cx="10.5" cy="45.5" r="1.5" fill="#CDD6E0"/>
<circle cx="46.5" cy="45.5" r="1.5" fill="#CDD6E0"/>
<circle cx="19.5" cy="45.5" r="1.5" fill="#CDD6E0"/>
<circle cx="28.5" cy="45.5" r="1.5" fill="#CDD6E0"/>
</svg>
