<svg width="157" height="54" viewBox="0 0 157 54" fill="none" xmlns="http://www.w3.org/2000/svg">
<g clip-path="url(#clip0_11910_23314)">
<path d="M49.4791 30.5877L49.1875 30.408C49.1927 30.4005 49.3595 30.1255 49.6657 29.632C51.8084 25.891 51.0686 23.1681 51.06 23.1369L51.3912 23.0449C51.4187 23.1402 51.8755 24.8003 51.0704 27.3216C51.6028 26.4418 52.2255 25.4068 52.9085 24.2596L53.2061 24.4283C51.7688 26.8408 50.6007 28.7573 49.9763 29.7754C49.8237 30.0425 49.658 30.3133 49.4791 30.5877Z" fill="#663300"/>
<path d="M59.401 17.3892C59.4003 16.6431 59.0978 15.9277 58.5598 15.4001C58.0218 14.8726 57.2924 14.5759 56.5315 14.5752C55.7708 14.5761 55.0415 14.8729 54.5036 15.4004C53.9656 15.9279 53.663 16.6431 53.6621 17.3892C53.663 18.1352 53.9656 18.8504 54.5036 19.378C55.0415 19.9055 55.7708 20.2023 56.5315 20.2032C57.2923 20.2023 58.0216 19.9055 58.5595 19.378C59.0975 18.8504 59.4001 18.1352 59.401 17.3892ZM54.1696 17.3892C54.1703 16.7751 54.4193 16.1863 54.8621 15.7521C55.305 15.3178 55.9053 15.0735 56.5315 15.0729C57.1578 15.0735 57.7581 15.3178 58.2009 15.7521C58.6438 16.1863 58.8928 16.7751 58.8935 17.3892C58.8928 18.0032 58.6437 18.5919 58.2009 19.026C57.7581 19.4601 57.1577 19.7042 56.5315 19.7047C55.9054 19.7042 55.305 19.4601 54.8622 19.026C54.4194 18.5919 54.1703 18.0032 54.1696 17.3892Z" fill="#663300"/>
<path d="M56.5315 18.0411C56.8992 18.0411 57.1972 17.7488 57.1972 17.3882C57.1972 17.0277 56.8992 16.7354 56.5315 16.7354C56.1638 16.7354 55.8657 17.0277 55.8657 17.3882C55.8657 17.7488 56.1638 18.0411 56.5315 18.0411Z" fill="#663300"/>
<path d="M70.2107 13.6827C63.2736 14.7228 60.7594 14.5751 60.7344 14.5735L59.6489 14.5017L60.5899 15.0374C61.1765 15.3706 61.5266 15.7721 61.629 16.231C61.7589 16.8071 61.524 17.5022 60.9125 18.355L59.6816 20.0741L61.2884 18.6848C63.5987 16.6882 72.2372 14.1762 86.2705 11.5806H86.2662L86.2257 11.3545L86.1991 11.2559C80.8559 12.0994 71.6746 13.4634 70.2107 13.6827ZM61.9137 17.6473C62.1588 17.0905 62.2285 16.5878 62.1253 16.1289C62.0294 15.7257 61.8107 15.3606 61.4982 15.0821C62.7067 15.0618 65.3904 14.9134 70.2872 14.1787C70.8954 14.0884 72.8324 13.7856 75.2718 13.4018C68.6228 14.9168 64.1527 16.3381 61.9137 17.6422V17.6473Z" fill="#663300"/>
<path d="M86.27 11.5809C96.4085 9.97816 108.073 8.37544 111.38 7.85246L112.24 7.7158L112.191 7.3877C112.06 7.40457 99.0836 8.87144 86.2046 11.2544L86.2227 11.3548L86.2829 11.5775L86.27 11.5809Z" fill="#663300"/>
<path d="M86.2698 11.5801H86.2852L86.2251 11.3574L86.2655 11.5835L86.2698 11.5801Z" fill="#663300"/>
<path d="M34.1891 47.383C33.7375 49.07 33.4846 49.9608 33.4821 49.9701L33.9715 50.1033C33.9715 50.0932 34.2605 49.0818 34.7671 47.1822L34.8531 46.8516L34.5091 46.8701C33.3616 46.9309 30.9825 46.9368 28.8398 46.9266L29.1839 47.426C31.0401 47.4336 33.0167 47.4268 34.1891 47.383Z" fill="#663300"/>
<path d="M24.7508 46.8901L23.6326 44.2878L23.0752 44.2734L24.4093 47.3827H24.5753C24.6123 47.3827 26.4367 47.4088 28.5655 47.4206L28.2215 46.9204C26.6095 46.9128 25.217 46.896 24.7508 46.8901Z" fill="#663300"/>
<path d="M30.5833 50.3513L27.8403 53.6883L28.236 54.0004L31.2138 50.3732L29.183 47.4209H28.568L30.5833 50.3513Z" fill="#663300"/>
<path d="M28.224 46.9234H28.839L27.0258 44.2891C26.8254 44.2891 26.6233 44.2958 26.4194 44.2983L28.224 46.9234Z" fill="#663300"/>
<path d="M28.5682 47.4232H29.1832L28.8391 46.9238H28.2241L28.5682 47.4232Z" fill="#663300"/>
<path d="M134.187 4.09868C133.213 2.85954 130.692 2.94474 129.275 3.10585C121.928 3.94263 105.776 6.09192 82.0753 9.80175L80.9055 9.98483C80.718 10.0135 80.4754 10.0523 80.1898 10.0987C76.8912 10.6276 66.8524 12.4066 62.0631 11.4669C57.857 10.4547 52.9111 10.8376 52.4647 10.8908C51.6115 10.868 51.0575 10.6377 50.8175 10.2109C50.3531 9.37915 51.0756 7.86757 51.3921 7.3547L51.928 6.49009L50.9741 6.87474C49.5643 7.44496 48.779 8.22439 48.6396 9.20288C48.4676 10.4007 49.3407 11.5757 50.0305 12.2978C49.4172 12.151 48.9347 11.876 48.5898 11.4804C47.8156 10.588 47.9782 9.33615 47.979 9.32435L48.0651 8.73894L47.512 8.97342C46.5839 9.3682 46.2218 10.286 46.177 10.4015C45.6971 11.5614 46.0429 12.6335 46.5297 13.3834C44.0748 12.9186 43.1313 13.9485 43.0891 13.9983L42.6152 14.5356L43.3403 14.5475C44.7681 14.5694 45.2378 14.7305 45.3814 14.8073C45.3534 14.8339 45.3232 14.8581 45.2911 14.8798C44.6107 15.3378 42.924 15.7664 42.1128 15.9722C41.4772 16.1341 41.2854 16.183 41.3318 16.4935C41.337 16.5247 41.3834 16.7895 41.7275 16.7811C44.8068 16.663 47.2703 18.7777 47.9894 22.1679C48.871 26.3222 46.817 31.6381 40.2412 34.151C38.0117 35.003 36.1245 34.8916 34.6296 33.822C31.8995 31.8667 30.8449 27.0375 30.4355 23.3311C30.182 20.8995 30.1018 18.4535 30.1955 16.011C30.6652 16.1881 31.5201 16.6183 32.425 17.6086L32.6297 17.8321L32.8766 17.6559C33.0718 17.5167 33.2121 17.4163 32.5411 14.5719C29.9994 5.15816 22.0861 0.350054 22.0069 0.30619L21.4908 0V0.590469C21.4908 1.13454 21.8005 1.83804 22.1437 2.44623C20.4647 1.6027 18.9723 1.6997 18.894 1.70476L17.5453 1.80094L18.7805 2.3391C19.5959 2.69422 20.1989 3.65754 20.5524 4.37707C19.906 4.15632 19.2179 4.07797 18.5371 4.14761L17.5376 4.27583L18.4132 4.76506C22.4508 7.02065 22.9634 12.598 22.972 12.6537L23.6464 12.5998C23.6283 12.3771 23.1862 7.52594 19.7499 4.85028C20.216 4.91955 20.6557 5.10678 21.0255 5.3935L21.9269 6.13579L21.5657 5.03921C21.539 4.95485 21.0393 3.46771 20.0638 2.4597C21.1813 2.65518 22.2255 3.1391 23.089 3.86165L25.3899 5.79587L23.5836 3.41122C23.2954 3.03163 22.671 2.11554 22.3587 1.34202C24.3216 2.73637 29.8618 7.2307 31.884 14.7305C32.0259 15.3319 32.1687 16.0034 32.2616 16.512C31.0152 15.4298 29.9839 15.2467 29.9332 15.2417L29.5633 15.1809L29.5401 15.5487C29.5014 16.1519 28.6627 30.3695 34.2305 34.3594C35.9232 35.5724 38.0289 35.709 40.4872 34.771C47.432 32.1173 49.5927 26.4623 48.6525 22.0338C48.0178 19.0401 46.0386 16.9059 43.4917 16.2935C44.2968 16.0624 45.1715 15.7655 45.6653 15.434C45.9156 15.2762 46.1736 14.9734 46.0755 14.6352C45.9775 14.2969 45.5732 14.0776 44.7544 13.9705C45.3513 13.8861 46.2054 13.9156 47.3761 14.2843L49.0104 14.798L47.7004 13.7141C47.684 13.7014 46.097 12.3644 46.811 10.6461L46.8179 10.6293C46.9278 10.359 47.0929 10.1136 47.303 9.90806C47.3408 10.4564 47.506 11.2434 48.0771 11.9047C48.7196 12.6512 49.7114 13.0485 51.0171 13.0856L52.0364 13.1143L51.2373 12.4935C51.2158 12.4766 49.0998 10.8131 49.3183 9.29395C49.3923 8.77602 49.7432 8.31886 50.3642 7.92746C50.0589 8.67651 49.7888 9.73512 50.2309 10.5289C50.5973 11.1851 51.3543 11.5302 52.4819 11.5546H52.5069H52.5309C52.5826 11.5487 57.7185 11.1075 61.9237 12.1172C66.8481 13.0839 76.9763 11.2906 80.3068 10.7567L81.019 10.6428L82.1897 10.4606C105.881 6.74904 122.024 4.60396 129.361 3.76803C130.387 3.65162 132.84 3.44243 133.576 4.50611C134.279 5.52847 133.648 6.54407 133.628 6.53058C132.993 5.78659 130.914 5.56052 126.117 6.53058C126.052 6.54154 119.659 7.65583 111.144 9.45339C110.346 9.62209 108.261 10.0152 105.375 10.5592C93.1256 12.868 67.722 17.4205 63.2217 19.5766C62.869 19.7537 62.525 19.919 62.1895 20.0827C61.4292 20.4471 60.7118 20.7913 60.0392 21.2054V22C60.7806 21.4981 61.5943 21.1067 62.4871 20.6782C62.826 20.5163 63.1753 20.3492 63.5253 20.1721C67.9379 18.0574 93.2864 13.5166 105.501 11.213C108.391 10.6681 110.479 10.2741 111.285 10.1037C119.785 8.30956 126.166 7.19779 126.241 7.18513C132.434 5.92828 133.241 7.09404 133.325 7.15478C133.789 7.49219 133.824 8.08266 133.824 8.08266C133.824 8.08266 135.21 5.57991 134.187 4.09868Z" fill="#663300"/>
<path d="M50.4522 37.1958C48.3397 39.3206 45.687 40.8305 42.3505 41.8082C42.249 41.8352 32.0743 44.5488 18.2561 43.3265H18.2388C16.5426 43.2658 15.1853 43.7904 14.3914 44.7807C14.234 43.7845 13.7325 42.4821 12.2617 41.7196C10.2524 40.6778 7.97815 39.6875 4.23136 39.6875H4.19781C6.18131 39.135 9.48514 38.4796 14.0035 38.4763C14.1041 38.4763 14.2271 38.4763 14.3639 38.4763C15.7849 38.4948 18.4298 38.5311 19.0551 37.2169L19.1497 37.0169L18.9984 36.8533C18.9364 36.7867 12.8122 30.122 12.4853 23.9861L12.4148 22.6635L11.8402 23.8622C11.4385 24.7015 10.8003 26.5614 11.4205 29.0684C10.2085 26.8676 9.01206 23.6302 9.68813 20.1152C9.91876 18.7206 9.95608 17.3019 9.79909 15.8976C10.0296 16.3269 10.2481 16.7141 10.4012 16.9436L11.1435 18.0401L11.0196 16.7318C11.0196 16.7217 10.9551 16.0621 10.7908 14.9385C11.0695 15.3933 11.4176 15.8035 11.823 16.1549C12.0028 16.2932 12.309 16.4079 12.5791 16.2856C12.8371 16.1675 12.9705 15.8874 12.9816 15.453C12.9868 15.3687 13.0014 14.8676 12.7503 14.0865C12.9687 14.4113 13.2079 14.7951 13.4659 15.2489L14.0585 14.9275C14.0534 14.9174 13.6439 14.1683 13.4453 12.8786C13.9149 13.6479 14.5884 14.5496 15.4236 15.1308L15.4709 15.1578C15.6902 15.2632 15.9956 15.3079 16.1943 15.1173C16.4704 14.855 16.2803 14.429 16.2012 14.2536C15.7197 12.9237 15.1602 11.6222 14.5256 10.3556C15.2653 11.1426 16.1797 12.3801 16.9736 14.2434L16.9899 14.2763C17.1998 14.6449 17.4527 14.6188 17.5516 14.591C17.8957 14.494 17.8681 14.0663 17.8561 13.8613V13.8419C17.8449 13.7458 17.592 11.8065 15.5621 8.71075C16.4635 9.68502 17.6264 11.2877 18.89 13.8908C18.9399 13.9878 19.1239 14.3041 19.4353 14.337C19.5126 14.3451 19.5907 14.3351 19.6633 14.308C19.736 14.2809 19.8011 14.2374 19.8533 14.181C19.9863 14.0757 20.0808 13.931 20.1226 13.7685C20.366 12.952 19.7871 11.4269 18.4023 9.23371C18.4923 9.23716 18.5815 9.21515 18.6591 9.17028C18.7367 9.12541 18.7996 9.05957 18.8401 8.98065C18.945 8.77398 19.1248 8.4197 17.5421 6.57491C17.9736 6.86465 18.3785 7.19066 18.7524 7.54921C20.0813 8.82209 21.7956 11.2329 22.4149 15.4876C22.5654 16.5184 22.6669 17.7415 22.7735 19.0363C23.2802 25.1359 23.9726 33.4885 30.7359 37.7981L30.7523 37.8081C32.5216 38.8027 35.1657 38.9975 37.8253 38.3295C40.8555 37.5703 43.6562 35.7567 45.7119 33.2312L45.1821 32.817C43.2184 35.2312 40.5459 36.9596 37.6567 37.6859C35.1683 38.3109 32.7168 38.143 31.0972 37.2363C24.6203 33.103 23.9433 24.9419 23.4488 18.9824C23.3404 17.6774 23.238 16.445 23.0849 15.394C21.8368 6.8145 16.4085 5.21433 16.1779 5.15023L15.0142 4.82715L15.8373 5.69596C17.2058 7.13839 17.7881 7.92203 18.0359 8.33198C17.9741 8.31972 17.9103 8.32095 17.8491 8.33552C17.7879 8.3501 17.7306 8.37767 17.6815 8.41633C17.4114 8.62469 17.518 9.01947 17.6548 9.31386L17.6763 9.35266C19.5239 12.2206 19.542 13.2607 19.4757 13.5593C16.5607 7.55849 14.0886 6.68289 13.9846 6.64831L12.9206 6.29574L13.6087 7.16624C15.1501 9.1131 16.0343 10.7436 16.5375 11.9153C15.0322 9.4429 13.5149 8.63399 13.4366 8.59266L12.2505 7.97941L12.9971 9.07093C14.185 10.8103 15.2911 13.7373 15.5225 14.3691C14.1867 13.2455 13.3265 11.2034 13.3171 11.1814L12.6943 9.68331L12.666 11.3012C12.6545 11.8633 12.6911 12.4254 12.7752 12.9815C11.9796 11.9769 11.5013 11.7829 11.4291 11.7576L10.4279 11.4142L11.0411 12.2628C12.3744 14.1093 12.3081 15.4083 12.3081 15.4193V15.4362C12.3081 15.5117 12.2991 15.587 12.2815 15.6605C12.269 15.6542 12.257 15.6471 12.2453 15.6394C10.9199 14.5218 10.3229 12.1624 10.3178 12.1388L9.65545 12.278C9.8679 13.3915 10.0219 14.348 10.1294 15.0903C9.7234 14.3058 9.33719 13.5155 9.26924 13.378C9.25657 13.346 9.23949 13.316 9.21849 13.2886L9.10839 13.1654L8.42028 13.1738L8.64736 13.642L8.69724 13.7449C8.86927 14.2577 9.54104 17.0347 9.01894 20.0106C7.73732 26.6863 12.6935 32.1979 12.9051 32.429L13.4444 32.0325C11.7078 29.2852 11.6751 27.0136 11.9882 25.5374C12.9739 30.8913 17.3727 36.0545 18.3223 37.119C17.6634 37.8655 15.3832 37.8352 14.3708 37.8217C14.2297 37.8217 14.105 37.8174 14 37.8217C6.04283 37.8276 1.87198 39.7702 1.69995 39.8529L-0.00830078 40.6669L1.88402 40.4813C6.93824 39.9853 9.62534 41.1156 11.9383 42.3159C14.1153 43.4437 13.7652 45.9532 13.7497 46.0587L14.4103 46.197C14.8241 44.7276 16.2029 43.9263 18.195 43.9988C19.8774 44.1473 21.5057 44.2375 23.0694 44.2822L22.9765 44.0646L23.4445 43.8714L23.6268 44.2932C24.581 44.3134 25.5091 44.3179 26.4111 44.3067L26.2847 44.1228L26.7053 43.8444L27.0175 44.2974C36.2684 44.1228 42.4451 42.4746 42.5294 42.4518C47.1742 41.092 50.6363 38.6635 53.1092 34.9764V33.7297C52.3718 34.9876 51.4795 36.1516 50.4522 37.1958Z" fill="#663300"/>
<path d="M23.4528 43.8623L22.9849 44.0555L23.0778 44.2731L23.6351 44.2874L23.4528 43.8623Z" fill="#663300"/>
<path d="M26.293 44.1172L26.4194 44.3011C26.6233 44.3011 26.8254 44.2961 27.0258 44.2918L26.7136 43.8389L26.293 44.1172Z" fill="#663300"/>
<path d="M26.4555 10.2945L28.6644 11.6627L28.6841 11.3861C28.6893 11.311 28.7934 9.51087 26.6198 7.54883L26.3901 7.79262C27.9281 9.18191 28.2584 10.4919 28.328 11.063L26.6344 10.0136L26.4555 10.2945Z" fill="#663300"/>
<path d="M124.953 5.60076L129.305 5.028C127.626 4.99848 125.852 5.37554 124.953 5.60076Z" fill="#663300"/>
<path d="M129.778 5.04822L129.784 4.96387L129.305 5.02627C129.464 5.03133 129.623 5.03725 129.778 5.04822Z" fill="#663300"/>
<path d="M124.302 5.60386L124.353 5.76247C124.361 5.76247 124.584 5.69329 124.955 5.60134L124.33 5.6857C124.33 5.6857 127.254 4.79578 129.786 4.9687L129.793 4.88435C127.272 4.71311 124.332 5.59542 124.302 5.60386Z" fill="#663300"/>
<path d="M124.327 5.68263L124.952 5.59828C125.852 5.37306 127.626 4.996 129.305 5.02553L129.784 4.96309C127.252 4.79269 124.327 5.68263 124.327 5.68263Z" fill="#663300"/>
<path d="M15.9805 28.3983C15.9917 28.5333 16.2772 31.7278 19.5071 34.1445L19.7126 33.8805C16.6084 31.5574 16.3219 28.4043 16.3194 28.373L15.9805 28.3983Z" fill="#663300"/>
<path d="M14.6968 42.4424L14.9944 42.6002C15.0047 42.5816 16.0885 40.7799 20.7789 41.8781C20.809 41.8857 23.8539 42.6373 27.5457 41.6883L27.4596 41.367C23.8573 42.2948 20.8933 41.5644 20.8606 41.5559C15.8846 40.3919 14.7398 42.3581 14.6968 42.4424Z" fill="#663300"/>
<path d="M21.2928 22.3657C21.3031 21.9743 21.3625 18.5234 20.3656 17.8992C20.215 17.8047 19.9665 17.7255 19.6353 17.8858C18.0595 18.6449 17.0695 20.6761 17.0273 20.7622L17.3387 20.9064C17.3482 20.887 18.321 18.8988 19.7876 18.1886C19.9906 18.0899 20.1093 18.1388 20.1806 18.1835C20.3742 18.3041 20.7225 18.7588 20.8791 20.4357C20.9354 21.0744 20.9587 21.7155 20.9488 22.3564L21.2928 22.3657Z" fill="#663300"/>
<path d="M58.8839 22.0283H54.2485V31.5416V33.0684V42.7209H58.9802V22.8449V22.0283H58.8839Z" fill="#663300"/>
<path d="M67.3572 30.7217V42.72H62.6264V30.7217H60.2886V27.2008H62.6264V22.0283H67.3572V27.2017H69.6401V30.7225L67.3572 30.7217Z" fill="#663300"/>
<path d="M82.8462 42.7202V41.0416H82.7903C82.3889 41.7884 81.7254 42.3572 80.7999 42.748C79.9678 43.0917 79.0725 43.2639 78.1696 43.2541C75.7841 43.2541 73.8494 42.4489 72.3653 40.8383C70.9346 39.2727 70.2192 37.3112 70.2192 34.9538C70.2192 32.6336 70.9478 30.6862 72.4049 29.1116C73.917 27.4808 75.838 26.6654 78.1679 26.6654C79.0675 26.6565 79.959 26.8332 80.7844 27.1841C81.6756 27.5665 82.3436 28.1218 82.7886 28.8501H82.8445V27.1985H87.5753V42.7193L82.8462 42.7202ZM81.7186 32.128C80.9668 31.3823 80.0158 31.0092 78.8654 31.0087C77.7243 31.0087 76.7825 31.4 76.0399 32.1828C75.3162 32.9381 74.9544 33.8797 74.9544 35.0078C74.9544 36.092 75.3302 37.0112 76.082 37.7653C76.4449 38.1361 76.8819 38.4295 77.3658 38.6269C77.8496 38.8243 78.3699 38.9215 78.8938 38.9125C80.0344 38.9125 80.9806 38.5346 81.7323 37.7788C82.4738 37.0236 82.8448 36.0819 82.8454 34.9538C82.8459 33.8162 82.4703 32.8743 81.7186 32.128Z" fill="#663300"/>
<path d="M100.228 42.721V34.2444C100.228 33.2322 100.079 32.4814 99.7823 31.9922C99.4021 31.3556 98.7249 31.0373 97.7506 31.0373C96.7184 31.0373 95.9899 31.3466 95.565 31.9652C95.2123 32.4747 95.036 33.2482 95.036 34.2857V42.721H90.3052V27.2001H94.7177V28.8517H94.7874C95.6969 27.3958 97.1305 26.6676 99.0881 26.667C100.694 26.667 102.044 27.1169 103.139 28.0166C103.827 28.579 104.318 29.3382 104.614 30.2942C104.843 31.0404 104.958 31.9458 104.958 33.0103V42.721H100.228Z" fill="#663300"/>
<path d="M107.808 42.72V22.0283H119.531V26.6677H112.975V29.8891H119.322V34.5285H112.975V38.0772H119.531V42.7166L107.808 42.72Z" fill="#CC9900"/>
<path d="M133.905 42.7206V41.0419H133.85C133.386 41.8157 132.703 42.3846 131.804 42.7484C131.042 43.0661 130.147 43.2253 129.117 43.2258C126.752 43.2258 124.826 42.4161 123.341 40.7965C121.912 39.2309 121.197 37.2742 121.197 34.9264C121.197 32.6151 121.907 30.677 123.327 29.112C124.812 27.4812 126.714 26.6658 129.034 26.6658C130.909 26.6658 132.458 27.2843 133.683 28.5215V22.0264H138.414V42.7206H133.905ZM132.806 32.1149C132.044 31.3777 131.093 31.0091 129.953 31.0091C128.802 31.0091 127.846 31.3732 127.085 32.1014C126.315 32.8387 125.93 33.7713 125.93 34.8994C125.93 36.046 126.296 36.9925 127.03 37.7387C127.772 38.503 128.728 38.8851 129.897 38.8851C131.075 38.8851 132.045 38.5074 132.806 37.7522C133.558 36.9975 133.933 36.0466 133.933 34.8994C133.933 33.7803 133.558 32.8521 132.806 32.1149Z" fill="#CC9900"/>
<path d="M151.287 42.7204V41.0688H151.232C150.842 41.8606 150.276 42.4294 149.533 42.7752C148.893 43.0755 148.09 43.2257 147.124 43.2257C145.111 43.2257 143.561 42.575 142.475 41.2737C141.882 40.546 141.488 39.7908 141.293 39.008C141.134 38.4164 141.056 37.5746 141.056 36.4825V27.2037H145.787V35.7866C145.787 36.7881 145.945 37.5251 146.26 37.9975C146.649 38.5896 147.336 38.8854 148.32 38.8849C150.129 38.8849 151.033 37.8338 151.034 35.7318V27.2012H155.765V42.722L151.287 42.7204Z" fill="#CC9900"/>
<path d="M55.6483 50.4639L54.3013 46.8789H54.6978L55.8366 49.9873L56.9729 46.8789H57.3694L56.0267 50.4639H55.6483Z" fill="#262626"/>
<path d="M57.8101 47.4574C57.7866 47.4346 57.7679 47.4075 57.7552 47.3776C57.7424 47.3477 57.7358 47.3156 57.7358 47.2832C57.7358 47.2508 57.7424 47.2187 57.7552 47.1888C57.7679 47.1589 57.7866 47.1318 57.8101 47.109C57.8334 47.0859 57.861 47.0676 57.8915 47.0551C57.922 47.0426 57.9547 47.0361 57.9878 47.0361C58.0208 47.0361 58.0536 47.0426 58.084 47.0551C58.1145 47.0676 58.1422 47.0859 58.1654 47.109C58.189 47.1317 58.2078 47.1588 58.2206 47.1887C58.2335 47.2186 58.2401 47.2507 58.2401 47.2832C58.2401 47.3156 58.2335 47.3478 58.2206 47.3777C58.2078 47.4076 58.189 47.4347 58.1654 47.4574C58.1422 47.4804 58.1145 47.4988 58.084 47.5113C58.0536 47.5238 58.0208 47.5302 57.9878 47.5302C57.9547 47.5302 57.922 47.5238 57.8915 47.5113C57.861 47.4988 57.8334 47.4804 57.8101 47.4574ZM57.8153 50.4637V47.9028H58.1594V50.4637H57.8153Z" fill="#262626"/>
<path d="M60.4067 48.2313H59.6549V49.7808C59.6549 50.2212 59.9052 50.1849 60.4067 50.1646V50.4615C59.6756 50.5695 59.31 50.3772 59.31 49.7808V48.2287H58.7612V47.9006H59.31V47.2865L59.6541 47.1836V47.9006H60.4058L60.4067 48.2313Z" fill="#262626"/>
<path d="M63.2 47.9027H63.5441V50.4636H63.2V49.9575C63.0925 50.136 62.9377 50.2827 62.752 50.3819C62.5664 50.4811 62.3567 50.5291 62.1455 50.5209C61.9675 50.5236 61.7908 50.4904 61.6264 50.4234C61.462 50.3563 61.3134 50.2569 61.1898 50.1312C61.0623 50.0067 60.9618 49.8581 60.8944 49.6944C60.827 49.5307 60.7941 49.3554 60.7976 49.1789C60.7941 49.0024 60.827 48.827 60.8944 48.6634C60.9618 48.4997 61.0623 48.3511 61.1898 48.2266C61.3134 48.1009 61.462 48.0014 61.6264 47.9344C61.7908 47.8673 61.9675 47.8342 62.1455 47.8368C62.3567 47.8286 62.5664 47.8766 62.752 47.9759C62.9377 48.0751 63.0925 48.2218 63.2 48.4003V47.9027ZM62.1678 50.197C62.3036 50.1999 62.4384 50.1755 62.5642 50.1253C62.6899 50.0751 62.8039 50.0002 62.899 49.9052C62.9955 49.8106 63.0716 49.6979 63.1228 49.5738C63.1739 49.4498 63.199 49.3169 63.1966 49.1831C63.1994 49.05 63.1745 48.9177 63.1233 48.7945C63.0721 48.6712 62.9958 48.5594 62.899 48.4661C62.8048 48.3695 62.6912 48.2932 62.5653 48.242C62.4394 48.1909 62.3041 48.1661 62.1678 48.1692C62.0316 48.1661 61.8963 48.191 61.7704 48.2421C61.6445 48.2932 61.5309 48.3695 61.4367 48.4661C61.3401 48.5595 61.2638 48.6713 61.2127 48.7946C61.1615 48.9178 61.1365 49.05 61.1391 49.1831C61.1369 49.3169 61.1621 49.4497 61.2132 49.5738C61.2643 49.6978 61.3403 49.8105 61.4367 49.9052C61.5323 50.0005 61.6468 50.0756 61.7731 50.1258C61.8995 50.176 62.035 50.2002 62.1713 50.197H62.1678Z" fill="#262626"/>
<path d="M66.6528 48.891V50.4634H66.3088V48.891C66.3088 48.4355 66.0507 48.169 65.5983 48.169C65.0968 48.169 64.7528 48.471 64.7528 49.1213V50.4634H64.4087V47.9024H64.7528V48.3023C64.9454 47.9952 65.2379 47.8414 65.6301 47.8408C66.2623 47.84 66.6528 48.2508 66.6528 48.891Z" fill="#262626"/>
<path d="M67.87 50.1255H69.6453V50.4629H67.5044V46.8779H69.6169V47.2153H67.8674V48.4849H69.4862V48.8223H67.8674L67.87 50.1255Z" fill="#262626"/>
<path d="M72.5965 46.8789H72.9406V50.4639H72.5965V49.9578C72.4889 50.1364 72.3339 50.2831 72.1481 50.3823C71.9623 50.4815 71.7525 50.5295 71.5411 50.5212C71.3631 50.5238 71.1865 50.4906 71.0221 50.4235C70.8577 50.3565 70.7091 50.2571 70.5855 50.1315C70.4581 50.0069 70.3578 49.8583 70.2905 49.6946C70.2232 49.5309 70.1905 49.3556 70.1941 49.1792C70.1905 49.0028 70.2232 48.8274 70.2905 48.6638C70.3578 48.5001 70.4581 48.3515 70.5855 48.2269C70.7091 48.1013 70.8577 48.0019 71.0221 47.9348C71.1865 47.8678 71.3631 47.8345 71.5411 47.8371C71.7525 47.8288 71.9623 47.8769 72.1481 47.9761C72.3339 48.0753 72.4889 48.222 72.5965 48.4006V46.8789ZM71.5643 50.1973C71.7 50.2 71.8349 50.1755 71.9606 50.1253C72.0863 50.0751 72.2002 50.0003 72.2955 49.9054C72.3918 49.8108 72.4679 49.6981 72.519 49.5741C72.5701 49.45 72.5953 49.3172 72.5931 49.1834C72.5957 49.0503 72.5707 48.9181 72.5195 48.7949C72.4683 48.6716 72.3921 48.5598 72.2955 48.4664C72.2012 48.3699 72.0876 48.2937 71.9617 48.2425C71.8359 48.1914 71.7005 48.1665 71.5643 48.1695C71.4281 48.1664 71.2927 48.1912 71.1668 48.2423C71.041 48.2935 70.9273 48.3698 70.8332 48.4664C70.7363 48.5597 70.6598 48.6714 70.6085 48.7947C70.5572 48.918 70.5321 49.0502 70.5347 49.1834C70.5324 49.3172 70.5577 49.4502 70.6089 49.5743C70.6602 49.6983 70.7365 49.811 70.8332 49.9054C70.9287 50.0009 71.0432 50.076 71.1696 50.1263C71.2959 50.1765 71.4315 50.2006 71.5678 50.1973H71.5643Z" fill="#262626"/>
<path d="M75.6376 47.9023H75.9817V50.4633H75.6376V50.0643C75.4444 50.3713 75.1519 50.5249 74.7603 50.5249C74.1281 50.5249 73.7358 50.1149 73.7358 49.4746V47.9023H74.0799V49.4746C74.0799 49.931 74.3379 50.1967 74.7904 50.1967C75.2918 50.1967 75.6368 49.8947 75.6368 49.2444L75.6376 47.9023Z" fill="#262626"/>
<path d="M76.8788 50.4341C76.8259 50.3804 76.7964 50.3087 76.7964 50.2341C76.7964 50.1595 76.8259 50.0879 76.8788 50.0342C76.9333 49.9822 77.0063 49.9531 77.0822 49.9531C77.1582 49.9531 77.2312 49.9822 77.2857 50.0342C77.3386 50.0879 77.3681 50.1595 77.3681 50.2341C77.3681 50.3087 77.3386 50.3804 77.2857 50.4341C77.231 50.4857 77.1581 50.5145 77.0822 50.5145C77.0064 50.5145 76.9335 50.4857 76.8788 50.4341Z" fill="#262626"/>
<path d="M78.4146 50.1417C78.2867 50.0162 78.1859 49.8666 78.1185 49.7019C78.0511 49.5372 78.0184 49.3609 78.0224 49.1834C78.0179 49.0068 78.0503 48.8312 78.1178 48.6674C78.1853 48.5036 78.2863 48.3551 78.4146 48.2311C78.5418 48.1031 78.6947 48.0023 78.8636 47.9352C79.0326 47.8681 79.2139 47.8362 79.396 47.8414C79.9121 47.8414 80.3517 48.1029 80.54 48.5162L80.2579 48.6748C80.1168 48.3678 79.7883 48.1687 79.3978 48.1687C79.2615 48.1656 79.1262 48.1905 79.0003 48.2416C78.8744 48.2927 78.7608 48.369 78.6666 48.4656C78.57 48.559 78.4938 48.6708 78.4426 48.794C78.3914 48.9173 78.3664 49.0495 78.369 49.1826C78.3668 49.3164 78.392 49.4492 78.4431 49.5732C78.4942 49.6973 78.5702 49.81 78.6666 49.9047C78.7618 49.9996 78.8757 50.0745 79.0015 50.1247C79.1272 50.1749 79.262 50.1993 79.3978 50.1965C79.578 50.2012 79.7559 50.1569 79.9121 50.0686C80.0683 49.9803 80.1966 49.8515 80.2829 49.6963L80.5701 49.8608C80.4566 50.0667 80.2873 50.2377 80.0808 50.3551C79.8744 50.4726 79.6389 50.5318 79.4003 50.5263C79.218 50.5317 79.0364 50.5003 78.8668 50.4341C78.6973 50.368 78.5434 50.2684 78.4146 50.1417Z" fill="#262626"/>
<path d="M82.4097 50.5252C82.229 50.5286 82.0494 50.4964 81.8815 50.4304C81.7137 50.3645 81.561 50.2662 81.4326 50.1414C81.3033 50.0167 81.2013 49.8674 81.1331 49.7026C81.0649 49.5378 81.0319 49.361 81.0361 49.1832C81.0314 49.0061 81.0641 48.8301 81.1324 48.6662C81.2007 48.5022 81.3029 48.354 81.4326 48.2308C81.5599 48.1041 81.7122 48.0042 81.8802 47.9372C82.0482 47.8702 82.2284 47.8375 82.4097 47.8411C82.5902 47.8375 82.7695 47.8702 82.9365 47.9372C83.1035 48.0043 83.2548 48.1042 83.3808 48.2308C83.5114 48.3536 83.6146 48.5017 83.6837 48.6656C83.7529 48.8296 83.7865 49.0058 83.7825 49.1832C83.786 49.3613 83.7521 49.5383 83.683 49.7032C83.6139 49.868 83.5111 50.0171 83.3808 50.1414C83.2536 50.2661 83.102 50.3644 82.9352 50.4304C82.7683 50.4963 82.5896 50.5286 82.4097 50.5252ZM82.4097 50.1971C82.5455 50.1999 82.6803 50.1754 82.806 50.1252C82.9318 50.075 83.0457 50.0002 83.1409 49.9052C83.2373 49.8105 83.3133 49.6979 83.3644 49.5738C83.4155 49.4498 83.4407 49.3169 83.4385 49.1832C83.4411 49.0501 83.4161 48.9179 83.3649 48.7946C83.3137 48.6714 83.2375 48.5596 83.1409 48.4662C83.0467 48.3696 82.9331 48.2933 82.8072 48.2422C82.6813 48.1911 82.546 48.1662 82.4097 48.1692C82.2735 48.1661 82.1381 48.191 82.0123 48.2421C81.8864 48.2932 81.7727 48.3695 81.6786 48.4662C81.5818 48.5595 81.5055 48.6712 81.4543 48.7945C81.4031 48.9178 81.3782 49.0501 81.381 49.1832C81.3786 49.317 81.4037 49.4498 81.4548 49.5739C81.506 49.698 81.5821 49.8107 81.6786 49.9052C81.7737 50.0002 81.8876 50.0752 82.0134 50.1254C82.1391 50.1756 82.274 50.2 82.4097 50.1971Z" fill="#262626"/>
<path d="M88.2487 48.8656V50.4633H87.9046V48.8656C87.9046 48.4203 87.6465 48.1689 87.2672 48.1689C86.8371 48.1689 86.5412 48.4455 86.5412 49.0444V50.4633H86.1972V48.8656C86.1972 48.4144 85.9615 48.1689 85.5856 48.1689C85.1684 48.1689 84.8338 48.4506 84.8338 49.0444V50.4633H84.4897V47.9023H84.8338V48.2769C84.9143 48.1401 85.0312 48.0273 85.1719 47.9505C85.3126 47.8737 85.4719 47.8357 85.6329 47.8407C86.0088 47.8407 86.2754 47.9951 86.4268 48.3072C86.5093 48.1598 86.6322 48.0379 86.7816 47.9555C86.9311 47.873 87.1011 47.8333 87.2724 47.8407C87.8564 47.8399 88.2487 48.2355 88.2487 48.8656Z" fill="#262626"/>
<path d="M90.5366 49.0451V48.7178H92.4161V49.0451H90.5366Z" fill="#262626"/>
<path d="M97.1692 46.8789H97.5348V50.4639H97.1692V48.7895H95.1849V50.4639H94.8193V46.8789H95.1849V48.4513H97.1692V46.8789Z" fill="#262626"/>
<path d="M100.59 48.2462C100.827 48.5054 100.955 48.8423 100.95 49.1901C100.95 49.2264 100.945 49.2821 100.94 49.3496H98.6469C98.7149 49.8666 99.1277 50.1931 99.686 50.1931C100.083 50.1931 100.381 50.0193 100.527 49.7578L100.83 49.9324C100.6 50.296 100.187 50.5229 99.6808 50.5229C99.4963 50.5299 99.3123 50.4999 99.14 50.4348C98.9677 50.3697 98.8107 50.2708 98.6787 50.1442C98.5508 50.0179 98.4505 49.8673 98.3839 49.7016C98.3173 49.536 98.286 49.3588 98.2917 49.1809C98.286 49.0043 98.3169 48.8285 98.3824 48.664C98.4479 48.4994 98.5466 48.3496 98.6727 48.2235C98.8004 48.0963 98.9537 47.9966 99.1228 47.9306C99.2919 47.8647 99.4731 47.834 99.655 47.8405C99.8321 47.834 100.008 47.8671 100.17 47.9374C100.332 48.0077 100.476 48.1134 100.59 48.2462ZM98.6469 49.0214H100.595C100.574 48.7792 100.46 48.5538 100.276 48.3913C100.104 48.2442 99.8831 48.1641 99.655 48.1661C99.4077 48.1566 99.1659 48.2397 98.9787 48.3985C98.7915 48.5574 98.6729 48.78 98.6469 49.0214ZM99.6791 47.126L99.3402 47.5411H98.9746L99.4907 46.9219H99.8666L100.383 47.5411H100.017L99.6791 47.126ZM99.4967 51.3158C99.4731 51.2931 99.4543 51.266 99.4415 51.2361C99.4287 51.2062 99.4221 51.1741 99.4221 51.1416C99.4221 51.1092 99.4287 51.0771 99.4415 51.0472C99.4543 51.0173 99.4731 50.9901 99.4967 50.9674C99.52 50.9443 99.5476 50.926 99.5781 50.9135C99.6086 50.901 99.6413 50.8946 99.6744 50.8946C99.7074 50.8946 99.7401 50.901 99.7706 50.9135C99.8011 50.926 99.8288 50.9443 99.852 50.9674C99.8755 50.9902 99.8942 51.0173 99.907 51.0472C99.9197 51.0771 99.9263 51.1092 99.9263 51.1416C99.9263 51.174 99.9197 51.2061 99.907 51.2361C99.8942 51.266 99.8755 51.2931 99.852 51.3158C99.829 51.3397 99.8013 51.3587 99.7706 51.3718C99.7399 51.3849 99.7068 51.3918 99.6734 51.3921C99.6399 51.3924 99.6067 51.3861 99.5758 51.3736C99.5448 51.3611 99.5168 51.3426 99.4933 51.3192L99.4967 51.3158Z" fill="#262626"/>
<path d="M103.875 49.0093C104.313 49.1165 104.862 49.2345 104.862 49.7879C104.864 49.891 104.841 49.9932 104.795 50.0858C104.748 50.1784 104.68 50.2588 104.595 50.3202C104.401 50.4642 104.16 50.5367 103.917 50.5252C103.415 50.5252 103.05 50.2839 102.909 49.9347L103.201 49.766C103.3 50.0325 103.567 50.1962 103.917 50.1962C104.267 50.1962 104.519 50.0688 104.519 49.7871C104.519 49.5559 104.279 49.4286 103.981 49.3518C103.543 49.2438 102.994 49.1257 102.994 48.5732C102.992 48.4731 103.014 48.3739 103.057 48.2833C103.101 48.1926 103.165 48.1129 103.244 48.0503C103.426 47.9083 103.653 47.8339 103.885 47.8402C104.308 47.8402 104.648 48.0401 104.799 48.3632L104.512 48.5269C104.412 48.2864 104.204 48.1684 103.885 48.1684C103.587 48.1684 103.337 48.3117 103.337 48.5732C103.334 48.8044 103.577 48.9368 103.875 49.0093Z" fill="#262626"/>
<path d="M105.561 47.4576C105.526 47.4231 105.502 47.3792 105.493 47.3314C105.483 47.2837 105.488 47.2341 105.507 47.1891C105.526 47.1441 105.558 47.1057 105.599 47.0786C105.641 47.0516 105.689 47.0371 105.739 47.0371C105.789 47.0371 105.837 47.0516 105.878 47.0786C105.92 47.1057 105.952 47.1441 105.971 47.1891C105.99 47.2341 105.995 47.2837 105.985 47.3314C105.976 47.3792 105.952 47.4231 105.917 47.4576C105.893 47.4806 105.866 47.499 105.835 47.5115C105.805 47.524 105.772 47.5304 105.739 47.5304C105.706 47.5304 105.673 47.524 105.643 47.5115C105.612 47.499 105.585 47.4806 105.561 47.4576ZM105.571 50.4639V47.903H105.915V50.4639H105.571Z" fill="#262626"/>
<path d="M109.019 48.891V50.4634H108.675V48.891C108.675 48.4355 108.417 48.169 107.965 48.169C107.464 48.169 107.119 48.471 107.119 49.1213V50.4634H106.775V47.9024H107.119V48.3023C107.312 47.9952 107.605 47.8414 107.997 47.8408C108.627 47.84 109.019 48.2508 109.019 48.891Z" fill="#262626"/>
<path d="M112.064 48.8916V50.4639H111.72V48.8916C111.72 48.436 111.462 48.1695 111.01 48.1695C110.508 48.1695 110.164 48.4715 110.164 49.1218V50.4639H109.82V46.8789H110.164V48.3028C110.357 47.9957 110.649 47.8419 111.042 47.8413C111.672 47.8405 112.064 48.2513 112.064 48.8916Z" fill="#262626"/>
<path d="M115.684 48.2313H114.931V49.7808C114.931 50.2212 115.183 50.1849 115.684 50.1646V50.4615C114.953 50.5695 114.587 50.3772 114.587 49.7808V48.2287H114.039V47.9006H114.587V47.2865L114.931 47.1836V47.9006H115.684V48.2313Z" fill="#262626"/>
<path d="M118.634 48.8916V50.4639H118.29V48.8916C118.29 48.436 118.032 48.1695 117.58 48.1695C117.078 48.1695 116.733 48.4715 116.733 49.1218V50.4639H116.389V46.8789H116.733V48.3028C116.823 48.1543 116.952 48.0326 117.107 47.9511C117.262 47.8697 117.437 47.8314 117.613 47.8405C118.243 47.8405 118.634 48.2513 118.634 48.8916Z" fill="#262626"/>
<path d="M121.679 47.903H122.023V50.4639H121.679V49.9578C121.572 50.1363 121.417 50.283 121.231 50.3822C121.045 50.4814 120.836 50.5294 120.625 50.5212C120.447 50.5239 120.27 50.4907 120.106 50.4237C119.941 50.3567 119.793 50.2572 119.669 50.1315C119.417 49.8759 119.277 49.5345 119.277 49.1792C119.277 48.8239 119.417 48.4825 119.669 48.2269C119.793 48.1019 119.941 48.0031 120.106 47.9367C120.27 47.8702 120.446 47.8375 120.624 47.8405C120.835 47.8323 121.045 47.8803 121.23 47.9795C121.416 48.0787 121.571 48.2254 121.678 48.404L121.679 47.903ZM120.647 50.1973C120.783 50.2001 120.918 50.1756 121.043 50.1254C121.169 50.0753 121.283 50.0004 121.378 49.9055C121.475 49.8109 121.551 49.6982 121.602 49.5741C121.653 49.4501 121.678 49.3172 121.676 49.1834C121.679 49.0503 121.654 48.9181 121.602 48.7948C121.551 48.6715 121.475 48.5597 121.378 48.4664C121.282 48.372 121.168 48.2972 121.043 48.2461C120.917 48.195 120.783 48.1687 120.647 48.1687C120.511 48.1687 120.377 48.195 120.251 48.2461C120.126 48.2972 120.012 48.372 119.916 48.4664C119.819 48.5597 119.743 48.6715 119.691 48.7948C119.64 48.9181 119.615 49.0503 119.618 49.1834C119.616 49.3172 119.641 49.4501 119.692 49.5741C119.743 49.6982 119.819 49.8109 119.916 49.9055C120.011 50.0008 120.126 50.0759 120.252 50.1261C120.379 50.1764 120.514 50.2006 120.65 50.1973H120.647ZM121.57 46.8789L121.068 47.5445H120.734L121.152 46.8789H121.57Z" fill="#262626"/>
<path d="M122.88 47.4576C122.845 47.4231 122.821 47.3792 122.811 47.3314C122.802 47.2837 122.807 47.2341 122.826 47.1891C122.845 47.1441 122.877 47.1057 122.918 47.0786C122.96 47.0516 123.008 47.0371 123.058 47.0371C123.107 47.0371 123.156 47.0516 123.197 47.0786C123.239 47.1057 123.271 47.1441 123.29 47.1891C123.309 47.2341 123.314 47.2837 123.304 47.3314C123.294 47.3792 123.271 47.4231 123.235 47.4576C123.212 47.4806 123.185 47.499 123.154 47.5115C123.124 47.524 123.091 47.5304 123.058 47.5304C123.025 47.5304 122.992 47.524 122.962 47.5115C122.931 47.499 122.903 47.4806 122.88 47.4576ZM122.885 50.4639V47.903H123.229V50.4639H122.885Z" fill="#262626"/>
<path d="M127.935 46.8789H128.3V50.4639H127.987L125.951 47.5445V50.4639H125.585V46.8789H125.898L127.935 49.7983V46.8789Z" fill="#262626"/>
<path d="M131.456 47.9028H131.8V50.3616C131.808 50.526 131.777 50.69 131.71 50.8409C131.643 50.9918 131.542 51.1257 131.414 51.2321C131.155 51.445 130.827 51.5586 130.489 51.5518C129.879 51.5518 129.466 51.3418 129.252 50.9268L129.555 50.7581C129.712 51.0702 130.025 51.2246 130.489 51.2246C131.091 51.2246 131.456 50.8914 131.456 50.3641V49.9643C131.349 50.143 131.194 50.2896 131.008 50.3889C130.822 50.4881 130.612 50.5361 130.401 50.5278C130.223 50.5304 130.046 50.4972 129.882 50.4301C129.717 50.3631 129.569 50.2637 129.445 50.1381C129.194 49.8822 129.054 49.5409 129.054 49.1858C129.054 48.8306 129.194 48.4893 129.445 48.2334C129.569 48.1078 129.717 48.0084 129.882 47.9414C130.046 47.8744 130.223 47.8411 130.401 47.8437C130.612 47.8354 130.822 47.8834 131.008 47.9826C131.194 48.0818 131.349 48.2286 131.456 48.4072V47.9028ZM130.424 50.1971C130.56 50.1999 130.695 50.1754 130.82 50.1253C130.946 50.0751 131.06 50.0002 131.155 49.9053C131.252 49.8106 131.328 49.6979 131.379 49.5739C131.43 49.4498 131.455 49.317 131.453 49.1832C131.455 49.0501 131.43 48.9179 131.379 48.7947C131.328 48.6714 131.252 48.5596 131.155 48.4662C131.059 48.3718 130.945 48.297 130.82 48.2459C130.694 48.1948 130.56 48.1685 130.424 48.1685C130.288 48.1685 130.154 48.1948 130.028 48.2459C129.903 48.297 129.789 48.3718 129.693 48.4662C129.596 48.5595 129.519 48.6712 129.468 48.7945C129.417 48.9178 129.392 49.0501 129.394 49.1832C129.392 49.3171 129.417 49.45 129.469 49.5741C129.52 49.6981 129.596 49.8108 129.693 49.9053C129.789 50.0009 129.903 50.0762 130.03 50.1264C130.157 50.1766 130.293 50.2007 130.429 50.1971H130.424Z" fill="#262626"/>
<path d="M134.908 48.8916V50.4639H134.564V48.8916C134.564 48.436 134.306 48.1695 133.855 48.1695C133.353 48.1695 133.008 48.4715 133.008 49.1218V50.4639H132.664V46.8789H133.008V48.3028C133.098 48.1548 133.227 48.0336 133.381 47.9523C133.536 47.871 133.71 47.8326 133.885 47.8413C134.517 47.8405 134.908 48.2513 134.908 48.8916Z" fill="#262626"/>
<path d="M137.849 48.2462C138.086 48.5063 138.214 48.8445 138.208 49.1934C138.208 49.2297 138.203 49.2854 138.198 49.3529H135.906C135.974 49.8699 136.386 50.1964 136.945 50.1964C137.342 50.1964 137.64 50.0226 137.786 49.7611L138.089 49.9357C137.859 50.2993 137.446 50.5262 136.939 50.5262C136.755 50.5332 136.571 50.5032 136.398 50.4381C136.226 50.373 136.069 50.2741 135.937 50.1475C135.689 49.8868 135.551 49.5442 135.55 49.1881C135.549 48.832 135.685 48.4887 135.931 48.2268C136.059 48.0992 136.212 47.9991 136.381 47.9329C136.55 47.8667 136.732 47.8357 136.914 47.8421C137.091 47.8355 137.267 47.8685 137.429 47.9385C137.591 48.0085 137.734 48.1137 137.849 48.2462ZM135.906 49.0213H137.854C137.833 48.7791 137.719 48.5538 137.535 48.3912C137.363 48.2442 137.142 48.164 136.914 48.166C136.666 48.1565 136.425 48.2396 136.237 48.3985C136.05 48.5573 135.932 48.78 135.906 49.0213ZM136.938 47.1259L136.598 47.541H136.232L136.749 46.9218H137.125L137.641 47.541H137.276L136.938 47.1259ZM137.54 47.0956L137.075 46.4756H137.462L137.854 47.0956H137.54Z" fill="#262626"/>
<path d="M142.57 48.891V50.4634H142.226V48.891C142.226 48.4355 141.968 48.169 141.516 48.169C141.014 48.169 140.67 48.471 140.67 49.1213V50.4634H140.326V47.9024H140.67V48.3023C140.863 47.9952 141.155 47.8414 141.548 47.8408C142.178 47.84 142.57 48.2508 142.57 48.891Z" fill="#262626"/>
<path d="M145.615 47.9024H145.959V50.3612C145.966 50.5256 145.936 50.6895 145.869 50.8404C145.802 50.9912 145.701 51.1251 145.573 51.2317C145.314 51.4435 144.985 51.5562 144.648 51.5489C144.037 51.5489 143.624 51.3389 143.41 50.9239L143.713 50.7551C143.87 51.0673 144.184 51.2216 144.648 51.2216C145.25 51.2216 145.615 50.8884 145.615 50.3612V49.9614C145.507 50.1399 145.352 50.2866 145.166 50.3858C144.981 50.485 144.771 50.5331 144.559 50.5249C144.381 50.5275 144.205 50.4942 144.04 50.4272C143.876 50.3601 143.727 50.2607 143.604 50.1351C143.353 49.8793 143.212 49.5379 143.212 49.1828C143.212 48.8277 143.353 48.4863 143.604 48.2305C143.727 48.1049 143.876 48.0055 144.04 47.9384C144.205 47.8714 144.381 47.8382 144.559 47.8407C144.771 47.8325 144.981 47.8806 145.166 47.9798C145.352 48.079 145.507 48.2257 145.615 48.4042V47.9024ZM144.583 50.1967C144.718 50.1996 144.853 50.1752 144.979 50.125C145.105 50.0748 145.219 49.9999 145.314 49.9049C145.411 49.8104 145.487 49.6977 145.538 49.5737C145.589 49.4496 145.615 49.3167 145.612 49.1828C145.615 49.0497 145.59 48.9174 145.539 48.7941C145.487 48.6708 145.411 48.5591 145.314 48.4658C145.218 48.3714 145.104 48.2966 144.979 48.2455C144.853 48.1944 144.719 48.1681 144.583 48.1681C144.447 48.1681 144.312 48.1944 144.187 48.2455C144.061 48.2966 143.947 48.3714 143.852 48.4658C143.755 48.5592 143.679 48.671 143.628 48.7943C143.576 48.9176 143.551 49.0497 143.554 49.1828C143.552 49.3166 143.577 49.4494 143.628 49.5735C143.679 49.6975 143.755 49.8102 143.852 49.9049C143.947 50 144.061 50.075 144.188 50.1252C144.314 50.1754 144.449 50.1997 144.585 50.1967H144.583Z" fill="#262626"/>
<path d="M149.067 48.8916V50.4639H148.723V48.8916C148.723 48.436 148.465 48.1695 148.013 48.1695C147.512 48.1695 147.167 48.4715 147.167 49.1218V50.4639H146.823V46.8789H147.167V48.3028C147.256 48.1548 147.385 48.0336 147.54 47.9523C147.695 47.871 147.869 47.8326 148.044 47.8413C148.676 47.8405 149.067 48.2513 149.067 48.8916Z" fill="#262626"/>
<path d="M149.861 47.4576C149.826 47.4231 149.802 47.3792 149.792 47.3314C149.782 47.2837 149.787 47.2341 149.806 47.1891C149.825 47.1441 149.857 47.1057 149.899 47.0786C149.94 47.0516 149.989 47.0371 150.038 47.0371C150.088 47.0371 150.136 47.0516 150.178 47.0786C150.219 47.1057 150.251 47.1441 150.27 47.1891C150.289 47.2341 150.294 47.2837 150.285 47.3314C150.275 47.3792 150.251 47.4231 150.216 47.4576C150.193 47.4806 150.165 47.499 150.135 47.5115C150.104 47.524 150.071 47.5304 150.038 47.5304C150.005 47.5304 149.972 47.524 149.942 47.5115C149.912 47.499 149.884 47.4806 149.861 47.4576ZM149.866 50.4639V47.903H150.21V50.4639H149.866Z" fill="#262626"/>
<path d="M153.214 48.2462C153.451 48.5063 153.58 48.8445 153.574 49.1935C153.574 49.2298 153.569 49.2855 153.564 49.3529H151.271C151.338 49.87 151.751 50.1965 152.31 50.1965C152.707 50.1965 153.005 50.0227 153.151 49.7612L153.454 49.9358C153.224 50.2994 152.812 50.5263 152.305 50.5263C152.121 50.5333 151.936 50.5034 151.764 50.4382C151.591 50.3731 151.434 50.2742 151.302 50.1475C151.055 49.8869 150.917 49.5442 150.916 49.1882C150.915 48.8321 151.051 48.4888 151.297 48.2268C151.424 48.0992 151.577 47.9989 151.745 47.9324C151.914 47.8659 152.095 47.8346 152.277 47.8405C152.454 47.8337 152.631 47.8667 152.793 47.937C152.955 48.0073 153.099 48.1131 153.214 48.2462ZM151.271 49.0214H153.223C153.203 48.7793 153.089 48.5539 152.905 48.3913C152.732 48.2442 152.511 48.1641 152.283 48.1661C152.035 48.1555 151.792 48.2382 151.604 48.3971C151.416 48.556 151.297 48.7793 151.271 49.0214ZM152.303 47.126L151.964 47.5411H151.598L152.114 46.9219H152.49L153.006 47.5411H152.641L152.303 47.126ZM152.12 51.3158C152.085 51.2814 152.061 51.2375 152.052 51.1897C152.042 51.1419 152.047 51.0924 152.066 51.0474C152.085 51.0024 152.117 50.9639 152.158 50.9369C152.2 50.9098 152.248 50.8953 152.298 50.8953C152.348 50.8953 152.396 50.9098 152.437 50.9369C152.479 50.9639 152.511 51.0024 152.53 51.0474C152.549 51.0924 152.554 51.1419 152.544 51.1897C152.535 51.2375 152.511 51.2814 152.476 51.3158C152.452 51.3397 152.425 51.3587 152.394 51.3718C152.363 51.3849 152.33 51.3918 152.297 51.3921C152.263 51.3924 152.23 51.3861 152.199 51.3736C152.168 51.3611 152.14 51.3426 152.117 51.3192L152.12 51.3158Z" fill="#262626"/>
<path d="M156.603 48.2305C156.858 48.4848 157 48.8267 157 49.1828C157 49.5389 156.858 49.8808 156.603 50.1352C156.482 50.2606 156.335 50.3599 156.172 50.427C156.009 50.494 155.834 50.5274 155.657 50.5249C155.446 50.5332 155.236 50.4852 155.05 50.386C154.864 50.2868 154.71 50.14 154.602 49.9614V51.4874H154.258V47.9024H154.602V48.4043C154.71 48.2256 154.864 48.0789 155.05 47.9797C155.236 47.8805 155.446 47.8325 155.657 47.8408C155.834 47.8383 156.009 47.8716 156.172 47.9387C156.335 48.0058 156.482 48.1051 156.603 48.2305ZM155.626 50.1968C155.762 50.1996 155.897 50.1752 156.023 50.125C156.148 50.0748 156.262 49.9999 156.357 49.9049C156.454 49.8103 156.53 49.6976 156.581 49.5736C156.632 49.4495 156.657 49.3166 156.655 49.1828C156.658 49.0497 156.633 48.9175 156.582 48.7942C156.531 48.6709 156.454 48.5591 156.357 48.4658C156.262 48.3715 156.148 48.2966 156.022 48.2455C155.897 48.1944 155.762 48.1681 155.626 48.1681C155.49 48.1681 155.356 48.1944 155.23 48.2455C155.105 48.2966 154.991 48.3715 154.895 48.4658C154.799 48.5593 154.722 48.671 154.671 48.7943C154.62 48.9176 154.595 49.0498 154.598 49.1828C154.595 49.3166 154.621 49.4495 154.672 49.5735C154.723 49.6975 154.799 49.8102 154.895 49.9049C154.99 49.9998 155.104 50.0747 155.23 50.1249C155.356 50.1751 155.491 50.1995 155.626 50.1968Z" fill="#262626"/>
</g>
<defs>
<clipPath id="clip0_11910_23314">
<rect width="157" height="54" fill="white"/>
</clipPath>
</defs>
</svg>
