<svg width="162" height="114" viewBox="0 0 162 114" fill="none" xmlns="http://www.w3.org/2000/svg">
<g clip-path="url(#clip0)">
<path d="M162 42.2271C162 26.6479 157.048 15.9495 148.918 9.21674C141.687 3.11583 131.695 0 117.123 0C108.708 0 100.776 0.697248 94.5747 1.80849V34.9495C96.5468 35.1674 106.912 36.8016 110.987 47.7615V12.7901C112.981 12.3544 114.822 12.0057 118.766 12.0057C136.45 12.0057 145.938 23.1835 145.872 42.5539C145.872 65.9553 134.587 76.3704 117.189 76.305C116.224 76.305 115.414 76.305 114.625 76.2615V88.4633C129.416 88.289 141.292 84.6502 149.028 77.547C156.85 70.3784 162 58.7649 162 42.2271Z" fill="white"/>
<path d="M94.5748 52.5987V39.8085L91.5289 37.3682C90.8716 37.3028 90.2361 37.2592 89.5787 37.2592C89.5568 37.2592 89.5349 37.2592 89.513 37.2592C89.4034 37.2592 89.2939 37.2374 89.1843 37.2374C88.9652 37.2374 88.768 37.281 88.5488 37.281C87.6723 37.3028 86.8396 37.3464 86.0727 37.4335C85.9631 37.4553 85.8755 37.4553 85.7878 37.4771C80.1125 38.1744 77.3296 40.2661 76.3435 41.203L76.3216 37.3464H61.6401V43.7523C65.7159 47.8269 68.1701 53.5792 68.1701 60.8131C68.1701 68.4393 66.1322 74.4748 61.7278 78.9634V88.5941H78.2499V65.8464C78.2499 65.1927 78.2937 64.5608 78.3376 63.9289V61.6629C78.3376 57.1526 82.0189 53.492 86.5548 53.492C88.4174 53.492 90.1265 54.1457 91.507 55.1916V52.5769H94.5748V52.5987Z" fill="white"/>
<path d="M101.806 88.1365V88.5723H103.209V88.2236C102.726 88.2018 102.266 88.1583 101.806 88.1365Z" fill="white"/>
<path d="M106.649 54.6686V50.5505H107.985L94.5747 39.7867V52.5769H101.784V88.1147C102.244 88.1365 102.704 88.1801 103.186 88.2019V54.6468H106.649V54.6686Z" fill="white"/>
<path d="M94.7939 87.4611V88.5723H101.806V88.1365C99.1546 87.9622 96.8099 87.7225 94.7939 87.4611Z" fill="white"/>
<path d="M94.5746 59.9851V52.5986H91.5068V55.2133C93.0407 56.3681 94.1583 58.0241 94.5746 59.9851Z" fill="white"/>
<path d="M94.5747 52.5986V59.9851C94.6843 60.5298 94.75 61.0963 94.75 61.6846V66.0642C94.75 66.2821 94.7719 66.4782 94.7719 66.6961V87.4828C96.7879 87.7443 99.1325 87.984 101.784 88.1583V52.5986H94.5747Z" fill="white"/>
<path d="M94.5747 37.8694C93.5667 37.6297 92.5587 37.4554 91.5288 37.3464L94.5747 39.7868V37.8694Z" fill="white"/>
<path d="M108.862 50.5505C105.947 43.3165 100.666 39.2855 94.5747 37.8693V39.8085L107.985 50.5722H108.862V50.5505Z" fill="white"/>
<path d="M109.234 51.5528L107.985 50.5505H106.648V54.6687H110.176C109.913 53.5792 109.585 52.5333 109.234 51.5528Z" fill="white"/>
<path d="M109.234 51.5528C109.103 51.226 108.993 50.8774 108.862 50.5505H108.007L109.234 51.5528Z" fill="white"/>
<path d="M110.987 59.375V75.9128C111.097 75.9346 111.206 75.9346 111.316 75.9564V64.8222C111.316 62.9048 111.185 61.0963 110.987 59.375Z" fill="white"/>
<path d="M111.316 88.507C108.38 88.4634 105.663 88.3762 103.208 88.2455V88.5941H111.316V88.507Z" fill="white"/>
<path d="M110.987 59.375C110.878 58.4817 110.768 57.6319 110.615 56.8039H106.649V54.6686H103.208V88.2236C105.663 88.3762 108.38 88.4633 111.316 88.4851V75.9564C111.207 75.9346 111.097 75.9346 110.987 75.9128V59.375Z" fill="white"/>
<path d="M106.648 54.6686V56.8039H110.615C110.483 56.0849 110.352 55.3658 110.176 54.6686H106.648Z" fill="white"/>
<path d="M32.0364 44.6675H29.2754C40.1002 44.6893 49.1282 49.4611 49.1282 60.3556C49.1282 71.4244 40.5823 75.9565 30.4148 76.1308C31.0941 76.1526 31.7953 76.1526 32.5404 76.1526C42.9708 76.1526 51.8892 71.6423 51.8892 60.3556C51.8892 49.4611 42.8612 44.6893 32.0364 44.6675Z" fill="white"/>
<path d="M48.7338 5.77409C43.2119 1.74313 36.1779 0.348633 26.0762 0.348633C18.2096 0.348633 10.3429 1.06767 5.58789 2.06996V2.96331V5.77409V47.9358V87.461C9.79511 88.0493 16.3251 88.6158 25.0901 88.6158C25.4845 88.6158 25.8571 88.6158 26.2296 88.5941C18.2753 88.5287 12.2932 88.0058 8.34888 87.4392V37.3463H46.696C53.1383 33.6422 56.5128 27.6502 56.5128 21.1135C56.5128 14.3807 53.5546 9.06423 48.7338 5.77409ZM25.6599 34.2305H22.0004V11.7879C23.1837 11.6789 24.63 11.6135 26.4706 11.6135C35.1699 11.6135 40.0345 15.492 40.0345 22.5952C40.0564 29.4151 34.6002 34.2305 25.6599 34.2305Z" fill="white"/>
<path d="M61.7278 75.477V58.4381C61.7278 55.8016 61.6839 53.2305 61.6401 50.7248V47.1296C58.5504 42.3796 53.7297 39.1548 47.9666 37.6514C47.9666 37.6514 47.3531 37.477 46.7395 37.3463H46.6957H8.34863V87.4828C12.2929 88.0275 18.297 88.5504 26.2293 88.6376C41.7216 88.5069 51.8671 85.5871 58.0684 79.9002C59.5146 78.5493 60.7198 77.0676 61.7278 75.477ZM32.5402 76.1525C31.7951 76.1525 31.0939 76.1525 30.4146 76.1307C30.1955 76.1307 29.9983 76.1525 29.7792 76.1525C26.4265 76.1525 23.9504 76.0653 22.0002 75.6949V47.9358H22.0221V44.6674H24.7612H29.2752H32.0362C42.861 44.6892 51.889 49.461 51.889 60.3555C51.889 71.664 42.9706 76.1525 32.5402 76.1525Z" fill="white"/>
<path d="M61.7278 58.4163V75.4553C64.2258 71.4679 65.4091 66.5872 65.4091 60.7695C65.4091 55.3659 64.0286 50.7684 61.6401 47.0861V50.6812C61.684 53.2088 61.7278 55.8017 61.7278 58.4163Z" fill="white"/>
<path d="M5.52197 109.882V98.0504H11.7452V99.9896H7.75706V102.8H11.5479V104.696H7.75706V109.904H5.52197V109.882Z" fill="#FFFAF9"/>
<path d="M12.9502 105.437C12.9502 103.912 13.1036 102.822 13.4104 102.169C13.8705 101.21 14.7689 100.73 16.1056 100.73C17.4423 100.73 18.3407 101.21 18.8009 102.169C19.1076 102.8 19.261 103.89 19.261 105.437C19.261 106.984 19.1076 108.073 18.8009 108.705C18.3407 109.664 17.4423 110.122 16.1056 110.122C14.7689 110.122 13.8705 109.642 13.4104 108.683C13.1036 108.052 12.9502 106.984 12.9502 105.437ZM15.0538 105.546C15.0538 106.657 15.0538 107.245 15.0757 107.354C15.1853 108.139 15.514 108.553 16.0618 108.553C16.6096 108.553 16.9602 108.204 17.0698 107.529C17.0917 107.376 17.1136 106.831 17.1136 105.851V104.979C17.1136 104.086 17.0917 103.541 17.0479 103.345C16.9164 102.67 16.5877 102.321 16.0618 102.321C15.5359 102.321 15.2291 102.626 15.0976 103.214C15.0538 103.411 15.0319 103.912 15.0319 104.718V105.546H15.0538Z" fill="#FFFAF9"/>
<path d="M21.3647 109.882V100.992H23.3369V102.43C23.8628 101.319 24.564 100.774 25.4186 100.752V103.258C25.2652 103.236 25.0899 103.236 24.8927 103.236C24.4544 103.236 24.1038 103.367 23.8409 103.628C23.5779 103.89 23.4464 104.238 23.4464 104.674V109.882H21.3647Z" fill="#FFFAF9"/>
<path d="M35.9805 109.882C35.8929 109.773 35.8272 109.468 35.7614 109.01C35.3232 109.751 34.6439 110.1 33.7235 110.1C33.0004 110.1 32.4526 109.838 32.0582 109.337C31.7295 108.88 31.5542 108.27 31.5542 107.529C31.5542 106.723 31.7733 106.069 32.2335 105.589C32.5622 105.219 33.1538 104.87 34.0303 104.478C34.118 104.435 34.2495 104.391 34.4467 104.304C35.2574 103.955 35.6519 103.563 35.6519 103.106C35.6519 102.517 35.3451 102.234 34.7315 102.234C34.0084 102.234 33.6359 102.648 33.6359 103.476V103.65H31.6199C31.6199 102.626 31.8829 101.885 32.4088 101.428C32.9128 100.992 33.6797 100.796 34.7315 100.796C35.8052 100.796 36.5503 100.992 37.0104 101.406C37.4706 101.842 37.6897 102.583 37.6897 103.628V108.662C37.6897 109.141 37.7993 109.577 37.9965 109.947H35.9805V109.882ZM35.6957 105.219C35.0602 105.546 34.622 105.807 34.359 106.025C33.9208 106.417 33.7016 106.853 33.7016 107.354C33.7016 108.117 34.0084 108.509 34.622 108.509C35.3451 108.509 35.6957 107.877 35.6957 106.635V105.219Z" fill="#FFFAF9"/>
<path d="M50.3991 109.185C50.3991 110.47 50.2238 111.342 49.8952 111.821C49.4131 112.518 48.5147 112.867 47.178 112.867C45.3592 112.867 44.4389 112.191 44.417 110.84H46.4768C46.4987 111.211 46.7616 111.385 47.2437 111.385C47.7039 111.385 48.0107 111.211 48.1641 110.862C48.2517 110.644 48.3174 110.252 48.3174 109.729V109.119C47.9668 109.773 47.3971 110.121 46.6302 110.121C45.5565 110.121 44.8333 109.555 44.5046 108.422C44.3293 107.855 44.2417 106.853 44.2417 105.393C44.2417 104.021 44.3293 103.018 44.5046 102.43C44.8553 101.319 45.5345 100.752 46.5863 100.752C47.4629 100.752 48.0764 101.144 48.4051 101.929V100.992H50.3991V109.185ZM47.3095 102.452C46.8055 102.452 46.4987 102.888 46.3891 103.759C46.3672 103.89 46.3672 104.5 46.3672 105.589C46.3672 106.526 46.3891 107.071 46.411 107.245C46.5206 108.008 46.8274 108.378 47.3314 108.378C47.9011 108.378 48.2517 107.899 48.3832 106.918C48.4051 106.788 48.4051 106.09 48.4051 104.849C48.4051 104.064 48.3832 103.563 48.3174 103.323C48.1421 102.757 47.8135 102.452 47.3095 102.452Z" fill="#FFFAF9"/>
<path d="M52.481 105.437C52.481 103.912 52.6343 102.822 52.9411 102.169C53.4013 101.21 54.2997 100.73 55.6364 100.73C56.973 100.73 57.8715 101.21 58.3316 102.169C58.6384 102.8 58.7918 103.89 58.7918 105.437C58.7918 106.984 58.6384 108.073 58.3316 108.705C57.8715 109.664 56.973 110.122 55.6364 110.122C54.2997 110.122 53.4013 109.642 52.9411 108.683C52.6343 108.052 52.481 106.984 52.481 105.437ZM54.6065 105.546C54.6065 106.657 54.6065 107.245 54.6284 107.354C54.738 108.139 55.0666 108.553 55.6145 108.553C56.1623 108.553 56.5129 108.204 56.6224 107.529C56.6444 107.376 56.6663 106.831 56.6663 105.851V104.979C56.6663 104.086 56.6444 103.541 56.6005 103.345C56.469 102.67 56.1404 102.321 55.6145 102.321C55.0886 102.321 54.7818 102.626 54.6503 103.214C54.6065 103.411 54.5846 103.912 54.5846 104.718V105.546H54.6065Z" fill="#FFFAF9"/>
<path d="M60.5884 105.437C60.5884 103.912 60.7418 102.822 61.0485 102.169C61.5087 101.21 62.4071 100.73 63.7438 100.73C65.0805 100.73 65.9789 101.21 66.4391 102.169C66.7458 102.8 66.8992 103.89 66.8992 105.437C66.8992 106.984 66.7458 108.073 66.4391 108.705C65.9789 109.664 65.0805 110.122 63.7438 110.122C62.4071 110.122 61.5087 109.642 61.0485 108.683C60.7418 108.052 60.5884 106.984 60.5884 105.437ZM62.7139 105.546C62.7139 106.657 62.7139 107.245 62.7358 107.354C62.8454 108.139 63.1741 108.553 63.7219 108.553C64.2697 108.553 64.6203 108.204 64.7299 107.529C64.7518 107.376 64.7737 106.831 64.7737 105.851V104.979C64.7737 104.086 64.7518 103.541 64.708 103.345C64.5765 102.67 64.2478 102.321 63.7219 102.321C63.196 102.321 62.8892 102.626 62.7577 103.214C62.7139 103.411 62.692 103.912 62.692 104.718V105.546H62.7139Z" fill="#FFFAF9"/>
<path d="M72.9691 108.967C72.6185 109.751 72.0049 110.143 71.1503 110.143C70.0985 110.143 69.3973 109.577 69.0686 108.466C68.8933 107.855 68.8057 106.875 68.8057 105.502C68.8057 104.086 68.8933 103.084 69.0467 102.495C69.3754 101.341 70.0547 100.774 71.1065 100.774C71.9392 100.774 72.5308 101.101 72.8595 101.776V98.0504H74.9412V109.904H72.9691V108.967ZM70.8874 105.306C70.8874 106.374 70.8874 106.984 70.9093 107.136C71.0188 108.008 71.3256 108.444 71.8296 108.444C72.3555 108.444 72.6842 108.139 72.8157 107.55C72.8814 107.311 72.9033 106.81 72.9033 106.025C72.9033 104.783 72.9033 104.108 72.8814 103.955C72.7499 102.975 72.3993 102.495 71.8296 102.495C71.3475 102.495 71.0408 102.888 70.9093 103.65C70.8874 103.803 70.8874 104.369 70.8874 105.306Z" fill="#FFFAF9"/>
<path d="M87.4311 106.396C87.4311 106.526 87.453 106.679 87.453 106.897C87.453 109.054 86.4889 110.121 84.5606 110.121C83.2677 110.121 82.3912 109.642 81.953 108.662C81.6681 108.03 81.5366 106.962 81.5366 105.437C81.5366 103.912 81.6681 102.844 81.953 102.212C82.3912 101.232 83.2677 100.752 84.5606 100.752C86.4889 100.752 87.453 101.754 87.453 103.737V104.042H85.459V103.846C85.459 102.822 85.1741 102.321 84.5606 102.321C83.947 102.321 83.6621 102.822 83.6621 103.824V106.897C83.6621 107.398 83.706 107.746 83.7717 107.964C83.9032 108.335 84.1661 108.531 84.5606 108.531C84.9988 108.531 85.2837 108.291 85.3932 107.812C85.459 107.572 85.4809 107.18 85.4809 106.57V106.374H87.4311V106.396Z" fill="#FFFAF9"/>
<path d="M93.7423 109.882C93.6546 109.773 93.5889 109.468 93.5231 109.01C93.0849 109.751 92.4056 110.1 91.4853 110.1C90.7622 110.1 90.2143 109.838 89.8199 109.337C89.4912 108.879 89.3159 108.269 89.3159 107.529C89.3159 106.722 89.535 106.069 89.9952 105.589C90.3239 105.219 90.9155 104.87 91.792 104.478C91.8797 104.435 92.0112 104.391 92.2084 104.304C93.0192 103.955 93.4136 103.563 93.4136 103.105C93.4136 102.517 93.1068 102.234 92.4933 102.234C91.7701 102.234 91.3976 102.648 91.3976 103.476V103.65H89.4036C89.4036 102.626 89.6665 101.885 90.1924 101.428C90.6964 100.992 91.4634 100.796 92.5152 100.796C93.5889 100.796 94.3339 100.992 94.7941 101.406C95.2542 101.842 95.4734 102.582 95.4734 103.628V108.662C95.4734 109.141 95.5829 109.577 95.7801 109.947H93.7423V109.882ZM93.4574 105.219C92.8219 105.546 92.3837 105.807 92.1207 106.025C91.6825 106.417 91.4634 106.853 91.4634 107.354C91.4634 108.117 91.7701 108.509 92.3837 108.509C93.1068 108.509 93.4574 107.877 93.4574 106.635V105.219Z" fill="#FFFAF9"/>
<path d="M97.7739 109.882V100.992H99.7461V102.43C100.272 101.319 100.973 100.774 101.828 100.752V103.258C101.674 103.236 101.499 103.236 101.302 103.236C100.864 103.236 100.513 103.367 100.25 103.628C99.9871 103.89 99.8556 104.238 99.8556 104.674V109.882H97.7739Z" fill="#FFFAF9"/>
<path d="M107.46 106.831H109.41C109.41 106.875 109.41 106.919 109.41 107.006C109.41 107.071 109.41 107.136 109.41 107.18C109.41 108.204 109.169 108.945 108.665 109.424C108.161 109.904 107.394 110.122 106.364 110.122C105.29 110.122 104.501 109.838 104.041 109.272C103.669 108.814 103.428 108.161 103.318 107.289C103.274 106.919 103.252 106.2 103.252 105.132C103.252 104.282 103.274 103.672 103.318 103.323C103.406 102.604 103.603 102.038 103.932 101.667C104.458 101.036 105.268 100.73 106.43 100.73C107.525 100.73 108.336 101.057 108.84 101.733C109.256 102.277 109.454 103.367 109.454 105.023V105.698H105.4C105.378 105.786 105.378 105.982 105.378 106.265C105.378 106.919 105.422 107.398 105.488 107.681C105.641 108.269 105.948 108.553 106.408 108.553C107.109 108.575 107.46 108.008 107.46 106.831ZM105.378 104.304H107.394V103.933C107.394 103.432 107.35 103.062 107.262 102.844C107.109 102.495 106.824 102.321 106.386 102.321C106.013 102.321 105.75 102.43 105.597 102.67C105.422 102.953 105.334 103.389 105.356 103.912V104.042C105.378 104.151 105.378 104.238 105.378 104.304Z" fill="#FFFAF9"/>
<path d="M115.546 106.831H117.496C117.496 106.875 117.496 106.919 117.496 107.006C117.496 107.071 117.496 107.136 117.496 107.18C117.496 108.204 117.255 108.945 116.751 109.424C116.247 109.904 115.48 110.122 114.45 110.122C113.376 110.122 112.587 109.838 112.127 109.272C111.755 108.814 111.514 108.161 111.404 107.289C111.36 106.919 111.338 106.2 111.338 105.132C111.338 104.282 111.36 103.672 111.404 103.323C111.492 102.604 111.689 102.038 112.018 101.667C112.544 101.036 113.354 100.73 114.516 100.73C115.611 100.73 116.422 101.057 116.926 101.733C117.342 102.277 117.54 103.367 117.54 105.023V105.698H113.464C113.442 105.786 113.442 105.982 113.442 106.265C113.442 106.919 113.486 107.398 113.552 107.681C113.705 108.269 114.012 108.553 114.472 108.553C115.195 108.575 115.546 108.008 115.546 106.831ZM113.464 104.304H115.48V103.933C115.48 103.432 115.436 103.062 115.348 102.844C115.195 102.495 114.91 102.321 114.472 102.321C114.099 102.321 113.836 102.43 113.683 102.67C113.508 102.953 113.42 103.389 113.442 103.912V104.042C113.464 104.151 113.464 104.238 113.464 104.304Z" fill="#FFFAF9"/>
<path d="M119.708 109.882V100.992H121.681V102.43C122.207 101.319 122.908 100.774 123.762 100.752V103.258C123.609 103.236 123.434 103.236 123.236 103.236C122.798 103.236 122.448 103.367 122.185 103.628C121.922 103.89 121.79 104.238 121.79 104.674V109.882H119.708Z" fill="#FFFAF9"/>
<path d="M130.117 112.889V100.992H132.089V101.929C132.418 101.144 133.032 100.752 133.908 100.752C134.96 100.752 135.661 101.319 135.99 102.43C136.165 103.018 136.253 104.021 136.253 105.393C136.253 106.831 136.165 107.834 136.012 108.4C135.683 109.555 135.004 110.121 133.952 110.121C133.119 110.121 132.549 109.795 132.199 109.119V112.867H130.117V112.889ZM132.111 105.066C132.111 106.199 132.133 106.853 132.155 107.027C132.287 107.943 132.637 108.378 133.185 108.378C133.689 108.378 133.996 107.964 134.105 107.158C134.127 107.027 134.127 106.439 134.127 105.415C134.127 104.413 134.105 103.846 134.083 103.672C133.974 102.866 133.667 102.452 133.163 102.452C132.615 102.452 132.287 102.779 132.155 103.454C132.155 103.65 132.111 104.195 132.111 105.066Z" fill="#FFFAF9"/>
<path d="M142.608 109.882C142.52 109.773 142.454 109.468 142.388 109.01C141.95 109.751 141.271 110.1 140.351 110.1C139.627 110.1 139.08 109.838 138.685 109.337C138.356 108.879 138.181 108.269 138.181 107.529C138.181 106.722 138.4 106.069 138.86 105.589C139.189 105.219 139.781 104.87 140.657 104.478C140.745 104.435 140.876 104.391 141.074 104.304C141.884 103.955 142.279 103.563 142.279 103.105C142.279 102.517 141.972 102.234 141.358 102.234C140.635 102.234 140.263 102.648 140.263 103.476V103.65H138.247C138.247 102.626 138.51 101.885 139.036 101.428C139.54 100.992 140.307 100.796 141.358 100.796C142.432 100.796 143.177 100.992 143.637 101.406C144.098 101.842 144.317 102.582 144.317 103.628V108.662C144.317 109.141 144.426 109.577 144.623 109.947H142.608V109.882ZM142.323 105.219C141.687 105.546 141.249 105.807 140.986 106.025C140.548 106.417 140.329 106.853 140.329 107.354C140.329 108.117 140.635 108.509 141.249 108.509C141.972 108.509 142.323 107.877 142.323 106.635V105.219Z" fill="#FFFAF9"/>
<path d="M148.721 107.202C148.721 107.594 148.743 107.834 148.787 107.964C148.874 108.204 149.05 108.313 149.357 108.313C149.378 108.313 149.422 108.313 149.466 108.313C149.51 108.313 149.554 108.313 149.576 108.313V109.904C149.072 109.947 148.699 109.991 148.48 109.991C147.735 109.991 147.231 109.816 146.968 109.49C146.749 109.206 146.639 108.662 146.639 107.877V102.539H145.829V101.014H146.639V98.5734H148.721V101.014H149.576V102.539H148.721V107.202Z" fill="#FFFAF9"/>
<path d="M151.373 109.882V98.0504H153.432V101.842C153.805 101.123 154.418 100.752 155.273 100.752C156.61 100.752 157.289 101.471 157.289 102.888V109.882H155.295V103.912C155.295 103.454 155.273 103.149 155.207 102.975C155.098 102.67 154.857 102.517 154.484 102.517C154.046 102.517 153.739 102.713 153.586 103.084C153.498 103.323 153.432 103.694 153.432 104.217V109.882H151.373Z" fill="#FFFAF9"/>
</g>
<defs>
<clipPath id="clip0">
<rect width="162" height="114" fill="white"/>
</clipPath>
</defs>
</svg>
