<svg width="245" height="85" viewBox="0 0 245 85" fill="none" xmlns="http://www.w3.org/2000/svg">
<g clip-path="url(#clip0_11910_23240)">
<path d="M77.2124 48.1474L76.7573 47.8645C76.7654 47.8526 77.0258 47.4197 77.5036 46.643C80.8472 40.7543 79.6929 36.4683 79.6794 36.4192L80.1962 36.2744C80.2392 36.4245 80.9519 39.0375 79.6955 43.0062C80.5264 41.6214 81.4982 39.9922 82.564 38.1865L83.0284 38.452C80.7855 42.2494 78.9627 45.2661 77.9882 46.8687C77.7502 47.2891 77.4915 47.7154 77.2124 48.1474Z" fill="#F0E8E0"/>
<path d="M92.6953 27.3718C92.6943 26.1974 92.2221 25.0714 91.3826 24.2409C90.5431 23.4105 89.4048 22.9434 88.2175 22.9424C87.0304 22.9438 85.8923 23.4109 85.0528 24.2413C84.2134 25.0717 83.7412 26.1975 83.7397 27.3718C83.7412 28.5461 84.2134 29.6719 85.0528 30.5023C85.8923 31.3327 87.0304 31.7998 88.2175 31.8012C89.4047 31.7998 90.5428 31.3327 91.3822 30.5023C92.2217 29.6719 92.6939 28.5461 92.6953 27.3718V27.3718ZM84.5317 27.3718C84.5327 26.4051 84.9214 25.4784 85.6124 24.7948C86.3034 24.1113 87.2403 23.7268 88.2175 23.7258C89.1948 23.7268 90.1316 24.1113 90.8226 24.7948C91.5136 25.4784 91.9023 26.4051 91.9034 27.3718C91.9023 28.3384 91.5136 29.265 90.8226 29.9483C90.1315 30.6317 89.1946 31.0159 88.2175 31.0166C87.2404 31.0159 86.3035 30.6317 85.6125 29.9483C84.9215 29.265 84.5327 28.3384 84.5317 27.3718V27.3718Z" fill="#F0E8E0"/>
<path d="M88.2176 28.3972C88.7914 28.3972 89.2565 27.9371 89.2565 27.3695C89.2565 26.8019 88.7914 26.3418 88.2176 26.3418C87.6438 26.3418 87.1787 26.8019 87.1787 27.3695C87.1787 27.9371 87.6438 28.3972 88.2176 28.3972Z" fill="#F0E8E0"/>
<path d="M109.564 21.5378C98.7388 23.1749 94.8154 22.9426 94.7765 22.9399L93.0825 22.827L94.551 23.6702C95.4664 24.1947 96.0127 24.8267 96.1724 25.549C96.3751 26.4559 96.0087 27.55 95.0543 28.8923L93.1335 31.5983L95.6409 29.4115C99.2462 26.2686 112.727 22.3145 134.626 18.229H134.619L134.556 17.8731L134.514 17.7178C126.176 19.0455 111.849 21.1926 109.564 21.5378ZM96.6167 27.7783C96.9993 26.902 97.108 26.1106 96.9469 25.3883C96.7972 24.7536 96.456 24.1789 95.9684 23.7405C97.8543 23.7087 102.042 23.475 109.684 22.3185C110.633 22.1764 113.655 21.6998 117.462 21.0956C107.086 23.4803 100.111 25.7176 96.6167 27.7703V27.7783Z" fill="#F0E8E0"/>
<path d="M134.625 18.2293C150.447 15.7065 168.649 13.1837 173.81 12.3605L175.153 12.1454L175.075 11.6289C174.871 11.6555 154.621 13.9644 134.523 17.7154L134.552 17.8734L134.646 18.2239L134.625 18.2293Z" fill="#F0E8E0"/>
<path d="M134.625 18.2285H134.649L134.556 17.8779L134.619 18.2338L134.625 18.2285Z" fill="#F0E8E0"/>
<path d="M53.3524 74.5835C52.6478 77.2391 52.2531 78.6413 52.2491 78.6559L53.0129 78.8656C53.0129 78.8497 53.4639 77.2577 54.2544 74.2675L54.3887 73.7471L53.8518 73.7763C52.0612 73.8719 48.3485 73.8812 45.0049 73.8653L45.5418 74.6513C48.4384 74.6632 51.5229 74.6526 53.3524 74.5835Z" fill="#F0E8E0"/>
<path d="M38.6235 73.8082L36.8786 69.712L36.0088 69.6895L38.0906 74.5836H38.3497C38.4074 74.5836 41.2544 74.6248 44.5765 74.6434L44.0396 73.856C41.5242 73.844 39.351 73.8175 38.6235 73.8082Z" fill="#F0E8E0"/>
<path d="M47.7258 79.2562L43.4453 84.5089L44.0628 85.0002L48.7097 79.2908L45.5406 74.6436H44.5809L47.7258 79.2562Z" fill="#F0E8E0"/>
<path d="M44.0441 73.8605H45.0038L42.1743 69.7139C41.8616 69.7139 41.5461 69.7245 41.228 69.7285L44.0441 73.8605Z" fill="#F0E8E0"/>
<path d="M44.5809 74.6474H45.5406L45.0037 73.8613H44.0439L44.5809 74.6474Z" fill="#F0E8E0"/>
<path d="M209.4 6.45163C207.879 4.50113 203.945 4.63523 201.734 4.88884C190.27 6.20599 165.064 9.58914 128.079 15.4287L126.253 15.7169C125.961 15.762 125.582 15.823 125.137 15.8961C119.989 16.7286 104.323 19.5289 96.8496 18.0497C90.2859 16.4564 82.5679 17.0592 81.8713 17.1429C80.5398 17.107 79.6753 16.7445 79.3008 16.0727C78.576 14.7635 79.7035 12.3841 80.1975 11.5768L81.0337 10.2159L79.5451 10.8214C77.3452 11.7189 76.1197 12.9458 75.9022 14.486C75.6338 16.3715 76.9962 18.221 78.0727 19.3576C77.1156 19.1266 76.3626 18.6937 75.8244 18.071C74.6163 16.6662 74.87 14.6958 74.8714 14.6772L75.0056 13.7557L74.1425 14.1248C72.6942 14.7462 72.1291 16.1909 72.0593 16.3728C71.3103 18.1985 71.8499 19.886 72.6096 21.0664C68.7788 20.3348 67.3063 21.956 67.2406 22.0344L66.501 22.8802L67.6325 22.8988C69.8607 22.9333 70.5935 23.1869 70.8177 23.3077C70.774 23.3496 70.7269 23.3878 70.6768 23.4219C69.615 24.1429 66.9828 24.8174 65.7171 25.1414C64.7252 25.3963 64.4258 25.4733 64.4983 25.9619C64.5064 26.011 64.5789 26.428 65.1158 26.4147C69.9211 26.2288 73.7653 29.5575 74.8875 34.8938C76.2633 41.4331 73.0579 49.8008 62.7963 53.7562C59.3172 55.0973 56.3722 54.922 54.0394 53.2384C49.779 50.1606 48.1334 42.5591 47.4945 36.7249C47.0989 32.8973 46.9737 29.0472 47.12 25.2025C47.8529 25.4813 49.1871 26.1585 50.5991 27.7173L50.9186 28.0691L51.3038 27.7916C51.6085 27.5725 51.8273 27.4145 50.7803 22.9373C46.814 8.11933 34.4651 0.55101 34.3416 0.481966L33.5362 0V0.929441C33.5362 1.78585 34.0195 2.89322 34.555 3.85054C31.9349 2.52277 29.6061 2.67546 29.4839 2.68342L27.3793 2.83481L29.3068 3.68191C30.5792 4.2409 31.5202 5.75724 32.0718 6.88983C31.0631 6.54236 29.9893 6.41902 28.9269 6.52865L27.3672 6.73047L28.7336 7.50056C35.0342 11.051 35.8342 19.8303 35.8476 19.9179L36.9 19.833C36.8718 19.4824 36.1819 11.8464 30.8195 7.63469C31.5469 7.74373 32.233 8.03844 32.8101 8.48977L34.2168 9.65819L33.653 7.93208C33.6114 7.79931 32.8316 5.45843 31.3094 3.87174C33.0532 4.17945 34.6827 4.94117 36.0302 6.07852L39.6207 9.12312L36.802 5.36951C36.3523 4.77201 35.3778 3.33001 34.8906 2.11244C37.9536 4.30725 46.5992 11.3817 49.7549 23.1869C49.9763 24.1336 50.1991 25.1905 50.3441 25.9912C48.3992 24.2876 46.7898 23.9995 46.7106 23.9915L46.1334 23.8959L46.0972 24.4749C46.0368 25.4242 44.7281 47.8038 53.4166 54.0842C56.0581 55.9935 59.344 56.2086 63.1802 54.7321C74.0177 50.555 77.3894 41.6536 75.9224 34.6828C74.9318 29.9705 71.8432 26.6112 67.8687 25.6472C69.1251 25.2834 70.4902 24.816 71.2607 24.2942C71.6513 24.0459 72.0539 23.5693 71.9009 23.0369C71.7479 22.5044 71.117 22.1592 69.8392 21.9906C70.7707 21.8578 72.1036 21.9043 73.9304 22.4845L76.4807 23.2931L74.4365 21.5869C74.411 21.567 71.9345 19.4625 73.0486 16.7578L73.0593 16.7312C73.2309 16.3058 73.4885 15.9195 73.8163 15.596C73.8754 16.4591 74.1331 17.6979 75.0244 18.7388C76.027 19.9139 77.5747 20.5393 79.6122 20.5977L81.2028 20.6429L79.9559 19.6656C79.9223 19.6391 76.6203 17.0207 76.9613 14.6294C77.0767 13.8141 77.6243 13.0945 78.5935 12.4784C78.117 13.6575 77.6955 15.3238 78.3854 16.5732C78.9572 17.6062 80.1384 18.1493 81.8981 18.1878H81.937H81.9746C82.0552 18.1785 90.0698 17.4841 96.6322 19.0734C104.317 20.5951 120.122 17.7722 125.319 16.9318L126.431 16.7525L128.257 16.4657C165.227 10.6235 190.419 7.24697 201.869 5.93115C203.47 5.74792 207.298 5.41863 208.446 7.09295C209.544 8.70221 208.558 10.3009 208.528 10.2796C207.536 9.10851 204.293 8.75267 196.807 10.2796C196.705 10.2969 186.728 12.0508 173.441 14.8803C172.195 15.1459 168.941 15.7646 164.438 16.621C145.323 20.2551 105.68 27.4212 98.6577 30.815C98.1073 31.0938 97.5704 31.354 97.0469 31.6116C95.8604 32.1852 94.7409 32.727 93.6913 33.3789V34.6297C94.8483 33.8396 96.1181 33.2236 97.5114 32.549C98.0402 32.2941 98.5852 32.0312 99.1315 31.7524C106.017 28.4237 145.574 21.2762 164.634 17.65C169.144 16.7923 172.403 16.1722 173.661 15.904C186.925 13.0799 196.882 11.3298 197 11.3099C206.665 9.33155 207.924 11.1665 208.054 11.2621C208.779 11.7933 208.834 12.7227 208.834 12.7227C208.834 12.7227 210.996 8.7832 209.4 6.45163Z" fill="#F0E8E0"/>
<path d="M78.7309 58.5492C75.4343 61.8939 71.2948 64.2706 66.0881 65.8095C65.9297 65.852 50.052 70.1235 28.4885 68.1995H28.4617C25.8147 68.1039 23.6966 68.9297 22.4577 70.4886C22.2121 68.9205 21.4295 66.8704 19.1342 65.6701C15.9987 64.0303 12.4498 62.4715 6.60284 62.4715H6.55049C9.64576 61.6018 14.8014 60.5701 21.8523 60.5648C22.0094 60.5648 22.2013 60.5648 22.4148 60.5648C24.6322 60.594 28.7596 60.6511 29.7355 58.5824L29.8831 58.2677L29.6469 58.0102C29.5502 57.9053 19.9933 47.4145 19.4832 37.7563L19.3732 35.6743L18.4765 37.5612C17.8497 38.8823 16.8537 41.81 17.8215 45.7561C15.9303 42.292 14.0632 37.196 15.1182 31.6631C15.4781 29.468 15.5363 27.2348 15.2914 25.0243C15.6511 25.7001 15.992 26.3096 16.2309 26.6708L17.3893 28.3969L17.196 26.3375C17.196 26.3215 17.0953 25.2832 16.839 23.5147C17.2739 24.2305 17.8171 24.8762 18.4497 25.4293C18.7302 25.647 19.2081 25.8276 19.6296 25.6351C20.0322 25.4492 20.2403 25.0083 20.2577 24.3245C20.2658 24.1918 20.2886 23.4031 19.8967 22.1736C20.2376 22.6848 20.6107 23.2889 21.0134 24.0032L21.9383 23.4973C21.9302 23.4814 21.2913 22.3023 20.9812 20.2722C21.7141 21.4831 22.7651 22.9025 24.0684 23.8174L24.1423 23.8598C24.4845 24.0258 24.961 24.0962 25.2711 23.7961C25.702 23.3832 25.4053 22.7127 25.2818 22.4365C24.5304 20.3432 23.6574 18.2946 22.6671 16.3009C23.8215 17.5397 25.2483 19.4875 26.4872 22.4205L26.5127 22.4723C26.8402 23.0526 27.2348 23.0114 27.3892 22.9676C27.9261 22.8149 27.8831 22.1417 27.8644 21.8191V21.7886C27.8469 21.6372 27.4523 18.5846 24.2845 13.7117C25.6912 15.2453 27.506 17.768 29.4778 21.8655C29.5556 22.0182 29.8429 22.5161 30.3288 22.5679C30.4494 22.5805 30.5713 22.5649 30.6846 22.5222C30.7979 22.4795 30.8995 22.4111 30.9811 22.3223C31.1885 22.1566 31.336 21.9287 31.4012 21.673C31.7811 20.3877 30.8778 17.9871 28.7167 14.5349C28.8572 14.5403 28.9963 14.5057 29.1175 14.435C29.2386 14.3644 29.3367 14.2608 29.3999 14.1365C29.5637 13.8112 29.8442 13.2536 27.3744 10.3497C28.0477 10.8058 28.6796 11.319 29.263 11.8834C31.3368 13.887 34.0119 17.6817 34.9784 24.379C35.2133 26.0015 35.3717 27.9268 35.5381 29.9649C36.3287 39.566 37.4092 52.7137 47.9635 59.4973L47.989 59.5132C50.75 61.0786 54.8761 61.3854 59.0264 60.3338C63.7552 59.1388 68.1257 56.2841 71.3337 52.3087L70.5068 51.6567C67.4424 55.4568 63.272 58.1775 58.7634 59.3207C54.8802 60.3046 51.0547 60.0403 48.5272 58.613C38.4199 52.1069 37.3636 39.2607 36.5918 29.88C36.4227 27.8259 36.2629 25.886 36.024 24.2316C34.0764 10.7269 25.6053 8.20809 25.2456 8.10718L23.4295 7.59863L24.7141 8.96621C26.8496 11.2367 27.7583 12.4702 28.1449 13.1155C28.0485 13.0962 27.949 13.0981 27.8535 13.1211C27.7579 13.144 27.6686 13.1874 27.5919 13.2483C27.1704 13.5762 27.3369 14.1977 27.5503 14.661L27.5838 14.7221C30.467 19.2365 30.4952 20.8737 30.3918 21.3437C25.8429 11.898 21.9852 10.5197 21.8228 10.4653L20.1624 9.91031L21.2362 11.2805C23.6416 14.345 25.0214 16.9116 25.8067 18.7559C23.4577 14.8642 21.0899 13.5909 20.9678 13.5258L19.1168 12.5605L20.2819 14.2787C22.1356 17.0165 23.8617 21.6239 24.2228 22.6184C22.1382 20.8498 20.796 17.6353 20.7812 17.6008L19.8094 15.2426L19.7651 17.7893C19.7473 18.6741 19.8043 19.5588 19.9356 20.4342C18.694 18.8528 17.9477 18.5475 17.8349 18.5076L16.2725 17.9672L17.2296 19.3029C19.3101 22.2094 19.2067 24.2542 19.2067 24.2714V24.298C19.2066 24.4169 19.1927 24.5354 19.1651 24.6512C19.1457 24.6412 19.1269 24.6301 19.1088 24.618C17.0403 22.8587 16.1088 19.1449 16.1007 19.1077L15.0672 19.3269C15.3987 21.0795 15.639 22.5852 15.8068 23.7536C15.1732 22.5188 14.5705 21.2747 14.4645 21.0583C14.4447 21.008 14.4181 20.9606 14.3853 20.9175L14.2135 20.7237L13.1397 20.7369L13.4941 21.4739L13.5719 21.6358C13.8404 22.4431 14.8887 26.8142 14.0739 31.4985C12.0739 42.0065 19.8081 50.6822 20.1383 51.046L20.9799 50.4219C18.2698 46.0974 18.2188 42.5217 18.7074 40.1981C20.2457 48.6255 27.11 56.7527 28.5919 58.4284C27.5637 59.6035 24.0053 59.5557 22.4255 59.5344C22.2054 59.5344 22.0107 59.5278 21.847 59.5344C9.42966 59.5437 2.92101 62.6016 2.65256 62.7317L-0.0131836 64.013L2.9398 63.7209C10.827 62.9401 15.0202 64.7194 18.6296 66.6088C22.0268 68.384 21.4805 72.3341 21.4564 72.5001L22.4872 72.7179C23.1329 70.4049 25.2845 69.1435 28.3932 69.2577C31.0187 69.4914 33.5596 69.6334 35.9998 69.7038L35.8549 69.3613L36.5851 69.0572L36.8696 69.7211C38.3587 69.753 39.807 69.76 41.2145 69.7423L41.0172 69.4529L41.6736 69.0147L42.1608 69.7277C56.5969 69.4529 66.2358 66.8584 66.3673 66.8226C73.6155 64.6822 79.0182 60.8596 82.8772 55.0559V53.0934C81.7265 55.0734 80.3339 56.9057 78.7309 58.5492V58.5492Z" fill="#F0E8E0"/>
<path d="M36.5984 69.042L35.8682 69.3461L36.0131 69.6886L36.8829 69.7112L36.5984 69.042Z" fill="#F0E8E0"/>
<path d="M41.0303 69.444L41.2276 69.7335C41.5457 69.7335 41.8611 69.7255 42.1739 69.7189L41.6866 69.0059L41.0303 69.444Z" fill="#F0E8E0"/>
<path d="M41.2841 16.2038L44.7311 18.3574L44.7619 17.9219C44.77 17.8037 44.9324 14.9702 41.5405 11.8818L41.1821 12.2656C43.5821 14.4524 44.0975 16.5145 44.2062 17.4134L41.5633 15.7616L41.2841 16.2038Z" fill="#F0E8E0"/>
<path d="M194.99 8.81625L201.782 7.91468C199.161 7.86821 196.394 8.46173 194.99 8.81625Z" fill="#F0E8E0"/>
<path d="M202.52 7.94626L202.529 7.81348L201.782 7.9117C202.03 7.91967 202.277 7.92899 202.52 7.94626Z" fill="#F0E8E0"/>
<path d="M193.975 8.82058L194.054 9.07025C194.066 9.07025 194.414 8.96135 194.994 8.81662L194.018 8.9494C194.018 8.9494 198.582 7.5486 202.533 7.8208L202.543 7.68802C198.61 7.41848 194.022 8.8073 193.975 8.82058Z" fill="#F0E8E0"/>
<path d="M194.014 8.94507L194.99 8.81229C196.394 8.45778 199.162 7.86426 201.782 7.91073L202.529 7.81245C198.579 7.54424 194.014 8.94507 194.014 8.94507Z" fill="#F0E8E0"/>
<path d="M24.938 44.7C24.9554 44.9124 25.4011 49.9407 30.4413 53.7448L30.7621 53.3292C25.9178 49.6725 25.4709 44.7093 25.4668 44.6602L24.938 44.7Z" fill="#F0E8E0"/>
<path d="M22.9341 66.8069L23.3985 67.0552C23.4146 67.026 25.1059 64.1898 32.4253 65.9186C32.4722 65.9305 37.2239 67.1136 42.9849 65.6198L42.8506 65.114C37.2292 66.5745 32.6038 65.4247 32.5528 65.4114C24.7877 63.5791 23.0012 66.6741 22.9341 66.8069Z" fill="#F0E8E0"/>
<path d="M33.2281 35.2051C33.2442 34.589 33.3368 29.1571 31.7811 28.1745C31.5462 28.0258 31.1583 27.901 30.6415 28.1533C28.1825 29.3483 26.6375 32.5456 26.5718 32.681L27.0577 32.9081C27.0724 32.8775 28.5906 29.7479 30.8791 28.63C31.1959 28.4746 31.3811 28.5516 31.4925 28.622C31.7945 28.8118 32.3382 29.5275 32.5825 32.1672C32.6703 33.1725 32.7066 34.1815 32.6912 35.1905L33.2281 35.2051Z" fill="#F0E8E0"/>
<path d="M91.8887 34.6738H84.6553V49.6484V52.0517V67.2454H92.0391V35.9591V34.6738H91.8887Z" fill="#F0E8E0"/>
<path d="M105.111 48.3588V67.245H97.7288V48.3588H94.0806V42.8167H97.7288V34.6748H105.111V42.818H108.674V48.3601L105.111 48.3588Z" fill="#F0E8E0"/>
<path d="M129.282 67.2456V64.6033H129.195C128.568 65.7789 127.533 66.6742 126.089 67.2894C124.79 67.8304 123.393 68.1016 121.984 68.0861C118.262 68.0861 115.242 66.8186 112.927 64.2834C110.694 61.819 109.578 58.7315 109.578 55.0208C109.578 51.3685 110.715 48.3032 112.988 45.8247C115.348 43.2576 118.346 41.9741 121.982 41.9741C123.385 41.9602 124.777 42.2384 126.065 42.7907C127.455 43.3926 128.498 44.2667 129.192 45.4131H129.279V42.8133H136.662V67.2443L129.282 67.2456ZM127.522 50.5728C126.349 49.399 124.865 48.8117 123.07 48.8108C121.289 48.8108 119.82 49.4269 118.661 50.6591C117.531 51.8479 116.967 53.3301 116.967 55.1058C116.967 56.8124 117.553 58.2593 118.727 59.4463C119.293 60.03 119.975 60.4917 120.73 60.8025C121.485 61.1132 122.297 61.2663 123.114 61.2521C124.894 61.2521 126.371 60.6572 127.544 59.4676C128.701 58.2788 129.28 56.7965 129.281 55.0208C129.282 53.2301 128.696 51.7474 127.522 50.5728V50.5728Z" fill="#F0E8E0"/>
<path d="M156.406 67.2447V53.902C156.406 52.3087 156.175 51.1269 155.711 50.3568C155.118 49.3548 154.061 48.8538 152.541 48.8538C150.93 48.8538 149.793 49.3407 149.13 50.3144C148.58 51.1163 148.304 52.3339 148.304 53.967V67.2447H140.922V42.8137H147.808V45.4135H147.916C149.336 43.1218 151.573 41.9755 154.628 41.9746C157.133 41.9746 159.24 42.6828 160.949 44.099C162.022 44.9842 162.79 46.1792 163.251 47.684C163.608 48.8587 163.787 50.2838 163.787 51.9595V67.2447H156.406Z" fill="#F0E8E0"/>
<path d="M168.234 67.245V34.6748H186.528V41.9776H176.297V47.0483H186.202V54.3511H176.297V59.937H186.528V67.2397L168.234 67.245Z" fill="#CC9900"/>
<path d="M208.96 67.2451V64.6028H208.874C208.149 65.8208 207.085 66.7162 205.681 67.2889C204.492 67.789 203.095 68.0396 201.489 68.0405C197.797 68.0405 194.792 66.7658 192.474 64.2165C190.244 61.7522 189.129 58.6721 189.129 54.9765C189.129 51.3384 190.237 48.2876 192.453 45.8242C194.77 43.2572 197.738 41.9736 201.359 41.9736C204.284 41.9736 206.702 42.9473 208.614 44.8947V34.6709H215.996V67.2451H208.96ZM207.245 50.551C206.056 49.3905 204.572 48.8103 202.792 48.8103C200.996 48.8103 199.505 49.3835 198.317 50.5298C197.116 51.6903 196.515 53.1583 196.515 54.934C196.515 56.7389 197.087 58.2287 198.231 59.4033C199.389 60.6063 200.88 61.2077 202.705 61.2077C204.544 61.2077 206.057 60.6133 207.245 59.4245C208.418 58.2366 209.004 56.7398 209.004 54.934C209.004 53.1725 208.418 51.7115 207.245 50.551V50.551Z" fill="#CC9900"/>
<path d="M236.085 67.2448V64.645H235.999C235.391 65.8914 234.507 66.7867 233.348 67.3311C232.349 67.8038 231.096 68.0401 229.589 68.0401C226.447 68.0401 224.028 67.016 222.334 64.9676C221.408 63.8222 220.793 62.6334 220.489 61.4013C220.242 60.4701 220.119 59.1449 220.12 57.4259V42.8204H227.502V56.3305C227.502 57.907 227.748 59.067 228.24 59.8106C228.848 60.7427 229.919 61.2083 231.455 61.2074C234.277 61.2074 235.689 59.553 235.69 56.2442V42.8164H243.072V67.2474L236.085 67.2448Z" fill="#CC9900"/>
<path d="M141.283 77.2007V76.6855H144.216V77.2007H141.283Z" fill="#F0E8E0"/>
</g>
<defs>
<clipPath id="clip0_11910_23240">
<rect width="245" height="85" fill="white"/>
</clipPath>
</defs>
</svg>
