<svg width="63" height="44" viewBox="0 0 63 44" fill="none" xmlns="http://www.w3.org/2000/svg">
<g clip-path="url(#clip0)">
<path d="M62.9999 16.2982C62.9999 10.2852 61.0741 6.15596 57.9126 3.55734C55.1004 1.2026 51.2146 0 45.5478 0C42.2755 0 39.1907 0.269113 36.7791 0.698012V13.4893C37.546 13.5734 41.5767 14.2041 43.1617 18.4343V4.93654C43.9372 4.76835 44.653 4.63379 46.1869 4.63379C53.0638 4.63379 56.7536 8.94801 56.7281 16.4243C56.7281 25.4564 52.3394 29.4763 45.5733 29.4511C45.1984 29.4511 44.8831 29.4511 44.5763 29.4343V34.1437C50.3284 34.0765 54.9471 32.672 57.9552 29.9304C60.9974 27.1636 62.9999 22.6812 62.9999 16.2982Z" fill="#873A1D"/>
<path d="M36.7791 20.3012V15.3647L35.5946 14.4228C35.339 14.3975 35.0919 14.3807 34.8362 14.3807C34.8277 14.3807 34.8192 14.3807 34.8106 14.3807C34.768 14.3807 34.7254 14.3723 34.6828 14.3723C34.5976 14.3723 34.5209 14.3891 34.4357 14.3891C34.0948 14.3975 33.771 14.4144 33.4727 14.448C33.4301 14.4564 33.3961 14.4564 33.362 14.4648C31.1549 14.7339 30.0726 15.5413 29.6892 15.9029L29.6806 14.4144H23.9712V16.8868C25.5562 18.4595 26.5106 20.6797 26.5106 23.4717C26.5106 26.4151 25.7181 28.7446 24.0053 30.4771V34.1942H30.4305V25.4144C30.4305 25.1621 30.4476 24.9182 30.4646 24.6743V23.7997C30.4646 22.0589 31.8963 20.646 33.6602 20.646C34.3846 20.646 35.0492 20.8983 35.5861 21.302V20.2928H36.7791V20.3012Z" fill="#E4AD24"/>
<path d="M39.5913 34.0176V34.1858H40.1367V34.0512C39.9492 34.0428 39.7703 34.026 39.5913 34.0176Z" fill="#E4AD24"/>
<path d="M41.4744 21.1001V19.5106H41.9943L36.7791 15.3562V20.2927H39.5827V34.0091C39.7616 34.0175 39.9406 34.0343 40.128 34.0427V21.0917H41.4744V21.1001Z" fill="#E4AD24"/>
<path d="M36.8643 33.7568V34.1857H39.5912V34.0175C38.5601 33.9503 37.6482 33.8578 36.8643 33.7568Z" fill="#E4AD24"/>
<path d="M36.7792 23.1522V20.3013H35.5862V21.3104C36.1827 21.7562 36.6173 22.3953 36.7792 23.1522Z" fill="#E4AD24"/>
<path d="M36.7791 20.3013V23.1522C36.8217 23.3624 36.8472 23.5811 36.8472 23.8082V25.4985C36.8472 25.5826 36.8557 25.6583 36.8557 25.7424V33.7653C37.6397 33.8663 38.5515 33.9588 39.5826 34.026V20.3013H36.7791Z" fill="#E4AD24"/>
<path d="M36.7792 14.6161C36.3872 14.5236 35.9952 14.4564 35.5947 14.4143L36.7792 15.3562V14.6161Z" fill="#E4AD24"/>
<path d="M42.3351 19.5107C41.2018 16.7187 39.1481 15.1628 36.7791 14.6162V15.3647L41.9943 19.5191H42.3351V19.5107Z" fill="#E4AD24"/>
<path d="M42.4802 19.8976L41.9944 19.5107H41.4746V21.1002H42.8466C42.7443 20.6797 42.6165 20.276 42.4802 19.8976Z" fill="#E4AD24"/>
<path d="M42.4801 19.8976C42.429 19.7714 42.3864 19.6369 42.3353 19.5107H42.0029L42.4801 19.8976Z" fill="#E4AD24"/>
<path d="M43.1619 22.9166V29.2997C43.2045 29.3081 43.2471 29.3081 43.2897 29.3165V25.0191C43.2897 24.279 43.2386 23.581 43.1619 22.9166Z" fill="#E4AD24"/>
<path d="M43.2897 34.1605C42.1478 34.1437 41.0911 34.11 40.1367 34.0596V34.1941H43.2897V34.1605Z" fill="#E4AD24"/>
<path d="M43.1619 22.9166C43.1193 22.5718 43.0767 22.2438 43.017 21.9243H41.4746V21.1001H40.1367V34.0512C41.0911 34.11 42.1478 34.1437 43.2897 34.1521V29.3165C43.2471 29.308 43.2045 29.308 43.1619 29.2996V22.9166Z" fill="#E4AD24"/>
<path d="M41.4746 21.1001V21.9243H43.017C42.9659 21.6467 42.9148 21.3692 42.8466 21.1001H41.4746Z" fill="#E4AD24"/>
<path d="M12.4585 17.2401H11.3848C15.5944 17.2485 19.1053 19.0903 19.1053 23.2952C19.1053 27.5673 15.7819 29.3166 11.8279 29.3838C12.0921 29.3923 12.3647 29.3923 12.6545 29.3923C16.7108 29.3923 20.179 27.6514 20.179 23.2952C20.179 19.0903 16.6681 17.2485 12.4585 17.2401Z" fill="#873A1D"/>
<path d="M18.9521 2.22856C16.8046 0.672748 14.0692 0.134521 10.1408 0.134521C7.08152 0.134521 4.02228 0.412044 2.1731 0.798894V1.1437V2.22856V18.5015V33.7568C3.80924 33.9839 6.34867 34.2026 9.7573 34.2026C9.91068 34.2026 10.0556 34.2026 10.2004 34.1941C7.10709 34.1689 4.7807 33.9671 3.24681 33.7484V14.4143H18.1596C20.6649 12.9847 21.9772 10.672 21.9772 8.14905C21.9772 5.55042 20.8268 3.49844 18.9521 2.22856ZM9.97886 13.2117H8.55575V4.54966C9.01592 4.50761 9.57834 4.48238 10.2942 4.48238C13.6772 4.48238 15.569 5.97932 15.569 8.72091C15.5775 11.3532 13.4557 13.2117 9.97886 13.2117Z" fill="#873A1D"/>
<path d="M24.0054 29.1316V22.5551C24.0054 21.5375 23.9883 20.5452 23.9713 19.578V18.1904C22.7697 16.3571 20.895 15.1124 18.6538 14.5322C18.6538 14.5322 18.4152 14.4649 18.1766 14.4144H18.1596H3.24683V33.7653C4.78071 33.9756 7.11562 34.1774 10.2004 34.2111C16.2252 34.1606 20.1707 33.0337 22.5823 30.8387C23.1447 30.3173 23.6134 29.7455 24.0054 29.1316ZM12.6546 29.3923C12.3649 29.3923 12.0922 29.3923 11.828 29.3838C11.7428 29.3838 11.6661 29.3923 11.5809 29.3923C10.2771 29.3923 9.31419 29.3586 8.55577 29.2157V18.5016H8.56429V17.2401H9.62948H11.3849H12.4586C16.6683 17.2485 20.1792 19.0903 20.1792 23.2952C20.1792 27.6598 16.7109 29.3923 12.6546 29.3923Z" fill="#873A1D"/>
<path d="M24.0053 22.5467V29.1231C24.9767 27.5841 25.4369 25.7003 25.4369 23.4549C25.4369 21.3693 24.9 19.5948 23.9712 18.1736V19.5612C23.9882 20.5367 24.0053 21.5375 24.0053 22.5467Z" fill="#873A1D"/>
<path d="M2.14746 42.4105V37.844H4.56759V38.5925H3.01666V39.6773H4.49089V40.409H3.01666V42.4189H2.14746V42.4105Z" fill="#883C1E"/>
<path d="M5.03638 40.6949C5.03638 40.1062 5.09603 39.6858 5.21533 39.4335C5.39428 39.0634 5.74367 38.8784 6.26348 38.8784C6.7833 38.8784 7.13268 39.0634 7.31164 39.4335C7.43094 39.6773 7.49059 40.0978 7.49059 40.6949C7.49059 41.292 7.43094 41.7125 7.31164 41.9564C7.13268 42.3264 6.7833 42.503 6.26348 42.503C5.74367 42.503 5.39428 42.318 5.21533 41.948C5.09603 41.7041 5.03638 41.292 5.03638 40.6949ZM5.85445 40.737C5.85445 41.1659 5.85445 41.3929 5.86297 41.435C5.90558 41.7377 6.0334 41.8975 6.24644 41.8975C6.45948 41.8975 6.59583 41.763 6.63843 41.5023C6.64695 41.4434 6.65548 41.2332 6.65548 40.8547V40.5183C6.65548 40.1735 6.64695 39.9633 6.62991 39.8876C6.57878 39.6269 6.45096 39.4923 6.24644 39.4923C6.04192 39.4923 5.92262 39.6101 5.87149 39.8371C5.85445 39.9128 5.84593 40.1062 5.84593 40.4174V40.737H5.85445Z" fill="#883C1E"/>
<path d="M8.30859 42.4105V38.9793H9.07554V39.5344C9.28005 39.1055 9.55274 38.8953 9.88509 38.8868V39.854C9.82544 39.8456 9.75726 39.8456 9.68057 39.8456C9.51014 39.8456 9.37379 39.896 9.27153 39.9969C9.16927 40.0979 9.11814 40.2324 9.11814 40.4006V42.4105H8.30859Z" fill="#883C1E"/>
<path d="M13.9924 42.4106C13.9583 42.3685 13.9327 42.2508 13.9071 42.0742C13.7367 42.3601 13.4725 42.4947 13.1146 42.4947C12.8334 42.4947 12.6204 42.3937 12.467 42.2003C12.3392 42.0237 12.271 41.7882 12.271 41.5023C12.271 41.1911 12.3562 40.9389 12.5352 40.7538C12.663 40.6109 12.8931 40.4763 13.2339 40.3249C13.268 40.3081 13.3192 40.2913 13.3958 40.2577C13.7111 40.1231 13.8645 39.9717 13.8645 39.7951C13.8645 39.5681 13.7452 39.4587 13.5066 39.4587C13.2254 39.4587 13.0805 39.6185 13.0805 39.9381V40.0054H12.2966C12.2966 39.6101 12.3988 39.3242 12.6033 39.1476C12.7993 38.9794 13.0976 38.9037 13.5066 38.9037C13.9242 38.9037 14.2139 38.9794 14.3929 39.1392C14.5718 39.3074 14.657 39.5933 14.657 39.997V41.9396C14.657 42.1246 14.6996 42.2928 14.7763 42.4358H13.9924V42.4106ZM13.8816 40.6109C13.6344 40.737 13.464 40.8379 13.3618 40.922C13.1913 41.0734 13.1061 41.2416 13.1061 41.435C13.1061 41.7294 13.2254 41.8807 13.464 41.8807C13.7452 41.8807 13.8816 41.6369 13.8816 41.1575V40.6109Z" fill="#883C1E"/>
<path d="M19.5996 42.1414C19.5996 42.6376 19.5315 42.974 19.4036 43.159C19.2162 43.4281 18.8668 43.5627 18.347 43.5627C17.6397 43.5627 17.2818 43.302 17.2733 42.7806H18.0743C18.0828 42.9235 18.1851 42.9908 18.3725 42.9908C18.5515 42.9908 18.6708 42.9235 18.7304 42.789C18.7645 42.7049 18.7901 42.5535 18.7901 42.3517V42.1162C18.6537 42.3685 18.4322 42.503 18.1339 42.503C17.7164 42.503 17.4352 42.2844 17.3073 41.8471C17.2392 41.6284 17.2051 41.2416 17.2051 40.6781C17.2051 40.1483 17.2392 39.7615 17.3073 39.5344C17.4437 39.1055 17.7079 38.8868 18.1169 38.8868C18.4577 38.8868 18.6964 39.0382 18.8242 39.341V38.9793H19.5996V42.1414ZM18.3981 39.5428C18.2021 39.5428 18.0828 39.711 18.0402 40.0474C18.0317 40.0978 18.0317 40.3333 18.0317 40.7538C18.0317 41.1154 18.0402 41.3257 18.0487 41.393C18.0913 41.6873 18.2106 41.8303 18.4066 41.8303C18.6282 41.8303 18.7645 41.6452 18.8157 41.2668C18.8242 41.2163 18.8242 40.9472 18.8242 40.4679C18.8242 40.1651 18.8157 39.9717 18.7901 39.8792C18.7219 39.6605 18.5941 39.5428 18.3981 39.5428Z" fill="#883C1E"/>
<path d="M20.4092 40.6949C20.4092 40.1062 20.4688 39.6858 20.5881 39.4335C20.7671 39.0634 21.1165 38.8784 21.6363 38.8784C22.1561 38.8784 22.5055 39.0634 22.6844 39.4335C22.8037 39.6773 22.8634 40.0978 22.8634 40.6949C22.8634 41.292 22.8037 41.7125 22.6844 41.9564C22.5055 42.3264 22.1561 42.503 21.6363 42.503C21.1165 42.503 20.7671 42.318 20.5881 41.948C20.4688 41.7041 20.4092 41.292 20.4092 40.6949ZM21.2358 40.737C21.2358 41.1659 21.2358 41.3929 21.2443 41.435C21.2869 41.7377 21.4147 41.8975 21.6278 41.8975C21.8408 41.8975 21.9771 41.763 22.0198 41.5023C22.0283 41.4434 22.0368 41.2332 22.0368 40.8547V40.5183C22.0368 40.1735 22.0283 39.9633 22.0112 39.8876C21.9601 39.6269 21.8323 39.4923 21.6278 39.4923C21.4232 39.4923 21.3039 39.6101 21.2528 39.8371C21.2358 39.9128 21.2272 40.1062 21.2272 40.4174V40.737H21.2358Z" fill="#883C1E"/>
<path d="M23.562 40.6949C23.562 40.1062 23.6217 39.6858 23.741 39.4335C23.9199 39.0634 24.2693 38.8784 24.7891 38.8784C25.3089 38.8784 25.6583 39.0634 25.8373 39.4335C25.9566 39.6773 26.0162 40.0978 26.0162 40.6949C26.0162 41.292 25.9566 41.7125 25.8373 41.9564C25.6583 42.3264 25.3089 42.503 24.7891 42.503C24.2693 42.503 23.9199 42.318 23.741 41.948C23.6217 41.7041 23.562 41.292 23.562 40.6949ZM24.3886 40.737C24.3886 41.1659 24.3886 41.3929 24.3971 41.435C24.4397 41.7377 24.5676 41.8975 24.7806 41.8975C24.9936 41.8975 25.13 41.763 25.1726 41.5023C25.1811 41.4434 25.1896 41.2332 25.1896 40.8547V40.5183C25.1896 40.1735 25.1811 39.9633 25.1641 39.8876C25.1129 39.6269 24.9851 39.4923 24.7806 39.4923C24.5761 39.4923 24.4568 39.6101 24.4056 39.8371C24.3886 39.9128 24.3801 40.1062 24.3801 40.4174V40.737H24.3886Z" fill="#883C1E"/>
<path d="M28.3769 42.0573C28.2406 42.36 28.002 42.5114 27.6696 42.5114C27.2606 42.5114 26.9879 42.2928 26.8601 41.8639C26.7919 41.6284 26.7578 41.25 26.7578 40.7201C26.7578 40.1735 26.7919 39.7867 26.8516 39.5596C26.9794 39.1139 27.2435 38.8952 27.6526 38.8952C27.9764 38.8952 28.2065 39.0214 28.3343 39.2821V37.844H29.1439V42.4189H28.3769V42.0573ZM27.5674 40.6445C27.5674 41.0565 27.5674 41.292 27.5759 41.3509C27.6185 41.6873 27.7378 41.8555 27.9338 41.8555C28.1383 41.8555 28.2661 41.7377 28.3173 41.5107C28.3428 41.4182 28.3513 41.2247 28.3513 40.922C28.3513 40.4426 28.3513 40.1819 28.3428 40.123C28.2917 39.7446 28.1553 39.5596 27.9338 39.5596C27.7463 39.5596 27.627 39.711 27.5759 40.0053C27.5674 40.0642 27.5674 40.2828 27.5674 40.6445Z" fill="#883C1E"/>
<path d="M34.001 41.065C34.001 41.1154 34.0096 41.1743 34.0096 41.2584C34.0096 42.091 33.6346 42.503 32.8847 42.503C32.3819 42.503 32.0411 42.318 31.8707 41.9396C31.7599 41.6957 31.7087 41.2836 31.7087 40.6949C31.7087 40.1063 31.7599 39.6942 31.8707 39.4503C32.0411 39.0719 32.3819 38.8868 32.8847 38.8868C33.6346 38.8868 34.0096 39.2737 34.0096 40.039V40.1567H33.2341V40.081C33.2341 39.6858 33.1233 39.4923 32.8847 39.4923C32.6461 39.4923 32.5353 39.6858 32.5353 40.0726V41.2584C32.5353 41.4518 32.5524 41.5864 32.5779 41.6705C32.6291 41.8134 32.7313 41.8891 32.8847 41.8891C33.0551 41.8891 33.1659 41.7966 33.2085 41.6116C33.2341 41.5191 33.2426 41.3677 33.2426 41.1323V41.0566H34.001V41.065Z" fill="#883C1E"/>
<path d="M36.4552 42.4104C36.4212 42.3684 36.3956 42.2507 36.37 42.0741C36.1996 42.36 35.9354 42.4945 35.5775 42.4945C35.2963 42.4945 35.0833 42.3936 34.9299 42.2002C34.8021 42.0236 34.7339 41.7881 34.7339 41.5022C34.7339 41.191 34.8191 40.9387 34.9981 40.7537C35.1259 40.6108 35.356 40.4762 35.6968 40.3248C35.7309 40.308 35.782 40.2912 35.8587 40.2575C36.174 40.123 36.3274 39.9716 36.3274 39.795C36.3274 39.5679 36.2081 39.4586 35.9695 39.4586C35.6883 39.4586 35.5434 39.6184 35.5434 39.938V40.0052H34.768C34.768 39.61 34.8702 39.3241 35.0748 39.1474C35.2707 38.9793 35.569 38.9036 35.978 38.9036C36.3956 38.9036 36.6853 38.9793 36.8643 39.139C37.0432 39.3072 37.1284 39.5932 37.1284 39.9968V41.9395C37.1284 42.1245 37.1711 42.2927 37.2477 42.4357H36.4552V42.4104ZM36.3445 40.6108C36.0973 40.7369 35.9269 40.8378 35.8246 40.9219C35.6542 41.0733 35.569 41.2415 35.569 41.4349C35.569 41.7293 35.6883 41.8806 35.9269 41.8806C36.2081 41.8806 36.3445 41.6367 36.3445 41.1574V40.6108Z" fill="#883C1E"/>
<path d="M38.0232 42.4105V38.9793H38.7901V39.5344C38.9947 39.1055 39.2673 38.8953 39.5997 38.8868V39.854C39.54 39.8456 39.4719 39.8456 39.3952 39.8456C39.2247 39.8456 39.0884 39.896 38.9861 39.9969C38.8839 40.0979 38.8327 40.2324 38.8327 40.4006V42.4105H38.0232Z" fill="#883C1E"/>
<path d="M41.7897 41.2332H42.5481C42.5481 41.25 42.5481 41.2668 42.5481 41.3004C42.5481 41.3257 42.5481 41.3509 42.5481 41.3677C42.5481 41.763 42.4544 42.0489 42.2584 42.2339C42.0624 42.4189 41.7641 42.503 41.3636 42.503C40.9461 42.503 40.6393 42.3937 40.4603 42.1751C40.3155 41.9985 40.2217 41.7462 40.1791 41.4098C40.1621 41.2668 40.1536 40.9893 40.1536 40.5772C40.1536 40.2492 40.1621 40.0137 40.1791 39.8792C40.2132 39.6017 40.2899 39.383 40.4177 39.24C40.6223 38.9962 40.9375 38.8784 41.3892 38.8784C41.8153 38.8784 42.1306 39.0046 42.3266 39.2653C42.4885 39.4755 42.5652 39.896 42.5652 40.5351V40.7958H40.9887C40.9802 40.8295 40.9802 40.9052 40.9802 41.0145C40.9802 41.2668 40.9972 41.4518 41.0228 41.5611C41.0824 41.7882 41.2017 41.8975 41.3807 41.8975C41.6534 41.9059 41.7897 41.6873 41.7897 41.2332ZM40.9802 40.2576H41.7641V40.1147C41.7641 39.9212 41.7471 39.7783 41.713 39.6942C41.6534 39.5596 41.5426 39.4923 41.3721 39.4923C41.2273 39.4923 41.125 39.5344 41.0654 39.6269C40.9972 39.7362 40.9631 39.9044 40.9716 40.1062V40.1567C40.9802 40.1988 40.9802 40.2324 40.9802 40.2576Z" fill="#883C1E"/>
<path d="M44.9342 41.2332H45.6927C45.6927 41.25 45.6927 41.2668 45.6927 41.3004C45.6927 41.3257 45.6927 41.3509 45.6927 41.3677C45.6927 41.763 45.5989 42.0489 45.4029 42.2339C45.2069 42.4189 44.9087 42.503 44.5082 42.503C44.0906 42.503 43.7838 42.3937 43.6049 42.1751C43.46 41.9985 43.3663 41.7462 43.3237 41.4098C43.3066 41.2668 43.2981 40.9893 43.2981 40.5772C43.2981 40.2492 43.3066 40.0137 43.3237 39.8792C43.3577 39.6017 43.4344 39.383 43.5623 39.24C43.7668 38.9962 44.0821 38.8784 44.5337 38.8784C44.9598 38.8784 45.2751 39.0046 45.4711 39.2653C45.633 39.4755 45.7097 39.896 45.7097 40.5351V40.7958H44.1247C44.1162 40.8295 44.1162 40.9052 44.1162 41.0145C44.1162 41.2668 44.1332 41.4518 44.1588 41.5611C44.2184 41.7882 44.3377 41.8975 44.5167 41.8975C44.7979 41.9059 44.9342 41.6873 44.9342 41.2332ZM44.1247 40.2576H44.9087V40.1147C44.9087 39.9212 44.8916 39.7783 44.8575 39.6942C44.7979 39.5596 44.6871 39.4923 44.5167 39.4923C44.3718 39.4923 44.2696 39.5344 44.2099 39.6269C44.1417 39.7362 44.1076 39.9044 44.1162 40.1062V40.1567C44.1247 40.1988 44.1247 40.2324 44.1247 40.2576Z" fill="#883C1E"/>
<path d="M46.5535 42.4105V38.9793H47.3204V39.5344C47.5249 39.1055 47.7976 38.8953 48.13 38.8868V39.854C48.0703 39.8456 48.0021 39.8456 47.9254 39.8456C47.755 39.8456 47.6187 39.896 47.5164 39.9969C47.4141 40.0979 47.363 40.2324 47.363 40.4006V42.4105H46.5535Z" fill="#883C1E"/>
<path d="M50.6011 43.5711V38.9793H51.368V39.341C51.4958 39.0382 51.7344 38.8868 52.0753 38.8868C52.4843 38.8868 52.757 39.1055 52.8849 39.5344C52.953 39.7615 52.9871 40.1483 52.9871 40.6781C52.9871 41.2332 52.953 41.62 52.8934 41.8387C52.7656 42.2844 52.5014 42.503 52.0923 42.503C51.7685 42.503 51.547 42.3769 51.4106 42.1162V43.5627H50.6011V43.5711ZM51.3765 40.552C51.3765 40.9893 51.3851 41.2416 51.3936 41.3089C51.4447 41.6621 51.5811 41.8303 51.7941 41.8303C51.9901 41.8303 52.1094 41.6705 52.152 41.3593C52.1605 41.3089 52.1605 41.0818 52.1605 40.6865C52.1605 40.2997 52.152 40.081 52.1435 40.0138C52.1009 39.7026 51.9816 39.5428 51.7856 39.5428C51.5725 39.5428 51.4447 39.6689 51.3936 39.9297C51.3936 40.0053 51.3765 40.2156 51.3765 40.552Z" fill="#883C1E"/>
<path d="M55.4584 42.4104C55.4243 42.3684 55.3988 42.2507 55.3732 42.0741C55.2028 42.36 54.9386 42.4945 54.5807 42.4945C54.2995 42.4945 54.0864 42.3936 53.9331 42.2002C53.8052 42.0236 53.7371 41.7881 53.7371 41.5022C53.7371 41.191 53.8223 40.9387 54.0012 40.7537C54.1291 40.6108 54.3591 40.4762 54.7 40.3248C54.7341 40.308 54.7852 40.2912 54.8619 40.2575C55.1772 40.123 55.3306 39.9716 55.3306 39.795C55.3306 39.5679 55.2113 39.4586 54.9727 39.4586C54.6915 39.4586 54.5466 39.6184 54.5466 39.938V40.0052H53.7626C53.7626 39.61 53.8649 39.3241 54.0694 39.1474C54.2654 38.9793 54.5637 38.9036 54.9727 38.9036C55.3903 38.9036 55.68 38.9793 55.8589 39.139C56.0379 39.3072 56.1231 39.5932 56.1231 39.9968V41.9395C56.1231 42.1245 56.1657 42.2927 56.2424 42.4357H55.4584V42.4104ZM55.3476 40.6108C55.1005 40.7369 54.9301 40.8378 54.8278 40.9219C54.6574 41.0733 54.5722 41.2415 54.5722 41.4349C54.5722 41.7293 54.6915 41.8806 54.9301 41.8806C55.2113 41.8806 55.3476 41.6367 55.3476 41.1574V40.6108Z" fill="#883C1E"/>
<path d="M57.836 41.3761C57.836 41.5274 57.8446 41.6199 57.8616 41.6704C57.8957 41.7629 57.9639 41.8049 58.0832 41.8049C58.0917 41.8049 58.1087 41.8049 58.1258 41.8049C58.1428 41.8049 58.1599 41.8049 58.1684 41.8049V42.4189C57.9724 42.4357 57.8275 42.4525 57.7423 42.4525C57.4526 42.4525 57.2566 42.3852 57.1543 42.2591C57.0691 42.1498 57.0265 41.9395 57.0265 41.6368V39.5764H56.7112V38.9877H57.0265V38.0458H57.836V38.9877H58.1684V39.5764H57.836V41.3761Z" fill="#883C1E"/>
<path d="M58.8669 42.4105V37.844H59.668V39.3073C59.8128 39.0298 60.0514 38.8868 60.3838 38.8868C60.9036 38.8868 61.1678 39.1643 61.1678 39.711V42.4105H60.3923V40.1062C60.3923 39.9296 60.3838 39.8119 60.3582 39.7446C60.3156 39.6269 60.2219 39.568 60.077 39.568C59.9066 39.568 59.7873 39.6437 59.7276 39.7867C59.6935 39.8792 59.668 40.0221 59.668 40.224V42.4105H58.8669Z" fill="#883C1E"/>
</g>
<defs>
<clipPath id="clip0">
<rect width="63" height="44" fill="white"/>
</clipPath>
</defs>
</svg>
