<svg width="24" height="21" viewBox="0 0 24 21" fill="none" xmlns="http://www.w3.org/2000/svg">
<path d="M22 15.2507C22 13.3135 21.339 11.9833 20.2538 11.1461C19.2886 10.3874 17.9548 10 16.0098 10C14.8866 10 13.8278 10.0867 13 10.2249L13.0095 12.9615C13.2727 12.9886 14.7717 12.9615 15.2123 13.8077L15.1908 11.5904C15.4569 11.5362 15.7026 11.4929 16.2291 11.4929C18.5895 11.4929 19.856 12.8828 19.8473 15.2914C19.6179 18.0385 18.4308 18.3906 17.1091 19.0195V19.0894V21C18.2962 20.753 19.2359 20.5259 20.2684 19.6426C21.3126 18.7512 22 17.3071 22 15.2507Z" fill="white"/>
<path d="M13.5871 16.0287V14.3396L13.1713 14.0173C13.0815 14.0086 12.9947 14.0029 12.905 14.0029C12.902 14.0029 12.899 14.0029 12.896 14.0029C12.8811 14.0029 12.8661 14 12.8511 14C12.8212 14 12.7943 14.0058 12.7644 14.0058C12.6447 14.0086 12.531 14.0144 12.4263 14.0259C12.4113 14.0288 12.3994 14.0288 12.3874 14.0317C11.6125 14.1237 11.2325 14.4 11.0979 14.5237L11.0949 14.0144H9.09033V14.3396C10.6001 14.8478 10.6814 19.1078 9.1023 19.5107V20.7826H11.3582V17.7783C11.3582 17.692 11.3642 17.6086 11.3702 17.5251V17.2258C11.3702 16.6302 11.8728 16.1467 12.4921 16.1467C12.7464 16.1467 12.9798 16.2331 13.1683 16.3712V16.0259H13.5871V16.0287Z" fill="white"/>
<path d="M14.5745 20.7222V20.7797H14.7659V20.7337C14.7001 20.7308 14.6373 20.7251 14.5745 20.7222Z" fill="white"/>
<path d="M15.2357 16.3021V15.7582H15.4182L13.5871 14.3367V16.0259H14.5715V20.7193C14.6343 20.7222 14.6971 20.7279 14.763 20.7308V16.2992H15.2357V16.3021Z" fill="white"/>
<path d="M13.6171 20.633V20.7797H14.5745V20.7222C14.2124 20.6992 13.8923 20.6675 13.6171 20.633Z" fill="white"/>
<path d="M13.5871 17.0043V16.0287H13.1683V16.3741C13.3777 16.5266 13.5303 16.7453 13.5871 17.0043Z" fill="white"/>
<path d="M13.5871 16.0287V17.0043C13.6021 17.0762 13.6111 17.151 13.6111 17.2287V17.8071C13.6111 17.8359 13.6141 17.8618 13.6141 17.8906V20.6358C13.8893 20.6704 14.2095 20.702 14.5715 20.7251V16.0287H13.5871Z" fill="white"/>
<path d="M13.5871 14.0835C13.4495 14.0518 13.3119 14.0288 13.1713 14.0144L13.5871 14.3367V14.0835Z" fill="white"/>
<path d="M15.5378 15.7582C15.1399 14.8029 14.4189 14.2705 13.5871 14.0835V14.3396L15.4182 15.7611H15.5378V15.7582Z" fill="white"/>
<path d="M15.5887 15.8906L15.4182 15.7582H15.2357V16.3021H15.7174C15.6815 16.1582 15.6366 16.0201 15.5887 15.8906Z" fill="white"/>
<path d="M15.5887 15.8906C15.5708 15.8474 15.5558 15.8014 15.5378 15.7582H15.4212L15.5887 15.8906Z" fill="white"/>
<path d="M15.8281 16.9237V19.1078C15.843 19.1107 15.858 19.1107 15.8729 19.1136V17.6431C15.8729 17.3899 15.855 17.151 15.8281 16.9237Z" fill="white"/>
<path d="M15.8729 20.7711C15.472 20.7653 15.101 20.7538 14.7659 20.7366V20.7826H15.8729V20.7711Z" fill="white"/>
<path d="M15.8281 16.9237C15.8131 16.8057 15.7981 16.6935 15.7772 16.5841H15.2357V16.3021H14.7659V20.7337C15.101 20.7538 15.472 20.7653 15.8729 20.7682V19.1136C15.858 19.1107 15.843 19.1107 15.8281 19.1078V16.9237Z" fill="white"/>
<path d="M15.2357 16.3021V16.5841H15.7772C15.7592 16.4892 15.7413 16.3942 15.7174 16.3021H15.2357Z" fill="white"/>
<path d="M4.74576 15.4165H4.41284C5.7181 15.4191 6.8067 15.9978 6.8067 17.3189C6.8067 18.6612 5.77623 19.2107 4.55024 19.2319C4.63215 19.2345 4.7167 19.2345 4.80653 19.2345C6.06423 19.2345 7.13962 18.6876 7.13962 17.3189C7.13962 15.9978 6.05102 15.4191 4.74576 15.4165Z" fill="white"/>
<path d="M6.75918 10.7002C6.09334 10.2113 5.24519 10.0422 4.02712 10.0422C3.07856 10.0422 2.13 10.1294 1.55664 10.251V20.6059C2.06395 20.6772 2.85133 20.7459 3.90822 20.7459C3.95578 20.7459 4.0007 20.7459 4.04562 20.7433C3.08649 20.7353 2.36516 20.6719 1.88956 20.6032V14.5287H6.51346C7.29027 14.0796 7.69718 13.3529 7.69718 12.5603C7.69718 11.7438 7.34047 11.0991 6.75918 10.7002ZM3.97692 14.1509H3.53567V11.4294C3.67835 11.4162 3.85274 11.4083 4.07468 11.4083C5.12365 11.4083 5.71022 11.8786 5.71022 12.7399C5.71286 13.567 5.05495 14.1509 3.97692 14.1509Z" fill="white"/>
<path d="M8.32611 19.1527V17.0865C8.32611 16.7668 8.32083 16.455 8.31554 16.1511V15.7152C7.94299 15.1392 7.3617 14.7481 6.66679 14.5658C6.66679 14.5658 6.59281 14.5447 6.51883 14.5288H6.51355H1.88965V20.6086C2.36525 20.6746 3.08922 20.738 4.04571 20.7486C5.91376 20.7328 7.13711 20.3787 7.88486 19.6891C8.05925 19.5253 8.20457 19.3456 8.32611 19.1527ZM4.80667 19.2346C4.71683 19.2346 4.63228 19.2346 4.55037 19.232C4.52395 19.232 4.50017 19.2346 4.47375 19.2346C4.06949 19.2346 3.77091 19.224 3.53576 19.1791V15.8129H3.5384V15.4166H3.86868H4.41297H4.7459C6.05116 15.4192 7.13975 15.9979 7.13975 17.319C7.13975 18.6903 6.06437 19.2346 4.80667 19.2346Z" fill="white"/>
<path d="M8.326 17.0837V19.1499C8.62721 18.6664 8.76989 18.0745 8.76989 17.369C8.76989 16.7138 8.60343 16.1563 8.31543 15.7097V16.1457C8.32071 16.4522 8.326 16.7666 8.326 17.0837Z" fill="white"/>
<path fill-rule="evenodd" clip-rule="evenodd" d="M11.6511 0.00477851C11.4211 -0.0160952 11.1827 0.0309847 10.9671 0.154533L0.686219 6.04746C0.127751 6.36757 -0.0654779 7.0798 0.254631 7.63826C0.574739 8.19673 1.28697 8.38996 1.84544 8.06985L11.6511 2.44934L21.4568 8.06985C22.0153 8.38996 22.7275 8.19673 23.0476 7.63826C23.3677 7.0798 23.1745 6.36757 22.616 6.04746L12.3351 0.154533C12.1195 0.0309847 11.8811 -0.0160952 11.6511 0.00477851Z" fill="white"/>
</svg>
