<svg width="21" height="25" viewBox="0 0 21 25" fill="none" xmlns="http://www.w3.org/2000/svg">
<path d="M10.5003 6.59525C12.2811 6.59525 13.7299 5.11595 13.7299 3.29763C13.7299 1.47931 12.2811 0 10.5003 0C8.71953 0 7.27075 1.47931 7.27075 3.29763C7.27075 5.11595 8.71953 6.59525 10.5003 6.59525Z" fill="#077607"/>
<path d="M20.8409 3.28058L20.4597 2.71759C20.2943 2.47352 20.0222 2.32775 19.7316 2.32775C19.5462 2.32775 19.3686 2.38618 19.2171 2.49665L12.5467 7.36884H8.45337L1.78261 2.49665C1.6315 2.38618 1.45357 2.32775 1.26819 2.32775C0.977597 2.32775 0.705485 2.47352 0.54037 2.71759L0.158877 3.28089C-0.119792 3.69294 -0.0223327 4.26476 0.376447 4.5563L7.09788 9.46561V23.4784C7.09788 24.3174 7.76639 25 8.58809 25H8.693C9.5147 25 10.1832 24.3174 10.1832 23.4784V15.5155H10.8171V23.4784C10.8171 24.3174 11.4857 25 12.3074 25H12.4123C13.234 25 13.9025 24.3174 13.9025 23.4784V9.46531L20.6239 4.55569C21.0224 4.26476 21.1198 3.69264 20.8409 3.28058Z" fill="#077607"/>
</svg>
