<svg width="192" height="156" viewBox="0 0 192 156" fill="none" xmlns="http://www.w3.org/2000/svg">
<path d="M45.0401 71.9336V85.0544H83.4512V155.658H0.716797V85.0544H0.718797V71.9336C0.718797 45.2901 9.70143 25.5061 27.4187 13.1277C39.6749 4.56509 55.1885 0.223633 73.5297 0.223633V38.0458C63.5732 38.0458 45.0401 38.0458 45.0401 71.9336ZM181.796 38.0458V0.223633C163.456 0.223633 147.942 4.56509 135.686 13.1277C117.969 25.5061 108.985 45.291 108.985 71.9336V155.658H191.717V85.0544H153.306V71.9336C153.307 38.0458 171.84 38.0458 181.796 38.0458Z" fill="url(#paint0_linear)"/>
<defs>
<linearGradient id="paint0_linear" x1="25.7168" y1="-13.7764" x2="70.7168" y2="181.224" gradientUnits="userSpaceOnUse">
<stop stop-color="#EFEFEF"/>
<stop offset="1" stop-color="#EFEFEF" stop-opacity="0"/>
</linearGradient>
</defs>
</svg>
