<svg width="22" height="20" viewBox="0 0 22 20" fill="none" xmlns="http://www.w3.org/2000/svg">
<path d="M17.0225 8.82884L16.9578 8.6665L16.8847 8.8253L14.6806 13.6182L11.6674 6.96862L11.6675 6.0837H17.9609H18.0359V6.0087V1.88069V1.80569H17.9609H11.668L11.6681 1.00012L11.6682 0.925112L11.5932 0.925106L10.4086 0.925L10.3336 0.924993L10.3336 0.999991L10.3331 5.41256C10.3331 5.41257 10.333 5.41258 10.333 5.41259V5.41271L10.333 5.41283V5.41386L10.333 5.4147L10.333 5.4265L10.333 5.45283L10.333 5.63125L10.3328 6.96823L7.31942 13.6182L5.11527 8.82526L5.04224 8.66646L4.97747 8.82881L0.93034 18.9722L0.889326 19.075H1H21H21.1107L21.0697 18.9722L17.0225 8.82884ZM11.6679 3.01244H16.7014V4.87692H11.6676L11.6679 3.01244ZM6.60201 15.2014L5.39354 17.8683H2.78965L5.13043 12.0015L6.60201 15.2014ZM6.83588 17.8683L11 8.67891L15.1641 17.8683H6.83588ZM16.6065 17.8683L15.398 15.2014L16.8695 12.0015L19.2103 17.8683H16.6065Z" fill="#B2BAC8" stroke="#B2BAC8" stroke-width="0.15"/>
</svg>
