<svg xmlns="http://www.w3.org/2000/svg" width="100%" height="auto" viewBox="0 0 30 30" fill="none">
    <g>
        <path d="M29.6272 8.9956C29.3302 8.78531 28.9336 8.78103 28.6332 8.98271L23.5882 12.3069C23.3942 12.4365 23.2586 12.6382 23.214 12.8674C23.1676 13.0956 23.2157 13.3334 23.3461 13.5274C23.6362 13.96 23.789 14.4647 23.789 14.9874C23.789 16.4413 22.6063 17.6241 21.1523 17.6241C19.6984 17.6241 18.5156 16.4413 18.5156 14.9874C18.5156 14.1325 18.9379 13.3266 19.6434 12.8304C20.04 12.5524 20.1361 12.0047 19.858 11.6074L15.7192 5.69455C15.3931 5.22421 14.6069 5.22421 14.2807 5.69455L10.142 11.6074C9.86389 12.0048 9.96004 12.5524 10.3565 12.8305C11.0621 13.3266 11.4844 14.1326 11.4844 14.9875C11.4844 16.4414 10.3016 17.6242 8.84764 17.6242C7.3937 17.6242 6.21092 16.4414 6.21092 14.9875C6.21092 14.4647 6.36368 13.9601 6.65383 13.5275C6.78432 13.3335 6.83237 13.0958 6.78602 12.8674C6.74137 12.6383 6.60579 12.4365 6.41178 12.307L1.36674 8.98277C1.06463 8.78109 0.669771 8.78537 0.372818 8.99566C0.0758645 9.20507 -0.0614792 9.57503 0.0260598 9.92695L3.59999 23.9894C3.70985 24.4324 4.13899 24.7284 4.59731 24.6435C11.5015 23.4933 18.4984 23.4933 25.4027 24.6435C25.4507 24.652 25.5005 24.6555 25.5469 24.6555C25.9434 24.6555 26.3004 24.386 26.4 23.9894L29.974 9.92695C30.0615 9.57498 29.9242 9.20501 29.6272 8.9956V8.9956Z" />
    </g>
    <defs>
        <linearGradient id="paint0_linear" x1="15" y1="24.6579" x2="15" y2="5.34181" gradientUnits="userSpaceOnUse">
            <stop stop-color="#FD5900"/>
            <stop offset="1" stop-color="#FFDE00"/>
        </linearGradient>
        <clipPath id="clip0">
            <rect width="30" height="30" fill="white"/>
        </clipPath>
    </defs>
</svg>