<svg width="22" height="18" viewBox="0 0 22 18" fill="none" xmlns="http://www.w3.org/2000/svg">
<path d="M16.3017 14.8987L16.3004 14.8983L7.09416 11.9982L7.92479 16.6092C7.95261 16.7632 7.91519 16.9215 7.82071 17.0455M16.3017 14.8987L7.82039 17.0459C7.8205 17.0457 7.8206 17.0456 7.82071 17.0455M16.3017 14.8987C16.3663 14.9183 16.4322 14.9261 16.4989 14.9216C16.6082 14.914 16.7126 14.8731 16.7998 14.803L16.7999 14.8029C16.9405 14.6897 17.0157 14.514 17.0033 14.3334L16.0644 0.699618C16.052 0.519087 15.9534 0.355297 15.7986 0.262427L15.7986 0.262426L15.7982 0.262207C15.6439 0.170348 15.4558 0.157862 15.2908 0.236443L16.3017 14.8987ZM7.82071 17.0455C7.72689 17.1696 7.58467 17.2477 7.42872 17.2584L4.92303 17.431C4.65094 17.4497 4.40958 17.2617 4.35344 16.994M7.82071 17.0455L3.33239 11.5474L3.20647 11.5561M4.35344 16.994L4.47577 16.9683L4.35346 16.9941L4.35344 16.994ZM4.35344 16.994L3.20647 11.5561M3.20647 11.5561L3.18042 11.4326L2.41563 11.4853C1.49437 11.5487 0.692539 10.8359 0.627818 9.89607L0.451786 7.33972C0.387065 6.39984 1.08363 5.58391 2.00489 5.52047L4.5837 5.34289C4.62491 5.30336 4.67275 5.26999 4.72626 5.24468C4.72629 5.24466 4.72632 5.24465 4.72636 5.24463L4.81733 5.2015M3.20647 11.5561L2.42422 11.61C1.43175 11.6783 0.572414 10.911 0.503113 9.90465L0.327081 7.34831C0.25778 6.34192 1.00383 5.46411 1.9963 5.39576L4.81733 5.2015M4.81733 5.2015L4.9196 5.19446C4.97889 5.19038 5.03647 5.19607 5.0909 5.21015L15.2906 0.236545L4.81733 5.2015ZM5.82587 10.4424L5.52589 6.08603L15.0351 1.57755L15.8633 13.6049L5.82587 10.4424ZM5.31812 16.297L4.30193 11.4807L5.24525 11.4157L5.92254 11.6291L6.74597 16.1987L5.31812 16.297ZM2.07215 6.49729L4.45313 6.33333L4.72935 10.3445L2.34837 10.5084C1.95853 10.5353 1.61556 10.2338 1.58775 9.82997L1.41172 7.27362C1.38391 6.86976 1.68232 6.52413 2.07215 6.49729ZM17.0551 5.21797L17.0552 5.21803L17.153 4.44567C16.9156 4.63191 16.8732 4.97796 17.0551 5.21797ZM19.5413 2.5689L17.1531 4.44559L20.2073 3.44256C20.4446 3.25635 20.487 2.91037 20.3052 2.67037C20.1211 2.42701 19.7782 2.38273 19.5413 2.5689ZM17.8192 5.31913L20.2072 3.44264L17.7417 5.22105L17.819 5.31934L17.8192 5.31916C17.8192 5.31915 17.8192 5.31914 17.8192 5.31913ZM17.6266 11.3256L17.6267 11.3257L20.2495 12.8572L20.3128 12.7494L20.2498 12.8573L20.2496 12.8573C20.3464 12.9141 20.4533 12.9369 20.5577 12.9297C20.7334 12.9176 20.8989 12.8188 20.9924 12.6523L20.9925 12.6522C21.14 12.3892 21.0492 12.0525 20.7898 11.9007L20.7897 11.9006L18.1669 10.3691C17.907 10.2166 17.5728 10.3092 17.424 10.5739L17.424 10.5741C17.2765 10.8371 17.3672 11.1738 17.6266 11.3256ZM17.7293 8.41567L20.2349 8.24312C20.5367 8.22234 20.7601 7.95671 20.7393 7.65502C20.7186 7.35333 20.4608 7.12082 20.1591 7.1416L17.6534 7.31414C17.3517 7.33492 17.1282 7.60056 17.149 7.90225C17.1698 8.20394 17.4275 8.43644 17.7293 8.41567Z" fill="#A9B3C2" stroke="#A9B3C2" stroke-width="0.25"/>
</svg>
