<svg width="46" height="48" viewBox="0 0 46 48" fill="none" xmlns="http://www.w3.org/2000/svg">
<path d="M28.3231 39.5043L27.0863 34.2238C26.8946 34.3213 26.6884 34.398 26.4697 34.4492L24.2917 34.9593C24.073 35.0106 23.8542 35.0334 23.6392 35.0312L24.876 40.3118L28.3231 39.5043Z" fill="#FFAF10"/>
<path d="M26.4026 39.9542L25.1837 34.7504L24.2917 34.9593C24.073 35.0106 23.8542 35.0334 23.6392 35.0312L24.876 40.3118L26.4026 39.9542Z" fill="#EF9614"/>
<path d="M24.8275 32.3451C23.5075 32.6543 22.1863 32.7073 20.9159 32.5381L21.0296 33.0236C21.374 34.4938 22.8449 35.4065 24.3152 35.0621L26.4932 34.5519C27.9634 34.2076 28.8761 32.7366 28.5317 31.2664L28.418 30.7809C27.3548 31.4967 26.1476 32.0359 24.8275 32.3451Z" fill="#FFD00D"/>
<path d="M24.122 32.4854C23.0382 32.6655 21.96 32.6772 20.9159 32.5381L21.0296 33.0236C21.374 34.4938 22.8449 35.4065 24.3152 35.0621L26.4932 34.5519C26.6408 34.5174 26.7826 34.471 26.9182 34.4148C25.6645 34.4998 24.4944 33.7089 24.122 32.4854Z" fill="#FFAF10"/>
<path d="M34.3224 41.5938L33.7005 38.9384C33.5999 38.5088 33.121 38.2503 32.6364 38.3638L20.653 41.1706C20.1684 41.2841 19.8542 41.7284 19.9548 42.158L20.5768 44.8134L34.3224 41.5938Z" fill="#EF8318"/>
<path d="M26.4678 43.4335L25.8458 40.7781C25.7452 40.3486 26.1047 39.8936 26.6447 39.7672L20.7537 41.147C20.2137 41.2735 19.8542 41.7284 19.9548 42.158L20.5768 44.8134L26.4678 43.4335Z" fill="#DB722C"/>
<path d="M35.4147 2.91496L31.5978 3.80899L31.7918 4.63718C31.8427 4.85445 31.7074 5.07253 31.4901 5.12341L29.8373 5.51053C29.7829 5.52329 29.7492 5.57772 29.7619 5.63209L30.0293 6.77368L35.1921 5.56442C35.9917 9.92793 34.9465 14.2493 32.5838 17.6796L32.952 19.2517C33.086 19.8237 33.1713 20.3959 33.212 20.9641C37.1379 16.5576 38.9357 10.3728 37.4906 4.20292C37.2733 3.27544 36.3421 2.69775 35.4147 2.91496Z" fill="#FFAF10"/>
<path d="M11.7339 24.2211L11.3657 22.649C7.72544 20.6247 4.86969 17.2171 3.64845 12.9523L8.81125 11.7431L8.54387 10.6015C8.53113 10.5471 8.47667 10.5133 8.42231 10.5261L6.76946 10.9132C6.55219 10.9641 6.33412 10.8288 6.28323 10.6115L6.08925 9.78332L2.27229 10.6773C1.34492 10.8946 0.767122 11.8258 0.984337 12.7532C2.4295 18.9231 6.78699 23.6663 12.2614 25.871C12.0455 25.3437 11.8679 24.7931 11.7339 24.2211Z" fill="#FFD00D"/>
<path d="M8.42163 10.5254L11.6348 24.2435C13.0199 30.1571 18.9367 33.8282 24.8503 32.443C30.7639 31.0579 34.4351 25.1411 33.05 19.2275L29.8368 5.5094L8.42163 10.5254Z" fill="#F5A70E"/>
<path d="M13.7738 23.743L10.5377 9.92673L8.39868 10.4277L11.6348 24.244C13.0199 30.1576 18.9367 33.8287 24.8503 32.4436C25.2089 32.3596 25.5584 32.2577 25.8997 32.1412C20.3653 32.8676 15.0737 29.293 13.7738 23.743Z" fill="#DB722C"/>
<path d="M23.5473 26.8791C27.5725 25.9363 30.0713 21.909 29.1285 17.8838C28.1857 13.8586 24.1583 11.3599 20.1332 12.3027C16.108 13.2455 13.6093 17.2728 14.5521 21.298C15.4948 25.3231 19.5222 27.8219 23.5473 26.8791Z" fill="#DB722C"/>
<path d="M16.4232 20.8597C15.5547 17.1517 17.6079 13.4441 21.0832 12.1454C20.7675 12.1779 20.4504 12.2284 20.1331 12.3027C16.1079 13.2455 13.6091 17.2728 14.5519 21.298C15.4947 25.3231 19.5221 27.8219 23.5472 26.8791C23.8646 26.8048 24.1711 26.7092 24.4684 26.5981C20.7778 26.9779 17.2917 24.5676 16.4232 20.8597Z" fill="#C95E23"/>
<path d="M25.4427 23.546C25.3223 23.5743 25.1914 23.5704 25.0539 23.5347L22.8253 22.9564C22.7917 22.9476 22.7206 22.9448 22.6311 22.9658C22.5414 22.9868 22.479 23.0209 22.4525 23.0437L20.7128 24.5515C20.6053 24.6446 20.4898 24.7061 20.3694 24.7342C20.1866 24.7771 20.0056 24.7408 19.8598 24.6322C19.6981 24.5119 19.6013 24.3149 19.587 24.0777L19.4485 21.7797C19.4424 21.6788 19.3368 21.5043 19.2503 21.4521L17.2786 20.2633C17.0219 20.1085 16.887 19.8737 16.9085 19.6192C16.9301 19.3646 17.1023 19.1558 17.3813 19.0462L19.524 18.2044C19.618 18.1674 19.7514 18.0131 19.7742 17.9146L20.2954 15.6721C20.3633 15.3802 20.5448 15.1794 20.7936 15.1211C21.0424 15.0629 21.2943 15.1621 21.4846 15.3936L22.9475 17.1713C23.0118 17.2494 23.1997 17.3286 23.3004 17.3199L25.5941 17.1226C25.8926 17.0969 26.1398 17.2074 26.272 17.426C26.4043 17.6445 26.3879 17.9148 26.2267 18.1674L24.9879 20.1082C24.9335 20.1933 24.9164 20.3966 24.9557 20.4897L25.8521 22.6103C25.9446 22.8291 25.9453 23.0486 25.854 23.2282C25.7715 23.3903 25.6254 23.5032 25.4427 23.546Z" fill="#FFD00D"/>
<path d="M21.1634 23.4866L21.0133 20.9965C21.0067 20.8872 20.8922 20.698 20.7985 20.6415L18.662 19.3534C18.3995 19.1952 18.2566 18.9596 18.2605 18.7018L17.3813 19.0473C17.1024 19.1569 16.9301 19.3656 16.9086 19.6202C16.8871 19.8748 17.022 20.1096 17.2787 20.2644L19.2504 21.4531C19.3369 21.5053 19.4425 21.6798 19.4486 21.7807L19.587 24.0788C19.6014 24.3159 19.6983 24.5129 19.8599 24.6333C20.0057 24.7419 20.1867 24.7781 20.3695 24.7353C20.4899 24.7071 20.6054 24.6457 20.7128 24.5525L21.358 23.9933C21.2442 23.8639 21.1756 23.6893 21.1634 23.4866Z" fill="#FFAF10"/>
<path d="M31.8907 4.61384C31.9542 4.88469 31.7845 5.15819 31.5136 5.22163L6.79282 11.0119C6.52198 11.0753 6.24847 10.9056 6.18503 10.6348L5.51604 7.77858C5.4526 7.50773 5.6223 7.23423 5.89314 7.17079L30.6139 1.38055C30.8848 1.31711 31.1583 1.48681 31.2217 1.75765L31.8907 4.61384Z" fill="#FFD00D"/>
<path d="M9.18895 9.93117L8.51996 7.07498C8.45652 6.80414 8.62622 6.53063 8.89706 6.46719L5.89314 7.17079C5.6223 7.23423 5.4526 7.50773 5.51604 7.77858L6.18503 10.6348C6.24847 10.9056 6.52198 11.0753 6.79282 11.0119L9.79674 10.3083C9.5259 10.3717 9.25239 10.202 9.18895 9.93117Z" fill="#FFAF10"/>
<path d="M13.1835 39.8511C13.0568 39.8808 12.9251 39.8264 12.8565 39.7158C11.8962 38.1689 11.3726 37.844 9.56026 37.6706C9.43059 37.6582 9.32334 37.5644 9.29366 37.4377C9.26397 37.3109 9.31844 37.1793 9.42901 37.1107C10.9758 36.1505 11.3007 35.6268 11.4742 33.8144C11.4866 33.6849 11.5803 33.5776 11.707 33.548C11.8338 33.5183 11.9654 33.5727 12.034 33.6833C12.9943 35.2301 13.518 35.5551 15.3303 35.7285C15.4599 35.7409 15.5672 35.8346 15.5969 35.9613C15.6266 36.0881 15.5721 36.2197 15.4614 36.2884C13.9147 37.2486 13.5897 37.7723 13.4163 39.5847C13.404 39.7142 13.3103 39.8215 13.1835 39.8511Z" fill="#FFD00D"/>
<path d="M36.8971 30.8683C36.7962 30.8919 36.6912 30.8486 36.6365 30.7605C35.8713 29.5278 35.4539 29.269 34.0097 29.1308C33.9066 29.1207 33.8211 29.0461 33.7974 28.9451C33.7738 28.8441 33.8172 28.7392 33.9052 28.6845C35.1379 27.9193 35.3968 27.5019 35.535 26.0578C35.5449 25.9545 35.6196 25.869 35.7206 25.8453C35.8217 25.8217 35.9264 25.8651 35.9813 25.9532C36.7465 27.1858 37.1639 27.4447 38.6081 27.583C38.7112 27.5929 38.7967 27.6676 38.8204 27.7686C38.844 27.8696 38.8005 27.9744 38.7126 28.0292C37.4799 28.7945 37.221 29.2117 37.0828 30.656C37.0727 30.7592 36.9981 30.8446 36.8971 30.8683Z" fill="white"/>
<path d="M14.0912 13.5615C13.9961 13.5838 13.8974 13.5429 13.8459 13.46C13.1257 12.2999 12.7329 12.0563 11.3736 11.9261C11.2765 11.9168 11.196 11.8465 11.1738 11.7514C11.1515 11.6564 11.1924 11.5577 11.2753 11.5062C12.4354 10.786 12.679 10.3932 12.8092 9.03392C12.8185 8.93677 12.8888 8.85631 12.9839 8.83405C13.0789 8.81179 13.1776 8.85266 13.2291 8.93555C13.9494 10.0956 14.3421 10.3393 15.7014 10.4695C15.7985 10.4788 15.879 10.5491 15.9013 10.6441C15.9235 10.7392 15.8826 10.8379 15.7997 10.8894C14.6397 11.6096 14.396 12.0024 14.2658 13.3617C14.2565 13.4588 14.1862 13.5393 14.0912 13.5615Z" fill="white"/>
</svg>
