<svg id="Layer_1" data-name="Layer 1" xmlns="http://www.w3.org/2000/svg" viewBox="0 0 200 200"><defs><style>.cls-1{fill:#414b5b;}</style></defs><path class="cls-1" d="M182.28,159.58Q113.57,91,44.89,22.36C41,18.47,37.16,14.52,33.18,10.72,29.92,7.61,26,6.69,21.8,8.47s-6.26,4.93-6.31,10.19c-.17,2.71,1.49,5.26,3.82,7.58q74.3,74.07,148.55,148.16a21.2,21.2,0,0,0,1.76,1.66,9.73,9.73,0,0,0,10.91,1.33,9.92,9.92,0,0,0,6-8.56C186.83,164.92,184.87,162.16,182.28,159.58Z"/><path class="cls-1" d="M137.61,164.86q-21.77-17.31-43.48-34.68a13.16,13.16,0,0,0-8.67-3.11c-11.95.11-23.92,0-35.87.09-2.07,0-2.73-.44-2.72-2.63.1-16.29.05-32.57.06-48.86a3.69,3.69,0,0,0-.89-3q-8.07-8-16-16c-1.05-1.07-1.56-.59-2.15.32a11,11,0,0,0-1.72,6.26c0,12.25,0,24.51,0,36.76s0,24.36,0,36.54a10.76,10.76,0,0,0,.39,3.69c1.86,5.27,5.06,7.62,10.75,7.63q21.57,0,43.14,0A5.91,5.91,0,0,1,85,149.4c1.56,1.53,3.42,2.76,5.13,4.13q16.83,13.44,33.65,26.89c6.18,4.94,12.33,9.91,18.54,14.81,7.26,4.81,11.88,2.31,14.08.33C167,185.72,149.56,175.59,137.61,164.86Z"/><path class="cls-1" d="M103,60.7a1.48,1.48,0,0,0,2.4.11q11.18-9.06,22.44-18c3.52-2.82,7.08-5.61,11-8.75v3q0,28.61,0,57.21a4.92,4.92,0,0,0,1.6,3.85c5.81,5.7,11.54,11.49,17.31,17.22.49.49.85,1.21,1.9,1.32v-2.18q0-50.17,0-100.34c0-.81,0-1.61-.07-2.42a9.82,9.82,0,0,0-6.3-8.8A9.57,9.57,0,0,0,143.12,4.2c-9.38,7.37-18.69,14.84-28,22.28C107,33,98.87,39.48,90.72,45.93c-1.09.86-1.2,1.34-.17,2.34C94.75,52.36,98.89,56.52,103,60.7Z"/></svg>