<svg width="250" height="156" viewBox="0 0 250 156" fill="none" xmlns="http://www.w3.org/2000/svg">
<path d="M203.816 131.269C206.296 132.264 208.775 133.26 211.233 134.13C213.692 135.001 216.275 135.851 218.734 136.721C219.963 137.157 225.087 138.606 226.421 138.896C228.983 139.62 231.524 140.22 234.087 140.945C234.357 141.028 234.524 141.257 234.441 141.527C234.358 141.798 234.109 141.84 233.984 141.861C231.338 141.407 228.797 140.807 226.235 140.082C224.902 139.793 223.672 139.358 222.443 138.922C221.214 138.487 219.86 138.073 218.631 137.637C216.172 136.767 213.693 135.771 211.213 134.776C208.588 133.676 206.088 132.556 203.816 131.269C203.712 131.415 203.691 131.29 203.816 131.269Z" fill="url(#paint0_linear)"/>
<path d="M204.911 140.842C206.349 141.756 207.788 142.669 209.247 143.708C210.706 144.747 212.04 145.806 213.395 146.991C214.75 148.175 216.084 149.235 217.21 150.586C218.441 151.792 219.567 153.143 220.589 154.64C220.756 154.869 220.673 155.139 220.444 155.306C220.215 155.473 220.069 155.369 219.924 155.265C218.693 154.06 217.567 152.709 216.337 151.503C215.107 150.298 214.001 149.071 212.771 147.866C211.541 146.66 210.186 145.476 208.977 144.395C207.476 143.107 206.142 142.047 204.911 140.842C204.807 140.988 204.786 140.863 204.911 140.842C204.786 140.863 204.786 140.863 204.911 140.842Z" fill="url(#paint1_linear)"/>
<path d="M213.283 124.927C216.178 125.339 219.156 125.481 222.113 125.497C223.529 125.516 225.049 125.389 226.59 125.387C228.131 125.384 229.526 125.278 231.046 125.151C231.296 125.109 231.463 125.338 231.505 125.588C231.547 125.837 231.318 126.004 231.193 126.025C229.694 126.277 228.174 126.404 226.779 126.51C225.259 126.638 223.822 126.494 222.26 126.371C219.032 126.272 216.116 125.735 213.283 124.927C213.179 125.073 213.179 125.073 213.283 124.927C213.158 124.948 213.158 124.948 213.283 124.927Z" fill="url(#paint2_linear)"/>
<path d="M205.424 118.674C207.694 118.42 209.817 118.064 212.045 117.561C214.272 117.058 216.354 116.451 218.394 115.595C220.454 114.863 222.473 113.882 224.492 112.901C226.51 111.92 228.362 110.71 230.235 109.625C230.464 109.458 230.735 109.541 230.901 109.769C231.068 109.998 230.985 110.269 230.736 110.311C228.926 111.771 227.053 112.856 224.93 113.983C222.933 115.089 220.747 115.841 218.686 116.573C216.501 117.325 214.273 117.828 212.025 118.206C209.901 118.563 207.632 118.816 205.424 118.674C205.32 118.819 205.32 118.819 205.424 118.674C205.299 118.695 205.299 118.695 205.424 118.674Z" fill="url(#paint3_linear)"/>
<path d="M234.53 145.878L238.169 142.313L237.33 137.319L241.831 139.643L246.305 137.222L245.479 142.24L249.169 145.856L244.152 146.571L241.846 151.196L239.529 146.578L234.53 145.878Z" fill="url(#paint4_linear)"/>
<path d="M242.369 104.632L239.645 107.53L240.42 111.379L236.919 109.657L233.507 111.514L234.022 107.704L231.145 105.107L234.997 104.331L236.596 100.852L238.453 104.263L242.369 104.632Z" fill="url(#paint5_linear)"/>
<path d="M112.158 123.18C111.906 121.682 112.946 120.223 114.445 119.971C115.944 119.719 117.403 120.758 117.655 122.256C117.906 123.755 116.867 125.213 115.368 125.465C113.869 125.717 112.41 124.678 112.158 123.18Z" fill="url(#paint6_linear)"/>
<path d="M32.6194 130.643C34.1372 130.388 35.1609 128.952 34.9059 127.435C34.6509 125.918 33.2138 124.895 31.696 125.15C30.1782 125.405 29.1545 126.841 29.4095 128.358C29.6645 129.875 31.1016 130.898 32.6194 130.643Z" fill="url(#paint7_linear)"/>
<path d="M80.6539 125.266C80.2971 123.143 81.7522 121.101 83.8758 120.744C85.9994 120.387 88.042 121.841 88.3988 123.964C88.7556 126.087 87.3005 128.129 85.1769 128.486C83.0533 128.842 81.0107 127.388 80.6539 125.266Z" fill="url(#paint8_linear)"/>
<path d="M93.8654 19.6953L86.3034 17.4999L80.2084 22.5043L79.9066 14.5952L73.154 10.338L80.6681 7.66279L82.7198 0L87.4966 6.25828L95.4924 5.68466L90.9613 12.3519L93.8654 19.6953Z" fill="url(#paint9_linear)"/>
<path d="M24.4837 103.638L21.2508 99.6877L16.0662 100.174L18.7884 95.7364L16.7208 91.077L21.8034 92.2768L25.61 88.9409L25.9497 94.0192L30.3678 96.6146L25.6849 98.5572L24.4837 103.638Z" fill="url(#paint10_linear)"/>
<path d="M46.4525 38.7056L51.846 38.6978L54.839 34.3432L56.4489 39.3363L61.5946 40.9108L57.2464 44.0809L57.3573 49.3261L53.1051 46.1892L48.1514 48.0489L49.7273 42.9054L46.4525 38.7056Z" fill="url(#paint11_linear)"/>
<path d="M45.782 3.38404L48.9899 4.12871L51.4233 1.79393L51.844 5.06122L54.6782 6.63902L51.7021 8.03793L51.0815 11.2235L48.871 8.77056L45.6021 9.1916L47.1811 6.35851L45.782 3.38404Z" fill="url(#paint12_linear)"/>
<path d="M25.0303 139.75C23.0526 140.211 21.0749 140.672 19.1182 141.258C17.1615 141.843 15.3506 142.533 13.4149 143.243C11.6041 143.933 9.83525 144.872 7.9205 145.707C6.13067 146.522 4.34085 147.336 2.40511 148.047C1.80151 148.277 1.11396 148.007 0.88411 147.404C0.675247 146.925 0.841139 146.384 1.29884 146.05C3.00472 144.736 4.75258 143.672 6.66733 142.837C8.58208 142.001 10.6637 141.395 12.6414 140.934C14.6191 140.473 16.7217 139.991 18.7414 139.78C20.7611 139.569 22.9267 139.462 24.8634 139.522C24.9883 139.501 25.0093 139.626 25.0093 139.626C25.1552 139.729 25.1552 139.729 25.0303 139.75Z" fill="url(#paint13_linear)"/>
<path d="M30.2329 56.838C28.8368 56.1739 27.4408 55.5099 26.0657 54.9707C24.6906 54.4315 23.3155 53.8923 21.8364 53.499C20.4823 53.0847 19.0243 52.8162 17.6702 52.4019C16.316 51.9876 14.837 51.5942 13.4619 51.0551C12.7744 50.7855 12.5235 50.0573 12.6894 49.5159C12.8763 49.0993 13.334 48.7656 13.8337 48.6816C15.3747 48.6794 16.9576 48.9269 18.5616 49.2992C20.0406 49.6925 21.5826 50.4604 22.8538 51.1455C24.2499 51.8095 25.563 52.7443 26.8552 53.5542C28.1683 54.4889 29.3565 55.4447 30.4408 56.5463C30.4618 56.6711 30.4618 56.6711 30.4828 56.796C30.3578 56.817 30.2329 56.838 30.2329 56.838Z" fill="url(#paint14_linear)"/>
<path d="M151.418 31.2055C153.942 34.7611 156.591 38.2958 159.094 41.7265C157.528 37.7532 155.836 33.8009 154.269 29.8276C156.643 30.1988 158.893 30.591 161.267 30.9622C159.059 30.0495 156.975 29.1159 154.766 28.2033C158.324 25.6795 161.861 23.0309 165.418 20.5072C161.339 22.2199 157.239 23.8078 153.034 25.5415C153.385 23.0432 153.861 20.524 154.212 18.0257C153.298 20.2334 152.26 22.4621 151.368 24.7946C148.864 21.3638 146.507 18.0369 144.003 14.6061C145.57 18.5795 147.262 22.5318 148.808 26.3803C146.309 26.03 143.934 25.6588 141.414 25.1837C143.769 26.2002 145.977 27.1129 148.332 28.1294C145.024 30.6111 141.57 32.989 138.262 35.4708C142.113 33.9249 145.838 32.4 149.689 30.8541C149.296 33.1027 148.924 35.4761 148.656 37.7037C149.591 35.6208 150.504 33.4132 151.418 31.2055Z" fill="url(#paint15_linear)"/>
<path d="M201.645 14.4182C196.322 20.9618 191.639 22.1342 183.805 19.0858C183.263 18.9201 182.868 19.6284 183.306 19.9399C189.852 25.259 191.024 29.9406 187.973 37.7714C187.807 38.3128 188.516 38.7072 188.827 38.2697C194.15 31.7261 198.834 30.5537 206.668 33.6021C207.209 33.7678 207.604 33.0595 207.166 32.7479C200.621 27.4289 199.448 22.7473 202.499 14.9165C202.686 14.5 201.957 13.9807 201.645 14.4182Z" fill="url(#paint16_linear)"/>
<path d="M204.787 44.5741C201.627 48.7 198.796 49.4326 193.879 47.6913C193.608 47.6085 193.296 48.046 193.588 48.2538C197.716 51.4116 198.448 54.2413 196.705 59.1561C196.622 59.4268 197.06 59.7384 197.268 59.4467C200.428 55.3208 203.259 54.5882 208.176 56.3295C208.446 56.4123 208.758 55.9748 208.466 55.7671C204.339 52.6092 203.607 49.7795 205.35 44.8647C205.432 44.594 204.995 44.2824 204.787 44.5741Z" fill="url(#paint17_linear)"/>
<defs>
<linearGradient id="paint0_linear" x1="41.5245" y1="47.9283" x2="217.892" y2="205.665" gradientUnits="userSpaceOnUse">
<stop stop-color="#5EC42E"/>
<stop offset="1" stop-color="#158A19"/>
</linearGradient>
<linearGradient id="paint1_linear" x1="41.5245" y1="47.9283" x2="217.892" y2="205.665" gradientUnits="userSpaceOnUse">
<stop stop-color="#5EC42E"/>
<stop offset="1" stop-color="#158A19"/>
</linearGradient>
<linearGradient id="paint2_linear" x1="41.5245" y1="47.9283" x2="217.892" y2="205.665" gradientUnits="userSpaceOnUse">
<stop stop-color="#5EC42E"/>
<stop offset="1" stop-color="#158A19"/>
</linearGradient>
<linearGradient id="paint3_linear" x1="41.5245" y1="47.9283" x2="217.892" y2="205.665" gradientUnits="userSpaceOnUse">
<stop stop-color="#5EC42E"/>
<stop offset="1" stop-color="#158A19"/>
</linearGradient>
<linearGradient id="paint4_linear" x1="41.5245" y1="47.9283" x2="217.892" y2="205.665" gradientUnits="userSpaceOnUse">
<stop stop-color="#5EC42E"/>
<stop offset="1" stop-color="#158A19"/>
</linearGradient>
<linearGradient id="paint5_linear" x1="41.5245" y1="47.9283" x2="217.892" y2="205.665" gradientUnits="userSpaceOnUse">
<stop stop-color="#5EC42E"/>
<stop offset="1" stop-color="#158A19"/>
</linearGradient>
<linearGradient id="paint6_linear" x1="41.5245" y1="47.9283" x2="217.892" y2="205.665" gradientUnits="userSpaceOnUse">
<stop stop-color="#5EC42E"/>
<stop offset="1" stop-color="#158A19"/>
</linearGradient>
<linearGradient id="paint7_linear" x1="41.5245" y1="47.9283" x2="217.892" y2="205.665" gradientUnits="userSpaceOnUse">
<stop stop-color="#5EC42E"/>
<stop offset="1" stop-color="#158A19"/>
</linearGradient>
<linearGradient id="paint8_linear" x1="41.5245" y1="47.9283" x2="217.892" y2="205.665" gradientUnits="userSpaceOnUse">
<stop stop-color="#5EC42E"/>
<stop offset="1" stop-color="#158A19"/>
</linearGradient>
<linearGradient id="paint9_linear" x1="41.5245" y1="47.9283" x2="217.892" y2="205.665" gradientUnits="userSpaceOnUse">
<stop stop-color="#5EC42E"/>
<stop offset="1" stop-color="#158A19"/>
</linearGradient>
<linearGradient id="paint10_linear" x1="41.5245" y1="47.9283" x2="217.892" y2="205.665" gradientUnits="userSpaceOnUse">
<stop stop-color="#5EC42E"/>
<stop offset="1" stop-color="#158A19"/>
</linearGradient>
<linearGradient id="paint11_linear" x1="41.5245" y1="47.9283" x2="217.892" y2="205.665" gradientUnits="userSpaceOnUse">
<stop stop-color="#5EC42E"/>
<stop offset="1" stop-color="#158A19"/>
</linearGradient>
<linearGradient id="paint12_linear" x1="41.5245" y1="47.9283" x2="217.892" y2="205.665" gradientUnits="userSpaceOnUse">
<stop stop-color="#5EC42E"/>
<stop offset="1" stop-color="#158A19"/>
</linearGradient>
<linearGradient id="paint13_linear" x1="41.5245" y1="47.9283" x2="217.892" y2="205.665" gradientUnits="userSpaceOnUse">
<stop stop-color="#5EC42E"/>
<stop offset="1" stop-color="#158A19"/>
</linearGradient>
<linearGradient id="paint14_linear" x1="41.5245" y1="47.9283" x2="217.892" y2="205.665" gradientUnits="userSpaceOnUse">
<stop stop-color="#5EC42E"/>
<stop offset="1" stop-color="#158A19"/>
</linearGradient>
<linearGradient id="paint15_linear" x1="41.5245" y1="47.9283" x2="217.892" y2="205.665" gradientUnits="userSpaceOnUse">
<stop stop-color="#5EC42E"/>
<stop offset="1" stop-color="#158A19"/>
</linearGradient>
<linearGradient id="paint16_linear" x1="41.5245" y1="47.9283" x2="217.892" y2="205.665" gradientUnits="userSpaceOnUse">
<stop stop-color="#5EC42E"/>
<stop offset="1" stop-color="#158A19"/>
</linearGradient>
<linearGradient id="paint17_linear" x1="41.5245" y1="47.9283" x2="217.892" y2="205.665" gradientUnits="userSpaceOnUse">
<stop stop-color="#5EC42E"/>
<stop offset="1" stop-color="#158A19"/>
</linearGradient>
</defs>
</svg>
