<svg width="19" height="19" viewBox="0 0 19 19" fill="none" xmlns="http://www.w3.org/2000/svg">
<path d="M18.8943 7.10075C18.6141 6.20511 17.8508 5.62633 16.9497 5.62633H13.1533C12.9016 5.62633 12.6919 5.47582 12.6194 5.24425L11.4458 1.46837C11.1668 0.576347 10.403 0 9.50005 0C8.59707 0 7.83329 0.576347 7.55382 1.46976L6.38109 5.24286C6.30821 5.47582 6.0985 5.62633 5.84675 5.62633H2.05028C1.14919 5.62633 0.385855 6.20507 0.10568 7.10075C-0.175609 7.9999 0.115699 8.93787 0.847718 9.49028L3.91914 11.8081C4.11664 11.9571 4.19869 12.2193 4.12321 12.4605L2.95004 16.2107C2.67097 17.1027 2.96273 18.0353 3.69326 18.5865C4.05853 18.8622 4.47716 19 4.89579 19C5.31446 19 5.73312 18.8622 6.09835 18.5865L9.16978 16.2687C9.36724 16.1197 9.63268 16.1196 9.83021 16.2688L12.9016 18.5865C13.6321 19.1378 14.5762 19.1379 15.3067 18.5865C16.0372 18.0353 16.329 17.1027 16.0499 16.2107L15.2468 13.6433C15.1202 13.2385 14.7015 13.017 14.3118 13.1485C13.922 13.28 13.7087 13.7148 13.8353 14.1197L14.6384 16.687C14.7555 17.0612 14.5118 17.281 14.4343 17.3395C14.3568 17.3979 14.0803 17.5707 13.7739 17.3394L10.7025 15.0217C9.98325 14.4789 9.0167 14.4789 8.29741 15.0217L5.22602 17.3394C4.91957 17.5707 4.643 17.3979 4.56555 17.3395C4.48807 17.281 4.24445 17.0612 4.36145 16.687L5.53463 12.9368C5.80942 12.0585 5.51073 11.1038 4.79144 10.561L1.72001 8.24319C1.41126 8.01023 1.48663 7.67448 1.5171 7.57712C1.54715 7.48106 1.67437 7.16782 2.05025 7.16782H5.84668C6.73945 7.16782 7.52138 6.58569 7.79291 5.71784L8.96564 1.94477C9.08268 1.57059 9.40424 1.54153 9.49998 1.54153C9.59572 1.54153 9.91727 1.57059 10.0339 1.94338L11.2075 5.71922C11.4786 6.58569 12.2605 7.16782 13.1533 7.16782H16.9497C17.3256 7.16782 17.4528 7.48106 17.4828 7.57712C17.5133 7.67448 17.5887 8.01023 17.2799 8.24319L15.1856 9.82361C14.8541 10.0739 14.7806 10.5558 15.0215 10.9002C15.2624 11.2446 15.7264 11.3208 16.058 11.0707L18.1523 9.49032C18.8843 8.93787 19.1756 7.99994 18.8943 7.10075Z" fill="#414B5B"/>
</svg>
