<svg width="14" height="14" viewBox="0 0 14 14" fill="none" xmlns="http://www.w3.org/2000/svg">
<path d="M13.3636 3.18183H2.17269L4.26815 1.08633C4.51667 0.837856 4.51667 0.434911 4.26815 0.186391C4.01967 -0.0621302 3.61672 -0.0621302 3.3682 0.186391L0.186391 3.3682C-0.0621302 3.61668 -0.0621302 4.01963 0.186391 4.26815L3.3682 7.44996C3.49246 7.57422 3.65533 7.63637 3.8182 7.63637C3.98106 7.63637 4.14393 7.57422 4.26815 7.44996C4.51667 7.20148 4.51667 6.79854 4.26815 6.55002L2.17269 4.45456H13.3636C13.7151 4.45456 14 4.16964 14 3.8182C14 3.46676 13.7151 3.18183 13.3636 3.18183Z" fill="#414B5B"/>
<path d="M10.6318 6.55002C10.3833 6.30154 9.98035 6.30154 9.73183 6.55002C9.48331 6.7985 9.48331 7.20144 9.73183 7.44996L11.8273 9.54546H0.636384C0.284942 9.54546 2.12004e-05 9.83038 2.12004e-05 10.1818C2.12004e-05 10.5333 0.284942 10.8182 0.636384 10.8182H11.8273L9.73187 12.9137C9.48335 13.1622 9.48335 13.5651 9.73187 13.8136C9.85609 13.9378 10.019 14 10.1818 14C10.3447 14 10.5076 13.9378 10.6318 13.8136L13.8136 10.6318C14.0621 10.3833 14.0621 9.98035 13.8136 9.73183L10.6318 6.55002Z" fill="#414B5B"/>
</svg>
