<svg width="7" height="26" viewBox="0 0 7 26" fill="none" xmlns="http://www.w3.org/2000/svg">
<path d="M3.5 20.6917C4.58423 20.6917 5.48675 19.9291 5.57807 18.9372L6.98769 3.48193C7.06975 2.58556 6.73868 1.69945 6.07591 1.03762C5.41395 0.376651 4.47914 0 3.5 0C2.52086 0 1.58605 0.376651 0.924033 1.03762C0.261146 1.69945 -0.069748 2.58556 0.0123099 3.48193L1.42193 18.9372C1.51325 19.9291 2.41577 20.6917 3.5 20.6917Z" fill="white"/>
<path d="M3.5 21.8292C2.24518 21.8292 1.22831 22.7627 1.22831 23.9147C1.22831 25.0666 2.24518 26 3.5 26C4.75483 26 5.7717 25.0666 5.7717 23.9147C5.7717 22.7627 4.75483 21.8292 3.5 21.8292Z" fill="white"/>
</svg>
