<svg width="20" height="16" viewBox="0 0 20 16" fill="none" xmlns="http://www.w3.org/2000/svg">
<path d="M2.02034 10.2064C3.26162 11.7043 4.87368 12.9086 6.55022 13.9954C6.55022 13.9954 8.54917 15.2584 9.46804 15.8458C9.80657 16.0514 10.2417 16.0514 10.5641 15.8458C11.483 15.2584 13.4658 13.9954 13.4658 13.9954C15.1423 12.9087 16.7221 11.7192 17.9795 10.2064C19.0437 8.9141 19.8334 7.38681 19.9785 5.7714C20.2364 2.8343 18.1569 0.0146855 14.7071 0.0146855C12.692 0.0146855 10.9187 1.0133 10.016 2.49653C9.08099 0.998614 7.32384 0 5.30877 0C1.87509 0 -0.236702 2.81962 0.0212275 5.75672C0.166474 7.37212 0.940261 8.9141 2.02034 10.2064Z" fill="#EA4C68"/>
</svg>
