<svg width="21" height="19" viewBox="0 0 21 19" fill="none" xmlns="http://www.w3.org/2000/svg">
<path d="M19.3458 2.24715C18.3141 1.20236 16.8914 0.626953 15.3398 0.626953C12.6272 0.626953 11.2247 2.02271 10.5258 3.19359C10.5171 3.20811 10.5085 3.22267 10.5 3.23719C10.4915 3.22267 10.4829 3.20811 10.4742 3.19359C9.7753 2.02271 8.37277 0.626953 5.66016 0.626953C4.10858 0.626953 2.68591 1.20236 1.65416 2.24719C0.572004 3.34309 0 4.84324 0 6.58546C0 10.285 3.28867 12.7378 6.19016 14.9019C7.63592 15.9802 9.00149 16.9988 9.86098 18.0666C10.0167 18.2601 10.2517 18.3726 10.5 18.3726C10.7483 18.3726 10.9833 18.2601 11.1391 18.0667C11.5811 17.5174 12.1956 16.9334 13.073 16.2287C13.4262 15.945 13.4826 15.4287 13.1989 15.0754C12.9152 14.7223 12.3989 14.6659 12.0456 14.9496C11.4266 15.4468 10.9203 15.8964 10.5004 16.3237C9.57309 15.3784 8.39943 14.503 7.17105 13.5869C4.45212 11.5589 1.64062 9.46192 1.64062 6.58546C1.64062 4.04314 3.29351 2.26758 5.66016 2.26758C7.19902 2.26758 8.33532 2.84651 9.03738 3.98827C9.59478 4.89459 9.68149 5.83799 9.68207 5.84381C9.71496 6.27115 10.0712 6.60293 10.4998 6.60293C10.9284 6.60293 11.2847 6.27476 11.3176 5.84742C11.3184 5.83799 11.4051 4.89459 11.9625 3.98827C12.6647 2.84651 13.801 2.26758 15.3398 2.26758C17.7065 2.26758 19.3594 4.04314 19.3594 6.58546C19.3594 8.96592 17.4213 10.8115 15.3269 12.4514C14.9703 12.7307 14.9075 13.2463 15.1868 13.603C15.466 13.9597 15.9816 14.0225 16.3384 13.7431C17.3346 12.9631 18.5974 11.9089 19.5262 10.671C20.5179 9.34938 21 8.01297 21 6.58546C21 4.84324 20.428 3.34309 19.3458 2.24715Z" fill="#414B5B"/>
</svg>
