<svg width="34" height="19" viewBox="0 0 34 19" fill="none" xmlns="http://www.w3.org/2000/svg">
<path d="M10 3.16667V0H0.5V3.16667H6.75L3.5 7.91667L4.53094 10.1804H5.0946C6.82893 10.1804 7.91288 11.3058 7.91288 13.1116C7.91288 14.9174 6.82893 16.0689 5.0946 16.0689C3.55538 16.0689 2.57982 15.2837 2.12456 13.7135L0 15.2052C0.802128 17.6915 2.77493 19 5.0946 19C6.59046 19 7.84785 18.4766 8.86677 17.4298C9.88569 16.3829 10.406 14.9435 10.406 13.1116C10.406 10.3636 8.93959 8.54477 6.75 7.91667L10 3.16667Z" fill="#C1C9D2"/>
<path d="M15.9173 6.49036L19.2368 0H16.5L11.7332 9.0551C11.1262 10.1281 10.8227 11.3581 10.8227 12.7452C10.8227 14.6033 11.3213 16.095 12.3186 17.2727C13.3158 18.4242 14.6166 19 16.1991 19C17.7817 19 19.0608 18.4242 20.058 17.2727C21.0553 16.095 21.5539 14.6033 21.5539 12.7452C21.5539 10.8871 21.0553 9.39532 20.058 8.2438C19.0608 7.06612 17.7817 6.49036 16.1991 6.49036H15.9173ZM16.1991 16.1474C14.4865 16.1474 13.3158 14.8127 13.3158 12.7452C13.3158 10.6777 14.4865 9.34298 16.1991 9.34298C17.8684 9.34298 19.0608 10.6777 19.0608 12.7452C19.0608 14.8127 17.8684 16.1474 16.1991 16.1474Z" fill="#C1C9D2"/>
<path d="M32.4174 16.4091C33.4797 14.6818 34 12.3788 34 9.5C34 6.62121 33.4797 4.31818 32.4174 2.59091C31.3768 0.863638 29.9243 0 28.0382 0C26.1522 0 24.6996 0.863638 23.6374 2.59091C22.5968 4.31818 22.0765 6.62121 22.0765 9.5C22.0765 12.3788 22.5968 14.6818 23.6374 16.4091C24.6996 18.1364 26.1522 19 28.0382 19C29.9243 19 31.3768 18.1364 32.4174 16.4091ZM28.0382 16.0689C25.8053 16.0689 24.5696 13.7135 24.5696 9.5C24.5696 5.2865 25.8053 2.93113 28.0382 2.93113C30.2929 2.93113 31.5069 5.2865 31.5069 9.5C31.5069 13.7135 30.2929 16.0689 28.0382 16.0689Z" fill="#C1C9D2"/>
</svg>
