<svg width="55" height="55" viewBox="0 0 55 55" fill="none" xmlns="http://www.w3.org/2000/svg">
<g clip-path="url(#clip0_14831_24107)">
<path d="M15.3564 19.707V29.6978L27.4992 36.8652L29.8011 29.6672L27.4992 21.5485L15.3564 19.707Z" fill="#39AEB0"/>
<path d="M27.498 21.5485V36.8652L39.6408 29.6978V19.707L27.498 21.5485Z" fill="#238A8C"/>
<path d="M48.4869 26.3272H42.9678V16.8599H45.73V23.5648H48.4869V26.3272Z" fill="#78D0D1"/>
<path d="M6.23828 17.0133L27.4994 27.4792L28.8914 17.6454L27.4994 6.54736L6.23828 17.0133Z" fill="#47CDD0"/>
<path d="M48.7611 17.0134L27.5 6.54736V27.4793V27.4793L48.7611 17.0134Z" fill="#39AEB0"/>
<path d="M43.5974 28.8091C34.7483 28.8091 27.4697 35.0494 26.6985 42.9798C28.1688 41.079 29.97 39.25 32.2186 37.1473C32.3857 36.9893 32.6625 36.9861 32.8341 37.1417C33.0056 37.2957 33.0082 37.5487 32.8401 37.7059C32.5015 38.0219 32.1576 38.3499 31.812 38.6819C31.6144 38.871 31.4211 39.0593 31.2314 39.2444C31.1966 39.2787 31.1617 39.3131 31.1269 39.3482C28.3481 42.0757 26.3616 44.4497 24.919 47.3983C24.8207 47.5994 24.919 47.8356 25.1376 47.9257C25.1959 47.9497 25.2559 47.9609 25.316 47.9609C25.4823 47.9609 25.6416 47.8731 25.7138 47.7255C26.2275 46.6761 26.8238 45.7026 27.4941 44.7553C33.574 44.6125 39.108 41.5123 42.0086 36.5791C42.0809 36.4554 42.0774 36.3062 41.999 36.1849C41.9198 36.0652 41.7779 35.991 41.6247 35.991H40.0125L42.9036 34.4764C42.995 34.4285 43.0655 34.3511 43.0994 34.2602C43.7192 32.6083 44.0326 30.9086 44.0326 29.2081C44.0326 28.9878 43.8377 28.8091 43.5974 28.8091Z" fill="#47CDD0"/>
</g>
<path d="M3.81348 30.735C3.81348 28.5015 5.62409 26.6909 7.85759 26.6909H19.4122C21.6457 26.6909 23.4563 28.5015 23.4563 30.735V42.2897C23.4563 44.5232 21.6457 46.3338 19.4122 46.3338H7.8576C5.62409 46.3338 3.81348 44.5232 3.81348 42.2897V30.735Z" fill="#2CBBBF"/>
<path d="M9.10004 41.9995C8.36666 41.9995 8 41.8853 8 41.6569C8 41.5924 8.02357 41.4987 8.07066 41.3757L12.0266 31.3333C12.1208 31.1108 12.4606 30.9995 13.0459 30.9995H13.9743C14.5596 30.9995 14.8994 31.1108 14.9936 31.3333L18.9496 41.3757C18.9831 41.4928 19 41.5866 19 41.6569C19 41.774 18.926 41.8619 18.778 41.9204C18.6367 41.9731 18.4113 41.9995 18.1019 41.9995H17.3147C17.0321 41.9995 16.8033 41.9761 16.6284 41.9292C16.4602 41.8765 16.3559 41.7916 16.3156 41.6745L15.589 39.7679H11.3606L10.634 41.6745C10.56 41.8912 10.2841 41.9995 9.80643 41.9995H9.10004ZM14.822 37.7031L13.8028 34.9268C13.7422 34.7863 13.6884 34.6252 13.6413 34.4436C13.6009 34.262 13.5639 34.0892 13.5303 33.9252H13.4597L13.4193 34.1185C13.352 34.4641 13.2746 34.7335 13.1872 34.9268L12.1276 37.7031H14.822Z" fill="white"/>
<defs>
<clipPath id="clip0_14831_24107">
<rect width="47.1429" height="41.9048" fill="white" transform="translate(3.92871 6.54736)"/>
</clipPath>
</defs>
</svg>
