<svg width="18" height="21" viewBox="0 0 18 21" fill="none" xmlns="http://www.w3.org/2000/svg">
<path d="M5.97495 5.93359H2.96868C2.65739 5.93359 2.40501 6.19594 2.40501 6.51953C2.40501 6.84312 2.65739 7.10547 2.96868 7.10547H5.97495C6.28625 7.10547 6.53862 6.84312 6.53862 6.51953C6.53862 6.19594 6.28625 5.93359 5.97495 5.93359Z" fill="white"/>
<path d="M5.97495 9.05859H2.96868C2.65739 9.05859 2.40501 9.32094 2.40501 9.64453C2.40501 9.96813 2.65739 10.2305 2.96868 10.2305H5.97495C6.28625 10.2305 6.53862 9.96813 6.53862 9.64453C6.53862 9.32094 6.28625 9.05859 5.97495 9.05859Z" fill="white"/>
<path d="M5.97495 12.1836H2.96868C2.65739 12.1836 2.40501 12.4459 2.40501 12.7695C2.40501 13.0931 2.65739 13.3555 2.96868 13.3555H5.97495C6.28625 13.3555 6.53862 13.0931 6.53862 12.7695C6.53862 12.4459 6.28625 12.1836 5.97495 12.1836Z" fill="white"/>
<path d="M14.0543 11.0089V5.65937C14.0543 4.88711 13.7678 4.15855 13.2477 3.60754L10.9606 1.14898C10.9595 1.14781 10.9584 1.1466 10.9573 1.14543C10.4307 0.588789 9.69794 0.269531 8.94701 0.269531H1.69102C0.758593 0.269531 0 1.05809 0 2.02734V17.2227C0 18.1919 0.758593 18.9805 1.69102 18.9805H10.4029C11.2062 19.7786 12.2943 20.2695 13.4906 20.2695C15.9771 20.2695 18 18.1843 18 15.6211C18 13.2547 16.2757 11.2957 14.0543 11.0089ZM1.12735 17.2227V2.02734C1.12735 1.70426 1.38021 1.44141 1.69102 1.44141H8.94701C9.39698 1.44141 9.83604 1.63246 10.152 1.96555L12.4387 4.42371C12.4398 4.42488 12.4409 4.42605 12.4419 4.42719C12.7547 4.75793 12.9269 5.19551 12.9269 5.65941V11.0095C10.7263 11.2985 9.01879 13.2564 9.01879 15.6211C9.01879 16.4115 9.20976 17.1563 9.5459 17.8086H1.69102C1.38021 17.8086 1.12735 17.5457 1.12735 17.2227ZM13.4906 19.0977C11.6465 19.0977 10.1461 17.5381 10.1461 15.6211C10.1461 13.7041 11.6465 12.1445 13.4906 12.1445C15.3555 12.1445 16.8727 13.7041 16.8727 15.6211C16.8727 17.5381 15.3555 19.0977 13.4906 19.0977Z" fill="white"/>
<path d="M14.7909 14.2335C14.5518 14.0264 14.1964 14.06 13.997 14.3085L13.0457 15.4953L12.8299 15.0466C12.6906 14.7571 12.3521 14.6398 12.0736 14.7846C11.7951 14.9293 11.6823 15.2813 11.8215 15.5707L12.4228 16.8207C12.5079 16.9975 12.673 17.1179 12.862 17.1407C12.8837 17.1432 12.9054 17.1446 12.927 17.1446C13.0931 17.1446 13.2522 17.0682 13.36 16.9338L14.8631 15.0588C15.0624 14.8101 15.0301 14.4406 14.7909 14.2335Z" fill="white"/>
<path d="M8.98121 7.10547H9.58246C9.89376 7.10547 10.1461 6.84312 10.1461 6.51953C10.1461 6.19594 9.89376 5.93359 9.58246 5.93359H8.98121C8.66991 5.93359 8.41754 6.19594 8.41754 6.51953C8.41754 6.84312 8.66991 7.10547 8.98121 7.10547Z" fill="white"/>
<path d="M10.1461 9.64453C10.1461 9.32094 9.89376 9.05859 9.58246 9.05859H8.98121C8.66991 9.05859 8.41754 9.32094 8.41754 9.64453C8.41754 9.96813 8.66991 10.2305 8.98121 10.2305H9.58246C9.89376 10.2305 10.1461 9.96813 10.1461 9.64453Z" fill="white"/>
</svg>
