<svg width="19" height="20" viewBox="0 0 19 20" fill="none" xmlns="http://www.w3.org/2000/svg">
<path d="M11.0016 12.7249C10.537 12.4007 10.0405 12.1366 9.52128 11.9348C10.212 11.3069 10.6702 10.4273 10.75 9.44261C11.7974 8.42183 13.1705 7.86222 14.6424 7.86222C15.7915 7.86222 16.8948 8.20828 17.8332 8.86285C18.1695 9.09742 18.6319 9.01507 18.8665 8.67873C19.1009 8.34253 19.0186 7.87991 18.6824 7.64548C18.2178 7.32132 17.7212 7.05732 17.2019 6.85536C17.9641 6.16252 18.4434 5.16349 18.4434 4.05471C18.4434 1.96749 16.7456 0.269531 14.6586 0.269531C12.5718 0.269531 10.874 1.96749 10.874 4.05471C10.874 5.159 11.3494 6.15441 12.1063 6.84696C12.0027 6.88682 11.8996 6.92901 11.7976 6.97396C11.3331 7.17837 10.8965 7.42976 10.4905 7.72493C9.9305 6.3336 8.56716 5.34892 6.97798 5.34892C4.89115 5.34892 3.19325 7.04688 3.19325 9.13396C3.19325 10.2352 3.66596 11.2278 4.41888 11.9201C2.40583 12.6744 0.773594 14.2945 0.109103 16.3607C-0.111235 17.0459 0.0054572 17.7725 0.429317 18.3543C0.853177 18.9359 1.50897 19.2695 2.22855 19.2695H8.68487C9.09467 19.2695 9.42692 18.9372 9.42692 18.5273C9.42692 18.1174 9.09467 17.7851 8.68487 17.7851H2.22855C1.98864 17.7851 1.77004 17.6739 1.62871 17.4799C1.48737 17.286 1.44852 17.0437 1.52187 16.8152C2.25536 14.5345 4.49237 12.9416 6.96174 12.9416C8.11069 12.9416 9.21412 13.2877 10.1526 13.9422C10.4887 14.1768 10.9513 14.0943 11.1858 13.7581C11.4202 13.4219 11.3379 12.9593 11.0016 12.7249ZM14.6586 1.75394C15.9272 1.75394 16.9591 2.78603 16.9591 4.05471C16.9591 5.32326 15.9272 6.35549 14.6586 6.35549C13.3902 6.35549 12.3581 5.32326 12.3581 4.05471C12.3581 2.78603 13.3902 1.75394 14.6586 1.75394ZM6.97798 6.83318C8.24652 6.83318 9.27848 7.86541 9.27848 9.13396C9.27848 10.4026 8.24652 11.4347 6.97798 11.4347C5.70944 11.4347 4.67748 10.4026 4.67748 9.13396C4.67748 7.86541 5.70944 6.83318 6.97798 6.83318ZM19 15.7441C19 16.154 18.6678 16.4863 18.2578 16.4863H16.2171V18.5273C16.2171 18.9372 15.8848 19.2695 15.475 19.2695C15.0651 19.2695 14.7328 18.9372 14.7328 18.5273V16.4863H12.6921C12.2823 16.4863 11.9501 16.154 11.9501 15.7441C11.9501 15.3342 12.2823 15.0019 12.6921 15.0019H14.7328V12.9609C14.7328 12.551 15.0651 12.2188 15.475 12.2188C15.8848 12.2188 16.2171 12.551 16.2171 12.9609V15.0019H18.2578C18.6678 15.0019 19 15.3342 19 15.7441Z" fill="#8794A8"/>
</svg>
