<svg width="19" height="19" viewBox="0 0 19 19" fill="none" xmlns="http://www.w3.org/2000/svg">
<path d="M13.6408 9.53373C13.2756 9.36017 12.9031 9.21066 12.524 9.08541C13.7517 8.16391 14.5473 6.69657 14.5473 5.04688C14.5473 2.26404 12.2833 0 9.50047 0C6.7176 0 4.4536 2.26404 4.4536 5.04688C4.4536 6.69839 5.251 8.16718 6.48099 9.08849C5.35406 9.45951 4.29663 10.0368 3.37112 10.7981C1.67403 12.194 0.494066 14.1411 0.0486419 16.2807C-0.0909635 16.9512 0.0762884 17.6398 0.507425 18.1699C0.936447 18.6974 1.57261 19 2.25275 19H11.3931C11.803 19 12.1352 18.6677 12.1352 18.2578C12.1352 17.8479 11.803 17.5156 11.3931 17.5156H2.25275C1.93591 17.5156 1.74476 17.3388 1.65904 17.2334C1.51101 17.0513 1.45371 16.8144 1.50184 16.5833C2.27205 12.8836 5.5353 10.1811 9.30372 10.09C9.36899 10.0925 9.43457 10.0938 9.50047 10.0938C9.56701 10.0938 9.63325 10.0925 9.69916 10.0899C10.854 10.117 11.9647 10.3805 13.0035 10.8744C13.3738 11.0503 13.8165 10.8929 13.9925 10.5227C14.1684 10.1525 14.011 9.70971 13.6408 9.53373ZM9.68149 8.60481C9.62126 8.60373 9.56092 8.60318 9.50047 8.60318C9.44058 8.60318 9.38068 8.60377 9.32086 8.60489C7.4396 8.51103 5.93797 6.95103 5.93797 5.04688C5.93797 3.08249 7.53609 1.48438 9.50047 1.48438C11.4649 1.48438 13.063 3.08249 13.063 5.04688C13.063 6.95055 11.5621 8.51026 9.68149 8.60481Z" fill="#289728"/>
<path d="M18.2578 14.7324H16.2168V12.6914C16.2168 12.2815 15.8845 11.9492 15.4746 11.9492C15.0647 11.9492 14.7324 12.2815 14.7324 12.6914V14.7324H12.6914C12.2815 14.7324 11.9492 15.0647 11.9492 15.4746C11.9492 15.8845 12.2815 16.2168 12.6914 16.2168H14.7324V18.2578C14.7324 18.6677 15.0647 19 15.4746 19C15.8845 19 16.2168 18.6677 16.2168 18.2578V16.2168H18.2578C18.6677 16.2168 19 15.8845 19 15.4746C19 15.0647 18.6677 14.7324 18.2578 14.7324Z" fill="#289728"/>
</svg>
