<svg width="55" height="55" viewBox="0 0 55 55" fill="none" xmlns="http://www.w3.org/2000/svg">
<g clip-path="url(#clip0_14901_24762)">
<path d="M15.3564 19.708V29.6988L27.4992 36.8662L29.8011 29.6682L27.4992 21.5495L15.3564 19.708Z" fill="#BBBBBB"/>
<path d="M27.498 21.5495V36.8662L39.6408 29.6988V19.708L27.498 21.5495Z" fill="#8B8F8F"/>
<path d="M48.4869 26.3277H42.9678V16.8604H45.73V23.5653H48.4869V26.3277Z" fill="#D9D9D9"/>
<path d="M6.23828 17.0138L27.4994 27.4797L28.8914 17.6458L27.4994 6.54785L6.23828 17.0138Z" fill="#D9D9D9"/>
<path d="M48.7611 17.0138L27.5 6.54785V27.4797V27.4798L48.7611 17.0138Z" fill="#BBBBBB"/>
<path d="M43.5974 28.8096C34.7483 28.8096 27.4697 35.0499 26.6985 42.9803C28.1688 41.0795 29.97 39.2505 32.2186 37.1478C32.3857 36.9898 32.6625 36.9866 32.8341 37.1422C33.0056 37.2962 33.0082 37.5492 32.8401 37.7064C32.5015 38.0224 32.1576 38.3504 31.812 38.6823C31.6144 38.8715 31.4211 39.0598 31.2314 39.2449C31.1966 39.2792 31.1617 39.3136 31.1269 39.3487C28.3481 42.0762 26.3616 44.4502 24.919 47.3988C24.8207 47.5998 24.919 47.8361 25.1376 47.9262C25.1959 47.9502 25.2559 47.9613 25.316 47.9613C25.4823 47.9613 25.6416 47.8735 25.7138 47.7259C26.2275 46.6766 26.8238 45.703 27.4941 44.7558C33.574 44.613 39.108 41.5128 42.0086 36.5796C42.0809 36.4559 42.0774 36.3067 41.999 36.1854C41.9198 36.0657 41.7779 35.9915 41.6247 35.9915H40.0125L42.9036 34.4769C42.995 34.429 43.0655 34.3516 43.0994 34.2606C43.7192 32.6088 44.0326 30.9091 44.0326 29.2086C44.0326 28.9883 43.8377 28.8096 43.5974 28.8096Z" fill="#D9D9D9"/>
</g>
<path d="M3.81348 30.7355C3.81348 28.502 5.62409 26.6914 7.85759 26.6914H19.4122C21.6457 26.6914 23.4563 28.502 23.4563 30.7355V42.2901C23.4563 44.5237 21.6457 46.3343 19.4122 46.3343H7.8576C5.62409 46.3343 3.81348 44.5237 3.81348 42.2902V30.7355Z" fill="#D9D9D9"/>
<path d="M9.10004 42C8.36666 42 8 41.8858 8 41.6573C8 41.5929 8.02357 41.4992 8.07066 41.3762L12.0266 31.3338C12.1208 31.1113 12.4606 31 13.0459 31H13.9743C14.5596 31 14.8994 31.1113 14.9936 31.3338L18.9496 41.3762C18.9831 41.4933 19 41.5871 19 41.6573C19 41.7745 18.926 41.8624 18.778 41.9209C18.6367 41.9736 18.4113 42 18.1019 42H17.3147C17.0321 42 16.8033 41.9766 16.6284 41.9297C16.4602 41.877 16.3559 41.7921 16.3156 41.6749L15.589 39.7683H11.3606L10.634 41.6749C10.56 41.8917 10.2841 42 9.80643 42H9.10004ZM14.822 37.7036L13.8028 34.9273C13.7422 34.7868 13.6884 34.6257 13.6413 34.4441C13.6009 34.2625 13.5639 34.0897 13.5303 33.9257H13.4597L13.4193 34.119C13.352 34.4646 13.2746 34.734 13.1872 34.9273L12.1276 37.7036H14.822Z" fill="white"/>
<defs>
<clipPath id="clip0_14901_24762">
<rect width="47.1429" height="41.9048" fill="white" transform="translate(3.92871 6.54785)"/>
</clipPath>
</defs>
</svg>
