<svg width="55" height="55" viewBox="0 0 55 55" fill="none" xmlns="http://www.w3.org/2000/svg">
<path d="M42.5494 6.29023V19.8271C42.5494 22.0959 40.7 23.9452 38.4312 23.9452H25.5337C24.9287 23.9452 24.3512 24.1309 23.8562 24.4815L17.9919 28.6684C17.2906 29.1702 16.3075 28.6684 16.3075 27.8021V9.34273C16.3075 7.07398 18.1569 5.22461 20.4256 5.22461H41.4906C42.075 5.22461 42.5494 5.69898 42.5494 6.29023Z" fill="#E4E4E4"/>
<path d="M43.065 6.29023V19.8271C43.065 22.0959 41.2156 23.9452 38.9469 23.9452H30.7037V5.22461H41.9994C42.5837 5.22461 43.065 5.69898 43.065 6.29023Z" fill="#CCCCCC"/>
<path d="M24.0969 13.8052L25.63 13.0077L27.17 13.8052L26.8813 12.1002L28.1188 10.8833L26.4069 10.6221L25.63 9.0752L24.86 10.6221L23.1206 10.8833L24.3788 12.1002L24.0969 13.8052Z" fill="#F2F2F2"/>
<path d="M24.0969 20.0747L25.63 19.2772L27.17 20.0747L26.8813 18.3629L28.1188 17.1529L26.4069 16.8916L25.63 15.3447L24.86 16.8916L23.1206 17.1529L24.3788 18.3629L24.0969 20.0747Z" fill="#F2F2F2"/>
<path d="M37.4206 10.4297H28.985V12.9459H37.4206V10.4297Z" fill="#F2F2F2"/>
<path d="M34.0381 16.6992H28.985V19.2155H34.0381V16.6992Z" fill="#F2F2F2"/>
<path d="M41.305 27.8438H41.2637C38.0806 27.8438 36.3 30.1744 35.475 31.7487C34.6362 30.1744 32.8694 27.8438 29.6862 27.8438H29.6312C26.1869 27.8713 23.32 30.8069 23.1412 34.5263C22.9212 39.0844 26.5581 42.1506 32.0031 46.7775C32.945 47.5888 33.9419 48.4413 35.0006 49.3556L35.475 49.775L35.9494 49.3556C36.9944 48.4413 38.005 47.5888 38.9469 46.7775C44.385 42.1506 48.0219 39.0775 47.8087 34.5263C47.63 30.8069 44.7425 27.8713 41.305 27.8438Z" fill="#E4E4E4"/>
<path d="M47.8019 34.5263C48.0219 39.0844 44.385 42.1506 38.94 46.7775C37.9981 47.5888 36.9875 48.4413 35.9425 49.3556L35.4681 49.775V31.7487C36.2931 30.1744 38.0738 27.8438 41.2569 27.8438H41.2981C44.7425 27.8713 47.63 30.8069 47.8019 34.5263Z" fill="#CCCCCC"/>
<path d="M5.38999 31.6528C5.38999 29.4253 7.19812 27.6172 9.42562 27.6172H20.9481C23.1756 27.6172 24.9837 29.4253 24.9837 31.6528V43.1753C24.9837 45.4028 23.1756 47.2109 20.9481 47.2109H9.41874C7.19124 47.2109 5.38312 45.4028 5.38312 43.1753V31.6528H5.38999Z" fill="#D9D9D9"/>
<path d="M8.09875 41.8416C7.26687 40.9341 6.85437 39.5247 6.85437 37.6066C6.85437 33.9216 8.58 32.0791 12.0381 32.0791C12.5125 32.0791 13.0006 32.1272 13.5025 32.2166C14.0112 32.3129 14.4306 32.4366 14.7744 32.6016C15.1181 32.7666 15.2831 32.9522 15.2831 33.1585C15.2831 33.3029 15.2281 33.4954 15.1112 33.7291C14.9944 33.9629 14.8569 34.176 14.6987 34.3547C14.5406 34.5335 14.3962 34.6229 14.2725 34.6229C14.245 34.6229 14.1625 34.5954 14.0387 34.5335C13.7569 34.4166 13.4681 34.3204 13.1587 34.2379C12.8494 34.1554 12.4644 34.121 11.9969 34.121C11.0825 34.121 10.4087 34.4097 9.96875 34.9872C9.52875 35.5647 9.30875 36.4378 9.30875 37.6135C9.30875 38.7891 9.52875 39.6622 9.96875 40.2603C10.4087 40.8516 11.0756 41.1472 11.9556 41.1472C12.4162 41.1472 12.815 41.0991 13.1587 41.0097C13.5025 40.9135 13.8325 40.7966 14.1556 40.6522C14.1762 40.6453 14.2244 40.6247 14.3137 40.5835C14.4031 40.5491 14.465 40.5285 14.5062 40.5285C14.6575 40.5285 14.8019 40.6179 14.9394 40.7966C15.0769 40.9754 15.1937 41.1747 15.2831 41.4016C15.3725 41.6285 15.4137 41.7866 15.4137 41.8829C15.4137 42.1647 15.2212 42.4122 14.8431 42.6047C14.465 42.8041 14.0044 42.9485 13.4612 43.0447C12.925 43.141 12.4231 43.1891 11.9556 43.1891C10.2094 43.2029 8.92375 42.7491 8.09875 41.8416Z" fill="white"/>
<path d="M16.9331 42.1166C16.2869 41.3947 15.9706 40.3566 15.9706 39.0022C15.9706 37.6547 16.2937 36.6166 16.9331 35.9016C17.5794 35.1866 18.5144 34.8291 19.7381 34.8291C20.9687 34.8291 21.8969 35.1866 22.5362 35.9016C23.1756 36.6166 23.4919 37.6479 23.4919 39.0022C23.4919 40.3566 23.1756 41.3947 22.5362 42.1166C21.8969 42.8385 20.9687 43.196 19.7381 43.196C18.5144 43.2029 17.5794 42.8385 16.9331 42.1166ZM20.8175 40.7829C21.0444 40.3841 21.1612 39.7929 21.1612 39.0022C21.1612 38.2185 21.0444 37.6272 20.8175 37.2285C20.5906 36.8297 20.2262 36.6372 19.7381 36.6372C18.7687 36.6372 18.2875 37.4279 18.2875 39.0022C18.2875 39.786 18.4044 40.3772 18.6381 40.776C18.8719 41.1747 19.2362 41.3741 19.7312 41.3741C20.2331 41.3741 20.5906 41.1816 20.8175 40.7829Z" fill="white"/>
</svg>
