<svg width="22" height="20" viewBox="0 0 22 20" fill="none" xmlns="http://www.w3.org/2000/svg">
<path d="M16.2276 20C16.0544 20 15.8775 19.9782 15.7022 19.9328L1.52659 16.1681C0.433046 15.869 -0.218717 14.7472 0.0673 13.6636L1.62562 7.73733C1.72096 7.37362 2.09594 7.15273 2.46437 7.2501C2.83113 7.34465 3.05202 7.71735 2.95584 8.0819L1.39735 14.0092C1.30117 14.3745 1.52021 14.7517 1.88697 14.8518L16.0544 18.6146C16.4183 18.7099 16.7941 18.4954 16.8895 18.1363L17.3734 16.1999C17.4652 15.8345 17.8373 15.6127 18.2057 15.7019C18.5743 15.7928 18.7989 16.1618 18.7081 16.5272L18.2224 18.4727C17.9775 19.3936 17.1416 20 16.2276 20Z" fill="#B2BAC8"/>
<path d="M19.9375 14.5455H5.72873C4.59121 14.5455 3.66618 13.6281 3.66618 12.5V2.04544C3.66618 0.917353 4.59121 0 5.72873 0H19.9375C21.075 0 22 0.917353 22 2.04544V12.5C22 13.6281 21.075 14.5455 19.9375 14.5455ZM5.72873 1.36363C5.34922 1.36363 5.04122 1.66908 5.04122 2.04544V12.5C5.04122 12.8764 5.34922 13.1819 5.72873 13.1819H19.9375C20.317 13.1819 20.625 12.8764 20.625 12.5V2.04544C20.625 1.66908 20.317 1.36363 19.9375 1.36363H5.72873Z" fill="#B2BAC8"/>
<path d="M8.24968 6.36371C7.23855 6.36371 6.41625 5.54823 6.41625 4.54549C6.41625 3.54274 7.23855 2.72726 8.24968 2.72726C9.26081 2.72726 10.0829 3.54274 10.0829 4.54549C10.0829 5.54823 9.26081 6.36371 8.24968 6.36371ZM8.24968 4.09089C7.99656 4.09089 7.79128 4.29463 7.79128 4.54549C7.79128 4.79634 7.99656 5.00008 8.24968 5.00008C8.50263 5.00008 8.70791 4.79634 8.70791 4.54549C8.70791 4.29463 8.50263 4.09089 8.24968 4.09089Z" fill="#B2BAC8"/>
<path d="M4.372 13.6181C4.19609 13.6181 4.02001 13.5517 3.88624 13.4182C3.61768 13.1519 3.61768 12.7199 3.88624 12.4536L8.02963 8.34457C8.65672 7.72268 9.67691 7.72268 10.303 8.34457L11.4113 9.4437L14.8158 5.39093C15.1201 5.02905 15.5666 4.81998 16.0406 4.81731C16.5502 4.78918 16.9628 5.01906 17.2698 5.37645L21.8332 10.6563C22.0806 10.9418 22.0467 11.3728 21.7588 11.6181C21.4701 11.8637 21.0365 11.83 20.789 11.5446L16.2239 6.26284C16.1633 6.19093 16.0891 6.19459 16.0479 6.18177C16.0086 6.18177 15.9324 6.19359 15.8719 6.2645L11.9852 10.8919C11.8613 11.039 11.6809 11.1283 11.4884 11.1364C11.2921 11.1472 11.107 11.0727 10.9712 10.9373L9.33047 9.31003C9.21398 9.19451 9.1178 9.19451 9.00132 9.31003L4.85792 13.4182C4.72398 13.5517 4.54807 13.6181 4.372 13.6181Z" fill="#B2BAC8"/>
</svg>
