<svg width="34" height="35" viewBox="0 0 34 35" fill="none" xmlns="http://www.w3.org/2000/svg">
<path d="M20.6163 29.2946L19.8587 25.316C19.7126 25.3828 19.5564 25.4335 19.3916 25.4649L17.7506 25.7773C17.5858 25.8087 17.4219 25.8189 17.2615 25.8105L18.019 29.7892L20.6163 29.2946Z" fill="#FFAF10"/>
<path d="M19.1692 29.5702L18.4227 25.6494L17.7506 25.7773C17.5858 25.8087 17.4219 25.8189 17.2615 25.8105L18.019 29.7892L19.1692 29.5702Z" fill="#EF9614"/>
<path d="M18.2326 23.8437C17.238 24.033 16.2506 24.0313 15.308 23.8652L15.3776 24.2311C15.5885 25.3388 16.6575 26.0658 17.7653 25.8549L19.4063 25.5424C20.5141 25.3315 21.2411 24.2625 21.0301 23.1548L20.9605 22.789C20.1448 23.2898 19.2272 23.6543 18.2326 23.8437Z" fill="#FFD00D"/>
<path d="M17.7018 23.9263C16.8875 24.0267 16.0826 24.0017 15.308 23.8652L15.3776 24.2311C15.5885 25.3388 16.6575 26.0658 17.7653 25.8549L19.4063 25.5424C19.5175 25.5212 19.6247 25.491 19.7277 25.4534C18.7896 25.4776 17.9414 24.8508 17.7018 23.9263Z" fill="#FFAF10"/>
<path d="M25.0286 31.0411L24.6477 29.0403C24.5861 28.7167 24.2369 28.5088 23.8718 28.5783L14.8428 30.2974C14.4777 30.3669 14.2294 30.6886 14.291 31.0123L14.6719 33.013L25.0286 31.0411Z" fill="#EF8318"/>
<path d="M19.1105 32.1679L18.7296 30.1672C18.668 29.8435 18.9504 29.5153 19.3573 29.4379L14.9187 30.283C14.5118 30.3604 14.2294 30.6886 14.291 31.0123L14.6719 33.013L19.1105 32.1679Z" fill="#DB722C"/>
<path d="M27.0534 2.21533L24.1775 2.76291L24.2963 3.38692C24.3275 3.55062 24.2197 3.70909 24.056 3.74026L22.8108 3.97736C22.7697 3.98518 22.7429 4.02474 22.7507 4.0657L22.9145 4.92584L26.8044 4.18518C27.2644 7.46593 26.3493 10.6575 24.479 13.1429L24.7045 14.3274C24.7866 14.7584 24.8323 15.188 24.8449 15.6133C27.9121 12.4484 29.4471 7.88999 28.5619 3.24128C28.4289 2.54248 27.7522 2.08229 27.0534 2.21533Z" fill="#FFAF10"/>
<path d="M8.71752 17.3711L8.49199 16.1866C5.83928 14.5623 3.81521 11.9304 3.0375 8.71015L6.92744 7.96949L6.76367 7.10936C6.75587 7.0684 6.7163 7.04148 6.67533 7.04928L5.42999 7.2864C5.26629 7.31757 5.10781 7.20979 5.07664 7.04609L4.95783 6.42208L2.08193 6.96965C1.3832 7.10269 0.922941 7.77944 1.05598 8.47817C1.94112 13.127 5.04388 16.8023 9.05941 18.6186C8.91485 18.2185 8.79959 17.8021 8.71752 17.3711Z" fill="#FFD00D"/>
<path d="M6.67554 7.05078L8.64352 17.3867C9.49188 21.8423 13.7917 24.7666 18.2473 23.9183C22.7029 23.0699 25.6273 18.7701 24.7789 14.3145L22.8109 3.97857L6.67554 7.05078Z" fill="#F5A70E"/>
<path d="M10.2551 17.0796L8.27301 6.6697L6.66138 6.97656L8.64345 17.3865C9.4918 21.8421 13.7916 24.7664 18.2472 23.9181C18.5174 23.8666 18.7813 23.8015 19.0396 23.7253C14.8875 24.094 11.0513 21.2613 10.2551 17.0796Z" fill="#DB722C"/>
<path d="M17.4488 19.7242C20.4816 19.1468 22.472 16.2201 21.8946 13.1873C21.3171 10.1545 18.3904 8.1641 15.3577 8.74155C12.3249 9.319 10.3344 12.2457 10.9119 15.2784C11.4893 18.3112 14.416 20.3017 17.4488 19.7242Z" fill="#DB722C"/>
<path d="M12.3237 15.01C11.7917 12.2162 13.4397 9.51418 16.0733 8.65392C15.8368 8.66829 15.5986 8.69603 15.3595 8.74155C12.3267 9.319 10.3363 12.2457 10.9137 15.2784C11.4912 18.3112 14.4178 20.3017 17.4506 19.7242C17.6897 19.6787 17.9214 19.617 18.1467 19.5434C15.3812 19.7112 12.8556 17.8037 12.3237 15.01Z" fill="#C95E23"/>
<path d="M18.9667 17.2986C18.876 17.3159 18.7785 17.309 18.677 17.278L17.0323 16.7767C17.0075 16.7692 16.9545 16.7649 16.8871 16.7777C16.8196 16.7906 16.7719 16.814 16.7514 16.8302L15.4062 17.9008C15.3231 17.9669 15.2349 18.0091 15.1443 18.0264C15.0065 18.0526 14.8726 18.0199 14.7672 17.9343C14.6504 17.8394 14.5843 17.6895 14.581 17.5121L14.5496 15.7931C14.5483 15.7176 14.4749 15.5842 14.412 15.5425L12.9781 14.5938C12.7914 14.4703 12.6981 14.2909 12.7221 14.1016C12.7462 13.9123 12.8812 13.7619 13.0928 13.6889L14.7179 13.1279C14.7891 13.1032 14.8935 12.9922 14.9136 12.9195L15.3727 11.2626C15.4325 11.0469 15.5742 10.9028 15.7617 10.8671C15.9491 10.8314 16.134 10.9133 16.2687 11.092L17.3046 12.4642C17.3501 12.5245 17.4879 12.5895 17.5632 12.5861L19.2808 12.5107C19.5043 12.5009 19.6853 12.5911 19.7771 12.7583C19.869 12.9255 19.8482 13.1266 19.72 13.3101L18.735 14.7193C18.6917 14.7812 18.6726 14.9323 18.6991 15.003L19.3015 16.6133C19.3637 16.7795 19.3573 16.9432 19.2836 17.0744C19.217 17.1927 19.1044 17.2724 18.9667 17.2986Z" fill="#FFD00D"/>
<path d="M15.7779 17.1174L15.7438 15.2548C15.7424 15.173 15.6629 15.0283 15.5947 14.9832L14.0409 13.9552C13.8501 13.8289 13.7508 13.6487 13.7618 13.4565L13.095 13.6867C12.8834 13.7598 12.7484 13.9101 12.7243 14.0994C12.7003 14.2887 12.7936 14.4681 12.9803 14.5917L14.4142 15.5403C14.4771 15.5819 14.5505 15.7155 14.5518 15.7909L14.5832 17.5099C14.5865 17.6873 14.6526 17.8373 14.7694 17.9322C14.8748 18.0177 15.0087 18.0505 15.1465 18.0242C15.2372 18.007 15.3253 17.9647 15.4084 17.8986L15.9073 17.5016C15.8264 17.4015 15.7807 17.269 15.7779 17.1174Z" fill="#FFAF10"/>
<path d="M24.3701 3.37244C24.4089 3.57651 24.2738 3.77526 24.0697 3.81412L5.44368 7.36054C5.23961 7.3994 5.04085 7.26422 5.002 7.06015L4.59225 4.90815C4.5534 4.70408 4.68857 4.50532 4.89264 4.46646L23.5186 0.920039C23.7227 0.881184 23.9215 1.01636 23.9603 1.22043L24.3701 3.37244Z" fill="#FFD00D"/>
<path d="M7.26532 6.62921L6.85557 4.47721C6.81672 4.27314 6.95189 4.07438 7.15596 4.03552L4.89264 4.46646C4.68857 4.50532 4.5534 4.70408 4.59225 4.90815L5.002 7.06015C5.04085 7.26422 5.23961 7.3994 5.44368 7.36054L7.707 6.9296C7.50293 6.96846 7.30417 6.83328 7.26532 6.62921Z" fill="#FFAF10"/>
<path d="M9.30891 29.0803C9.21341 29.0984 9.11691 29.0537 9.06919 28.969C8.4011 27.7848 8.02054 27.526 6.67377 27.3399C6.57742 27.3266 6.50033 27.2533 6.48215 27.1578C6.46396 27.0623 6.50872 26.9658 6.59338 26.918C7.77752 26.25 8.03632 25.8694 8.22251 24.5226C8.23586 24.4263 8.30908 24.3493 8.40458 24.3311C8.50009 24.3129 8.59658 24.3577 8.6443 24.4423C9.31239 25.6264 9.69295 25.8853 11.0397 26.0714C11.136 26.0848 11.2131 26.158 11.2313 26.2535C11.2495 26.349 11.2048 26.4455 11.12 26.4933C9.9359 27.1613 9.67709 27.5419 9.49091 28.8887C9.47771 28.985 9.40442 29.0621 9.30891 29.0803Z" fill="#FFD00D"/>
<path d="M27.2865 23.1196C27.2104 23.1341 27.1334 23.0984 27.0953 23.031C26.563 22.0873 26.2597 21.8811 25.1865 21.7328C25.1099 21.7221 25.0484 21.6637 25.0339 21.5876C25.0194 21.5115 25.0551 21.4346 25.1225 21.3966C26.0661 20.8642 26.2724 20.5609 26.4207 19.4877C26.4313 19.4109 26.4897 19.3495 26.5659 19.335C26.642 19.3205 26.7188 19.3562 26.757 19.4237C27.2893 20.3673 27.5926 20.5735 28.6659 20.7219C28.7425 20.7325 28.804 20.7909 28.8184 20.867C28.8329 20.9431 28.7972 21.02 28.7299 21.0581C27.7862 21.5905 27.5799 21.8937 27.4316 22.967C27.4209 23.0437 27.3625 23.1051 27.2865 23.1196Z" fill="white"/>
<path d="M10.8107 9.49238C10.7391 9.50601 10.6668 9.47242 10.6309 9.40896C10.1298 8.52085 9.84443 8.32674 8.83432 8.1871C8.76213 8.17708 8.7043 8.12211 8.69066 8.0505C8.67703 7.97889 8.71062 7.90652 8.77408 7.87068C9.6622 7.36969 9.8563 7.0842 9.99594 6.07409C10.006 6.0019 10.0609 5.94407 10.1325 5.93043C10.2041 5.9168 10.2765 5.95038 10.3124 6.01384C10.8134 6.90196 11.0988 7.09607 12.1089 7.23571C12.1811 7.24573 12.239 7.30069 12.2526 7.3723C12.2662 7.44391 12.2327 7.51629 12.1692 7.55213C11.2811 8.05319 11.087 8.33861 10.9473 9.34872C10.9373 9.42091 10.8823 9.47874 10.8107 9.49238Z" fill="white"/>
</svg>
