<svg width="19" height="18" viewBox="0 0 19 18" fill="none" xmlns="http://www.w3.org/2000/svg">
<path d="M4.546 11.4993L0.833496 14.416V1.49935C0.833496 1.27834 0.921293 1.06637 1.07757 0.910093C1.23385 0.753813 1.44582 0.666016 1.66683 0.666016H14.1668C14.3878 0.666016 14.5998 0.753813 14.7561 0.910093C14.9124 1.06637 15.0002 1.27834 15.0002 1.49935V11.4993H4.546ZM3.96933 9.83268H13.3335V2.33268H2.50016V10.9868L3.96933 9.83268ZM6.66683 13.166H15.1977L16.6668 14.3202V5.66602H17.5002C17.7212 5.66602 17.9331 5.75381 18.0894 5.91009C18.2457 6.06637 18.3335 6.27834 18.3335 6.49935V17.7493L14.621 14.8327H7.50016C7.27915 14.8327 7.06719 14.7449 6.91091 14.5886C6.75463 14.4323 6.66683 14.2204 6.66683 13.9993V13.166Z" fill="#9EA8B7"/>
</svg>
