<svg width="14" height="14" viewBox="0 0 14 14" fill="none" xmlns="http://www.w3.org/2000/svg">
<path d="M0.719919 14C0.5355 14 0.351081 13.9299 0.210965 13.7887C-0.0703217 13.5074 -0.0703217 13.0514 0.210965 12.7701L12.7704 0.21096C13.0517 -0.0703199 13.5077 -0.0703199 13.789 0.21096C14.0703 0.49224 14.0703 0.948264 13.789 1.22972L1.22975 13.7887C1.08858 13.929 0.904162 14 0.719919 14Z" fill="#414B5B"/>
<path d="M13.2803 14C13.0958 14 12.9116 13.9299 12.7713 13.7887L0.210965 1.22972C-0.0703217 0.948264 -0.0703217 0.49224 0.210965 0.21096C0.492252 -0.0703199 0.948288 -0.0703199 1.22975 0.21096L13.789 12.7701C14.0703 13.0514 14.0703 13.5074 13.789 13.7887C13.6479 13.929 13.4636 14 13.2803 14Z" fill="#414B5B"/>
</svg>
