<svg width="44" height="44" viewBox="0 0 44 44" fill="none" xmlns="http://www.w3.org/2000/svg">
<path d="M26.2497 16.5C25.9802 16.5 25.7107 16.4212 25.476 16.2617L22 13.8967L18.524 16.2617C18.0528 16.5843 17.4295 16.5807 16.962 16.2507C16.4945 15.9243 16.2763 15.3413 16.4175 14.7858L17.512 10.472L14.2322 7.6725C13.805 7.30583 13.6418 6.71917 13.8233 6.1875C14.003 5.654 14.487 5.2855 15.048 5.2525L19.2005 5.01783L20.7112 0.902C20.9073 0.359333 21.4243 0 22 0C22.5757 0 23.0927 0.359333 23.2907 0.902L24.8013 5.01783L28.9538 5.2525C29.5148 5.2855 29.9988 5.654 30.1785 6.1875C30.3582 6.71917 30.1968 7.30583 29.7697 7.6725L26.4898 10.4738L27.5843 14.7877C27.7255 15.3432 27.5073 15.9243 27.0398 16.2525C26.8015 16.4175 26.5247 16.5 26.2497 16.5Z" fill="white"/>
<path d="M42.625 34.8333H33.9167V42.625C33.9167 43.1017 33.825 43.5783 33.6783 44H42.625C43.3767 44 44 43.3767 44 42.625V36.2083C44 35.4567 43.3767 34.8333 42.625 34.8333Z" fill="white"/>
<path d="M10.0833 31.1667H1.375C0.623333 31.1667 0 31.79 0 32.5417V42.625C0 43.3767 0.623333 44 1.375 44H10.3217C10.175 43.5783 10.0833 43.1017 10.0833 42.625V31.1667Z" fill="white"/>
<path d="M29.7917 20.1667H14.2083C13.4493 20.1667 12.8333 20.7827 12.8333 21.5417V42.625C12.8333 43.384 13.4493 44 14.2083 44H29.7917C30.5507 44 31.1667 43.384 31.1667 42.625V21.5417C31.1667 20.7827 30.5507 20.1667 29.7917 20.1667ZM23.375 35.2917C23.375 36.0507 22.759 36.6667 22 36.6667C21.241 36.6667 20.625 36.0507 20.625 35.2917V29.8998C20.3445 29.6487 20.1667 29.282 20.1667 28.875C20.1667 28.116 20.7827 27.5 21.5417 27.5H22C22.759 27.5 23.375 28.116 23.375 28.875V35.2917Z" fill="white"/>
</svg>
