<svg width="17" height="18" viewBox="0 0 17 18" fill="none" xmlns="http://www.w3.org/2000/svg">
<path d="M7.87191 6.0714L7.91796 5.80825L7.72481 5.6237L7.36528 5.28019L7.87158 5.20808L8.13018 5.17124L8.24766 4.93793L8.4834 4.46975L8.71914 4.93793L8.83661 5.17124L9.09521 5.20808L9.60152 5.28019L9.24199 5.6237L9.04884 5.80825L9.09488 6.0714L9.18193 6.56888L8.71243 6.32694L8.4834 6.20892L8.25436 6.32694L7.78486 6.56888L7.87191 6.0714ZM13.4092 1.55948L13.4042 2.06445H13.9092H16.5V2.22852C16.5 3.82911 16.0766 5.15754 15.2157 6.3181L15.2157 6.31811C14.4758 7.31571 13.5414 8.02291 12.6607 8.686L12.6607 8.686L12.6393 8.70211C12.1088 9.10161 11.586 9.49526 11.2105 9.9038L11.1943 9.92144L11.1798 9.94054C10.5495 10.774 9.77031 11.5001 8.85549 12.1037L8.63086 12.252V12.5211V13.6172V14.1172H9.13086H9.46289C10.8345 14.1172 11.9512 15.2339 11.9512 16.6055V16.7695H4.98242V16.6055C4.98242 15.2339 6.09911 14.1172 7.4707 14.1172H7.80273H8.30273V13.6172V12.5211V12.252L8.0781 12.1037C7.16165 11.4991 6.38141 10.7714 5.75045 9.93607L5.73609 9.91706L5.71998 9.8995C5.34843 9.49434 4.83582 9.10389 4.31516 8.70729L4.29586 8.6926C3.4247 8.02899 2.50054 7.32141 1.76903 6.32289C0.918744 5.16219 0.5 3.83216 0.5 2.22852V2.06445H3.02437H3.52937L3.52435 1.55948C3.52224 1.3478 3.52148 1.13894 3.52148 0.933594V0.769531H13.4121V0.933594C13.4121 1.13894 13.4114 1.3478 13.4092 1.55948ZM1.35668 2.39258H0.810515L0.858623 2.93662C1.06196 5.23614 2.24876 6.59693 3.48374 7.63491L4.84153 8.77612L4.2797 7.09377C4.2452 6.99048 4.21218 6.88833 4.18117 6.78599C3.78449 5.47647 3.62376 4.14346 3.56065 2.86787L3.53714 2.39258H3.06126H1.35668ZM10.9844 16.4414H11.7493L11.4424 15.7408C11.1092 14.9801 10.3485 14.4453 9.46289 14.4453H7.4707C6.58508 14.4453 5.82443 14.9801 5.49119 15.7408L5.18425 16.4414H5.94917H10.9844ZM10.9708 9.68071L10.9762 9.67477L10.9919 9.65355C12.7564 7.26062 13.0448 4.28822 13.0799 1.6042L13.0865 1.09766H12.5799H4.35366H3.84707L3.8537 1.6042C3.8888 4.28586 4.17659 7.25546 5.93709 9.64728L5.95276 9.66856L5.96343 9.68025L5.94756 9.6911L6.30661 10.1144C6.82316 10.7233 7.44386 11.2843 8.18842 11.7834L8.4668 11.97L8.74517 11.7834C9.48974 11.2843 10.1104 10.7233 10.627 10.1144L10.9861 9.69115L10.9708 9.68071ZM12.644 7.12316L12.0853 8.7804L13.4356 7.66894C14.7002 6.628 15.9315 5.26351 16.1408 2.93738L16.1898 2.39258H15.6428H13.8723H13.3964L13.3729 2.86788C13.3098 4.14346 13.1491 5.47647 12.7524 6.78597L12.7524 6.78599C12.7183 6.89849 12.682 7.01057 12.644 7.12316Z" fill="#B2BAC8" stroke="#B2BAC8"/>
</svg>
