<svg width="55" height="55" viewBox="0 0 55 55" fill="none" xmlns="http://www.w3.org/2000/svg">
<g clip-path="url(#clip0_11080_22907)">
<path d="M36.4931 14.6382C36.5893 14.3927 36.6122 14.1131 36.5227 13.8428C35.4918 10.7365 32.7187 8.65039 29.623 8.65039C26.5273 8.65039 23.7542 10.7365 22.7233 13.8428C22.6338 14.1131 22.6567 14.3927 22.753 14.6382H13.876V36.465C13.876 38.3055 15.2825 39.8027 17.0114 39.8027H42.2345C43.9635 39.8027 45.37 38.3055 45.37 36.465V14.6382H36.4931ZM24.6648 14.6382C24.6726 14.6181 24.6884 14.6046 24.6953 14.5839C25.4311 12.3663 27.4112 10.8756 29.623 10.8756C31.8347 10.8756 33.8148 12.3663 34.5507 14.5838C34.5584 14.6068 34.5808 14.6161 34.5897 14.6381H24.6648V14.6382Z" fill="#BBBBBB"/>
<path d="M44.3248 13.1006H14.9211C13.1921 13.1006 11.7856 14.5978 11.7856 16.4383V23.1138C11.7856 23.6419 12.1347 24.0971 12.6205 24.2036C13.0411 24.296 23.0622 26.4516 29.6229 26.4516C36.1837 26.4516 46.2048 24.2959 46.6254 24.2036C47.1112 24.0971 47.4603 23.6419 47.4603 23.1138V16.4383C47.4603 14.5978 46.0538 13.1006 44.3248 13.1006ZM31.7133 22.0013H27.5326C26.9549 22.0013 26.4875 21.5036 26.4875 20.8887C26.4875 20.2737 26.9549 19.7761 27.5326 19.7761H31.7133C32.291 19.7761 32.7584 20.2737 32.7584 20.8887C32.7584 21.5036 32.291 22.0013 31.7133 22.0013Z" fill="#D9D9D9"/>
<rect x="24.8809" y="19.6436" width="9.16669" height="2.61905" rx="1.30953" fill="#BBBBBB"/>
</g>
<path d="M45.629 41.0845L45.6291 41.0846C45.8987 41.3509 46.0335 41.7009 46.0335 42.0501C46.0335 42.3997 45.8987 42.7492 45.6292 43.0158L45.6289 43.0161C45.0899 43.5472 44.2179 43.5472 43.679 43.0156L40.4322 39.8129C39.5229 40.3446 38.4624 40.6508 37.3289 40.6508C33.9622 40.6508 31.2287 37.9577 31.2287 34.63C31.2287 31.3024 33.9622 28.6096 37.3289 28.6096C40.6957 28.6096 43.4289 31.3023 43.4289 34.63C43.4289 35.8489 43.0609 36.9823 42.4307 37.9296L45.629 41.0845ZM41.1174 34.63C41.1174 32.5703 39.4239 30.8957 37.3291 30.8957C35.2343 30.8957 33.5408 32.5703 33.5408 34.63C33.5408 36.6899 35.2343 38.3644 37.3291 38.3644C39.4239 38.3644 41.1174 36.6899 41.1174 34.63Z" fill="#D9D9D9" stroke="#D9D9D9" stroke-width="0.4"/>
<path d="M3.81348 30.7355C3.81348 28.502 5.62409 26.6914 7.85759 26.6914H19.4122C21.6457 26.6914 23.4563 28.502 23.4563 30.7355V42.2902C23.4563 44.5237 21.6457 46.3343 19.4122 46.3343H7.8576C5.62409 46.3343 3.81348 44.5237 3.81348 42.2902V30.7355Z" fill="#D9D9D9"/>
<path d="M13.7727 42.1893C12.035 42.1893 10.752 41.7375 9.92371 40.8339C9.1012 39.9303 8.68994 38.5257 8.68994 36.62C8.68994 32.9534 10.4103 31.1201 13.8509 31.1201C14.3201 31.1201 14.8125 31.1665 15.328 31.2591C15.8493 31.3518 16.2837 31.4821 16.6313 31.6501C16.9788 31.8123 17.1526 31.9948 17.1526 32.1975C17.1526 32.3423 17.0947 32.5335 16.9788 32.7709C16.863 33.0026 16.7268 33.2083 16.5704 33.3878C16.4141 33.5674 16.275 33.6572 16.1534 33.6572C16.1186 33.6572 16.0347 33.6282 15.9014 33.5703C15.6118 33.4544 15.3077 33.3589 14.9891 33.2836C14.6706 33.2025 14.2767 33.1619 13.8075 33.1619C12.8981 33.1619 12.2233 33.4515 11.7831 34.0308C11.3486 34.6042 11.1314 35.4731 11.1314 36.6374C11.1314 37.8016 11.3515 38.6792 11.7918 39.27C12.232 39.8608 12.8923 40.1562 13.7727 40.1562C14.2188 40.1562 14.6213 40.1186 14.9804 40.0433V38.0883H13.6163C13.4542 38.0883 13.3354 38.0275 13.2601 37.9059C13.1906 37.7842 13.1559 37.5873 13.1559 37.3151V36.8198C13.1559 36.5534 13.1906 36.3593 13.2601 36.2377C13.3354 36.116 13.4542 36.0552 13.6163 36.0552H16.7529C16.973 36.0552 17.1323 36.1045 17.2308 36.2029C17.3292 36.2956 17.3785 36.4491 17.3785 36.6634V40.9643C17.3785 41.4276 16.9904 41.7491 16.2142 41.9287C15.438 42.1025 14.6242 42.1893 13.7727 42.1893Z" fill="white"/>
<defs>
<clipPath id="clip0_11080_22907">
<rect width="35.3571" height="44.5238" fill="white" transform="translate(11.7856 5.23828)"/>
</clipPath>
</defs>
</svg>
