<svg width="18" height="19" viewBox="0 0 18 19" fill="none" xmlns="http://www.w3.org/2000/svg">
<path d="M8.96484 7.37147C9.35321 7.37147 9.66797 7.68625 9.66797 8.07464C9.66797 8.46302 9.35321 8.7778 8.96484 8.7778C8.57648 8.7778 8.26172 8.46302 8.26172 8.07464C8.26172 7.68625 8.57648 7.37147 8.96484 7.37147ZM11.4258 8.07464C11.4258 8.46302 11.7405 8.7778 12.1289 8.7778C12.5173 8.7778 12.832 8.46302 12.832 8.07464C12.832 7.68625 12.5173 7.37147 12.1289 7.37147C11.7405 7.37147 11.4258 7.68625 11.4258 8.07464ZM5.09766 8.07464C5.09766 8.46302 5.41241 8.7778 5.80078 8.7778C6.18915 8.7778 6.50391 8.46302 6.50391 8.07464C6.50391 7.68625 6.18915 7.37147 5.80078 7.37147C5.41241 7.37147 5.09766 7.68625 5.09766 8.07464ZM17.3817 14.669C18.2046 15.4919 18.2046 16.8301 17.3822 17.6526C16.971 18.0638 16.4307 18.2695 15.8906 18.2695C15.3505 18.2695 14.8103 18.0638 14.3991 17.6526L10.5393 13.8013C10.4573 13.7194 10.3969 13.6188 10.3633 13.5078L9.52254 10.7401C9.44797 10.4946 9.51292 10.2282 9.692 10.0446C9.87108 9.86111 10.1358 9.78969 10.383 9.85809L13.2209 10.6442C13.3378 10.6766 13.4442 10.7386 13.5301 10.8242L17.3817 14.669ZM11.6575 12.9303L16 17.2695L16.5 16.7695L17 16.2695L12.6674 11.9503L11.2397 11.5547L11.6575 12.9303ZM9.39111 14.8409C9.2612 14.8466 9.12964 14.8494 9 14.8494C7.86937 14.8494 6.7809 14.6389 5.76494 14.2237C5.5919 14.1531 5.39772 14.1542 5.22551 14.2269L2.02396 15.5784L3.10268 13.023C3.20815 12.7732 3.16049 12.4848 2.98004 12.2821C1.95049 11.1254 1.40625 9.74149 1.40625 8.28023C1.40625 4.63862 4.81284 1.67586 9 1.67586C13.1872 1.67586 16.5938 4.63862 16.5938 8.28023C16.5938 9.1438 16.3817 10.0108 15.9634 10.8569C15.7913 11.2051 15.934 11.6268 16.2822 11.7989C16.6303 11.971 17.052 11.8283 17.2241 11.4802C17.7389 10.4385 18 9.36189 18 8.28023C18 3.86308 13.9627 0.269531 9 0.269531C4.03748 0.269531 0 3.86308 0 8.28023C0 9.94749 0.565247 11.5265 1.63957 12.873L0.0553436 16.6259C-0.055893 16.8894 0.0037079 17.1942 0.205994 17.3965C0.340576 17.5311 0.52034 17.6025 0.703262 17.6025C0.79541 17.6025 0.888382 17.5844 0.976547 17.5471L5.50923 15.6336C6.61473 16.0466 7.78766 16.2558 9 16.2558C9.14996 16.2558 9.30226 16.2523 9.45264 16.2459C9.84059 16.2288 10.1413 15.9006 10.1243 15.5126C10.1074 15.1247 9.77852 14.8229 9.39111 14.8409Z" fill="#414B5B"/>
</svg>
