<svg width="55" height="55" viewBox="0 0 55 55" fill="none" xmlns="http://www.w3.org/2000/svg">
<path d="M43.9715 9.00599V23.5798C43.9715 26.0247 41.9822 28.0133 39.538 28.0133H25.6487C24.9986 28.0133 24.3746 28.2131 23.8447 28.5914L17.5299 33.0961C16.7723 33.6372 15.7144 33.095 15.7144 32.1612V12.2909C15.7144 9.84598 17.7029 7.85742 20.1478 7.85742H42.8229C43.4569 7.85742 43.9715 8.37198 43.9715 9.00599Z" fill="#E4E4E4"/>
<path d="M44.5242 9.00599V23.5798C44.5242 26.0247 42.5348 28.0133 40.0907 28.0133H31.2183V7.85742H43.3756C44.0096 7.85742 44.5242 8.37198 44.5242 9.00599Z" fill="#CCCCCC"/>
<path d="M38.392 15.2618C38.392 15.8966 37.8774 16.4104 37.2434 16.4104H23.9728C23.3388 16.4104 22.8242 15.8966 22.8242 15.2618C22.8242 14.6278 23.3388 14.1133 23.9728 14.1133H37.2434C37.8774 14.1133 38.392 14.6278 38.392 15.2618Z" fill="#F2F2F2"/>
<path d="M38.392 20.6212C38.392 21.256 37.8774 21.7698 37.2434 21.7698H23.9728C23.3388 21.7698 22.8242 21.256 22.8242 20.6212C22.8242 19.9872 23.3388 19.4727 23.9728 19.4727H37.2434C37.8774 19.4727 38.392 19.9872 38.392 20.6212Z" fill="#F2F2F2"/>
<path d="M33.0302 36.8906H30.7014C30.3812 36.8906 30.1191 37.1514 30.1191 37.4728V47.9525C30.1191 48.2738 30.3801 48.5346 30.7014 48.5346H33.0302C33.3515 48.5346 33.6124 48.2738 33.6124 47.9525V37.4728C33.6124 37.1514 33.3503 36.8906 33.0302 36.8906Z" fill="#CCCCCC"/>
<path d="M45.2832 36.8908C45.1895 36.875 40.7992 36.8908 40.7992 36.8908L41.4125 35.2179C41.8356 34.0624 41.5616 32.2982 40.3876 31.671C40.0054 31.4667 39.4713 31.3642 39.0407 31.4725C38.7937 31.5347 38.5767 31.6982 38.4473 31.9172C38.2986 32.1691 38.3139 32.4632 38.261 32.7426C38.1266 33.4511 37.7918 34.1247 37.2734 34.6303C36.3695 35.5119 33.5615 38.0552 33.5615 38.0552V47.3705H43.2649C44.5743 47.3713 45.4323 45.9091 44.7866 44.767C45.5563 44.274 45.8196 43.2355 45.3688 42.4382C46.1386 41.9452 46.4018 40.9067 45.951 40.1094C47.2792 39.2587 46.8351 37.1533 45.2832 36.8908Z" fill="#E4E4E4"/>
<path d="M3.81348 30.7355C3.81348 28.502 5.62409 26.6914 7.85759 26.6914H19.4122C21.6457 26.6914 23.4563 28.502 23.4563 30.7355V42.2901C23.4563 44.5236 21.6457 46.3343 19.4122 46.3343H7.8576C5.62409 46.3343 3.81348 44.5236 3.81348 42.2901V30.7355Z" fill="#D9D9D9"/>
<path d="M13.3037 42.0851C13.0546 42.0851 12.8577 42.0619 12.7129 42.0155C12.568 41.9634 12.4783 41.8794 12.4435 41.7636L9.10711 31.8326C9.06077 31.6936 9.0376 31.6009 9.0376 31.5546C9.0376 31.3229 9.35328 31.207 9.98465 31.207H10.4886C11.0041 31.207 11.3082 31.3605 11.4009 31.6675L13.4861 38.349L13.6599 38.8877H13.7207L13.8945 38.349L16.0319 31.6675C16.1361 31.3605 16.4431 31.207 16.9529 31.207H17.422C18.0418 31.207 18.3517 31.3229 18.3517 31.5546C18.3517 31.6588 18.3343 31.7515 18.2996 31.8326L14.9632 41.7636C14.9284 41.8794 14.8358 41.9634 14.6852 42.0155C14.5403 42.0619 14.3463 42.0851 14.103 42.0851H13.3037Z" fill="white"/>
</svg>
