<svg width="78" height="78" viewBox="0 0 78 78" fill="none" xmlns="http://www.w3.org/2000/svg">
<rect x="0.428711" width="77.1429" height="77.1429" rx="38.5714" fill="url(#paint0_linear)"/>
<path d="M44.3571 31.2854C44.1261 31.2854 43.8951 31.2179 43.694 31.0812L40.7146 29.054L37.7351 31.0812C37.3313 31.3577 36.797 31.3546 36.3963 31.0717C35.9956 30.792 35.8086 30.2923 35.9296 29.8161L36.8677 26.1186L34.0564 23.719C33.6903 23.4047 33.5504 22.9019 33.706 22.4461C33.86 21.9889 34.2749 21.673 34.7557 21.6447L38.315 21.4436L39.6099 17.9157C39.778 17.4506 40.2211 17.1426 40.7146 17.1426C41.208 17.1426 41.6511 17.4506 41.8209 17.9157L43.1157 21.4436L46.675 21.6447C47.1559 21.673 47.5707 21.9889 47.7247 22.4461C47.8787 22.9019 47.7404 23.4047 47.3743 23.719L44.563 26.1201L45.5011 29.8177C45.6221 30.2939 45.4351 30.792 45.0344 31.0733C44.8301 31.2147 44.5928 31.2854 44.3571 31.2854Z" fill="white"/>
<path d="M58.3931 46.9997H50.9289V53.6783C50.9289 54.0869 50.8503 54.4954 50.7246 54.8569H58.3931C59.0374 54.8569 59.5717 54.3226 59.5717 53.6783V48.1783C59.5717 47.534 59.0374 46.9997 58.3931 46.9997Z" fill="white"/>
<path d="M30.5003 43.8569H23.036C22.3917 43.8569 21.8574 44.3911 21.8574 45.0354V53.6783C21.8574 54.3226 22.3917 54.8569 23.036 54.8569H30.7046C30.5789 54.4954 30.5003 54.0869 30.5003 53.6783V43.8569Z" fill="white"/>
<path d="M47.3931 34.4283H34.036C33.3854 34.4283 32.8574 34.9563 32.8574 35.6069V53.6783C32.8574 54.3289 33.3854 54.8569 34.036 54.8569H47.3931C48.0437 54.8569 48.5717 54.3289 48.5717 53.6783V35.6069C48.5717 34.9563 48.0437 34.4283 47.3931 34.4283ZM41.8931 47.3926C41.8931 48.0432 41.3651 48.5712 40.7146 48.5712C40.064 48.5712 39.536 48.0432 39.536 47.3926V42.771C39.2956 42.5557 39.1431 42.2414 39.1431 41.8926C39.1431 41.242 39.6711 40.714 40.3217 40.714H40.7146C41.3651 40.714 41.8931 41.242 41.8931 41.8926V47.3926Z" fill="white"/>
<defs>
<linearGradient id="paint0_linear" x1="39.0001" y1="77.1429" x2="39.0001" y2="5.12285e-07" gradientUnits="userSpaceOnUse">
<stop stop-color="#217FDC"/>
<stop offset="1" stop-color="#4795E1"/>
</linearGradient>
</defs>
</svg>
