<svg width="19" height="19" viewBox="0 0 19 19" fill="none" xmlns="http://www.w3.org/2000/svg">
<path d="M18.2578 13.0625C18.6677 13.0625 19 12.7302 19 12.3203V4.45312C19 2.81616 17.6682 1.48438 16.0312 1.48438H15.0664V0.742188C15.0664 0.332277 14.7341 0 14.3242 0C13.9143 0 13.582 0.332277 13.582 0.742188V1.48438H10.2051V0.742188C10.2051 0.332277 9.8728 0 9.46289 0C9.05298 0 8.7207 0.332277 8.7207 0.742188V1.48438H5.38086V0.742188C5.38086 0.332277 5.04858 0 4.63867 0C4.22876 0 3.89648 0.332277 3.89648 0.742188V1.48438H2.96875C1.33178 1.48438 0 2.81616 0 4.45312V16.0312C0 17.6682 1.33178 19 2.96875 19H16.0312C17.6682 19 19 17.6682 19 16.0312C19 15.6213 18.6677 15.2891 18.2578 15.2891C17.8479 15.2891 17.5156 15.6213 17.5156 16.0312C17.5156 16.8497 16.8497 17.5156 16.0312 17.5156H2.96875C2.15027 17.5156 1.48438 16.8497 1.48438 16.0312V4.45312C1.48438 3.63464 2.15027 2.96875 2.96875 2.96875H3.89648V3.71094C3.89648 4.12085 4.22876 4.45312 4.63867 4.45312C5.04858 4.45312 5.38086 4.12085 5.38086 3.71094V2.96875H8.7207V3.71094C8.7207 4.12085 9.05298 4.45312 9.46289 4.45312C9.8728 4.45312 10.2051 4.12085 10.2051 3.71094V2.96875H13.582V3.71094C13.582 4.12085 13.9143 4.45312 14.3242 4.45312C14.7341 4.45312 15.0664 4.12085 15.0664 3.71094V2.96875H16.0312C16.8497 2.96875 17.5156 3.63464 17.5156 4.45312V12.3203C17.5156 12.7302 17.8479 13.0625 18.2578 13.0625Z" fill="#8794A8"/>
<path d="M12.793 7.76914L9.13473 12.8791C9.03483 12.995 8.90963 13.02 8.84253 13.0244C8.77344 13.0293 8.63943 13.0202 8.52447 12.9108L6.15615 10.6367C5.86035 10.3527 5.39054 10.3623 5.10677 10.658C4.82288 10.9536 4.83238 11.4235 5.12803 11.7073L7.49873 13.9837C7.85379 14.3217 8.32775 14.5097 8.81533 14.5097C8.85723 14.5097 8.89924 14.5083 8.94124 14.5055C9.47243 14.4701 9.9684 14.2118 10.3019 13.7968C10.3105 13.7861 10.3188 13.7751 10.3269 13.7639L14 8.63316C14.2386 8.29988 14.1618 7.83624 13.8285 7.59766C13.4952 7.35909 13.0316 7.43583 12.793 7.76914Z" fill="#8794A8"/>
</svg>
