<svg width="13" height="17" viewBox="0 0 13 17" fill="none" xmlns="http://www.w3.org/2000/svg">
<path d="M2.35179 12.9627C2.23934 12.9627 2.1526 12.9364 2.09156 12.8838C2.03052 12.8313 2 12.7566 2 12.6598V10.3402C2 10.2434 2.03052 10.1687 2.09156 10.1162C2.1526 10.0636 2.23934 10.0373 2.35179 10.0373H3.32041C3.68987 10.0373 4.00792 10.0954 4.27457 10.2116C4.54122 10.3278 4.74523 10.4952 4.88659 10.7137C5.02795 10.9322 5.09862 11.1936 5.09862 11.4979C5.09862 11.8022 5.02795 12.065 4.88659 12.2863C4.74844 12.5048 4.54604 12.6722 4.27939 12.7884C4.01274 12.9046 3.69308 12.9627 3.32041 12.9627H2.35179ZM3.2674 12.4398C3.99025 12.4398 4.35168 12.1259 4.35168 11.4979C4.35168 10.8728 3.99025 10.5602 3.2674 10.5602H2.75177V12.4398H3.2674Z" fill="#4DA234"/>
<path d="M7.14042 13C6.80308 13 6.50913 12.9391 6.25854 12.8174C6.01116 12.6929 5.82001 12.5187 5.68507 12.2946C5.55014 12.0678 5.48268 11.8022 5.48268 11.4979C5.48268 11.1936 5.55014 10.9295 5.68507 10.7054C5.82001 10.4786 6.01116 10.3043 6.25854 10.1826C6.50913 10.0609 6.80308 10 7.14042 10C7.47775 10 7.7701 10.0609 8.01748 10.1826C8.26806 10.3043 8.46082 10.4786 8.59576 10.7054C8.73069 10.9295 8.79816 11.1936 8.79816 11.4979C8.79816 11.8022 8.73069 12.0678 8.59576 12.2946C8.46082 12.5187 8.26806 12.6929 8.01748 12.8174C7.7701 12.9391 7.47775 13 7.14042 13ZM7.14042 12.4979C7.42313 12.4979 7.6448 12.4122 7.80544 12.2407C7.96929 12.0692 8.05121 11.8216 8.05121 11.4979C8.05121 11.1743 7.97089 10.9281 7.81026 10.7593C7.64962 10.5878 7.42634 10.5021 7.14042 10.5021C6.85449 10.5021 6.63121 10.5878 6.47057 10.7593C6.31315 10.9281 6.23444 11.1743 6.23444 11.4979C6.23444 11.8216 6.31476 12.0692 6.47539 12.2407C6.63603 12.4122 6.8577 12.4979 7.14042 12.4979Z" fill="#4DA234"/>
<path d="M10.8371 13C10.503 13 10.2107 12.9391 9.96006 12.8174C9.70948 12.6957 9.51671 12.5214 9.38178 12.2946C9.24685 12.0678 9.17938 11.8022 9.17938 11.4979C9.17938 11.1936 9.24685 10.9295 9.38178 10.7054C9.51671 10.4786 9.70948 10.3043 9.96006 10.1826C10.2107 10.0609 10.503 10 10.8371 10C11.258 10 11.621 10.0996 11.9262 10.2988C11.9744 10.332 12.0081 10.3651 12.0274 10.3983C12.0467 10.4315 12.0563 10.473 12.0563 10.5228C12.0563 10.5947 12.0322 10.657 11.984 10.7095C11.9391 10.7593 11.8828 10.7842 11.8154 10.7842C11.7704 10.7842 11.7302 10.7801 11.6949 10.7718C11.6628 10.7607 11.6258 10.7427 11.5841 10.7178C11.4556 10.6459 11.3367 10.5947 11.2275 10.5643C11.1182 10.5311 11.001 10.5145 10.8757 10.5145C10.5673 10.5145 10.3343 10.5975 10.1769 10.7635C10.0227 10.9267 9.94561 11.1715 9.94561 11.4979C9.94561 12.1563 10.2556 12.4855 10.8757 12.4855C10.9945 12.4855 11.107 12.4703 11.213 12.4398C11.319 12.4066 11.4427 12.3541 11.5841 12.2822C11.6323 12.2573 11.6724 12.2407 11.7045 12.2324C11.7367 12.2213 11.7736 12.2158 11.8154 12.2158C11.8828 12.2158 11.9391 12.242 11.984 12.2946C12.0322 12.3444 12.0563 12.4053 12.0563 12.4772C12.0563 12.527 12.0451 12.5698 12.0226 12.6058C12.0033 12.639 11.9712 12.6708 11.9262 12.7012C11.621 12.9004 11.258 13 10.8371 13Z" fill="#4DA234"/>
<path d="M11.9998 7.28583V4.85729C12.0019 4.7775 11.9869 4.69819 11.9559 4.62482C11.9248 4.55146 11.8784 4.48577 11.8198 4.4323L7.61987 0.182347C7.56705 0.123057 7.50215 0.0760683 7.42964 0.0446227C7.35713 0.0131771 7.27874 -0.00197673 7.19988 0.000206451H1.19998C0.882018 0.00116738 0.57735 0.129408 0.352515 0.35692C0.127681 0.584432 0.000949621 0.892728 0 1.21448V15.7857C0 16.1078 0.126426 16.4166 0.351466 16.6443C0.576506 16.8721 0.881726 17 1.19998 17H10.7998V15.7857H1.19998V1.21448H5.9999V4.85729C6.00085 5.17904 6.12758 5.48734 6.35242 5.71485C6.57725 5.94236 6.88192 6.0706 7.19988 6.07156H10.7998V7.28583H11.9998ZM7.19988 4.85729V1.45733L10.5598 4.85729H7.19988Z" fill="#4DA234"/>
</svg>
