<svg width="15" height="16" viewBox="0 0 15 16" fill="none" xmlns="http://www.w3.org/2000/svg">
<path d="M7.40299 2.60695e-08C8.0584 -9.22581e-05 8.69017 0.244828 9.17425 0.686672C9.65833 1.12852 9.95976 1.73536 10.0193 2.38806H14.0896C14.2711 2.38812 14.4458 2.45707 14.5784 2.58099C14.7111 2.70491 14.7917 2.87455 14.8041 3.05565C14.8165 3.23674 14.7596 3.41578 14.6451 3.55658C14.5305 3.69739 14.3668 3.78947 14.187 3.81421L14.0896 3.8209H13.5327L12.3224 14.3093C12.2685 14.7748 12.0453 15.2043 11.6954 15.5161C11.3454 15.8278 10.893 16.0001 10.4244 16H4.38161C3.91293 16.0001 3.46058 15.8278 3.11061 15.5161C2.76064 15.2043 2.53748 14.7748 2.48358 14.3093L1.27236 3.8209H0.716418C0.543295 3.82089 0.376031 3.75819 0.245559 3.6444C0.115086 3.53061 0.0302312 3.37342 0.00668654 3.20191L0 3.10448C7.30068e-06 2.93135 0.0627034 2.76409 0.176494 2.63362C0.290284 2.50315 0.447471 2.41829 0.618985 2.39475L0.716418 2.38806H4.78663C4.84621 1.73536 5.14764 1.12852 5.63172 0.686672C6.1158 0.244828 6.74757 -9.22581e-05 7.40299 2.60695e-08ZM5.97015 5.97015C5.73612 5.97015 5.5403 6.11821 5.50018 6.31307L5.49254 6.38854V12.2393L5.50018 12.3138C5.5403 12.5087 5.73612 12.6567 5.97015 12.6567C6.20418 12.6567 6.4 12.5087 6.44012 12.3138L6.44776 12.2383V6.38949L6.44012 6.31307C6.4 6.11916 6.20418 5.97015 5.97015 5.97015ZM8.83582 5.97015C8.60179 5.97015 8.40597 6.11821 8.36585 6.31307L8.35821 6.38854V12.2393L8.36585 12.3138C8.40597 12.5087 8.60179 12.6567 8.83582 12.6567C9.06985 12.6567 9.26567 12.5087 9.30579 12.3138L9.31343 12.2383V6.38949L9.30579 6.31307C9.26567 6.11916 9.06985 5.9711 8.83582 5.9711V5.97015ZM7.40299 1.43284C6.82507 1.43284 6.34269 1.84358 6.23284 2.38806H8.57314C8.46233 1.84358 7.9809 1.43284 7.40299 1.43284Z" fill="#ED0131"/>
</svg>
