<svg width="16" height="16" viewBox="0 0 16 16" fill="none" xmlns="http://www.w3.org/2000/svg">
<path d="M13.6181 4.38584H14.4C14.7688 4.38584 15.075 4.10205 15.075 3.74326C15.075 3.38447 14.7688 3.10069 14.4 3.10069H11.2749V1.94593C11.275 1.37905 10.7888 0.925 10.2 0.925H5.79999C5.21114 0.925 4.72498 1.37905 4.72498 1.94596V3.10069H1.60001C1.23116 3.10069 0.925 3.38447 0.925 3.74326C0.925 4.10205 1.23116 4.38584 1.60001 4.38584H2.3821L3.28834 14.1554L3.28844 14.1564C3.3434 14.6752 3.81653 15.075 4.36 15.075H11.64C12.1836 15.075 12.6566 14.6751 12.7124 14.1496L12.7125 14.1486L13.6181 4.38584ZM9.92495 3.10069H6.07497V2.21012H9.92495V3.10069ZM4.60955 13.7899L3.73732 4.38584H12.2628L11.3904 13.7899H4.60955ZM6.5 5.925C6.18244 5.925 5.925 6.18244 5.925 6.5V10.5C5.925 10.8176 6.18244 11.075 6.5 11.075C6.81756 11.075 7.075 10.8176 7.075 10.5V6.5C7.075 6.18244 6.81756 5.925 6.5 5.925ZM9.5 5.925C9.18244 5.925 8.925 6.18244 8.925 6.5V10.5C8.925 10.8176 9.18244 11.075 9.5 11.075C9.81756 11.075 10.075 10.8176 10.075 10.5V6.5C10.075 6.18244 9.81756 5.925 9.5 5.925Z" fill="#B2BAC8" stroke="#B2BAC8" stroke-width="0.15"/>
</svg>
