<svg width="12" height="17" viewBox="0 0 12 17" fill="none" xmlns="http://www.w3.org/2000/svg">
<path d="M11.9998 7.28583V4.85729C12.0019 4.7775 11.9869 4.69819 11.9559 4.62482C11.9248 4.55146 11.8784 4.48577 11.8198 4.4323L7.61987 0.182347C7.56705 0.123057 7.50215 0.0760683 7.42964 0.0446227C7.35713 0.0131771 7.27874 -0.00197673 7.19988 0.000206451H1.19998C0.882018 0.00116738 0.57735 0.129408 0.352515 0.35692C0.127681 0.584432 0.000949621 0.892728 0 1.21448V15.7857C0 16.1078 0.126426 16.4166 0.351466 16.6443C0.576506 16.8721 0.881726 17 1.19998 17H10.7998V15.7857H1.19998V1.21448H5.9999V4.85729C6.00085 5.17904 6.12758 5.48734 6.35242 5.71485C6.57725 5.94236 6.88192 6.0706 7.19988 6.07156H10.7998V7.28583H11.9998ZM7.19988 4.85729V1.45733L10.5598 4.85729H7.19988Z" fill="#4DA234"/>
<path d="M2.41898 13C2.29006 13 2.188 12.9705 2.1128 12.9114C2.0376 12.8523 2 12.7722 2 12.6709V10.308C2 10.2096 2.03402 10.1336 2.10206 10.0802C2.1701 10.0267 2.26679 10 2.39212 10H3.74038C4.1522 10 4.4727 10.0816 4.70188 10.2447C4.93107 10.4079 5.04566 10.6357 5.04566 10.9283C5.04566 11.2208 4.93107 11.4487 4.70188 11.6118C4.4727 11.775 4.1522 11.8565 3.74038 11.8565H2.83796V12.6709C2.83796 12.7722 2.80036 12.8523 2.72516 12.9114C2.64996 12.9705 2.5479 13 2.41898 13ZM3.63295 11.3586C4.05193 11.3586 4.26142 11.2166 4.26142 10.9325C4.26142 10.6456 4.05193 10.5021 3.63295 10.5021H2.83796V11.3586H3.63295Z" fill="#4DA234"/>
<path d="M5.819 12.9747C5.69366 12.9747 5.59697 12.948 5.52893 12.8945C5.46089 12.8411 5.42687 12.7651 5.42687 12.6667V10.308C5.42687 10.2096 5.46089 10.1336 5.52893 10.0802C5.59697 10.0267 5.69366 10 5.819 10H6.89867C7.31049 10 7.66501 10.0591 7.96224 10.1772C8.25946 10.2954 8.48686 10.4655 8.64442 10.6878C8.80199 10.91 8.88077 11.1758 8.88077 11.4852C8.88077 11.7947 8.80199 12.0619 8.64442 12.2869C8.49044 12.5091 8.26484 12.6793 7.96761 12.7975C7.67039 12.9156 7.31407 12.9747 6.89867 12.9747H5.819ZM6.83959 12.443C7.64532 12.443 8.04818 12.1238 8.04818 11.4852C8.04818 10.8495 7.64532 10.5316 6.83959 10.5316H6.26483V12.443H6.83959Z" fill="#4DA234"/>
<path d="M9.78155 13C9.65622 13 9.55416 12.9705 9.47538 12.9114C9.40017 12.8495 9.36257 12.7693 9.36257 12.6709V10.308C9.36257 10.2096 9.39659 10.1336 9.46463 10.0802C9.53267 10.0267 9.62936 10 9.7547 10H11.6025C11.7386 10 11.8389 10.0211 11.9033 10.0633C11.9678 10.1055 12 10.1716 12 10.2616C12 10.3488 11.9678 10.4135 11.9033 10.4557C11.8389 10.4979 11.7386 10.519 11.6025 10.519H10.1898V11.2025H11.4951C11.6312 11.2025 11.7314 11.2236 11.7959 11.2658C11.8603 11.308 11.8926 11.3741 11.8926 11.4641C11.8926 11.5513 11.8603 11.616 11.7959 11.6582C11.7314 11.7004 11.6312 11.7215 11.4951 11.7215H10.1898V12.6709C10.1898 12.7722 10.1522 12.8523 10.077 12.9114C10.0054 12.9705 9.90689 13 9.78155 13Z" fill="#4DA234"/>
</svg>
