<svg width="20" height="22" viewBox="0 0 20 22" fill="none" xmlns="http://www.w3.org/2000/svg">
<path fill-rule="evenodd" clip-rule="evenodd" d="M4.13876 1.46667C2.74398 1.46667 1.57895 2.54928 1.57895 3.89231V16.2327C2.07557 15.954 2.66286 15.7949 3.30144 15.7949H18.4211V1.46667H12.4641V10.2103C12.4641 10.489 12.294 10.7436 12.0251 10.8674C11.7562 10.9911 11.4351 10.9626 11.1963 10.7937L8.32536 8.76279L5.45439 10.7937C5.21565 10.9626 4.8945 10.9911 4.62561 10.8674C4.35672 10.7436 4.1866 10.489 4.1866 10.2103V1.46667H4.13876ZM4.13876 0C1.84932 0 0 1.76046 0 3.89231V18.8974C0 20.6344 1.43066 22 3.30144 22H19.2105C19.6465 22 20 21.6717 20 21.2667V0.733333C20 0.328325 19.6465 0 19.2105 0H4.13876ZM5.76555 1.46667V8.73003L7.84705 7.25761C8.12962 7.05772 8.5211 7.05772 8.80367 7.25761L10.8852 8.73003V1.46667H5.76555ZM18.4211 17.2615H3.30144C2.32532 17.2615 1.57895 17.9493 1.57895 18.8974C1.57895 19.8456 2.32532 20.5333 3.30144 20.5333H18.4211V17.2615Z" fill="#C1C9D2"/>
</svg>
