<svg width="16" height="16" viewBox="0 0 16 16" fill="none" xmlns="http://www.w3.org/2000/svg">
<path d="M8 0C3.58862 0 0 3.58862 0 8C0 12.4114 3.58862 16 8 16C12.4114 16 16 12.4114 16 8C16 3.58862 12.4114 0 8 0Z" fill="#5AA6FF"/>
<path d="M12.0547 6.3042L7.72131 10.6375C7.59131 10.7675 7.42065 10.8329 7.25 10.8329C7.07935 10.8329 6.90869 10.7675 6.77869 10.6375L4.61206 8.47083C4.35132 8.21021 4.35132 7.78882 4.61206 7.5282C4.87268 7.26746 5.29395 7.26746 5.55469 7.5282L7.25 9.22351L11.1121 5.36157C11.3727 5.10083 11.7939 5.10083 12.0547 5.36157C12.3153 5.62219 12.3153 6.04346 12.0547 6.3042Z" fill="#FAFAFA"/>
</svg>
