<svg width="12" height="17" viewBox="0 0 12 17" fill="none" xmlns="http://www.w3.org/2000/svg">
<path d="M11.9998 7.28583V4.85729C12.0019 4.7775 11.9869 4.69819 11.9559 4.62482C11.9248 4.55146 11.8784 4.48577 11.8198 4.4323L7.61987 0.182347C7.56705 0.123057 7.50215 0.0760683 7.42964 0.0446227C7.35713 0.0131771 7.27874 -0.00197673 7.19988 0.000206451H1.19998C0.882018 0.00116738 0.57735 0.129408 0.352515 0.35692C0.127681 0.584432 0.000949621 0.892728 0 1.21448V15.7857C0 16.1078 0.126426 16.4166 0.351466 16.6443C0.576506 16.8721 0.881726 17 1.19998 17H10.7998V15.7857H1.19998V1.21448H5.9999V4.85729C6.00085 5.17904 6.12758 5.48734 6.35242 5.71485C6.57725 5.94236 6.88192 6.0706 7.19988 6.07156H10.7998V7.28583H11.9998ZM7.19988 4.85729V1.45733L10.5598 4.85729H7.19988Z" fill="#4DA234"/>
<path d="M10.4428 15C10.9372 14.5409 11.3292 13.9954 11.5965 13.3947C11.8637 12.7941 12.0009 12.1502 12 11.5C12.0009 10.8498 11.8637 10.2059 11.5965 9.60529C11.3292 9.00464 10.9372 8.45909 10.4428 8L10 8.41173C10.4362 8.81682 10.7822 9.29819 11.018 9.82818C11.2538 10.3582 11.3748 10.9263 11.374 11.5C11.374 12.7061 10.8487 13.798 10 14.5883L10.4428 15Z" fill="#4DA234"/>
<path d="M9.54155 14C10.0046 13.6721 10.3718 13.2824 10.6221 12.8533C10.8724 12.4243 11.0008 11.9644 11 11.5C11.0008 11.0356 10.8724 10.5757 10.6221 10.1467C10.3718 9.71762 10.0046 9.32794 9.54155 9L9 9.38457C9.39179 9.66207 9.7025 9.99181 9.91427 10.3548C10.126 10.7179 10.2347 11.107 10.234 11.5C10.2349 11.893 10.1264 12.2823 9.91477 12.6454C9.70313 13.0085 9.39251 13.3384 9.00077 13.616L9.54155 14Z" fill="#4DA234"/>
<path d="M9.12377 13.2681C9.40198 13.0361 9.62262 12.7606 9.77299 12.4571C9.92336 12.1537 10.0005 11.8285 10 11.5C10.0005 11.1716 9.92336 10.8464 9.77299 10.543C9.62262 10.2395 9.40198 9.96394 9.12377 9.73202L8.65374 10.1249C8.87013 10.3052 9.04172 10.5196 9.15867 10.7556C9.27561 10.9916 9.3356 11.2446 9.33518 11.5C9.33556 11.7555 9.27556 12.0085 9.15862 12.2445C9.04168 12.4805 8.8701 12.6948 8.65374 12.8752L9.12377 13.2681ZM7.80077 9.02747C7.85709 9.05015 7.90462 9.08564 7.9379 9.12986C7.97118 9.17409 7.98886 9.22526 7.98892 9.27751V13.7226C7.98883 13.7749 7.97109 13.826 7.93775 13.8703C7.90441 13.9145 7.85681 13.95 7.80043 13.9726C7.74404 13.9952 7.68116 14.0041 7.61901 13.9982C7.55686 13.9923 7.49796 13.9719 7.44908 13.9393L5.87812 12.8891H4.33241C4.24425 12.8891 4.1597 12.8599 4.09736 12.8078C4.03502 12.7557 4 12.685 4 12.6113V10.3888C4 10.3151 4.03502 10.2444 4.09736 10.1923C4.1597 10.1402 4.24425 10.111 4.33241 10.111H5.87812L7.44908 9.06081C7.498 9.02813 7.55696 9.00767 7.61918 9.00177C7.6814 8.99587 7.74435 9.00478 7.80077 9.02747Z" fill="#4DA234"/>
</svg>
