<svg width="12" height="15" viewBox="0 0 12 15" fill="none" xmlns="http://www.w3.org/2000/svg">
<path d="M6.70057 7.45145L5.37443 9.11216L4.67386 8.23493C4.66111 8.21893 4.64481 8.20598 4.6262 8.19708C4.6076 8.18817 4.58717 8.18355 4.56648 8.18355C4.54578 8.18355 4.52536 8.18817 4.50675 8.19708C4.48814 8.20598 4.47185 8.21893 4.45909 8.23493L2.75795 10.3644C2.74222 10.3841 2.73245 10.4078 2.72977 10.4328C2.7271 10.4577 2.73162 10.4829 2.74282 10.5054C2.75402 10.5279 2.77146 10.5469 2.79312 10.5602C2.81479 10.5734 2.83981 10.5804 2.86534 10.5804H9.13636C9.25057 10.5804 9.31364 10.4515 9.24375 10.3644L6.91705 7.45145C6.90412 7.43542 6.88767 7.42247 6.86892 7.41356C6.85018 7.40466 6.82963 7.40003 6.80881 7.40003C6.78799 7.40003 6.76743 7.40466 6.74869 7.41356C6.72995 7.42247 6.71349 7.43542 6.70057 7.45145ZM3.40909 6.32812C3.40909 6.50572 3.48093 6.67605 3.60879 6.80163C3.73666 6.92722 3.91008 6.99777 4.09091 6.99777C4.27174 6.99777 4.44516 6.92722 4.57303 6.80163C4.70089 6.67605 4.77273 6.50572 4.77273 6.32812C4.77273 6.15052 4.70089 5.9802 4.57303 5.85462C4.44516 5.72903 4.27174 5.65848 4.09091 5.65848C3.91008 5.65848 3.73666 5.72903 3.60879 5.85462C3.48093 5.9802 3.40909 6.15052 3.40909 6.32812ZM11.8398 3.76004L8.17159 0.157366C8.06932 0.0569197 7.93125 0 7.78636 0H0.545455C0.24375 0 0 0.239397 0 0.535714V14.4643C0 14.7606 0.24375 15 0.545455 15H11.4545C11.7563 15 12 14.7606 12 14.4643V4.14007C12 3.99777 11.942 3.86049 11.8398 3.76004ZM10.742 4.38616H7.53409V1.23549L10.742 4.38616ZM10.7727 13.7946H1.22727V1.20536H6.375V4.82143C6.375 5.00791 6.45043 5.18675 6.58469 5.31861C6.71894 5.45047 6.90104 5.52455 7.09091 5.52455H10.7727V13.7946Z" fill="#4DA234"/>
</svg>
