<svg width="21" height="21" viewBox="0 0 21 21" fill="none" xmlns="http://www.w3.org/2000/svg">
<rect x="11.8887" y="7.07129" width="9" height="11.6839" rx="2" transform="rotate(14.0325 11.8887 7.07129)" fill="#89C989"/>
<path d="M17.4133 4.74609L13.9518 3.69141L12.9628 0H6.03967C5.22034 0 4.55615 0.708293 4.55615 1.58203V16.418C4.55615 17.2917 5.22034 18 6.03967 18H15.9298C16.7491 18 17.4133 17.2917 17.4133 16.418V4.74609Z" fill="#40A440"/>
<path d="M17.4131 5.14286H13.9131C13.3631 5.14286 12.9131 4.62857 12.9131 4V0C13.0431 0 13.1731 0.0571429 13.2631 0.171467L17.263 4.7429C17.3631 4.84571 17.4131 4.99429 17.4131 5.14286Z" fill="#89C989"/>
<path d="M13.6938 8.35701H7.63254C7.35336 8.35701 7.12744 8.06948 7.12744 7.71415C7.12744 7.35882 7.35336 7.07129 7.63254 7.07129H13.6938C13.973 7.07129 14.1989 7.35882 14.1989 7.71415C14.1989 8.06948 13.973 8.35701 13.6938 8.35701Z" fill="white"/>
<path d="M15.6686 12.2144H10.1584C9.9046 12.2144 9.69922 11.9269 9.69922 11.5716C9.69922 11.2162 9.9046 10.9287 10.1584 10.9287H15.6686C15.9224 10.9287 16.1278 11.2162 16.1278 11.5716C16.1278 11.9269 15.9224 12.2144 15.6686 12.2144Z" fill="white"/>
<path d="M12.9131 12.2144H15.6682C15.922 12.2144 16.1274 11.9269 16.1274 11.5716C16.1274 11.2162 15.922 10.9287 15.6682 10.9287H12.9131V12.2144Z" fill="white"/>
<path d="M10.3418 8.35701H13.6479C13.9525 8.35701 14.1989 8.06948 14.1989 7.71415C14.1989 7.35882 13.9525 7.07129 13.6479 7.07129H10.3418V8.35701Z" fill="white"/>
<path d="M0 11.874C0 10.7775 0.888846 9.88867 1.98529 9.88867H7.65756C8.75401 9.88867 9.64286 10.7775 9.64286 11.874V17.5462C9.64286 18.6427 8.75401 19.5315 7.65756 19.5315H1.9853C0.888848 19.5315 0 18.6427 0 17.5462V11.874Z" fill="#89C989"/>
<path d="M3.35801 17.433C3.2528 17.433 3.17603 17.4088 3.12769 17.3605C3.07935 17.3121 3.05518 17.2354 3.05518 17.1301V12.4255C3.05518 12.3203 3.07935 12.245 3.12769 12.1995C3.17603 12.1511 3.2528 12.127 3.35801 12.127H6.1347C6.21432 12.127 6.27119 12.1568 6.30531 12.2165C6.34228 12.2762 6.36076 12.3729 6.36076 12.5066V12.7369C6.36076 12.8705 6.34228 12.9672 6.30531 13.0269C6.27119 13.0866 6.21432 13.1165 6.1347 13.1165H4.22386V14.2169H5.92997C6.00959 14.2169 6.06646 14.2468 6.10058 14.3065C6.13755 14.3662 6.15603 14.4629 6.15603 14.5966V14.8312C6.15603 14.9648 6.13755 15.0615 6.10058 15.1212C6.06646 15.1809 6.00959 15.2108 5.92997 15.2108H4.22386V16.4392H6.13897C6.21859 16.4392 6.27546 16.469 6.30958 16.5287C6.34654 16.5885 6.36503 16.6837 6.36503 16.8145V17.0534C6.36503 17.187 6.34654 17.2837 6.30958 17.3434C6.27546 17.4031 6.21859 17.433 6.13897 17.433H3.35801Z" fill="white"/>
</svg>
