<svg width="55" height="55" viewBox="0 0 55 55" fill="none" xmlns="http://www.w3.org/2000/svg">
<g clip-path="url(#clip0_11080_22880)">
<rect x="28.0317" y="20.9531" width="18.3333" height="23.8006" rx="2" transform="rotate(14.0325 28.0317 20.9531)" fill="#D9D9D9"/>
<path d="M39.2857 16.2158L32.2344 14.0674L30.2198 6.54785H16.1172C14.4482 6.54785 13.0952 7.99067 13.0952 9.77051V39.9919C13.0952 41.7717 14.4482 43.2145 16.1172 43.2145H36.2637C37.9327 43.2145 39.2857 41.7717 39.2857 39.9919V16.2158Z" fill="#BBBBBB"/>
<path d="M39.2858 17.024H32.1562C31.0358 17.024 30.1191 15.9764 30.1191 14.696V6.54785C30.384 6.54785 30.6488 6.66425 30.832 6.89714L38.9802 16.2093C39.1839 16.4187 39.2858 16.7214 39.2858 17.024Z" fill="#D9D9D9"/>
<path d="M31.7093 23.5722H19.3624C18.7937 23.5722 18.3335 22.9865 18.3335 22.2627C18.3335 21.5388 18.7937 20.9531 19.3624 20.9531H31.7093C32.2781 20.9531 32.7383 21.5388 32.7383 22.2627C32.7383 22.9865 32.2781 23.5722 31.7093 23.5722Z" fill="#D9D9D9"/>
<path d="M35.7316 31.4286H24.5072C23.9901 31.4286 23.5718 30.8429 23.5718 30.1191C23.5718 29.3953 23.9901 28.8096 24.5072 28.8096H35.7316C36.2487 28.8096 36.667 29.3953 36.667 30.1191C36.667 30.8429 36.2487 31.4286 35.7316 31.4286Z" fill="#D9D9D9"/>
<path d="M30.1191 31.4296H35.7314C36.2484 31.4296 36.6667 30.8439 36.6667 30.1201C36.6667 29.3963 36.2484 28.8105 35.7314 28.8105H30.1191V31.4296Z" fill="#D9D9D9"/>
<path d="M24.8809 23.5722H31.6156C32.236 23.5722 32.738 22.9865 32.738 22.2627C32.738 21.5388 32.236 20.9531 31.6156 20.9531H24.8809V23.5722Z" fill="#D9D9D9"/>
</g>
<path d="M3.81348 30.7355C3.81348 28.502 5.62409 26.6914 7.85759 26.6914H19.4122C21.6457 26.6914 23.4563 28.502 23.4563 30.7355V42.2901C23.4563 44.5236 21.6457 46.3343 19.4122 46.3343H7.8576C5.62409 46.3343 3.81348 44.5236 3.81348 42.2901V30.7355Z" fill="#D9D9D9"/>
<path d="M10.654 42.0586C10.4397 42.0586 10.2833 42.0093 10.1848 41.9109C10.0863 41.8124 10.0371 41.656 10.0371 41.4417V31.8582C10.0371 31.6439 10.0863 31.4904 10.1848 31.3977C10.2833 31.2992 10.4397 31.25 10.654 31.25H16.3102C16.4724 31.25 16.5883 31.3108 16.6578 31.4325C16.7331 31.5541 16.7707 31.751 16.7707 32.0233V32.4925C16.7707 32.7647 16.7331 32.9616 16.6578 33.0833C16.5883 33.2049 16.4724 33.2657 16.3102 33.2657H12.4178V35.5074H15.8932C16.0554 35.5074 16.1712 35.5682 16.2407 35.6899C16.316 35.8115 16.3537 36.0084 16.3537 36.2807V36.7585C16.3537 37.0308 16.316 37.2277 16.2407 37.3494C16.1712 37.471 16.0554 37.5318 15.8932 37.5318H12.4178V40.0341H16.3189C16.4811 40.0341 16.5969 40.095 16.6664 40.2166C16.7417 40.3382 16.7794 40.5323 16.7794 40.7987V41.2853C16.7794 41.5575 16.7417 41.7545 16.6664 41.8761C16.5969 41.9977 16.4811 42.0586 16.3189 42.0586H10.654Z" fill="white"/>
<defs>
<clipPath id="clip0_11080_22880">
<rect width="45.8333" height="44.5238" fill="white" transform="translate(5.23828 6.54785)"/>
</clipPath>
</defs>
</svg>
