<svg width="18" height="17" viewBox="0 0 18 17" fill="none" xmlns="http://www.w3.org/2000/svg">
<path d="M9.64258 10.9277H5.14258V6.42773H9.64258V10.9277ZM6.42829 9.64202H8.35686V7.71345H6.42829V9.64202Z" fill="white"/>
<path d="M9.64258 16.7148H5.14258V12.2148H9.64258V16.7148ZM6.42829 15.4291H8.35686V13.5006H6.42829V15.4291Z" fill="white"/>
<path d="M15.4287 10.9277H10.9287V6.42773H15.4287V10.9277ZM12.2144 9.64202H14.143V7.71345H12.2144V9.64202Z" fill="white"/>
<path d="M15.4287 16.7148H10.9287V12.2148H15.4287V16.7148ZM12.2144 15.4291H14.143V13.5006H12.2144V15.4291Z" fill="white"/>
<path d="M3.85714 15.4286H1.28571C0.944826 15.4282 0.617997 15.2927 0.376953 15.0516C0.135908 14.8106 0.000340378 14.4838 0 14.1429V1.28572C0.000340378 0.944831 0.135908 0.618002 0.376953 0.376958C0.617997 0.135913 0.944826 0.000345059 1.28571 4.68124e-06H6.16243C6.33133 -0.000452686 6.49864 0.0326086 6.65468 0.0972732C6.81071 0.161938 6.95236 0.25692 7.07143 0.376719L9.26614 2.57143H16.7143C17.0552 2.57177 17.382 2.70734 17.623 2.94839C17.8641 3.18943 17.9997 3.51626 18 3.85715V9H16.7143V3.85715H8.73386L6.16243 1.28572H1.28571V14.1429H3.85714V15.4286Z" fill="white"/>
</svg>
