<svg width="25" height="25" viewBox="0 0 25 25" fill="none" xmlns="http://www.w3.org/2000/svg">
<rect x="14.4141" y="8.57422" width="10.912" height="14.1661" rx="2" transform="rotate(14.0325 14.4141 8.57422)" fill="#A9B3C2"/>
<path d="M21.112 5.75435L16.915 4.47561L15.7159 0H7.32211C6.32872 0 5.52344 0.858762 5.52344 1.91812V19.9058C5.52344 20.9652 6.32872 21.8239 7.32211 21.8239H19.3133C20.3067 21.8239 21.112 20.9652 21.112 19.9058V5.75435Z" fill="#DDE6F0"/>
<path d="M21.1122 6.2354H16.8687C16.2018 6.2354 15.6562 5.61186 15.6562 4.84976V0C15.8139 0 15.9715 0.0692823 16.0806 0.207893L20.9303 5.75047C21.0516 5.87514 21.1122 6.05527 21.1122 6.2354Z" fill="#A9B3C2"/>
<path d="M16.6029 10.1321H9.25401C8.91551 10.1321 8.6416 9.78349 8.6416 9.35267C8.6416 8.92185 8.91551 8.57324 9.25401 8.57324H16.6029C16.9414 8.57324 17.2153 8.92185 17.2153 9.35267C17.2153 9.78349 16.9414 10.1321 16.6029 10.1321Z" fill="white"/>
<path d="M18.9973 14.8089H12.3165C12.0088 14.8089 11.7598 14.4602 11.7598 14.0294C11.7598 13.5986 12.0088 13.25 12.3165 13.25H18.9973C19.305 13.25 19.554 13.5986 19.554 14.0294C19.554 14.4602 19.305 14.8089 18.9973 14.8089Z" fill="white"/>
<path d="M15.6562 14.8089H18.9966C19.3043 14.8089 19.5534 14.4602 19.5534 14.0294C19.5534 13.5986 19.3043 13.25 18.9966 13.25H15.6562V14.8089Z" fill="white"/>
<path d="M12.5391 10.1311H16.5475C16.9168 10.1311 17.2156 9.78251 17.2156 9.35169C17.2156 8.92088 16.9168 8.57227 16.5475 8.57227H12.5391V10.1311Z" fill="white"/>
<path d="M0 14.3963C0 13.0669 1.07767 11.9893 2.40705 11.9893H9.28433C10.6137 11.9893 11.6914 13.0669 11.6914 14.3963V21.2736C11.6914 22.603 10.6137 23.6806 9.28433 23.6806H2.40705C1.07767 23.6806 0 22.603 0 21.2736V14.3963Z" fill="#A9B3C2"/>
<path d="M4.07127 21.1364C3.94371 21.1364 3.85062 21.1071 3.79202 21.0485C3.73341 20.9898 3.7041 20.8968 3.7041 20.7692V15.0651C3.7041 14.9376 3.73341 14.8462 3.79202 14.791C3.85062 14.7324 3.94371 14.7031 4.07127 14.7031H7.43784C7.53437 14.7031 7.60332 14.7393 7.6447 14.8117C7.68951 14.8841 7.71192 15.0013 7.71192 15.1634V15.4426C7.71192 15.6047 7.68951 15.7219 7.6447 15.7943C7.60332 15.8667 7.53437 15.9029 7.43784 15.9029H5.12106V17.2371H7.18961C7.28615 17.2371 7.3551 17.2733 7.39647 17.3457C7.44129 17.4181 7.4637 17.5353 7.4637 17.6974V17.9818C7.4637 18.1438 7.44129 18.2611 7.39647 18.3335C7.3551 18.4059 7.28615 18.4421 7.18961 18.4421H5.12106V19.9314H7.44301C7.53954 19.9314 7.6085 19.9676 7.64987 20.04C7.69469 20.1124 7.7171 20.2279 7.7171 20.3865V20.6761C7.7171 20.8381 7.69469 20.9554 7.64987 21.0278C7.6085 21.1002 7.53954 21.1364 7.44301 21.1364H4.07127Z" fill="white"/>
</svg>
