<svg width="19" height="18" viewBox="0 0 19 18" fill="none" xmlns="http://www.w3.org/2000/svg">
<path d="M15.6762 0.35001C15.0193 0.348116 14.389 0.6093 13.9261 1.07529C13.926 1.07537 13.9259 1.07545 13.9258 1.07553L5.92918 9.07182L5.92878 9.07223C5.84619 9.15543 5.78392 9.25655 5.7467 9.36763L5.74663 9.36785L4.5324 13.0107L4.53239 13.0107C4.40024 13.4075 4.61472 13.8362 5.01145 13.9683L15.6757 0.50001M15.6762 0.35001L15.6757 0.50001M15.6762 0.35001C15.676 0.35001 15.6759 0.35001 15.6757 0.35001L15.6757 0.50001M15.6762 0.35001C16.3323 0.350054 16.9616 0.610745 17.4255 1.07479C18.3916 2.04106 18.3915 3.60762 17.4253 4.57377L9.42835 12.571M15.6757 0.50001C16.2923 0.499938 16.8835 0.744836 17.3194 1.18084C18.2269 2.08853 18.2268 3.56012 17.3192 4.46771L9.3222 12.465M9.42835 12.571L9.3222 12.465M9.42835 12.571L9.42827 12.5711L9.3222 12.465M9.42835 12.571C9.34525 12.6542 9.24389 12.7169 9.13234 12.7542L9.13225 12.7542L5.48953 13.9685L5.48901 13.9687C5.41207 13.994 5.33154 14.007 5.25049 14.0072L5.25008 14.0072L9.08482 12.6119C9.17428 12.5821 9.25557 12.5317 9.3222 12.465M16.3547 3.50372L16.3548 3.50354C16.5351 3.3239 16.6361 3.0797 16.6355 2.82521L16.3547 3.50372ZM16.3547 3.50372L8.48709 11.3716M16.3547 3.50372L8.48709 11.3716M8.48709 11.3716L6.44732 12.0528L7.12619 10.016L14.9967 2.14831C14.9967 2.14829 14.9967 2.14828 14.9967 2.14826C15.3721 1.77361 15.9802 1.77424 16.3549 2.14967C16.5339 2.329 16.6347 2.57177 16.6355 2.82514L8.48709 11.3716ZM5.25024 13.8572C5.31541 13.8571 5.38019 13.8466 5.44209 13.8262L4.6747 13.0581C4.56873 13.3763 4.74073 13.7201 5.05886 13.826C5.12058 13.8466 5.18522 13.8571 5.25024 13.8572ZM14.9638 8.84999C14.5456 8.84999 14.2066 9.18898 14.2066 9.60715V15.6786C14.2066 15.9311 14.002 16.1357 13.7495 16.1357H2.82136C2.56889 16.1357 2.36423 15.9311 2.36423 15.6786V3.53569C2.36423 3.2832 2.56889 3.07854 2.82136 3.07854H10.1068C10.525 3.07854 10.8639 2.73955 10.8639 2.32138C10.8639 1.9032 10.525 1.56426 10.1068 1.56426H2.82136C1.7326 1.56426 0.85 2.4469 0.85 3.53569V15.6786C0.85 16.7674 1.7326 17.65 2.82136 17.65H13.7495C14.8383 17.65 15.7209 16.7674 15.7209 15.6786V9.60711C15.7209 9.18898 15.3819 8.84999 14.9638 8.84999Z" fill="white" stroke="white" stroke-width="0.3"/>
</svg>
