<svg width="21" height="24" viewBox="0 0 21 24" fill="none" xmlns="http://www.w3.org/2000/svg">
<path d="M19 8H16.41L15.41 7H13C12.4701 7.00158 11.9623 7.2128 11.5875 7.58753C11.2128 7.96227 11.0016 8.47005 11 9V13C11.0016 13.5299 11.2128 14.0377 11.5875 14.4125C11.9623 14.7872 12.4701 14.9984 13 15H19C19.5299 14.9984 20.0377 14.7872 20.4125 14.4125C20.7872 14.0377 20.9984 13.5299 21 13V10C20.9984 9.47005 20.7872 8.96227 20.4125 8.58753C20.0377 8.2128 19.5299 8.00158 19 8ZM19 13H13V9H15L16 10H19V13Z" fill="white"/>
<path d="M19 17H16.41L15.41 16H13C12.4701 16.0016 11.9623 16.2128 11.5875 16.5875C11.2128 16.9623 11.0016 17.4701 11 18V22C11.0016 22.5299 11.2128 23.0377 11.5875 23.4125C11.9623 23.7872 12.4701 23.9984 13 24H19C19.5299 23.9984 20.0377 23.7872 20.4125 23.4125C20.7872 23.0377 20.9984 22.5299 21 22V19C20.9984 18.4701 20.7872 17.9623 20.4125 17.5875C20.0377 17.2128 19.5299 17.0016 19 17ZM19 22H13V18H15L16 19H19V22Z" fill="white"/>
<path d="M6 19V12H11V10H6V8H4V21H11V19H6Z" fill="white"/>
<path d="M8 1H5.41L4.41 0H2C1.47005 0.00158273 0.962265 0.212805 0.587535 0.587535C0.212805 0.962265 0.00158273 1.47005 0 2V6C0.00158273 6.52995 0.212805 7.03773 0.587535 7.41247C0.962265 7.7872 1.47005 7.99842 2 8H8C8.52995 7.99842 9.03773 7.7872 9.41247 7.41247C9.7872 7.03773 9.99842 6.52995 10 6V3C9.99842 2.47005 9.7872 1.96227 9.41247 1.58753C9.03773 1.2128 8.52995 1.00158 8 1ZM8 6H2V2H4L5 3H8V6Z" fill="white"/>
</svg>
