<svg width="14" height="16" viewBox="0 0 14 16" fill="none" xmlns="http://www.w3.org/2000/svg">
<path d="M9.94299 6.875C9.94299 6.52981 9.6698 6.25 9.33279 6.25H3.04765C2.71063 6.25 2.43744 6.52981 2.43744 6.875C2.43744 7.22019 2.71063 7.5 3.04765 7.5H9.33279C9.6698 7.5 9.94299 7.22019 9.94299 6.875Z" fill="#414B5B"/>
<path d="M3.04765 8.75C2.71063 8.75 2.43744 9.02981 2.43744 9.375C2.43744 9.72019 2.71063 10 3.04765 10H6.86483C7.20185 10 7.47504 9.72019 7.47504 9.375C7.47504 9.02981 7.20185 8.75 6.86483 8.75H3.04765Z" fill="#414B5B"/>
<path d="M4.48164 14.75H2.44083C1.76789 14.75 1.22041 14.1892 1.22041 13.5V2.5C1.22041 1.81075 1.76789 1.25 2.44083 1.25H9.94299C10.6159 1.25 11.1634 1.81075 11.1634 2.5V6.34375C11.1634 6.68894 11.4366 6.96875 11.7736 6.96875C12.1106 6.96875 12.3838 6.68894 12.3838 6.34375V2.5C12.3838 1.1215 11.2889 0 9.94299 0H2.44083C1.09496 0 0 1.1215 0 2.5V13.5C0 14.8785 1.09496 16 2.44083 16H4.48164C4.81866 16 5.09185 15.7202 5.09185 15.375C5.09185 15.0298 4.81866 14.75 4.48164 14.75Z" fill="#414B5B"/>
<path d="M13.4647 9.04912C12.7509 8.31806 11.5895 8.31803 10.8762 9.04862L7.52611 12.4724C7.45496 12.5451 7.40249 12.6347 7.37326 12.7332L6.64366 15.1933C6.57898 15.4114 6.63533 15.6483 6.79075 15.8114C6.90718 15.9337 7.06535 16 7.22757 16C7.28185 16 7.33665 15.9926 7.39044 15.9773L9.85338 15.2785C9.95474 15.2497 10.0471 15.1947 10.1216 15.1185L13.4647 11.7008C14.1784 10.9697 14.1784 9.78025 13.4647 9.04912ZM9.37297 14.1178L8.13388 14.4693L8.4965 13.2465L10.757 10.9364L11.6201 11.8204L9.37297 14.1178ZM12.6022 10.8166L12.4839 10.9374L11.6209 10.0535L11.7388 9.93306C11.9767 9.68937 12.3638 9.68937 12.6017 9.93306C12.8396 10.1768 12.8396 10.5732 12.6022 10.8166Z" fill="#414B5B"/>
<path d="M9.33279 3.75H3.04765C2.71063 3.75 2.43744 4.02981 2.43744 4.375C2.43744 4.72019 2.71063 5 3.04765 5H9.33279C9.6698 5 9.94299 4.72019 9.94299 4.375C9.94299 4.02981 9.6698 3.75 9.33279 3.75Z" fill="#414B5B"/>
</svg>
