<svg width="40" height="40" viewBox="0 0 40 40" fill="none" xmlns="http://www.w3.org/2000/svg">
<path d="M40 20C40 31.046 31.046 40 20 40C8.954 40 0 31.046 0 20C0 8.954 8.954 0 20 0C31.046 0 40 8.954 40 20Z" fill="#FFD600"/>
<path d="M29.0261 25.5002L28.6231 27.8997C28.5818 28.0715 28.4837 28.2243 28.3446 28.3333C28.2056 28.4423 28.0338 28.5011 27.8571 28.5002H12.1431C11.9664 28.5011 11.7946 28.4423 11.6555 28.3333C11.5165 28.2243 11.4183 28.0715 11.3771 27.8997L10.9741 25.5002H29.0261ZM19.9711 11.5007C20.2261 11.4902 20.4656 11.6032 20.6201 11.8002L25.6716 18.2052L29.7781 15.5052C29.9095 15.4192 30.0634 15.374 30.2204 15.3753C30.3774 15.3765 30.5305 15.4241 30.6606 15.5122C30.9261 15.6932 31.0516 16.0152 30.9806 16.3247L29.3886 23.5002H10.6111L9.02007 16.3252C8.95007 16.0252 9.06657 15.7122 9.31707 15.5282C9.44035 15.4383 9.5869 15.3858 9.73922 15.3769C9.89153 15.368 10.0432 15.4032 10.1761 15.4782L15.0386 18.2192L19.3456 11.8467C19.4152 11.7438 19.5082 11.6588 19.6169 11.5986C19.7256 11.5384 19.8469 11.5047 19.9711 11.5002V11.5007Z" fill="white"/>
</svg>
