<svg width="15" height="15" viewBox="0 0 15 15" fill="none" xmlns="http://www.w3.org/2000/svg">
<path d="M13.2009 2.80807C10.2034 4.90687 7.19234 1.00098 3.4375 1.00098H1.50781C1.22733 1.00098 1 1.2283 1 1.50879V13.4932C1 13.7737 1.22733 14.001 1.50781 14.001H3.4375C3.71799 14.001 3.94531 13.7737 3.94531 13.4932V9.22119C6.96134 9.47659 10.3332 13.2465 13.7835 10.8306C13.9192 10.7356 14 10.5803 14 10.4146V3.22404C14 2.81462 13.5377 2.57212 13.2009 2.80807ZM2.92969 12.9854H2.01562V2.0166H2.92969V12.9854ZM7.70312 9.46677C7.6945 9.4627 7.68587 9.45853 7.67724 9.45447C6.4692 8.881 5.22516 8.29027 3.94531 8.20269V5.58517C5.17091 5.68892 6.4694 6.37685 7.70312 6.95409V9.46677ZM7.70312 5.83085C7.6945 5.82678 7.68587 5.82262 7.67714 5.81855C6.4692 5.24498 5.22516 4.65465 3.94531 4.56707V2.03029C5.17081 2.13413 6.4695 2.82216 7.70312 3.3994V5.83085ZM12.9844 10.1402C11.607 10.9769 10.2056 10.5902 8.71875 9.93679V7.40318C10.1521 7.98608 11.5611 8.27271 12.9844 7.64747V10.1402ZM12.9844 6.5041C11.6068 7.3409 10.2057 6.95428 8.71875 6.30087V3.8485C10.1502 4.4306 11.5605 4.71842 12.9844 4.09288V6.5041Z" fill="#B2BAC8"/>
<path fill-rule="evenodd" clip-rule="evenodd" d="M13.7835 10.8306C11.5398 12.4017 9.32902 11.3566 7.22791 10.3635C6.16927 9.86307 5.13842 9.37582 4.14512 9.24291C4.07828 9.23397 4.01181 9.22682 3.94531 9.22119V13.4932C3.94531 13.7737 3.71799 14.001 3.4375 14.001H1.50781C1.22733 14.001 1 13.7737 1 13.4932V1.50879C1 1.2283 1.22733 1.00098 1.50781 1.00098H3.4375C4.99588 1.00098 6.42594 1.67358 7.78029 2.31066C9.68918 3.2086 11.4475 4.0358 13.2009 2.80807C13.5377 2.57212 14 2.81462 14 3.22404V10.4146C14 10.5803 13.9192 10.7356 13.7835 10.8306ZM13.0859 2.64407C13.5559 2.31485 14.1998 2.65331 14.1998 3.22385V10.4145C14.1998 10.6453 14.0872 10.8618 13.898 10.9942C12.0883 12.2614 10.2983 11.8937 8.62594 11.2127C8.12718 11.0096 7.62377 10.7717 7.1324 10.5396C6.81108 10.3878 6.49491 10.2385 6.18856 10.1028C5.47755 9.78804 4.7982 9.53637 4.14512 9.44477V13.493C4.14512 13.8839 3.82825 14.2008 3.4373 14.2008H1.50762C1.11667 14.2008 0.799805 13.8839 0.799805 13.493V1.50859C0.799805 1.11765 1.11667 0.800781 1.50762 0.800781H3.4373C4.41053 0.800781 5.32885 1.05388 6.19788 1.39189C6.76966 1.61428 7.33198 1.87874 7.87457 2.13391C8.15014 2.26351 8.42062 2.39072 8.68466 2.5088C10.2783 3.2215 11.684 3.6257 13.0859 2.64407ZM2.21543 12.7852H2.72949V2.21641H2.21543V12.7852ZM7.70312 9.46677V6.95409C7.54658 6.88084 7.3888 6.80562 7.23046 6.73023C6.20853 6.2437 5.15488 5.74206 4.14512 5.6069C4.07825 5.59795 4.01177 5.5908 3.94531 5.58517V8.20269C5.16376 8.28607 6.34956 8.82528 7.50293 9.37168C7.56066 9.39903 7.61831 9.42639 7.67588 9.45372L7.67724 9.45447L7.70312 9.46677ZM7.50293 9.15038V7.08091C7.38203 7.02393 7.26111 6.96636 7.14017 6.90878C6.67599 6.68779 6.2114 6.46661 5.74561 6.27713C5.19827 6.05448 4.66228 5.88135 4.14512 5.80876V8.01911C5.30853 8.14091 6.43549 8.64576 7.50293 9.15038ZM7.70312 5.83085V3.3994C7.54664 3.32617 7.38891 3.25097 7.23061 3.1756C6.20867 2.68903 5.15486 2.18728 4.14512 2.05203C4.07825 2.04307 4.01177 2.03592 3.94531 2.03029V4.56707C5.16379 4.65045 6.34962 5.18933 7.50293 5.73579C7.56102 5.76331 7.61922 5.79105 7.67714 5.81855L7.70312 5.83085ZM7.50293 5.51449V3.52622C7.38208 3.46925 7.26121 3.41171 7.14032 3.35415C6.6761 3.13313 6.21145 2.9119 5.74561 2.72238C5.19825 2.4997 4.66225 2.32653 4.14512 2.2539V4.38349C5.30854 4.50526 6.4355 5.0098 7.50293 5.51449ZM12.7842 10.0254V7.94254C11.4776 8.41433 10.1897 8.17918 8.91855 7.69659V9.8055C10.3144 10.4064 11.5641 10.7129 12.7842 10.0254ZM8.71875 9.93679C10.2056 10.5902 11.607 10.9769 12.9844 10.1402V7.64747C12.9177 7.67677 12.8508 7.70387 12.7842 7.72923C11.495 8.21981 10.2161 7.98463 8.91855 7.48239C8.85194 7.45661 8.78547 7.43031 8.71875 7.40318V9.93679ZM12.7842 6.38926V4.38795C11.477 4.85988 10.1883 4.62391 8.91855 4.14189V6.16958C10.3145 6.77051 11.564 7.07687 12.7842 6.38926ZM8.71875 6.30087C10.2057 6.95428 11.6068 7.3409 12.9844 6.5041V4.09288C12.9177 4.12218 12.8508 4.14928 12.7842 4.17464C11.4945 4.66539 10.2146 4.42932 8.91855 3.9277C8.85193 3.90192 8.78546 3.87562 8.71875 3.8485V6.30087ZM2.92969 12.9854V2.0166H2.01562V12.9854H2.92969Z" fill="#B2BAC8"/>
</svg>
