<svg width="16" height="13" viewBox="0 0 16 13" fill="none" xmlns="http://www.w3.org/2000/svg">
<path d="M1.61627 8.29272C2.6093 9.50978 3.89894 10.4882 5.24017 11.3713C5.24017 11.3713 6.83933 12.3974 7.57443 12.8747C7.84526 13.0418 8.19333 13.0418 8.45126 12.8747C9.18636 12.3974 10.7726 11.3713 10.7726 11.3713C12.1139 10.4883 13.3777 9.52183 14.3836 8.29272C15.2349 7.24271 15.8667 6.00178 15.9828 4.68926C16.1891 2.30287 14.5255 0.011932 11.7657 0.011932C10.1536 0.011932 8.73498 0.823306 8.01278 2.02843C7.26479 0.811374 5.85908 0 4.24702 0C1.50007 0 -0.189361 2.29094 0.016982 4.67733C0.133179 5.98985 0.752209 7.24271 1.61627 8.29272Z" fill="#EA4C68"/>
</svg>
