<svg width="32" height="32" viewBox="0 0 32 32" fill="none" xmlns="http://www.w3.org/2000/svg">
<path d="M16 0C7.16344 0 0 7.16344 0 16C0 24.8366 7.16344 32 16 32C24.8366 32 32 24.8366 32 16C32 7.16344 24.8366 0 16 0ZM15.9676 8.89667C17.4434 8.91608 18.6658 10.1175 19.0719 11.6484C19.2268 12.2731 19.2442 12.9068 19.0881 13.5684C18.8527 14.4998 18.3815 15.4097 17.5035 15.9686L18.7831 16.5765L21.8237 18.0486C22.1223 18.1766 22.2715 18.4326 22.2715 18.8166V21.7599C22.2715 22.3669 22.3197 22.8903 21.5674 23.1043H10.3678C9.64421 23.0939 9.61424 22.361 9.6312 21.7599V18.8166C9.6312 18.4326 9.79144 18.1655 10.1114 18.0162L13.2472 16.5765L14.464 16C13.9094 15.6373 13.472 15.1365 13.152 14.4965C12.7677 13.6515 12.6154 12.5547 12.8957 11.5522C13.25 10.1932 14.3598 8.97221 15.9676 8.89667ZM10.7518 10.2401C11.2211 10.2401 11.6474 10.3792 12.0314 10.6565C11.9249 10.9551 11.8347 11.2701 11.7598 11.6008C11.6852 11.9314 11.6474 12.2776 11.6474 12.6403C11.6474 13.1737 11.7219 13.6856 11.8713 14.1763C12.0206 14.6669 12.2342 15.1154 12.5116 15.5208C12.3836 15.6914 12.2133 15.8406 11.9999 15.9686L9.63115 17.0567C9.31115 17.2274 9.05517 17.4667 8.86317 17.7761C8.67117 18.0854 8.57544 18.4326 8.57544 18.8166V21.7599H6.24008C5.90128 21.7546 5.67245 21.4132 5.66357 21.0567V18.2726C5.66357 17.9526 5.78048 17.7389 6.01515 17.6322L9.56739 16C8.6496 15.4358 8.20683 14.4161 8.16011 13.2806C8.17627 11.8817 9.09323 10.3563 10.7518 10.2401ZM21.2472 10.2401C22.7217 10.2634 23.7867 11.7252 23.8399 13.2807C23.8318 14.3099 23.4301 15.3037 22.4955 15.9686L25.9838 17.6322C26.2185 17.7602 26.3354 17.9739 26.3354 18.2726V21.0568C26.3319 21.3872 26.1535 21.7262 25.7599 21.7599H23.3597V18.8166C23.3597 18.4326 23.264 18.0854 23.072 17.7761C22.88 17.4667 22.624 17.2274 22.304 17.0567C21.3092 16.5943 20.1667 16.2625 19.4235 15.4883C19.9782 14.635 20.2553 13.6857 20.2553 12.6403C20.2553 11.979 20.1384 11.3279 19.9038 10.6879C20.2891 10.4335 20.7453 10.2473 21.2472 10.2401Z" fill="#006600"/>
</svg>
