<svg width="18" height="14" viewBox="0 0 18 14" fill="none" xmlns="http://www.w3.org/2000/svg">
<path d="M17.1021 13.7534H5.06562C4.56953 13.7534 4.16746 13.338 4.16746 12.8254C4.16746 12.3128 4.56953 11.8973 5.06562 11.8973H17.1018C17.5979 11.8973 18 12.3128 18 12.8254C18 13.338 17.5982 13.7534 17.1021 13.7534Z" fill="#414B5B"/>
<path d="M17.1021 7.92805H5.06562C4.56953 7.92805 4.16746 7.5126 4.16746 7C4.16746 6.48741 4.56953 6.07195 5.06562 6.07195H17.1018C17.5979 6.07195 18 6.48741 18 7C18.0003 7.5126 17.5982 7.92805 17.1021 7.92805Z" fill="#414B5B"/>
<path d="M17.1021 2.10266H5.06562C4.56953 2.10266 4.16746 1.6872 4.16746 1.17461C4.16746 0.662012 4.56953 0.246553 5.06562 0.246553H17.1018C17.5979 0.246553 18 0.662012 18 1.17461C18 1.6872 17.5982 2.10266 17.1021 2.10266Z" fill="#414B5B"/>
<path d="M1.20623 2.49275C1.87241 2.49275 2.41245 1.93473 2.41245 1.24638C2.41245 0.558022 1.87241 0 1.20623 0C0.540046 0 0 0.558022 0 1.24638C0 1.93473 0.540046 2.49275 1.20623 2.49275Z" fill="#414B5B"/>
<path d="M1.20623 8.24638C1.87241 8.24638 2.41245 7.68835 2.41245 7C2.41245 6.31165 1.87241 5.75362 1.20623 5.75362C0.540046 5.75362 0 6.31165 0 7C0 7.68835 0.540046 8.24638 1.20623 8.24638Z" fill="#414B5B"/>
<path d="M1.20623 14C1.87241 14 2.41245 13.442 2.41245 12.7536C2.41245 12.0653 1.87241 11.5072 1.20623 11.5072C0.540046 11.5072 0 12.0653 0 12.7536C0 13.442 0.540046 14 1.20623 14Z" fill="#414B5B"/>
</svg>
