<svg width="16" height="16" viewBox="0 0 16 16" fill="none" xmlns="http://www.w3.org/2000/svg">
<path fill-rule="evenodd" clip-rule="evenodd" d="M5.28698 0.5H10.9197C13.5118 0.5 15.6137 2.59906 15.6137 5.1875V10.8125C15.6137 13.4009 13.5118 15.5 10.9197 15.5H5.28698C2.69498 15.5 0.593018 13.4009 0.593018 10.8125V5.1875C0.593018 2.59906 2.69498 0.5 5.28698 0.5ZM10.92 14.0939C12.7319 14.0939 14.2058 12.622 14.2058 10.8126V5.18757C14.2058 3.37819 12.7319 1.90631 10.92 1.90631H5.28727C3.4754 1.90631 2.0015 3.37819 2.0015 5.18757V10.8126C2.0015 12.622 3.4754 14.0939 5.28727 14.0939H10.92Z" fill="#666666"/>
<path fill-rule="evenodd" clip-rule="evenodd" d="M4.34839 8.00001C4.34839 5.92907 6.02977 4.25 8.10356 4.25C10.1774 4.25 11.8587 5.92907 11.8587 8.00001C11.8587 10.071 10.1774 11.75 8.10356 11.75C6.02977 11.75 4.34839 10.071 4.34839 8.00001ZM5.7565 8.00012C5.7565 9.29199 6.80983 10.3439 8.10348 10.3439C9.39714 10.3439 10.4505 9.29199 10.4505 8.00012C10.4505 6.70731 9.39714 5.65637 8.10348 5.65637C6.80983 5.65637 5.7565 6.70731 5.7565 8.00012Z" fill="#666666"/>
<path d="M12.1717 4.875C12.6902 4.875 13.1105 4.45527 13.1105 3.9375C13.1105 3.41973 12.6902 3 12.1717 3C11.6532 3 11.2329 3.41973 11.2329 3.9375C11.2329 4.45527 11.6532 4.875 12.1717 4.875Z" fill="#666666"/>
</svg>
