<svg width="24" height="24" viewBox="0 0 24 24" fill="none" xmlns="http://www.w3.org/2000/svg">
<circle cx="12" cy="12" r="12" fill="#BF3F4E"/>
<path d="M16.9622 15.188L13.7743 12.0002L16.9622 8.81221C17.314 8.46048 17.3139 7.88967 16.9622 7.53791C16.6105 7.1862 16.0397 7.1862 15.6879 7.53791L12.5 10.7259L9.31205 7.53791C8.96034 7.1862 8.38954 7.1862 8.03783 7.53791C7.68607 7.88967 7.68602 8.46048 8.03775 8.81221L11.2257 12.0002L8.03783 15.188C7.68607 15.5398 7.68602 16.1106 8.03775 16.4623C8.38954 16.8141 8.96034 16.8141 9.31213 16.4623L12.5 13.2745L15.6879 16.4623C16.0397 16.8141 16.6105 16.8141 16.9622 16.4623C17.314 16.1106 17.3139 15.5398 16.9622 15.188Z" fill="white" stroke="white" stroke-width="0.6"/>
</svg>
