<svg width="55" height="55" viewBox="0 0 55 55" fill="none" xmlns="http://www.w3.org/2000/svg">
<path d="M32.8516 16.0344C32.8516 19.0992 35.3447 21.5923 38.4094 21.5923C41.4742 21.5923 43.9673 19.0992 43.9673 16.0344C43.9673 12.9697 41.4742 10.4766 38.4094 10.4766C35.3447 10.4766 32.8516 12.9697 32.8516 16.0344Z" fill="#D9D9D9"/>
<path d="M28.8101 33.8708C28.8101 34.3451 29.0963 34.7288 29.4501 34.7288H47.37C47.7238 34.7288 48.01 34.3451 48.01 33.8708C48.01 27.7207 44.2776 22.6025 39.69 22.6025H37.1301C32.5425 22.6025 28.8101 27.7207 28.8101 33.8708Z" fill="#D9D9D9"/>
<path d="M15.7441 15.1045C15.7441 19.1007 18.995 22.3515 22.9912 22.3515C26.9874 22.3515 30.2383 19.1007 30.2383 15.1045C30.2383 11.1082 26.9874 7.85742 22.9912 7.85742C18.995 7.85742 15.7441 11.1082 15.7441 15.1045Z" fill="#BBBBBB"/>
<path d="M10.4502 38.3629C10.4502 38.9813 10.8234 39.4817 11.2847 39.4817H34.651C35.1122 39.4817 35.4855 38.9813 35.4855 38.3629C35.4855 30.3437 30.6186 23.6699 24.6369 23.6699H21.2988C15.3171 23.6699 10.4502 30.3437 10.4502 38.3629Z" fill="#BBBBBB"/>
<path d="M42.3961 41.5914H39.6133C39.6058 41.5914 39.5996 41.5853 39.5996 41.5778V38.795C39.5996 38.2602 39.166 37.8266 38.6312 37.8266C38.0964 37.8266 37.6627 38.2602 37.6627 38.795V41.5778C37.6627 41.5853 37.6566 41.5914 37.649 41.5914H34.8663C34.3315 41.5914 33.8979 42.0251 33.8979 42.5599C33.8979 43.0947 34.3315 43.5284 34.8663 43.5284H37.649C37.6566 43.5284 37.6627 43.5345 37.6627 43.542V46.3248C37.6627 46.8596 38.0964 47.2932 38.6312 47.2932C39.166 47.2932 39.5996 46.8596 39.5996 46.3248V43.542C39.5996 43.5345 39.6058 43.5284 39.6133 43.5284H42.3961C42.9309 43.5284 43.3645 43.0947 43.3645 42.5599C43.3645 42.0251 42.9309 41.5914 42.3961 41.5914Z" fill="#BBBBBB" stroke="#BBBBBB" stroke-width="0.3"/>
<path d="M3.81348 30.7355C3.81348 28.502 5.62409 26.6914 7.85759 26.6914H19.4122C21.6457 26.6914 23.4563 28.502 23.4563 30.7355V42.2901C23.4563 44.5236 21.6457 46.3343 19.4122 46.3343H7.8576C5.62409 46.3343 3.81348 44.5236 3.81348 42.2901V30.7355Z" fill="#D9D9D9"/>
<path d="M12.2665 42.1902C11.8668 42.1902 11.4468 42.141 11.0066 42.0425C10.5722 41.944 10.355 41.7529 10.355 41.469C10.355 41.3416 10.3753 41.1678 10.4158 40.9477C10.4621 40.7218 10.5316 40.5162 10.6243 40.3308C10.7228 40.1455 10.8444 40.047 10.9892 40.0354C11.0182 40.0354 11.0848 40.047 11.1891 40.0702C11.4382 40.1281 11.6583 40.1571 11.8494 40.1571C12.3186 40.1571 12.6516 40.0325 12.8486 39.7835C13.0513 39.5286 13.1527 39.1174 13.1527 38.5497V31.7118C13.1527 31.3701 13.4597 31.1992 14.0737 31.1992H14.6211C15.235 31.1992 15.542 31.3701 15.542 31.7118V38.932C15.542 39.963 15.2756 40.7653 14.7427 41.3387C14.2098 41.9064 13.3844 42.1902 12.2665 42.1902Z" fill="white"/>
</svg>
