<svg width="55" height="55" viewBox="0 0 55 55" fill="none" xmlns="http://www.w3.org/2000/svg">
<g clip-path="url(#clip0_11080_22867)">
<path d="M38.521 15.1515C36.1392 12.7741 32.9789 11.4658 29.6201 11.4658C29.6116 11.4658 29.6035 11.4658 29.5954 11.4658C26.23 11.4721 23.0563 12.8184 20.6589 15.2564C18.2484 17.7078 16.9489 20.9274 16.9995 24.3227C17.0466 27.4893 18.2643 30.5032 20.4289 32.8094C22.2088 34.7064 23.1893 37.1621 23.1893 39.7243C23.1893 40.3861 23.7259 40.923 24.388 40.923H34.8516C35.5136 40.923 36.0502 40.3861 36.0502 39.724C36.0502 37.1493 37.0201 34.7048 38.781 32.8409C41.0126 30.4791 42.2416 27.3856 42.2416 24.1301C42.2416 20.7348 40.9202 17.5461 38.521 15.1515Z" fill="#BBBBBB"/>
<path d="M34.6954 47.5829H24.5449C23.8831 47.5829 23.3462 46.7035 23.3462 45.6186C23.3462 44.5341 23.8831 43.6543 24.5449 43.6543H34.6954C35.3575 43.6543 35.8941 44.5341 35.8941 45.6186C35.8941 46.7035 35.3575 47.5829 34.6954 47.5829Z" fill="#D9D9D9"/>
<path d="M38.5213 15.1515C36.1396 12.7741 32.9793 11.4658 29.6204 11.4658C29.6201 11.4658 29.6201 11.4658 29.6201 11.4658V40.923H34.8519C35.5137 40.923 36.0506 40.3861 36.0506 39.724C36.0506 37.1493 37.0202 34.7048 38.7814 32.8409C41.013 30.4791 42.242 27.3856 42.242 24.1301C42.242 20.7348 40.9206 17.5461 38.5213 15.1515Z" fill="#D9D9D9"/>
</g>
<path d="M20.8063 11.2347L20.8062 11.2345L19.7179 9.34919C19.7179 9.34918 19.7179 9.34917 19.7179 9.34916C19.3757 8.75671 19.5788 7.99994 20.1709 7.65771C20.7601 7.31249 21.5202 7.51812 21.863 8.11078L21.863 8.11089L22.9513 9.99621C22.9513 9.99622 22.9513 9.99623 22.9513 9.99624C23.2936 10.5888 23.0903 11.3458 22.4979 11.6879L20.8063 11.2347ZM20.8063 11.2347C21.1523 11.8319 21.9119 12.0264 22.4979 11.6879L20.8063 11.2347ZM31.0403 9.00159L31.0403 9.00181C30.9744 9.68777 30.3656 10.1819 29.6907 10.118C29.0097 10.0534 28.5098 9.44969 28.5744 8.76839M31.0403 9.00159L28.9287 6.61531L28.7793 6.60128L28.5744 8.76839M31.0403 9.00159L31.2452 6.83439M31.0403 9.00159L31.0959 6.82023M28.5744 8.76839L28.7237 8.78255L28.5744 8.76843L28.5744 8.76839ZM30.1291 5.48484C29.4464 5.41816 28.8434 5.91952 28.7793 6.6012L31.0959 6.82023M30.1291 5.48484C30.1292 5.48485 30.1293 5.48486 30.1294 5.48487L30.1147 5.63416L30.1289 5.48483C30.129 5.48483 30.129 5.48484 30.1291 5.48484ZM30.1291 5.48484C30.8101 5.54953 31.3098 6.15316 31.2452 6.83439M31.2452 6.83439L31.2452 6.83435L31.0959 6.82023M31.2452 6.83439L31.0959 6.82023M41.6182 16.8104L41.6183 16.8106C41.9643 17.4079 42.7239 17.6023 43.3099 17.2638L45.1952 16.1756L45.1952 16.1755C45.7877 15.8334 45.9909 15.0764 45.6487 14.4838C45.3067 13.8916 44.5465 13.688 43.9569 14.0304C43.9568 14.0305 43.9567 14.0306 43.9566 14.0306L42.0716 15.1187L42.0716 15.1187C41.4791 15.4608 41.2759 16.2178 41.6182 16.8104ZM36.4968 11.6884L36.5719 11.5586L36.4968 11.6884C37.0838 12.0275 37.8431 11.8315 38.1885 11.2352L38.1886 11.235L39.2769 9.34971C39.6191 8.75719 39.4159 8.00039 38.8237 7.65813C38.2307 7.31328 37.4737 7.51823 37.1317 8.11148L36.0434 9.99672C35.7012 10.5893 35.9044 11.3463 36.4968 11.6884ZM44.7322 25.047H46.9813C47.6657 25.047 48.2196 24.4931 48.2196 23.8087C48.2196 23.1244 47.6657 22.5705 46.9813 22.5705H44.7322C44.0478 22.5705 43.4939 23.1244 43.4939 23.8087C43.4939 24.4931 44.0478 25.047 44.7322 25.047Z" fill="#D9D9D9" stroke="#D9D9D9" stroke-width="0.3"/>
<path d="M3.81348 30.7355C3.81348 28.502 5.62409 26.6914 7.85759 26.6914H19.4122C21.6457 26.6914 23.4563 28.502 23.4563 30.7355V42.2901C23.4563 44.5236 21.6457 46.3343 19.4122 46.3343H7.8576C5.62409 46.3343 3.81348 44.5236 3.81348 42.2901V30.7355Z" fill="#D9D9D9"/>
<path d="M11.2775 41.647C11.0632 41.647 10.9068 41.5977 10.8083 41.4993C10.7099 41.4008 10.6606 41.2444 10.6606 41.0301V31.2989C10.6606 31.1309 10.7359 31.0063 10.8865 30.9253C11.0371 30.8384 11.2717 30.7949 11.5903 30.7949H12.1116C12.4302 30.7949 12.6648 30.8384 12.8154 30.9253C12.966 31.0063 13.0413 31.1309 13.0413 31.2989V39.6225H16.482C16.6441 39.6225 16.76 39.6833 16.8295 39.805C16.9048 39.9266 16.9425 40.1207 16.9425 40.3871V40.8737C16.9425 41.1459 16.9048 41.3429 16.8295 41.4645C16.76 41.5861 16.6441 41.647 16.482 41.647H11.2775Z" fill="white"/>
<defs>
<clipPath id="clip0_11080_22867">
<rect width="40.9153" height="40.9153" fill="white" transform="translate(9.1665 11.4658)"/>
</clipPath>
</defs>
</svg>
