<svg width="52" height="52" viewBox="0 0 52 52" fill="none" xmlns="http://www.w3.org/2000/svg">
<path d="M35.4944 16.5024C33.8904 14.8882 31.7621 14 29.5002 14C29.4945 14 29.489 14 29.4836 14C27.2172 14.0042 25.0799 14.9183 23.4654 16.5736C21.842 18.238 20.9669 20.4239 21.001 22.7292C21.0327 24.8791 21.8528 26.9254 23.3104 28.4912C24.5091 29.7792 25.1694 31.4465 25.1694 33.1861C25.1694 33.6355 25.5308 34 25.9767 34H33.0232C33.4691 34 33.8305 33.6355 33.8305 33.1859C33.8305 31.4378 34.4836 29.7781 35.6695 28.5126C37.1724 26.9091 38 24.8088 38 22.5984C38 20.2932 37.1101 18.1282 35.4944 16.5024Z" fill="#5A8E2E"/>
<path d="M32.2358 39H25.7642C25.3423 39 25 38.3285 25 37.5C25 36.6719 25.3423 36 25.7642 36H32.2358C32.6579 36 33 36.6719 33 37.5C33 38.3285 32.6579 39 32.2358 39Z" fill="#527C2E"/>
<path d="M35.347 16.5024C33.6487 14.8882 31.3952 14 29.0002 14C29 14 29 14 29 14V34H32.7305C33.2024 34 33.5853 33.6355 33.5853 33.1859C33.5853 31.4378 34.2766 29.7781 35.5324 28.5126C37.1237 26.9091 38 24.8088 38 22.5984C38 20.2932 37.0578 18.1282 35.347 16.5024Z" fill="#7AAD4F"/>
<path d="M33.8938 14.0007L33.7971 14.1757C33.3347 13.9201 33.1686 13.3466 33.4416 12.8942L33.8938 14.0007ZM33.8938 14.0007L33.7971 14.1757C34.2507 14.4264 34.8411 14.2848 35.1132 13.8354L35.1133 13.8351L35.8806 12.5631C35.8806 12.5631 35.8806 12.5631 35.8806 12.5631C36.1535 12.1108 35.9876 11.5374 35.5253 11.2817C35.0669 11.0267 34.4782 11.1752 34.2089 11.6222C34.2089 11.6222 34.2088 11.6223 34.2088 11.6223L33.4416 12.8942L33.8938 14.0007ZM30.0877 12.2856L30.0877 12.286C30.035 12.8106 29.5529 13.1742 29.0344 13.1271C28.5101 13.0796 28.11 12.6308 28.1617 12.1081C28.1617 12.108 28.1617 12.108 28.1617 12.108L28.3062 10.646L28.3062 10.6459L28.5052 10.6655L30.0877 12.2856ZM30.0877 12.2856L30.2322 10.8235C30.2322 10.8235 30.2322 10.8235 30.2322 10.8234C30.284 10.3008 29.884 9.85211 29.3598 9.80439L30.0877 12.2856ZM22.699 13.8347L22.6992 13.835C22.9717 14.2852 23.5624 14.4257 24.0153 14.1754C24.4777 13.9198 24.6437 13.3462 24.3707 12.8938L23.6035 11.6219L23.6034 11.6217C23.3336 11.1754 22.7428 11.026 22.2867 11.2815C21.8246 11.5373 21.6589 12.1106 21.9318 12.5627C21.9318 12.5627 21.9318 12.5628 21.9318 12.5628L22.699 13.8347ZM37.3719 17.5968L37.3721 17.597C37.6446 18.0472 38.2353 18.1877 38.6881 17.9374C38.6881 17.9374 38.6881 17.9374 38.6882 17.9374L40.0173 17.2031L40.0174 17.2031C40.4799 16.9475 40.6458 16.3739 40.3728 15.9216C40.1034 15.4751 39.5123 15.3277 39.0564 15.5811C39.0563 15.5812 39.0562 15.5812 39.0561 15.5812L37.7274 16.3152L37.7274 16.3152C37.2649 16.5708 37.0989 17.1444 37.3719 17.5968ZM39.6471 23.2H41.2327C41.7589 23.2 42.2 22.7902 42.2 22.2657C42.2 21.7412 41.7589 21.3315 41.2327 21.3315H39.6471C39.1209 21.3315 38.6798 21.7412 38.6798 22.2657C38.6798 22.7902 39.1209 23.2 39.6471 23.2Z" fill="#7AAD4F" stroke="#7AAD4F" stroke-width="0.4"/>
<g filter="url(#filter0_d_16397_24545)">
<path d="M9 27.6C9 25.6118 10.6118 24 12.6 24H23.4C25.3882 24 27 25.6118 27 27.6V38.4C27 40.3882 25.3882 42 23.4 42H12.6C10.6118 42 9 40.3882 9 38.4V27.6Z" fill="#7AAD4F"/>
</g>
<path d="M13.0286 30.6429C13.0286 30.3541 13.257 30.1 13.5617 30.1H19.5974C19.9021 30.1 20.1305 30.3541 20.1305 30.6429V36.3571C20.1305 36.6459 19.9021 36.9 19.5974 36.9H13.5617C13.257 36.9 13.0286 36.6459 13.0286 36.3571V30.6429ZM21.2591 36.3571V34.6521L24.2122 36.8488C24.3856 36.9778 24.6129 36.993 24.8006 36.887C24.9871 36.7816 25.1 36.5765 25.1 36.3571V30.6429C25.1 30.4235 24.9871 30.2184 24.8006 30.113C24.6129 30.007 24.3856 30.0222 24.2122 30.1512L21.2591 32.3479V30.6429C21.2591 29.6682 20.5038 28.9 19.5974 28.9H13.5617C12.6553 28.9 11.9 29.6682 11.9 30.6429V36.3571C11.9 37.3318 12.6553 38.1 13.5617 38.1H19.5974C20.5038 38.1 21.2591 37.3318 21.2591 36.3571ZM23.9714 31.7949V35.2051L21.6793 33.5L23.9714 31.7949Z" fill="white" stroke="white" stroke-width="0.2" stroke-linecap="round" stroke-linejoin="round"/>
<defs>
<filter id="filter0_d_16397_24545" x="8" y="23" width="22" height="22" filterUnits="userSpaceOnUse" color-interpolation-filters="sRGB">
<feFlood flood-opacity="0" result="BackgroundImageFix"/>
<feColorMatrix in="SourceAlpha" type="matrix" values="0 0 0 0 0 0 0 0 0 0 0 0 0 0 0 0 0 0 127 0" result="hardAlpha"/>
<feOffset dx="1" dy="1"/>
<feGaussianBlur stdDeviation="1"/>
<feComposite in2="hardAlpha" operator="out"/>
<feColorMatrix type="matrix" values="0 0 0 0 0 0 0 0 0 0 0 0 0 0 0 0 0 0 0.25 0"/>
<feBlend mode="normal" in2="BackgroundImageFix" result="effect1_dropShadow_16397_24545"/>
<feBlend mode="normal" in="SourceGraphic" in2="effect1_dropShadow_16397_24545" result="shape"/>
</filter>
</defs>
</svg>
