<svg width="54" height="54" viewBox="0 0 54 54" fill="none" xmlns="http://www.w3.org/2000/svg">
<circle cx="26.9863" cy="26.9863" r="26.9863" fill="black"/>
<path fill-rule="evenodd" clip-rule="evenodd" d="M30.9502 16.2002C31.1387 17.4801 30.6176 18.7341 29.9304 19.6213C29.1951 20.5729 27.9277 21.3089 26.6997 21.2705C26.4755 20.0451 27.0495 18.7824 27.7479 17.9337C28.514 16.9969 29.8269 16.2783 30.9502 16.2002ZM34.6391 34.2164C35.2721 33.2462 35.5086 32.7567 36 31.6614C32.4257 30.3021 31.853 25.2207 35.3903 23.2704C34.3114 21.9173 32.7953 21.1329 31.364 21.1329C30.3328 21.1329 29.6262 21.402 28.9839 21.6467C28.4486 21.8506 27.9579 22.0375 27.3611 22.0375C26.7162 22.0375 26.1451 21.8327 25.5471 21.6183C24.89 21.3827 24.2004 21.1354 23.3447 21.1354C21.7386 21.1354 20.0291 22.1168 18.9452 23.7945C17.4216 26.1574 17.6815 30.5995 20.1522 34.3836C21.0353 35.738 22.2152 37.2596 23.7585 37.2732C24.3989 37.2795 24.825 37.0884 25.2861 36.8816C25.814 36.6449 26.3876 36.3876 27.3809 36.3823C28.3799 36.3763 28.9445 36.6367 29.4653 36.8769C29.9147 37.0842 30.3313 37.2764 30.9662 37.2695C32.5107 37.2571 33.7559 35.5707 34.6391 34.2164Z" fill="white"/>
</svg>
