<svg width="54" height="54" viewBox="0 0 54 54" fill="none" xmlns="http://www.w3.org/2000/svg">
<circle cx="26.9863" cy="26.9863" r="26.9863" fill="#C83329"/>
<path d="M36 27.2177C36 26.6371 35.9262 26.2016 35.8525 25.7298H27.1475V28.8145H32.3115C32.127 30.1573 30.7623 32.6976 27.1475 32.6976C24.0123 32.6976 21.4672 30.1573 21.4672 27C21.4672 21.9556 27.5164 19.6331 30.7623 22.7177L33.2705 20.3589C31.6844 18.9073 29.582 18 27.1475 18C22.0574 18 18 22.0282 18 27C18 32.0081 22.0574 36 27.1475 36C32.4221 36 36 32.371 36 27.2177Z" fill="white"/>
</svg>
