<svg width="20" height="21" viewBox="0 0 20 21" fill="none" xmlns="http://www.w3.org/2000/svg">
<path d="M3.10382 11.1802H13.6362C14.1383 11.1802 14.5453 10.7732 14.5453 10.2711C14.5453 9.76904 14.1383 9.36201 13.6362 9.36201H3.10382L4.27921 8.18667C4.63424 7.8317 4.63424 7.25607 4.27921 6.90104C3.9243 6.54601 3.34867 6.54601 2.99358 6.90104L0.266485 9.62813C0.245394 9.64916 0.225515 9.67116 0.206606 9.69419C0.202 9.69983 0.198061 9.70589 0.193576 9.71164C0.179697 9.72928 0.166061 9.74698 0.153576 9.76564C0.149939 9.7711 0.14697 9.77686 0.143394 9.78237C0.130909 9.80189 0.118667 9.82158 0.107636 9.84213C0.105515 9.84619 0.103758 9.85049 0.101636 9.85455C0.0901818 9.87679 0.0791515 9.89934 0.0695152 9.92261C0.068303 9.92546 0.0674545 9.92849 0.066303 9.9314C0.0564242 9.95589 0.0472727 9.98067 0.0395152 10.0062C0.0384848 10.0094 0.0379394 10.0127 0.0370303 10.016C0.029697 10.041 0.0229697 10.0663 0.0178182 10.0922C0.016303 10.0999 0.0156364 10.1078 0.0142424 10.1156C0.0104848 10.137 0.00672727 10.1585 0.00460606 10.1804C0.00151515 10.2104 0 10.2407 0 10.2711C0 10.3015 0.00151515 10.3318 0.00460606 10.3619C0.00672727 10.3841 0.0106061 10.4057 0.014303 10.4273C0.0156364 10.4349 0.016303 10.4426 0.0178182 10.45C0.0230303 10.4761 0.029697 10.5016 0.0370909 10.5269C0.038 10.5299 0.0385455 10.533 0.0394545 10.536C0.0472727 10.5616 0.0564242 10.5867 0.0664242 10.6114C0.0675151 10.6141 0.068303 10.6169 0.0694546 10.6196C0.0791515 10.643 0.0902424 10.6657 0.101818 10.6881C0.103818 10.692 0.105515 10.6961 0.107576 10.7001C0.118727 10.7207 0.13103 10.7406 0.143697 10.7603C0.147091 10.7656 0.15 10.7713 0.153515 10.7765C0.166061 10.7952 0.179818 10.813 0.193636 10.8307C0.198061 10.8364 0.202 10.8424 0.206545 10.848C0.225515 10.871 0.245394 10.893 0.266424 10.9141L2.99352 13.6412C3.17103 13.8187 3.4037 13.9075 3.63636 13.9075C3.86903 13.9075 4.1017 13.8187 4.27915 13.6412C4.63418 13.2861 4.63418 12.7106 4.27915 12.3555L3.10382 11.1802Z" fill="#414B5B"/>
<path d="M12.5635 2.83398C10.082 2.83398 7.77328 4.06501 6.38753 6.12689C6.10753 6.54356 6.21831 7.10841 6.63498 7.38847C7.05171 7.66847 7.6165 7.5578 7.89662 7.14101C8.94395 5.58253 10.6886 4.6521 12.5635 4.6521C15.6613 4.65217 18.1817 7.17247 18.1817 10.2704C18.1817 13.3683 15.6613 15.8886 12.5635 15.8886C10.6941 15.8886 8.95231 14.9624 7.90419 13.411C7.62304 12.995 7.05807 12.8856 6.64195 13.1666C6.22595 13.4477 6.1165 14.0128 6.39759 14.4288C7.78431 16.4814 10.0893 17.7068 12.5635 17.7068C16.6639 17.7068 19.9999 14.3709 19.9999 10.2704C19.9999 6.16992 16.6639 2.83398 12.5635 2.83398Z" fill="#414B5B"/>
</svg>
