<svg width="106" height="24" viewBox="0 0 106 24" fill="none" xmlns="http://www.w3.org/2000/svg">
<g clip-path="url(#clip0_15052_23838)">
<path d="M24.2682 3.51376H26.4268L28.8054 0H26.6469H26.6458H22.3923L20.9348 2.15283L11.7078 15.7825L6.34893 7.86662H0L8.53331 20.4716L10.6603 23.6135L13.8348 18.9245L24.2672 3.51376H24.2682Z" fill="white"/>
<path d="M65.1924 23.8251V8.06934H73.9752V11.603H69.0622V14.0553H73.8189V17.589H69.0622V20.2914H73.9752V23.8251H65.1924Z" fill="#CC9900"/>
<path d="M85.0688 23.6152V22.3371H85.0272C84.6795 22.9259 84.1684 23.3589 83.4939 23.6361C82.9234 23.8784 82.2523 23.9997 81.4806 24.0001C79.7071 24.0001 78.2642 23.3834 77.1518 22.1499C76.0805 20.9583 75.5451 19.4688 75.5454 17.6811C75.5454 15.9211 76.0774 14.4451 77.1413 13.2533C78.2537 12.0135 79.6792 11.3934 81.418 11.3931C82.8216 11.3931 83.9829 11.8642 84.9019 12.8064V7.85938H88.4485V23.6152H85.0688ZM84.2445 15.5388C83.6743 14.9794 82.9616 14.6988 82.1065 14.697C81.2439 14.697 80.5276 14.9741 79.9573 15.5283C79.3805 16.0898 79.092 16.8 79.092 17.6591C79.092 18.5331 79.3666 19.2537 79.9158 19.8208C80.4723 20.403 81.1887 20.694 82.0649 20.694C82.9474 20.694 83.6739 20.4065 84.2445 19.8313C84.806 19.2558 85.0877 18.5318 85.0899 17.6591C85.0899 16.807 84.8081 16.1003 84.2445 15.5388" fill="#CC9900"/>
<path d="M98.4155 23.6155V22.3569H98.3734C98.0811 22.96 97.6571 23.3932 97.1012 23.6564C96.6212 23.8847 96.0196 23.9989 95.2963 23.9989C93.7875 23.9989 92.6261 23.5037 91.8124 22.5132C91.3674 21.9587 91.072 21.3835 90.926 20.7877C90.807 20.3381 90.7476 19.6976 90.7476 18.8662V11.7988H94.2942V18.336C94.2942 19.0985 94.4124 19.6597 94.6489 20.0194C94.9405 20.4698 95.4549 20.6951 96.1922 20.6954C97.5484 20.6954 98.2266 19.8951 98.2266 18.2946V11.7988H101.773V23.6155H98.4155Z" fill="#CC9900"/>
<path d="M27.8015 11.7988H24.2612V23.5951H27.8015V11.7988Z" fill="white"/>
<path d="M34.3875 14.4757V23.5952H30.8473V14.4757H29.0977V11.7989H30.8473V7.86719H34.3875V11.7989H36.0951V14.4757H34.3875Z" fill="white"/>
<path d="M46.2946 23.5959V22.3199H46.253C45.9541 22.8874 45.4577 23.3197 44.764 23.6169C44.1413 23.8773 43.4717 24.0078 42.7965 24.0002C41.0121 24.0002 39.5646 23.3884 38.454 22.1647C37.3838 20.9749 36.8486 19.4843 36.8486 17.6928C36.8486 15.9286 37.3936 14.4482 38.4835 13.2518C39.6148 12.0141 41.0518 11.3951 42.7944 11.3948C43.4681 11.388 44.1356 11.5229 44.7535 11.7907C45.4202 12.0813 45.92 12.5033 46.253 13.0567H46.2946V11.7996H49.8349V23.5959H46.2946ZM45.4525 15.5447C44.891 14.9779 44.1795 14.6944 43.3181 14.694C42.4643 14.694 41.7597 14.9912 41.2042 15.5856C40.6624 16.1593 40.3917 16.8752 40.3921 17.7332C40.3921 18.5562 40.6728 19.2554 41.2342 19.8309C41.8108 20.412 42.5126 20.7025 43.3397 20.7025C44.1934 20.7025 44.9014 20.4155 45.4635 19.8414C46.0186 19.2673 46.2964 18.5515 46.2967 17.6938C46.2967 16.8289 46.016 16.1121 45.4546 15.5436" fill="white"/>
<path d="M59.6181 23.5957V17.1529C59.6181 16.3837 59.5071 15.8131 59.285 15.4411C59 14.9569 58.4933 14.7148 57.7648 14.7148C56.9928 14.7148 56.4479 14.9499 56.13 15.4201C55.8664 15.8079 55.7345 16.3958 55.7341 17.1838V23.5957H52.1938V11.7994H55.4946V13.0549H55.5473C56.2277 11.9483 57.3002 11.3949 58.7649 11.3945C59.9661 11.3945 60.9761 11.737 61.7952 12.4219C62.3089 12.8509 62.6773 13.4278 62.9005 14.1526C63.0735 14.7193 63.1604 15.4074 63.1611 16.2168V23.5957H59.6181Z" fill="white"/>
<path d="M27.8015 7.86719H24.2612V10.8035H27.8015V7.86719Z" fill="white"/>
</g>
<defs>
<clipPath id="clip0_15052_23838">
<rect width="106" height="24" fill="white"/>
</clipPath>
</defs>
</svg>
