<svg width="20" height="19" viewBox="0 0 20 19" fill="none" xmlns="http://www.w3.org/2000/svg">
<path d="M4.275 18.2695V18.4472L4.42688 18.355L8.33787 15.9819C8.87678 16.069 9.43137 16.1195 10 16.1195C15.0131 16.1195 19.1 12.5611 19.1 8.14453C19.1 3.72791 15.0131 0.169531 10 0.169531C4.9875 0.169531 0.9 3.72791 0.9 8.14453C0.9 10.6503 2.22081 12.8784 4.275 14.3383V18.2695ZM8.11958 14.5903L8.08101 14.5821L8.04722 14.6024L5.5529 16.1017L5.5859 13.6724L5.58668 13.615L5.53746 13.5854C3.53182 12.3789 2.225 10.3904 2.225 8.14453C2.225 4.48599 5.69095 1.49453 10 1.49453C14.3091 1.49453 17.775 4.48599 17.775 8.14453C17.775 11.8031 14.3091 14.7945 10 14.7945C9.3508 14.7945 8.72332 14.7189 8.11958 14.5903ZM12.8125 9.73203H7.1875C6.82177 9.73203 6.525 10.0288 6.525 10.3945C6.525 10.7603 6.82177 11.057 7.1875 11.057H12.8125C13.1782 11.057 13.475 10.7603 13.475 10.3945C13.475 10.0288 13.1782 9.73203 12.8125 9.73203ZM13.9375 6.35703H6.0625C5.69677 6.35703 5.4 6.6538 5.4 7.01953C5.4 7.38526 5.69677 7.68203 6.0625 7.68203H13.9375C14.3032 7.68203 14.6 7.38526 14.6 7.01953C14.6 6.6538 14.3032 6.35703 13.9375 6.35703Z" fill="#B2BAC8" stroke="#B2BAC8" stroke-width="0.2"/>
</svg>
