<svg width="3" height="14" viewBox="0 0 3 14" fill="none" xmlns="http://www.w3.org/2000/svg">
<path d="M3 7C3 7.82846 2.32846 8.5 1.5 8.5C0.671539 8.5 0 7.82846 0 7C0 6.17154 0.671539 5.5 1.5 5.5C2.32846 5.5 3 6.17154 3 7Z" fill="#B2BAC8"/>
<path d="M3 1.5C3 2.32846 2.32846 3 1.5 3C0.671539 3 0 2.32846 0 1.5C0 0.671539 0.671539 0 1.5 0C2.32846 0 3 0.671539 3 1.5Z" fill="#B2BAC8"/>
<path d="M3 12.5C3 13.3285 2.32846 14 1.5 14C0.671539 14 0 13.3285 0 12.5C0 11.6715 0.671539 11 1.5 11C2.32846 11 3 11.6715 3 12.5Z" fill="#B2BAC8"/>
</svg>
