<svg width="24" height="24" viewBox="0 0 24 24" fill="none" xmlns="http://www.w3.org/2000/svg">
<path fill-rule="evenodd" clip-rule="evenodd" d="M16.1156 2.76344C14.1238 1.87595 11.8985 1.65609 9.77151 2.13665C7.64455 2.6172 5.72992 3.77243 4.31316 5.43004C2.8964 7.08765 2.05342 9.15882 1.90994 11.3347C1.76647 13.5105 2.33019 15.6744 3.51702 17.5037C4.70386 19.333 6.45022 20.7297 8.49566 21.4853C10.5411 22.241 12.776 22.3153 14.8671 21.697C16.9582 21.0787 18.7934 19.8011 20.099 18.0546C21.4046 16.3081 22.1107 14.1864 22.112 12.0058V10.9892C22.112 10.4678 22.5346 10.0452 23.056 10.0452C23.5774 10.0452 24 10.4678 24 10.9892V12.0069C23.9985 14.5946 23.1606 17.1125 21.6112 19.1851C20.0618 21.2576 17.8839 22.7738 15.4024 23.5075C12.9209 24.2412 10.2687 24.1531 7.84136 23.2564C5.41402 22.3596 3.34158 20.7022 1.93315 18.5313C0.52472 16.3605 -0.144251 13.7925 0.0260121 11.2104C0.196275 8.62834 1.19665 6.17046 2.87794 4.20335C4.55922 2.23625 6.83134 0.865327 9.35542 0.295044C11.8795 -0.27524 14.5203 -0.0143271 16.884 1.03887C17.3602 1.25106 17.5743 1.80914 17.3621 2.28537C17.1499 2.7616 16.5918 2.97564 16.1156 2.76344Z" fill="#C1C9D2"/>
<path fill-rule="evenodd" clip-rule="evenodd" d="M23.7446 2.27712C24.0849 2.64687 24.0852 3.24666 23.7453 3.61678L13.5465 14.7222C13.3832 14.9 13.1617 14.9999 12.9307 15C12.6996 15.0001 12.478 14.9003 12.3147 14.7225L9.25506 11.3942C8.91498 11.0243 8.91498 10.4245 9.25506 10.0546C9.59513 9.68464 10.1465 9.68464 10.4866 10.0546L12.9301 12.7127L22.5131 2.27779C22.853 1.90767 23.4044 1.90737 23.7446 2.27712Z" fill="#C1C9D2"/>
</svg>
