<svg width="19" height="18" viewBox="0 0 19 18" fill="none" xmlns="http://www.w3.org/2000/svg">
<path d="M10.1786 11.5361H5.42859V6.78613H10.1786V11.5361ZM6.78573 10.179H8.82145V8.14328H6.78573V10.179Z" fill="#006600"/>
<path d="M10.1786 17.6426H5.42859V12.8926H10.1786V17.6426ZM6.78573 16.2854H8.82145V14.2497H6.78573V16.2854Z" fill="#006600"/>
<path d="M16.2858 11.5361H11.5358V6.78613H16.2858V11.5361ZM12.8929 10.179H14.9286V8.14328H12.8929V10.179Z" fill="#006600"/>
<path d="M16.2858 17.6426H11.5358V12.8926H16.2858V17.6426ZM12.8929 16.2854H14.9286V14.2497H12.8929V16.2854Z" fill="#006600"/>
<path d="M4.07143 16.2857H1.35714C0.997316 16.2854 0.652331 16.1423 0.397895 15.8878C0.143459 15.6334 0.000359288 15.2884 0 14.9286V1.35715C0.000359288 0.997321 0.143459 0.652336 0.397895 0.3979C0.652331 0.143464 0.997316 0.000364229 1.35714 4.94131e-06H6.50479C6.68307 -0.000477835 6.85968 0.0344202 7.02438 0.102677C7.18908 0.170934 7.33861 0.271194 7.46429 0.397648L9.78093 2.71429H17.6429C18.0027 2.71465 18.3477 2.85775 18.6021 3.11219C18.8565 3.36662 18.9996 3.71161 19 4.07143V9.5H17.6429V4.07143H9.21907L6.50479 1.35715H1.35714V14.9286H4.07143V16.2857Z" fill="#006600"/>
</svg>
