<svg width="17" height="19" viewBox="0 0 17 19" fill="none" xmlns="http://www.w3.org/2000/svg">
<path d="M16.1861 2.65915C16.1531 2.41417 15.9826 2.21267 15.7521 2.14643L8.36551 0.0227256C8.2602 -0.00757521 8.14897 -0.00757521 8.04358 0.0227256L0.656946 2.14643C0.426474 2.21267 0.255982 2.41409 0.222989 2.65915C0.180146 2.97764 -0.797238 10.5028 1.70969 14.2464C4.21365 17.9855 7.90753 18.9437 8.06352 18.9827C8.10989 18.9943 8.15714 19 8.20455 19C8.25195 19 8.2992 18.9942 8.34557 18.9827C8.50164 18.9437 12.1955 17.9855 14.6994 14.2464C17.2063 10.5029 16.2289 2.97772 16.1861 2.65915ZM12.968 7.05244L7.92955 12.2613C7.81231 12.3825 7.65856 12.4432 7.50488 12.4432C7.35121 12.4432 7.19745 12.3826 7.08021 12.2613L3.965 9.04071C3.85232 8.9243 3.78906 8.76634 3.78906 8.60168C3.78906 8.43701 3.8524 8.27905 3.965 8.16264L4.58354 7.52318C4.8181 7.28077 5.1984 7.28069 5.43287 7.52318L7.50488 9.66527L11.5001 5.53483C11.6127 5.41835 11.7655 5.35294 11.9248 5.35294C12.084 5.35294 12.2368 5.41835 12.3494 5.53483L12.968 6.17429C13.2025 6.41678 13.2025 6.80995 12.968 7.05244Z" fill="#289728"/>
</svg>
