<svg width="21" height="21" viewBox="0 0 21 21" fill="none" xmlns="http://www.w3.org/2000/svg">
<path d="M20.9244 16.5771L19.7047 12.971C20.2926 11.75 20.6033 10.3921 20.6054 9.02583C20.609 6.65018 19.7043 4.40395 18.0578 2.70096C16.4111 0.997628 14.2167 0.0387923 11.8788 0.00116563C9.45453 -0.0377528 7.17586 0.89904 5.46276 2.63937C3.81089 4.31749 2.89469 6.5298 2.86569 8.8939C1.23761 10.1392 0.276656 12.0808 0.279814 14.1546C0.281332 15.125 0.496336 16.0897 0.903745 16.962L0.0636205 19.4458C-0.0807956 19.8728 0.0246967 20.3364 0.338959 20.6556C0.560115 20.8804 0.851696 21 1.15156 21C1.27773 21 1.40537 20.9788 1.52985 20.9354L3.97475 20.0819C4.83341 20.4958 5.78297 20.7142 6.73822 20.7157C6.74167 20.7157 6.74495 20.7157 6.74839 20.7157C8.8201 20.7157 10.7458 19.7142 11.9671 18.0197C13.2381 17.9857 14.4956 17.6731 15.6324 17.1082L19.182 18.3473C19.33 18.3989 19.4816 18.4241 19.6315 18.4241C19.9879 18.4241 20.3344 18.2819 20.5973 18.0148C20.9707 17.6354 21.096 17.0845 20.9244 16.5771ZM6.74831 19.4458C6.74565 19.4458 6.74282 19.4458 6.74015 19.4458C5.89465 19.4446 5.05502 19.2328 4.31219 18.8335C4.15945 18.7515 3.98012 18.7373 3.8168 18.7943L1.3098 19.6694L2.17125 17.1226C2.22736 16.9566 2.21342 16.7744 2.13261 16.6193C1.7396 15.8646 1.53116 15.0116 1.52985 14.1526C1.52776 12.771 2.05682 11.4614 2.98201 10.4807C3.28421 12.3523 4.16223 14.077 5.52322 15.435C6.87415 16.7831 8.57228 17.6413 10.4045 17.9219C9.43705 18.8907 8.13292 19.4458 6.74831 19.4458ZM19.7133 17.1169C19.6777 17.153 19.6356 17.1628 19.5881 17.1462L15.7881 15.8197C15.7221 15.7966 15.6535 15.7852 15.5851 15.7852C15.4842 15.7852 15.3837 15.81 15.2928 15.8589C14.2078 16.442 12.9818 16.7513 11.7471 16.7532C11.743 16.7532 11.7393 16.7532 11.7353 16.7532C7.59832 16.7532 4.18118 13.3391 4.11564 9.13733C4.08262 7.02119 4.87496 5.0324 6.34665 3.53729C7.81833 2.04218 9.77629 1.23751 11.859 1.27085C15.9989 1.33756 19.3618 4.81551 19.3554 9.02383C19.3535 10.2781 19.0491 11.5237 18.4752 12.6259C18.3944 12.781 18.3804 12.9632 18.4365 13.1292L19.7423 16.9897C19.7586 17.038 19.7488 17.0808 19.7133 17.1169Z" fill="#A9B3C2"/>
<path d="M15.4585 5.64613H8.01168C7.66649 5.64613 7.38668 5.93044 7.38668 6.28108C7.38668 6.63176 7.66653 6.91602 8.01168 6.91602H15.4585C15.8037 6.91602 16.0835 6.63172 16.0835 6.28108C16.0835 5.93044 15.8037 5.64613 15.4585 5.64613Z" fill="#A9B3C2"/>
<path d="M15.4585 8.25754H8.01168C7.66649 8.25754 7.38668 8.54185 7.38668 8.89249C7.38668 9.24313 7.66653 9.52743 8.01168 9.52743H15.4585C15.8037 9.52743 16.0835 9.24313 16.0835 8.89249C16.0835 8.54185 15.8037 8.25754 15.4585 8.25754Z" fill="#A9B3C2"/>
<path d="M12.592 10.8689H8.01164C7.66645 10.8689 7.38664 11.1532 7.38664 11.5038C7.38664 11.8545 7.66649 12.1388 8.01164 12.1388H12.5919C12.9371 12.1388 13.2169 11.8545 13.2169 11.5038C13.2169 11.1532 12.9372 10.8689 12.592 10.8689Z" fill="#A9B3C2"/>
</svg>
