<svg width="23" height="21" viewBox="0 0 23 21" fill="none" xmlns="http://www.w3.org/2000/svg">
<path d="M12.1148 13.73H6.46094V8.07617H12.1148V13.73ZM8.07632 12.1146H10.4994V9.69156H8.07632V12.1146Z" fill="white"/>
<path d="M12.1148 20.9995H6.46094V15.3457H12.1148V20.9995ZM8.07632 19.3842H10.4994V16.9611H8.07632V19.3842Z" fill="white"/>
<path d="M19.3843 13.73H13.7305V8.07617H19.3843V13.73ZM15.3459 12.1146H17.7689V9.69156H15.3459V12.1146Z" fill="white"/>
<path d="M19.3843 20.9995H13.7305V15.3457H19.3843V20.9995ZM15.3459 19.3842H17.7689V16.9611H15.3459V19.3842Z" fill="white"/>
<path d="M4.84615 19.3846H1.61538C1.18709 19.3842 0.776458 19.2139 0.473607 18.911C0.170757 18.6082 0.000427654 18.1975 0 17.7692V1.61539C0.000427654 1.1871 0.170757 0.776464 0.473607 0.473614C0.776458 0.170763 1.18709 0.000433536 1.61538 5.88156e-06H7.74254C7.95475 -0.000568759 8.16496 0.0409698 8.361 0.122215C8.55705 0.20346 8.73502 0.322798 8.88461 0.473314L11.6421 3.23078H21C21.4283 3.2312 21.8389 3.40153 22.1418 3.70438C22.4446 4.00723 22.615 4.41786 22.6154 4.84616V11.3077H21V4.84616H10.9733L7.74254 1.61539H1.61538V17.7692H4.84615V19.3846Z" fill="white"/>
</svg>
