<svg width="12" height="17" viewBox="0 0 12 17" fill="none" xmlns="http://www.w3.org/2000/svg">
<path d="M11.9998 7.28583V4.85729C12.0019 4.7775 11.9869 4.69819 11.9559 4.62482C11.9248 4.55146 11.8784 4.48577 11.8198 4.4323L7.61987 0.182347C7.56705 0.123057 7.50215 0.0760683 7.42964 0.0446227C7.35713 0.0131771 7.27874 -0.00197673 7.19988 0.000206451H1.19998C0.882018 0.00116738 0.57735 0.129408 0.352515 0.35692C0.127681 0.584432 0.000949621 0.892728 0 1.21448V15.7857C0 16.1078 0.126426 16.4166 0.351466 16.6443C0.576506 16.8721 0.881726 17 1.19998 17H10.7998V15.7857H1.19998V1.21448H5.9999V4.85729C6.00085 5.17904 6.12758 5.48734 6.35242 5.71485C6.57725 5.94236 6.88192 6.0706 7.19988 6.07156H10.7998V7.28583H11.9998ZM7.19988 4.85729V1.45733L10.5598 4.85729H7.19988Z" fill="#4DA234"/>
<path d="M3.99967 9.00065H9.99967V10.6673H10.6663V9.00065C10.6663 8.63398 10.3663 8.33398 9.99967 8.33398H3.99967C3.63301 8.33398 3.33301 8.63398 3.33301 9.00065V13.0007C3.33301 13.3673 3.63301 13.6673 3.99967 13.6673H6.99967V13.0007H3.99967V9.00065Z" fill="#4DA234"/>
<path d="M8 10.9993L6 9.66602V12.3327L8 10.9993ZM10.57 13.1427C10.58 13.046 10.5833 12.9493 10.5733 12.856L10.93 12.5727C10.9633 12.546 10.97 12.5027 10.95 12.466L10.6067 11.8693C10.5867 11.8327 10.5433 11.8193 10.5033 11.8327L10.0767 11.9993C9.99951 11.9424 9.91553 11.8954 9.82667 11.8593L9.76 11.406C9.75761 11.3857 9.74778 11.3669 9.7324 11.3534C9.71701 11.3398 9.69716 11.3325 9.67667 11.3327H8.98667C8.94667 11.3327 8.91 11.3627 8.90333 11.4027L8.83667 11.856C8.75 11.8927 8.66667 11.9427 8.59 11.996L8.16333 11.8293C8.12333 11.8127 8.08 11.8293 8.06 11.866L7.71667 12.4627C7.69667 12.4993 7.70333 12.5427 7.73667 12.5693L8.09333 12.856C8.08333 12.9527 8.08 13.0493 8.09 13.1427L7.73333 13.426C7.7 13.4527 7.69333 13.496 7.71333 13.5327L8.05667 14.1293C8.07667 14.166 8.12 14.1793 8.16 14.166L8.58333 13.9993C8.66 14.056 8.74333 14.1027 8.83333 14.1393L8.9 14.5927C8.90667 14.6327 8.94 14.6627 8.98333 14.6627H9.67333C9.71333 14.6627 9.75 14.6327 9.75667 14.5927L9.82333 14.1393C9.91 14.1027 9.99333 14.0527 10.07 13.9993L10.4967 14.166C10.5367 14.1827 10.58 14.166 10.6 14.1293L10.9433 13.5327C10.9633 13.496 10.9567 13.4527 10.9233 13.426L10.57 13.1427ZM9.33333 13.4993C9.05667 13.4993 8.83333 13.276 8.83333 12.9993C8.83333 12.7227 9.05667 12.4993 9.33333 12.4993C9.61 12.4993 9.83333 12.7227 9.83333 12.9993C9.83333 13.276 9.61 13.4993 9.33333 13.4993Z" fill="#4DA234"/>
</svg>
