<svg width="12" height="11" viewBox="0 0 12 11" fill="none" xmlns="http://www.w3.org/2000/svg">
<path d="M10.7423 3.72227C10.4842 3.10757 10.1087 2.54885 9.63677 2.07725C9.16624 1.60483 8.60731 1.22922 7.99172 0.971766C7.36109 0.706738 6.68352 0.570885 5.99925 0.572276H5.97624C5.28026 0.57572 4.60729 0.713475 3.97343 0.984393C3.36311 1.24449 2.80943 1.62076 2.34333 2.09217C1.87597 2.56271 1.50478 3.11948 1.25047 3.73146C0.986471 4.36784 0.852703 5.05049 0.857036 5.73923C0.860487 6.53592 1.05145 7.32686 1.40807 8.034V9.7789C1.40807 10.0705 1.64505 10.307 1.9361 10.307H3.68238C4.39432 10.6654 5.17996 10.8541 5.9774 10.858H6.00155C6.68948 10.858 7.35556 10.7248 7.98366 10.4642C8.59614 10.2098 9.15298 9.83862 9.62296 9.37137C10.0969 8.90186 10.4696 8.35314 10.7308 7.74127C11.0011 7.1076 11.1392 6.43375 11.1426 5.73809C11.1449 5.03898 11.0092 4.36054 10.7423 3.72227ZM3.70309 6.26615C3.39938 6.26615 3.15205 6.01934 3.15205 5.71513C3.15205 5.41092 3.39938 5.16411 3.70309 5.16411C4.00679 5.16411 4.25412 5.41092 4.25412 5.71513C4.25412 6.01934 4.00794 6.26615 3.70309 6.26615ZM5.99925 6.26615C5.69555 6.26615 5.44822 6.01934 5.44822 5.71513C5.44822 5.41092 5.69555 5.16411 5.99925 5.16411C6.30295 5.16411 6.55029 5.41092 6.55029 5.71513C6.55029 6.01934 6.30295 6.26615 5.99925 6.26615ZM8.29542 6.26615C7.99172 6.26615 7.74439 6.01934 7.74439 5.71513C7.74439 5.41092 7.99172 5.16411 8.29542 5.16411C8.59912 5.16411 8.84645 5.41092 8.84645 5.71513C8.84645 6.01934 8.59912 6.26615 8.29542 6.26615Z" fill="#414B5B" fill-opacity="0.7"/>
</svg>
