<svg width="24" height="13" viewBox="0 0 24 13" fill="none" xmlns="http://www.w3.org/2000/svg">
<path d="M0.9 12V12.1H1H1.85938H1.95938V12C1.95938 9.49638 3.99638 7.45937 6.5 7.45937C9.00362 7.45937 11.0406 9.49638 11.0406 12V12.1H11.1406H12H12.1V12C12.1 10.5044 11.5174 9.09778 10.4598 8.04019L10.3891 8.1109L10.4598 8.04019C9.89588 7.47628 9.23247 7.0476 8.50913 6.77007C9.28142 6.16975 9.77969 5.23198 9.77969 4.17969C9.77969 2.37118 8.3085 0.9 6.5 0.9C4.6915 0.9 3.22031 2.37118 3.22031 4.17969C3.22031 5.23198 3.71858 6.16976 4.49089 6.77007C3.76755 7.0476 3.10414 7.47628 2.54021 8.04019L2.61092 8.1109L2.54021 8.04019C1.48264 9.09778 0.9 10.5044 0.9 12ZM6.5 6.4C5.27581 6.4 4.27969 5.4039 4.27969 4.17969C4.27969 2.95548 5.27581 1.95938 6.5 1.95938C7.72419 1.95938 8.72031 2.95548 8.72031 4.17969C8.72031 5.4039 7.72419 6.4 6.5 6.4Z" fill="#8794A8" stroke="#8794A8" stroke-width="0.2"/>
<path d="M21.7285 8.68902L21.7285 8.68902C21.264 8.22456 20.7188 7.86977 20.1244 7.6374C20.7587 7.13348 21.1666 6.35549 21.1666 5.48372C21.1666 3.96743 19.9331 2.73398 18.4168 2.73398C16.9005 2.73398 15.6671 3.96743 15.6671 5.48372C15.6671 6.35549 16.075 7.13348 16.7093 7.6374C16.1149 7.86977 15.5697 8.22456 15.1052 8.68902L15.1759 8.75973L15.1052 8.68902C14.2208 9.57347 13.7335 10.7499 13.7335 12.0007V12.1007H13.8335H14.5496H14.6496V12.0007C14.6496 9.9235 16.3397 8.23346 18.4168 8.23346C20.494 8.23346 22.184 9.9235 22.184 12.0007V12.1007H22.284H23.0002H23.1002V12.0007C23.1002 10.7499 22.6129 9.57347 21.7285 8.68902ZM18.4168 7.31732C17.4059 7.31732 16.5832 6.49469 16.5832 5.48372C16.5832 4.47276 17.4059 3.65013 18.4168 3.65013C19.4278 3.65013 20.2504 4.47276 20.2504 5.48372C20.2504 6.49469 19.4278 7.31732 18.4168 7.31732Z" fill="#8794A8" stroke="#8794A8" stroke-width="0.2"/>
</svg>
