<svg width="17" height="22" viewBox="0 0 17 22" fill="none" xmlns="http://www.w3.org/2000/svg">
<path d="M16.0359 17.5739L15.9869 17.564L16.0359 17.5739C16.0935 17.2874 15.9712 16.9997 15.7157 16.8729C15.6563 16.8314 15.25 16.5233 14.8409 15.6099C14.0744 13.8984 13.9122 11.482 13.9122 9.75098C13.9122 9.74305 13.9121 9.73526 13.9118 9.72753C13.9031 7.43209 12.6067 5.45033 10.7456 4.55029V3.22797C10.7456 1.97448 9.78005 0.95 8.58736 0.95H8.41263C7.21994 0.95 6.25435 1.97448 6.25435 3.22797V4.55021C4.38685 5.45327 3.08778 7.4455 3.08778 9.75098C3.08778 11.482 2.9256 13.8983 2.15908 15.6099C1.75004 16.5233 1.34368 16.8314 1.28425 16.8729C1.02881 16.9997 0.906427 17.2874 0.964084 17.5739C1.02342 17.8688 1.28449 18.072 1.57003 18.072H5.59188C5.63943 19.7201 6.92278 21.05 8.50001 21.05C10.0772 21.05 11.3606 19.7201 11.4081 18.072H15.43C15.7155 18.072 15.9766 17.8688 16.0359 17.5739ZM2.92446 16.7981H2.92385C3.00609 16.658 3.08921 16.5027 3.17185 16.3308L3.12679 16.3091L3.17185 16.3308C3.92088 14.7725 4.29857 12.5574 4.29857 9.75098C4.29857 7.29873 6.18588 5.3084 8.49983 5.3084C10.8138 5.3084 12.7011 7.29871 12.7011 9.75293C12.7011 9.76036 12.7012 9.76786 12.7015 9.77543C12.7036 12.5702 13.0813 14.7771 13.8282 16.3308C13.9108 16.5027 13.994 16.658 14.0762 16.7981H10.7363H10.7362H10.736H10.7355H10.7349H10.7341H10.7331H10.7319H10.7306H10.7291H10.7274H10.7255H10.7235H10.7213H10.7189H10.7164H10.7137H10.7108H10.7077H10.7045H10.7011H10.6975H10.6938H10.6899H10.6859H10.6816H10.6773H10.6727H10.668H10.6631H10.6581H10.6529H10.6476H10.6421H10.6364H10.6306H10.6246H10.6185H10.6122H10.6058H10.5992H10.5924H10.5855H10.5785H10.5713H10.5639H10.5564H10.5488H10.541H10.5331H10.525H10.5167H10.5084H10.4999H10.4912H10.4824H10.4734H10.4643H10.4551H10.4457H10.4362H10.4266H10.4168H10.4069H10.3968H10.3866H10.3763H10.3658H10.3552H10.3445H10.3336H10.3226H10.3115H10.3003H10.2889H10.2774H10.2657H10.254H10.2421H10.2301H10.2179H10.2056H10.1932H10.1807H10.1681H10.1553H10.1425H10.1295H10.1163H10.1031H10.0897H10.0763H10.0627H10.049H10.0352H10.0212H10.0072H9.99302H9.97874H9.96436H9.94986H9.93526H9.92054H9.90571H9.89078H9.87574H9.8606H9.84534H9.82998H9.81452H9.79896H9.78329H9.76752H9.75164H9.73567H9.71959H9.70342H9.68714H9.67077H9.6543H9.63774H9.62108H9.60432H9.58747H9.57052H9.55348H9.53635H9.51913H9.50181H9.48441H9.46691H9.44933H9.43166H9.4139H9.39605H9.37812H9.3601H9.342H9.32381H9.30554H9.28719H9.26875H9.25024H9.23164H9.21297H9.19421H9.17538H9.15646H9.13748H9.11841H9.09927H9.08006H9.06077H9.0414H9.02197H9.00246H8.98288H8.96323H8.94351H8.92372H8.90387H8.88394H8.86395H8.84389H8.82376H8.80358H8.78332H8.763H8.74262H8.72218H8.70168H8.68111H8.66049H8.63981H8.61906H8.59826H8.57741H8.55649H8.53552H8.5145H8.49342H8.47229H8.4511H8.42986H8.40857H8.38723H8.36584H8.3444H8.32291H8.30137H8.27979H8.25816H8.23648H8.21476H8.19299H8.17118H8.14933H8.12743H8.1055H8.08352H8.0615H8.03944H8.01734H7.99521H7.97304H7.95083H7.92858H7.9063H7.88398H7.86164H7.83925H7.81684H7.79439H7.77191H7.7494H7.72687H7.7043H7.6817H7.65908H7.63643H7.61376H7.59106H7.56833H7.54558H7.52281H7.50001H7.47719H7.45436H7.4315H7.40862H7.38572H7.3628H7.33987H7.31692H7.29395H7.27097H7.24797H7.22496H7.20193H7.17889H7.15584H7.13278H7.10971H7.08663H7.06354H7.04044H7.01733H6.99422H6.9711H6.94797H6.92484H6.90171H6.87857H6.85542H6.83228H6.80914H6.78599H6.76284H6.7397H6.71655H6.69341H6.67027H6.64714H6.62401H6.60088H6.57776H6.55465H6.53154H6.50844H6.48535H6.46227H6.4392H6.41613H6.39308H6.37005H6.34702H6.32401H6.30101H6.27803H6.25506H6.23211H6.20918H6.18626H6.16336H6.14048H6.11762H6.09479H6.07197H6.04917H6.0264H6.00365H5.98092H5.95822H5.93555H5.9129H5.89028H5.86768H5.84511H5.82258H5.80007H5.77759H5.75514H5.73273H5.71035H5.688H5.66568H5.6434H5.62116H5.59895H5.57677H5.55464H5.53254H5.51048H5.48847H5.46649H5.44455H5.42265H5.4008H5.37899H5.35722H5.3355H5.31383H5.29219H5.27061H5.24907H5.22758H5.20614H5.18475H5.16341H5.14212H5.12089H5.0997H5.07857H5.05749H5.03646H5.01549H4.99458H4.97372H4.95292H4.93218H4.9115H4.89087H4.87031H4.84981H4.82936H4.80898H4.78867H4.76841H4.74822H4.7281H4.70804H4.68805H4.66812H4.64827H4.62848H4.60876H4.58911H4.56953H4.55002H4.53059H4.51123H4.49194H4.47272H4.45358H4.43452H4.41553H4.39662H4.37778H4.35903H4.34035H4.32176H4.30324H4.28481H4.26645H4.24818H4.23H4.2119H4.19388H4.17595H4.1581H4.14034H4.12267H4.10509H4.08759H4.07019H4.05287H4.03565H4.01852H4.00148H3.98453H3.96768H3.95093H3.93426H3.9177H3.90123H3.88486H3.86859H3.85241H3.83634H3.82036H3.80449H3.78872H3.77305H3.75748H3.74202H3.72666H3.71141H3.69626H3.68123H3.66629H3.65147H3.63675H3.62215H3.60765H3.59327H3.57899H3.56483H3.55078H3.53685H3.52303H3.50933H3.49574H3.48226H3.46891H3.45567H3.44255H3.42955H3.41668H3.40392H3.39128H3.37877H3.36638H3.35411H3.34196H3.32995H3.31805H3.30629H3.29465H3.28314H3.27175H3.2605H3.24938H3.23838H3.22752H3.21679H3.20619H3.19573H3.1854H3.17521H3.16515H3.15523H3.14544H3.1358H3.12629H3.11692H3.10769H3.0986H3.08965H3.08084H3.07218H3.06366H3.05528H3.04705H3.03897H3.03103H3.02324H3.01559H3.00809H3.00075H2.99355H2.9865H2.97961H2.97286H2.96627H2.95983H2.95355H2.94742H2.94144H2.93563H2.92996H2.92446ZM7.46514 3.22797C7.46514 2.67166 7.89281 2.22379 8.41267 2.22379H8.58739C9.10726 2.22379 9.53492 2.67166 9.53492 3.22797V4.13959C9.19976 4.07074 8.85372 4.03461 8.49987 4.03461C8.14612 4.03461 7.8002 4.0707 7.46518 4.13949L7.46514 3.22797ZM8.50001 19.7762C7.59538 19.7762 6.85014 19.0224 6.8034 18.072H10.1966C10.1499 19.0224 9.40465 19.7762 8.50001 19.7762Z" fill="#A9B3C2" stroke="#A9B3C2" stroke-width="0.1"/>
</svg>
