<svg width="24" height="24" viewBox="0 0 24 24" fill="none" xmlns="http://www.w3.org/2000/svg">
<rect width="24" height="24" rx="4" fill="#2CBBBF"/>
<path d="M7.31644 19.1631C6.53584 19.1631 6.14554 19.0234 6.14554 18.7441C6.14554 18.6654 6.17061 18.5508 6.22074 18.4004L10.4317 6.12207C10.5319 5.84993 10.8936 5.71387 11.5166 5.71387H12.5049C13.128 5.71387 13.4896 5.84993 13.5899 6.12207L17.8008 18.4004C17.8366 18.5436 17.8545 18.6582 17.8545 18.7441C17.8545 18.8874 17.7758 18.9948 17.6182 19.0664C17.4678 19.1309 17.2279 19.1631 16.8985 19.1631H16.0606C15.7598 19.1631 15.5163 19.1344 15.3301 19.0771C15.1511 19.0127 15.0401 18.9089 14.9971 18.7656L14.2237 16.4346H9.72269L8.94926 18.7656C8.87048 19.0306 8.57686 19.1631 8.0684 19.1631H7.31644ZM13.4073 13.9102L12.3223 10.5156C12.2578 10.3438 12.2006 10.1468 12.1504 9.9248C12.1075 9.7028 12.0681 9.49154 12.0323 9.29102H11.9571L11.9141 9.52734C11.8425 9.94987 11.7601 10.2793 11.667 10.5156L10.5391 13.9102H13.4073Z" fill="white"/>
</svg>
