<svg width="16" height="19" viewBox="0 0 16 19" fill="none" xmlns="http://www.w3.org/2000/svg">
<path d="M8.0001 18.5117C8.9901 18.5117 9.8001 17.7017 9.8001 16.7117H6.2001C6.2001 17.7017 7.0101 18.5117 8.0001 18.5117ZM13.8501 13.1117V8.16172C13.8501 5.37172 11.9601 3.12172 9.3501 2.49172V1.86172C9.3501 1.14172 8.7201 0.511719 8.0001 0.511719C7.2801 0.511719 6.6501 1.14172 6.6501 1.86172V2.49172C4.0401 3.12172 2.1501 5.37172 2.1501 8.16172V13.1117L0.350098 14.9117V15.8117H15.6501V14.9117L13.8501 13.1117ZM12.0501 14.0117H3.9501V8.16172C3.9501 5.91172 5.7501 4.11172 8.0001 4.11172C10.2501 4.11172 12.0501 5.91172 12.0501 8.16172V14.0117Z" fill="#414B5B"/>
</svg>
