<svg width="24" height="24" viewBox="0 0 24 24" fill="none" xmlns="http://www.w3.org/2000/svg">
<rect width="24" height="24" rx="4" fill="#006600"/>
<path d="M8.86332 19.1309C8.59834 19.1309 8.40498 19.07 8.28324 18.9482C8.1615 18.8265 8.10062 18.6331 8.10062 18.3682V6.51953C8.10062 6.25456 8.1615 6.06478 8.28324 5.9502C8.40498 5.82845 8.59834 5.76758 8.86332 5.76758H15.8565C16.057 5.76758 16.2002 5.84277 16.2862 5.99316C16.3793 6.14355 16.4258 6.38704 16.4258 6.72363V7.30371C16.4258 7.6403 16.3793 7.88379 16.2862 8.03418C16.2002 8.18457 16.057 8.25977 15.8565 8.25977H11.044V11.0312H15.3409C15.5414 11.0312 15.6846 11.1064 15.7705 11.2568C15.8636 11.4072 15.9102 11.6507 15.9102 11.9873V12.5781C15.9102 12.9147 15.8636 13.1582 15.7705 13.3086C15.6846 13.459 15.5414 13.5342 15.3409 13.5342H11.044V16.6279H15.8672C16.0677 16.6279 16.211 16.7031 16.2969 16.8535C16.39 17.0039 16.4366 17.2438 16.4366 17.5732V18.1748C16.4366 18.5114 16.39 18.7549 16.2969 18.9053C16.211 19.0557 16.0677 19.1309 15.8672 19.1309H8.86332Z" fill="white"/>
</svg>
