<svg width="16" height="16" viewBox="0 0 16 16" fill="none" xmlns="http://www.w3.org/2000/svg">
<path d="M8 0C3.58174 0 0 3.58174 0 8C0 12.4183 3.58174 16 8 16C12.4183 16 16 12.4183 16 8C16 3.5817 12.4183 0 8 0ZM9.33332 13.1256C9.33332 13.4273 9.08866 13.672 8.78689 13.672H7.28772C6.98595 13.672 6.74129 13.4273 6.74129 13.1256V7.04268C6.74129 6.7409 6.98591 6.49624 7.28772 6.49624H8.78689C9.08866 6.49624 9.33332 6.74087 9.33332 7.04268V13.1256ZM8 5.46087C7.25082 5.46087 6.64348 4.85353 6.64348 4.10435C6.64348 3.35517 7.25082 2.74783 8 2.74783C8.74918 2.74783 9.35652 3.35517 9.35652 4.10435C9.35652 4.85353 8.74918 5.46087 8 5.46087Z" fill="#CC9900"/>
</svg>
