<svg width="24" height="24" viewBox="0 0 24 24" fill="none" xmlns="http://www.w3.org/2000/svg">
<rect width="24" height="24" rx="4" fill="#7AAD4F"/>
<path d="M9.46488 19.1309C9.19991 19.1309 9.00655 19.07 8.8848 18.9482C8.76306 18.8265 8.70219 18.6331 8.70219 18.3682V6.33691C8.70219 6.12923 8.79528 5.97526 8.98148 5.875C9.16768 5.76758 9.45772 5.71387 9.8516 5.71387H10.4961C10.89 5.71387 11.18 5.76758 11.3662 5.875C11.5524 5.97526 11.6455 6.12923 11.6455 6.33691V16.6279H15.8995C16.1 16.6279 16.2432 16.7031 16.3291 16.8535C16.4222 17.0039 16.4688 17.2438 16.4688 17.5732V18.1748C16.4688 18.5114 16.4222 18.7549 16.3291 18.9053C16.2432 19.0557 16.1 19.1309 15.8995 19.1309H9.46488Z" fill="white"/>
</svg>
