<svg width="20" height="21" viewBox="0 0 20 21" fill="none" xmlns="http://www.w3.org/2000/svg">
<path d="M10 0.269531C4.47707 0.269531 0 4.74676 0 10.2695C0 15.7926 4.47707 20.2695 10 20.2695C15.5229 20.2695 20 15.7926 20 10.2695C20 4.74676 15.5229 0.269531 10 0.269531ZM10 5.26953C10.6904 5.26953 11.25 5.82922 11.25 6.51953C11.25 7.21016 10.6904 7.76953 10 7.76953C9.30961 7.76953 8.75 7.21016 8.75 6.51953C8.75 5.82922 9.30961 5.26953 10 5.26953ZM11.875 15.2695H8.125C7.77984 15.2695 7.5 14.99 7.5 14.6445C7.5 14.2994 7.77984 14.0195 8.125 14.0195H8.75V10.2695H8.125C7.77984 10.2695 7.5 9.99 7.5 9.64453C7.5 9.29937 7.77984 9.01953 8.125 9.01953H10.625C10.9702 9.01953 11.25 9.29937 11.25 9.64453V14.0195H11.875C12.2202 14.0195 12.5 14.2994 12.5 14.6445C12.5 14.99 12.2202 15.2695 11.875 15.2695Z" fill="white"/>
</svg>
