<svg width="24" height="24" viewBox="0 0 24 24" fill="none" xmlns="http://www.w3.org/2000/svg">
<rect width="24" height="24" rx="4" fill="#CC9900"/>
<path d="M12.1289 19.292C11.2266 19.292 10.4317 19.2025 9.74418 19.0234C9.06384 18.8372 8.54105 18.6117 8.17582 18.3467C7.81775 18.0817 7.63871 17.8311 7.63871 17.5947C7.63871 17.4085 7.70674 17.1794 7.84281 16.9072C7.98604 16.6351 8.15433 16.4023 8.34769 16.209C8.54105 16.0085 8.70219 15.9082 8.83109 15.9082C8.90987 15.9082 9.07816 15.9762 9.33597 16.1123C9.72269 16.3128 10.0879 16.474 10.4317 16.5957C10.7826 16.7174 11.1836 16.7783 11.6348 16.7783C12.1361 16.7783 12.5586 16.6816 12.9024 16.4883C13.2533 16.2878 13.4287 15.9404 13.4287 15.4463C13.4287 15.1598 13.3392 14.9128 13.1602 14.7051C12.9812 14.4974 12.752 14.3219 12.4727 14.1787C12.1934 14.0355 11.8138 13.8672 11.334 13.6738L10.4854 13.3086C9.96976 13.0579 9.52575 12.7822 9.15336 12.4814C8.78812 12.1807 8.48734 11.7832 8.25101 11.2891C8.02185 10.7949 7.90726 10.1898 7.90726 9.47363C7.90726 8.59993 8.12211 7.87305 8.55179 7.29297C8.98148 6.71289 9.54008 6.28678 10.2276 6.01465C10.9151 5.74251 11.6527 5.60645 12.4405 5.60645C13.085 5.60645 13.6687 5.67448 14.1914 5.81055C14.7142 5.93945 15.1224 6.10775 15.4161 6.31543C15.7168 6.52311 15.8672 6.73079 15.8672 6.93848C15.8672 7.11035 15.8099 7.33236 15.6953 7.60449C15.5879 7.86947 15.4519 8.10221 15.2871 8.30273C15.1224 8.50326 14.9685 8.60352 14.8252 8.60352C14.7608 8.60352 14.6462 8.56771 14.4815 8.49609C14.2165 8.38867 13.948 8.30273 13.6758 8.23828C13.4108 8.16667 13.085 8.13086 12.6983 8.13086C12.0323 8.13086 11.5703 8.23828 11.3125 8.45312C11.0547 8.66081 10.9258 8.90788 10.9258 9.19434C10.9258 9.52376 11.0118 9.79948 11.1836 10.0215C11.3627 10.2435 11.5847 10.4261 11.8496 10.5693C12.1218 10.7126 12.4978 10.8773 12.9776 11.0635C13.7009 11.3714 14.2917 11.665 14.75 11.9443C15.2084 12.2165 15.6023 12.6104 15.9317 13.126C16.2683 13.6416 16.4366 14.3005 16.4366 15.1025C16.4366 16.0837 16.2289 16.8893 15.8135 17.5195C15.4053 18.1426 14.8754 18.5938 14.2237 18.873C13.5791 19.1523 12.8809 19.292 12.1289 19.292Z" fill="white"/>
</svg>
