<svg width="202" height="202" viewBox="0 0 202 202" fill="none" xmlns="http://www.w3.org/2000/svg">
<circle opacity="0.5" cx="101" cy="101" r="101" fill="#EBF8E7"/>
<mask id="mask0" style="mask-type:alpha" maskUnits="userSpaceOnUse" x="0" y="0" width="202" height="202">
<circle cx="101" cy="101" r="101" fill="#DADADA"/>
</mask>
<g mask="url(#mask0)">
<g clip-path="url(#clip0)">
<path d="M103.931 185.313H39.6949C33.4864 185.313 28.4536 180.28 28.4536 174.072V162.83H114.729L103.931 185.313Z" fill="#D3DCFB"/>
<path d="M174.607 95.378V142.606V174.07H39.6949C33.4864 174.07 28.4536 169.037 28.4536 162.828V95.378L107.151 67.2734L174.607 95.378Z" fill="#EBF5FC"/>
<path d="M48.3056 117.863H42.3335C40.8785 117.863 39.6987 116.683 39.6987 115.228V109.256C39.6987 107.801 40.8785 106.621 42.3335 106.621H48.3056C49.7606 106.621 50.9404 107.801 50.9404 109.256V115.228C50.9404 116.683 49.7606 117.863 48.3056 117.863Z" fill="#3C58A0"/>
<path d="M70.789 117.863H64.8169C63.3619 117.863 62.1821 116.683 62.1821 115.228V109.256C62.1821 107.801 63.3619 106.621 64.8169 106.621H70.789C72.244 106.621 73.4238 107.801 73.4238 109.256V115.228C73.4238 116.683 72.244 117.863 70.789 117.863Z" fill="#3C58A0"/>
<path d="M93.2724 117.863H87.3003C85.8453 117.863 84.6655 116.683 84.6655 115.228V109.256C84.6655 107.801 85.8453 106.621 87.3003 106.621H93.2724C94.7274 106.621 95.9072 107.801 95.9072 109.256V115.228C95.9072 116.683 94.7278 117.863 93.2724 117.863Z" fill="#3C58A0"/>
<path d="M115.756 117.863H109.784C108.329 117.863 107.149 116.683 107.149 115.228V109.256C107.149 107.801 108.329 106.621 109.784 106.621H115.756C117.211 106.621 118.391 107.801 118.391 109.256V115.228C118.391 116.683 117.211 117.863 115.756 117.863Z" fill="#3C58A0"/>
<path d="M138.236 117.863H132.264C130.809 117.863 129.629 116.683 129.629 115.228V109.256C129.629 107.801 130.809 106.621 132.264 106.621H138.236C139.691 106.621 140.871 107.801 140.871 109.256V115.228C140.871 116.683 139.691 117.863 138.236 117.863Z" fill="#3C58A0"/>
<path d="M160.719 117.863H154.747C153.292 117.863 152.112 116.683 152.112 115.228V109.256C152.112 107.801 153.292 106.621 154.747 106.621H160.719C162.174 106.621 163.354 107.801 163.354 109.256V115.228C163.354 116.683 162.174 117.863 160.719 117.863Z" fill="#3C58A0"/>
<path d="M48.3056 140.345H42.3335C40.8785 140.345 39.6987 139.165 39.6987 137.71V131.738C39.6987 130.283 40.8785 129.104 42.3335 129.104H48.3056C49.7606 129.104 50.9404 130.283 50.9404 131.738V137.71C50.9404 139.166 49.7606 140.345 48.3056 140.345Z" fill="#3C58A0"/>
<path d="M70.789 140.345H64.8169C63.3619 140.345 62.1821 139.165 62.1821 137.71V131.738C62.1821 130.283 63.3619 129.104 64.8169 129.104H70.789C72.244 129.104 73.4238 130.283 73.4238 131.738V137.71C73.4238 139.166 72.244 140.345 70.789 140.345Z" fill="#3C58A0"/>
<path d="M93.2724 140.345H87.3003C85.8453 140.345 84.6655 139.165 84.6655 137.71V131.738C84.6655 130.283 85.8453 129.104 87.3003 129.104H93.2724C94.7274 129.104 95.9072 130.283 95.9072 131.738V137.71C95.9072 139.166 94.7278 140.345 93.2724 140.345Z" fill="#3C58A0"/>
<path d="M118.391 140.345V131.914C118.391 130.362 117.133 129.104 115.581 129.104H109.96C108.408 129.104 107.149 130.362 107.149 131.914V137.535C107.149 139.087 108.408 140.345 109.96 140.345H118.391Z" fill="#3C58A0"/>
<path d="M48.3056 162.83H42.3335C40.8785 162.83 39.6987 161.65 39.6987 160.195V154.223C39.6987 152.768 40.8785 151.588 42.3335 151.588H48.3056C49.7606 151.588 50.9404 152.768 50.9404 154.223V160.195C50.9404 161.65 49.7606 162.83 48.3056 162.83Z" fill="#3C58A0"/>
<path d="M70.789 162.83H64.8169C63.3619 162.83 62.1821 161.65 62.1821 160.195V154.223C62.1821 152.768 63.3619 151.588 64.8169 151.588H70.789C72.244 151.588 73.4238 152.768 73.4238 154.223V160.195C73.4238 161.65 72.244 162.83 70.789 162.83Z" fill="#3C58A0"/>
<path d="M93.2724 162.83H87.3003C85.8453 162.83 84.6655 161.65 84.6655 160.195V154.223C84.6655 152.768 85.8453 151.588 87.3003 151.588H93.2724C94.7274 151.588 95.9072 152.768 95.9072 154.223V160.195C95.9072 161.65 94.7278 162.83 93.2724 162.83Z" fill="#3C58A0"/>
<path d="M160.64 106.621H154.827C154.475 106.621 154.14 106.69 153.832 106.812C154.838 107.209 155.55 108.188 155.55 109.335V115.148C155.55 116.296 154.837 117.275 153.832 117.672C154.14 117.794 154.475 117.863 154.827 117.863H160.64C162.139 117.863 163.354 116.647 163.354 115.149V109.336C163.354 107.836 162.139 106.621 160.64 106.621Z" fill="#2A428C"/>
<path d="M138.156 106.621H132.343C131.992 106.621 131.657 106.69 131.348 106.812C132.354 107.209 133.067 108.188 133.067 109.335V115.148C133.067 116.296 132.354 117.275 131.348 117.672C131.657 117.794 131.992 117.863 132.343 117.863H138.156C139.656 117.863 140.871 116.647 140.871 115.149V109.336C140.871 107.836 139.656 106.621 138.156 106.621Z" fill="#2A428C"/>
<path d="M115.676 106.621H109.863C109.512 106.621 109.177 106.69 108.868 106.812C109.874 107.209 110.587 108.188 110.587 109.335V115.148C110.587 116.296 109.874 117.275 108.868 117.672C109.177 117.794 109.512 117.863 109.863 117.863H115.676C117.176 117.863 118.391 116.647 118.391 115.149V109.336C118.391 107.836 117.175 106.621 115.676 106.621Z" fill="#2A428C"/>
<path d="M93.1931 106.621H87.3801C87.0283 106.621 86.6934 106.69 86.3848 106.812C87.3909 107.209 88.104 108.188 88.104 109.335V115.148C88.104 116.296 87.3909 117.275 86.3848 117.672C86.6934 117.794 87.0283 117.863 87.3801 117.863H93.1931C94.6922 117.863 95.9075 116.647 95.9075 115.149V109.336C95.9072 107.836 94.6922 106.621 93.1931 106.621Z" fill="#2A428C"/>
<path d="M70.7096 106.621H64.8967C64.5449 106.621 64.21 106.69 63.9014 106.812C64.9075 107.209 65.6202 108.188 65.6202 109.335V115.148C65.6202 116.296 64.9072 117.275 63.9014 117.672C64.21 117.794 64.5449 117.863 64.8967 117.863H70.7096C72.2088 117.863 73.4241 116.647 73.4241 115.149V109.336C73.4241 107.836 72.2088 106.621 70.7096 106.621Z" fill="#2A428C"/>
<path d="M48.2262 106.621H42.4133C42.0615 106.621 41.7266 106.69 41.418 106.812C42.4241 107.209 43.1372 108.188 43.1372 109.335V115.148C43.1372 116.296 42.4241 117.275 41.418 117.672C41.7266 117.794 42.0615 117.863 42.4133 117.863H48.2262C49.7254 117.863 50.9407 116.647 50.9407 115.149V109.336C50.9404 107.836 49.7251 106.621 48.2262 106.621Z" fill="#2A428C"/>
<path d="M48.2262 129.104H42.4133C42.0615 129.104 41.7266 129.173 41.418 129.294C42.4241 129.691 43.1372 130.67 43.1372 131.818V137.631C43.1372 138.778 42.4241 139.757 41.418 140.154C41.7266 140.276 42.0615 140.345 42.4133 140.345H48.2262C49.7254 140.345 50.9407 139.13 50.9407 137.631V131.818C50.9404 130.319 49.7251 129.104 48.2262 129.104Z" fill="#2A428C"/>
<path d="M48.2262 151.588H42.4133C42.0615 151.588 41.7266 151.657 41.418 151.779C42.4241 152.176 43.1372 153.155 43.1372 154.302V160.115C43.1372 161.263 42.4241 162.242 41.418 162.639C41.7266 162.761 42.0615 162.83 42.4133 162.83H48.2262C49.7254 162.83 50.9407 161.615 50.9407 160.116V154.302C50.9404 152.803 49.7251 151.588 48.2262 151.588Z" fill="#2A428C"/>
<path d="M70.7096 129.104H64.8967C64.5449 129.104 64.21 129.173 63.9014 129.294C64.9075 129.691 65.6202 130.67 65.6202 131.818V137.631C65.6202 138.778 64.9072 139.757 63.9014 140.154C64.21 140.276 64.5449 140.345 64.8967 140.345H70.7096C72.2088 140.345 73.4241 139.13 73.4241 137.631V131.818C73.4241 130.319 72.2088 129.104 70.7096 129.104Z" fill="#2A428C"/>
<path d="M70.7096 151.588H64.8967C64.5449 151.588 64.21 151.657 63.9014 151.779C64.9075 152.176 65.6202 153.155 65.6202 154.302V160.115C65.6202 161.263 64.9072 162.242 63.9014 162.639C64.21 162.761 64.5449 162.83 64.8967 162.83H70.7096C72.2088 162.83 73.4241 161.615 73.4241 160.116V154.302C73.4241 152.803 72.2088 151.588 70.7096 151.588Z" fill="#2A428C"/>
<path d="M93.1931 129.104H87.3801C87.0283 129.104 86.6934 129.173 86.3848 129.294C87.3909 129.691 88.104 130.67 88.104 131.818V137.631C88.104 138.778 87.3909 139.757 86.3848 140.154C86.6934 140.276 87.0283 140.345 87.3801 140.345H93.1931C94.6922 140.345 95.9075 139.13 95.9075 137.631V131.818C95.9072 130.319 94.6922 129.104 93.1931 129.104Z" fill="#2A428C"/>
<path d="M118.391 140.345V131.818C118.391 130.318 117.176 129.104 115.676 129.104H109.863C109.512 129.104 109.177 129.173 108.868 129.294C109.874 129.691 110.587 130.67 110.587 131.818V137.631C110.587 138.778 109.874 139.757 108.868 140.154C109.177 140.276 109.512 140.345 109.863 140.345H118.391V140.345Z" fill="#2A428C"/>
<path d="M93.1931 151.588H87.3801C87.0283 151.588 86.6934 151.657 86.3848 151.779C87.3909 152.176 88.104 153.155 88.104 154.302V160.115C88.104 161.263 87.3909 162.242 86.3848 162.639C86.6934 162.761 87.0283 162.83 87.3801 162.83H93.1931C94.6922 162.83 95.9075 161.615 95.9075 160.116V154.302C95.9072 152.803 94.6922 151.588 93.1931 151.588Z" fill="#2A428C"/>
<path d="M166.798 92.125V142.606V174.071H174.607V142.606V95.3786L166.798 92.125Z" fill="#D3DCFB"/>
<path d="M174.607 95.3791V67.2745C174.607 61.066 169.574 56.0332 163.366 56.0332H39.6949C33.4864 56.0332 28.4536 61.066 28.4536 67.2745V95.3791H174.607Z" fill="#FF4155"/>
<path d="M63.8748 69.8196H56.5577C55.1521 69.8196 54.0132 68.6803 54.0132 67.275C54.0132 65.8697 55.1524 64.7305 56.5577 64.7305H63.8748C65.2805 64.7305 66.4194 65.8697 66.4194 67.275C66.4194 68.6803 65.2802 69.8196 63.8748 69.8196Z" fill="#E80054"/>
<path d="M81.8514 69.8196H74.5343C73.1286 69.8196 71.9897 68.6803 71.9897 67.275C71.9897 65.8697 73.129 64.7305 74.5343 64.7305H81.8514C83.2571 64.7305 84.396 65.8697 84.396 67.275C84.396 68.6803 83.2571 69.8196 81.8514 69.8196Z" fill="#E80054"/>
<path d="M128.519 69.8196H121.201C119.796 69.8196 118.657 68.6803 118.657 67.275C118.657 65.8697 119.796 64.7305 121.201 64.7305H128.519C129.924 64.7305 131.063 65.8697 131.063 67.275C131.063 68.6803 129.924 69.8196 128.519 69.8196Z" fill="#E80054"/>
<path d="M146.495 69.8196H139.178C137.772 69.8196 136.633 68.6803 136.633 67.275C136.633 65.8697 137.773 64.7305 139.178 64.7305H146.495C147.901 64.7305 149.04 65.8697 149.04 67.275C149.04 68.6803 147.901 69.8196 146.495 69.8196Z" fill="#E80054"/>
<path d="M76.2307 65.8693C76.2307 69.7497 73.0851 72.8953 69.2047 72.8953C65.3243 72.8953 62.1787 69.7497 62.1787 65.8693V51.817C62.1784 47.9366 65.324 44.791 69.2044 44.791C73.0847 44.791 76.2303 47.9366 76.2303 51.817V65.8693H76.2307Z" fill="#EBF5FC"/>
<path d="M140.875 65.8693C140.875 69.7497 137.729 72.8953 133.849 72.8953C129.968 72.8953 126.822 69.7497 126.822 65.8693V51.817C126.822 47.9366 129.968 44.791 133.848 44.791C137.729 44.791 140.874 47.9366 140.874 51.817V65.8693H140.875Z" fill="#EBF5FC"/>
<path d="M133.848 44.791C132.405 44.791 131.066 45.2271 129.95 45.9727C131.835 47.2328 133.078 49.3792 133.078 51.8173V65.8693C133.078 68.3071 131.835 70.4538 129.95 71.7139C131.065 72.4592 132.405 72.8956 133.848 72.8956C137.728 72.8956 140.874 69.75 140.874 65.8696V51.817C140.874 47.9366 137.729 44.791 133.848 44.791V44.791Z" fill="#D3DCFB"/>
<path d="M69.2043 44.791C67.7618 44.791 66.422 45.2271 65.3062 45.9727C67.1917 47.2328 68.4343 49.3792 68.4343 51.8173V65.8693C68.4343 68.3071 67.1917 70.4538 65.3062 71.7139C66.4217 72.4592 67.7618 72.8956 69.2043 72.8956C73.0847 72.8956 76.2303 69.75 76.2303 65.8696V51.817C76.2306 47.9366 73.085 44.791 69.2043 44.791V44.791Z" fill="#D3DCFB"/>
<path d="M163.366 56.0332H155.559C161.768 56.0332 166.8 61.066 166.8 67.2745V95.3794H174.607V67.2748C174.607 61.0663 169.574 56.0332 163.366 56.0332Z" fill="#E80054"/>
<path d="M28.4531 81.5918H174.607V86.6812H28.4531V81.5918Z" fill="#E80054"/>
<path d="M143.687 213.417C166.969 213.417 185.843 194.542 185.843 171.26C185.843 147.978 166.969 129.104 143.687 129.104C120.404 129.104 101.53 147.978 101.53 171.26C101.53 194.542 120.404 213.417 143.687 213.417Z" fill="#4FABF7"/>
<path d="M143.687 202.175C160.761 202.175 174.602 188.334 174.602 171.261C174.602 154.187 160.761 140.346 143.687 140.346C126.613 140.346 112.772 154.187 112.772 171.261C112.772 188.334 126.613 202.175 143.687 202.175Z" fill="#EBF5FC"/>
<path d="M143.687 168.184C142.281 168.184 141.142 167.045 141.142 165.64V151.588C141.142 150.182 142.281 149.043 143.687 149.043C145.092 149.043 146.231 150.182 146.231 151.588V165.64C146.231 167.045 145.092 168.184 143.687 168.184Z" fill="#3C58A0"/>
<path d="M157.739 173.806H149.307C147.902 173.806 146.763 172.667 146.763 171.261C146.763 169.856 147.902 168.717 149.307 168.717H157.739C159.145 168.717 160.283 169.856 160.283 171.261C160.283 172.667 159.144 173.806 157.739 173.806Z" fill="#3C58A0"/>
<path d="M143.687 129.104C142.371 129.104 141.07 129.167 139.785 129.285C161.238 131.254 178.039 149.294 178.039 171.26C178.039 193.227 161.237 211.266 139.785 213.235C141.07 213.353 142.371 213.417 143.686 213.417C166.969 213.417 185.843 194.542 185.843 171.26C185.843 147.978 166.969 129.104 143.687 129.104Z" fill="#1886EA"/>
<path d="M143.687 140.346C142.366 140.346 141.065 140.429 139.788 140.59C155.021 142.507 166.803 155.508 166.803 171.261C166.803 187.014 155.021 200.014 139.788 201.931C141.065 202.092 142.366 202.175 143.687 202.175C160.76 202.175 174.602 188.334 174.602 171.261C174.602 154.187 160.76 140.346 143.687 140.346Z" fill="#D3DCFB"/>
<path d="M143.686 176.881C146.791 176.881 149.307 174.364 149.307 171.26C149.307 168.155 146.791 165.639 143.686 165.639C140.582 165.639 138.065 168.155 138.065 171.26C138.065 174.364 140.582 176.881 143.686 176.881Z" fill="#FFDD40"/>
</g>
</g>
<defs>
<clipPath id="clip0">
<rect width="168.626" height="168.626" fill="white" transform="translate(22.835 44.791)"/>
</clipPath>
</defs>
</svg>
