<svg width="13" height="13" viewBox="0 0 13 13" fill="none" xmlns="http://www.w3.org/2000/svg">
<path d="M3.9 0H9.1C11.2504 0 13 1.74912 13 3.89896V6.93149C13 9.00876 11.3668 10.7117 9.31667 10.8246V12.632C9.31667 12.8349 9.15113 13 8.94768 13C8.8504 13 8.75832 12.9614 8.68877 12.8919L8.2823 12.4856C7.215 11.4183 5.79562 10.8304 4.28588 10.8304H3.9C1.74958 10.8304 0 9.08133 0 6.93149V3.89896C0 1.74912 1.74958 0 3.9 0ZM9.31667 6.28166C9.79463 6.28166 10.1833 5.89306 10.1833 5.41522C10.1833 4.93738 9.79463 4.54879 9.31667 4.54879C8.8387 4.54879 8.45 4.93738 8.45 5.41522C8.45 5.89306 8.83892 6.28166 9.31667 6.28166ZM6.5 6.28166C6.97797 6.28166 7.36667 5.89306 7.36667 5.41522C7.36667 4.93738 6.97797 4.54879 6.5 4.54879C6.02203 4.54879 5.63333 4.93738 5.63333 5.41522C5.63333 5.89306 6.02225 6.28166 6.5 6.28166ZM3.68333 6.28166C4.1613 6.28166 4.55 5.89306 4.55 5.41522C4.55 4.93738 4.1613 4.54879 3.68333 4.54879C3.20537 4.54879 2.81667 4.93738 2.81667 5.41522C2.81667 5.89306 3.20558 6.28166 3.68333 6.28166Z" fill="#CFCFCF"/>
</svg>
