<svg width="50" height="35" viewBox="0 0 50 35" fill="none" xmlns="http://www.w3.org/2000/svg">
<path d="M8.61539 19.25C8.61539 21.653 6.6866 23.6 4.30769 23.6C1.92879 23.6 0 21.653 0 19.25C0 16.8477 1.92879 14.9 4.30769 14.9C6.6866 14.9 8.61539 16.8477 8.61539 19.25Z" fill="white"/>
<path d="M28.8077 17.1298C28.8077 19.5328 26.8789 21.4798 24.5 21.4798C22.1211 21.4798 20.1923 19.5328 20.1923 17.1298C20.1923 14.7275 22.1211 12.7798 24.5 12.7798C26.8789 12.7798 28.8077 14.7275 28.8077 17.1298Z" fill="white"/>
<path d="M45.8077 29.85C45.8077 32.253 43.8789 34.2 41.5 34.2C39.1211 34.2 37.1923 32.253 37.1923 29.85C37.1923 27.4477 39.1211 25.5 41.5 25.5C43.8789 25.5 45.8077 27.4477 45.8077 29.85Z" fill="white"/>
<path d="M29.0248 20.2079L31.0553 18.1568L38 24.5L35.9696 26.5504L29.0248 20.2079Z" fill="white"/>
<path d="M9.8732 17.1989L18 16.35L18.3001 19.233L10.1733 20.0819L9.8732 17.1989Z" fill="white"/>
<path d="M49.8579 12.6788C49.7692 12.62 49.6567 12.6094 49.5577 12.6475C49.5371 12.6556 47.4106 13.4688 45.6369 12.655C44.1082 11.9525 42.4246 12.2812 41.6429 12.5031V12.3125C41.6429 12.14 41.4989 12 41.3214 12C41.144 12 41 12.14 41 12.3125V21.6875C41 21.86 41.144 22 41.3214 22C41.4989 22 41.6429 21.86 41.6429 21.6875V18.1588C42.2131 17.9794 43.9051 17.5506 45.3631 18.22C46.058 18.5394 46.7851 18.6456 47.4453 18.6456C48.7149 18.6456 49.7358 18.2525 49.7994 18.2275C49.9203 18.1794 50 18.065 50 17.9375V12.9375C50 12.8337 49.9466 12.7369 49.8579 12.6788Z" fill="white"/>
<path d="M32.8579 0.67875C32.7692 0.62 32.6567 0.609375 32.5577 0.6475C32.5371 0.655625 30.4106 1.46875 28.6369 0.655C27.1082 -0.0475 25.4246 0.28125 24.6429 0.503125V0.3125C24.6429 0.14 24.4989 0 24.3214 0C24.144 0 24 0.14 24 0.3125V9.6875C24 9.86 24.144 10 24.3214 10C24.4989 10 24.6429 9.86 24.6429 9.6875V6.15875C25.2131 5.97937 26.9051 5.55062 28.3631 6.22C29.058 6.53937 29.7851 6.64563 30.4453 6.64563C31.7149 6.64563 32.7358 6.2525 32.7994 6.2275C32.9203 6.17938 33 6.065 33 5.9375V0.9375C33 0.83375 32.9466 0.736875 32.8579 0.67875Z" fill="white"/>
<path d="M12.8579 3.67875C12.7692 3.62 12.6567 3.60938 12.5577 3.6475C12.5371 3.65563 10.4106 4.46875 8.63693 3.655C7.10821 2.9525 5.42457 3.28125 4.64286 3.50312V3.3125C4.64286 3.14 4.49886 3 4.32143 3C4.144 3 4 3.14 4 3.3125V12.6875C4 12.86 4.144 13 4.32143 13C4.49886 13 4.64286 12.86 4.64286 12.6875V9.15875C5.21307 8.97938 6.90507 8.55062 8.36307 9.22C9.058 9.53937 9.78507 9.64563 10.4453 9.64563C11.7149 9.64563 12.7358 9.2525 12.7994 9.2275C12.9203 9.17937 13 9.065 13 8.9375V3.9375C13 3.83375 12.9466 3.73688 12.8579 3.67875Z" fill="white"/>
</svg>
