<svg width="20" height="19" viewBox="0 0 20 19" fill="none" xmlns="http://www.w3.org/2000/svg">
<path d="M13.3424 2.72454C13.3394 2.7245 13.3365 2.72407 13.3335 2.72407H8.67844L9.75591 1.66625C10.0814 1.34674 10.0814 0.828676 9.75591 0.509165C9.43046 0.189653 8.90279 0.189653 8.57734 0.509165L6.07724 2.9637C6.05783 2.98276 6.03947 3.00282 6.02204 3.02364C6.01415 3.03308 6.00728 3.04305 5.99986 3.05275C5.99095 3.06441 5.98177 3.0758 5.97353 3.08792C5.9656 3.09954 5.95872 3.11162 5.95149 3.12355C5.94481 3.13452 5.93778 3.14526 5.93161 3.15657C5.92501 3.16873 5.91938 3.18123 5.91345 3.19362C5.90778 3.20543 5.90177 3.21705 5.89665 3.22913C5.89157 3.24118 5.88747 3.25349 5.88301 3.26568C5.87825 3.27865 5.87321 3.29146 5.86911 3.30473C5.86536 3.31692 5.86258 3.32935 5.85942 3.3417C5.85594 3.35524 5.85208 3.36858 5.8493 3.38239C5.84641 3.39666 5.84469 3.41108 5.84262 3.42542C5.84086 3.43746 5.83856 3.44928 5.83731 3.46147C5.83465 3.48805 5.83321 3.5147 5.83321 3.5414C5.83321 3.54167 5.83317 3.54193 5.83317 3.5422C5.83317 3.54251 5.83321 3.54278 5.83321 3.54308C5.83325 3.56974 5.83465 3.59639 5.83731 3.62293C5.83852 3.63513 5.84086 3.64698 5.84262 3.65902C5.84473 3.6734 5.84641 3.68779 5.8493 3.70205C5.85208 3.71586 5.85594 3.72921 5.85942 3.74275C5.86258 3.75509 5.86532 3.76748 5.86911 3.77968C5.87321 3.79295 5.87829 3.80576 5.88301 3.81876C5.88747 3.83095 5.89157 3.84323 5.89661 3.85523C5.90173 3.86735 5.90774 3.87897 5.91341 3.89078C5.91934 3.90317 5.92497 3.91567 5.93157 3.92779C5.93774 3.93911 5.94478 3.94988 5.95149 3.96085C5.95872 3.97274 5.9656 3.98482 5.97353 3.99644C5.98181 4.0086 5.99103 4.02003 5.99993 4.03169C6.00732 4.04135 6.01415 4.05133 6.02204 4.06072C6.03947 4.08159 6.05783 4.10164 6.07724 4.1207L8.57734 6.57524C8.90279 6.89475 9.43046 6.89475 9.75591 6.57524C10.0814 6.25573 10.0814 5.73767 9.75591 5.41816L8.67844 4.36033H13.3264C13.3287 4.36033 13.3308 4.36067 13.333 4.36067C16.0979 4.36067 18.3333 6.55526 18.3333 9.26974C18.3333 10.4613 17.8485 11.5823 17.0003 12.4158C16.675 12.7355 16.6753 13.2535 17.0009 13.5729C17.3265 13.8923 17.8541 13.8921 18.1794 13.5724C19.3362 12.4357 20 10.9004 20 9.26974C20 5.65471 17.0235 2.72952 13.3424 2.72454Z" fill="#414B5B"/>
<path d="M14.0002 15.4862C14.0091 15.4745 14.0182 15.4631 14.0265 15.4511C14.0344 15.4394 14.0413 15.4273 14.0485 15.4154C14.0552 15.4044 14.0622 15.3937 14.0684 15.3824C14.075 15.3702 14.0806 15.3577 14.0866 15.3452C14.0923 15.3335 14.0982 15.3219 14.1033 15.3099C14.1084 15.2978 14.1125 15.2854 14.117 15.2731C14.1217 15.2602 14.1268 15.2475 14.1308 15.2343C14.1346 15.222 14.1374 15.2095 14.1405 15.1971C14.144 15.1837 14.1478 15.1704 14.1506 15.1567C14.1535 15.1423 14.1552 15.1278 14.1574 15.1133C14.1591 15.1014 14.1614 15.0897 14.1627 15.0776C14.168 15.0239 14.168 14.9698 14.1627 14.9161C14.1614 14.904 14.1591 14.8922 14.1574 14.8803C14.1553 14.8659 14.1535 14.8514 14.1507 14.837C14.1479 14.8232 14.1441 14.8099 14.1406 14.7965C14.1374 14.7841 14.1346 14.7716 14.1309 14.7593C14.1268 14.7461 14.1217 14.7334 14.117 14.7205C14.1125 14.7082 14.1084 14.6958 14.1033 14.6838C14.0982 14.6717 14.0923 14.6602 14.0866 14.6484C14.0806 14.636 14.075 14.6234 14.0683 14.6112C14.0622 14.6 14.0552 14.5893 14.0485 14.5783C14.0413 14.5664 14.0344 14.5542 14.0264 14.5426C14.0182 14.5305 14.0091 14.5191 14.0002 14.5076C13.9928 14.4978 13.9858 14.4878 13.9779 14.4783C13.9608 14.4577 13.9426 14.438 13.9235 14.4192C13.9233 14.4189 13.923 14.4186 13.9227 14.4183L11.4226 11.9638C11.0972 11.6443 10.5695 11.6443 10.2441 11.9638C9.91861 12.2833 9.91861 12.8014 10.2441 13.1209L11.3215 14.1787H6.67355C6.67133 14.1787 6.66918 14.1784 6.66695 14.1784C3.90207 14.1784 1.66675 11.9838 1.66675 9.26928C1.66675 8.07776 2.15146 6.95669 2.99965 6.12322C3.32498 5.80356 3.32475 5.28553 2.99915 4.96614C2.67355 4.64674 2.14591 4.64697 1.82058 4.96664C0.663816 6.1032 0 7.63855 0 9.26921C0 12.8844 2.97653 15.8095 6.65758 15.8145C6.66059 15.8146 6.66352 15.815 6.66652 15.815H11.3215L10.2441 16.8728C9.91861 17.1923 9.91861 17.7104 10.2441 18.0299C10.5695 18.3494 11.0972 18.3494 11.4226 18.0299L13.9227 15.5754C13.9229 15.5752 13.923 15.5751 13.9231 15.5749C13.9424 15.556 13.9606 15.5361 13.9779 15.5154C13.9859 15.5059 13.9928 15.4959 14.0002 15.4862Z" fill="#414B5B"/>
</svg>
