<svg width="20" height="20" viewBox="0 0 20 20" fill="none" xmlns="http://www.w3.org/2000/svg">
<path d="M20 10C20 15.5228 15.5228 20 10 20C4.47715 20 0 15.5228 0 10C0 4.47715 4.47715 0 10 0C15.5228 0 20 4.47715 20 10Z" fill="#DADEE5"/>
<path d="M10.7641 10.0007L14.0089 6.75571C14.2201 6.54464 14.2201 6.20336 14.0089 5.99229C13.7979 5.78122 13.4566 5.78122 13.2455 5.99229L10.0006 9.23729L6.75577 5.99229C6.5446 5.78122 6.20343 5.78122 5.99236 5.99229C5.78119 6.20336 5.78119 6.54464 5.99236 6.75571L9.23719 10.0007L5.99236 13.2457C5.78119 13.4568 5.78119 13.7981 5.99236 14.0091C6.09755 14.1144 6.23586 14.1673 6.37406 14.1673C6.51227 14.1673 6.65048 14.1144 6.75577 14.0091L10.0006 10.7641L13.2455 14.0091C13.3508 14.1144 13.489 14.1673 13.6272 14.1673C13.7654 14.1673 13.9037 14.1144 14.0089 14.0091C14.2201 13.7981 14.2201 13.4568 14.0089 13.2457L10.7641 10.0007Z" fill="white"/>
</svg>
