<svg width="20" height="22" viewBox="0 0 20 22" fill="none" xmlns="http://www.w3.org/2000/svg">
<path d="M19.3182 3.66661C19.3182 5.31201 17.9955 6.64589 16.3637 6.64589C14.7319 6.64589 13.4092 5.31201 13.4092 3.66661C13.4092 2.02138 14.7319 0.6875 16.3637 0.6875C17.9955 0.6875 19.3182 2.02138 19.3182 3.66661Z" fill="white"/>
<path d="M16.3637 7.33339C14.3582 7.33339 12.7274 5.68883 12.7274 3.66661C12.7274 1.64456 14.3582 0 16.3637 0C18.3692 0 20 1.64456 20 3.66661C20 5.68883 18.3692 7.33339 16.3637 7.33339ZM16.3637 1.375C15.1101 1.375 14.091 2.40356 14.091 3.66661C14.091 4.92982 15.1101 5.95839 16.3637 5.95839C17.6173 5.95839 18.6364 4.92982 18.6364 3.66661C18.6364 2.40356 17.6173 1.375 16.3637 1.375Z" fill="white"/>
<path d="M19.3182 18.3334C19.3182 19.9786 17.9955 21.3125 16.3637 21.3125C14.7319 21.3125 13.4092 19.9786 13.4092 18.3334C13.4092 16.688 14.7319 15.3541 16.3637 15.3541C17.9955 15.3541 19.3182 16.688 19.3182 18.3334Z" fill="white"/>
<path d="M16.3637 22C14.3582 22 12.7274 20.3554 12.7274 18.3334C12.7274 16.3112 14.3582 14.6666 16.3637 14.6666C18.3692 14.6666 20 16.3112 20 18.3334C20 20.3554 18.3692 22 16.3637 22ZM16.3637 16.0416C15.1101 16.0416 14.091 17.0702 14.091 18.3334C14.091 19.5964 15.1101 20.625 16.3637 20.625C17.6173 20.625 18.6364 19.5964 18.6364 18.3334C18.6364 17.0702 17.6173 16.0416 16.3637 16.0416Z" fill="white"/>
<path d="M6.59098 11C6.59098 12.6454 5.26813 13.9791 3.63632 13.9791C2.00468 13.9791 0.68182 12.6454 0.68182 11C0.68182 9.3546 2.00468 8.02089 3.63632 8.02089C5.26813 8.02089 6.59098 9.3546 6.59098 11Z" fill="white"/>
<path d="M3.63632 14.6666C1.63097 14.6666 0 13.0222 0 11C0 8.97778 1.63097 7.33339 3.63632 7.33339C5.64183 7.33339 7.2728 8.97778 7.2728 11C7.2728 13.0222 5.64183 14.6666 3.63632 14.6666ZM3.63632 8.70839C2.38271 8.70839 1.36364 9.73679 1.36364 11C1.36364 12.2632 2.38271 13.2916 3.63632 13.2916C4.89009 13.2916 5.90916 12.2632 5.90916 11C5.90916 9.73679 4.89009 8.70839 3.63632 8.70839Z" fill="white"/>
<path d="M5.78282 10.5601C5.46638 10.5601 5.15909 10.3941 4.9918 10.0972C4.74361 9.65807 4.89642 9.09796 5.33188 8.84669L13.7672 3.9976C14.2027 3.7455 14.7582 3.89958 15.0074 4.34035C15.2556 4.77943 15.1027 5.33954 14.6673 5.59081L6.23176 10.4399C6.08994 10.5215 5.93546 10.5601 5.78282 10.5601Z" fill="white"/>
<path d="M14.2173 18.1226C14.0645 18.1226 13.9101 18.084 13.7682 18.0024L5.33271 13.1533C4.89725 12.903 4.74461 12.3429 4.9928 11.9028C5.23999 11.4629 5.7963 11.308 6.23276 11.5601L14.6683 16.4092C15.1037 16.6595 15.2564 17.2196 15.0082 17.6597C14.8401 17.9566 14.5328 18.1226 14.2173 18.1226Z" fill="white"/>
</svg>
