<svg width="21" height="21" viewBox="0 0 21 21" fill="none" xmlns="http://www.w3.org/2000/svg">
<path d="M20.3802 0.618776C20.2663 0.505438 20.1224 0.426967 19.9655 0.392589C19.8085 0.358211 19.645 0.369356 19.4942 0.424713L0.931723 7.17471C0.771637 7.23543 0.633812 7.34342 0.536554 7.48433C0.439296 7.62524 0.387207 7.7924 0.387207 7.96362C0.387207 8.13483 0.439296 8.302 0.536554 8.44291C0.633812 8.58382 0.771637 8.6918 0.931723 8.75253L8.17954 11.6466L13.5289 6.28034L14.7186 7.47003L9.34391 12.8447L12.2464 20.0925C12.3089 20.2495 12.4172 20.3841 12.5571 20.4789C12.697 20.5737 12.8621 20.6243 13.0311 20.6241C13.2016 20.6206 13.3671 20.5655 13.5056 20.4661C13.6442 20.3667 13.7494 20.2276 13.8073 20.0672L20.5573 1.50471C20.6148 1.35543 20.6287 1.19289 20.5973 1.03603C20.566 0.879171 20.4906 0.734463 20.3802 0.618776Z" fill="#D9DDE4"/>
</svg>
