<svg width="50" height="50" viewBox="0 0 50 50" fill="none" xmlns="http://www.w3.org/2000/svg">
<path d="M0.915517 50C0.528586 50.0005 0.188702 49.7432 0.0842615 49.3706C-0.0201787 48.9981 0.136414 48.6015 0.467241 48.4009C1.66557 47.6666 2.77046 46.7898 3.75776 45.7897C4.79089 44.7729 5.72845 43.6633 6.55862 42.475C4.74457 41.9478 3.09664 40.9628 1.77328 39.6147C0.717462 38.714 0.0766267 37.4202 0 36.0345C0.0918209 34.5607 0.958416 33.2462 2.27672 32.581C3.46496 31.9331 4.84773 31.7377 6.16897 32.031C7.48205 32.3218 8.6341 33.104 9.38879 34.2172C10.1497 35.4467 10.4248 36.9156 10.1603 38.3371C10.0039 39.2866 9.72183 40.2111 9.32155 41.0862C9.63037 41.0738 9.93783 41.0383 10.2414 40.9802C13.7147 40.3207 15.6793 36.7431 15.506 33.8069C15.488 33.4989 15.6357 33.2047 15.8934 33.0351C16.1511 32.8655 16.4797 32.8463 16.7555 32.9847C17.0312 33.1231 17.2122 33.398 17.2302 33.706C17.4457 37.369 14.9603 41.8397 10.5664 42.6716C9.85616 42.8042 9.13188 42.8454 8.41121 42.794C7.43239 44.3226 6.28306 45.7351 4.98534 47.0043C3.8989 48.1038 2.68313 49.0674 1.36466 49.8741C1.22935 49.9566 1.07395 50.0001 0.915517 50ZM4.96724 33.6207C4.31877 33.6186 3.6801 33.779 3.10948 34.0871C2.33718 34.4615 1.81323 35.2084 1.72414 36.0621C1.82167 36.9768 2.27765 37.8156 2.99224 38.3948C4.11293 39.5416 5.51195 40.378 7.05259 40.8224C7.19655 40.8621 7.34052 40.8974 7.48362 40.9293C7.95746 40.0317 8.28569 39.0644 8.45603 38.0638C8.65109 37.0677 8.46954 36.0346 7.94655 35.1647C7.43493 34.4257 6.66353 33.9067 5.78621 33.7112C5.51769 33.6509 5.24331 33.6205 4.9681 33.6207H4.96724Z" fill="white"/>
<path d="M42.2414 0C37.9564 0 34.4828 3.47365 34.4828 7.75862C34.4828 12.0436 37.9564 15.5172 42.2414 15.5172C46.5263 15.5172 50 12.0436 50 7.75862C49.9953 3.47562 46.5244 0.00475097 42.2414 0ZM43.1034 12.931C43.1034 13.4071 42.7175 13.7931 42.2414 13.7931C41.7653 13.7931 41.3793 13.4071 41.3793 12.931V12.069C41.3793 11.5929 41.7653 11.2069 42.2414 11.2069C42.7175 11.2069 43.1034 11.5929 43.1034 12.069V12.931ZM43.1034 8.62069C43.1034 9.0968 42.7175 9.48276 42.2414 9.48276C41.7653 9.48276 41.3793 9.0968 41.3793 8.62069V2.58621C41.3793 2.1101 41.7653 1.72414 42.2414 1.72414C42.7175 1.72414 43.1034 2.1101 43.1034 2.58621V8.62069Z" fill="white"/>
<path d="M33.3103 10.9147L3.72414 20.7759C3.39447 20.8883 3.16489 21.1882 3.14226 21.5357C3.11962 21.8833 3.30839 22.2104 3.62069 22.3647L19.2336 29.975C19.5911 30.1429 19.8765 30.4335 20.0379 30.794L27.6345 46.3793C27.7881 46.6938 28.1166 46.8842 28.4659 46.8612C28.8152 46.8381 29.1158 46.6061 29.2267 46.2741L39.0853 16.6897C36.3898 15.7312 34.2688 13.6102 33.3103 10.9147ZM28.7069 22.5112L23.2207 27.9983C22.8838 28.3351 22.3377 28.3351 22.0009 27.9983C21.664 27.6614 21.664 27.1153 22.0009 26.7785L27.4888 21.2931C27.7031 21.0602 28.0279 20.9635 28.3347 21.0412C28.6415 21.1189 28.8811 21.3585 28.9588 21.6653C29.0365 21.9721 28.9398 22.2969 28.7069 22.5112ZM34.2293 16.9888L31.1448 20.0733C30.9284 20.2974 30.6079 20.3873 30.3065 20.3084C30.0051 20.2295 29.7697 19.9941 29.6908 19.6927C29.6119 19.3913 29.7018 19.0708 29.9259 18.8543L33.0103 15.7698C33.3486 15.4431 33.8863 15.4478 34.2188 15.7803C34.5513 16.1129 34.556 16.6505 34.2293 16.9888Z" fill="white"/>
</svg>
