<svg width="23" height="22" viewBox="0 0 23 22" fill="none" xmlns="http://www.w3.org/2000/svg">
<path d="M8.38543 16.8463V21.2826C8.38543 21.5925 8.58476 21.867 8.87993 21.9646C8.95372 21.9885 9.02943 22 9.10418 22C9.32843 22 9.54501 21.8948 9.68301 21.7073L12.283 18.1758L8.38543 16.8463Z" fill="white"/>
<path d="M22.6981 0.133041C22.4777 -0.0228717 22.1883 -0.0439151 21.9487 0.0813888L0.38625 11.3205C0.131334 11.4534 -0.019124 11.7251 0.00195929 12.0111C0.0240009 12.298 0.214709 12.5429 0.485916 12.6357L6.48027 14.6807L19.2462 3.78598L9.36772 15.665L19.4139 19.0922C19.4886 19.1171 19.5672 19.1304 19.6458 19.1304C19.7761 19.1304 19.9055 19.0951 20.0196 19.0262C20.2016 18.9152 20.3253 18.7287 20.3569 18.5192L22.9923 0.823647C23.0316 0.555822 22.9185 0.28991 22.6981 0.133041Z" fill="white"/>
</svg>
