<svg width="18" height="19" viewBox="0 0 18 19" fill="none" xmlns="http://www.w3.org/2000/svg">
<path d="M17.8145 9.40803V15.3297C17.8145 16.8483 16.5789 18.0839 15.06 18.0839H2.94022C1.42148 18.0839 0.185748 16.8483 0.185748 15.3297V3.21092C0.185748 1.69218 1.42148 0.456553 2.94022 0.456553H10.825C11.2054 0.456553 11.5137 0.764955 11.5137 1.14518C11.5137 1.52554 11.2054 1.83381 10.825 1.83381H2.94022C2.18078 1.83381 1.56298 2.45155 1.56298 3.21092V15.3297C1.56298 16.0891 2.18078 16.7068 2.94022 16.7068H15.06C15.8194 16.7068 16.4372 16.0891 16.4372 15.3297V9.40803C16.4372 9.02767 16.7455 8.7194 17.1259 8.7194C17.5062 8.7194 17.8145 9.02767 17.8145 9.40803ZM16.2344 4.37608C16.3653 4.50613 16.4374 4.6787 16.4374 4.86188C16.4374 5.0452 16.3653 5.21763 16.2344 5.34769L13.4728 8.0917C13.2031 8.35975 13.2018 8.7958 13.4698 9.06546C13.6044 9.2009 13.7814 9.26869 13.9582 9.26869C14.1338 9.26869 14.3093 9.20198 14.4437 9.06856L17.2053 6.32454C17.5982 5.93396 17.8146 5.41467 17.8146 4.86188C17.8146 4.3091 17.5982 3.78967 17.2053 3.39922L14.4437 0.655205C14.174 0.387152 13.7379 0.388497 13.4698 0.658299C13.2018 0.928101 13.2031 1.36401 13.4728 1.63206L16.2344 4.37608ZM14.7501 4.82906C14.7501 4.4487 14.4418 4.14044 14.0615 4.14044C11.5784 4.14044 9.24384 5.10734 7.48796 6.86307C5.73209 8.6188 4.7651 10.9531 4.7651 13.4361V13.9526C4.7651 14.3328 5.0734 14.6411 5.45379 14.6411C5.83404 14.6411 6.14234 14.3328 6.14234 13.9526V13.4361C6.14234 9.06977 9.69485 5.51756 14.0615 5.51756C14.4418 5.51756 14.7501 5.20929 14.7501 4.82906Z" fill="#414B5B"/>
<path fill-rule="evenodd" clip-rule="evenodd" d="M13.3418 7.96011L16.1034 5.2161C16.1995 5.12058 16.2516 4.99541 16.2516 4.86193C16.2516 4.72856 16.1995 4.60326 16.1034 4.50775L13.3418 1.76374C12.9994 1.42343 12.9977 0.870026 13.338 0.52755C13.6783 0.185051 14.2319 0.183322 14.5743 0.523617C14.5743 0.523623 14.5743 0.52361 14.5743 0.523617L17.3359 3.26763L17.2053 3.39922L14.4437 0.655205C14.174 0.387152 13.7379 0.388497 13.4698 0.658299C13.2018 0.928101 13.2031 1.36401 13.4728 1.63206L16.2344 4.37608C16.3653 4.50613 16.4374 4.6787 16.4374 4.86188C16.4374 5.0452 16.3653 5.21763 16.2344 5.34769L13.4728 8.0917C13.2031 8.35975 13.2018 8.7958 13.4698 9.06546C13.6044 9.2009 13.7814 9.26869 13.9582 9.26869C14.1338 9.26869 14.3093 9.20198 14.4437 9.06856L17.2053 6.32454C17.5982 5.93396 17.8146 5.41467 17.8146 4.86188C17.8146 4.3091 17.5982 3.78967 17.2053 3.39922L17.3359 3.26763C17.7638 3.69282 18 4.2596 18 4.86193C18 5.46427 17.7638 6.03089 17.3359 6.45619L14.5743 9.20024C14.4038 9.36952 14.1806 9.4543 13.9581 9.4543C13.7338 9.4543 13.5088 9.36825 13.3381 9.19633C12.9977 8.85397 12.9995 8.30041 13.3418 7.96011ZM17.9999 9.40807V15.3297C17.9999 16.9508 16.6812 18.2695 15.0598 18.2695H2.94004C1.31883 18.2695 0 16.9508 0 15.3297V3.21097C0 1.58973 1.31882 0.271031 2.94004 0.271031H10.8248C11.3077 0.271031 11.6991 0.662524 11.6991 1.14522C11.6991 1.62808 11.3077 2.01942 10.8248 2.01942H2.94004C2.28307 2.01942 1.74837 2.5541 1.74837 3.21097V15.3297C1.74837 15.9866 2.28307 16.5213 2.94004 16.5213H15.0598C15.7168 16.5213 16.2515 15.9866 16.2515 15.3297V9.40807C16.2515 8.92521 16.6429 8.53388 17.1257 8.53388C17.6085 8.53388 17.9999 8.92524 17.9999 9.40807ZM14.0614 3.95491C14.5441 3.95491 14.9355 4.34627 14.9355 4.82911C14.9355 5.31183 14.5441 5.70317 14.0614 5.70317C9.79714 5.70317 6.32772 9.17231 6.32772 13.4361V13.9526C6.32772 14.4353 5.93633 14.8267 5.45361 14.8267C4.97077 14.8267 4.57935 14.4354 4.57935 13.9526V13.4361C4.57935 10.904 5.56589 8.52242 7.35657 6.73189C9.14725 4.94136 11.529 3.95491 14.0614 3.95491ZM17.8145 15.3297V9.40803C17.8145 9.02767 17.5062 8.7194 17.1259 8.7194C16.7455 8.7194 16.4372 9.02767 16.4372 9.40803V15.3297C16.4372 16.0891 15.8194 16.7068 15.06 16.7068H2.94022C2.18078 16.7068 1.56298 16.0891 1.56298 15.3297V3.21092C1.56298 2.45155 2.18078 1.83381 2.94022 1.83381H10.825C11.2054 1.83381 11.5137 1.52554 11.5137 1.14518C11.5137 0.764955 11.2054 0.456553 10.825 0.456553H2.94022C1.42148 0.456553 0.185748 1.69218 0.185748 3.21092V15.3297C0.185748 16.8483 1.42148 18.0839 2.94022 18.0839H15.06C16.5789 18.0839 17.8145 16.8483 17.8145 15.3297ZM14.0615 4.14044C14.4418 4.14044 14.7501 4.4487 14.7501 4.82906C14.7501 5.20929 14.4418 5.51756 14.0615 5.51756C9.69485 5.51756 6.14234 9.06977 6.14234 13.4361V13.9526C6.14234 14.3328 5.83404 14.6411 5.45379 14.6411C5.0734 14.6411 4.7651 14.3328 4.7651 13.9526V13.4361C4.7651 10.9531 5.73209 8.6188 7.48796 6.86307C9.24384 5.10734 11.5784 4.14044 14.0615 4.14044Z" fill="#414B5B"/>
</svg>
