<svg width="55" height="55" viewBox="0 0 55 55" fill="none" xmlns="http://www.w3.org/2000/svg">
<path d="M33.1719 27.4445C30.635 27.4445 28.5656 25.382 28.5656 22.8383C28.5656 20.2945 30.6281 18.232 33.1719 18.232C35.7156 18.232 37.7781 20.2945 37.7781 22.8383C37.7781 25.382 35.7088 27.4445 33.1719 27.4445ZM48.2625 20.1364L44.4606 18.8852C44.33 18.4589 44.1444 18.0533 43.9656 17.6545L45.7119 14.1345C45.8975 13.7839 45.8219 13.3645 45.5469 13.0827L42.9344 10.4702C42.6594 10.1952 42.2331 10.1195 41.8825 10.3052L38.3625 12.0514C37.9569 11.8658 37.5513 11.6802 37.1319 11.5564L35.8806 7.75453C35.7706 7.38328 35.42 7.12891 35.0144 7.12891H31.3294C30.9238 7.12891 30.5731 7.39016 30.4631 7.75453L29.2119 11.5495C28.7856 11.6802 28.38 11.8658 27.9813 12.0445L24.4613 10.2983C24.1106 10.1127 23.6844 10.1883 23.4094 10.4633L20.7969 13.0758C20.5219 13.3508 20.4463 13.777 20.6319 14.1277L22.3781 17.6477C22.1925 18.0533 22.0069 18.4589 21.8831 18.8783L18.0813 20.1295C17.71 20.2395 17.4556 20.5902 17.4556 20.9958V24.6808C17.4556 25.0864 17.71 25.437 18.0813 25.547L21.8831 26.7983C22.0138 27.2245 22.1994 27.6302 22.3781 28.0289L20.6319 31.5489C20.4463 31.8995 20.5219 32.3189 20.7969 32.6008L23.4094 35.2133C23.6844 35.4883 24.1106 35.5639 24.4613 35.3783L27.9813 33.632C28.3869 33.8177 28.7925 34.0033 29.2119 34.127L30.4631 37.9289C30.5731 38.3002 30.9238 38.5545 31.3294 38.5545H35.0144C35.42 38.5545 35.7706 38.2933 35.8806 37.9289L37.1319 34.127C37.5581 33.9964 37.9638 33.8108 38.3625 33.632L41.8825 35.3783C42.2331 35.5639 42.6594 35.4883 42.9344 35.2133L45.5469 32.6008C45.8219 32.3258 45.8975 31.8995 45.7119 31.5489L43.9656 28.0289C44.1513 27.6233 44.3369 27.2177 44.4606 26.7983L48.2625 25.547C48.6338 25.437 48.8881 25.0864 48.8881 24.6808V20.9958C48.8881 20.597 48.6269 20.2464 48.2625 20.1364Z" fill="#DCAD7E"/>
<path d="M48.2625 20.1364L44.4606 18.8852C44.33 18.4589 44.1444 18.0533 43.9656 17.6545L45.7119 14.1345C45.8975 13.7839 45.8219 13.3645 45.5469 13.0827L42.9344 10.4702C42.6594 10.1952 42.2331 10.1195 41.8825 10.3052L38.3625 12.0514C37.9569 11.8658 37.5512 11.6802 37.1319 11.5564L35.8806 7.75453C35.7706 7.38328 35.42 7.12891 35.0144 7.12891H33.1719V18.2389C35.7088 18.2389 37.7781 20.3014 37.7781 22.8452C37.7781 25.3889 35.7156 27.4514 33.1719 27.4514V38.5614H35.0144C35.42 38.5614 35.7706 38.307 35.8806 37.9358L37.1319 34.1339C37.5581 34.0033 37.9638 33.8177 38.3625 33.6389L41.8825 35.3852C42.2331 35.5708 42.6594 35.4952 42.9344 35.2202L45.5469 32.6077C45.8219 32.3327 45.8975 31.9064 45.7119 31.5558L43.9656 28.0358C44.1513 27.6302 44.3369 27.2245 44.4606 26.8052L48.2625 25.5539C48.6338 25.4439 48.8881 25.0933 48.8881 24.6877V21.0027C48.8881 20.597 48.6269 20.2464 48.2625 20.1364Z" fill="#926C47"/>
<path d="M33.1719 27.4453C30.635 27.4453 28.5656 25.3828 28.5656 22.8391C28.5656 20.2953 30.6281 18.2328 33.1719 18.2328C35.7088 18.2328 37.7781 20.2953 37.7781 22.8391C37.7781 25.3828 35.7156 27.4453 33.1719 27.4453ZM33.1719 14.5547C28.6 14.5547 24.8875 18.2741 24.8875 22.8391C24.8875 27.4041 28.6069 31.1234 33.1719 31.1234C37.7369 31.1234 41.4563 27.4041 41.4563 22.8391C41.4563 18.2741 37.7438 14.5547 33.1719 14.5547Z" fill="#C1905F"/>
<path d="M37.7781 22.8391C37.7781 25.3759 35.7156 27.4453 33.1719 27.4453V31.1303C37.7438 31.1303 41.4563 27.4109 41.4563 22.8459C41.4563 18.2809 37.7438 14.5547 33.1719 14.5547V18.2397C35.7088 18.2397 37.7781 20.3022 37.7781 22.8391Z" fill="#7B5836"/>
<path d="M5.38999 31.6528C5.38999 29.4253 7.19812 27.6172 9.42562 27.6172H20.9481C23.1756 27.6172 24.9837 29.4253 24.9837 31.6528V43.1753C24.9837 45.4028 23.1756 47.2109 20.9481 47.2109H9.41874C7.19124 47.2109 5.38312 45.4028 5.38312 43.1753V31.6528H5.38999Z" fill="#663300"/>
<path d="M10.1269 42.605V34.2381H7.66564C7.50064 34.2381 7.38377 34.1762 7.31502 34.0525C7.23939 33.9287 7.20502 33.7293 7.20502 33.4612V32.9868C7.20502 32.7118 7.23939 32.5125 7.31502 32.3956C7.39064 32.2718 7.50752 32.21 7.66564 32.21H15.0081C15.1731 32.21 15.29 32.2718 15.3588 32.3956C15.4344 32.5193 15.4688 32.7187 15.4688 32.9868V33.4612C15.4688 33.7362 15.4344 33.9356 15.3588 34.0525C15.2831 34.1762 15.1663 34.2381 15.0081 34.2381H12.54V42.605C12.54 42.9281 12.2306 43.0931 11.605 43.0931H11.0619C10.4363 43.1 10.1269 42.935 10.1269 42.605Z" fill="white"/>
<path d="M16.0944 42.6459V32.7321C16.0944 32.574 16.1632 32.4571 16.3007 32.3815C16.4382 32.3059 16.6582 32.2646 16.9538 32.2646H17.3457C17.9232 32.2646 18.205 32.4228 18.205 32.7321V38.3971L18.2532 38.4109L19.9925 35.8259C20.0682 35.7159 20.1713 35.6403 20.3088 35.6059C20.4463 35.5715 20.625 35.5509 20.8657 35.5509H21.395C21.9313 35.5509 22.1994 35.6265 22.1994 35.7709C22.1994 35.8465 22.1513 35.9359 22.0619 36.0459L20.0819 38.8921L22.4125 42.584C22.495 42.7215 22.5363 42.8178 22.5363 42.8796C22.5363 43.024 22.2613 43.0997 21.7113 43.0997H21.1132C20.8794 43.0997 20.6938 43.079 20.5494 43.0446C20.405 43.0103 20.3019 42.9347 20.2538 42.8247L18.2532 39.5315L18.205 39.559V42.6528C18.205 42.9553 17.9163 43.1065 17.3457 43.1065H16.9538C16.3832 43.0928 16.0944 42.9415 16.0944 42.6459Z" fill="white"/>
</svg>
