<svg width="19" height="19" viewBox="0 0 19 19" fill="none" xmlns="http://www.w3.org/2000/svg">
<path d="M9.5 0C4.26149 0 0 4.26149 0 9.5C0 14.7385 4.26149 19 9.5 19C14.7385 19 19 14.7385 19 9.5C19 4.26149 14.7385 0 9.5 0Z" fill="#3A961F"/>
<path d="M14.315 7.48636L9.16909 12.6321C9.01471 12.7865 8.81206 12.8642 8.60941 12.8642C8.40675 12.8642 8.2041 12.7865 8.04972 12.6321L5.47685 10.0592C5.16722 9.74974 5.16722 9.24934 5.47685 8.93986C5.78634 8.63023 6.28659 8.63023 6.59622 8.93986L8.60941 10.953L13.1956 6.36699C13.5051 6.05736 14.0053 6.05736 14.315 6.36699C14.6245 6.67648 14.6245 7.17673 14.315 7.48636Z" fill="#FAFAFA"/>
</svg>
