<svg width="12" height="12" viewBox="0 0 12 12" fill="none" xmlns="http://www.w3.org/2000/svg">
<path d="M2.73438 5.1875H1.01562C0.714844 5.1875 0.5 5.42383 0.5 5.70312V10.8594C0.5 11.1602 0.714844 11.375 1.01562 11.375H2.73438C3.01367 11.375 3.25 11.1602 3.25 10.8594V5.70312C3.25 5.42383 3.01367 5.1875 2.73438 5.1875ZM1.875 10.5156C1.57422 10.5156 1.35938 10.3008 1.35938 10C1.35938 9.7207 1.57422 9.48438 1.875 9.48438C2.1543 9.48438 2.39062 9.7207 2.39062 10C2.39062 10.3008 2.1543 10.5156 1.875 10.5156ZM8.75 2.13672C8.75 0.546875 7.71875 0.375 7.20312 0.375C6.75195 0.375 6.55859 1.23438 6.47266 1.62109C6.34375 2.09375 6.23633 2.56641 5.91406 2.88867C5.22656 3.59766 4.86133 4.47852 4.00195 5.31641C3.95898 5.38086 3.9375 5.44531 3.9375 5.50977V10.1074C3.9375 10.2363 4.04492 10.3438 4.17383 10.3652C4.51758 10.3652 4.96875 10.5586 5.3125 10.709C6 11.0098 6.83789 11.375 7.86914 11.375H7.93359C8.85742 11.375 9.95312 11.375 10.3828 10.752C10.5762 10.4941 10.6191 10.1719 10.5117 9.78516C10.877 9.41992 11.0488 8.73242 10.877 8.17383C11.2422 7.67969 11.2852 6.9707 11.0703 6.47656C11.3281 6.21875 11.5 5.81055 11.4785 5.42383C11.4785 4.75781 10.9199 4.15625 10.2109 4.15625H8.01953C8.19141 3.55469 8.75 3.03906 8.75 2.13672Z" fill="white"/>
</svg>
