<svg width="15" height="16" viewBox="0 0 15 16" fill="none" xmlns="http://www.w3.org/2000/svg">
<path d="M0 2.51562V9.54688C0 9.95703 0.292969 10.25 0.703125 10.25H3.04688C3.42773 10.25 3.75 9.95703 3.75 9.54688V2.51562C3.75 2.13477 3.42773 1.8125 3.04688 1.8125H0.703125C0.292969 1.8125 0 2.13477 0 2.51562ZM1.17188 8.375C1.17188 7.99414 1.46484 7.67188 1.875 7.67188C2.25586 7.67188 2.57812 7.99414 2.57812 8.375C2.57812 8.78516 2.25586 9.07812 1.875 9.07812C1.46484 9.07812 1.17188 8.78516 1.17188 8.375ZM9.14062 15.875C9.84375 15.875 11.25 15.6406 11.25 13.502C11.25 12.2715 10.4883 11.5684 10.2539 10.7188H13.2422C14.209 10.7188 14.9707 9.92773 15 9.01953C15 8.49219 14.7656 7.93555 14.4141 7.58398C14.707 6.91016 14.6484 5.94336 14.1504 5.26953C14.3848 4.50781 14.1504 3.57031 13.6523 3.07227C13.7988 2.54492 13.7402 2.10547 13.4766 1.75391C12.8906 0.904297 11.3965 0.875 10.1367 0.875H10.0488C8.64258 0.904297 7.5 1.40234 6.5625 1.8125C6.09375 2.01758 5.47852 2.28125 5.00977 2.28125C4.83398 2.31055 4.6875 2.45703 4.6875 2.63281V8.90234C4.6875 8.99023 4.7168 9.10742 4.77539 9.16602C5.94727 10.3086 6.44531 11.5098 7.38281 12.4766C7.82227 12.916 7.96875 13.5605 8.14453 14.2051C8.26172 14.7324 8.52539 15.875 9.14062 15.875Z" fill="#B2BAC8"/>
</svg>
