<svg width="16" height="16" viewBox="0 0 16 16" fill="none" xmlns="http://www.w3.org/2000/svg">
<path d="M10.5541 9.1562L8.6422 7.72225V4.79009C8.6422 4.43501 8.35505 4.14786 7.99997 4.14786C7.64489 4.14786 7.35775 4.43501 7.35775 4.79009V8.04339C7.35775 8.24542 7.45263 8.43621 7.61464 8.55718C7.6147 8.55723 7.61477 8.55728 7.61484 8.55733L9.78349 10.1838C9.89897 10.2704 10.0341 10.3123 10.1683 10.3123C10.3635 10.3123 10.5565 10.2245 10.6827 10.0547C10.8959 9.77126 10.8379 9.36868 10.5541 9.1562ZM8 0.9C4.08474 0.9 0.9 4.08474 0.9 8C0.9 11.9153 4.08474 15.1 8 15.1C11.9153 15.1 15.1 11.9153 15.1 8C15.1 4.08474 11.9153 0.9 8 0.9ZM8 13.8156C4.7938 13.8156 2.18443 11.2062 2.18443 8C2.18443 4.7938 4.7938 2.18443 8 2.18443C11.2067 2.18443 13.8156 4.7938 13.8156 8C13.8156 11.2062 11.2062 13.8156 8 13.8156Z" fill="#8794A8" stroke="#8794A8" stroke-width="0.2"/>
</svg>
