<svg width="12" height="16" viewBox="0 0 12 16" fill="none" xmlns="http://www.w3.org/2000/svg">
<path d="M6.49966 11.5009C6.49966 11.6335 6.44698 11.7607 6.35321 11.8544C6.25944 11.9482 6.13226 12.0009 5.99966 12.0009C5.86705 12.0009 5.73987 11.9482 5.6461 11.8544C5.55233 11.7607 5.49966 11.6335 5.49966 11.5009V7.70789L4.35366 8.85489C4.25977 8.94878 4.13243 9.00152 3.99966 9.00152C3.86688 9.00152 3.73954 8.94878 3.64566 8.85489C3.55177 8.76101 3.49902 8.63367 3.49902 8.50089C3.49902 8.36812 3.55177 8.24078 3.64566 8.14689L5.64566 6.14689C5.6921 6.10033 5.74728 6.06339 5.80802 6.03818C5.86877 6.01297 5.93389 6 5.99966 6C6.06542 6 6.13054 6.01297 6.19129 6.03818C6.25203 6.06339 6.30721 6.10033 6.35366 6.14689L8.35366 8.14689C8.44754 8.24078 8.50029 8.36812 8.50029 8.50089C8.50029 8.63367 8.44754 8.76101 8.35366 8.85489C8.25977 8.94878 8.13243 9.00152 7.99966 9.00152C7.86688 9.00152 7.73954 8.94878 7.64566 8.85489L6.49966 7.70789V11.5009Z" fill="#2EADC9"/>
<path d="M12 14V4.5L7.5 0H2C1.46957 0 0.960859 0.210714 0.585786 0.585786C0.210714 0.960859 0 1.46957 0 2V14C0 14.5304 0.210714 15.0391 0.585786 15.4142C0.960859 15.7893 1.46957 16 2 16H10C10.5304 16 11.0391 15.7893 11.4142 15.4142C11.7893 15.0391 12 14.5304 12 14ZM7.5 3C7.5 3.39782 7.65804 3.77936 7.93934 4.06066C8.22064 4.34196 8.60218 4.5 9 4.5H11V14C11 14.2652 10.8946 14.5196 10.7071 14.7071C10.5196 14.8946 10.2652 15 10 15H2C1.73478 15 1.48043 14.8946 1.29289 14.7071C1.10536 14.5196 1 14.2652 1 14V2C1 1.73478 1.10536 1.48043 1.29289 1.29289C1.48043 1.10536 1.73478 1 2 1H7.5V3Z" fill="#2EADC9"/>
</svg>
