<svg width="20" height="20" viewBox="0 0 20 20" fill="none" xmlns="http://www.w3.org/2000/svg">
<path d="M14.9103 7.21606C14.9816 7.31872 15.0119 7.44437 14.9951 7.56824C14.9784 7.69212 14.9159 7.80523 14.8199 7.88529C14.7239 7.96535 14.6014 8.00654 14.4765 8.00076C14.3516 7.99499 14.2335 7.94265 14.1453 7.85406L9.99928 3.70706L5.85329 7.85406L5.78328 7.91106C5.68062 7.98237 5.55497 8.01264 5.4311 7.9959C5.30723 7.97917 5.19412 7.91664 5.11406 7.82064C5.034 7.72465 4.9928 7.60215 4.99858 7.47729C5.00436 7.35242 5.0567 7.23425 5.14528 7.14606L9.64528 2.64606L9.71528 2.58906C9.81148 2.52238 9.92803 2.49157 10.0446 2.50198C10.1612 2.5124 10.2704 2.56339 10.3533 2.64606L14.8533 7.14606L14.9103 7.21606ZM5.08929 12.7841C5.01798 12.6814 4.98771 12.5558 5.00444 12.4319C5.02118 12.308 5.08371 12.1949 5.1797 12.1148C5.2757 12.0348 5.3982 11.9936 5.52306 11.9994C5.64793 12.0051 5.7661 12.0575 5.85428 12.1461L9.99928 16.2931L14.1453 12.1461L14.2153 12.0891C14.3179 12.0178 14.4436 11.9875 14.5675 12.0042C14.6913 12.021 14.8045 12.0835 14.8845 12.1795C14.9646 12.2755 15.0058 12.398 15 12.5228C14.9942 12.6477 14.9419 12.7659 14.8533 12.8541L10.3533 17.3541L10.2833 17.4111C10.1871 17.4777 10.0705 17.5086 9.95396 17.4981C9.83737 17.4877 9.72814 17.4367 9.64528 17.3541L5.14528 12.8541L5.08829 12.7841H5.08929Z" fill="#414B5B"/>
</svg>
