<svg width="12" height="16" viewBox="0 0 12 16" fill="none" xmlns="http://www.w3.org/2000/svg">
<path d="M3.88387 6.67945C3.84243 6.62723 3.79096 6.58381 3.7325 6.55177C3.67403 6.51973 3.60975 6.4997 3.54343 6.49287C3.47711 6.48603 3.41009 6.49253 3.34632 6.51198C3.28255 6.53143 3.22331 6.56344 3.1721 6.60612C3.12088 6.64881 3.07871 6.7013 3.04808 6.76052C3.01745 6.81973 2.99897 6.88448 2.99373 6.95095C2.98849 7.01741 2.9966 7.08425 3.01758 7.14754C3.03855 7.21082 3.07197 7.26927 3.11587 7.31945L5.34887 9.99945L3.11587 12.6795C3.03474 12.7817 2.99681 12.9116 3.01018 13.0415C3.02356 13.1713 3.08718 13.2908 3.18746 13.3743C3.28774 13.4579 3.41671 13.4989 3.54684 13.4887C3.67697 13.4784 3.79792 13.4177 3.88387 13.3195L5.99987 10.7805L8.11587 13.3205C8.20087 13.4223 8.32285 13.4862 8.45497 13.4981C8.52039 13.504 8.58633 13.497 8.64902 13.4774C8.71172 13.4578 8.76994 13.426 8.82037 13.384C8.8708 13.3419 8.91244 13.2903 8.94292 13.2321C8.97341 13.1739 8.99213 13.1103 8.99803 13.0449C9.00392 12.9794 8.99688 12.9135 8.97729 12.8508C8.9577 12.7881 8.92596 12.7299 8.88387 12.6795L6.65087 9.99945L8.88387 7.31945C8.965 7.2172 9.00293 7.08727 8.98955 6.95743C8.97618 6.82759 8.91256 6.70812 8.81228 6.62456C8.712 6.541 8.58302 6.49996 8.4529 6.51022C8.32277 6.52047 8.20182 6.58121 8.11587 6.67945L5.99987 9.21845L3.88387 6.67845V6.67945Z" fill="#C11C3A"/>
<path d="M12 14V4.5L7.5 0H2C1.46957 0 0.960859 0.210714 0.585786 0.585786C0.210714 0.960859 0 1.46957 0 2V14C0 14.5304 0.210714 15.0391 0.585786 15.4142C0.960859 15.7893 1.46957 16 2 16H10C10.5304 16 11.0391 15.7893 11.4142 15.4142C11.7893 15.0391 12 14.5304 12 14ZM7.5 3C7.5 3.39782 7.65804 3.77936 7.93934 4.06066C8.22064 4.34196 8.60218 4.5 9 4.5H11V14C11 14.2652 10.8946 14.5196 10.7071 14.7071C10.5196 14.8946 10.2652 15 10 15H2C1.73478 15 1.48043 14.8946 1.29289 14.7071C1.10536 14.5196 1 14.2652 1 14V2C1 1.73478 1.10536 1.48043 1.29289 1.29289C1.48043 1.10536 1.73478 1 2 1H7.5V3Z" fill="#C11C3A"/>
</svg>
