<svg width="12" height="16" viewBox="0 0 12 16" fill="none" xmlns="http://www.w3.org/2000/svg">
<path d="M8.85366 7.85463C8.94754 7.76075 9.00029 7.63341 9.00029 7.50063C9.00029 7.36786 8.94754 7.24052 8.85366 7.14663C8.75977 7.05275 8.63243 7 8.49966 7C8.36688 7 8.23954 7.05275 8.14566 7.14663L5.49966 9.79363L4.35366 8.64663C4.25977 8.55275 4.13243 8.5 3.99966 8.5C3.86688 8.5 3.73954 8.55275 3.64566 8.64663C3.55177 8.74052 3.49902 8.86786 3.49902 9.00063C3.49902 9.13341 3.55177 9.26075 3.64566 9.35463L5.14566 10.8546C5.1921 10.9012 5.24728 10.9381 5.30802 10.9633C5.36877 10.9886 5.43389 11.0015 5.49966 11.0015C5.56542 11.0015 5.63054 10.9886 5.69129 10.9633C5.75203 10.9381 5.80721 10.9012 5.85366 10.8546L8.85366 7.85463Z" fill="#4DA234"/>
<path d="M12 14V4.5L7.5 0H2C1.46957 0 0.960859 0.210714 0.585786 0.585786C0.210714 0.960859 0 1.46957 0 2V14C0 14.5304 0.210714 15.0391 0.585786 15.4142C0.960859 15.7893 1.46957 16 2 16H10C10.5304 16 11.0391 15.7893 11.4142 15.4142C11.7893 15.0391 12 14.5304 12 14ZM7.5 3C7.5 3.39782 7.65804 3.77936 7.93934 4.06066C8.22064 4.34196 8.60218 4.5 9 4.5H11V14C11 14.2652 10.8946 14.5196 10.7071 14.7071C10.5196 14.8946 10.2652 15 10 15H2C1.73478 15 1.48043 14.8946 1.29289 14.7071C1.10536 14.5196 1 14.2652 1 14V2C1 1.73478 1.10536 1.48043 1.29289 1.29289C1.48043 1.10536 1.73478 1 2 1H7.5V3Z" fill="#4DA234"/>
</svg>
