<svg width="18" height="17" viewBox="0 0 18 17" fill="none" xmlns="http://www.w3.org/2000/svg">
<path d="M8.1785 11.1418L6.18412 9.22672L5.30044 9.24466L5.26437 9.21003C5.00619 9.47891 5.01482 9.90622 5.28371 10.1644L7.28009 12.0813L7.28024 12.0815C7.58859 12.375 8.00007 12.5382 8.42344 12.5382C8.4598 12.5382 8.49629 12.537 8.53279 12.5346M8.1785 11.1418C8.27531 11.2339 8.38816 11.2415 8.44634 11.2375C8.50284 11.2337 8.60828 11.2127 8.69241 11.1151L8.65454 11.0824C8.65406 11.083 8.65359 11.0835 8.65311 11.0841M8.1785 11.1418L8.21297 11.1055L8.65311 11.0841M8.1785 11.1418L8.21313 11.1057L8.21299 11.1055C8.29578 11.1843 8.39232 11.1911 8.44286 11.1876L8.44303 11.1876C8.49176 11.1843 8.5812 11.1664 8.65311 11.0841M8.65311 11.0841L11.7324 6.78287C11.7324 6.78287 11.7324 6.78287 11.7324 6.78286C11.9494 6.47971 12.371 6.40994 12.6742 6.6269L12.6742 6.62691C12.9773 6.84389 13.0471 7.26556 12.8301 7.56867L9.73697 11.8893L9.73692 11.8894C9.72962 11.8995 9.7221 11.9094 9.71433 11.9191L9.71425 11.9192C9.42465 12.2796 8.99406 12.5038 8.53279 12.5346M8.53279 12.5346L8.52947 12.4847L8.53282 12.5346C8.53281 12.5346 8.5328 12.5346 8.53279 12.5346ZM16.375 11.3195C16.7478 11.3195 17.05 11.0173 17.05 10.6445V4.01953C17.05 2.61342 15.9061 1.46953 14.5 1.46953H13.7375V0.894531C13.7375 0.521729 13.4353 0.219531 13.0625 0.219531C12.6897 0.219531 12.3875 0.521729 12.3875 0.894531V1.46953H9.64375V0.894531C9.64375 0.521729 9.34155 0.219531 8.96875 0.219531C8.59595 0.219531 8.29375 0.52173 8.29375 0.894531V1.46953H5.58125V0.894531C5.58125 0.52173 5.27905 0.219531 4.90625 0.219531C4.53345 0.219531 4.23125 0.52173 4.23125 0.894531V1.46953H3.5C2.09389 1.46953 0.95 2.61342 0.95 4.01953V13.7695C0.95 15.1756 2.09389 16.3195 3.5 16.3195H14.5C15.9061 16.3195 17.05 15.1756 17.05 13.7695C17.05 13.3967 16.7478 13.0945 16.375 13.0945C16.0022 13.0945 15.7 13.3967 15.7 13.7695C15.7 14.4312 15.1616 14.9695 14.5 14.9695H3.5C2.83836 14.9695 2.3 14.4312 2.3 13.7695V4.01953C2.3 3.3579 2.83836 2.81953 3.5 2.81953H4.23125V3.39453C4.23125 3.76733 4.53345 4.06953 4.90625 4.06953C5.27905 4.06953 5.58125 3.76733 5.58125 3.39453V2.81953H8.29375V3.39453C8.29375 3.76733 8.59595 4.06953 8.96875 4.06953C9.34155 4.06953 9.64375 3.76733 9.64375 3.39453V2.81953H12.3875V3.39453C12.3875 3.76733 12.6897 4.06953 13.0625 4.06953C13.4353 4.06953 13.7375 3.76733 13.7375 3.39453V2.81953H14.5C15.1616 2.81953 15.7 3.3579 15.7 4.01953V10.6445C15.7 11.0173 16.0022 11.3195 16.375 11.3195Z" fill="#8794A8" stroke="#8794A8" stroke-width="0.1"/>
</svg>
