<svg width="55" height="55" viewBox="0 0 55 55" fill="none" xmlns="http://www.w3.org/2000/svg">
<path d="M33.6325 46.1103C32.7456 46.2685 32.0581 45.4778 32.1956 44.6734L35.1862 30.9647C35.3031 30.2909 35.9494 29.8441 36.6231 29.9609C37.2969 30.0778 37.7437 30.7241 37.6269 31.3978L34.6362 45.0997C34.5469 45.6291 34.1344 46.021 33.6325 46.1103Z" fill="#E3E3E3"/>
<path d="M44.0481 46.1309C43.5531 46.0346 43.1475 45.6428 43.0581 45.1203L40.1981 31.3634C40.0881 30.6896 40.5419 30.0503 41.2156 29.9403C41.8894 29.8303 42.5288 30.284 42.6388 30.9578L45.4988 44.7146C45.6431 45.5671 44.88 46.2821 44.0481 46.1309Z" fill="#E3E3E3"/>
<path d="M45.8356 10.4023H27.2663C25.1144 10.4023 23.375 12.1417 23.375 14.2936V28.8892C23.375 31.0411 25.1144 32.7805 27.2663 32.7805H45.8425C47.9944 32.7805 49.7338 31.0411 49.7338 28.8892V14.2936C49.7338 12.1417 47.9875 10.4023 45.8356 10.4023Z" fill="#E4E4E4"/>
<path d="M45.8357 10.4023H36.3894V32.7805H45.8425C47.9944 32.7805 49.7338 31.0411 49.7338 28.8892V14.2936C49.7269 12.1417 47.9875 10.4023 45.8357 10.4023Z" fill="#CCCCCC"/>
<path d="M43.1818 17.5248H29.9131C29.2256 17.5248 28.6756 16.9679 28.6756 16.2873C28.6756 15.5998 29.2325 15.0498 29.9131 15.0498H43.1818C43.8625 15.0498 44.4193 15.6067 44.4193 16.2873C44.4262 16.9679 43.8693 17.5248 43.1818 17.5248Z" fill="#F2F2F2"/>
<path d="M43.1819 22.8314H37.6269C36.9394 22.8314 36.3894 22.2746 36.3894 21.5939C36.3894 20.9133 36.9463 20.3564 37.6269 20.3564H43.1819C43.8694 20.3564 44.4194 20.9133 44.4194 21.5939C44.4194 22.2746 43.8694 22.8314 43.1819 22.8314Z" fill="#F2F2F2"/>
<path d="M24.6469 11.8666C24.6469 14.8435 22.2338 17.2635 19.25 17.2635C16.2663 17.2635 13.8531 14.8504 13.8531 11.8666C13.8531 8.88973 16.2663 6.46973 19.25 6.46973C22.2338 6.46973 24.6469 8.88973 24.6469 11.8666Z" fill="#CCCCCC"/>
<path d="M23.2306 40.9677H15.2694C14.5819 40.9677 14.0319 40.4109 14.0319 39.7302V32.8002C12.4919 32.2846 11.3781 30.8202 11.3781 29.1084V25.1277C11.3781 23.024 12.1962 21.044 13.6881 19.559C15.1456 18.0946 17.1737 17.2559 19.25 17.2559H20.3431C22.5156 17.2559 23.7875 18.0534 25.575 18.9402C27.5412 19.9165 29.9956 21.1402 31.5562 21.9171C33 22.6321 33.6875 24.3165 33.1719 25.8359C33.1719 25.8427 33.1719 25.8427 33.165 25.8496C32.8556 26.7709 32.1544 27.5202 31.24 27.8915C30.3256 28.2627 29.3081 28.2215 28.4281 27.7884C27.1769 27.1627 25.6369 26.3927 24.4612 25.8084V39.7234C24.4681 40.4109 23.9181 40.9677 23.2306 40.9677Z" fill="#EAEAEA"/>
<path d="M31.5563 21.9171C29.9956 21.1402 27.5413 19.9165 25.575 18.9402C23.7875 18.0534 22.5156 17.2559 20.3431 17.2559H19.25V40.9609H23.2306C23.9181 40.9609 24.4681 40.404 24.4681 39.7234V25.8084C25.6437 26.3927 27.1838 27.1696 28.435 27.7884C29.3081 28.2284 30.3325 28.2627 31.2469 27.8915C32.1544 27.5202 32.8556 26.7709 33.1719 25.8496C33.1719 25.8427 33.1719 25.8427 33.1788 25.8359C33.6944 24.3165 33 22.639 31.5563 21.9171Z" fill="#CCCCCC"/>
<path d="M5.38999 31.6528C5.38999 29.4253 7.19812 27.6172 9.42562 27.6172H20.9481C23.1756 27.6172 24.9837 29.4253 24.9837 31.6528V43.1753C24.9837 45.4028 23.1756 47.2109 20.9481 47.2109H9.41874C7.19124 47.2109 5.38312 45.4028 5.38312 43.1753V31.6528H5.38999Z" fill="#D9D9D9"/>
<path d="M14.0869 43.0864V34.7195H11.6256C11.4606 34.7195 11.3437 34.6577 11.275 34.5339C11.1994 34.4102 11.165 34.2108 11.165 33.9427V33.4683C11.165 33.1933 11.1994 32.9939 11.275 32.877C11.3506 32.7533 11.4675 32.6914 11.6256 32.6914H18.9681C19.1331 32.6914 19.25 32.7533 19.3187 32.877C19.3944 33.0008 19.4287 33.2002 19.4287 33.4683V33.9427C19.4287 34.2177 19.3944 34.417 19.3187 34.5339C19.2431 34.6577 19.1262 34.7195 18.9681 34.7195H16.5V43.0864C16.5 43.4095 16.1906 43.5745 15.565 43.5745H15.0219C14.4031 43.5814 14.0869 43.4164 14.0869 43.0864Z" fill="white"/>
</svg>
