<svg width="13" height="16" viewBox="0 0 13 16" fill="none" xmlns="http://www.w3.org/2000/svg">
<circle cx="7.1837" cy="6.76963" r="4.44737" fill="white"/>
<path d="M12.8233 2.37622C12.7972 2.18215 12.6621 2.0225 12.4795 1.97003L6.62752 0.287535C6.54409 0.26353 6.45597 0.26353 6.37248 0.287535L0.520461 1.97003C0.337871 2.0225 0.2028 2.18208 0.176662 2.37622C0.14272 2.62855 -0.631607 8.59035 1.35449 11.5562C3.33824 14.5184 6.26469 15.2776 6.38828 15.3085C6.42501 15.3176 6.46244 15.3222 6.5 15.3222C6.53756 15.3222 6.57499 15.3176 6.61172 15.3085C6.73537 15.2776 9.66183 14.5184 11.6455 11.5562C13.6316 8.59041 12.8573 2.62861 12.8233 2.37622ZM10.2738 5.85678L6.28214 9.98346C6.18925 10.0795 6.06744 10.1276 5.94569 10.1276C5.82395 10.1276 5.70214 10.0795 5.60925 9.98346L3.14124 7.43197C3.05198 7.33976 3.00186 7.21461 3.00186 7.08416C3.00186 6.9537 3.05204 6.82855 3.14124 6.73634L3.63128 6.22972C3.81711 6.03768 4.1184 6.03761 4.30416 6.22972L5.94569 7.92678L9.11088 4.65447C9.20009 4.56218 9.32114 4.51037 9.44732 4.51037C9.57351 4.51037 9.69456 4.56218 9.78377 4.65447L10.2738 5.16108C10.4596 5.35319 10.4596 5.66467 10.2738 5.85678Z" fill="#289728"/>
</svg>
