<svg width="50" height="50" viewBox="0 0 50 50" fill="none" xmlns="http://www.w3.org/2000/svg">
<path d="M41.9781 36.9331V23.4273L42.9031 24.2369C43.1461 24.4497 43.464 24.5556 43.7813 24.5556C44.0986 24.5556 44.4165 24.4497 44.6595 24.2369C45.1468 23.8104 45.1468 23.1173 44.6595 22.6907L29.5022 9.42389C27.2951 7.49204 23.705 7.49204 21.4978 9.42389L6.34053 22.6908C5.85316 23.1173 5.85316 23.8104 6.34053 24.237C6.82588 24.6618 7.61166 24.6618 8.09701 24.237L9.02186 23.4275V36.9331C9.02186 38.6411 10.6082 40.025 12.5508 40.025H20.625H21.8187H21.8437H29.1563H29.1813H30.375H38.4492C40.3919 40.025 41.9781 38.641 41.9781 36.9331ZM11.5094 36.9331V21.2502L23.2543 10.9702C24.4923 9.88659 26.5078 9.8866 27.7457 10.9702L39.4906 21.2501V36.9331C39.4906 37.431 39.0267 37.8415 38.4492 37.8415H31.6188V29.4659C31.6188 27.611 29.8958 26.1074 27.7852 26.1074H23.2148C21.1042 26.1074 19.3812 27.611 19.3812 29.4659V37.8415H12.5508C11.9733 37.8415 11.5094 37.431 11.5094 36.9331ZM29.1313 29.4659V37.8415H21.8687V29.4659C21.8687 28.821 22.4694 28.2908 23.2148 28.2908H27.7852C28.5306 28.2908 29.1313 28.821 29.1313 29.4659Z" fill="white" stroke="white" stroke-width="0.05"/>
</svg>
