<svg width="21" height="17" viewBox="0 0 21 17" fill="none" xmlns="http://www.w3.org/2000/svg">
<path d="M19.4434 0.925H1.55664C1.20556 0.925 0.925 1.21817 0.925 1.57471V5.03736C0.925 5.3939 1.20556 5.68707 1.55664 5.68707H2.04292V15.4253C2.04292 15.7818 2.32348 16.075 2.67456 16.075H18.3254C18.6765 16.075 18.9571 15.7818 18.9571 15.4253V5.68707H19.4434C19.7944 5.68707 20.075 5.3939 20.075 5.03736V1.57471C20.075 1.21817 19.7944 0.925 19.4434 0.925ZM17.6938 14.7756H3.3062V5.68707H17.6938V14.7756ZM18.8117 4.38764H2.18828V2.22443H18.8117V4.38764ZM9.38208 10.3039H11.6179C12.5849 10.3039 13.3675 9.49248 13.3675 8.5C13.3675 7.50752 12.5849 6.69607 11.6179 6.69607H9.38208C8.41506 6.69607 7.63252 7.50752 7.63252 8.5C7.63252 9.49248 8.41506 10.3039 9.38208 10.3039ZM9.38208 7.9955H11.6179C11.8837 7.9955 12.1042 8.2196 12.1042 8.5C12.1042 8.7804 11.8837 9.0045 11.6179 9.0045H9.38208C9.11625 9.0045 8.8958 8.7804 8.8958 8.5C8.8958 8.2196 9.11625 7.9955 9.38208 7.9955Z" fill="#A9B3C2" stroke="#A9B3C2" stroke-width="0.15"/>
</svg>
