<svg width="63" height="44" viewBox="0 0 63 44" fill="none" xmlns="http://www.w3.org/2000/svg">
<g clip-path="url(#clip0)">
<path d="M63.0001 16.2982C63.0001 10.2852 61.0742 6.15596 57.9127 3.55734C55.1006 1.2026 51.2147 0 45.5479 0C42.2756 0 39.1908 0.269113 36.7792 0.698012V13.4893C37.5461 13.5734 41.5768 14.2041 43.1618 18.4343V4.93654C43.9373 4.76835 44.6531 4.63379 46.187 4.63379C53.0639 4.63379 56.7537 8.94801 56.7282 16.4243C56.7282 25.4564 52.3396 29.4763 45.5734 29.4511C45.1985 29.4511 44.8832 29.4511 44.5764 29.4343V34.1437C50.3285 34.0765 54.9472 32.672 57.9553 29.9304C60.9975 27.1636 63.0001 22.6812 63.0001 16.2982Z" fill="#873A1D"/>
<path d="M36.7791 20.3015V15.3649L35.5946 14.423C35.339 14.3978 35.0919 14.381 34.8362 14.381C34.8277 14.381 34.8192 14.381 34.8106 14.381C34.768 14.381 34.7254 14.3726 34.6828 14.3726C34.5976 14.3726 34.5209 14.3894 34.4357 14.3894C34.0948 14.3978 33.771 14.4146 33.4727 14.4482C33.4301 14.4567 33.3961 14.4567 33.362 14.4651C31.1549 14.7342 30.0726 15.5415 29.6892 15.9031L29.6806 14.4146H23.9712V16.8871C25.5562 18.4597 26.5106 20.6799 26.5106 23.4719C26.5106 26.4154 25.7181 28.7449 24.0053 30.4773V34.1944H30.4305V25.4146C30.4305 25.1623 30.4476 24.9184 30.4646 24.6745V23.7999C30.4646 22.0591 31.8963 20.6463 33.6602 20.6463C34.3846 20.6463 35.0492 20.8986 35.5861 21.3022V20.293H36.7791V20.3015Z" fill="#E4AD24"/>
<path d="M39.5912 34.0176V34.1858H40.1366V34.0512C39.9491 34.0428 39.7701 34.026 39.5912 34.0176Z" fill="#E4AD24"/>
<path d="M41.4746 21.1003V19.5109H41.9944L36.7792 15.3564V20.293H39.5828V34.0093C39.7617 34.0178 39.9407 34.0346 40.1282 34.043V21.0919H41.4746V21.1003Z" fill="#E4AD24"/>
<path d="M36.8644 33.7573V34.1862H39.5913V34.018C38.5602 33.9508 37.6484 33.8582 36.8644 33.7573Z" fill="#E4AD24"/>
<path d="M36.7791 23.1522V20.3013H35.5861V21.3104C36.1826 21.7562 36.6172 22.3953 36.7791 23.1522Z" fill="#E4AD24"/>
<path d="M36.7792 20.3013V23.1522C36.8218 23.3624 36.8473 23.5811 36.8473 23.8082V25.4985C36.8473 25.5826 36.8559 25.6583 36.8559 25.7424V33.7653C37.6399 33.8663 38.5517 33.9588 39.5828 34.026V20.3013H36.7792Z" fill="#E4AD24"/>
<path d="M36.7791 14.6164C36.3871 14.5239 35.9951 14.4566 35.5946 14.4146L36.7791 15.3564V14.6164Z" fill="#E4AD24"/>
<path d="M42.3352 19.5107C41.2019 16.7187 39.1482 15.1628 36.7792 14.6162V15.3647L41.9944 19.5191H42.3352V19.5107Z" fill="#E4AD24"/>
<path d="M42.48 19.8976L41.9943 19.5107H41.4745V21.1002H42.8465C42.7442 20.6797 42.6164 20.276 42.48 19.8976Z" fill="#E4AD24"/>
<path d="M42.48 19.8976C42.4289 19.7714 42.3863 19.6369 42.3351 19.5107H42.0028L42.48 19.8976Z" fill="#E4AD24"/>
<path d="M43.1617 22.917V29.3C43.2044 29.3084 43.247 29.3084 43.2896 29.3168V25.0194C43.2896 24.2794 43.2384 23.5814 43.1617 22.917Z" fill="#E4AD24"/>
<path d="M43.2896 34.161C42.1477 34.1442 41.091 34.1105 40.1366 34.0601V34.1946H43.2896V34.161Z" fill="#E4AD24"/>
<path d="M43.1618 22.9171C43.1191 22.5723 43.0765 22.2443 43.0169 21.9247H41.4745V21.1006H40.1366V34.0517C41.091 34.1105 42.1477 34.1442 43.2896 34.1526V29.3169C43.247 29.3085 43.2044 29.3085 43.1618 29.3001V22.9171Z" fill="#E4AD24"/>
<path d="M41.4745 21.1006V21.9247H43.0169C42.9658 21.6472 42.9146 21.3697 42.8465 21.1006H41.4745Z" fill="#E4AD24"/>
<path d="M12.4586 17.2402H11.3849C15.5945 17.2486 19.1054 19.0904 19.1054 23.2953C19.1054 27.5675 15.782 29.3167 11.828 29.384C12.0922 29.3924 12.3649 29.3924 12.6546 29.3924C16.7109 29.3924 20.1792 27.6516 20.1792 23.2953C20.1792 19.0904 16.6683 17.2486 12.4586 17.2402Z" fill="#873A1D"/>
<path d="M18.952 2.2288C16.8045 0.672992 14.0691 0.134766 10.1406 0.134766C7.0814 0.134766 4.02216 0.412288 2.17297 0.799139V1.14394V2.2288V18.5017V33.7571C3.80912 33.9841 6.34854 34.2028 9.75717 34.2028C9.91056 34.2028 10.0554 34.2028 10.2003 34.1944C7.10697 34.1692 4.78058 33.9673 3.24669 33.7487V14.4146H18.1594C20.6648 12.9849 21.9771 10.6722 21.9771 8.14929C21.9771 5.55067 20.8267 3.49868 18.952 2.2288ZM9.97874 13.212H8.55563V4.5499C9.0158 4.50785 9.57822 4.48262 10.294 4.48262C13.6771 4.48262 15.5689 5.97957 15.5689 8.72116C15.5774 11.3534 13.4555 13.212 9.97874 13.212Z" fill="#873A1D"/>
<path d="M24.0053 29.1317V22.5552C24.0053 21.5376 23.9882 20.5453 23.9712 19.5782V18.1905C22.7696 16.3572 20.8949 15.1126 18.6537 14.5323C18.6537 14.5323 18.4151 14.465 18.1765 14.4146H18.1595H3.2467V33.7655C4.78059 33.9757 7.1155 34.1775 10.2003 34.2112C16.2251 34.1607 20.1705 33.0338 22.5822 30.8389C23.1446 30.3175 23.6133 29.7456 24.0053 29.1317ZM12.6545 29.3924C12.3648 29.3924 12.0921 29.3924 11.8279 29.384C11.7427 29.384 11.666 29.3924 11.5808 29.3924C10.277 29.3924 9.31406 29.3587 8.55564 29.2158V18.5017H8.56417V17.2402H9.62936H11.3848H12.4585C16.6682 17.2486 20.1791 19.0904 20.1791 23.2953C20.1791 27.66 16.7108 29.3924 12.6545 29.3924Z" fill="#873A1D"/>
<path d="M24.0053 22.5464V29.1229C24.9767 27.5839 25.4369 25.7001 25.4369 23.4547C25.4369 21.3691 24.9 19.5946 23.9712 18.1733V19.561C23.9882 20.5365 24.0053 21.5373 24.0053 22.5464Z" fill="#873A1D"/>
<path d="M2.14746 42.4108V37.8442H4.56759V38.5927H3.01666V39.6776H4.49089V40.4092H3.01666V42.4192H2.14746V42.4108Z" fill="#883C1E"/>
<path d="M5.03625 40.6949C5.03625 40.1062 5.09591 39.6858 5.21521 39.4335C5.39416 39.0634 5.74355 38.8784 6.26336 38.8784C6.78318 38.8784 7.13256 39.0634 7.31152 39.4335C7.43082 39.6773 7.49047 40.0978 7.49047 40.6949C7.49047 41.292 7.43082 41.7125 7.31152 41.9564C7.13256 42.3264 6.78318 42.503 6.26336 42.503C5.74355 42.503 5.39416 42.318 5.21521 41.948C5.09591 41.7041 5.03625 41.292 5.03625 40.6949ZM5.85433 40.737C5.85433 41.1659 5.85433 41.3929 5.86285 41.435C5.90546 41.7377 6.03328 41.8975 6.24632 41.8975C6.45936 41.8975 6.5957 41.763 6.63831 41.5023C6.64683 41.4434 6.65535 41.2332 6.65535 40.8547V40.5183C6.65535 40.1735 6.64683 39.9633 6.62979 39.8876C6.57866 39.6269 6.45084 39.4923 6.24632 39.4923C6.0418 39.4923 5.9225 39.6101 5.87137 39.8371C5.85433 39.9128 5.8458 40.1062 5.8458 40.4174V40.737H5.85433Z" fill="#883C1E"/>
<path d="M8.30859 42.4109V38.9797H9.07554V39.5348C9.28005 39.1059 9.55274 38.8956 9.88509 38.8872V39.8543C9.82544 39.8459 9.75726 39.8459 9.68057 39.8459C9.51014 39.8459 9.37379 39.8964 9.27153 39.9973C9.16927 40.0982 9.11814 40.2328 9.11814 40.401V42.4109H8.30859Z" fill="#883C1E"/>
<path d="M13.9925 42.4107C13.9584 42.3686 13.9328 42.2509 13.9073 42.0743C13.7368 42.3602 13.4727 42.4948 13.1148 42.4948C12.8335 42.4948 12.6205 42.3939 12.4671 42.2004C12.3393 42.0238 12.2711 41.7884 12.2711 41.5024C12.2711 41.1913 12.3563 40.939 12.5353 40.754C12.6631 40.611 12.8932 40.4764 13.2341 40.3251C13.2681 40.3082 13.3193 40.2914 13.396 40.2578C13.7113 40.1232 13.8647 39.9719 13.8647 39.7952C13.8647 39.5682 13.7454 39.4589 13.5067 39.4589C13.2255 39.4589 13.0807 39.6186 13.0807 39.9382V40.0055H12.2967C12.2967 39.6102 12.3989 39.3243 12.6035 39.1477C12.7995 38.9795 13.0977 38.9038 13.5067 38.9038C13.9243 38.9038 14.214 38.9795 14.393 39.1393C14.5719 39.3075 14.6572 39.5934 14.6572 39.9971V41.9397C14.6572 42.1248 14.6998 42.293 14.7765 42.4359H13.9925V42.4107ZM13.8817 40.611C13.6346 40.7371 13.4641 40.8381 13.3619 40.9222C13.1914 41.0735 13.1062 41.2417 13.1062 41.4352C13.1062 41.7295 13.2255 41.8809 13.4641 41.8809C13.7454 41.8809 13.8817 41.637 13.8817 41.1576V40.611Z" fill="#883C1E"/>
<path d="M19.5996 42.1413C19.5996 42.6375 19.5315 42.9739 19.4036 43.1589C19.2162 43.428 18.8668 43.5626 18.347 43.5626C17.6397 43.5626 17.2818 43.3019 17.2733 42.7804H18.0743C18.0828 42.9234 18.1851 42.9907 18.3725 42.9907C18.5515 42.9907 18.6708 42.9234 18.7304 42.7889C18.7645 42.7048 18.7901 42.5534 18.7901 42.3515V42.1161C18.6537 42.3684 18.4322 42.5029 18.1339 42.5029C17.7164 42.5029 17.4352 42.2843 17.3073 41.847C17.2392 41.6283 17.2051 41.2415 17.2051 40.678C17.2051 40.1482 17.2392 39.7613 17.3073 39.5343C17.4437 39.1054 17.7079 38.8867 18.1169 38.8867C18.4577 38.8867 18.6964 39.0381 18.8242 39.3408V38.9792H19.5996V42.1413ZM18.3981 39.5427C18.2021 39.5427 18.0828 39.7109 18.0402 40.0473C18.0317 40.0977 18.0317 40.3332 18.0317 40.7537C18.0317 41.1153 18.0402 41.3256 18.0487 41.3928C18.0913 41.6872 18.2106 41.8301 18.4066 41.8301C18.6282 41.8301 18.7645 41.6451 18.8157 41.2667C18.8242 41.2162 18.8242 40.9471 18.8242 40.4678C18.8242 40.165 18.8157 39.9716 18.7901 39.8791C18.7219 39.6604 18.5941 39.5427 18.3981 39.5427Z" fill="#883C1E"/>
<path d="M20.4092 40.6949C20.4092 40.1062 20.4688 39.6858 20.5881 39.4335C20.7671 39.0634 21.1165 38.8784 21.6363 38.8784C22.1561 38.8784 22.5055 39.0634 22.6844 39.4335C22.8037 39.6773 22.8634 40.0978 22.8634 40.6949C22.8634 41.292 22.8037 41.7125 22.6844 41.9564C22.5055 42.3264 22.1561 42.503 21.6363 42.503C21.1165 42.503 20.7671 42.318 20.5881 41.948C20.4688 41.7041 20.4092 41.292 20.4092 40.6949ZM21.2358 40.737C21.2358 41.1659 21.2358 41.3929 21.2443 41.435C21.2869 41.7377 21.4147 41.8975 21.6278 41.8975C21.8408 41.8975 21.9771 41.763 22.0198 41.5023C22.0283 41.4434 22.0368 41.2332 22.0368 40.8547V40.5183C22.0368 40.1735 22.0283 39.9633 22.0112 39.8876C21.9601 39.6269 21.8323 39.4923 21.6278 39.4923C21.4232 39.4923 21.3039 39.6101 21.2528 39.8371C21.2358 39.9128 21.2272 40.1062 21.2272 40.4174V40.737H21.2358Z" fill="#883C1E"/>
<path d="M23.5623 40.6949C23.5623 40.1062 23.6219 39.6858 23.7412 39.4335C23.9202 39.0634 24.2695 38.8784 24.7894 38.8784C25.3092 38.8784 25.6586 39.0634 25.8375 39.4335C25.9568 39.6773 26.0165 40.0978 26.0165 40.6949C26.0165 41.292 25.9568 41.7125 25.8375 41.9564C25.6586 42.3264 25.3092 42.503 24.7894 42.503C24.2695 42.503 23.9202 42.318 23.7412 41.948C23.6219 41.7041 23.5623 41.292 23.5623 40.6949ZM24.3888 40.737C24.3888 41.1659 24.3888 41.3929 24.3974 41.435C24.44 41.7377 24.5678 41.8975 24.7808 41.8975C24.9939 41.8975 25.1302 41.763 25.1728 41.5023C25.1814 41.4434 25.1899 41.2332 25.1899 40.8547V40.5183C25.1899 40.1735 25.1814 39.9633 25.1643 39.8876C25.1132 39.6269 24.9854 39.4923 24.7808 39.4923C24.5763 39.4923 24.457 39.6101 24.4059 39.8371C24.3888 39.9128 24.3803 40.1062 24.3803 40.4174V40.737H24.3888Z" fill="#883C1E"/>
<path d="M28.3769 42.0575C28.2406 42.3603 28.002 42.5117 27.6696 42.5117C27.2606 42.5117 26.9879 42.293 26.8601 41.8641C26.7919 41.6286 26.7578 41.2502 26.7578 40.7204C26.7578 40.1737 26.7919 39.7869 26.8516 39.5598C26.9794 39.1141 27.2435 38.8955 27.6526 38.8955C27.9764 38.8955 28.2065 39.0216 28.3343 39.2823V37.8442H29.1439V42.4192H28.3769V42.0575ZM27.5674 40.6447C27.5674 41.0568 27.5674 41.2922 27.5759 41.3511C27.6185 41.6875 27.7378 41.8557 27.9338 41.8557C28.1383 41.8557 28.2661 41.738 28.3173 41.5109C28.3428 41.4184 28.3513 41.225 28.3513 40.9222C28.3513 40.4429 28.3513 40.1822 28.3428 40.1233C28.2917 39.7448 28.1553 39.5598 27.9338 39.5598C27.7463 39.5598 27.627 39.7112 27.5759 40.0056C27.5674 40.0644 27.5674 40.2831 27.5674 40.6447Z" fill="#883C1E"/>
<path d="M34.0012 41.0653C34.0012 41.1158 34.0097 41.1747 34.0097 41.2588C34.0097 42.0913 33.6347 42.5034 32.8848 42.5034C32.3821 42.5034 32.0412 42.3184 31.8708 41.94C31.76 41.6961 31.7089 41.284 31.7089 40.6953C31.7089 40.1066 31.76 39.6945 31.8708 39.4507C32.0412 39.0722 32.3821 38.8872 32.8848 38.8872C33.6347 38.8872 34.0097 39.2741 34.0097 40.0393V40.1571H33.2342V40.0814C33.2342 39.6861 33.1234 39.4927 32.8848 39.4927C32.6462 39.4927 32.5355 39.6861 32.5355 40.073V41.2588C32.5355 41.4522 32.5525 41.5867 32.5781 41.6708C32.6292 41.8138 32.7315 41.8895 32.8848 41.8895C33.0553 41.8895 33.1661 41.797 33.2087 41.612C33.2342 41.5195 33.2427 41.3681 33.2427 41.1326V41.0569H34.0012V41.0653Z" fill="#883C1E"/>
<path d="M36.4554 42.4107C36.4213 42.3686 36.3957 42.2509 36.3701 42.0743C36.1997 42.3602 35.9355 42.4948 35.5776 42.4948C35.2964 42.4948 35.0834 42.3939 34.93 42.2004C34.8022 42.0238 34.734 41.7884 34.734 41.5024C34.734 41.1913 34.8192 40.939 34.9982 40.754C35.126 40.611 35.3561 40.4764 35.6969 40.3251C35.731 40.3082 35.7822 40.2914 35.8589 40.2578C36.1742 40.1232 36.3275 39.9719 36.3275 39.7952C36.3275 39.5682 36.2082 39.4589 35.9696 39.4589C35.6884 39.4589 35.5436 39.6186 35.5436 39.9382V40.0055H34.7681C34.7681 39.6102 34.8704 39.3243 35.0749 39.1477C35.2709 38.9795 35.5691 38.9038 35.9782 38.9038C36.3957 38.9038 36.6854 38.9795 36.8644 39.1393C37.0433 39.3075 37.1286 39.5934 37.1286 39.9971V41.9397C37.1286 42.1248 37.1712 42.293 37.2479 42.4359H36.4554V42.4107ZM36.3446 40.611C36.0975 40.7371 35.927 40.8381 35.8248 40.9222C35.6543 41.0735 35.5691 41.2417 35.5691 41.4352C35.5691 41.7295 35.6884 41.8809 35.927 41.8809C36.2082 41.8809 36.3446 41.637 36.3446 41.1576V40.611Z" fill="#883C1E"/>
<path d="M38.0233 42.4109V38.9797H38.7903V39.5348C38.9948 39.1059 39.2675 38.8956 39.5998 38.8872V39.8543C39.5402 39.8459 39.472 39.8459 39.3953 39.8459C39.2249 39.8459 39.0885 39.8964 38.9863 39.9973C38.884 40.0982 38.8329 40.2328 38.8329 40.401V42.4109H38.0233Z" fill="#883C1E"/>
<path d="M41.7898 41.2332H42.5482C42.5482 41.25 42.5482 41.2668 42.5482 41.3004C42.5482 41.3257 42.5482 41.3509 42.5482 41.3677C42.5482 41.763 42.4545 42.0489 42.2585 42.2339C42.0625 42.4189 41.7643 42.503 41.3638 42.503C40.9462 42.503 40.6394 42.3937 40.4605 42.1751C40.3156 41.9985 40.2219 41.7462 40.1793 41.4098C40.1622 41.2668 40.1537 40.9893 40.1537 40.5772C40.1537 40.2492 40.1622 40.0137 40.1793 39.8792C40.2133 39.6017 40.29 39.383 40.4179 39.24C40.6224 38.9962 40.9377 38.8784 41.3893 38.8784C41.8154 38.8784 42.1307 39.0046 42.3267 39.2653C42.4886 39.4755 42.5653 39.896 42.5653 40.5351V40.7958H40.9888C40.9803 40.8295 40.9803 40.9052 40.9803 41.0145C40.9803 41.2668 40.9973 41.4518 41.0229 41.5611C41.0825 41.7882 41.2018 41.8975 41.3808 41.8975C41.6535 41.9059 41.7898 41.6873 41.7898 41.2332ZM40.9803 40.2576H41.7643V40.1147C41.7643 39.9212 41.7472 39.7783 41.7131 39.6942C41.6535 39.5596 41.5427 39.4923 41.3723 39.4923C41.2274 39.4923 41.1251 39.5344 41.0655 39.6269C40.9973 39.7362 40.9632 39.9044 40.9718 40.1062V40.1567C40.9803 40.1988 40.9803 40.2324 40.9803 40.2576Z" fill="#883C1E"/>
<path d="M44.9342 41.2332H45.6927C45.6927 41.25 45.6927 41.2668 45.6927 41.3004C45.6927 41.3257 45.6927 41.3509 45.6927 41.3677C45.6927 41.763 45.5989 42.0489 45.4029 42.2339C45.2069 42.4189 44.9087 42.503 44.5082 42.503C44.0906 42.503 43.7838 42.3937 43.6049 42.1751C43.46 41.9985 43.3663 41.7462 43.3237 41.4098C43.3066 41.2668 43.2981 40.9893 43.2981 40.5772C43.2981 40.2492 43.3066 40.0137 43.3237 39.8792C43.3577 39.6017 43.4344 39.383 43.5623 39.24C43.7668 38.9962 44.0821 38.8784 44.5337 38.8784C44.9598 38.8784 45.2751 39.0046 45.4711 39.2653C45.633 39.4755 45.7097 39.896 45.7097 40.5351V40.7958H44.1247C44.1162 40.8295 44.1162 40.9052 44.1162 41.0145C44.1162 41.2668 44.1332 41.4518 44.1588 41.5611C44.2184 41.7882 44.3377 41.8975 44.5167 41.8975C44.7979 41.9059 44.9342 41.6873 44.9342 41.2332ZM44.1247 40.2576H44.9087V40.1147C44.9087 39.9212 44.8916 39.7783 44.8575 39.6942C44.7979 39.5596 44.6871 39.4923 44.5167 39.4923C44.3718 39.4923 44.2696 39.5344 44.2099 39.6269C44.1417 39.7362 44.1076 39.9044 44.1162 40.1062V40.1567C44.1247 40.1988 44.1247 40.2324 44.1247 40.2576Z" fill="#883C1E"/>
<path d="M46.5533 42.4109V38.9797H47.3203V39.5348C47.5248 39.1059 47.7975 38.8956 48.1298 38.8872V39.8543C48.0702 39.8459 48.002 39.8459 47.9253 39.8459C47.7549 39.8459 47.6185 39.8964 47.5163 39.9973C47.414 40.0982 47.3629 40.2328 47.3629 40.401V42.4109H46.5533Z" fill="#883C1E"/>
<path d="M50.6011 43.5715V38.9797H51.368V39.3413C51.4958 39.0386 51.7344 38.8872 52.0753 38.8872C52.4843 38.8872 52.757 39.1059 52.8849 39.5348C52.953 39.7618 52.9871 40.1487 52.9871 40.6785C52.9871 41.2335 52.953 41.6204 52.8934 41.839C52.7656 42.2848 52.5014 42.5034 52.0923 42.5034C51.7685 42.5034 51.547 42.3773 51.4106 42.1166V43.563H50.6011V43.5715ZM51.3765 40.5523C51.3765 40.9897 51.3851 41.2419 51.3936 41.3092C51.4447 41.6624 51.5811 41.8306 51.7941 41.8306C51.9901 41.8306 52.1094 41.6708 52.152 41.3597C52.1605 41.3092 52.1605 41.0822 52.1605 40.6869C52.1605 40.3001 52.152 40.0814 52.1435 40.0141C52.1009 39.703 51.9816 39.5432 51.7856 39.5432C51.5725 39.5432 51.4447 39.6693 51.3936 39.93C51.3936 40.0057 51.3765 40.216 51.3765 40.5523Z" fill="#883C1E"/>
<path d="M55.4584 42.4107C55.4243 42.3686 55.3988 42.2509 55.3732 42.0743C55.2028 42.3602 54.9386 42.4948 54.5807 42.4948C54.2995 42.4948 54.0864 42.3939 53.9331 42.2004C53.8052 42.0238 53.7371 41.7884 53.7371 41.5024C53.7371 41.1913 53.8223 40.939 54.0012 40.754C54.1291 40.611 54.3591 40.4764 54.7 40.3251C54.7341 40.3082 54.7852 40.2914 54.8619 40.2578C55.1772 40.1232 55.3306 39.9719 55.3306 39.7952C55.3306 39.5682 55.2113 39.4589 54.9727 39.4589C54.6915 39.4589 54.5466 39.6186 54.5466 39.9382V40.0055H53.7626C53.7626 39.6102 53.8649 39.3243 54.0694 39.1477C54.2654 38.9795 54.5637 38.9038 54.9727 38.9038C55.3903 38.9038 55.68 38.9795 55.8589 39.1393C56.0379 39.3075 56.1231 39.5934 56.1231 39.9971V41.9397C56.1231 42.1248 56.1657 42.293 56.2424 42.4359H55.4584V42.4107ZM55.3476 40.611C55.1005 40.7371 54.9301 40.8381 54.8278 40.9222C54.6574 41.0735 54.5722 41.2417 54.5722 41.4352C54.5722 41.7295 54.6915 41.8809 54.9301 41.8809C55.2113 41.8809 55.3476 41.637 55.3476 41.1576V40.611Z" fill="#883C1E"/>
<path d="M57.8359 41.3762C57.8359 41.5275 57.8444 41.6201 57.8615 41.6705C57.8956 41.763 57.9637 41.8051 58.083 41.8051C58.0916 41.8051 58.1086 41.8051 58.1256 41.8051C58.1427 41.8051 58.1597 41.8051 58.1683 41.8051V42.419C57.9723 42.4358 57.8274 42.4526 57.7422 42.4526C57.4524 42.4526 57.2564 42.3853 57.1542 42.2592C57.069 42.1499 57.0264 41.9396 57.0264 41.6369V39.5765H56.7111V38.9878H57.0264V38.0459H57.8359V38.9878H58.1683V39.5765H57.8359V41.3762Z" fill="#883C1E"/>
<path d="M58.8671 42.4108V37.8442H59.6681V39.3075C59.813 39.03 60.0516 38.8871 60.3839 38.8871C60.9037 38.8871 61.1679 39.1646 61.1679 39.7112V42.4108H60.3924V40.1065C60.3924 39.9299 60.3839 39.8121 60.3583 39.7448C60.3157 39.6271 60.222 39.5682 60.0771 39.5682C59.9067 39.5682 59.7874 39.6439 59.7277 39.7869C59.6937 39.8794 59.6681 40.0224 59.6681 40.2242V42.4108H58.8671Z" fill="#883C1E"/>
</g>
<defs>
<clipPath id="clip0">
<rect width="63" height="44" fill="white"/>
</clipPath>
</defs>
</svg>
