<svg width="20" height="20" viewBox="0 0 20 20" fill="none" xmlns="http://www.w3.org/2000/svg">
<path d="M12.0004 6.00068C12.0004 5.82386 11.9302 5.65428 11.8051 5.52925C11.6801 5.40422 11.5105 5.33398 11.3337 5.33398C11.1569 5.33398 10.9873 5.40422 10.8623 5.52925C10.7372 5.65428 10.667 5.82386 10.667 6.00068V8.00075H8.66694C8.49012 8.00075 8.32054 8.07099 8.19551 8.19602C8.07048 8.32105 8.00024 8.49062 8.00024 8.66744C8.00024 8.84426 8.07048 9.01383 8.19551 9.13886C8.32054 9.26389 8.49012 9.33413 8.66694 9.33413H10.667V11.3342C10.667 11.511 10.7372 11.6806 10.8623 11.8056C10.9873 11.9307 11.1569 12.0009 11.3337 12.0009C11.5105 12.0009 11.6801 11.9307 11.8051 11.8056C11.9302 11.6806 12.0004 11.511 12.0004 11.3342V9.33413H14.0005C14.1773 9.33413 14.3469 9.26389 14.4719 9.13886C14.5969 9.01383 14.6672 8.84426 14.6672 8.66744C14.6672 8.49062 14.5969 8.32105 14.4719 8.19602C14.3469 8.07099 14.1773 8.00075 14.0005 8.00075H12.0004V6.00068Z" fill="white"/>
<path d="M0.666691 0C0.489874 0 0.320298 0.0702405 0.195269 0.195269C0.0702405 0.320298 0 0.489874 0 0.666691C0 0.843509 0.0702405 1.01308 0.195269 1.13811C0.320298 1.26314 0.489874 1.33338 0.666691 1.33338H2.14675L2.68143 3.47613L4.67884 14.1232C4.70744 14.276 4.78852 14.4139 4.90806 14.5133C5.02761 14.6126 5.1781 14.6671 5.33353 14.6672H6.66691C5.95964 14.6672 5.28134 14.9482 4.78123 15.4483C4.28111 15.9484 4.00015 16.6267 4.00015 17.334C4.00015 18.0412 4.28111 18.7195 4.78123 19.2197C5.28134 19.7198 5.95964 20.0007 6.66691 20.0007C7.37418 20.0007 8.05249 19.7198 8.5526 19.2197C9.05272 18.7195 9.33368 18.0412 9.33368 17.334C9.33368 16.6267 9.05272 15.9484 8.5526 15.4483C8.05249 14.9482 7.37418 14.6672 6.66691 14.6672H16.0006C15.2933 14.6672 14.615 14.9482 14.1149 15.4483C13.6148 15.9484 13.3338 16.6267 13.3338 17.334C13.3338 18.0412 13.6148 18.7195 14.1149 19.2197C14.615 19.7198 15.2933 20.0007 16.0006 20.0007C16.7079 20.0007 17.3862 19.7198 17.8863 19.2197C18.3864 18.7195 18.6674 18.0412 18.6674 17.334C18.6674 16.6267 18.3864 15.9484 17.8863 15.4483C17.3862 14.9482 16.7079 14.6672 16.0006 14.6672H17.334C17.4894 14.6671 17.6399 14.6126 17.7594 14.5133C17.879 14.4139 17.9601 14.276 17.9887 14.1232L19.9887 3.45613C20.0068 3.35991 20.0034 3.2609 19.9788 3.16614C19.9542 3.07138 19.9091 2.98319 19.8466 2.90785C19.7841 2.8325 19.7058 2.77183 19.6172 2.73017C19.5286 2.6885 19.4319 2.66686 19.3341 2.66677H3.85348L3.31346 0.505352C3.27747 0.361059 3.19427 0.23294 3.07709 0.141372C2.95991 0.0498028 2.81548 4.10835e-05 2.66677 0H0.666691ZM5.88689 13.3338L4.13615 4.00015H18.5314L16.7806 13.3338H5.88689ZM8.0003 17.334C8.0003 17.6876 7.85982 18.0268 7.60976 18.2768C7.3597 18.5269 7.02055 18.6674 6.66691 18.6674C6.31328 18.6674 5.97413 18.5269 5.72407 18.2768C5.47401 18.0268 5.33353 17.6876 5.33353 17.334C5.33353 16.9803 5.47401 16.6412 5.72407 16.3911C5.97413 16.1411 6.31328 16.0006 6.66691 16.0006C7.02055 16.0006 7.3597 16.1411 7.60976 16.3911C7.85982 16.6412 8.0003 16.9803 8.0003 17.334ZM17.334 17.334C17.334 17.6876 17.1935 18.0268 16.9434 18.2768C16.6934 18.5269 16.3542 18.6674 16.0006 18.6674C15.647 18.6674 15.3078 18.5269 15.0578 18.2768C14.8077 18.0268 14.6672 17.6876 14.6672 17.334C14.6672 16.9803 14.8077 16.6412 15.0578 16.3911C15.3078 16.1411 15.647 16.0006 16.0006 16.0006C16.3542 16.0006 16.6934 16.1411 16.9434 16.3911C17.1935 16.6412 17.334 16.9803 17.334 17.334Z" fill="white"/>
</svg>
