<svg width="12" height="16" viewBox="0 0 12 16" fill="none" xmlns="http://www.w3.org/2000/svg">
<path d="M9.25096 0.0684417C9.34883 0.12518 9.42456 0.213432 9.4658 0.318779C9.50703 0.424127 9.51131 0.540343 9.47795 0.648442L7.67696 6.50044H11C11.0976 6.5004 11.1931 6.52896 11.2747 6.58259C11.3564 6.63622 11.4205 6.71258 11.4592 6.80223C11.4979 6.89189 11.5095 6.99092 11.4926 7.08709C11.4757 7.18327 11.4309 7.27239 11.364 7.34344L3.36396 15.8434C3.28655 15.9258 3.18354 15.9794 3.07173 15.9957C2.95991 16.012 2.84588 15.9899 2.74823 15.9331C2.65057 15.8762 2.57504 15.788 2.53395 15.6827C2.49286 15.5775 2.48863 15.4614 2.52196 15.3534L4.32296 9.50044H0.999955C0.9023 9.50048 0.806771 9.47192 0.725161 9.41829C0.643551 9.36466 0.579432 9.2883 0.54072 9.19865C0.502008 9.109 0.490398 9.00997 0.507322 8.91379C0.524246 8.81761 0.568964 8.7285 0.635955 8.65744L8.63595 0.157442C8.71327 0.0752409 8.81611 0.0216103 8.92777 0.00527029C9.03943 -0.0110698 9.15333 0.0108416 9.25096 0.0674417V0.0684417ZM2.15696 8.50044H4.99996C5.0782 8.50043 5.15536 8.51878 5.22523 8.55402C5.29509 8.58925 5.35571 8.6404 5.4022 8.70333C5.4487 8.76627 5.47978 8.83924 5.49293 8.91637C5.50609 8.99351 5.50096 9.07265 5.47796 9.14744L4.10996 13.5904L9.84196 7.50044H6.99996C6.92171 7.50046 6.84455 7.48211 6.77468 7.44687C6.70482 7.41163 6.6442 7.36049 6.5977 7.29755C6.55121 7.23461 6.52013 7.16164 6.50698 7.08451C6.49382 7.00738 6.49895 6.92823 6.52196 6.85344L7.88996 2.41044L2.15696 8.50044Z" fill="#8D939C"/>
</svg>
