<svg width="21" height="20" viewBox="0 0 21 20" fill="none" xmlns="http://www.w3.org/2000/svg">
<path d="M16.5225 8.82884L16.4578 8.6665L16.3847 8.8253L14.1806 13.6182L11.1674 6.96862L11.1675 6.0837H17.4609H17.5359V6.0087V1.88069V1.80569H17.4609H11.168L11.1681 1.00012L11.1682 0.925112L11.0932 0.925106L9.9086 0.925L9.8336 0.924993L9.83359 0.999991L9.83306 5.41256C9.83305 5.41257 9.83305 5.41258 9.83304 5.41259V5.41271L9.83304 5.41283V5.41386L9.83304 5.4147L9.83303 5.4265L9.83303 5.45283L9.83301 5.63125L9.83285 6.96823L6.81942 13.6182L4.61527 8.82526L4.54224 8.66646L4.47747 8.82881L0.43034 18.9722L0.389326 19.075H0.5H20.5H20.6107L20.5697 18.9722L16.5225 8.82884ZM11.1679 3.01244H16.2014V4.87692H11.1676L11.1679 3.01244ZM6.10201 15.2014L4.89354 17.8683H2.28965L4.63043 12.0015L6.10201 15.2014ZM6.33588 17.8683L10.5 8.67891L14.6641 17.8683H6.33588ZM16.1065 17.8683L14.898 15.2014L16.3695 12.0015L18.7103 17.8683H16.1065Z" fill="white" stroke="white" stroke-width="0.15"/>
</svg>
