<svg width="17" height="22" viewBox="0 0 17 22" fill="none" xmlns="http://www.w3.org/2000/svg">
<path d="M15.9869 17.564L16.0359 17.5739C15.9766 17.8688 15.7155 18.072 15.43 18.072H11.4081C11.3606 19.7201 10.0772 21.05 8.50001 21.05C6.92278 21.05 5.63943 19.7201 5.59188 18.072H1.57003C1.28449 18.072 1.02342 17.8688 0.964084 17.5739C0.906427 17.2874 1.02881 16.9997 1.28425 16.8729C1.34368 16.8314 1.75004 16.5233 2.15908 15.6099C2.9256 13.8983 3.08778 11.482 3.08778 9.75098C3.08778 7.4455 4.38685 5.45327 6.25435 4.55021V3.22797C6.25435 1.97448 7.21994 0.95 8.41263 0.95H8.58736C9.78005 0.95 10.7456 1.97448 10.7456 3.22797V4.55029C12.6067 5.45033 13.9031 7.43207 13.9118 9.7275M15.9869 17.564L13.8618 9.72848M15.9869 17.564L16.0359 17.5739C16.0935 17.2874 15.9712 16.9997 15.7157 16.8729M15.9869 17.564L15.6903 16.9161M13.9118 9.7275C13.9118 9.72777 13.9118 9.72803 13.9118 9.72829L13.8618 9.72848M13.9118 9.7275C13.9118 9.72725 13.9118 9.727 13.9118 9.72675L13.8618 9.72848M13.9118 9.7275C13.9121 9.73524 13.9122 9.74304 13.9122 9.75098C13.9122 11.482 14.0744 13.8984 14.8409 15.6099C15.25 16.5233 15.6563 16.8314 15.7157 16.8729M13.8618 9.72848C13.8621 9.73598 13.8622 9.74344 13.8622 9.75098C13.8622 11.4827 14.0241 13.9084 14.7953 15.6303C15.2152 16.568 15.6346 16.878 15.6903 16.9161M15.7157 16.8729C15.7146 16.8723 15.7134 16.8718 15.7122 16.8712L15.6903 16.9161M15.7157 16.8729C15.7168 16.8737 15.7177 16.8743 15.7186 16.8749L15.6903 16.9161M7.46514 3.22797C7.46514 2.67166 7.89281 2.22379 8.41267 2.22379H8.58739C9.10726 2.22379 9.53492 2.67166 9.53492 3.22797V4.13959C9.19976 4.07074 8.85372 4.03461 8.49987 4.03461C8.14612 4.03461 7.8002 4.0707 7.46518 4.13949L7.46514 3.22797ZM3.17185 16.3308L3.12679 16.3091L3.17185 16.3308C3.92088 14.7725 4.29857 12.5574 4.29857 9.75098C4.29857 7.29873 6.18588 5.3084 8.49983 5.3084C10.8138 5.3084 12.7011 7.29871 12.7011 9.75293C12.7011 9.76037 12.7012 9.76786 12.7015 9.77543C12.7036 12.5702 13.0813 14.7771 13.8282 16.3308C13.9108 16.5027 13.994 16.658 14.0762 16.7981H10.7363H2.92385C3.00609 16.658 3.08921 16.5027 3.17185 16.3308ZM8.50001 19.7762C7.59538 19.7762 6.85014 19.0224 6.8034 18.072H10.1966C10.1499 19.0224 9.40465 19.7762 8.50001 19.7762Z" fill="#A9B3C2" stroke="#A9B3C2" stroke-width="0.1"/>
</svg>
