<svg width="18" height="20" viewBox="0 0 18 20" fill="none" xmlns="http://www.w3.org/2000/svg">
<path d="M5.97495 5.66406H2.96868C2.65739 5.66406 2.40501 5.92641 2.40501 6.25C2.40501 6.57359 2.65739 6.83594 2.96868 6.83594H5.97495C6.28625 6.83594 6.53862 6.57359 6.53862 6.25C6.53862 5.92641 6.28625 5.66406 5.97495 5.66406Z" fill="white"/>
<path d="M5.97495 8.78906H2.96868C2.65739 8.78906 2.40501 9.05141 2.40501 9.375C2.40501 9.69859 2.65739 9.96094 2.96868 9.96094H5.97495C6.28625 9.96094 6.53862 9.69859 6.53862 9.375C6.53862 9.05141 6.28625 8.78906 5.97495 8.78906Z" fill="white"/>
<path d="M5.97495 11.9141H2.96868C2.65739 11.9141 2.40501 12.1764 2.40501 12.5C2.40501 12.8236 2.65739 13.0859 2.96868 13.0859H5.97495C6.28625 13.0859 6.53862 12.8236 6.53862 12.5C6.53862 12.1764 6.28625 11.9141 5.97495 11.9141Z" fill="white"/>
<path d="M14.0543 10.7394V5.38984C14.0543 4.61758 13.7678 3.88902 13.2477 3.33801L10.9606 0.879453C10.9595 0.878281 10.9584 0.87707 10.9573 0.875898C10.4307 0.319258 9.69794 0 8.94701 0H1.69102C0.758593 0 0 0.788555 0 1.75781V16.9531C0 17.9224 0.758593 18.7109 1.69102 18.7109H10.4029C11.2062 19.5091 12.2943 20 13.4906 20C15.9771 20 18 17.9147 18 15.3516C18 12.9852 16.2757 11.0262 14.0543 10.7394ZM1.12735 16.9531V1.75781C1.12735 1.43473 1.38021 1.17188 1.69102 1.17188H8.94701C9.39698 1.17188 9.83604 1.36293 10.152 1.69602L12.4387 4.15418C12.4398 4.15535 12.4409 4.15652 12.4419 4.15766C12.7547 4.4884 12.9269 4.92598 12.9269 5.38988V10.74C10.7263 11.0289 9.01879 12.9869 9.01879 15.3516C9.01879 16.142 9.20976 16.8868 9.5459 17.5391H1.69102C1.38021 17.5391 1.12735 17.2762 1.12735 16.9531ZM13.4906 18.8281C11.6465 18.8281 10.1461 17.2686 10.1461 15.3516C10.1461 13.4346 11.6465 11.875 13.4906 11.875C15.3555 11.875 16.8727 13.4346 16.8727 15.3516C16.8727 17.2686 15.3555 18.8281 13.4906 18.8281Z" fill="white"/>
<path d="M14.7909 13.9639C14.5518 13.7569 14.1964 13.7904 13.997 14.039L13.0457 15.2257L12.8299 14.7771C12.6906 14.4876 12.3521 14.3702 12.0736 14.515C11.7951 14.6597 11.6823 15.0117 11.8215 15.3011L12.4228 16.5511C12.5079 16.728 12.673 16.8483 12.862 16.8711C12.8837 16.8737 12.9054 16.875 12.927 16.875C13.0931 16.875 13.2522 16.7986 13.36 16.6642L14.8631 14.7892C15.0624 14.5405 15.0301 14.1711 14.7909 13.9639Z" fill="white"/>
<path d="M8.98121 6.83594H9.58246C9.89376 6.83594 10.1461 6.57359 10.1461 6.25C10.1461 5.92641 9.89376 5.66406 9.58246 5.66406H8.98121C8.66991 5.66406 8.41754 5.92641 8.41754 6.25C8.41754 6.57359 8.66991 6.83594 8.98121 6.83594Z" fill="white"/>
<path d="M10.1461 9.375C10.1461 9.05141 9.89376 8.78906 9.58246 8.78906H8.98121C8.66991 8.78906 8.41754 9.05141 8.41754 9.375C8.41754 9.69859 8.66991 9.96094 8.98121 9.96094H9.58246C9.89376 9.96094 10.1461 9.69859 10.1461 9.375Z" fill="white"/>
</svg>
