<svg width="17" height="17" viewBox="0 0 17 17" fill="none" xmlns="http://www.w3.org/2000/svg">
<path d="M7.87191 5.80187L7.91796 5.53872L7.72481 5.35417L7.36528 5.01066L7.87158 4.93854L8.13018 4.90171L8.24766 4.6684L8.4834 4.20021L8.71914 4.6684L8.83661 4.90171L9.09521 4.93854L9.60152 5.01066L9.24199 5.35417L9.04884 5.53872L9.09488 5.80187L9.18193 6.29935L8.71243 6.05741L8.4834 5.93939L8.25436 6.05741L7.78486 6.29935L7.87191 5.80187ZM13.4092 1.28995L13.4042 1.79492H13.9092H16.5V1.95898C16.5 3.55958 16.0766 4.88801 15.2157 6.04857L15.2157 6.04858C14.4758 7.04618 13.5414 7.75338 12.6607 8.41647L12.6607 8.41647L12.6393 8.43258C12.1088 8.83208 11.586 9.22573 11.2105 9.63427L11.1943 9.6519L11.1798 9.67101C10.5495 10.5044 9.77031 11.2306 8.85549 11.8342L8.63086 11.9824V12.2516V13.3477V13.8477H9.13086H9.46289C10.8345 13.8477 11.9512 14.9643 11.9512 16.3359V16.5H4.98242V16.3359C4.98242 14.9643 6.09911 13.8477 7.4707 13.8477H7.80273H8.30273V13.3477V12.2516V11.9824L8.0781 11.8342C7.16165 11.2295 6.38141 10.5018 5.75045 9.66654L5.73609 9.64753L5.71998 9.62997C5.34843 9.22481 4.83582 8.83436 4.31516 8.43776L4.29586 8.42306C3.4247 7.75946 2.50054 7.05188 1.76903 6.05336C0.918744 4.89266 0.5 3.56263 0.5 1.95898V1.79492H3.02437H3.52937L3.52435 1.28995C3.52224 1.07827 3.52148 0.869409 3.52148 0.664062V0.5H13.4121V0.664062C13.4121 0.869409 13.4114 1.07827 13.4092 1.28995ZM1.35668 2.12305H0.810515L0.858623 2.66709C1.06196 4.9666 2.24876 6.32739 3.48374 7.36538L4.84153 8.50659L4.2797 6.82424C4.2452 6.72095 4.21218 6.6188 4.18117 6.51645C3.78449 5.20694 3.62376 3.87393 3.56065 2.59834L3.53714 2.12305H3.06126H1.35668ZM10.9844 16.1719H11.7493L11.4424 15.4712C11.1092 14.7106 10.3485 14.1758 9.46289 14.1758H7.4707C6.58508 14.1758 5.82443 14.7106 5.49119 15.4712L5.18425 16.1719H5.94917H10.9844ZM10.9708 9.41118L10.9762 9.40524L10.9919 9.38401C12.7564 6.99109 13.0448 4.01869 13.0799 1.33467L13.0865 0.828125H12.5799H4.35366H3.84707L3.8537 1.33467C3.8888 4.01633 4.17659 6.98593 5.93709 9.37775L5.95276 9.39903L5.96343 9.41072L5.94756 9.42157L6.30661 9.84484C6.82316 10.4538 7.44386 11.0148 8.18842 11.5138L8.4668 11.7004L8.74517 11.5138C9.48974 11.0148 10.1104 10.4537 10.627 9.8449L10.9861 9.42162L10.9708 9.41118ZM12.644 6.85363L12.0853 8.51087L13.4356 7.3994C14.7002 6.35847 15.9315 4.99398 16.1408 2.66785L16.1898 2.12305H15.6428H13.8723H13.3964L13.3729 2.59835C13.3098 3.87393 13.1491 5.20694 12.7524 6.51644L12.7524 6.51646C12.7183 6.62896 12.682 6.74103 12.644 6.85363Z" fill="#B2BAC8" stroke="#B2BAC8"/>
</svg>
