<svg width="20" height="21" viewBox="0 0 20 21" fill="none" xmlns="http://www.w3.org/2000/svg">
<path d="M19.2001 10.6491V17.0313C19.2001 18.668 17.8684 19.9998 16.2313 19.9998H3.1689C1.53204 19.9998 0.200195 18.668 0.200195 17.0313V3.96997C0.200195 2.3331 1.53204 1.00137 3.1689 1.00137H11.6669C12.0769 1.00137 12.4092 1.33376 12.4092 1.74356C12.4092 2.1535 12.0769 2.48575 11.6669 2.48575H3.1689C2.3504 2.48575 1.68455 3.15154 1.68455 3.96997V17.0313C1.68455 17.8497 2.3504 18.5155 3.1689 18.5155H16.2313C17.0498 18.5155 17.7157 17.8497 17.7157 17.0313V10.6491C17.7157 10.2391 18.048 9.90689 18.4579 9.90689C18.8678 9.90689 19.2001 10.2391 19.2001 10.6491ZM17.4971 5.22575C17.6381 5.36592 17.7158 5.5519 17.7158 5.74934C17.7158 5.94692 17.6381 6.13275 17.4971 6.27293L14.5207 9.23037C14.23 9.51927 14.2286 9.98922 14.5175 10.2799C14.6625 10.4258 14.8532 10.4989 15.0439 10.4989C15.2331 10.4989 15.4223 10.427 15.5671 10.2832L18.5435 7.32576C18.9669 6.9048 19.2002 6.34512 19.2002 5.74934C19.2002 5.15356 18.9669 4.59373 18.5435 4.17292L15.5671 1.21548C15.2764 0.926574 14.8064 0.928023 14.5175 1.21881C14.2286 1.5096 14.23 1.97941 14.5207 2.26831L17.4971 5.22575ZM15.8973 5.71397C15.8973 5.30403 15.5651 4.97178 15.1552 4.97178C12.4789 4.97178 9.96281 6.01389 8.07036 7.90617C6.17792 9.79846 5.13572 12.3144 5.13572 14.9904V15.5471C5.13572 15.9569 5.46799 16.2891 5.87797 16.2891C6.2878 16.2891 6.62008 15.9569 6.62008 15.5471V14.9904C6.62008 10.2845 10.4489 6.45601 15.1552 6.45601C15.5651 6.45601 15.8973 6.12376 15.8973 5.71397Z" fill="#414B5B"/>
<path fill-rule="evenodd" clip-rule="evenodd" d="M14.3795 9.08854L17.3559 6.13111C17.4595 6.02816 17.5156 5.89325 17.5156 5.74939C17.5156 5.60565 17.4595 5.4706 17.3559 5.36766L14.3795 2.41023C14.0105 2.04345 14.0087 1.447 14.3754 1.07789C14.7422 0.708754 15.3388 0.70689 15.7079 1.07365C15.7079 1.07366 15.7079 1.07365 15.7079 1.07365L18.6843 4.03109L18.5435 4.17292L15.5671 1.21548C15.2764 0.926574 14.8064 0.928023 14.5175 1.21881C14.2286 1.5096 14.23 1.97941 14.5207 2.26831L17.4971 5.22575C17.6381 5.36592 17.7158 5.5519 17.7158 5.74934C17.7158 5.94692 17.6381 6.13275 17.4971 6.27293L14.5207 9.23037C14.23 9.51927 14.2286 9.98922 14.5175 10.2799C14.6625 10.4258 14.8532 10.4989 15.0439 10.4989C15.2331 10.4989 15.4223 10.427 15.5671 10.2832L18.5435 7.32576C18.9669 6.9048 19.2002 6.34512 19.2002 5.74934C19.2002 5.15356 18.9669 4.59373 18.5435 4.17292L18.6843 4.03109C19.1454 4.48935 19.4 5.10021 19.4 5.74939C19.4 6.39858 19.1454 7.00927 18.6843 7.46765L15.7079 10.4251C15.5241 10.6076 15.2836 10.6989 15.0437 10.6989C14.802 10.6989 14.5595 10.6062 14.3755 10.4209C14.0086 10.0519 14.0105 9.4553 14.3795 9.08854ZM19.3999 10.6491V17.0313C19.3999 18.7785 17.9786 20.1998 16.2311 20.1998H3.16871C1.4214 20.1998 0 18.7785 0 17.0313V3.97002C0 2.22269 1.4214 0.801421 3.16871 0.801421H11.6667C12.1872 0.801421 12.609 1.22336 12.609 1.74361C12.609 2.26402 12.1872 2.68579 11.6667 2.68579H3.16871C2.46065 2.68579 1.88435 3.26206 1.88435 3.97002V17.0313C1.88435 17.7393 2.46065 18.3156 3.16871 18.3156H16.2311C16.9392 18.3156 17.5155 17.7393 17.5155 17.0313V10.6491C17.5155 10.1287 17.9373 9.70694 18.4578 9.70694C18.9781 9.70694 19.3999 10.1287 19.3999 10.6491ZM15.155 4.77183C15.6753 4.77183 16.0971 5.19363 16.0971 5.71402C16.0971 6.23429 15.6753 6.65606 15.155 6.65606C10.5591 6.65606 6.81988 10.395 6.81988 14.9905V15.5471C6.81988 16.0674 6.39805 16.4892 5.87778 16.4892C5.35738 16.4892 4.93553 16.0674 4.93553 15.5471V14.9905C4.93553 12.2614 5.9988 9.69459 7.92875 7.76479C9.85871 5.835 12.4257 4.77183 15.155 4.77183ZM19.2001 17.0313V10.6491C19.2001 10.2391 18.8678 9.90689 18.4579 9.90689C18.048 9.90689 17.7157 10.2391 17.7157 10.6491V17.0313C17.7157 17.8497 17.0498 18.5155 16.2313 18.5155H3.1689C2.3504 18.5155 1.68455 17.8497 1.68455 17.0313V3.96997C1.68455 3.15154 2.3504 2.48575 3.1689 2.48575H11.6669C12.0769 2.48575 12.4092 2.1535 12.4092 1.74356C12.4092 1.33376 12.0769 1.00137 11.6669 1.00137H3.1689C1.53204 1.00137 0.200195 2.3331 0.200195 3.96997V17.0313C0.200195 18.668 1.53204 19.9998 3.1689 19.9998H16.2313C17.8684 19.9998 19.2001 18.668 19.2001 17.0313ZM15.1552 4.97178C15.5651 4.97178 15.8973 5.30403 15.8973 5.71397C15.8973 6.12376 15.5651 6.45601 15.1552 6.45601C10.4489 6.45601 6.62008 10.2845 6.62008 14.9904V15.5471C6.62008 15.9569 6.2878 16.2891 5.87797 16.2891C5.46799 16.2891 5.13572 15.9569 5.13572 15.5471V14.9904C5.13572 12.3144 6.17792 9.79846 8.07036 7.90617C9.96281 6.01389 12.4789 4.97178 15.1552 4.97178Z" fill="#414B5B"/>
</svg>
