<svg width="26" height="14" viewBox="0 0 26 14" fill="none" xmlns="http://www.w3.org/2000/svg">
<path d="M0.9 13V13.1H1H1.9375H2.0375V13C2.0375 10.2638 4.26375 8.0375 7 8.0375C9.73625 8.0375 11.9625 10.2638 11.9625 13V13.1H12.0625H13H13.1V13C13.1 11.3708 12.4653 9.83866 11.3134 8.68664L11.2427 8.75734L11.3134 8.68663C10.6951 8.06843 9.96719 7.59945 9.17341 7.29733C10.0211 6.64453 10.5688 5.61957 10.5688 4.46875C10.5688 2.50086 8.96789 0.9 7 0.9C5.03211 0.9 3.43125 2.50086 3.43125 4.46875C3.43125 5.61957 3.97892 6.64453 4.8266 7.29733C4.03283 7.59945 3.30488 8.06844 2.68666 8.68663L2.75737 8.75734L2.68666 8.68663C1.53465 9.83866 0.9 11.3708 0.9 13ZM7 6.9C5.6595 6.9 4.56875 5.80927 4.56875 4.46875C4.56875 3.12823 5.6595 2.0375 7 2.0375C8.3405 2.0375 9.43125 3.12823 9.43125 4.46875C9.43125 5.80927 8.3405 6.9 7 6.9Z" fill="#8794A8" stroke="#8794A8" stroke-width="0.2"/>
<path d="M14.9 13V13.1H15H15.7812H15.8813V13C15.8813 10.729 17.729 8.88125 20 8.88125C22.271 8.88125 24.1187 10.729 24.1187 13V13.1H24.2188H25H25.1V13C25.1 11.6379 24.5694 10.3569 23.6063 9.39374L23.5355 9.46445L23.6063 9.39374C23.0966 8.88409 22.4977 8.49572 21.8447 8.2428C22.5417 7.69504 22.9906 6.84443 22.9906 5.89062C22.9906 4.24151 21.6491 2.9 20 2.9C18.3509 2.9 17.0094 4.24151 17.0094 5.89062C17.0094 6.84443 17.4583 7.69504 18.1553 8.2428C17.5023 8.49572 16.9034 8.88409 16.3938 9.39374L16.4645 9.46445L16.3938 9.39374C15.4306 10.3569 14.9 11.6379 14.9 13ZM20 7.9C18.8921 7.9 17.9906 6.99852 17.9906 5.89062C17.9906 4.78273 18.8921 3.88125 20 3.88125C21.1079 3.88125 22.0094 4.78273 22.0094 5.89062C22.0094 6.99852 21.1079 7.9 20 7.9Z" fill="#8794A8" stroke="#8794A8" stroke-width="0.2"/>
</svg>
