<svg width="27" height="27" viewBox="0 0 27 27" fill="none" xmlns="http://www.w3.org/2000/svg">
<path d="M8.99997 12.1048H8.34747C7.45704 12.0726 6.56949 12.2238 5.73991 12.5489C4.91033 12.8741 4.15642 13.3662 3.52497 13.9948L3.34497 14.2048V20.4148H6.40497V16.8898L6.81747 16.4248L7.00497 16.2073C7.98141 15.2042 9.19706 14.466 10.5375 14.0623C9.86637 13.5517 9.33708 12.8778 8.99997 12.1048V12.1048Z" fill="white"/>
<path d="M23.505 13.9724C22.8735 13.3437 22.1196 12.8516 21.29 12.5265C20.4605 12.2013 19.5729 12.0502 18.6825 12.0824C18.4094 12.0831 18.1365 12.0982 17.865 12.1274C17.5216 12.8525 17.0067 13.4832 16.365 13.9649C17.796 14.3608 19.0923 15.1385 20.115 16.2149L20.3025 16.4249L20.7075 16.8899V20.4224H23.6625V14.1824L23.505 13.9724Z" fill="white"/>
<path d="M8.32503 10.6421H8.55753C8.4495 9.71454 8.61225 8.77553 9.02615 7.93843C9.44004 7.10132 10.0874 6.40191 10.89 5.92461C10.5991 5.48012 10.1977 5.11881 9.72513 4.87607C9.25259 4.63332 8.7251 4.51746 8.19433 4.53983C7.66355 4.5622 7.14769 4.72203 6.69724 5.00367C6.2468 5.28531 5.87722 5.67911 5.62469 6.1465C5.37217 6.61389 5.24536 7.13885 5.25668 7.66997C5.268 8.2011 5.41706 8.72018 5.68927 9.17639C5.96148 9.63259 6.3475 10.0103 6.80954 10.2725C7.27157 10.5347 7.79378 10.6724 8.32503 10.6721V10.6421Z" fill="white"/>
<path d="M18.3225 10.0796C18.3316 10.2519 18.3316 10.4247 18.3225 10.5971C18.4664 10.6199 18.6118 10.6324 18.7575 10.6346H18.9C19.4289 10.6064 19.9415 10.4417 20.3879 10.1566C20.8342 9.87145 21.1992 9.47561 21.4472 9.00759C21.6952 8.53957 21.8177 8.01531 21.803 7.48585C21.7882 6.9564 21.6366 6.43979 21.3629 5.98632C21.0892 5.53285 20.7027 5.15798 20.2411 4.8982C19.7796 4.63842 19.2586 4.50258 18.7289 4.50392C18.1993 4.50525 17.679 4.6437 17.2187 4.9058C16.7584 5.1679 16.3739 5.54472 16.1025 5.99955C16.7813 6.44276 17.3395 7.04753 17.7269 7.75963C18.1144 8.47173 18.319 9.26887 18.3225 10.0796V10.0796Z" fill="white"/>
<path d="M13.4025 13.4404C15.254 13.4404 16.755 11.9394 16.755 10.0879C16.755 8.23632 15.254 6.73535 13.4025 6.73535C11.551 6.73535 10.05 8.23632 10.05 10.0879C10.05 11.9394 11.551 13.4404 13.4025 13.4404Z" fill="white"/>
<path d="M13.5825 15.2255C12.603 15.1859 11.6257 15.3449 10.7093 15.6929C9.79287 16.041 8.95633 16.5708 8.25 17.2505L8.0625 17.4605V22.208C8.06543 22.3626 8.09879 22.5152 8.16069 22.6569C8.22258 22.7986 8.31179 22.9268 8.42323 23.0341C8.53467 23.1413 8.66614 23.2256 8.81015 23.282C8.95415 23.3384 9.10786 23.366 9.2625 23.363H17.88C18.0346 23.366 18.1884 23.3384 18.3324 23.282C18.4764 23.2256 18.6078 23.1413 18.7193 23.0341C18.8307 22.9268 18.9199 22.7986 18.9818 22.6569C19.0437 22.5152 19.0771 22.3626 19.08 22.208V17.4755L18.9 17.2505C18.1982 16.5687 17.3646 16.0374 16.4502 15.6892C15.5359 15.3409 14.56 15.1832 13.5825 15.2255V15.2255Z" fill="white"/>
</svg>
