<svg width="21" height="18" viewBox="0 0 21 18" fill="none" xmlns="http://www.w3.org/2000/svg">
<path d="M19.7396 2.26457H12.5176C12.5077 2.26457 12.4989 2.2592 12.4947 2.25057L11.7499 0.715239C11.5396 0.28069 11.0958 0 10.619 0H6.25312C5.5581 0 4.99269 0.574731 4.99269 1.28118V2.53696H3.75645C3.06159 2.53696 2.49619 3.11153 2.49619 3.81781V5.07359H1.26043C0.565407 5.07359 0 5.64816 0 6.35444V16.7191C0 17.4254 0.565407 18 1.26043 18H14.747C15.4421 18 16.0075 17.4254 16.0075 16.7191V15.4632H17.2434C17.9384 15.4632 18.5038 14.8886 18.5038 14.1825V12.9267H19.7396C20.4346 12.9267 21 12.3522 21 11.6459V3.54575C21 2.8393 20.4346 2.26457 19.7396 2.26457ZM14.747 16.7447H1.26043C1.24665 16.7447 1.23528 16.7333 1.23528 16.7191V6.35444C1.23528 6.34028 1.24665 6.32888 1.26043 6.32888H5.62667C5.63084 6.32888 5.63484 6.33035 5.63837 6.3323L5.63997 6.33279L5.64349 6.3367C5.64558 6.33882 5.64798 6.34061 5.64926 6.34321L6.39443 7.87903C6.60832 8.3196 7.04155 8.59346 7.52492 8.59346H14.747C14.7504 8.59346 14.7538 8.59411 14.7568 8.59541C14.7658 8.59932 14.772 8.60843 14.772 8.61902C14.772 13.0456 14.7722 16.6788 14.7722 16.7191C14.7722 16.7333 14.761 16.7447 14.747 16.7447ZM17.2685 14.1825C17.2685 14.1965 17.2573 14.2079 17.2435 14.2079H16.0075V8.61902C16.0075 7.91257 15.4419 7.338 14.7469 7.338H7.52492C7.51563 7.338 7.50666 7.3323 7.50249 7.32367L6.75716 5.78785C6.54343 5.34777 6.11037 5.07359 5.62683 5.07359H3.73146V3.81781C3.73146 3.80365 3.74268 3.79225 3.75645 3.79225H8.12286C8.13247 3.79225 8.14112 3.79762 8.14545 3.80674L8.89078 5.34256C9.10483 5.78313 9.5379 6.05682 10.0211 6.05682H17.2435C17.2573 6.05682 17.2685 6.06822 17.2685 6.08238V14.1825ZM19.7647 11.6459C19.7647 11.66 19.7535 11.6714 19.7396 11.6714H18.5038V6.08238C18.5038 5.3761 17.9386 4.80153 17.2435 4.80153H10.0211C10.0117 4.80153 10.0028 4.79583 9.99852 4.78704L9.25335 3.25171C9.03978 2.81081 8.60655 2.53696 8.12286 2.53696H6.22797V1.28118C6.22797 1.26685 6.23918 1.25529 6.25296 1.25529H10.6189C10.6283 1.25529 10.6371 1.26066 10.6415 1.26962L11.3868 2.80593C11.6007 3.24617 12.0339 3.51986 12.5176 3.51986H19.7396C19.7533 3.51986 19.7646 3.53142 19.7646 3.54591L19.7647 11.6459Z" fill="#006600"/>
</svg>
