<svg width="20" height="21" viewBox="0 0 20 21" fill="none" xmlns="http://www.w3.org/2000/svg">
<path fill-rule="evenodd" clip-rule="evenodd" d="M0 1C0 0.447715 0.447715 0 1 0H10C10.5523 0 11 0.447715 11 1V17C11 17.5523 10.5523 18 10 18H1C0.447715 18 0 17.5523 0 17V1ZM2 2V16H9V2H2Z" fill="white"/>
<path fill-rule="evenodd" clip-rule="evenodd" d="M9 4C9 3.44772 9.44772 3 10 3H19C19.5523 3 20 3.44772 20 4V20C20 20.5523 19.5523 21 19 21H10C9.44772 21 9 20.5523 9 20V4ZM11 5V19H18V5H11Z" fill="white"/>
<path fill-rule="evenodd" clip-rule="evenodd" d="M3.34262 6.31221C3.81744 5.9113 4.60861 5.89424 5.10974 6.2741L7.60974 8.16909C8.09609 8.53775 8.13263 9.14762 7.69257 9.5518L5.4007 11.6568C4.94727 12.0732 4.15769 12.1168 3.63712 11.754C3.11655 11.3913 3.06212 10.7596 3.51555 10.3432L5.0201 8.96132L3.39026 7.7259C2.88913 7.34604 2.8678 6.71311 3.34262 6.31221Z" fill="white"/>
<path fill-rule="evenodd" clip-rule="evenodd" d="M16.6574 9.31221C17.1322 9.71311 17.1109 10.346 16.6097 10.7259L14.9799 11.9613L16.4845 13.3432C16.9379 13.7596 16.8834 14.3913 16.3629 14.754C15.8423 15.1168 15.0527 15.0732 14.5993 14.6568L12.3074 12.5518C11.8674 12.1476 11.9039 11.5378 12.3903 11.1691L14.8903 9.2741C15.3914 8.89424 16.1826 8.9113 16.6574 9.31221Z" fill="white"/>
</svg>
