<svg width="21" height="23" viewBox="0 0 21 23" fill="none" xmlns="http://www.w3.org/2000/svg">
<path d="M11.6392 13.3683L11.6342 13.3185C11.9997 13.2818 12.321 13.5616 12.3557 13.9384C12.3904 14.3149 12.1266 14.6531 11.7615 14.6899L11.6697 14.6992L12.3952 17.1942C12.5004 17.5562 12.3058 17.9415 11.9556 18.0529C11.6044 18.1646 11.2358 17.9568 11.1302 17.5939L10.3279 14.8345L8.27428 15.0415L7.63554 17.5544L7.58708 17.5421L7.63554 17.5544C7.54239 17.9208 7.1811 18.1423 6.82634 18.0436C6.47243 17.9452 6.26493 17.5671 6.35785 17.2015L6.87094 15.1829L6.29801 15.2407L6.29799 15.2407L6.29298 15.1909C5.95794 15.2249 5.65873 14.9681 5.62632 14.6163L11.6392 13.3683ZM11.6392 13.3683L11.6342 13.3185L11.2787 13.3544L9.85005 8.44086C9.65811 7.78063 8.74914 7.79385 8.57875 8.46422L7.23208 13.7623L11.6392 13.3683ZM16.2705 3.94577L16.2705 3.94578C16.0057 4.20641 15.9931 4.64116 16.242 4.918L16.2792 4.88456L16.242 4.918C17.6299 6.46101 18.4604 8.64475 18.6782 10.9266C18.896 13.2082 18.5007 15.5831 17.4425 17.5069C16.5289 19.1678 15.2274 20.3093 13.6158 20.9054C12.0035 21.5018 10.077 21.5537 7.91235 21.028C5.70698 20.4924 4.17391 19.0176 3.26931 17.1731C2.36429 15.3278 2.08936 13.114 2.40168 11.1077C2.75555 8.83443 3.91142 6.44786 6.06619 4.73774C8.22028 3.02816 11.3772 1.991 15.7403 2.42414L15.7403 2.42415C16.1061 2.4601 16.4267 2.18006 16.4608 1.80322C16.495 1.42669 16.2308 1.08881 15.8656 1.05256C11.5511 0.624208 8.09482 1.56448 5.59828 3.37299C3.10173 5.18152 1.56887 7.85555 1.09698 10.887C0.304627 15.9773 2.75236 21.1896 7.61241 22.3698C9.893 22.9237 12.0718 22.9074 13.9641 22.2377C15.8572 21.5677 17.4601 20.2449 18.5892 18.1922C19.7777 16.0313 20.2296 13.3648 19.9864 10.7962C19.7432 8.22762 18.8044 5.75238 17.2063 3.97557C16.9562 3.69754 16.5367 3.68394 16.2705 3.94577ZM9.26022 11.1625L9.93685 13.4897L8.63534 13.6209L9.26022 11.1625ZM13.7145 10.0426C14.0815 10.0426 14.3754 9.73206 14.3754 9.3537V8.03448C14.9833 8.07128 15.0075 8.07329 15.0316 8.07338C15.0337 8.07339 15.0357 8.07339 15.038 8.07339C15.3875 8.07339 15.6771 7.78853 15.6973 7.42415C15.7182 7.0465 15.4421 6.7189 15.0758 6.69672L14.3754 6.65434V5.91514C14.3754 5.53683 14.0816 5.22623 13.7145 5.22623C13.3474 5.22623 13.0536 5.53678 13.0536 5.91514V6.57434L12.4298 6.53659C12.4298 6.53659 12.4298 6.53659 12.4298 6.53659C12.0634 6.5143 11.7526 6.80686 11.7317 7.18466C11.7108 7.56232 11.9869 7.88992 12.3532 7.9121L13.0536 7.95447V9.3537C13.0536 9.73206 13.3474 10.0426 13.7145 10.0426Z" fill="#006600" stroke="#006600" stroke-width="0.1"/>
</svg>
