<svg width="20" height="20" viewBox="0 0 20 20" fill="none" xmlns="http://www.w3.org/2000/svg">
<path d="M9.9999 4.28613C9.29354 4.28613 8.60304 4.49559 8.01572 4.88803C7.4284 5.28046 6.97064 5.83824 6.70033 6.49084C6.43001 7.14343 6.35929 7.86152 6.49709 8.55431C6.6349 9.2471 6.97504 9.88347 7.47452 10.3829C7.97399 10.8824 8.61036 11.2226 9.30315 11.3604C9.99594 11.4982 10.714 11.4274 11.3666 11.1571C12.0192 10.8868 12.577 10.4291 12.9694 9.84174C13.3619 9.25442 13.5713 8.56392 13.5713 7.85756C13.5713 6.91036 13.1951 6.00195 12.5253 5.33218C11.8555 4.66241 10.9471 4.28613 9.9999 4.28613ZM9.9999 10.0004C9.57608 10.0004 9.16178 9.87474 8.80939 9.63928C8.457 9.40382 8.18234 9.06915 8.02016 8.6776C7.85797 8.28604 7.81553 7.85518 7.89821 7.43951C7.9809 7.02384 8.18498 6.64202 8.48467 6.34233C8.78435 6.04265 9.16617 5.83856 9.58185 5.75588C9.99752 5.6732 10.4284 5.71563 10.8199 5.87782C11.2115 6.04001 11.5462 6.31466 11.7816 6.66705C12.0171 7.01944 12.1428 7.43374 12.1428 7.85756C12.1422 8.42571 11.9162 8.97042 11.5145 9.37216C11.1128 9.77391 10.568 9.99985 9.9999 10.0004Z" fill="#663300"/>
<path d="M10 0C8.02219 0 6.08879 0.58649 4.4443 1.6853C2.79981 2.78412 1.51809 4.34591 0.761209 6.17317C0.00433283 8.00043 -0.193701 10.0111 0.192152 11.9509C0.578004 13.8907 1.53041 15.6725 2.92894 17.0711C4.32746 18.4696 6.10929 19.422 8.0491 19.8079C9.98891 20.1937 11.9996 19.9957 13.8268 19.2388C15.6541 18.4819 17.2159 17.2002 18.3147 15.5557C19.4135 13.9112 20 11.9778 20 10C19.997 7.34876 18.9424 4.80698 17.0677 2.93227C15.193 1.05756 12.6512 0.0030248 10 0ZM5.71429 17.4121V16.4286C5.71486 15.8604 5.9408 15.3157 6.34255 14.914C6.74429 14.5122 7.289 14.2863 7.85715 14.2857H12.1429C12.711 14.2863 13.2557 14.5122 13.6575 14.914C14.0592 15.3157 14.2852 15.8604 14.2857 16.4286V17.4121C12.9851 18.1716 11.5061 18.5718 10 18.5718C8.49392 18.5718 7.01489 18.1716 5.71429 17.4121ZM15.7086 16.3757C15.6943 15.4388 15.3126 14.545 14.6457 13.8868C13.9787 13.2287 13.0799 12.8589 12.1429 12.8571H7.85715C6.92014 12.8589 6.02132 13.2287 5.35435 13.8868C4.68739 14.545 4.30567 15.4388 4.29143 16.3757C2.99612 15.2191 2.08267 13.6963 1.67203 12.009C1.26139 10.3218 1.37293 8.54953 1.99189 6.92704C2.61085 5.30455 3.70802 3.90833 5.13813 2.92326C6.56824 1.93819 8.26382 1.41073 10.0004 1.41073C11.7369 1.41073 13.4325 1.93819 14.8626 2.92326C16.2927 3.90833 17.3899 5.30455 18.0088 6.92704C18.6278 8.54953 18.7393 10.3218 18.3287 12.009C17.9181 13.6963 17.0046 15.2191 15.7093 16.3757H15.7086Z" fill="#663300"/>
</svg>
