<svg width="22" height="25" viewBox="0 0 22 25" fill="none" xmlns="http://www.w3.org/2000/svg">
<path d="M18.1087 3.08755C18.0097 3.0878 17.9126 3.0619 17.8273 3.01255C15.4804 1.77506 13.4514 1.25006 11.0188 1.25006C8.59841 1.25006 6.30017 1.83756 4.20976 3.01255C3.91415 3.17714 3.54979 3.06255 3.37846 2.76047C3.30198 2.61467 3.28473 2.44566 3.3302 2.28778C3.37568 2.12991 3.48048 1.995 3.6233 1.91047C5.87784 0.65109 8.4269 -0.00738484 11.0188 6.24765e-05C13.6222 6.24765e-05 15.8961 0.587561 18.39 1.90006C18.5355 1.97885 18.6438 2.11068 18.6918 2.26725C18.7397 2.42382 18.7235 2.59266 18.6465 2.73756C18.6002 2.84043 18.5249 2.92807 18.4296 2.9901C18.3343 3.05213 18.2229 3.08595 18.1087 3.08755ZM0.615917 9.65004C0.488906 9.64915 0.365233 9.60988 0.26161 9.53754C0.126792 9.43886 0.036123 9.2925 0.00870057 9.12928C-0.0187219 8.96606 0.0192433 8.79874 0.114599 8.66254C1.32506 6.91255 2.86445 5.53755 4.69891 4.57505C8.53706 2.55214 13.4514 2.53756 17.3017 4.56255C19.1356 5.52505 20.6755 6.88755 21.886 8.62504C21.981 8.76136 22.0187 8.92858 21.9913 9.09168C21.9639 9.25478 21.8735 9.40112 21.739 9.50004C21.6737 9.54807 21.5992 9.5824 21.5199 9.60092C21.4406 9.61943 21.3584 9.62173 21.2782 9.60767C21.198 9.59361 21.1215 9.56349 21.0536 9.51918C20.9857 9.47486 20.9278 9.4173 20.8834 9.35004C19.7834 7.77504 18.39 6.53755 16.7395 5.67505C13.2314 3.83755 8.74489 3.83755 5.24888 5.68755C3.58628 6.56255 2.19285 7.81254 1.09291 9.38546C1.04548 9.46822 0.975961 9.53663 0.891881 9.58327C0.807801 9.62991 0.712368 9.653 0.615917 9.65004ZM8.25574 24.7396C8.17495 24.7404 8.09494 24.724 8.02113 24.6917C7.94731 24.6593 7.88142 24.6117 7.82792 24.5521C6.76447 23.4625 6.18806 22.7604 5.37104 21.25C4.52493 19.7125 4.0876 17.8375 4.0876 15.825C4.0876 12.1125 7.19228 9.08754 11.0066 9.08754C14.821 9.08754 17.9278 12.1125 17.9278 15.825C17.9302 15.9055 17.9162 15.9857 17.8865 16.0608C17.8569 16.1359 17.8123 16.2044 17.7553 16.2622C17.6983 16.32 17.6302 16.3659 17.5548 16.3973C17.4795 16.4286 17.3985 16.4448 17.3167 16.4448C17.235 16.4448 17.154 16.4286 17.0787 16.3973C17.0033 16.3659 16.9352 16.32 16.8782 16.2622C16.8212 16.2044 16.7766 16.1359 16.7469 16.0608C16.7173 15.9857 16.7033 15.9055 16.7057 15.825C16.7057 12.8 14.1505 10.3375 11.0093 10.3375C7.86811 10.3375 5.31022 12.8 5.31022 15.825C5.31022 17.625 5.70102 19.2875 6.44665 20.6375C7.2293 22.075 7.76869 22.6875 8.7084 23.6625C8.81985 23.7838 8.88155 23.9416 8.88155 24.1052C8.88155 24.2688 8.81985 24.4266 8.7084 24.5479C8.58842 24.6672 8.42614 24.7359 8.25574 24.7396ZM17.0209 22.4271C15.5661 22.4271 14.2827 22.0521 13.2314 21.3146C12.3357 20.6963 11.604 19.8751 11.0978 18.9201C10.5917 17.9651 10.3259 16.9044 10.3229 15.8271C10.3195 15.7459 10.3327 15.6649 10.3619 15.5889C10.3911 15.5129 10.4356 15.4435 10.4927 15.3849C10.5498 15.3263 10.6183 15.2796 10.6942 15.2478C10.7701 15.2159 10.8517 15.1995 10.9342 15.1995C11.0167 15.1995 11.0983 15.2159 11.1742 15.2478C11.2501 15.2796 11.3186 15.3263 11.3757 15.3849C11.4328 15.4435 11.4773 15.5129 11.5065 15.5889C11.5357 15.6649 11.5489 15.7459 11.5455 15.8271C11.5476 16.7021 11.7642 17.5637 12.1771 18.3385C12.5899 19.1133 13.1868 19.7783 13.9167 20.2771C14.7845 20.8771 15.7993 21.1625 17.0219 21.1625C17.4477 21.1551 17.8722 21.1133 18.2911 21.0375C18.6211 20.975 18.9389 21.2 18.9997 21.55C19.0307 21.7115 18.9954 21.8786 18.9015 22.0145C18.8076 22.1504 18.6628 22.2441 18.4989 22.275C18.012 22.3698 17.5172 22.42 17.0209 22.425V22.4271ZM14.5635 25C14.5098 24.9978 14.4565 24.9894 14.4048 24.975C12.4609 24.425 11.1896 23.6875 9.85699 22.35C8.14521 20.6125 7.20445 18.3 7.20445 15.825C7.20445 13.8 8.89137 12.15 10.9691 12.15C13.0468 12.15 14.7343 13.8 14.7343 15.825C14.7343 17.1625 15.8712 18.25 17.2768 18.25C18.6824 18.25 19.8194 17.1625 19.8194 15.825C19.8194 11.1125 15.8464 7.28754 10.9569 7.28754C7.48525 7.28754 4.30706 9.26254 2.87714 12.325C2.4012 13.3375 2.15583 14.525 2.15583 15.825C2.15583 16.8 2.24097 18.3375 2.97444 20.3375C3.09713 20.6625 2.93795 21.025 2.62013 21.1375C2.5446 21.1658 2.46404 21.1788 2.38328 21.1757C2.30252 21.1726 2.22323 21.1535 2.15017 21.1194C2.07712 21.0854 2.01181 21.0371 1.95817 20.9776C1.90452 20.918 1.86365 20.8484 1.83801 20.7729C1.24821 19.1879 0.946055 17.5131 0.94537 15.825C0.94537 14.325 1.2267 12.9604 1.77667 11.775C3.40278 8.28546 7.00878 6.02505 10.9569 6.02505C16.519 6.02505 21.042 10.4125 21.042 15.8125C21.042 17.8375 19.3551 19.4875 17.2768 19.4875C15.1986 19.4875 13.5116 17.8375 13.5116 15.8125C13.5122 14.475 12.3752 13.3854 10.9696 13.3854C9.56403 13.3854 8.42707 14.4729 8.42707 15.8104C8.42707 17.9459 9.23405 19.9479 10.7131 21.4479C11.8765 22.6229 12.9871 23.2708 14.7105 23.7604C15.0405 23.8479 15.224 24.1979 15.1383 24.5229C15.1116 24.6549 15.0402 24.7739 14.9357 24.8606C14.8313 24.9473 14.7 24.9965 14.5635 25Z" fill="#663300"/>
</svg>
