<svg width="24" height="24" viewBox="0 0 24 24" fill="none" xmlns="http://www.w3.org/2000/svg">
<path d="M22.5469 4.30078H12.9492V2.92557C12.9486 2.39531 12.7376 1.88696 12.3627 1.51205C11.9877 1.13714 11.4793 0.926296 10.949 0.925781H2.92557C2.39535 0.926311 1.88701 1.13717 1.51209 1.51209C1.13717 1.88701 0.926311 2.39535 0.925781 2.92557V21.074C0.926296 21.6043 1.13714 22.1127 1.51205 22.4877C1.88696 22.8626 2.39531 23.0736 2.92557 23.0742H10.949C11.4793 23.0736 11.9877 22.8627 12.3627 22.4877C12.7377 22.1127 12.9486 21.6043 12.9492 21.074V13.793H22.5469C22.6161 13.793 22.6847 13.7793 22.7487 13.7528C22.8127 13.7263 22.8708 13.6875 22.9198 13.6385C22.9687 13.5896 23.0076 13.5314 23.0341 13.4674C23.0606 13.4035 23.0742 13.3349 23.0742 13.2656V4.82812C23.0742 4.75887 23.0606 4.6903 23.0341 4.62631C23.0076 4.56233 22.9687 4.50419 22.9198 4.45522C22.8708 4.40625 22.8127 4.36741 22.7487 4.34091C22.6847 4.31441 22.6161 4.30078 22.5469 4.30078ZM10.949 22.0195H2.92557C2.67495 22.0192 2.43471 21.9194 2.25754 21.7422C2.08037 21.5649 1.98072 21.3246 1.98047 21.074V19.6992H11.8945V21.074C11.8942 21.3247 11.7945 21.565 11.6172 21.7422C11.44 21.9195 11.1997 22.0192 10.949 22.0195ZM11.8945 18.6445H1.98047V2.92557C1.98074 2.67499 2.0804 2.43476 2.25758 2.25758C2.43476 2.0804 2.67499 1.98074 2.92557 1.98047H10.949C11.1996 1.98072 11.4399 2.08037 11.6172 2.25754C11.7944 2.43471 11.8942 2.67495 11.8945 2.92557V4.30078H4.82812C4.75887 4.30078 4.6903 4.31441 4.62631 4.34091C4.56233 4.36741 4.50419 4.40625 4.45522 4.45522C4.40625 4.50419 4.36741 4.56233 4.34091 4.62631C4.31441 4.6903 4.30078 4.75887 4.30078 4.82812V13.2656C4.30078 13.3349 4.31441 13.4035 4.34091 13.4674C4.36741 13.5314 4.40625 13.5896 4.45522 13.6385C4.50419 13.6875 4.56233 13.7263 4.62631 13.7528C4.6903 13.7793 4.75887 13.793 4.82812 13.793H7.25391V16.2188C7.2539 16.323 7.28482 16.425 7.34276 16.5117C7.4007 16.5985 7.48306 16.666 7.57942 16.706C7.67578 16.7459 7.78181 16.7563 7.88411 16.736C7.9864 16.7156 8.08036 16.6654 8.1541 16.5916L10.9527 13.793H11.8945V18.6445ZM22.0195 12.7383H10.7344C10.5945 12.7383 10.4604 12.7939 10.3615 12.8928L8.30859 14.9457V13.2656C8.3086 13.1964 8.29496 13.1278 8.26846 13.0638C8.24196 12.9998 8.20312 12.9417 8.15415 12.8927C8.10518 12.8438 8.04705 12.8049 7.98306 12.7784C7.91908 12.7519 7.8505 12.7383 7.78125 12.7383H5.35547V5.35547H22.0195V12.7383Z" fill="#663300"/>
<path d="M16.8323 10.1543C16.8668 10.2143 16.9129 10.2669 16.9678 10.309C17.0228 10.3512 17.0855 10.3821 17.1524 10.4001C17.2192 10.418 17.289 10.4225 17.3577 10.4134C17.4263 10.4043 17.4925 10.3818 17.5524 10.3471L18.2227 9.96005V10.7344C18.2227 10.8742 18.2783 11.0084 18.3772 11.1073C18.4761 11.2062 18.6102 11.2617 18.7501 11.2617C18.8899 11.2617 19.0241 11.2062 19.123 11.1073C19.2219 11.0084 19.2774 10.8742 19.2774 10.7344V9.96005L19.9477 10.3471C20.0688 10.417 20.2127 10.436 20.3477 10.3999C20.4828 10.3637 20.598 10.2754 20.6679 10.1543C20.7378 10.0332 20.7568 9.88934 20.7206 9.75429C20.6845 9.61923 20.5961 9.50407 20.4751 9.43414L19.8043 9.04688L20.4751 8.65961C20.5961 8.58968 20.6845 8.47452 20.7206 8.33946C20.7568 8.20441 20.7378 8.06052 20.6679 7.93945C20.5979 7.81839 20.4828 7.73006 20.3477 7.6939C20.2127 7.65774 20.0688 7.67671 19.9477 7.74664L19.2774 8.1337V7.35938C19.2774 7.21951 19.2219 7.08538 19.123 6.98649C19.0241 6.88759 18.8899 6.83203 18.7501 6.83203C18.6102 6.83203 18.4761 6.88759 18.3772 6.98649C18.2783 7.08538 18.2227 7.21951 18.2227 7.35938V8.1337L17.5524 7.74664C17.4925 7.71202 17.4263 7.68954 17.3576 7.68049C17.289 7.67144 17.2193 7.67599 17.1524 7.6939C17.0855 7.7118 17.0228 7.7427 16.9679 7.78484C16.913 7.82697 16.8669 7.87951 16.8323 7.93945C16.7976 7.9994 16.7751 8.06558 16.7661 8.13421C16.757 8.20285 16.7616 8.27259 16.7795 8.33946C16.7974 8.40634 16.8283 8.46903 16.8704 8.52396C16.9126 8.57889 16.9651 8.62498 17.0251 8.65961L17.6958 9.04688L17.0251 9.43414C16.9651 9.46874 16.9125 9.51482 16.8704 9.56975C16.8282 9.62468 16.7973 9.68738 16.7794 9.75426C16.7615 9.82114 16.7569 9.8909 16.766 9.95954C16.7751 10.0282 16.7976 10.0944 16.8323 10.1543Z" fill="#663300"/>
<path d="M11.7698 7.93945C11.7351 7.99939 11.7126 8.06557 11.7035 8.13421C11.6944 8.20285 11.699 8.27261 11.7169 8.33949C11.7348 8.40637 11.7657 8.46907 11.8079 8.524C11.85 8.57893 11.9026 8.62501 11.9626 8.65961L12.6333 9.04688L11.9626 9.43414C11.9026 9.46877 11.8501 9.51486 11.8079 9.56979C11.7658 9.62472 11.7349 9.68741 11.717 9.75429C11.6991 9.82116 11.6945 9.8909 11.7036 9.95954C11.7126 10.0282 11.7351 10.0944 11.7698 10.1543C11.8044 10.2142 11.8505 10.2668 11.9054 10.3089C11.9603 10.351 12.023 10.3819 12.0899 10.3999C12.1568 10.4178 12.2265 10.4223 12.2951 10.4133C12.3638 10.4042 12.43 10.3817 12.4899 10.3471L13.1602 9.96005V10.7344C13.1602 10.8742 13.2158 11.0084 13.3147 11.1073C13.4136 11.2062 13.5477 11.2617 13.6876 11.2617C13.8274 11.2617 13.9616 11.2062 14.0605 11.1073C14.1593 11.0084 14.2149 10.8742 14.2149 10.7344V9.96005L14.8852 10.3471C14.9452 10.3817 15.0113 10.4042 15.08 10.4133C15.1486 10.4223 15.2184 10.4178 15.2852 10.3999C15.3521 10.3819 15.4148 10.351 15.4697 10.3089C15.5247 10.2668 15.5707 10.2142 15.6054 10.1543C15.64 10.0944 15.6625 10.0282 15.6715 9.95954C15.6806 9.8909 15.676 9.82116 15.6581 9.75429C15.6402 9.68741 15.6093 9.62472 15.5672 9.56979C15.525 9.51486 15.4725 9.46877 15.4126 9.43414L14.7418 9.04688L15.4126 8.65961C15.5336 8.58968 15.622 8.47452 15.6581 8.33946C15.6943 8.20441 15.6753 8.06052 15.6054 7.93945C15.5354 7.81839 15.4203 7.73006 15.2852 7.6939C15.1502 7.65774 15.0063 7.67671 14.8852 7.74664L14.2149 8.1337V7.35938C14.2149 7.21951 14.1593 7.08538 14.0605 6.98649C13.9616 6.88759 13.8274 6.83203 13.6876 6.83203C13.5477 6.83203 13.4136 6.88759 13.3147 6.98649C13.2158 7.08538 13.1602 7.21951 13.1602 7.35938V8.1337L12.4899 7.74664C12.43 7.71187 12.3638 7.68928 12.2951 7.68015C12.2265 7.67103 12.1567 7.67555 12.0898 7.69347C12.0229 7.71138 11.9602 7.74233 11.9052 7.78455C11.8503 7.82676 11.8043 7.8794 11.7698 7.93945Z" fill="#663300"/>
<path d="M10.5428 7.93945C10.5083 7.87939 10.4622 7.82674 10.4073 7.78452C10.3524 7.7423 10.2897 7.71134 10.2228 7.69343C10.1558 7.67551 10.086 7.67099 10.0174 7.68012C9.94871 7.68925 9.88252 7.71186 9.82262 7.74664L9.15231 8.1337V7.35938C9.15231 7.21951 9.09675 7.08538 8.99785 6.98649C8.89895 6.88759 8.76482 6.83203 8.62496 6.83203C8.4851 6.83203 8.35097 6.88759 8.25207 6.98649C8.15318 7.08538 8.09762 7.21951 8.09762 7.35938V8.1337L7.42731 7.74664C7.30624 7.67671 7.16235 7.65774 7.0273 7.6939C6.89224 7.73006 6.77708 7.81839 6.70715 7.93945C6.63722 8.06052 6.61825 8.20441 6.65441 8.33946C6.69057 8.47452 6.7789 8.58968 6.89997 8.65961L7.5707 9.04688L6.89997 9.43414C6.84003 9.46877 6.78749 9.51486 6.74536 9.56979C6.70323 9.62472 6.67232 9.68741 6.65442 9.75429C6.63652 9.82116 6.63196 9.8909 6.64101 9.95954C6.65006 10.0282 6.67254 10.0944 6.70716 10.1543C6.74179 10.2142 6.78788 10.2668 6.84281 10.3089C6.89774 10.351 6.96044 10.3819 7.02731 10.3999C7.09418 10.4178 7.16392 10.4223 7.23256 10.4133C7.30119 10.4042 7.36737 10.3817 7.42732 10.3471L8.09763 9.96005V10.7344C8.09763 10.8742 8.15319 11.0084 8.25208 11.1073C8.35098 11.2062 8.48511 11.2617 8.62497 11.2617C8.76483 11.2617 8.89896 11.2062 8.99786 11.1073C9.09676 11.0084 9.15231 10.8742 9.15231 10.7344V9.96005L9.82263 10.3471C9.94369 10.417 10.0876 10.436 10.2226 10.3999C10.3577 10.3637 10.4728 10.2754 10.5428 10.1543C10.6127 10.0332 10.6317 9.88934 10.5955 9.75429C10.5594 9.61923 10.471 9.50407 10.35 9.43414L9.67924 9.04688L10.35 8.65961C10.4099 8.62501 10.4625 8.57893 10.5047 8.524C10.5468 8.46907 10.5777 8.40637 10.5956 8.33949C10.6135 8.27261 10.6181 8.20285 10.609 8.13421C10.5999 8.06557 10.5774 7.99939 10.5428 7.93945Z" fill="#663300"/>
<path d="M7.99219 20.332H5.88281C5.74295 20.332 5.60882 20.3876 5.50992 20.4865C5.41103 20.5854 5.35547 20.7195 5.35547 20.8594C5.35547 20.9992 5.41103 21.1334 5.50992 21.2323C5.60882 21.3312 5.74295 21.3867 5.88281 21.3867H7.99219C8.13205 21.3867 8.26618 21.3312 8.36508 21.2323C8.46397 21.1334 8.51953 20.9992 8.51953 20.8594C8.51953 20.7195 8.46397 20.5854 8.36508 20.4865C8.26618 20.3876 8.13205 20.332 7.99219 20.332Z" fill="#663300"/>
<path d="M5.88281 3.66797H7.99219C8.13205 3.66797 8.26618 3.61241 8.36508 3.51351C8.46397 3.41462 8.51953 3.28049 8.51953 3.14062C8.51953 3.00076 8.46397 2.86663 8.36508 2.76774C8.26618 2.66884 8.13205 2.61328 7.99219 2.61328H5.88281C5.74295 2.61328 5.60882 2.66884 5.50992 2.76774C5.41103 2.86663 5.35547 3.00076 5.35547 3.14062C5.35547 3.28049 5.41103 3.41462 5.50992 3.51351C5.60882 3.61241 5.74295 3.66797 5.88281 3.66797Z" fill="#663300"/>
</svg>
