<svg width="15" height="15" viewBox="0 0 15 15" fill="none" xmlns="http://www.w3.org/2000/svg">
<path d="M15.2703 1.36118C15.2703 0.921158 14.9136 0.564453 14.4736 0.564453H1.52629C1.36222 0.564453 1.20211 0.615133 1.06792 0.70951C0.708006 0.962651 0.621472 1.45967 0.874612 1.81959L5.56899 8.49363L5.58217 13.349C5.58299 13.6521 5.67311 13.9482 5.84121 14.2005C6.31373 14.9093 7.27139 15.1008 7.98021 14.6283L9.65688 13.5105C10.1024 13.2135 10.3689 12.7126 10.3664 12.1772L10.3494 8.52299L15.1225 1.82351C15.2187 1.6885 15.2703 1.52689 15.2703 1.36118ZM8.7536 8.01667L8.77302 12.1846L7.17545 13.2497L7.16114 7.98739L3.06081 2.15791H12.9277L8.7536 8.01667Z" fill="#414B5B"/>
</svg>
