<svg width="14" height="8" viewBox="0 0 14 8" fill="none" xmlns="http://www.w3.org/2000/svg">
<path d="M9.85355 0.159541C9.6583 -0.0531803 9.34174 -0.0531803 9.14644 0.159541L3.15614 6.68516L0.853563 4.17684C0.65831 3.96412 0.341748 3.96414 0.146455 4.17684C-0.0488183 4.38954 -0.0488183 4.73439 0.146455 4.94711L2.80258 7.84053C2.99778 8.05323 3.31458 8.05308 3.50969 7.84053L9.85355 0.929831C10.0488 0.717131 10.0488 0.372262 9.85355 0.159541Z" fill="#B2BAC8"/>
<path d="M13.8536 0.159541C13.6583 -0.0531803 13.3417 -0.0531803 13.1464 0.159541L7.15614 6.68516L4.85356 4.17684C4.65831 3.96412 4.34175 3.96414 4.14645 4.17684C3.95118 4.38954 3.95118 4.73439 4.14645 4.94711L6.80258 7.84053C6.99778 8.05323 7.31458 8.05308 7.50969 7.84053L13.8536 0.929831C14.0488 0.717131 14.0488 0.372262 13.8536 0.159541Z" fill="#B2BAC8"/>
</svg>
