<svg width="24" height="22" viewBox="0 0 24 22" fill="none" xmlns="http://www.w3.org/2000/svg">
<path d="M17.7029 22C17.5139 22 17.3209 21.976 17.1297 21.926L1.66537 17.7849C0.472414 17.4559 -0.238601 16.222 0.0734182 15.0299L1.77341 8.51106C1.87742 8.11098 2.28648 7.868 2.68841 7.97511C3.0885 8.07912 3.32948 8.48909 3.22455 8.89009L1.52438 15.4101C1.41946 15.812 1.65842 16.2269 2.05851 16.3369L17.5139 20.476C17.9109 20.5809 18.3209 20.3449 18.4249 19.95L18.9528 17.8199C19.0529 17.418 19.4589 17.1739 19.8608 17.2721C20.2629 17.372 20.5079 17.778 20.4089 18.1799L19.8789 20.32C19.6118 21.333 18.6999 22 17.7029 22Z" fill="#B2BAC8"/>
<path d="M21.7499 16H6.24953C5.00859 16 3.99947 14.9909 3.99947 13.75V2.24999C3.99947 1.00909 5.00859 0 6.24953 0H21.7499C22.9909 0 24 1.00909 24 2.24999V13.75C24 14.9909 22.9909 16 21.7499 16ZM6.24953 1.49999C5.83552 1.49999 5.49951 1.83599 5.49951 2.24999V13.75C5.49951 14.164 5.83552 14.5 6.24953 14.5H21.7499C22.164 14.5 22.5 14.164 22.5 13.75V2.24999C22.5 1.83599 22.164 1.49999 21.7499 1.49999H6.24953Z" fill="#B2BAC8"/>
<path d="M8.99965 7.00008C7.8966 7.00008 6.99954 6.10306 6.99954 5.00003C6.99954 3.89701 7.8966 2.99998 8.99965 2.99998C10.1027 2.99998 10.9996 3.89701 10.9996 5.00003C10.9996 6.10306 10.1027 7.00008 8.99965 7.00008ZM8.99965 4.49998C8.72352 4.49998 8.49958 4.7241 8.49958 5.00003C8.49958 5.27597 8.72352 5.50009 8.99965 5.50009C9.2756 5.50009 9.49954 5.27597 9.49954 5.00003C9.49954 4.7241 9.2756 4.49998 8.99965 4.49998Z" fill="#B2BAC8"/>
<path d="M4.76945 14.98C4.57755 14.98 4.38547 14.9069 4.23953 14.7601C3.94656 14.4671 3.94656 13.9919 4.23953 13.699L8.75959 9.17903C9.44369 8.49495 10.5566 8.49495 11.2396 9.17903L12.4487 10.3881L16.1627 5.93002C16.4947 5.53195 16.9818 5.30197 17.4989 5.29904C18.0548 5.2681 18.5049 5.52097 18.8398 5.91409L23.818 11.722C24.0879 12.036 24.0509 12.5101 23.7369 12.78C23.4219 13.05 22.949 13.0131 22.6789 12.699L17.6988 6.88912C17.6327 6.81002 17.5518 6.81405 17.5067 6.79995C17.4639 6.79995 17.3808 6.81295 17.3148 6.89095L13.0748 11.9811C12.9396 12.1429 12.7428 12.2411 12.5328 12.2501C12.3187 12.262 12.1167 12.1799 11.9686 12.0311L10.1787 10.241C10.0516 10.114 9.9467 10.114 9.81962 10.241L5.29955 14.7601C5.15343 14.9069 4.96153 14.98 4.76945 14.98Z" fill="#B2BAC8"/>
</svg>
