<svg width="18" height="15" viewBox="0 0 18 15" fill="none" xmlns="http://www.w3.org/2000/svg">
<path d="M6.28255 1.44793L6.28257 1.44795L6.70527 2.17299L6.70528 2.173C6.98604 2.65462 7.52339 2.96293 8.11259 2.96293H13.3252C13.9718 2.96293 14.5275 3.47437 14.5275 4.14072V4.75174V5.25076H14.0285H7.17436C6.54928 5.25076 6.00737 5.63367 5.81224 6.18154L6.28255 1.44793ZM6.28255 1.44793C6.06532 1.07537 5.66141 0.858635 5.2387 0.858635H2.10952C1.46601 0.858635 0.907366 1.36521 0.907366 2.03218V12.9636C0.907366 13.6299 1.4629 14.1415 2.10952 14.1415H2.12531C2.62762 14.1415 3.08914 13.8327 3.26039 13.3515C3.2604 13.3515 3.2604 13.3515 3.2604 13.3515L5.81222 6.18161L6.28255 1.44793ZM14.9357 4.75174V5.25076H15.4347H16.063C16.5336 5.25076 16.9724 5.47212 17.2386 5.83207C17.5037 6.19054 17.5718 6.65022 17.4251 7.06227L17.4251 7.06229L16.4048 9.92914L16.4047 9.92926C16.3738 10.0161 16.2604 10.0847 16.1385 10.0443C16.0239 10.0062 15.9871 9.90087 16.015 9.82261C16.015 9.8226 16.015 9.82259 16.015 9.82259L17.0353 6.95589L17.0354 6.95579C17.148 6.63911 17.0952 6.29606 16.8963 6.02734C16.6988 5.76002 16.3904 5.61024 16.063 5.61024H7.17436C6.74581 5.61024 6.34955 5.87366 6.20215 6.28808C6.20212 6.28814 6.2021 6.28821 6.20208 6.28827L3.65209 13.453L3.65078 13.4563L3.64684 13.4666L3.39263 14.1415H4.11384H13.122C13.9244 14.1415 14.6532 13.6486 14.9221 12.8934L14.9221 12.8933C14.9531 12.8062 15.0666 12.7378 15.1883 12.7782L15.1884 12.7782C15.3031 12.8163 15.3397 12.9215 15.3119 12.9998L15.3119 12.9998C14.9955 13.8888 14.1209 14.501 13.122 14.501H2.10952C1.20521 14.501 0.499024 13.7944 0.499024 12.9636V2.03218C0.499024 1.20469 1.20422 0.499024 2.10952 0.499024H5.2387C5.83071 0.499024 6.36735 0.806832 6.64597 1.28463C6.64598 1.28467 6.646 1.2847 6.64602 1.28473L7.06853 2.0098L7.06864 2.00998C7.28548 2.38174 7.68747 2.60332 8.11259 2.60332H13.3252C14.2295 2.60332 14.9357 3.30987 14.9357 4.14085V4.75174Z" fill="#B2BAC8" stroke="#B2BAC8" stroke-width="0.998047"/>
</svg>
