<svg width="32" height="16" viewBox="0 0 32 16" fill="none" xmlns="http://www.w3.org/2000/svg">
<path d="M8.59822 3.56923V1.21642H1.28934V3.56923H6.09781L3.59741 7.09844L4.39057 8.78041H4.82422C6.15854 8.78041 6.99248 9.61653 6.99248 10.9582C6.99248 12.2999 6.15854 13.1555 4.82422 13.1555C3.64001 13.1555 2.88946 12.5721 2.5392 11.4054L0.904663 12.5138C1.52178 14.361 3.03957 15.3333 4.82422 15.3333C5.97507 15.3333 6.94245 14.9444 7.72636 14.1666C8.51027 13.3888 8.91056 12.3193 8.91056 10.9582C8.91056 8.91652 7.78239 7.56511 6.09781 7.09844L8.59822 3.56923Z" fill="white"/>
<path d="M13.1507 6.0387L15.7046 1.21642H13.599L9.93169 7.94429C9.46468 8.74152 9.23118 9.65542 9.23118 10.686C9.23118 12.0666 9.61479 13.1749 10.382 14.0499C11.1493 14.9055 12.15 15.3333 13.3676 15.3333C14.5851 15.3333 15.5692 14.9055 16.3364 14.0499C17.1036 13.1749 17.4873 12.0666 17.4873 10.686C17.4873 9.30541 17.1036 8.19707 16.3364 7.3415C15.5692 6.46649 14.5851 6.0387 13.3676 6.0387H13.1507ZM13.3676 13.2138C12.0499 13.2138 11.1493 12.2221 11.1493 10.686C11.1493 9.14986 12.0499 8.15818 13.3676 8.15818C14.6518 8.15818 15.5692 9.14986 15.5692 10.686C15.5692 12.2221 14.6518 13.2138 13.3676 13.2138Z" fill="white"/>
<path d="M25.8452 13.4082C26.6624 12.1249 27.0627 10.4138 27.0627 8.27485C27.0627 6.13593 26.6624 4.42479 25.8452 3.14144C25.0446 1.85809 23.9271 1.21642 22.476 1.21642C21.025 1.21642 19.9075 1.85809 19.0902 3.14144C18.2896 4.42479 17.8893 6.13593 17.8893 8.27485C17.8893 10.4138 18.2896 12.1249 19.0902 13.4082C19.9075 14.6916 21.025 15.3333 22.476 15.3333C23.9271 15.3333 25.0446 14.6916 25.8452 13.4082ZM22.476 13.1555C20.7581 13.1555 19.8074 11.4054 19.8074 8.27485C19.8074 5.14425 20.7581 3.39423 22.476 3.39423C24.2106 3.39423 25.1447 5.14425 25.1447 8.27485C25.1447 11.4054 24.2106 13.1555 22.476 13.1555Z" fill="white"/>
<path fill-rule="evenodd" clip-rule="evenodd" d="M29.2169 3.14144C29.7268 3.14144 30.1402 2.71051 30.1402 2.17893C30.1402 1.64735 29.7268 1.21642 29.2169 1.21642C28.7071 1.21642 28.2937 1.64735 28.2937 2.17893C28.2937 2.71051 28.7071 3.14144 29.2169 3.14144ZM29.2169 4.10396C30.2367 4.10396 31.0634 3.24209 31.0634 2.17893C31.0634 1.11577 30.2367 0.253906 29.2169 0.253906C28.1972 0.253906 27.3705 1.11577 27.3705 2.17893C27.3705 3.24209 28.1972 4.10396 29.2169 4.10396Z" fill="white"/>
</svg>
