<svg width="18" height="9" viewBox="0 0 18 9" fill="none" xmlns="http://www.w3.org/2000/svg">
<path d="M4.59184 1.97872V0.574468H0.229592V1.97872H3.09949L1.60714 4.08511L2.08053 5.08898H2.33936C3.13573 5.08898 3.63347 5.58801 3.63347 6.38878C3.63347 7.18956 3.13573 7.70019 2.33936 7.70019C1.63257 7.70019 1.18461 7.35203 0.975561 6.65571L0 7.31721C0.368324 8.41973 1.2742 9 2.33936 9C3.02623 9 3.6036 8.76789 4.07147 8.30367C4.53935 7.83946 4.77826 7.20116 4.77826 6.38878C4.77826 5.17021 4.10491 4.36364 3.09949 4.08511L4.59184 1.97872Z" fill="#414B5B"/>
<path d="M7.30897 3.45261L8.83324 0.574468H7.57653L5.38771 4.58994C5.10898 5.06576 4.96961 5.61122 4.96961 6.22631C4.96961 7.05029 5.19857 7.7118 5.65649 8.23404C6.11441 8.74468 6.71169 9 7.43838 9C8.16508 9 8.7524 8.74468 9.21032 8.23404C9.66823 7.7118 9.89719 7.05029 9.89719 6.22631C9.89719 5.40232 9.66823 4.74081 9.21032 4.23017C8.7524 3.70793 8.16508 3.45261 7.43838 3.45261H7.30897ZM7.43838 7.73501C6.65196 7.73501 6.11441 7.14313 6.11441 6.22631C6.11441 5.30948 6.65196 4.7176 7.43838 4.7176C8.20489 4.7176 8.7524 5.30948 8.7524 6.22631C8.7524 7.14313 8.20489 7.73501 7.43838 7.73501Z" fill="#414B5B"/>
<path d="M14.8855 7.85106C15.3733 7.08511 15.6122 6.06383 15.6122 4.78723C15.6122 3.51064 15.3733 2.48936 14.8855 1.7234C14.4077 0.957447 13.7408 0.574468 12.8747 0.574468C12.0086 0.574468 11.3417 0.957447 10.8539 1.7234C10.3761 2.48936 10.1372 3.51064 10.1372 4.78723C10.1372 6.06383 10.3761 7.08511 10.8539 7.85106C11.3417 8.61702 12.0086 9 12.8747 9C13.7408 9 14.4077 8.61702 14.8855 7.85106ZM12.8747 7.70019C11.8494 7.70019 11.2819 6.65571 11.2819 4.78723C11.2819 2.91876 11.8494 1.87428 12.8747 1.87428C13.91 1.87428 14.4675 2.91876 14.4675 4.78723C14.4675 6.65571 13.91 7.70019 12.8747 7.70019Z" fill="#414B5B"/>
<path fill-rule="evenodd" clip-rule="evenodd" d="M16.898 1.7234C17.2023 1.7234 17.449 1.46621 17.449 1.14894C17.449 0.831666 17.2023 0.574468 16.898 0.574468C16.5936 0.574468 16.3469 0.831666 16.3469 1.14894C16.3469 1.46621 16.5936 1.7234 16.898 1.7234ZM16.898 2.29787C17.5066 2.29787 18 1.78348 18 1.14894C18 0.514396 17.5066 0 16.898 0C16.2893 0 15.7959 0.514396 15.7959 1.14894C15.7959 1.78348 16.2893 2.29787 16.898 2.29787Z" fill="#414B5B"/>
</svg>
