<svg width="56" height="56" viewBox="0 0 56 56" fill="none" xmlns="http://www.w3.org/2000/svg">
<path d="M39.4844 32.9219V31.2812C39.4844 28.563 37.2808 26.3594 34.5625 26.3594C31.8442 26.3594 29.6406 28.563 29.6406 31.2812V32.9219H23.0781L19.7969 35.6505V52.8569L23.0781 56H46.0469V32.9219H39.4844Z" fill="#F03800"/>
<path d="M56 23.0781H46.0469V18.1562C46.0469 17.2511 45.3114 16.5156 44.4062 16.5156C43.5011 16.5156 42.7656 17.2511 42.7656 18.1562V23.0781H32.9219V16.5156H31.2812C28.5672 16.5156 26.3594 14.3078 26.3594 11.5938C26.3594 8.87972 28.5672 6.67188 31.2812 6.67188H32.9219V0H56V23.0781Z" fill="#6AA9FF"/>
<path d="M24.7188 39.4844H23.0781V32.9219L19.5896 29.6406H2.95892L0 32.9219V56H23.0781V49.3281H24.7188C27.437 49.3281 29.6406 47.1245 29.6406 44.4062C29.6406 41.688 27.437 39.4844 24.7188 39.4844Z" fill="#47568C"/>
<path d="M18.1562 23.0781C17.2502 23.0781 16.5156 22.3436 16.5156 21.4375C16.5156 20.5314 17.2502 19.7969 18.1562 19.7969H23.0781V9.95312H0V32.9219H6.67188V34.5625C6.67188 37.2808 8.87545 39.4844 11.5938 39.4844C14.312 39.4844 16.5156 37.2808 16.5156 34.5625V32.9219H23.0781V23.0781H18.1562Z" fill="#FED843"/>
</svg>
