<svg width="327" height="112" viewBox="0 0 327 112" fill="none" xmlns="http://www.w3.org/2000/svg">
<mask id="mask0_5616_729" style="mask-type:alpha" maskUnits="userSpaceOnUse" x="0" y="0" width="327" height="112">
<path d="M0 10C0 4.47715 4.47715 0 10 0H317C322.523 0 327 4.47715 327 10V112H0V10Z" fill="url(#paint0_linear_5616_729)"/>
</mask>
<g mask="url(#mask0_5616_729)">
<path fill-rule="evenodd" clip-rule="evenodd" d="M-61.0621 82.6908C-58.9994 81.7967 -56.7621 81.3778 -54.5156 81.4649L222.307 92.1995L301.309 95.3474C305.295 95.5062 309.181 94.0708 312.106 91.3584L344.225 61.576C347.771 58.2878 349.514 53.4915 348.907 48.6937L333.478 -73.2325C333.308 -74.5708 333.32 -75.9258 333.513 -77.2609L344.488 -153.21C346.428 -166.634 330.973 -175.534 320.336 -167.12L255.936 -116.175C252.895 -113.769 250.904 -110.279 250.38 -106.437L235.886 -0.112778H9.65915C4.13631 -0.112778 -0.340851 4.36438 -0.340851 9.88722V16.3256L-16.5005 15.1178L-49.8158 12.6617C-53.5633 12.3854 -57.2779 13.5257 -60.2249 15.857L-121.787 64.557L-125.186 67.2456C-135.903 75.724 -130.626 92.9488 -116.998 93.9679L-95.1716 95.6002C-92.7483 95.7814 -90.3172 95.3711 -88.0876 94.4047L-61.0621 82.6908Z" fill="url(#paint1_linear_5616_729)"/>
<path d="M-52.9566 81.9356L-81.9551 104.806C-84.9098 107.136 -88.6325 108.27 -92.3846 107.984L-112.063 106.483C-125.689 105.444 -130.941 88.2111 -120.211 79.7487L-116.808 77.0651L-50.586 24.8386L0.495878 -11.0389C2.78621 -12.6475 5.48093 -13.5833 8.27532 -13.7403L167.66 -22.6998C171.114 -22.894 174.394 -24.2756 176.945 -26.6108L256.438 -99.3624L325.659 -153.954C336.308 -162.352 351.75 -153.429 349.79 -140.009L338.703 -64.0755C338.508 -62.7407 338.494 -61.3857 338.661 -60.0472L353.924 62.0195C354.516 66.7524 352.821 71.4846 349.36 74.7662L317.296 105.164C314.221 108.079 310.057 109.558 305.832 109.234L227.248 103.219L-52.8277 81.8963C-52.8741 81.8928 -52.9201 81.9068 -52.9566 81.9356Z" fill="#18835D" fill-opacity="0.1"/>
<path d="M0.00151148 84.4912C0.000148206 84.4911 -0.000907346 84.49 -0.000948226 84.4886L-0.00169006 22.9856L-0.00142489 11.5C-0.00121004 3.21586 6.71448 -3.49965 14.9986 -3.49962L314.532 -3.49858C321.759 -3.49856 327.958 1.65458 329.279 8.7597L339.984 66.3418C340.927 71.4105 339.2 76.6079 335.412 80.105L313.648 100.197C310.62 102.992 306.575 104.419 302.463 104.141L223.63 98.8181L0.00151148 84.4912Z" fill="#177F59" fill-opacity="0.2"/>
</g>
<defs>
<linearGradient id="paint0_linear_5616_729" x1="321" y1="97.1327" x2="17.4751" y2="2.44166" gradientUnits="userSpaceOnUse">
<stop stop-color="#1EAA77"/>
<stop offset="1" stop-color="#147B56"/>
</linearGradient>
<linearGradient id="paint1_linear_5616_729" x1="321.645" y1="145.795" x2="3.33698" y2="9.12647" gradientUnits="userSpaceOnUse">
<stop stop-color="#1EAA77"/>
<stop offset="1" stop-color="#147B56"/>
</linearGradient>
</defs>
</svg>
