<svg width="38" height="37" viewBox="0 0 38 37" fill="none" xmlns="http://www.w3.org/2000/svg">
<path d="M24.9004 1C22.2619 1 20.1152 3.14664 20.1152 5.78516V31.2148C20.1152 33.8534 22.2619 36 24.9004 36C26.7926 36 28.4946 34.8841 29.2626 33.1834C31.8597 32.7374 33.9922 30.4917 33.9922 27.7969C33.9922 26.9306 33.7852 26.05 33.4023 25.2524C35.5078 23.9837 36.9316 21.5788 36.9316 19.1836C36.9316 16.5165 35.1997 13.9295 32.7705 12.7824C33.5473 11.7685 33.9922 10.491 33.9922 9.20312C33.9922 6.50774 31.8592 4.26229 29.2626 3.81662C28.4949 2.11591 26.7928 1 24.9004 1ZM32.625 9.20312C32.625 10.7847 31.7027 12.4384 30.2805 13.1154C29.9398 13.2775 29.7948 13.6852 29.9568 14.0262C30.1192 14.3672 30.527 14.5119 30.868 14.3498C31.1668 14.2078 31.4535 14.0318 31.7251 13.8265C33.9345 14.619 35.5645 16.8644 35.5645 19.1836C35.5645 21.0907 34.3727 23.0782 32.6728 24.0951C32.1678 23.4699 31.5526 22.9757 30.8677 22.6502C30.5267 22.4878 30.1189 22.6328 29.9568 22.9738C29.7948 23.3148 29.9398 23.7225 30.2805 23.8846C31.6835 24.5519 32.625 26.1822 32.625 27.7969C32.625 29.5326 31.3622 31.1128 29.6626 31.6781C29.6773 31.5246 29.6855 31.3703 29.6855 31.2148C29.6855 30.8373 29.3795 30.5312 29.002 30.5312C28.6244 30.5312 28.3184 30.8373 28.3184 31.2148C28.3184 33.1265 26.7645 34.6328 24.9004 34.6328C23.0157 34.6328 21.4824 33.0995 21.4824 31.2148C21.4824 29.3302 23.0157 27.7969 24.9004 27.7969C25.278 27.7969 25.584 27.4909 25.584 27.1133C25.584 26.7357 25.278 26.4297 24.9004 26.4297C23.5626 26.4297 22.3516 26.9824 21.4824 27.8706V19.0124C22.3588 19.9548 23.5767 20.5508 24.9004 20.5508C25.278 20.5508 25.584 20.2448 25.584 19.8672C25.584 19.4896 25.278 19.1836 24.9004 19.1836C23.0795 19.1836 21.4824 17.4906 21.4824 15.5605V9.12943C22.3516 10.0176 23.5626 10.5703 24.9004 10.5703C25.278 10.5703 25.584 10.2643 25.584 9.88672C25.584 9.50914 25.278 9.20312 24.9004 9.20312C23.0157 9.20312 21.4824 7.66985 21.4824 5.78516C21.4824 3.90047 23.0157 2.36719 24.9004 2.36719C26.7709 2.36719 28.3184 3.88017 28.3184 5.78516C28.3184 6.16274 28.6244 6.46875 29.002 6.46875C29.3795 6.46875 29.6855 6.16274 29.6855 5.78516C29.6855 5.62975 29.6773 5.4754 29.6626 5.32186C31.3622 5.88716 32.625 7.46744 32.625 9.20312Z" fill="#CC9900" stroke="#CC9900" stroke-width="0.7"/>
<path opacity="0.4" d="M13.0312 1C15.6698 1 17.8164 3.14664 17.8164 5.78516V31.2148C17.8164 33.8534 15.6698 36 13.0312 36C11.1391 36 9.43704 34.8841 8.66907 33.1834C6.07195 32.7374 3.93945 30.4917 3.93945 27.7969C3.93945 26.9306 4.1464 26.05 4.52932 25.2524C2.4238 23.9837 1 21.5788 1 19.1836C1 16.5165 2.73195 13.9295 5.16111 12.7824C4.38432 11.7685 3.93945 10.491 3.93945 9.20312C3.93945 6.50774 6.07248 4.26229 8.66907 3.81662C9.43678 2.11591 11.1388 1 13.0312 1ZM5.30664 9.20312C5.30664 10.7847 6.22896 12.4384 7.65115 13.1154C7.99188 13.2775 8.13688 13.6852 7.97479 14.0262C7.81244 14.3672 7.40469 14.5119 7.06369 14.3498C6.76488 14.2078 6.4781 14.0318 6.20653 13.8265C3.99713 14.619 2.36719 16.8644 2.36719 19.1836C2.36719 21.0907 3.55894 23.0782 5.25884 24.0951C5.76379 23.4699 6.37903 22.9757 7.06396 22.6502C7.40495 22.4878 7.81271 22.6328 7.97479 22.9738C8.13688 23.3148 7.99188 23.7225 7.65115 23.8846C6.24818 24.5519 5.30664 26.1822 5.30664 27.7969C5.30664 29.5326 6.56942 31.1128 8.26906 31.6781C8.25437 31.5246 8.24609 31.3703 8.24609 31.2148C8.24609 30.8373 8.55211 30.5312 8.92969 30.5312C9.30727 30.5312 9.61328 30.8373 9.61328 31.2148C9.61328 33.1265 11.1671 34.6328 13.0312 34.6328C14.9159 34.6328 16.4492 33.0995 16.4492 31.2148C16.4492 29.3302 14.9159 27.7969 13.0312 27.7969C12.6537 27.7969 12.3477 27.4909 12.3477 27.1133C12.3477 26.7357 12.6537 26.4297 13.0312 26.4297C14.3691 26.4297 15.58 26.9824 16.4492 27.8706V19.0124C15.5728 19.9548 14.3549 20.5508 13.0312 20.5508C12.6537 20.5508 12.3477 20.2448 12.3477 19.8672C12.3477 19.4896 12.6537 19.1836 13.0312 19.1836C14.8521 19.1836 16.4492 17.4906 16.4492 15.5605V9.12943C15.58 10.0176 14.3691 10.5703 13.0312 10.5703C12.6537 10.5703 12.3477 10.2643 12.3477 9.88672C12.3477 9.50914 12.6537 9.20312 13.0312 9.20312C14.9159 9.20312 16.4492 7.66985 16.4492 5.78516C16.4492 3.90047 14.9159 2.36719 13.0312 2.36719C11.1607 2.36719 9.61328 3.88017 9.61328 5.78516C9.61328 6.16274 9.30727 6.46875 8.92969 6.46875C8.55211 6.46875 8.24609 6.16274 8.24609 5.78516C8.24609 5.62975 8.25437 5.4754 8.26906 5.32186C6.56942 5.88716 5.30664 7.46744 5.30664 9.20312Z" fill="#CC9900" stroke="#CC9900" stroke-width="0.7"/>
</svg>
