<svg width="327" height="113" viewBox="0 0 327 113" fill="none" xmlns="http://www.w3.org/2000/svg">
<mask id="mask0_5616_738" style="mask-type:alpha" maskUnits="userSpaceOnUse" x="0" y="0" width="327" height="113">
<path d="M0 10C0 4.47715 4.47715 0 10 0H317C322.523 0 327 4.47715 327 10V113H0V10Z" fill="url(#paint0_linear_5616_738)"/>
</mask>
<g mask="url(#mask0_5616_738)">
<path d="M-52.6159 82.0487L-81.6144 104.919C-84.5691 107.249 -88.2918 108.384 -92.044 108.097L-111.722 106.596C-125.348 105.557 -130.6 88.3243 -119.87 79.8618L-116.467 77.1782L-54.8329 28.5699C-51.8825 26.2429 -48.1661 25.1082 -44.4191 25.39L-28.3271 26.6005C-19.2338 27.2845 -11.6391 19.7637 -12.234 10.6642L-13.7043 -11.8277C-14.1679 -18.9182 -9.59279 -25.3611 -2.74568 -27.2604L253.87 -98.4423C255.79 -98.9749 257.585 -99.8848 259.149 -101.119L326 -153.841C336.649 -162.239 352.09 -153.316 350.131 -139.895L339.043 -63.9624C338.848 -62.6276 338.834 -61.2726 339.002 -59.934L354.264 62.1327C354.856 66.8656 353.162 71.5978 349.7 74.8794L317.637 105.277C314.562 108.192 310.397 109.671 306.172 109.347L227.588 103.332L-52.4871 82.0095C-52.5334 82.0059 -52.5794 82.02 -52.6159 82.0487Z" fill="#CC9900" fill-opacity="0.1"/>
<path d="M-56.4123 80.17L-85.2045 103.299C-88.1382 105.656 -91.8506 106.824 -95.6052 106.571L-115.296 105.247C-128.931 104.329 -134.337 87.1446 -123.683 78.5862L-120.305 75.8722L-59.1088 26.7131C-56.1793 24.3598 -52.4733 23.1918 -48.7239 23.44L-15.3911 25.6469L218.444 41.3659C226.356 41.8978 233.315 36.1795 234.328 28.3145L250.573 -97.9009C251.068 -101.747 253.033 -105.252 256.056 -107.68L320.073 -159.105C330.646 -167.599 346.167 -158.814 344.328 -145.377L333.922 -69.3474C333.739 -68.0109 333.737 -66.6558 333.916 -65.3189L350.273 56.6061C350.907 61.3334 349.255 66.0807 345.824 69.3932L314.034 100.077C310.985 103.02 306.834 104.536 302.606 104.25L223.972 98.9401L-56.2838 80.1295C-56.3302 80.1264 -56.376 80.1409 -56.4123 80.17Z" fill="#CC9900" fill-opacity="0.2"/>
<path fill-rule="evenodd" clip-rule="evenodd" d="M-60.7213 82.8041C-58.6586 81.91 -56.4212 81.491 -54.1747 81.5782L222.648 92.3128L301.65 95.4607C305.636 95.6195 309.521 94.1841 312.446 91.4717L344.566 61.6893C348.112 58.4011 349.855 53.6048 349.248 48.807L333.818 -73.1192C333.649 -74.4575 333.661 -75.8125 333.854 -77.1476L344.829 -153.097C346.768 -166.52 331.313 -175.421 320.677 -167.006L253.277 -113.689C252.124 -112.776 250.842 -112.038 249.474 -111.498L-4.82374 -11.2245C-9.87311 -9.23346 -13.453 -4.66994 -14.1845 0.708298L-14.259 1.25626C-15.3271 9.10971 -22.3207 14.7769 -30.225 14.1941L-49.475 12.7749C-53.2224 12.4987 -56.9371 13.639 -59.8841 15.9703L-121.446 64.6703L-124.845 67.3589C-135.562 75.8373 -130.285 93.0621 -116.657 94.0812L-94.8307 95.7134C-92.4075 95.8947 -89.9764 95.4844 -87.7468 94.518L-60.7213 82.8041Z" fill="url(#paint1_linear_5616_738)"/>
</g>
<defs>
<linearGradient id="paint0_linear_5616_738" x1="321" y1="98" x2="17" y2="3.99998" gradientUnits="userSpaceOnUse">
<stop stop-color="#1EAA77"/>
<stop offset="1" stop-color="#147B56"/>
</linearGradient>
<linearGradient id="paint1_linear_5616_738" x1="316.5" y1="88" x2="103.475" y2="-90.1868" gradientUnits="userSpaceOnUse">
<stop stop-color="#DEA908"/>
<stop offset="1" stop-color="#E08A07"/>
</linearGradient>
</defs>
</svg>