<svg width="375" height="210" viewBox="0 0 375 210" fill="none" xmlns="http://www.w3.org/2000/svg">
    <g clip-path="url(#clip0_603_716-492850)">
        <rect width="375" height="210" fill="#147B56"/>
        <path fill-rule="evenodd" clip-rule="evenodd" d="M6 127C13.1797 127 19 121.18 19 114C19 106.82 13.1797 101 6 101C-1.1797 101 -7 106.82 -7 114C-7 121.18 -1.1797 127 6 127ZM6 135C17.598 135 27 125.598 27 114C27 102.402 17.598 93 6 93C-5.59798 93 -15 102.402 -15 114C-15 125.598 -5.59798 135 6 135Z" fill="white" fill-opacity="0.6"/>
        <path d="M130 52.5C130 56.0899 127.09 59 123.5 59C119.91 59 117 56.0899 117 52.5C117 48.9101 119.91 46 123.5 46C127.09 46 130 48.9101 130 52.5Z" fill="white" fill-opacity="0.2"/>
        <path d="M310 137C310 141.971 305.971 146 301 146C296.029 146 292 141.971 292 137C292 132.029 296.029 128 301 128C305.971 128 310 132.029 310 137Z" fill="white" fill-opacity="0.2"/>
        <path fill-rule="evenodd" clip-rule="evenodd" d="M346 86C353.18 86 359 80.1797 359 73C359 65.8203 353.18 60 346 60C338.82 60 333 65.8203 333 73C333 80.1797 338.82 86 346 86ZM346 94C357.598 94 367 84.598 367 73C367 61.402 357.598 52 346 52C334.402 52 325 61.402 325 73C325 84.598 334.402 94 346 94Z" fill="white" fill-opacity="0.6"/>
    </g>
    <defs>
        <clipPath id="clip0_603_716-492850">
            <rect width="375" height="210" fill="white"/>
        </clipPath>
    </defs>
</svg>

