<svg width="49" height="48" viewBox="0 0 49 48" fill="none" xmlns="http://www.w3.org/2000/svg">
<path d="M39.6933 16.9378C39.1927 17.176 38.9797 17.775 39.2178 18.276L39.2178 18.2761C39.4563 18.7771 40.0554 18.9897 40.5564 18.7516L40.5135 18.6613L40.5564 18.7516C40.9422 18.5681 41.3127 18.3429 41.6642 18.0813C44.5233 19.1321 46.6267 22.0495 46.6267 25.0561C46.6267 27.5136 45.1054 30.0815 42.9236 31.4232C42.2574 30.6173 41.4517 29.9776 40.556 29.5519C40.055 29.3134 39.4559 29.5265 39.2178 30.0274C38.9797 30.5284 39.1927 31.1275 39.6933 31.3657C41.5106 32.23 42.738 34.3489 42.738 36.4511C42.738 38.6498 41.1711 40.665 39.0315 41.4408C39.0429 41.2858 39.0492 41.1298 39.0492 40.9729C39.0492 40.4182 38.5996 39.9686 38.0448 39.9686C37.4901 39.9686 37.0405 40.4182 37.0405 40.9729C37.0405 43.4458 35.0305 45.3947 32.6186 45.3947C30.1805 45.3947 28.1968 43.411 28.1968 40.9729C28.1968 38.5348 30.1805 36.5511 32.6186 36.5511C33.1734 36.5511 33.623 36.1015 33.623 35.5467C33.623 34.992 33.1734 34.5424 32.6186 34.5424C30.907 34.5424 29.3499 35.2157 28.1968 36.3098V25.0773C29.3579 26.238 30.9226 26.9648 32.6186 26.9648C33.1734 26.9648 33.623 26.5152 33.623 25.9605C33.623 25.4057 33.1734 24.9561 32.6186 24.9561C30.2703 24.9561 28.1968 22.7667 28.1968 20.263V11.9937C29.3499 13.0878 30.907 13.7611 32.6186 13.7611C33.1734 13.7611 33.623 13.3115 33.623 12.7567C33.623 12.202 33.1734 11.7524 32.6186 11.7524C30.1805 11.7524 28.1968 9.76869 28.1968 7.33055C28.1968 4.89242 30.1805 2.90873 32.6186 2.90873C35.0387 2.90873 37.0405 4.86623 37.0405 7.33055C37.0405 7.8853 37.4901 8.33492 38.0448 8.33492C38.5996 8.33492 39.0492 7.8853 39.0492 7.33055C39.0492 7.17363 39.0429 7.0177 39.0315 6.86265C41.1711 7.63852 42.738 9.65371 42.738 11.8524C42.738 13.9115 41.5355 16.061 39.6933 16.9378ZM39.6933 16.9378L39.7363 17.0281L39.6933 16.9378ZM32.6186 0.9C29.0728 0.9 26.1881 3.78469 26.1881 7.33055V40.9729C26.1881 44.5188 29.0728 47.4035 32.6186 47.4035C35.1436 47.4035 37.4164 45.9249 38.4587 43.6666C41.9134 43.0484 44.7467 40.0523 44.7467 36.4511C44.7467 35.3191 44.4832 34.1698 43.9952 33.1234C46.7663 31.4162 48.6355 28.2328 48.6355 25.0561C48.6355 21.5272 46.3721 18.109 43.1838 16.5503C44.1788 15.2081 44.7467 13.5374 44.7467 11.8524C44.7467 8.25045 41.9127 5.25472 38.4587 4.63685C37.4168 2.37852 35.1439 0.9 32.6186 0.9Z" fill="#CC9900" stroke="#CC9900" stroke-width="0.2"/>
<path d="M9.84184 16.9378C10.3425 17.176 10.5555 17.775 10.3174 18.276L10.3173 18.2761C10.0788 18.7771 9.47973 18.9897 8.97877 18.7516L9.0217 18.6613L8.97876 18.7516C8.59293 18.5681 8.22243 18.3429 7.87098 18.0813C5.01186 19.1321 2.90843 22.0495 2.90843 25.0561C2.90843 27.5136 4.42973 30.0815 6.61152 31.4232C7.27773 30.6173 8.08344 29.9776 8.97913 29.5519C9.48014 29.3134 10.0792 29.5265 10.3174 30.0274C10.5555 30.5284 10.3425 31.1275 9.84184 31.3657C8.02455 32.23 6.7972 34.3489 6.7972 36.4511C6.7972 38.6498 8.36408 40.665 10.5037 41.4408C10.4922 41.2858 10.486 41.1298 10.486 40.9729C10.486 40.4182 10.9356 39.9686 11.4903 39.9686C12.0451 39.9686 12.4947 40.4182 12.4947 40.9729C12.4947 43.4458 14.5047 45.3947 16.9165 45.3947C19.3547 45.3947 21.3383 43.411 21.3383 40.9729C21.3383 38.5348 19.3547 36.5511 16.9165 36.5511C16.3618 36.5511 15.9122 36.1015 15.9122 35.5467C15.9122 34.992 16.3618 34.5424 16.9165 34.5424C18.6281 34.5424 20.1852 35.2157 21.3383 36.3098V25.0773C20.1772 26.238 18.6125 26.9648 16.9165 26.9648C16.3618 26.9648 15.9122 26.5152 15.9122 25.9605C15.9122 25.4057 16.3618 24.9561 16.9165 24.9561C19.2648 24.9561 21.3383 22.7667 21.3383 20.263V11.9937C20.1852 13.0878 18.6281 13.7611 16.9165 13.7611C16.3618 13.7611 15.9122 13.3115 15.9122 12.7567C15.9122 12.202 16.3618 11.7524 16.9165 11.7524C19.3547 11.7524 21.3383 9.76869 21.3383 7.33055C21.3383 4.89242 19.3547 2.90873 16.9165 2.90873C14.4965 2.90873 12.4947 4.86623 12.4947 7.33055C12.4947 7.8853 12.0451 8.33492 11.4903 8.33492C10.9356 8.33492 10.486 7.8853 10.486 7.33055C10.486 7.17363 10.4922 7.0177 10.5037 6.86265C8.36408 7.63852 6.7972 9.65371 6.7972 11.8524C6.7972 13.9115 7.99968 16.061 9.84184 16.9378ZM9.84184 16.9378L9.79889 17.0281L9.84184 16.9378ZM16.9165 0.9C20.4624 0.9 23.3471 3.78469 23.3471 7.33055V40.9729C23.3471 44.5188 20.4624 47.4035 16.9165 47.4035C14.3916 47.4035 12.1187 45.9249 11.0764 43.6666C7.62175 43.0484 4.78847 40.0523 4.78847 36.4511C4.78847 35.3191 5.05195 34.1698 5.53996 33.1234C2.76883 31.4162 0.8997 28.2328 0.8997 25.0561C0.8997 21.5272 3.16308 18.109 6.35136 16.5503C5.3564 15.2081 4.78847 13.5374 4.78847 11.8524C4.78847 8.25045 7.62245 5.25472 11.0764 4.63685C12.1184 2.37852 14.3912 0.9 16.9165 0.9Z" fill="#CC9900" stroke="#CC9900" stroke-width="0.2"/>
</svg>
