<svg width="21" height="24" viewBox="0 0 21 24" fill="none" xmlns="http://www.w3.org/2000/svg">
<path d="M17.254 7.16016C17.254 3.41406 14.2188 0.378906 10.4727 0.378906C6.72661 0.378906 3.69146 3.41406 3.69146 7.16016C3.69146 9.42422 4.80162 11.4313 6.50786 12.6617C6.49693 12.6672 6.48872 12.6699 6.48326 12.6727C5.26099 13.1895 4.16451 13.9305 3.22115 14.8766C2.27779 15.8199 1.53951 16.9191 1.02271 18.1441C0.516852 19.3418 0.246149 20.6133 0.218806 21.9203C0.216071 22.0434 0.314509 22.1445 0.437556 22.1445H2.07545C2.19302 22.1445 2.29146 22.0488 2.29419 21.9312C2.34888 19.8203 3.1938 17.8434 4.68951 16.3449C6.23443 14.7945 8.28521 13.9414 10.4727 13.9414C14.2188 13.9414 17.254 10.9062 17.254 7.16016ZM10.4727 11.8633C7.87505 11.8633 5.76958 9.75781 5.76958 7.16016C5.76958 4.5625 7.87505 2.45703 10.4727 2.45703C13.0704 2.45703 15.1758 4.5625 15.1758 7.16016C15.1758 9.75781 13.0704 11.8633 10.4727 11.8633ZM13.3438 17.9062H20.5625C20.6829 17.9062 20.7813 17.8078 20.7813 17.6875V16.1562C20.7813 16.0359 20.6829 15.9375 20.5625 15.9375H15.7364L17.027 14.2941C17.0571 14.2559 17.0735 14.2066 17.0735 14.1602C17.0735 14.0398 16.975 13.9414 16.8547 13.9414H14.8696C14.7356 13.9414 14.6098 14.0043 14.525 14.1082L12.652 16.4898C12.5317 16.643 12.4661 16.8344 12.4661 17.0312C12.4688 17.5152 12.8598 17.9062 13.3438 17.9062ZM19.9063 19.6562H12.6875C12.5672 19.6562 12.4688 19.7547 12.4688 19.875V21.4062C12.4688 21.5266 12.5672 21.625 12.6875 21.625H17.5137L16.2231 23.2684C16.193 23.3066 16.1766 23.3559 16.1766 23.4023C16.1766 23.5227 16.275 23.6211 16.3954 23.6211H18.3805C18.5145 23.6211 18.6403 23.5582 18.725 23.4543L20.5981 21.0727C20.7184 20.9195 20.784 20.7281 20.784 20.5312C20.7813 20.0473 20.3903 19.6562 19.9063 19.6562Z" fill="#A9B3C2"/>
</svg>
