<svg width="287" height="187" viewBox="0 0 287 187" fill="none" xmlns="http://www.w3.org/2000/svg">
<path d="M99 0H0V182H99V0Z" fill="#F2F2F2"/>
<path d="M1.28261 1.33474H99V0H0V182H1.28261V1.33474Z" fill="white"/>
<path d="M89.3585 8.15015H9.64315V182H89.3585V8.15015Z" fill="#F2F2F2"/>
<path d="M14.9459 87.1116H13.2943C11.9242 87.1116 10.8136 88.225 10.8136 89.5985V101.929C10.8136 103.302 11.9242 104.416 13.2943 104.416H14.9459C16.316 104.416 17.4266 103.302 17.4266 101.929V89.5985C17.4266 88.225 16.316 87.1116 14.9459 87.1116Z" fill="#757370"/>
<path d="M14.6045 87.1116H12.9301C11.5664 87.1116 10.4608 88.2199 10.4608 89.5871V101.786C10.4608 103.153 11.5664 104.261 12.9301 104.261H14.6045C15.9683 104.261 17.0738 103.153 17.0738 101.786V89.5871C17.0738 88.2199 15.9683 87.1116 14.6045 87.1116Z" fill="#A4A5A7"/>
<g opacity="0.3">
<path opacity="0.3" d="M10.8136 102.115V89.6116C10.8136 89.2831 10.8781 88.9579 11.0036 88.6545C11.129 88.3511 11.3128 88.0754 11.5445 87.8432C11.7763 87.6111 12.0514 87.4269 12.3541 87.3014C12.6569 87.1759 12.9813 87.1114 13.3089 87.1116H12.9302C12.2752 87.1116 11.6472 87.3724 11.1841 87.8366C10.721 88.3009 10.4608 88.9306 10.4608 89.5871V101.787C10.4609 102.162 10.5463 102.533 10.7106 102.87C10.8748 103.207 11.1135 103.502 11.4086 103.733C11.0248 103.282 10.8139 102.708 10.8136 102.115V102.115Z" fill="white"/>
</g>
<g style="mix-blend-mode:multiply">
<path d="M16.1277 97.9296C16.1277 98.3579 16.001 98.7767 15.7636 99.1329C15.5262 99.4891 15.1888 99.7667 14.7941 99.9306C14.3993 100.095 13.9649 100.137 13.5458 100.054C13.1267 99.9703 12.7418 99.764 12.4396 99.4611C12.1375 99.1582 11.9317 98.7723 11.8484 98.3521C11.765 97.932 11.8078 97.4965 11.9713 97.1007C12.1348 96.7049 12.4117 96.3667 12.767 96.1287C13.1223 95.8907 13.54 95.7637 13.9673 95.7637C14.5403 95.7637 15.0898 95.9919 15.495 96.398C15.9001 96.8042 16.1277 97.3551 16.1277 97.9296Z" fill="#E1DCD6"/>
</g>
<path d="M15.2953 99.3403C16.139 98.4945 16.139 97.1232 15.2953 96.2773C14.4516 95.4315 13.0837 95.4315 12.24 96.2773C11.3963 97.1232 11.3963 98.4945 12.24 99.3404C13.0837 100.186 14.4516 100.186 15.2953 99.3403Z" fill="#E1DCD6"/>
<g style="mix-blend-mode:multiply">
<path d="M16.1277 91.2706C16.1277 91.699 16.001 92.1177 15.7636 92.4739C15.5262 92.8301 15.1888 93.1077 14.7941 93.2716C14.3993 93.4356 13.9649 93.4785 13.5458 93.3949C13.1267 93.3113 12.7418 93.1051 12.4396 92.8021C12.1375 92.4992 11.9317 92.1133 11.8484 91.6932C11.765 91.273 11.8078 90.8375 11.9713 90.4418C12.1348 90.046 12.4117 89.7078 12.767 89.4698C13.1223 89.2318 13.54 89.1047 13.9673 89.1047C14.5403 89.1047 15.0898 89.3329 15.495 89.7391C15.9001 90.1453 16.1277 90.6962 16.1277 91.2706V91.2706Z" fill="#E1DCD6"/>
</g>
<path d="M16.3004 90.6505C16.5629 89.4782 15.8278 88.3146 14.6585 88.0514C13.4892 87.7882 12.3285 88.5252 12.066 89.6975C11.8035 90.8697 12.5386 92.0334 13.7079 92.2966C14.8772 92.5597 16.0379 91.8227 16.3004 90.6505Z" fill="#E1DCD6"/>
<path d="M11.8068 91.2704C11.8069 90.8961 11.9038 90.5281 12.088 90.2024C12.2722 89.8768 12.5375 89.6045 12.858 89.4123C13.1784 89.2201 13.5431 89.1144 13.9165 89.1056C14.2898 89.0968 14.6591 89.1851 14.9882 89.362C14.7461 89.1943 14.4723 89.0778 14.1837 89.0199C13.8951 88.962 13.5978 88.9638 13.3099 89.0252C13.022 89.0867 12.7497 89.2064 12.5096 89.3772C12.2696 89.5479 12.0668 89.766 11.9139 90.0181C11.7609 90.2702 11.661 90.5509 11.6201 90.8431C11.5793 91.1354 11.5984 91.4329 11.6764 91.7174C11.7544 92.0019 11.8895 92.2675 12.0735 92.4978C12.2575 92.7281 12.4865 92.9182 12.7465 93.0566C12.4566 92.8581 12.2195 92.5916 12.0558 92.2803C11.892 91.969 11.8066 91.6224 11.8068 91.2704V91.2704Z" fill="#F2EDE6"/>
<path d="M11.8068 97.9295C11.8058 97.5546 11.9019 97.1858 12.0856 96.8592C12.2694 96.5327 12.5345 96.2595 12.8552 96.0665C13.1758 95.8735 13.541 95.7673 13.9148 95.7582C14.2887 95.7491 14.6586 95.8374 14.9882 96.0146C14.746 95.8489 14.4726 95.7343 14.1848 95.6779C13.8969 95.6215 13.6007 95.6245 13.314 95.6866C13.0274 95.7487 12.7563 95.8686 12.5174 96.0391C12.2785 96.2096 12.0767 96.4271 11.9243 96.6783C11.772 96.9296 11.6722 97.2093 11.6312 97.5004C11.5901 97.7915 11.6086 98.0879 11.6855 98.3716C11.7624 98.6554 11.8962 98.9204 12.0786 99.1507C12.261 99.3809 12.4882 99.5715 12.7465 99.7108C12.4576 99.5125 12.2211 99.2467 12.0574 98.9364C11.8938 98.6261 11.8078 98.2805 11.8068 97.9295V97.9295Z" fill="#F2EDE6"/>
<path d="M13.769 99.0019C13.6462 99.0015 13.5286 98.9524 13.4418 98.8654C13.355 98.7784 13.3061 98.6605 13.3057 98.5374V97.0707C13.3061 96.9476 13.355 96.8297 13.4418 96.7427C13.5286 96.6557 13.6462 96.6066 13.769 96.6062V96.6062C13.8916 96.6066 14.009 96.6558 14.0955 96.7428C14.1821 96.8299 14.2306 96.9478 14.2306 97.0707V98.5374C14.2306 98.6603 14.1821 98.7782 14.0955 98.8653C14.009 98.9523 13.8916 99.0015 13.769 99.0019V99.0019Z" fill="#231F20"/>
<path d="M23.2252 92.2205H14.2534C14.0023 92.2197 13.7617 92.1193 13.5842 91.9413C13.4066 91.7633 13.3065 91.5222 13.3057 91.2704V91.2704C13.3061 91.0186 13.4061 90.7772 13.5837 90.5991C13.7614 90.421 14.0022 90.3207 14.2534 90.3203H23.2252C23.4764 90.3207 23.7172 90.421 23.8948 90.5991C24.0725 90.7772 24.1725 91.0186 24.1729 91.2704V91.2704C24.1721 91.5222 24.0719 91.7633 23.8944 91.9413C23.7168 92.1193 23.4763 92.2197 23.2252 92.2205V92.2205Z" fill="#EDE8E2"/>
<path d="M14.2534 90.5289H23.2252C23.4577 90.5303 23.6817 90.6171 23.8546 90.773C24.0275 90.9289 24.1373 91.143 24.1632 91.3747C24.1632 91.3405 24.1729 91.3063 24.1729 91.2704C24.1725 91.0186 24.0725 90.7772 23.8948 90.5991C23.7172 90.421 23.4764 90.3207 23.2252 90.3203H14.2534C14.0022 90.3207 13.7614 90.421 13.5837 90.5991C13.4061 90.7772 13.3061 91.0186 13.3057 91.2704C13.3057 91.3063 13.3057 91.3405 13.3154 91.3747C13.3413 91.143 13.4511 90.9289 13.624 90.773C13.7969 90.6171 14.0209 90.5303 14.2534 90.5289V90.5289Z" fill="white"/>
<g style="mix-blend-mode:multiply">
<path d="M23.2252 92.0104H14.2534C14.0208 92.0094 13.7966 91.9226 13.6236 91.7666C13.4506 91.6107 13.341 91.3964 13.3154 91.1646C13.3154 91.2004 13.3057 91.2346 13.3057 91.2705C13.3065 91.5222 13.4066 91.7634 13.5842 91.9414C13.7617 92.1193 14.0023 92.2197 14.2534 92.2206H23.2252C23.4763 92.2197 23.7168 92.1193 23.8944 91.9414C24.0719 91.7634 24.1721 91.5222 24.1729 91.2705C24.1729 91.2346 24.1729 91.2004 24.1632 91.1646C24.1376 91.3964 24.0279 91.6107 23.8549 91.7666C23.682 91.9226 23.4578 92.0094 23.2252 92.0104V92.0104Z" fill="#EDE8E2"/>
</g>
<path d="M47.2664 102.41H18.706V174.096H47.2664V102.41Z" fill="#CDCDCD"/>
<path d="M18.706 174.096L21.1801 171.615L44.7922 104.888L47.2664 102.408V174.096H18.706Z" fill="white"/>
<path d="M44.7922 104.888H21.1801V171.615H44.7922V104.888Z" fill="#F2F2F2"/>
<path d="M80.294 102.41H51.7336V174.096H80.294V102.41Z" fill="#CDCDCD"/>
<path d="M51.7336 174.096L54.2078 171.615L77.8199 104.888L80.294 102.408V174.096H51.7336Z" fill="white"/>
<path d="M77.8198 104.888H54.2078V171.615H77.8198V104.888Z" fill="#F2F2F2"/>
<path d="M47.2664 15.7495H18.706V87.4358H47.2664V15.7495Z" fill="#CDCDCD"/>
<path d="M18.706 87.4358L21.1801 84.9553L44.7922 18.2283L47.2664 15.7495V87.4358H18.706Z" fill="white"/>
<path d="M44.7922 18.2283H21.1801V84.9553H44.7922V18.2283Z" fill="#F2F2F2"/>
<path d="M80.294 15.7495H51.7336V87.4358H80.294V15.7495Z" fill="#CDCDCD"/>
<path d="M51.7336 87.4358L54.2078 84.9553L77.8199 18.2283L80.294 15.7495V87.4358H51.7336Z" fill="white"/>
<path d="M77.8198 18.2283H54.2078V84.9553H77.8198V18.2283Z" fill="#F2F2F2"/>
<path d="M8.06468 6.56934V182H9.64315V8.15016H89.3569L90.9353 6.56934H8.06468Z" fill="#C2C2C2"/>
<path d="M89.3568 8.15016V182H90.9353V6.56934L89.3568 8.15016Z" fill="white"/>
<path d="M99 182H97.719V1.33474L99 0V182Z" fill="#C2C2C2"/>
<path d="M287 0H188V182H287V0Z" fill="#F2F2F2"/>
<path d="M189.283 1.33474H287V0H188V182H189.283V1.33474Z" fill="white"/>
<path d="M277.358 8.15015H197.643V182H277.358V8.15015Z" fill="#F2F2F2"/>
<path d="M202.946 87.1116H201.294C199.924 87.1116 198.814 88.225 198.814 89.5985V101.929C198.814 103.302 199.924 104.416 201.294 104.416H202.946C204.316 104.416 205.427 103.302 205.427 101.929V89.5985C205.427 88.225 204.316 87.1116 202.946 87.1116Z" fill="#757370"/>
<path d="M202.605 87.1116H200.93C199.566 87.1116 198.461 88.2199 198.461 89.5871V101.786C198.461 103.153 199.566 104.261 200.93 104.261H202.605C203.968 104.261 205.074 103.153 205.074 101.786V89.5871C205.074 88.2199 203.968 87.1116 202.605 87.1116Z" fill="#A4A5A7"/>
<g opacity="0.3">
<path opacity="0.3" d="M198.814 102.115V89.6116C198.814 89.2831 198.878 88.9579 199.004 88.6545C199.129 88.3511 199.313 88.0754 199.545 87.8432C199.776 87.6111 200.051 87.4269 200.354 87.3014C200.657 87.1759 200.981 87.1114 201.309 87.1116H200.93C200.275 87.1116 199.647 87.3724 199.184 87.8366C198.721 88.3009 198.461 88.9306 198.461 89.5871V101.787C198.461 102.162 198.546 102.533 198.711 102.87C198.875 103.207 199.113 103.502 199.409 103.733C199.025 103.282 198.814 102.708 198.814 102.115V102.115Z" fill="white"/>
</g>
<g style="mix-blend-mode:multiply">
<path d="M204.128 97.9296C204.128 98.3579 204.001 98.7767 203.764 99.1329C203.526 99.4891 203.189 99.7667 202.794 99.9306C202.399 100.095 201.965 100.137 201.546 100.054C201.127 99.9703 200.742 99.764 200.44 99.4611C200.137 99.1582 199.932 98.7723 199.848 98.3521C199.765 97.932 199.808 97.4965 199.971 97.1007C200.135 96.7049 200.412 96.3667 200.767 96.1287C201.122 95.8907 201.54 95.7637 201.967 95.7637C202.54 95.7637 203.09 95.9919 203.495 96.398C203.9 96.8042 204.128 97.3551 204.128 97.9296Z" fill="#E1DCD6"/>
</g>
<path d="M203.295 99.3403C204.139 98.4945 204.139 97.1232 203.295 96.2773C202.452 95.4315 201.084 95.4315 200.24 96.2773C199.396 97.1232 199.396 98.4945 200.24 99.3404C201.084 100.186 202.452 100.186 203.295 99.3403Z" fill="#E1DCD6"/>
<g style="mix-blend-mode:multiply">
<path d="M204.128 91.2706C204.128 91.699 204.001 92.1177 203.764 92.4739C203.526 92.8301 203.189 93.1077 202.794 93.2716C202.399 93.4356 201.965 93.4785 201.546 93.3949C201.127 93.3113 200.742 93.1051 200.44 92.8021C200.137 92.4992 199.932 92.1133 199.848 91.6932C199.765 91.273 199.808 90.8375 199.971 90.4418C200.135 90.046 200.412 89.7078 200.767 89.4698C201.122 89.2318 201.54 89.1047 201.967 89.1047C202.54 89.1047 203.09 89.3329 203.495 89.7391C203.9 90.1453 204.128 90.6962 204.128 91.2706V91.2706Z" fill="#E1DCD6"/>
</g>
<path d="M204.3 90.6505C204.563 89.4782 203.828 88.3146 202.659 88.0514C201.489 87.7882 200.328 88.5252 200.066 89.6975C199.803 90.8697 200.539 92.0334 201.708 92.2966C202.877 92.5597 204.038 91.8227 204.3 90.6505Z" fill="#E1DCD6"/>
<path d="M199.807 91.2704C199.807 90.8961 199.904 90.5281 200.088 90.2024C200.272 89.8768 200.538 89.6045 200.858 89.4123C201.178 89.2201 201.543 89.1144 201.916 89.1056C202.29 89.0968 202.659 89.1851 202.988 89.362C202.746 89.1943 202.472 89.0778 202.184 89.0199C201.895 88.962 201.598 88.9638 201.31 89.0252C201.022 89.0867 200.75 89.2064 200.51 89.3772C200.27 89.5479 200.067 89.766 199.914 90.0181C199.761 90.2702 199.661 90.5509 199.62 90.8431C199.579 91.1354 199.598 91.4329 199.676 91.7174C199.754 92.0019 199.889 92.2675 200.073 92.4978C200.257 92.7281 200.487 92.9182 200.746 93.0566C200.457 92.8581 200.219 92.5916 200.056 92.2803C199.892 91.969 199.807 91.6224 199.807 91.2704V91.2704Z" fill="#F2EDE6"/>
<path d="M199.807 97.9295C199.806 97.5546 199.902 97.1858 200.086 96.8592C200.269 96.5327 200.535 96.2595 200.855 96.0665C201.176 95.8735 201.541 95.7673 201.915 95.7582C202.289 95.7491 202.659 95.8374 202.988 96.0146C202.746 95.8489 202.473 95.7343 202.185 95.6779C201.897 95.6215 201.601 95.6245 201.314 95.6866C201.027 95.7487 200.756 95.8686 200.517 96.0391C200.278 96.2096 200.077 96.4271 199.924 96.6783C199.772 96.9296 199.672 97.2093 199.631 97.5004C199.59 97.7915 199.609 98.0879 199.686 98.3716C199.762 98.6554 199.896 98.9204 200.079 99.1507C200.261 99.3809 200.488 99.5715 200.746 99.7108C200.458 99.5125 200.221 99.2467 200.057 98.9364C199.894 98.6261 199.808 98.2805 199.807 97.9295V97.9295Z" fill="#F2EDE6"/>
<path d="M201.769 99.0019C201.646 99.0015 201.529 98.9524 201.442 98.8654C201.355 98.7784 201.306 98.6605 201.306 98.5374V97.0707C201.306 96.9476 201.355 96.8297 201.442 96.7427C201.529 96.6557 201.646 96.6066 201.769 96.6062V96.6062C201.892 96.6066 202.009 96.6558 202.096 96.7428C202.182 96.8299 202.231 96.9478 202.231 97.0707V98.5374C202.231 98.6603 202.182 98.7782 202.096 98.8653C202.009 98.9523 201.892 99.0015 201.769 99.0019V99.0019Z" fill="#231F20"/>
<path d="M211.225 92.2205H202.253C202.002 92.2197 201.762 92.1193 201.584 91.9413C201.407 91.7633 201.307 91.5222 201.306 91.2704V91.2704C201.306 91.0186 201.406 90.7772 201.584 90.5991C201.761 90.421 202.002 90.3207 202.253 90.3203H211.225C211.476 90.3207 211.717 90.421 211.895 90.5991C212.072 90.7772 212.172 91.0186 212.173 91.2704V91.2704C212.172 91.5222 212.072 91.7633 211.894 91.9413C211.717 92.1193 211.476 92.2197 211.225 92.2205V92.2205Z" fill="#EDE8E2"/>
<path d="M202.253 90.5289H211.225C211.458 90.5303 211.682 90.6171 211.855 90.773C212.027 90.9289 212.137 91.143 212.163 91.3747C212.163 91.3405 212.173 91.3063 212.173 91.2704C212.172 91.0186 212.072 90.7772 211.895 90.5991C211.717 90.421 211.476 90.3207 211.225 90.3203H202.253C202.002 90.3207 201.761 90.421 201.584 90.5991C201.406 90.7772 201.306 91.0186 201.306 91.2704C201.306 91.3063 201.306 91.3405 201.315 91.3747C201.341 91.143 201.451 90.9289 201.624 90.773C201.797 90.6171 202.021 90.5303 202.253 90.5289V90.5289Z" fill="white"/>
<g style="mix-blend-mode:multiply">
<path d="M211.225 92.0104H202.253C202.021 92.0094 201.797 91.9226 201.624 91.7666C201.451 91.6107 201.341 91.3964 201.315 91.1646C201.315 91.2004 201.306 91.2346 201.306 91.2705C201.307 91.5222 201.407 91.7634 201.584 91.9414C201.762 92.1193 202.002 92.2197 202.253 92.2206H211.225C211.476 92.2197 211.717 92.1193 211.894 91.9414C212.072 91.7634 212.172 91.5222 212.173 91.2705C212.173 91.2346 212.173 91.2004 212.163 91.1646C212.138 91.3964 212.028 91.6107 211.855 91.7666C211.682 91.9226 211.458 92.0094 211.225 92.0104V92.0104Z" fill="#EDE8E2"/>
</g>
<path d="M235.266 102.41H206.706V174.096H235.266V102.41Z" fill="#CDCDCD"/>
<path d="M206.706 174.096L209.18 171.615L232.792 104.888L235.266 102.408V174.096H206.706Z" fill="white"/>
<path d="M232.792 104.888H209.18V171.615H232.792V104.888Z" fill="#F2F2F2"/>
<path d="M268.294 102.41H239.734V174.096H268.294V102.41Z" fill="#CDCDCD"/>
<path d="M239.734 174.096L242.208 171.615L265.82 104.888L268.294 102.408V174.096H239.734Z" fill="white"/>
<path d="M265.82 104.888H242.208V171.615H265.82V104.888Z" fill="#F2F2F2"/>
<path d="M235.266 15.7495H206.706V87.4358H235.266V15.7495Z" fill="#CDCDCD"/>
<path d="M206.706 87.4358L209.18 84.9553L232.792 18.2283L235.266 15.7495V87.4358H206.706Z" fill="white"/>
<path d="M232.792 18.2283H209.18V84.9553H232.792V18.2283Z" fill="#F2F2F2"/>
<path d="M268.294 15.7495H239.734V87.4358H268.294V15.7495Z" fill="#CDCDCD"/>
<path d="M239.734 87.4358L242.208 84.9553L265.82 18.2283L268.294 15.7495V87.4358H239.734Z" fill="white"/>
<path d="M265.82 18.2283H242.208V84.9553H265.82V18.2283Z" fill="#F2F2F2"/>
<path d="M196.065 6.56934V182H197.643V8.15016H277.357L278.935 6.56934H196.065Z" fill="#C2C2C2"/>
<path d="M277.357 8.15016V182H278.935V6.56934L277.357 8.15016Z" fill="white"/>
<path d="M287 182H285.719V1.33474L287 0V182Z" fill="#C2C2C2"/>
<path d="M121.621 118.389C121.942 119.491 121.983 120.417 122.741 121.283C123.799 122.494 125.408 120.891 125.544 120.623C125.644 120.433 125.709 120.227 125.737 120.014C125.621 119.745 125.492 119.5 125.492 119.5C125.306 119.601 125.105 119.67 124.897 119.707C124.79 119.735 124.456 119.78 124.422 119.673C124.058 118.714 124.089 118.617 124.385 118.244C124.576 118.007 126.549 118.338 126.727 118.061C127.099 117.492 127.535 115.872 127.356 115.215C127.237 114.769 126.974 113.925 126.976 113.782C126.986 113.343 126.952 112.839 126.976 111.691L122.661 111.305C122.65 111.782 122.739 112.958 122.679 113.416C122.559 114.323 121.142 115.702 121.015 116.518C120.906 117.181 121.43 117.744 121.621 118.389Z" fill="#FFC295"/>
<path d="M125.539 116.496C124.712 117.641 125.991 117.74 125.539 119.065C125.287 119.796 123.896 119.974 123.81 120.478C123.696 121.115 124.267 120.941 124.849 120.969C126.67 121.055 127.882 118.085 127.909 117.323C127.924 116.921 127.609 115.699 127.306 115.032C127.146 114.806 127.225 116.086 126.962 115.999C126.287 115.779 126.019 115.832 125.539 116.496Z" fill="#FFC295"/>
<path d="M150.848 56.9647C150.848 56.9647 152.173 46.4826 143.704 46.3655C135.234 46.4826 136.428 56.9593 136.428 56.9593C135.548 56.566 135.427 58.0856 135.786 59.5267C136.412 62.0198 138.021 63.5029 139.337 63.1224C139.337 63.1224 139.358 69.1007 139.337 69.307H143.701H148.065C148.043 69.1007 148.065 62.8054 148.065 62.8054C149.479 63.6716 150.618 62.238 151.344 59.6309C151.847 57.8362 151.33 56.9529 150.848 56.9647Z" fill="#F5BA8F"/>
<path d="M147.12 64.2755H140.413C138.572 63.0182 137.397 60.7636 136.772 58.3274C135.802 54.4855 136.219 50.1601 137.574 48.4471C139.287 46.2978 141.503 45.8679 143.694 45.8679C145.116 45.8679 146.55 46.0485 147.849 46.7631C148.613 47.1887 149.285 47.7626 149.825 48.4514C151.874 51.0187 151.648 61.2622 147.12 64.2755Z" fill="#4F3429"/>
<path d="M149.893 52.1181C149.896 53.6454 149.465 55.142 148.652 56.4327C147.838 57.7235 146.675 58.755 145.298 59.4064C143.922 60.0579 142.389 60.3024 140.879 60.1113C139.369 59.9202 137.944 59.3014 136.772 58.3274C135.802 54.4855 136.219 50.1601 137.574 48.4471C139.287 46.2978 141.503 45.8679 143.694 45.8679C145.116 45.8679 146.55 46.0485 147.849 46.7631C149.166 48.2334 149.894 50.141 149.893 52.1181Z" fill="#593B2F"/>
<path d="M152.853 181.975V185.249C152.85 185.404 152.894 185.556 152.979 185.685C153.064 185.814 153.186 185.914 153.329 185.972C154.775 186.523 158.767 186.775 159.015 185.1C159.187 183.933 159.803 183.077 161.068 182.622C162.163 182.227 161.902 178.591 160.183 177.548C158.674 176.635 155.707 178.135 155.707 178.135L152.853 181.975Z" fill="#13181C"/>
<path d="M152.853 180.739V184.45C153.372 185.153 158.017 185.561 159.015 183.864C159.506 183.03 159.804 182.709 161.069 182.252C162.163 181.858 161.902 177.354 160.183 176.312C158.674 175.398 155.707 176.898 155.707 176.898L152.853 180.739Z" fill="#20272F"/>
<path d="M135.215 181.975V185.249C135.217 185.404 135.173 185.556 135.088 185.685C135.002 185.814 134.88 185.914 134.737 185.972C133.291 186.523 129.299 186.775 129.052 185.1C128.879 183.933 128.264 183.077 126.999 182.622C125.904 182.227 126.166 178.591 127.884 177.548C129.393 176.635 132.36 178.135 132.36 178.135L135.215 181.975Z" fill="#13181C"/>
<path d="M135.215 180.739V184.45C134.695 185.153 130.051 185.561 129.052 183.864C128.561 183.03 128.264 182.709 126.999 182.252C125.903 181.858 126.166 177.354 127.884 176.312C129.393 175.398 132.36 176.898 132.36 176.898L135.215 180.739Z" fill="#20272F"/>
<path d="M159.256 180.814C157.426 182.398 155.4 183.736 152.871 181.916C152.871 181.916 151.307 177.761 151.192 176.615C151.027 174.931 151.382 172.873 151.192 170.525C151.001 168.177 150.099 166.548 149.512 163.533C148.926 160.518 148.977 153.646 148.14 147.354C147.302 141.062 144.516 127.387 144.516 127.387C144.508 127.346 144.487 127.308 144.455 127.281C144.423 127.253 144.383 127.237 144.341 127.235C144.299 127.234 144.258 127.246 144.224 127.271C144.19 127.296 144.166 127.332 144.155 127.372C143.278 130.863 139.829 144.668 139.014 150.864C138.077 157.991 138.489 166.134 138.193 169.247C137.897 172.36 137.507 175.695 137.025 177.163C136.543 178.631 135.171 180.679 135.171 180.679C132.77 181.338 131.833 181.242 130.073 180.281C129.953 180.216 129.833 180.146 129.703 180.066C127.853 179.005 128.445 176.379 128.489 175.796C128.493 175.778 128.495 175.759 128.495 175.741C128.503 175.602 128.535 175.466 128.59 175.338C128.631 175.228 128.678 175.12 128.73 175.016C128.755 174.96 128.785 174.899 128.815 174.839C128.936 174.603 129.076 174.351 129.211 174.11C129.247 174.045 129.277 173.984 129.312 173.929C129.377 173.809 129.437 173.693 129.492 173.577C129.567 173.431 129.631 173.28 129.682 173.124C129.817 172.687 129.888 155.546 129.923 139.653C129.938 133.905 129.948 128.317 129.953 123.749C129.953 123.285 129.953 122.807 129.959 122.32C129.953 122.204 129.953 122.084 129.959 121.968C129.959 121.375 129.968 120.765 129.974 120.157V120.076C129.974 119.574 129.983 119.071 129.989 118.572C130.004 117.581 130.013 116.615 130.028 115.725C130.034 115.403 130.038 115.087 130.043 114.78C130.049 114.472 130.053 114.151 130.053 113.86C130.058 113.673 130.058 113.497 130.064 113.322C130.064 113.096 130.073 112.892 130.073 112.693C130.073 112.493 130.079 112.311 130.079 112.14C130.079 111.969 130.084 111.818 130.084 111.677V110.262H157.735C157.735 110.262 157.735 110.549 157.724 111.067C157.709 112.294 157.679 114.818 157.659 117.746C157.649 119.692 157.649 121.814 157.659 123.856C157.724 136.887 157.849 157.246 158.029 160.436C158.29 165.188 159.1 169.333 159.262 172.557C159.424 175.781 159.256 180.814 159.256 180.814Z" fill="#323A61"/>
<path opacity="0.05" d="M159.256 180.816C158.955 181.073 158.659 181.331 158.062 181.763C157.057 175.861 156.058 168.723 155.243 162.789C153.681 151.472 152.526 140.114 151.58 128.734C151.307 125.438 149.464 121.784 150.107 118.504C150.642 115.758 152.408 111.132 154.605 110.264H157.738C157.738 110.264 157.631 117.48 157.659 123.856C157.72 136.888 157.848 157.246 158.023 160.437C158.285 165.186 159.094 169.332 159.259 172.553C159.424 175.775 159.256 180.816 159.256 180.816Z" fill="white"/>
<path opacity="0.05" d="M135.444 125.707C134.908 133 134.37 140.293 133.83 147.585C133.52 151.735 133.212 155.884 132.908 160.033C132.407 166.803 131.9 173.623 130.382 180.231C130.277 180.242 130.174 180.259 130.071 180.281C129.951 180.216 129.831 180.146 129.701 180.066C127.851 179.004 128.442 176.379 128.487 175.796C128.491 175.778 128.493 175.759 128.493 175.741C128.501 175.602 128.533 175.465 128.588 175.338C128.629 175.228 128.676 175.12 128.728 175.015C128.753 174.959 128.783 174.899 128.813 174.839C128.934 174.603 129.074 174.351 129.209 174.109C129.244 174.045 129.274 173.984 129.31 173.929C129.375 173.809 129.435 173.692 129.49 173.576C129.565 173.431 129.629 173.28 129.68 173.124C129.815 172.687 129.886 155.546 129.921 139.653C129.931 133.905 129.941 128.317 129.946 123.748C129.946 123.285 129.951 122.807 129.957 122.32C129.951 122.204 129.951 122.084 129.957 121.968C129.957 121.374 129.957 120.765 129.972 120.157V120.076C129.972 119.573 129.981 119.07 129.987 118.572C130.002 117.581 130.011 116.615 130.026 115.725C130.032 115.403 130.036 115.087 130.041 114.779C130.047 114.472 130.051 114.151 130.051 113.859C130.056 113.672 130.062 113.497 130.062 113.322C130.062 113.095 130.071 112.892 130.071 112.692C130.071 112.493 130.077 112.311 130.077 112.14C130.077 111.969 130.082 111.818 130.082 111.677C130.082 111.536 130.082 111.416 130.082 111.309C132.238 111.556 134.212 115.434 135.31 117.31C136.702 119.692 135.635 123.101 135.444 125.707Z" fill="white"/>
<g style="mix-blend-mode:multiply">
<path d="M157.722 116.834C157.706 118.064 157.671 120.426 157.651 123.351C149.965 125.668 133.784 125.061 129.997 123.608C130.036 120.706 130.081 118.099 130.084 117.095V110.794H157.542C157.603 111.066 157.664 116.569 157.722 116.834Z" fill="#B3B3B3"/>
</g>
<path d="M160.173 122.478C159.806 122.55 159.438 122.623 159.068 122.693C158.822 122.742 158.574 122.789 158.328 122.835C149.798 124.447 140.491 125.595 128.261 122.93C127.61 122.794 126.949 122.643 126.278 122.477C126.236 122.472 126.197 122.45 126.17 122.416C126.144 122.382 126.132 122.339 126.137 122.297C126.357 120.632 131.659 100.932 131.659 98.0344C131.659 96.8523 131.204 93.6133 130.608 89.8563V89.8466C130.567 89.6145 130.533 89.3835 130.492 89.147C129.445 82.6497 128.029 74.9187 127.76 73.4701C127.746 73.3949 127.737 73.3347 127.726 73.2885C127.724 73.2686 127.72 73.2489 127.715 73.2294C128.132 72.9768 131.678 71.7442 134.362 70.8254C135.734 70.3515 136.882 69.9657 137.273 69.8238C139.433 69.0716 148.039 69.1651 149.653 69.9195C149.777 69.9775 150.363 70.1731 151.19 70.4471L152.83 70.9845C152.837 70.9871 152.844 70.9889 152.85 70.9898C153.475 71.252 154.11 71.1134 155.989 71.6937C158.571 72.4911 158.559 73.2487 159.386 73.2283C159.381 73.2478 159.378 73.2675 159.376 73.2874C159.362 73.3702 159.331 73.5335 159.288 73.7689C159.019 75.2347 158.244 79.4752 157.462 84.0414C157.344 84.7324 157.225 85.432 157.106 86.1305C156.892 87.4136 156.678 88.6946 156.484 89.9154C156.462 90.0583 156.439 90.1991 156.418 90.3453C155.86 93.8916 155.443 96.8931 155.443 98.0301C155.443 100.932 160.089 120.628 160.309 122.292C160.313 122.314 160.313 122.335 160.308 122.356C160.303 122.377 160.294 122.397 160.281 122.415C160.268 122.432 160.252 122.447 160.234 122.458C160.215 122.468 160.195 122.476 160.173 122.478V122.478Z" fill="#37406B"/>
<path d="M147.001 66.8609C145.443 66.3107 140.689 66.3107 139.131 66.8609C137.622 67.3982 137.603 68.9027 136.789 70.0225C136.789 70.0225 139.957 68.9264 143.067 68.8898C146.172 68.9264 149.662 70.0386 149.662 70.0386C148.911 68.6609 148.762 67.4831 147.001 66.8609Z" fill="#EFF4FA"/>
<g style="mix-blend-mode:multiply">
<path d="M152.83 70.9865C152.445 70.9414 146.234 70.1622 143.223 70.1268C140.807 70.1515 136.262 70.6243 134.361 70.8253C135.735 70.3525 136.882 69.9656 137.273 69.8248C139.434 69.0726 148.039 69.1661 149.653 69.9205C149.849 70.0107 151.197 70.4481 152.83 70.9865Z" fill="#CCCCCC"/>
</g>
<path d="M147.159 67.595C145.599 67.0448 140.847 67.0448 139.287 67.595C137.779 68.1324 137.242 69.7035 134.932 70.6299C134.932 70.6299 140.114 69.6627 143.223 69.624C146.329 69.6616 151.514 70.5686 151.514 70.5686C149.204 69.6422 148.668 68.1281 147.159 67.595Z" fill="#3E4878"/>
<path d="M121.988 112.859V114.026H127.768V112.193H121.988V112.859Z" fill="white"/>
<path d="M130.608 89.8572C130.518 90.2494 127.971 101.786 128.232 112.791L127.084 112.801L121.16 112.857C120.694 88.1217 127.7 73.1895 127.7 73.1895C127.7 73.1895 127.711 73.2249 127.726 73.2905C127.736 73.3356 127.746 73.3979 127.761 73.471C128.137 75.1163 130.036 83.6801 130.546 89.1275C130.57 89.3747 130.591 89.6154 130.606 89.8465L130.608 89.8572Z" fill="#37406B"/>
<g style="mix-blend-mode:multiply">
<path d="M133.042 95.5389C132.01 89.5875 131.2 88.5333 129.35 81.1451C128.749 78.739 128.325 75.6214 127.716 73.2292C127.953 75.687 128.494 78.7798 128.858 81.2321C130.333 91.1758 127.494 96.1203 127.037 104.528C126.976 105.648 127.047 106.766 127.047 107.878C127.047 109.442 127.027 110.994 126.931 112.499C126.987 112.595 127.037 112.694 127.082 112.796L128.23 112.786C127.969 101.776 130.516 90.2441 130.606 89.8519C131.202 93.6131 131.658 96.8424 131.658 98.0299C131.658 100.931 126.355 120.626 126.135 122.291C126.132 122.312 126.133 122.334 126.139 122.354C126.145 122.375 126.154 122.394 126.167 122.411C126.18 122.428 126.196 122.442 126.215 122.453C126.233 122.463 126.254 122.47 126.275 122.473C126.947 122.638 127.608 122.789 128.26 122.925C130.611 118.59 131.984 112.186 132.445 109.271C133.311 103.819 133.589 98.6887 133.042 95.5389Z" fill="#CCCCCC"/>
</g>
<g style="mix-blend-mode:multiply">
<path d="M142.59 124.52L143.859 114.025L145.137 124.471C145.137 124.471 143.488 124.558 142.59 124.52Z" fill="#B3B3B3"/>
</g>
<path d="M152.422 52.1953C151.762 51.7504 150.005 51.1926 149.248 51.0229C148.581 50.8724 145.203 50.2437 145.071 51.37C145.023 51.7858 145.33 51.8793 145.423 51.9008C145.08 51.9761 144.412 52.0481 144.397 52.5048C144.381 52.9948 144.746 53.1496 145.243 53.2979C144.707 53.257 144.084 53.4204 144.087 53.9427C144.087 54.7014 144.894 54.7293 145.626 54.8744C144.853 54.9528 144.389 55.0474 144.372 55.431C144.315 56.6884 150.641 56.0329 150.401 57.2966C150.135 58.7023 147.69 57.9414 147.423 59.1386C147.292 59.721 148.091 59.9564 148.677 60.0875C150.654 60.5313 153.884 58.1284 154.466 58.5733C154.877 58.886 155.733 59.4685 156.061 59.7479C156.195 59.663 156.682 58.4497 158.126 56.2703C156.246 54.74 154.688 53.7224 152.422 52.1953Z" fill="#F5BA8F"/>
<path d="M156.317 60.1745L154.794 59.2374L157.099 54.8948L158.609 55.7169L156.317 60.1745Z" fill="#EFF4FA"/>
<path d="M176.434 70.4687C176.063 73.1553 175.069 76.2943 169.204 80.911C165.468 83.8512 158.076 85.7469 156.418 90.3485C156.364 90.4968 156.317 90.6484 156.276 90.801C156.021 89.8402 155.955 88.6205 156.011 87.2632C156.211 82.7723 157.867 76.7811 159.155 73.7517C159.234 73.5647 159.312 73.3903 159.387 73.2284C161.39 71.9388 167.301 70.4128 167.269 69.8228C167.211 68.7697 158.52 62.5905 155.99 60.4003C156.018 60.3541 156.05 60.2929 156.089 60.2305C156.597 59.3214 157.916 56.6133 158.392 55.63L158.568 55.2678C164.179 58.9818 176.891 67.1459 176.434 70.4687Z" fill="#37406B"/>
<g style="mix-blend-mode:multiply">
<path d="M176.434 70.4685C176.063 73.1552 175.069 76.2942 169.204 80.9109C165.468 83.8511 158.076 85.7468 156.418 90.3484C155.86 93.8947 155.443 96.8962 155.443 98.0332C155.443 100.935 160.089 120.631 160.309 122.295C160.312 122.316 160.311 122.337 160.306 122.358C160.301 122.378 160.292 122.397 160.279 122.414C160.267 122.431 160.251 122.445 160.233 122.455C160.215 122.466 160.195 122.473 160.174 122.476C159.807 122.548 159.439 122.621 159.069 122.691C158.774 121.35 158.32 119.694 158.036 118.733C156.377 113.186 152.995 98.8338 153.987 91.5767C154.214 89.9207 154.951 88.5086 156.011 87.262C156.352 86.862 156.719 86.4837 157.107 86.1293C163.142 80.596 175.575 78.2941 175.073 70.389C174.835 66.6428 161.239 58.2455 158.392 55.6288L158.568 55.2666C164.179 58.9817 176.891 67.1457 176.434 70.4685Z" fill="#CCCCCC"/>
</g>
<g style="mix-blend-mode:multiply">
<path d="M167.785 70.029C167.785 72.1052 161.177 73.9278 159.288 73.7709C157.904 73.6559 157.627 73.0853 155.706 72.3653C155.585 72.3201 151.163 70.764 151.033 70.764C151.071 70.6522 151.123 70.5459 151.19 70.4481L152.83 70.9854C152.837 70.988 152.844 70.9898 152.85 70.9908C153.475 71.253 154.11 71.1144 155.989 71.6947C158.571 72.4921 158.559 73.2497 159.386 73.2293C161.389 71.9397 167.3 70.4137 167.268 69.8237C167.21 68.7706 158.519 62.5914 155.989 60.4012C156.017 60.355 156.049 60.2938 156.088 60.2314C157.587 61.0374 162.799 64.8352 164.319 66.1065C165.785 67.3327 167.785 68.661 167.785 70.029Z" fill="#CCCCCC"/>
</g>
<path d="M138.844 19.8689C138.112 19.8904 137.799 19.7335 137.399 19.3842C139.856 9.64579 147.937 11.5587 150.539 13.8584C151.912 15.0706 152.598 16.5783 152.598 18.3816C152.598 24.2115 145.53 26.0621 144.089 29.3344C143.734 30.1404 143.583 32.0135 143.531 33.1472H142.116C141.758 31.2043 141.64 30.0039 141.849 28.8605C142.473 25.4302 147.029 23.0273 147.029 19.3488C147.029 18.3386 146.688 17.5204 146.006 16.8943C144.645 15.6402 140.984 14.7654 138.844 19.8689ZM143.076 34.699C143.823 34.6968 144.548 34.9546 145.126 35.4286C145.705 35.9027 146.102 36.5634 146.249 37.2983C146.397 38.0331 146.285 38.7965 145.934 39.4581C145.583 40.1198 145.015 40.6388 144.325 40.9266C143.635 41.2144 142.867 41.2532 142.152 41.0363C141.437 40.8194 140.82 40.3604 140.404 39.7374C139.989 39.1144 139.802 38.3661 139.875 37.6201C139.948 36.8742 140.277 36.1768 140.805 35.6469C141.099 35.3416 141.452 35.0998 141.843 34.9365C142.233 34.7731 142.653 34.6916 143.076 34.6969V34.699Z" fill="#37406B"/>
<path d="M155.698 28.1276C155.307 28.061 155.157 27.9449 154.983 27.716C157.315 22.8049 161.408 24.6801 162.545 26.1782C162.836 26.5414 163.042 26.9653 163.149 27.4188C163.255 27.8723 163.26 28.3439 163.161 28.7992C162.545 31.8964 158.598 32.1306 157.485 33.7136C157.211 34.1037 156.934 35.0827 156.786 35.6791L156.036 35.5287C156.051 34.454 156.116 33.8092 156.347 33.2236C157.042 31.4676 159.715 30.6756 160.104 28.7208C160.161 28.4787 160.165 28.2272 160.116 27.9834C160.067 27.7396 159.965 27.5094 159.819 27.3087C159.223 26.4973 157.374 25.6441 155.698 28.1276ZM156.381 36.4539C156.778 36.5323 157.135 36.7463 157.392 37.0595C157.649 37.3726 157.79 37.7655 157.79 38.1712C157.791 38.5768 157.651 38.9702 157.395 39.284C157.139 39.5979 156.783 39.8129 156.386 39.8924C155.99 39.9719 155.578 39.911 155.221 39.72C154.865 39.529 154.585 39.2197 154.43 38.845C154.276 38.4703 154.255 38.0532 154.372 37.665C154.49 37.2768 154.738 36.9415 155.074 36.7161C155.262 36.5858 155.476 36.4955 155.701 36.451C155.926 36.4065 156.157 36.4085 156.381 36.4572V36.4539Z" fill="#37406B"/>
<path d="M124.225 28.6521C123.79 28.8982 123.552 28.9036 123.201 28.8198C121.604 22.1645 127.082 20.7481 129.376 21.3048C130.586 21.5985 131.477 22.2891 132.047 23.3767C133.89 26.8908 130.216 30.2544 130.38 32.6885C130.42 33.2871 130.922 34.4638 131.249 35.1602L130.392 35.6104C129.561 34.553 129.107 33.8674 128.876 33.1108C128.168 30.8444 130.155 27.945 128.992 25.7269C128.673 25.1187 128.209 24.7343 127.6 24.5738C126.382 24.2579 123.902 24.8941 124.225 28.6521ZM131.464 36.2445C131.914 36.0058 132.432 35.931 132.931 36.0328C133.429 36.1347 133.877 36.4069 134.198 36.803C134.518 37.1991 134.692 37.6947 134.69 38.2051C134.687 38.7155 134.508 39.2091 134.183 39.6019C133.858 39.9947 133.408 40.2622 132.908 40.3589C132.409 40.4556 131.892 40.3754 131.444 40.1321C130.997 39.8888 130.648 39.4973 130.457 39.0245C130.265 38.5517 130.243 38.0269 130.394 37.5394C130.474 37.2613 130.611 37.0028 130.795 36.7797C130.979 36.5566 131.207 36.3738 131.464 36.2423V36.2445Z" fill="#37406B"/>
</svg>
