<svg width="99" height="83" viewBox="0 0 99 83" fill="none" xmlns="http://www.w3.org/2000/svg">
<path d="M67.3142 45.3706C69.7525 46.0726 72.1908 46.4288 74.5626 46.4288C78.2253 46.4288 81.2815 45.5918 83.6513 44.5668C81.3667 52.9307 75.8784 67.3624 64.9454 68.9876C63.9329 69.1382 63.1032 69.8703 62.8269 70.8558L60.4374 79.4025C60.236 80.1253 60.3554 80.8989 60.7677 81.5262C61.1799 82.1534 61.8425 82.5719 62.585 82.6737C63.3919 82.7838 64.2143 82.8398 65.0295 82.8398C78.1526 82.8398 91.149 69.1423 96.6331 49.5297C99.8524 38.0234 100.796 20.7244 92.8666 9.83601C88.4293 3.74328 81.9555 0.489729 73.6249 0.164678C73.5906 0.163641 73.5574 0.162603 73.5231 0.162603C63.2444 0.162602 54.1298 7.08509 51.3571 16.9953C49.7007 22.9198 50.4495 29.133 53.4673 34.4946C56.4528 39.796 61.37 43.6602 67.3142 45.3706Z" fill="#EDF1F4"/>
<path d="M2.97187 34.4936C5.95745 39.796 10.8746 43.6602 16.8188 45.3706C19.2571 46.0726 21.6954 46.4288 24.0662 46.4288C27.7289 46.4288 30.7861 45.5918 33.1559 44.5668C30.8713 52.9307 25.383 67.3624 14.449 68.9876C13.4365 69.1382 12.6078 69.8703 12.3305 70.8558L9.941 79.4025C9.73954 80.1253 9.85896 80.8989 10.2712 81.5262C10.6825 82.1534 11.345 82.5719 12.0885 82.6737C12.8944 82.7838 13.7169 82.8398 14.5331 82.8398C27.6562 82.8398 40.6526 69.1423 46.1377 49.5297C49.3559 38.0234 50.2999 20.7244 42.3692 9.83395C37.9328 3.74225 31.458 0.487662 23.1285 0.163656C23.0942 0.162618 23.061 0.161581 23.0257 0.161581C12.748 0.16158 3.63234 7.08406 0.859636 16.9942C-0.794642 22.9187 -0.0448714 29.133 2.97187 34.4936Z" fill="#EDF1F4"/>
</svg>
