<svg width="24" height="24" viewBox="0 0 24 24" fill="none" xmlns="http://www.w3.org/2000/svg">
<path d="M19.5625 1H16.2969C14.4015 1 12.8594 2.54206 12.8594 4.4375V7.70313C12.8594 9.59853 14.4015 11.1406 16.2969 11.1406H19.5625C21.458 11.1406 23 9.59853 23 7.70313V4.4375C23 2.54206 21.458 1 19.5625 1ZM21.2813 7.70313C21.2813 8.65085 20.5102 9.42187 19.5625 9.42187H16.2969C15.3492 9.42187 14.5781 8.65085 14.5781 7.70313V4.4375C14.5781 3.48978 15.3492 2.71875 16.2969 2.71875H19.5625C20.5102 2.71875 21.2813 3.48978 21.2813 4.4375V7.70313Z" fill="#C1C9D2"/>
<path d="M7.70313 1H4.4375C2.54206 1 1 2.54206 1 4.4375V7.70313C1 9.59853 2.54206 11.1406 4.4375 11.1406H7.70313C9.59853 11.1406 11.1406 9.59853 11.1406 7.70313V4.4375C11.1406 2.54206 9.59853 1 7.70313 1ZM9.42187 7.70313C9.42187 8.65085 8.65085 9.42187 7.70313 9.42187H4.4375C3.48978 9.42187 2.71875 8.65085 2.71875 7.70313V4.4375C2.71875 3.48978 3.48978 2.71875 4.4375 2.71875H7.70313C8.65085 2.71875 9.42187 3.48978 9.42187 4.4375V7.70313Z" fill="#C1C9D2"/>
<path d="M7.70313 12.8594H4.4375C2.54206 12.8594 1 14.4015 1 16.2969V19.5625C1 21.458 2.54206 23 4.4375 23H7.70313C9.59853 23 11.1406 21.458 11.1406 19.5625V16.2969C11.1406 14.4015 9.59853 12.8594 7.70313 12.8594ZM9.42187 19.5625C9.42187 20.5102 8.65085 21.2813 7.70313 21.2813H4.4375C3.48978 21.2813 2.71875 20.5102 2.71875 19.5625V16.2969C2.71875 15.3492 3.48978 14.5781 4.4375 14.5781H7.70313C8.65085 14.5781 9.42187 15.3492 9.42187 16.2969V19.5625Z" fill="#C1C9D2"/>
<path d="M22.1406 18.7031C21.666 18.7031 21.2813 19.0879 21.2813 19.5625C21.2813 20.5102 20.5102 21.2813 19.5625 21.2813H16.2969C15.3492 21.2813 14.5781 20.5102 14.5781 19.5625V16.2969C14.5781 15.3492 15.3492 14.5781 16.2969 14.5781H19.5625C20.2459 14.5781 20.8645 14.9829 21.1384 15.6092C21.3285 16.0441 21.8353 16.2424 22.2701 16.0523C22.7049 15.8621 22.9033 15.3554 22.7132 14.9206C22.1656 13.6684 20.9289 12.8594 19.5625 12.8594H16.2969C14.4015 12.8594 12.8594 14.4015 12.8594 16.2969V19.5625C12.8594 21.458 14.4015 23 16.2969 23H19.5625C21.458 23 23 21.458 23 19.5625C23 19.0879 22.6153 18.7031 22.1406 18.7031Z" fill="#C1C9D2"/>
<path d="M19.5625 1H16.2969C14.4015 1 12.8594 2.54206 12.8594 4.4375V7.70313C12.8594 9.59853 14.4015 11.1406 16.2969 11.1406H19.5625C21.458 11.1406 23 9.59853 23 7.70313V4.4375C23 2.54206 21.458 1 19.5625 1ZM21.2813 7.70313C21.2813 8.65085 20.5102 9.42187 19.5625 9.42187H16.2969C15.3492 9.42187 14.5781 8.65085 14.5781 7.70313V4.4375C14.5781 3.48978 15.3492 2.71875 16.2969 2.71875H19.5625C20.5102 2.71875 21.2813 3.48978 21.2813 4.4375V7.70313Z" stroke="white" stroke-width="0.4"/>
<path d="M7.70313 1H4.4375C2.54206 1 1 2.54206 1 4.4375V7.70313C1 9.59853 2.54206 11.1406 4.4375 11.1406H7.70313C9.59853 11.1406 11.1406 9.59853 11.1406 7.70313V4.4375C11.1406 2.54206 9.59853 1 7.70313 1ZM9.42187 7.70313C9.42187 8.65085 8.65085 9.42187 7.70313 9.42187H4.4375C3.48978 9.42187 2.71875 8.65085 2.71875 7.70313V4.4375C2.71875 3.48978 3.48978 2.71875 4.4375 2.71875H7.70313C8.65085 2.71875 9.42187 3.48978 9.42187 4.4375V7.70313Z" stroke="white" stroke-width="0.4"/>
<path d="M7.70313 12.8594H4.4375C2.54206 12.8594 1 14.4015 1 16.2969V19.5625C1 21.458 2.54206 23 4.4375 23H7.70313C9.59853 23 11.1406 21.458 11.1406 19.5625V16.2969C11.1406 14.4015 9.59853 12.8594 7.70313 12.8594ZM9.42187 19.5625C9.42187 20.5102 8.65085 21.2813 7.70313 21.2813H4.4375C3.48978 21.2813 2.71875 20.5102 2.71875 19.5625V16.2969C2.71875 15.3492 3.48978 14.5781 4.4375 14.5781H7.70313C8.65085 14.5781 9.42187 15.3492 9.42187 16.2969V19.5625Z" stroke="white" stroke-width="0.4"/>
<path d="M22.1406 18.7031C21.666 18.7031 21.2813 19.0879 21.2813 19.5625C21.2813 20.5102 20.5102 21.2813 19.5625 21.2813H16.2969C15.3492 21.2813 14.5781 20.5102 14.5781 19.5625V16.2969C14.5781 15.3492 15.3492 14.5781 16.2969 14.5781H19.5625C20.2459 14.5781 20.8645 14.9829 21.1384 15.6092C21.3285 16.0441 21.8353 16.2424 22.2701 16.0523C22.7049 15.8621 22.9033 15.3554 22.7132 14.9206C22.1656 13.6684 20.9289 12.8594 19.5625 12.8594H16.2969C14.4015 12.8594 12.8594 14.4015 12.8594 16.2969V19.5625C12.8594 21.458 14.4015 23 16.2969 23H19.5625C21.458 23 23 21.458 23 19.5625C23 19.0879 22.6153 18.7031 22.1406 18.7031Z" stroke="white" stroke-width="0.4"/>
</svg>
