<svg width="22" height="24" viewBox="0 0 22 24" fill="none" xmlns="http://www.w3.org/2000/svg">
<path d="M10.1045 9.08982C9.34906 9.08848 8.61099 8.86075 7.98354 8.43542C7.35609 8.01009 6.8674 7.40624 6.57924 6.70018C6.29108 5.99413 6.21638 5.21755 6.36457 4.46858C6.51276 3.7196 6.87719 3.03185 7.41182 2.49223C7.94645 1.95261 8.62727 1.58534 9.36827 1.43682C10.1093 1.2883 10.8772 1.3652 11.575 1.65781C12.2727 1.95042 12.8691 2.4456 13.2886 3.08078C13.7082 3.71596 13.9321 4.46264 13.9321 5.22645C13.9317 5.73424 13.8323 6.23698 13.6397 6.70595C13.4471 7.17491 13.165 7.60093 12.8096 7.95968C12.4542 8.31843 12.0324 8.60288 11.5682 8.79679C11.1041 8.9907 10.6067 9.09027 10.1045 9.08982ZM10.1045 1.81959C9.43807 1.81959 8.78663 2.0194 8.23254 2.39375C7.67845 2.7681 7.24658 3.30018 6.99156 3.9227C6.73654 4.54522 6.66982 5.23023 6.79983 5.8911C6.92984 6.55196 7.25074 7.159 7.72196 7.63546C8.19317 8.11192 8.79354 8.43639 9.44714 8.56785C10.1007 8.6993 10.7782 8.63183 11.3939 8.37397C12.0096 8.11612 12.5358 7.67945 12.906 7.1192C13.2762 6.55894 13.4739 5.90026 13.4739 5.22645C13.4739 4.3229 13.1189 3.45635 12.487 2.81744C11.8551 2.17853 10.9981 1.81959 10.1045 1.81959Z" fill="#C1C9D2"/>
<path d="M1.12843 21.8076C1.06202 21.8015 1.00048 21.7698 0.956591 21.719C0.935309 21.6932 0.919291 21.6633 0.909461 21.6311C0.899631 21.599 0.896184 21.5652 0.899312 21.5317V20.99C0.899312 15.9819 4.62248 11.7608 9.37331 11.3895C9.61928 11.369 9.86524 11.3588 10.1078 11.3588C12.0931 11.3607 14.0248 12.0094 15.6168 13.2087C15.6461 13.2304 15.6701 13.2586 15.687 13.291C15.7039 13.3235 15.7133 13.3594 15.7145 13.3961C15.7149 13.4271 15.7092 13.4579 15.6977 13.4866C15.6862 13.5153 15.6691 13.5414 15.6474 13.5633C15.6257 13.5853 15.5999 13.6026 15.5715 13.6142C15.5431 13.6259 15.5127 13.6316 15.482 13.6312C15.4393 13.6282 15.3984 13.6128 15.3641 13.5869C14.0625 12.6028 12.5159 12.0042 10.8971 11.8581C9.27838 11.7119 7.65132 12.0239 6.19791 12.7593C4.74451 13.4946 3.52204 14.6242 2.66723 16.0218C1.81241 17.4194 1.35895 19.0299 1.35754 20.6731V21.3545H11.0176C11.0493 21.3506 11.0815 21.3535 11.112 21.3631C11.1426 21.3727 11.1707 21.3887 11.1947 21.4101C11.2186 21.4315 11.2378 21.4578 11.2509 21.4873C11.2641 21.5168 11.2709 21.5487 11.2709 21.5811C11.2709 21.6134 11.2641 21.6453 11.2509 21.6748C11.2378 21.7043 11.2186 21.7306 11.1947 21.752C11.1707 21.7734 11.1426 21.7895 11.112 21.7991C11.0815 21.8086 11.0493 21.8116 11.0176 21.8076H1.12843Z" fill="#C1C9D2"/>
<path fill-rule="evenodd" clip-rule="evenodd" d="M10.1036 9.54499C9.26002 9.54349 8.43566 9.2892 7.73467 8.81401C7.03365 8.33882 6.48736 7.66396 6.16516 6.87448C5.84294 6.08498 5.75938 5.21651 5.92511 4.3789C6.09084 3.54129 6.49835 2.77243 7.09583 2.16937C7.69329 1.56633 8.45389 1.15612 9.28141 0.990257C10.1089 0.824399 10.9665 0.910262 11.7459 1.23709C12.5253 1.56392 13.1917 2.11716 13.6607 2.8272C14.1297 3.53727 14.3801 4.37219 14.3801 5.22645C14.3796 5.7943 14.2685 6.35685 14.0532 6.88117C13.8379 7.40549 13.5226 7.88166 13.1254 8.28254C12.7282 8.68342 12.257 9.00117 11.7386 9.21774C11.2202 9.43431 10.6644 9.54549 10.1036 9.54499ZM1.10811 22.2628L1.08797 22.2609C0.907449 22.2444 0.739716 22.1581 0.619784 22.0194L0.616113 22.0152L0.612546 22.0108C0.553396 21.9389 0.508779 21.8558 0.481373 21.7661C0.456586 21.685 0.44635 21.6002 0.45107 21.5155V20.99C0.45107 15.7579 4.34093 11.3268 9.33782 10.9357C9.59543 10.9143 9.8532 10.9036 10.1077 10.9036H10.1082C12.1888 10.9057 14.2136 11.5854 15.8826 12.8423C15.9659 12.9045 16.0345 12.985 16.0829 13.078C16.1318 13.1716 16.159 13.2754 16.1623 13.3815L16.1624 13.3854L16.1625 13.3893C16.1638 13.4815 16.1469 13.573 16.1127 13.6583C16.0784 13.7436 16.0277 13.821 15.9635 13.8859C15.8993 13.9508 15.823 14.0019 15.7392 14.0363C15.6554 14.0707 15.5656 14.0876 15.4753 14.0863L15.4632 14.0861L15.4512 14.0853C15.3229 14.0763 15.1997 14.0301 15.0964 13.952C13.8614 13.0183 12.3937 12.4502 10.8574 12.3115C9.321 12.1727 7.77686 12.4689 6.39763 13.1667C5.01843 13.8645 3.85866 14.9363 3.04781 16.262C2.23701 17.5876 1.80697 19.115 1.8056 20.6733V20.8993H10.9975C11.0807 20.8934 11.1644 20.9031 11.2443 20.9282C11.3352 20.9567 11.4192 21.0045 11.4908 21.0685C11.5623 21.1325 11.6198 21.2113 11.6591 21.2997C11.6985 21.388 11.7189 21.484 11.7189 21.5811C11.7189 21.6782 11.6985 21.7741 11.6591 21.8625C11.6198 21.9508 11.5623 22.0296 11.4908 22.0936C11.4193 22.1576 11.3352 22.2054 11.2443 22.2339C11.1643 22.259 11.0806 22.2688 10.9974 22.2628H1.10811ZM0.909367 21.6311C0.909389 21.6312 0.909345 21.6311 0.909367 21.6311C0.919197 21.6633 0.935215 21.6932 0.956497 21.719C1.00039 21.7698 1.06192 21.8015 1.12833 21.8076H11.0175C11.0276 21.8089 11.0377 21.8094 11.0478 21.8093C11.0695 21.809 11.0911 21.8056 11.1119 21.7991C11.1425 21.7895 11.1706 21.7734 11.1946 21.752C11.2185 21.7306 11.2377 21.7043 11.2508 21.6748C11.264 21.6453 11.2708 21.6134 11.2708 21.5811C11.2708 21.5487 11.264 21.5168 11.2508 21.4873C11.2377 21.4578 11.2185 21.4315 11.1946 21.4101C11.1706 21.3887 11.1425 21.3727 11.1119 21.3631C11.0911 21.3565 11.0695 21.3531 11.0478 21.3528C11.0377 21.3527 11.0276 21.3533 11.0175 21.3545H1.35745V20.6731C1.35749 20.6215 1.35798 20.57 1.35892 20.5184C1.38773 18.9289 1.83916 17.3755 2.66713 16.0218C3.52195 14.6242 4.74441 13.4946 6.19782 12.7593C6.50194 12.6054 6.81365 12.4701 7.13131 12.3536C8.33176 11.9134 9.61699 11.7425 10.897 11.8581C12.5158 12.0042 14.0624 12.6028 15.364 13.5869C15.3983 13.6128 15.4392 13.6282 15.4819 13.6312C15.5126 13.6316 15.543 13.6259 15.5714 13.6142C15.5998 13.6026 15.6256 13.5853 15.6473 13.5633C15.669 13.5414 15.6861 13.5153 15.6976 13.4866C15.7092 13.4579 15.7149 13.4271 15.7144 13.3961C15.7132 13.3594 15.7038 13.3235 15.6869 13.291C15.67 13.2586 15.646 13.2304 15.6167 13.2087C14.0247 12.0094 12.093 11.3607 10.1077 11.3588C9.86515 11.3588 9.61919 11.369 9.37322 11.3895C8.52424 11.4558 7.70808 11.6451 6.94012 11.9399C6.61918 12.0631 6.30666 12.2047 6.00368 12.3634C4.50627 13.1479 3.24191 14.3512 2.34612 15.8192C1.5089 17.1913 0.993632 18.7945 0.91097 20.5033C0.903166 20.6646 0.899218 20.8269 0.899218 20.99V21.5317C0.896097 21.5651 0.899587 21.599 0.909367 21.6311ZM9.29893 9.00154C9.56225 9.05946 9.83219 9.08934 10.1044 9.08982C10.6066 9.09027 11.104 8.9907 11.5681 8.79679C12.0323 8.60288 12.4541 8.31843 12.8095 7.95968C13.1649 7.60093 13.447 7.17491 13.6396 6.70594C13.8322 6.23698 13.9316 5.73424 13.932 5.22645C13.932 4.46264 13.7081 3.71596 13.2885 3.08078C12.869 2.4456 12.2726 1.95042 11.5749 1.65781C10.8771 1.3652 10.1092 1.2883 9.36817 1.43682C9.34784 1.44089 9.32755 1.44513 9.30731 1.44954C8.83316 1.5527 8.38486 1.74572 7.98524 2.01628C7.78022 2.15508 7.58803 2.31428 7.41173 2.49223C7.05381 2.85348 6.77218 3.28113 6.58064 3.74908C6.48607 3.98013 6.41346 4.22101 6.36447 4.46857C6.26532 4.96969 6.26595 5.48317 6.36354 5.97962C6.41181 6.22516 6.48379 6.46653 6.57915 6.70018C6.77177 7.17216 7.054 7.59846 7.40739 7.9563C7.58266 8.13377 7.77542 8.29441 7.98345 8.43542C8.38482 8.7075 8.83145 8.89871 9.29893 9.00154ZM9.40095 1.89466C8.98578 1.98428 8.58896 2.15289 8.23245 2.39375C8.04965 2.51725 7.88015 2.65792 7.72591 2.81334C7.41265 3.12902 7.16235 3.50556 6.99147 3.9227C6.90714 4.12854 6.84341 4.34121 6.80056 4.55758C6.71383 4.99558 6.71271 5.44875 6.79973 5.89109C6.84279 6.10993 6.90677 6.32287 6.99021 6.52712C7.15875 6.93967 7.40668 7.31678 7.72186 7.63546C7.87834 7.79368 8.04906 7.93513 8.23124 8.05833C8.58243 8.29582 8.97622 8.46544 9.39268 8.55644C9.41076 8.56039 9.42888 8.56419 9.44704 8.56784C10.1006 8.6993 10.7781 8.63183 11.3938 8.37397C12.0095 8.11612 12.5357 7.67945 12.9059 7.1192C13.2761 6.55894 13.4738 5.90026 13.4738 5.22645C13.4738 4.32289 13.1188 3.45635 12.4869 2.81744C11.855 2.17853 10.998 1.81959 10.1044 1.81959C9.86675 1.81959 9.63103 1.845 9.40095 1.89466ZM10.1044 2.27476C9.52616 2.27476 8.9611 2.44814 8.48065 2.77274C8.00023 3.09732 7.62608 3.55844 7.40523 4.09756C7.18438 4.63665 7.12664 5.22974 7.2392 5.80191C7.35176 6.37409 7.62965 6.89995 8.03804 7.31288C8.44645 7.72584 8.96705 8.00729 9.5341 8.12134C10.1012 8.23539 10.6889 8.17684 11.2229 7.95317C11.757 7.72952 12.2131 7.3509 12.5338 6.86553C12.8545 6.38018 13.0256 5.80978 13.0256 5.22645C13.0256 4.44427 12.7183 3.69372 12.1707 3.14001C11.623 2.58624 10.8798 2.27476 10.1044 2.27476Z" fill="#C1C9D2"/>
<path d="M20.4795 16.4662C20.0097 15.9932 19.3739 15.7276 18.7111 15.7276C18.0484 15.7276 17.4126 15.9932 16.9427 16.4662L16.7031 16.7087L16.4707 16.4662C16.0009 15.991 15.3638 15.7241 14.6996 15.7241C14.0353 15.7241 13.3983 15.991 12.9285 16.4662C11.9535 17.4528 12.0043 19.1192 12.9793 20.1059L13.1609 20.2896L16.2056 23.3781C16.3377 23.5114 16.5166 23.5862 16.7031 23.5862C16.8896 23.5862 17.0685 23.5114 17.2005 23.3781L20.2471 20.2951L20.4287 20.1114C21.4018 19.1266 21.4545 17.4602 20.4795 16.4662ZM20.2979 18.3641C20.2652 18.7735 20.0864 19.1568 19.795 19.4426L19.6044 19.6447L16.6994 22.5844L13.7945 19.6447L13.6093 19.4499C13.3174 19.1643 13.138 18.781 13.1046 18.3715C13.0894 18.1417 13.1228 17.9113 13.2027 17.6957C13.2826 17.4801 13.407 17.2843 13.5678 17.1213C13.7285 16.9583 13.9217 16.8319 14.1346 16.7507C14.3475 16.6694 14.5751 16.635 14.8022 16.6499C15.2076 16.6839 15.5867 16.8669 15.8679 17.1644L16.0622 17.3591L16.3981 17.699L16.8774 18.1841C16.9215 18.2286 16.9738 18.2639 17.0314 18.2879C17.089 18.3119 17.1507 18.3243 17.213 18.3242C17.2753 18.3241 17.337 18.3116 17.3945 18.2874C17.452 18.2632 17.5042 18.2278 17.5482 18.1831C17.5922 18.1385 17.6271 18.0855 17.6509 18.0273C17.6746 17.969 17.6868 17.9065 17.6867 17.8435C17.6866 17.7805 17.6743 17.7181 17.6504 17.6599C17.6264 17.6016 17.5914 17.5488 17.5473 17.5043L17.3748 17.3205L17.5782 17.1239C17.8079 16.8918 18.102 16.736 18.4214 16.6773C18.7408 16.6185 19.0703 16.6596 19.366 16.7951C19.6617 16.9306 19.9097 17.154 20.0768 17.4356C20.2439 17.7172 20.3223 18.0436 20.3016 18.3715L20.2979 18.3641Z" fill="#C1C9D2"/>
<path fill-rule="evenodd" clip-rule="evenodd" d="M16.8853 16.4074C17.3704 15.919 18.0269 15.6449 18.7111 15.6449C19.3953 15.6449 20.0517 15.919 20.5368 16.4074L20.4795 16.4662L20.5372 16.4078C21.5458 17.4361 21.4892 19.1549 20.4861 20.17L17.258 23.4367C17.1106 23.5854 16.911 23.669 16.703 23.669C16.495 23.669 16.2955 23.5855 16.1481 23.4368L13.1033 20.3482L12.9217 20.1645C11.917 19.1477 11.8619 17.4287 12.8709 16.4076C13.356 15.9169 14.0138 15.6414 14.6995 15.6414C15.3853 15.6414 16.043 15.9169 16.5281 16.4075L16.529 16.4085L16.7039 16.591L16.8853 16.4074ZM16.703 16.7087L16.4706 16.4662C16.0008 15.991 15.3638 15.7241 14.6995 15.7241C14.0353 15.7241 13.3982 15.991 12.9284 16.4662C11.9535 17.4528 12.0043 19.1192 12.9793 20.1059L13.1608 20.2896L16.2056 23.3781C16.3376 23.5114 16.5165 23.5862 16.703 23.5862C16.8895 23.5862 17.0684 23.5114 17.2005 23.3781L20.4286 20.1114C21.4018 19.1266 21.4544 17.4601 20.4795 16.4662C20.0096 15.9931 19.3738 15.7276 18.7111 15.7276C18.0483 15.7276 17.4125 15.9932 16.9427 16.4662L16.703 16.7087ZM20.3019 18.3644C20.302 18.3636 20.302 18.3628 20.3021 18.362C20.3054 18.3044 20.3056 18.247 20.3029 18.1898C20.2902 17.9243 20.2129 17.6651 20.0767 17.4356C19.9096 17.154 19.6617 16.9306 19.3659 16.7951C19.0702 16.6596 18.7407 16.6185 18.4213 16.6773C18.102 16.736 17.8078 16.8918 17.5781 17.1239L17.3748 17.3205L17.5473 17.5043C17.5914 17.5488 17.6264 17.6016 17.6503 17.6599C17.6742 17.7181 17.6866 17.7805 17.6867 17.8435C17.6867 17.9065 17.6746 17.969 17.6508 18.0273C17.627 18.0855 17.5922 18.1385 17.5482 18.1831C17.5042 18.2278 17.4519 18.2632 17.3944 18.2874C17.3369 18.3116 17.2752 18.3241 17.2129 18.3242C17.1506 18.3243 17.0889 18.312 17.0314 18.2879C16.9738 18.2639 16.9214 18.2286 16.8773 18.1841L16.0621 17.3591L15.8679 17.1644C15.5866 16.8669 15.2075 16.6839 14.8021 16.6499C14.575 16.635 14.3475 16.6694 14.1346 16.7507C13.9217 16.8319 13.7284 16.9583 13.5677 17.1213C13.407 17.2843 13.2825 17.4801 13.2026 17.6957C13.1228 17.9113 13.0893 18.1417 13.1045 18.3715C13.1379 18.781 13.3173 19.1643 13.6093 19.4499L13.7945 19.6447L16.6994 22.5844L19.6043 19.6447L19.795 19.4426C20.0511 19.1914 20.2202 18.8649 20.2796 18.5116C20.2873 18.4661 20.2931 18.4201 20.2971 18.3737C20.2972 18.3729 20.2972 18.372 20.2973 18.3712C20.2975 18.3688 20.2977 18.3665 20.2979 18.3641L20.3015 18.3715C20.3017 18.3691 20.3018 18.3668 20.3019 18.3644ZM20.2233 18.2746C20.2245 17.9948 20.15 17.7193 20.007 17.4783C19.8484 17.2111 19.6131 16.9991 19.3324 16.8705C19.0518 16.742 18.739 16.703 18.4359 16.7587C18.1327 16.8145 17.8536 16.9624 17.6356 17.1826L17.6343 17.1839L17.49 17.3234L17.6055 17.4464C17.6568 17.4984 17.6976 17.5601 17.7255 17.628C17.7536 17.6962 17.768 17.7694 17.7681 17.8434C17.7682 17.9173 17.7539 17.9906 17.7261 18.0589C17.6982 18.1273 17.6573 18.1894 17.6058 18.2417C17.5542 18.294 17.493 18.3355 17.4256 18.3639C17.3582 18.3922 17.286 18.4069 17.213 18.407C17.1401 18.4071 17.0678 18.3926 17.0004 18.3644C16.9329 18.3363 16.8716 18.2949 16.8199 18.2428L16.0049 17.418L15.8091 17.2217C15.5418 16.939 15.1815 16.7649 14.7961 16.7325C14.5808 16.7184 14.3651 16.751 14.1633 16.8281C13.9612 16.9053 13.7778 17.0252 13.6253 17.1799C13.4728 17.3345 13.3547 17.5204 13.2789 17.7249C13.2032 17.9292 13.1715 18.1475 13.1858 18.3653C13.2177 18.7545 13.3882 19.1188 13.6658 19.3903L13.6679 19.3924L13.8525 19.5866L16.6994 22.4675L19.5461 19.5868L19.7383 19.383C20.0155 19.1112 20.1855 18.7466 20.2167 18.3574L20.2233 18.2746Z" fill="#C1C9D2"/>
</svg>
