<svg width="132" height="130" viewBox="0 0 132 130" fill="none" xmlns="http://www.w3.org/2000/svg">
<g clip-path="url(#clip0_1491_1233)">
</g>
<defs>
<linearGradient id="paint0_linear_1491_1233" x1="65.1414" y1="20.1049" x2="64.655" y2="126.688" gradientUnits="userSpaceOnUse">
<stop stop-color="#F2F9F6"/>
<stop offset="1" stop-color="#DBEFE5"/>
</linearGradient>
<linearGradient id="paint1_linear_1491_1233" x1="52.0106" y1="75.9406" x2="74.4153" y2="54.9501" gradientUnits="userSpaceOnUse">
<stop stop-color="#FBD4DA"/>
<stop offset="1" stop-color="#EDB0BA"/>
</linearGradient>
<linearGradient id="paint2_linear_1491_1233" x1="48.0211" y1="88.3354" x2="72.9944" y2="88.3354" gradientUnits="userSpaceOnUse">
<stop stop-color="#2F5B91"/>
<stop offset="1" stop-color="#00264C"/>
</linearGradient>
<linearGradient id="paint3_linear_1491_1233" x1="60.7191" y1="38.2487" x2="61.0877" y2="128.84" gradientUnits="userSpaceOnUse">
<stop stop-color="#3AA780"/>
<stop offset="0.14" stop-color="#2E906D"/>
<stop offset="0.37" stop-color="#1E7152"/>
<stop offset="0.6" stop-color="#125A3F"/>
<stop offset="0.81" stop-color="#0B4C33"/>
<stop offset="1" stop-color="#09472F"/>
</linearGradient>
<linearGradient id="paint4_linear_1491_1233" x1="75.3911" y1="37.9955" x2="47.2743" y2="135.387" gradientUnits="userSpaceOnUse">
<stop offset="0.01" stop-color="#42B48A"/>
<stop offset="0.02" stop-color="#41B289"/>
<stop offset="0.23" stop-color="#329B73"/>
<stop offset="0.46" stop-color="#278964"/>
<stop offset="0.7" stop-color="#207F5B"/>
<stop offset="1" stop-color="#1E7C58"/>
</linearGradient>
<linearGradient id="paint5_linear_1491_1233" x1="59.8634" y1="52.4878" x2="68.1313" y2="47.825" gradientUnits="userSpaceOnUse">
<stop stop-color="#68A9DC"/>
<stop offset="1" stop-color="#3A6EAE"/>
</linearGradient>
<linearGradient id="paint6_linear_1491_1233" x1="53.4805" y1="41.4038" x2="64.8053" y2="41.115" gradientUnits="userSpaceOnUse">
<stop stop-color="#DDBCC2"/>
<stop offset="1" stop-color="#D9A2AB"/>
</linearGradient>
<linearGradient id="paint7_linear_1491_1233" x1="100724" y1="113024" x2="104778" y2="113024" gradientUnits="userSpaceOnUse">
<stop stop-color="#68A9DC"/>
<stop offset="1" stop-color="#3A6EAE"/>
</linearGradient>
<linearGradient id="paint8_linear_1491_1233" x1="57186.5" y1="41646.1" x2="55832.6" y2="41777.1" gradientUnits="userSpaceOnUse">
<stop stop-color="#FBD4DA"/>
<stop offset="1" stop-color="#EDB0BA"/>
</linearGradient>
<linearGradient id="paint9_linear_1491_1233" x1="131164" y1="61403" x2="172321" y2="47896.7" gradientUnits="userSpaceOnUse">
<stop stop-color="#FBD4DA"/>
<stop offset="1" stop-color="#EDB0BA"/>
</linearGradient>
<linearGradient id="paint10_linear_1491_1233" x1="54680.1" y1="46901.3" x2="55815.6" y2="47178.5" gradientUnits="userSpaceOnUse">
<stop stop-color="#68A9DC"/>
<stop offset="1" stop-color="#3A6EAE"/>
</linearGradient>
<linearGradient id="paint11_linear_1491_1233" x1="97.3294" y1="-0.176297" x2="92.5662" y2="22.8795" gradientUnits="userSpaceOnUse">
<stop offset="0.01" stop-color="#42B48A"/>
<stop offset="0.02" stop-color="#41B289"/>
<stop offset="0.23" stop-color="#329B73"/>
<stop offset="0.46" stop-color="#278964"/>
<stop offset="0.7" stop-color="#207F5B"/>
<stop offset="1" stop-color="#1E7C58"/>
</linearGradient>
<clipPath id="clip0_1491_1233">
<rect width="132" height="130" fill="white"/>
</clipPath>
</defs>
<path d="M121.427 68.2023C116.889 66.6828 111.55 64.4147 110.417 58.954C109.466 54.3715 112.067 49.9062 112.547 45.2341C113.037 40.4831 111.103 35.4677 107.755 32.7995C104.406 30.1313 99.7958 29.9379 96.3311 32.3196C92.1485 35.1954 89.6893 41.3329 85.0213 42.8302C81.9151 43.8255 78.557 42.4239 75.9239 40.185C73.2908 37.9461 71.2052 34.9293 68.9448 32.1688C64.7657 27.0647 59.7915 22.6898 54.086 20.6053C48.3804 18.5207 41.8771 18.9509 36.9037 22.8087C35.096 24.2111 33.5447 26.1049 32.3732 28.28C30.3995 31.9435 26.2737 32.9343 23.2421 30.4524C22.7134 30.0186 22.1612 29.6144 21.5878 29.2415C18.3468 27.1366 14.0107 26.3329 11.2187 29.1626C9.33549 31.0715 8.61487 34.2409 8.78172 37.1983C8.94856 40.1557 9.88661 42.973 10.8433 45.714C12.9395 51.7246 15.2096 57.7645 15.9116 64.2089C16.6136 70.6532 15.4998 77.7212 11.6385 82.2532C8.28384 86.1916 3.10193 88.0243 0.970237 93.0378C-0.463021 96.4086 -0.135538 100.505 0.846 104.126C2.82683 111.43 7.41326 117.698 13.2129 121.018C19.2955 124.504 26.2586 124.738 32.9847 124.908C54.6113 125.452 59.3566 105.902 76.5202 112.451C79.9529 113.761 97.3677 130.26 108.929 125.191C112.421 123.66 115.571 120.181 115.976 115.753C116.407 111.052 113.749 106.439 114.379 101.765C115.119 96.2454 119.913 93.1611 124.021 90.508C128.129 87.8548 132.6 83.5518 131.941 78.0006C131.273 72.4371 125.964 69.7227 121.427 68.2023Z" fill="url(#paint0_linear_1491_1233)"/>
<path d="M59.3655 47.229C59.6947 53.5873 63.6803 56.558 65.2733 60.9072C68.4354 69.5435 66.6817 75.6322 64.8686 79.1413C64.7429 79.3221 64.6035 79.4929 64.4515 79.6523C63.8782 80.2324 63.0156 80.3796 62.634 81.1602C62.2897 81.8628 62.0128 83.2563 61.8983 83.8728C61.8907 83.9143 61.8933 83.9569 61.906 83.9971C61.9187 84.0373 61.941 84.0738 61.971 84.1033C62.001 84.1329 62.0379 84.1547 62.0783 84.1668C62.1187 84.1788 62.1614 84.1809 62.2027 84.1726C62.508 84.1141 62.9295 83.8977 63.1398 83.1818C63.47 82.0588 64.3823 83.0443 63.4318 84.5922C62.7778 85.6567 62.3261 86.7992 62.7263 87.3944C62.9455 87.7226 64.448 86.6067 65.3887 86.0452C66.9773 85.0987 67.9002 80.4018 67.9375 80.4222C75.4809 64.7579 70.3203 52.844 64.9459 44.8845C63.9901 43.4608 59.2466 44.9369 59.3655 47.229Z" fill="url(#paint1_linear_1491_1233)"/>
<path d="M72.8311 104.685C73.3893 95.2739 73.0592 78.2515 62.9749 72.0422C57.5853 71.628 51.9881 73.4926 51.9881 73.4926C51.9881 73.4926 48.6334 85.1518 48.0947 104.683L72.8311 104.685Z" fill="url(#paint2_linear_1491_1233)"/>
<path d="M92.2067 102.591C106.584 88.1049 106.495 64.7144 91.9999 50.3372C77.5049 35.96 54.1006 36.0558 39.721 50.5439C26.6566 63.7058 25.5393 84.2205 36.3131 98.6421L28.9986 106.012L21.2413 98.3227C20.962 98.0458 20.5841 97.8911 20.1907 97.8926C19.7973 97.8941 19.4205 98.0517 19.1433 98.3307L13.3624 104.155C13.2251 104.293 13.1164 104.457 13.0425 104.637C12.9685 104.817 12.9309 105.01 12.9317 105.205C12.9324 105.4 12.9715 105.593 13.0468 105.772C13.1221 105.952 13.232 106.115 13.3704 106.252L21.1277 113.945L13.4316 121.699C13.1545 121.978 12.9997 122.356 13.0012 122.749C13.0027 123.142 13.1604 123.519 13.4396 123.796L19.2667 129.575C19.405 129.712 19.569 129.821 19.7493 129.895C19.9296 129.968 20.1227 130.006 20.3175 130.005C20.5123 130.004 20.7051 129.965 20.8848 129.89C21.0645 129.815 21.2275 129.705 21.3647 129.566L29.0617 121.813L36.819 129.505C36.9573 129.642 37.1212 129.751 37.3014 129.825C37.4817 129.899 37.6748 129.936 37.8696 129.936C38.0645 129.935 38.2572 129.896 38.4369 129.82C38.6167 129.745 38.7798 129.635 38.917 129.497L44.6979 123.673C44.8352 123.535 44.9439 123.371 45.0178 123.19C45.0918 123.01 45.1294 122.817 45.1287 122.623C45.1279 122.428 45.0888 122.235 45.0135 122.056C44.9382 121.876 44.8283 121.713 44.6899 121.576L36.9326 113.882L44.2666 106.494C58.7705 117.024 79.1884 115.709 92.2067 102.591ZM47.331 95.3396C36.9583 85.0543 36.8918 68.3114 47.1828 57.9436C57.4739 47.5758 74.2248 47.5093 84.5966 57.7955C94.9685 68.0816 95.0359 84.8246 84.7448 95.1924C74.4538 105.56 57.7028 105.626 47.331 95.3396Z" fill="url(#paint3_linear_1491_1233)"/>
<path d="M91.2462 101.744C105.623 87.2568 105.534 63.8619 91.0395 49.4891C76.5445 35.1163 53.1402 35.2077 38.7606 49.6958C25.6962 62.8577 24.5789 83.3733 35.3536 97.794L28.0382 105.164L20.2809 97.4702C20.1426 97.333 19.9786 97.2245 19.7983 97.1507C19.618 97.0769 19.4249 97.0393 19.2301 97.0401C19.0352 97.0409 18.8425 97.0801 18.6628 97.1554C18.4831 97.2308 18.32 97.3407 18.1829 97.4791L12.4019 103.303C12.1249 103.582 11.9702 103.96 11.9717 104.353C11.9732 104.746 12.1308 105.123 12.41 105.4L20.1682 113.093L12.4712 120.847C12.1941 121.127 12.0393 121.504 12.0408 121.898C12.0423 122.291 12.2 122.667 12.4792 122.944L18.3063 128.723C18.4446 128.86 18.6086 128.968 18.7889 129.042C18.9692 129.116 19.1623 129.153 19.3571 129.153C19.552 129.152 19.7447 129.113 19.9244 129.037C20.104 128.962 20.2671 128.852 20.4042 128.714L28.1021 120.96L35.8595 128.653C35.9978 128.791 36.1618 128.899 36.3421 128.973C36.5224 129.047 36.7154 129.084 36.9103 129.083C37.1051 129.083 37.2979 129.043 37.4776 128.968C37.6572 128.893 37.8203 128.783 37.9574 128.645L43.7393 122.82C43.8765 122.682 43.9851 122.518 44.059 122.338C44.1328 122.158 44.1704 121.965 44.1696 121.77C44.1687 121.575 44.1296 121.382 44.0542 121.203C43.9788 121.023 43.8688 120.86 43.7304 120.723L35.9731 113.031L43.3071 105.642C57.8101 116.176 78.228 114.86 91.2462 101.744ZM46.3706 94.4924C35.9979 84.2027 35.9314 67.4633 46.2224 57.0955C56.5135 46.7277 73.2644 46.6621 83.6371 56.9473C94.0098 67.2326 94.0755 83.9765 83.7844 94.3443C73.4934 104.712 56.7433 104.778 46.3706 94.4924Z" fill="url(#paint4_linear_1491_1233)"/>
<path d="M62.3431 56.809C62.3431 56.809 56.824 48.7573 59.7996 45.0167C62.21 41.9865 66.0882 40.8857 70.7705 54.0557C68.9041 55.8067 66.0145 57.21 62.3431 56.809Z" fill="url(#paint5_linear_1491_1233)"/>
<path d="M59.4573 31.7224C59.4573 31.7224 59.9836 43.9636 64.1449 45.539C64.3872 45.6277 64.6055 46.686 64.775 46.8944C66.3227 48.798 57.2378 51.4805 54.3819 50.8755C51.526 50.2705 58.6257 44.1224 55.39 35.4533C55.4264 35.6662 59.4573 31.7224 59.4573 31.7224Z" fill="url(#paint6_linear_1491_1233)"/>
<path d="M55.044 45.2392C55.044 45.2392 49.5497 53.4754 49.6029 56.8941C49.6491 59.8595 49.5319 60.8743 49.9162 62.5579C51.3787 68.9792 50.5374 76.7843 50.5374 76.7843C50.5374 76.7843 61.1089 79.8145 68.5716 75.3863C68.2087 74.1746 65.9608 71.3006 66.3255 68.3264C66.858 63.9648 68.8051 48.8114 62.1979 43.7632C57.4712 44.4906 55.044 45.2392 55.044 45.2392Z" fill="url(#paint7_linear_1491_1233)"/>
<path d="M52.3686 36.7388C54.5296 41.904 59.818 40.4306 60.5333 36.6873C60.6993 36.1734 60.8345 35.65 60.938 35.1199C61.2042 35.2361 61.5184 35.1891 61.6781 34.8538C61.8379 34.5185 61.987 34.2 62.1423 33.8727C62.2976 33.5454 62.4831 33.2181 62.4973 32.8526C62.5203 32.1953 61.9053 31.6569 61.2548 31.8565C61.1895 31.8766 61.1275 31.9065 61.0711 31.9452C60.5386 27.792 57.176 26.0694 56.8601 25.8734C52.2355 22.9922 50.2076 31.5744 52.3686 36.7388Z" fill="url(#paint8_linear_1491_1233)"/>
<path d="M86.0153 49.5149C84.9193 44.182 86.5114 47.1199 87.9473 44.8056C89.3832 42.4913 86.1005 38.3709 82.7565 37.9301C79.4125 37.4892 81.6134 35.52 81.3365 34.3819C81.0126 33.0354 77.4477 30.062 73.0556 29.8757C69.2555 29.7152 68.5961 26.889 66.2487 25.5824C60.3533 22.3003 52.2161 21.9943 50.8902 29.1865C50.6444 30.5171 51.3429 33.2101 56.1902 33.9118C57.5161 34.1034 57.9411 36.0788 57.1549 37.7775C55.9807 40.3118 55.9683 43.2976 60.7482 44.0019C66.5727 44.8597 62.1681 53.1589 73.4328 57.3032C77.4113 58.7668 76.1049 56.66 78.4026 55.8085C80.3257 55.0926 87.9864 59.1154 86.0153 49.5149Z" fill="#223265"/>
<path d="M55.6903 50.5351C52.7502 51.2979 53.3119 59.3009 47.8522 65.8863C46.6923 67.2861 42.0837 62.4126 37.9029 56.0294C37.9029 56.0294 38.5658 52.5451 38.5241 51.4434C38.5001 50.8367 37.7529 50.5493 37.4893 51.2341C37.1645 52.0776 37.0536 53.7923 36.8548 53.0286C36.3454 51.0717 35.1579 49.2329 34.8668 48.5854C34.645 48.0904 33.9119 48.2616 34.0415 48.8426C34.2447 49.758 34.9866 52.1468 34.9866 52.1468C34.9866 52.1468 33.9261 49.5221 33.3102 48.3325C32.9881 47.7072 31.979 47.8952 32.2728 48.8089C33.0715 51.266 33.4859 52.2213 33.5791 52.3917C33.4486 52.1575 32.1769 49.8831 31.6444 48.9641C31.3667 48.4842 30.7188 48.6022 30.8173 49.2302C31.1403 51.2917 32.3659 53.1749 32.3659 53.1749C32.3659 53.1749 31.5442 51.9464 31.064 51.5552C30.6407 51.2092 30.0186 51.4807 30.717 52.8529C32.0269 55.4253 32.7582 56.2184 34.3734 57.2261C34.5376 57.329 34.7186 57.7964 34.7186 57.7964C34.9272 58.4582 37.0615 66.2722 46.0782 72.3085C51.734 76.0962 59.8339 56.1643 60.2013 53.7923C60.7613 50.1217 58.0989 49.9106 55.6903 50.5351Z" fill="url(#paint9_linear_1491_1233)"/>
<path d="M51.5381 55.8625C51.5381 55.8625 53.0157 46.2141 57.7504 45.5169C61.5816 44.9518 65.1652 46.7969 59.5768 59.6094C57.0147 59.6094 53.9467 58.6602 51.5381 55.8625Z" fill="url(#paint10_linear_1491_1233)"/>
<path d="M103.754 0H79.1708C78.0481 0 77.1367 1.05114 77.1367 2.34623V13.5727C77.1367 14.8686 78.0481 15.9189 79.1708 15.9189H83.5256L87.5787 20.5936L91.6317 15.9189H103.758C104.882 15.9189 105.792 14.8686 105.792 13.5727V2.34445C105.788 1.05114 104.877 0 103.754 0Z" fill="url(#paint11_linear_1491_1233)"/>
<path d="M85.0383 8.223C85.0383 8.6334 84.9166 9.03457 84.6884 9.37579C84.4603 9.71701 84.1361 9.98295 83.7567 10.14C83.3774 10.297 82.9599 10.338 82.5572 10.2579C82.1545 10.1777 81.7847 9.98004 81.4944 9.68979C81.2041 9.39953 81.0065 9.02977 80.9265 8.62724C80.8465 8.22471 80.8877 7.80749 81.045 7.42839C81.2022 7.04928 81.4684 6.72532 81.8099 6.49745C82.1514 6.26957 82.5528 6.14802 82.9634 6.14819C83.236 6.14819 83.5059 6.20188 83.7577 6.30615C84.0095 6.41043 84.2382 6.56328 84.4309 6.75596C84.6236 6.94863 84.7764 7.17736 84.8806 7.42908C84.9848 7.6808 85.0384 7.95058 85.0383 8.223Z" fill="#D3F2E7"/>
<path d="M93.5354 8.223C93.5354 8.63336 93.4136 9.03451 93.1856 9.37571C92.9575 9.71691 92.6333 9.98284 92.254 10.1399C91.8747 10.2969 91.4573 10.338 91.0546 10.2579C90.652 10.1779 90.2821 9.98028 89.9918 9.69012C89.7015 9.39995 89.5038 9.03026 89.4237 8.62778C89.3436 8.22531 89.3847 7.80814 89.5418 7.42902C89.6989 7.0499 89.965 6.72586 90.3063 6.49788C90.6477 6.2699 91.0491 6.14819 91.4596 6.14819C91.7322 6.14819 92.0021 6.20186 92.254 6.30613C92.5058 6.4104 92.7347 6.56323 92.9274 6.75589C93.1202 6.94856 93.2731 7.17729 93.3774 7.42902C93.4817 7.68074 93.5354 7.95054 93.5354 8.223Z" fill="#D3F2E7"/>
<path d="M102.033 8.223C102.033 8.63336 101.912 9.03451 101.684 9.37571C101.455 9.71691 101.131 9.98284 100.752 10.1399C100.373 10.2969 99.9553 10.338 99.5526 10.2579C99.15 10.1779 98.7801 9.98028 98.4898 9.69012C98.1995 9.39995 98.0018 9.03026 97.9217 8.62778C97.8416 8.22531 97.8827 7.80814 98.0398 7.42902C98.197 7.0499 98.463 6.72586 98.8044 6.49788C99.1457 6.2699 99.5471 6.14819 99.9576 6.14819C100.508 6.14819 101.036 6.36679 101.425 6.75589C101.815 7.14499 102.033 7.67273 102.033 8.223Z" fill="#D3F2E7"/>

</svg>
