<svg width="108" height="83" viewBox="0 0 108 83" fill="none" xmlns="http://www.w3.org/2000/svg">
<path d="M53.7731 77.3302C69.7601 77.3302 82.7201 64.4227 82.7201 48.5006C82.7201 32.5784 69.7601 19.6709 53.7731 19.6709C37.7862 19.6709 24.8262 32.5784 24.8262 48.5006C24.8262 64.4227 37.7862 77.3302 53.7731 77.3302Z" fill="#2A9F67" stroke="white" stroke-width="3" stroke-miterlimit="10" stroke-linecap="round" stroke-linejoin="round"/>
<path d="M69.4681 37.5516C68.7588 36.816 67.6091 36.8162 66.9004 37.5519L50.6059 54.4537L43.0997 46.6688C42.3904 45.9334 41.2407 45.9331 40.532 46.6685C39.8227 47.4039 39.8227 48.5963 40.5318 49.3315L49.3221 58.4484C49.6627 58.8016 50.1244 59 50.6061 59C51.0877 59 51.5496 58.8016 51.8902 58.4484L69.4686 40.2146C70.1772 39.4794 70.1772 38.287 69.4681 37.5516Z" fill="#FCFFFA"/>
<path d="M85.4087 57.6369C86.4028 58.0361 87.397 58.4352 88.3828 58.7843C89.3686 59.1335 90.4045 59.4742 91.3903 59.8233C91.8831 59.9978 93.9381 60.5791 94.4726 60.6952C95.5001 60.9858 96.5191 61.2264 97.5466 61.517C97.6552 61.5502 97.7221 61.6419 97.6888 61.7505C97.6556 61.859 97.5554 61.8759 97.5053 61.8843C96.4446 61.7022 95.4255 61.4616 94.3981 61.171C93.8635 61.0549 93.3706 60.8804 92.8777 60.7058C92.3848 60.5313 91.8419 60.3651 91.349 60.1906C90.3632 59.8415 89.369 59.4423 88.3748 59.0431C87.3221 58.6023 86.3195 58.153 85.4087 57.6369C85.367 57.6954 85.3586 57.6453 85.4087 57.6369Z" fill="white"/>
<path d="M85.8478 61.4756C86.4244 61.842 87.0011 62.2084 87.5861 62.6248C88.1712 63.0413 88.7061 63.4662 89.2495 63.9412C89.7929 64.4161 90.3279 64.841 90.7795 65.3829C91.2728 65.8662 91.7244 66.4081 92.1343 67.0084C92.2012 67.1002 92.168 67.2087 92.0762 67.2756C91.9845 67.3425 91.9259 67.3009 91.8674 67.2592C91.3741 66.7759 90.9225 66.234 90.4292 65.7506C89.936 65.2672 89.4928 64.7754 88.9995 64.2921C88.5062 63.8087 87.9628 63.3337 87.4779 62.9004C86.876 62.3838 86.3411 61.959 85.8478 61.4756C85.8061 61.5341 85.7977 61.484 85.8478 61.4756C85.7977 61.484 85.7977 61.484 85.8478 61.4756Z" fill="white"/>
<path d="M89.2046 55.0941C90.3655 55.2593 91.5596 55.316 92.7454 55.3226C93.3132 55.3301 93.9227 55.2792 94.5406 55.2783C95.1585 55.2774 95.718 55.2348 96.3275 55.1839C96.4276 55.167 96.4946 55.2587 96.5114 55.3589C96.5282 55.459 96.4364 55.5259 96.3864 55.5343C95.7853 55.6354 95.1758 55.6863 94.6164 55.7289C94.0069 55.7798 93.4306 55.7222 92.8043 55.6731C91.5099 55.6332 90.3406 55.4179 89.2046 55.0941C89.1629 55.1525 89.1629 55.1525 89.2046 55.0941C89.1545 55.1025 89.1545 55.1025 89.2046 55.0941Z" fill="white"/>
<path d="M86.0533 52.5864C86.9634 52.4849 87.8149 52.3418 88.7081 52.1402C89.6013 51.9386 90.4361 51.6953 91.2539 51.3519C92.0802 51.0586 92.8897 50.6651 93.6991 50.2717C94.5086 49.8782 95.2511 49.393 96.0021 48.9579C96.0939 48.891 96.2025 48.9243 96.2694 49.016C96.3363 49.1077 96.303 49.2162 96.2029 49.2331C95.4771 49.8184 94.7262 50.2535 93.8751 50.7054C93.074 51.1489 92.1976 51.4507 91.3713 51.744C90.495 52.0458 89.6017 52.2474 88.7001 52.3989C87.8486 52.542 86.9385 52.6435 86.0533 52.5864C86.0117 52.6449 86.0117 52.6449 86.0533 52.5864C86.0032 52.5948 86.0032 52.5948 86.0533 52.5864Z" fill="white"/>
<path d="M97.7243 63.4948L99.1838 62.0655L98.8472 60.0629L100.652 60.995L102.446 60.0242L102.115 62.0362L103.595 63.4863L101.583 63.773L100.658 65.6273L99.7288 63.7757L97.7243 63.4948Z" fill="white"/>
<path d="M100.868 46.9561L99.7753 48.1178L100.086 49.6614L98.6825 48.9707L97.3141 49.7155L97.5208 48.1879L96.3671 47.1462L97.9115 46.8352L98.5527 45.4404L99.2976 46.8081L100.868 46.9561Z" fill="white"/>
<path d="M16.7612 57.3861C17.3698 57.2838 17.7803 56.7077 17.678 56.0994C17.5758 55.4911 16.9995 55.0809 16.3909 55.1832C15.7823 55.2855 15.3718 55.8616 15.474 56.4699C15.5763 57.0782 16.1525 57.4884 16.7612 57.3861Z" fill="white"/>
<path d="M41.3199 12.8975L38.2877 12.0172L35.8437 14.0239L35.7226 10.8525L33.015 9.14539L36.028 8.07267L36.8507 5L38.7661 7.50948L41.9723 7.27947L40.1554 9.95295L41.3199 12.8975Z" fill="white"/>
<path d="M13.4988 46.5572L12.2025 44.9733L10.1236 45.1683L11.2151 43.3889L10.386 41.5205L12.4241 42.0017L13.9505 40.664L14.0867 42.7004L15.8583 43.7411L13.9805 44.52L13.4988 46.5572Z" fill="white"/>
<path d="M22.308 20.5204L24.4707 20.5173L25.6709 18.7711L26.3165 20.7733L28.3798 21.4046L26.6362 22.6758L26.6807 24.779L24.9756 23.5212L22.9893 24.2669L23.6212 22.2045L22.308 20.5204Z" fill="white"/>
<path d="M22.0392 6.35695L23.3255 6.65555L24.3012 5.71934L24.4699 7.02948L25.6064 7.66215L24.413 8.22309L24.1642 9.50045L23.2778 8.51687L21.967 8.6857L22.6002 7.54967L22.0392 6.35695Z" fill="white"/>
<path d="M13.718 61.0379C12.925 61.2227 12.132 61.4074 11.3474 61.6423C10.5627 61.8771 9.83663 62.1536 9.06043 62.4385C8.33432 62.715 7.62504 63.0916 6.85726 63.4266C6.13956 63.7532 5.42186 64.0797 4.64566 64.3646C4.40363 64.4568 4.12793 64.3487 4.03576 64.1068C3.95201 63.9149 4.01853 63.6978 4.20206 63.564C4.8861 63.0372 5.58696 62.6105 6.35475 62.2755C7.12254 61.9406 7.95724 61.6973 8.75028 61.5125C9.54331 61.3278 10.3864 61.1346 11.1963 61.0499C12.0062 60.9653 12.8745 60.9223 13.6511 60.9462C13.7012 60.9378 13.7096 60.9878 13.7096 60.9878C13.7681 61.0295 13.7681 61.0295 13.718 61.0379Z" fill="white"/>
<path d="M15.8042 27.7912C15.2444 27.5249 14.6846 27.2587 14.1332 27.0425C13.5818 26.8263 13.0304 26.6101 12.4373 26.4523C11.8944 26.2862 11.3097 26.1785 10.7667 26.0124C10.2237 25.8463 9.63068 25.6885 9.07928 25.4723C8.80359 25.3642 8.703 25.0723 8.76953 24.8552C8.84446 24.6881 9.02799 24.5543 9.22835 24.5206C9.84627 24.5197 10.481 24.619 11.1242 24.7683C11.7172 24.926 12.3356 25.2339 12.8453 25.5086C13.4051 25.7749 13.9316 26.1497 14.4498 26.4744C14.9763 26.8493 15.4528 27.2325 15.8876 27.6742C15.896 27.7243 15.896 27.7243 15.9044 27.7744C15.8543 27.7828 15.8042 27.7912 15.8042 27.7912Z" fill="white"/>
<path d="M64.3975 17.5129C65.4097 18.9387 66.472 20.356 67.4758 21.7317C66.8475 20.1385 66.1691 18.5537 65.5408 16.9604C66.4929 17.1093 67.3949 17.2665 68.347 17.4154C67.4614 17.0494 66.6259 16.6751 65.7403 16.3091C67.1669 15.2971 68.5851 14.2351 70.0116 13.2231C68.3759 13.9099 66.7317 14.5466 65.0459 15.2418C65.1865 14.24 65.3773 13.2298 65.5179 12.228C65.1517 13.1133 64.7353 14.007 64.3775 14.9423C63.3737 13.5666 62.4284 12.2325 61.4245 10.8568C62.0529 12.4501 62.7313 14.0349 63.3512 15.5781C62.349 15.4377 61.3969 15.2888 60.3863 15.0983C61.3304 15.5059 62.216 15.8719 63.1601 16.2795C61.8337 17.2746 60.4488 18.2281 59.1224 19.2233C60.6664 18.6034 62.1603 17.9919 63.7042 17.3721C63.5468 18.2737 63.3977 19.2254 63.2903 20.1186C63.665 19.2834 64.0312 18.3982 64.3975 17.5129Z" fill="white"/>
<path d="M84.538 10.7815C82.4037 13.4054 80.5255 13.8755 77.3843 12.6531C77.1671 12.5867 77.0088 12.8707 77.1843 12.9956C79.809 15.1285 80.2791 17.0057 79.0557 20.1458C78.9892 20.3629 79.2733 20.521 79.3983 20.3456C81.5325 17.7217 83.4107 17.2516 86.552 18.4739C86.7692 18.5404 86.9275 18.2564 86.752 18.1314C84.1272 15.9986 83.6572 14.1213 84.8806 10.9813C84.9555 10.8143 84.663 10.606 84.538 10.7815Z" fill="white"/>
<path d="M85.7979 22.8736C84.5308 24.528 83.3955 24.8218 81.424 24.1235C81.3154 24.0903 81.1903 24.2658 81.3073 24.3491C82.9623 25.6153 83.2561 26.75 82.5572 28.7208C82.5239 28.8293 82.6994 28.9542 82.7828 28.8373C84.0499 27.1828 85.1851 26.8891 87.1567 27.5873C87.2653 27.6205 87.3903 27.4451 87.2733 27.3618C85.6183 26.0955 85.3246 24.9609 86.0234 22.9901C86.0567 22.8815 85.8812 22.7566 85.7979 22.8736Z" fill="white"/>
</svg>
