<svg width="23" height="19" viewBox="0 0 23 19" fill="none" xmlns="http://www.w3.org/2000/svg">
<path d="M16.9149 3.18555C16.9622 3.06506 16.9734 2.92779 16.9295 2.7951C16.4234 1.27018 15.0621 0.246094 13.5424 0.246094C12.0227 0.246094 10.6613 1.27018 10.1553 2.7951C10.1113 2.92779 10.1226 3.06506 10.1698 3.18555H5.81201V13.9005C5.81201 14.8041 6.50248 15.5391 7.35124 15.5391H19.7335C20.5822 15.5391 21.2727 14.8041 21.2727 13.9005V3.18555H16.9149ZM11.1083 3.18555C11.1122 3.17568 11.1199 3.16909 11.1233 3.1589C11.4845 2.07025 12.4566 1.33845 13.5424 1.33845C14.6281 1.33845 15.6002 2.07025 15.9614 3.15886C15.9652 3.17015 15.9762 3.17473 15.9806 3.18551H11.1083V3.18555Z" fill="#C0DED3"/>
<path d="M20.7594 2.43115H6.32487C5.47611 2.43115 4.78564 3.16616 4.78564 4.06968V7.34674C4.78564 7.60596 4.95701 7.82946 5.19549 7.88171C5.40195 7.92708 10.3214 8.98528 13.5421 8.98528C16.7629 8.98528 21.6823 7.92704 21.8888 7.88171C22.1273 7.82946 22.2986 7.60596 22.2986 7.34674V4.06968C22.2986 3.16616 21.6082 2.43115 20.7594 2.43115ZM14.5683 6.80057H12.516C12.2324 6.80057 12.0029 6.55628 12.0029 6.25439C12.0029 5.9525 12.2324 5.70821 12.516 5.70821H14.5683C14.8519 5.70821 15.0814 5.9525 15.0814 6.25439C15.0814 6.55628 14.8519 6.80057 14.5683 6.80057Z" fill="#73BBA1"/>
<rect x="11.2144" y="5.64258" width="4.5" height="1.28572" rx="0.642858" fill="white"/>
<path d="M20.511 17.0466L18.8628 15.4208C18.417 15.697 17.8901 15.8573 17.3247 15.8573C15.7249 15.8573 14.4282 14.578 14.4282 12.9999C14.4282 11.4218 15.7249 10.1426 17.3247 10.1426C18.9245 10.1426 20.2211 11.4218 20.2211 12.9999C20.2211 13.607 20.0287 14.1692 19.7018 14.6319L21.3303 16.2383C21.4433 16.35 21.4997 16.4963 21.4997 16.6425C21.4997 16.7888 21.4433 16.9349 21.3303 17.0467C21.104 17.2698 20.7373 17.2698 20.511 17.0466ZM19.2827 12.9999C19.2827 11.9333 18.4061 11.0685 17.3248 11.0685C16.2435 11.0685 15.3669 11.9333 15.3669 12.9999C15.3669 14.0666 16.2435 14.9313 17.3248 14.9313C18.4061 14.9313 19.2827 14.0666 19.2827 12.9999Z" fill="#73BBA1"/>
<path d="M0.871582 11.0878C0.871582 9.99139 1.76043 9.10254 2.85688 9.10254H8.52915C9.62559 9.10254 10.5144 9.99139 10.5144 11.0878V16.7601C10.5144 17.8566 9.6256 18.7454 8.52915 18.7454H2.85688C1.76043 18.7454 0.871582 17.8566 0.871582 16.7601V11.0878Z" fill="#73BBA1"/>
<path d="M5.7613 16.7103C4.90825 16.7103 4.27841 16.4885 3.87178 16.045C3.468 15.6014 3.26611 14.9118 3.26611 13.9763C3.26611 12.1763 4.11064 11.2764 5.79969 11.2764C6.03002 11.2764 6.27172 11.2991 6.52479 11.3446C6.78071 11.3901 6.99397 11.4541 7.16458 11.5365C7.33519 11.6162 7.4205 11.7057 7.4205 11.8053C7.4205 11.8764 7.39206 11.9702 7.33519 12.0868C7.27832 12.2005 7.2115 12.3015 7.13472 12.3896C7.05795 12.4778 6.9897 12.5218 6.92999 12.5218C6.91293 12.5218 6.8717 12.5076 6.8063 12.4792C6.66412 12.4223 6.51484 12.3754 6.35844 12.3384C6.20205 12.2986 6.00869 12.2787 5.77836 12.2787C5.33193 12.2787 5.00066 12.4209 4.78455 12.7052C4.57129 12.9867 4.46466 13.4133 4.46466 13.9848C4.46466 14.5564 4.57271 14.9872 4.78882 15.2772C5.00493 15.5672 5.32909 15.7123 5.7613 15.7123C5.98025 15.7123 6.17788 15.6938 6.35418 15.6568V14.6971H5.68453C5.60491 14.6971 5.54662 14.6673 5.50965 14.6076C5.47553 14.5478 5.45847 14.4512 5.45847 14.3175V14.0744C5.45847 13.9436 5.47553 13.8483 5.50965 13.7886C5.54662 13.7289 5.60491 13.6991 5.68453 13.6991H7.2243C7.33235 13.6991 7.41055 13.7232 7.45889 13.7716C7.50723 13.8171 7.5314 13.8924 7.5314 13.9976V16.1089C7.5314 16.3364 7.34088 16.4942 6.95985 16.5824C6.57882 16.6677 6.1793 16.7103 5.7613 16.7103Z" fill="white"/>
</svg>
