<svg width="28" height="25" viewBox="0 0 28 25" fill="none" xmlns="http://www.w3.org/2000/svg">
<path d="M20.9645 3.84119C21.0263 3.68374 21.041 3.50436 20.9835 3.33097C20.3222 1.33824 18.5432 0 16.5573 0C14.5715 0 12.7925 1.33824 12.1312 3.33097C12.0738 3.50436 12.0885 3.68374 12.1502 3.84119H6.45557V17.8432C6.45557 19.0239 7.35784 19.9844 8.46698 19.9844H24.6477C25.7569 19.9844 26.6591 19.0239 26.6591 17.8432V3.84119H20.9645ZM13.3766 3.84119C13.3817 3.8283 13.3918 3.81969 13.3962 3.80636C13.8683 2.38376 15.1385 1.42746 16.5573 1.42746C17.9762 1.42746 19.2464 2.38376 19.7185 3.80631C19.7235 3.82107 19.7378 3.82706 19.7435 3.84114H13.3766V3.84119Z" fill="#DDE6F0"/>
<path d="M25.9883 2.85547H7.12567C6.01653 2.85547 5.11426 3.81596 5.11426 4.99665V9.27902C5.11426 9.61776 5.3382 9.90981 5.64983 9.97809C5.91963 10.0374 12.3482 11.4202 16.557 11.4202C20.7658 11.4202 27.1943 10.0373 27.4641 9.97809C27.7758 9.90981 27.9997 9.61776 27.9997 9.27902V4.99665C27.9997 3.81596 27.0974 2.85547 25.9883 2.85547ZM17.8979 8.56529H15.216C14.8454 8.56529 14.5456 8.24607 14.5456 7.85156C14.5456 7.45706 14.8454 7.13784 15.216 7.13784H17.8979C18.2685 7.13784 18.5684 7.45706 18.5684 7.85156C18.5684 8.24607 18.2685 8.56529 17.8979 8.56529Z" fill="#A9B3C2"/>
<rect x="13.5151" y="7.05176" width="5.88048" height="1.68013" rx="0.840066" fill="white"/>
<path d="M26.8752 20.755L26.8753 20.7551C27.0625 20.9399 27.1561 21.183 27.1561 21.4255C27.1561 21.6683 27.0624 21.911 26.8754 22.096L26.8752 22.0963C26.5015 22.4645 25.8972 22.4645 25.5236 22.096L23.4796 20.0797C22.8963 20.4101 22.2208 20.5995 21.5003 20.5995C19.3019 20.5995 17.5153 18.8407 17.5153 16.6655C17.5153 14.4903 19.3019 12.7316 21.5003 12.7316C23.6988 12.7316 25.4852 14.4902 25.4852 16.6655C25.4852 17.4409 25.2572 18.1635 24.8653 18.7724L26.8752 20.755ZM23.859 16.6655C23.859 15.3847 22.8056 14.3416 21.5005 14.3416C20.1953 14.3416 19.1419 15.3847 19.1419 16.6655C19.1419 17.9464 20.1953 18.9894 21.5005 18.9894C22.8056 18.9894 23.859 17.9464 23.859 16.6655Z" fill="#A9B3C2" stroke="#A9B3C2" stroke-width="0.4"/>
<path d="M0 14.1676C0 12.7348 1.16152 11.5732 2.59432 11.5732H10.0067C11.4395 11.5732 12.601 12.7348 12.601 14.1676V21.5799C12.601 23.0127 11.4395 24.1742 10.0067 24.1742H2.59432C1.16152 24.1742 0 23.0127 0 21.5799V14.1676Z" fill="#A9B3C2"/>
<path d="M6.38906 21.5141C5.27431 21.5141 4.45125 21.2242 3.91989 20.6445C3.39224 20.0649 3.12842 19.1638 3.12842 17.9413C3.12842 15.5891 4.23202 14.4131 6.43922 14.4131C6.74021 14.4131 7.05605 14.4428 7.38676 14.5023C7.72118 14.5617 7.99987 14.6453 8.22282 14.7531C8.44577 14.8571 8.55725 14.9742 8.55725 15.1042C8.55725 15.1971 8.52009 15.3198 8.44577 15.4721C8.37146 15.6207 8.28413 15.7526 8.18381 15.8678C8.08348 15.983 7.9943 16.0406 7.91627 16.0406C7.89397 16.0406 7.84009 16.022 7.75463 15.9849C7.56884 15.9106 7.37375 15.8493 7.16938 15.801C6.96501 15.7489 6.71234 15.7229 6.41135 15.7229C5.82797 15.7229 5.39507 15.9087 5.11267 16.2803C4.83398 16.6482 4.69464 17.2055 4.69464 17.9524C4.69464 18.6993 4.83584 19.2623 5.11825 19.6413C5.40065 20.0203 5.82425 20.2098 6.38906 20.2098C6.67518 20.2098 6.93343 20.1856 7.16381 20.1373V18.8832H6.28873C6.18469 18.8832 6.10851 18.8442 6.06021 18.7662C6.01562 18.6882 5.99332 18.5618 5.99332 18.3872V18.0695C5.99332 17.8985 6.01562 17.7741 6.06021 17.696C6.10851 17.618 6.18469 17.579 6.28873 17.579H8.30085C8.44206 17.579 8.54424 17.6106 8.60741 17.6737C8.67058 17.7332 8.70216 17.8317 8.70216 17.9691V20.7282C8.70216 21.0254 8.4532 21.2317 7.95528 21.3468C7.45736 21.4583 6.93529 21.5141 6.38906 21.5141Z" fill="white"/>
</svg>
