<svg width="67" height="64" viewBox="0 0 67 64" fill="none" xmlns="http://www.w3.org/2000/svg">
<g clip-path="url(#clip0_4799_1001)">
<path d="M39.5154 7.11328V93.8754C39.5154 94.4485 39.2848 94.9659 38.8924 95.2853C38.5949 95.5273 38.2186 95.6825 37.8046 95.6655L36.86 95.631C35.905 95.5964 35.0439 94.7157 35.0439 93.7116V7.26018L39.5154 7.11328Z" fill="#C58731"/>
<path d="M7.19454 10.2149L7.53815 10.3932L14.0431 6.37988L45.8997 11.117L50.3553 11.63L50.0925 12.4668C50.0581 12.5566 44.9874 16.2727 44.9874 16.2727L48.9328 21.483L48.7431 22.0188C48.7328 22.049 48.7125 22.0746 48.6856 22.0914C48.6587 22.1082 48.6268 22.1152 48.5953 22.1111L44.4988 21.4727L12.6243 16.5057C12.5345 16.4915 12.4519 16.4479 12.3893 16.3816L7.26326 10.9826C7.22974 10.9467 7.20389 10.9043 7.18728 10.858C7.17067 10.8117 7.16367 10.7624 7.16671 10.7133L7.19454 10.2149Z" fill="#9C6722"/>
<path d="M14.4029 6.02823L50.356 11.6305C50.3636 11.632 50.3705 11.6357 50.376 11.6411C50.3815 11.6465 50.3853 11.6535 50.3869 11.661C50.3886 11.6686 50.388 11.6765 50.3853 11.6837C50.3825 11.6909 50.3777 11.6972 50.3715 11.7017L45.3052 15.4299C45.272 15.4548 45.2493 15.4914 45.2416 15.5323C45.2339 15.5733 45.2417 15.6157 45.2636 15.6511L48.8864 21.4082C48.8904 21.4145 48.8926 21.4218 48.8927 21.4293C48.8928 21.4368 48.8908 21.4442 48.887 21.4506C48.8831 21.457 48.8775 21.4621 48.8708 21.4655C48.8642 21.4688 48.8567 21.4702 48.8493 21.4694L12.8755 15.8633C12.7723 15.8472 12.677 15.7979 12.6041 15.7227L7.24366 10.2614C7.23838 10.2558 7.23441 10.2492 7.23203 10.2419C7.22965 10.2345 7.22893 10.2268 7.22992 10.2192C7.23091 10.2115 7.23359 10.2042 7.23775 10.1978C7.24191 10.1913 7.24745 10.1859 7.25397 10.1819L14.0782 6.09252C14.1756 6.03344 14.2905 6.01069 14.4029 6.02823Z" fill="url(#paint0_linear_4799_1001)"/>
<path d="M10.3213 44.0342L10.6859 44.1241L15.9116 38.8239L47.0623 35.955L51.2201 35.4327C51.2404 35.4302 51.261 35.4321 51.2804 35.4384C51.2999 35.4448 51.3177 35.4553 51.3327 35.4693C51.3477 35.4833 51.3594 35.5004 51.3671 35.5195C51.3747 35.5386 51.3782 35.5591 51.3771 35.5796L51.341 36.2633C51.328 36.3567 47.3771 41.0464 47.3771 41.0464L52.2891 45.067L52.232 45.618C52.2295 45.649 52.2164 45.6781 52.1948 45.7003C52.1732 45.7225 52.1445 45.7364 52.1138 45.7397L48.1011 46.0812L16.8812 48.7385C16.7932 48.7457 16.7052 48.7233 16.6311 48.6749L10.5615 44.7456C10.5216 44.7193 10.4876 44.6851 10.4613 44.6451C10.4351 44.6051 10.4173 44.5601 10.4089 44.5129L10.3213 44.0342Z" fill="#9C6722"/>
<path d="M16.172 38.4067L51.2823 35.4182C51.2982 35.417 51.3142 35.4205 51.3281 35.4284C51.3421 35.4362 51.3535 35.448 51.3608 35.4624C51.3681 35.4767 51.3711 35.4928 51.3694 35.5088C51.3676 35.5248 51.3612 35.5399 51.351 35.5523L47.4853 40.1719C47.4599 40.2034 47.4469 40.2433 47.4489 40.2838C47.451 40.3243 47.4678 40.3627 47.4963 40.3914L52.2306 45.0069C52.2358 45.0119 52.2394 45.0184 52.241 45.0255C52.2426 45.0325 52.2422 45.0399 52.2398 45.0467C52.2373 45.0536 52.233 45.0596 52.2273 45.064C52.2216 45.0685 52.2148 45.0712 52.2076 45.0718L16.9709 48.0707C16.8698 48.0795 16.7686 48.0552 16.6823 48.0016L10.3759 44.0681C10.3696 44.0641 10.3642 44.0587 10.3602 44.0524C10.3562 44.046 10.3537 44.0388 10.3528 44.0313C10.352 44.0238 10.3529 44.0162 10.3554 44.0091C10.3579 44.002 10.362 43.9956 10.3673 43.9903L15.8806 38.5436C15.9588 38.465 16.0619 38.4166 16.172 38.4067Z" fill="url(#paint1_linear_4799_1001)"/>
<path opacity="0.56" d="M36.9346 39.4664L17.3646 41.0053C17.2921 41.011 17.238 41.0747 17.2437 41.1476L17.3141 42.0546C17.3198 42.1275 17.3831 42.1819 17.4556 42.1763L37.0256 40.6373C37.0981 40.6316 37.1522 40.5679 37.1465 40.495L37.0761 39.588C37.0704 39.5151 37.0071 39.4607 36.9346 39.4664Z" fill="white"/>
<path opacity="0.56" d="M37.0389 43.7457L17.6246 45.2721C17.5898 45.2747 17.5554 45.2633 17.5289 45.2405C17.5024 45.2178 17.4859 45.1854 17.483 45.1504L17.4174 44.3043C17.416 44.2869 17.4181 44.2695 17.4234 44.2529C17.4288 44.2364 17.4373 44.2211 17.4485 44.2078C17.4598 44.1946 17.4735 44.1838 17.4889 44.1759C17.5043 44.168 17.5211 44.1632 17.5384 44.1619L36.9526 42.6351C36.9874 42.6325 37.0219 42.6439 37.0484 42.6668C37.0749 42.6896 37.0914 42.7221 37.0942 42.7571L37.1601 43.6033C37.1626 43.6383 37.1513 43.6729 37.1286 43.6995C37.1059 43.7262 37.0736 43.7428 37.0389 43.7457Z" fill="white"/>
<path d="M66.9996 26.333L66.6217 26.4844L60.0634 22.2139L25.9338 24.8481L21.1816 25.1208L21.3754 25.8688C21.4057 25.9579 26.4743 29.8821 26.4743 29.8821L21.8654 34.6721L22.0221 35.201C22.032 35.232 22.0523 35.2587 22.0794 35.2766C22.1066 35.2945 22.139 35.3024 22.1713 35.2991L26.5623 34.9324L60.7297 32.0773C60.8245 32.07 60.9149 32.0339 60.9888 31.9736L66.8646 27.073C66.9022 27.0421 66.9328 27.0034 66.9543 26.9596C66.9759 26.9158 66.9878 26.8678 66.9893 26.819L66.9996 26.333Z" fill="#233667"/>
<path d="M59.7126 21.8517L21.2535 25.0663C21.2393 25.067 21.2257 25.0722 21.2145 25.0811C21.2034 25.09 21.1952 25.1021 21.1912 25.1159C21.1873 25.1296 21.1876 25.1442 21.1922 25.1577C21.1968 25.1713 21.2055 25.183 21.217 25.1914L26.208 29.0485C26.2242 29.0608 26.2376 29.0763 26.2477 29.094C26.2577 29.1117 26.2641 29.1312 26.2665 29.1514C26.2688 29.1716 26.2671 29.1921 26.2615 29.2117C26.2558 29.2312 26.2463 29.2494 26.2335 29.2652L21.9225 34.6017C21.9176 34.6077 21.9147 34.615 21.914 34.6226C21.9133 34.6303 21.9149 34.638 21.9186 34.6448C21.9223 34.6515 21.9279 34.657 21.9347 34.6606C21.9415 34.6641 21.9492 34.6655 21.9568 34.6646L60.5204 31.4424C60.6298 31.4336 60.734 31.3921 60.8197 31.3232L66.9491 26.3749C66.955 26.3701 66.9596 26.364 66.9627 26.3571C66.9657 26.3501 66.9671 26.3426 66.9667 26.335C66.9662 26.3274 66.964 26.3201 66.9602 26.3136C66.9563 26.307 66.951 26.3015 66.9447 26.2975L60.0507 21.9329C59.9497 21.8698 59.8311 21.8413 59.7126 21.8517Z" fill="url(#paint2_linear_4799_1001)"/>
<path opacity="0.56" d="M59.4791 24.3235L40.3064 25.8664C40.2337 25.8722 40.1795 25.9362 40.1853 26.0093L40.2606 26.9554C40.2664 27.0285 40.33 27.083 40.4027 27.0772L59.5754 25.5343C59.6481 25.5284 59.7023 25.4644 59.6965 25.3913L59.6212 24.4453C59.6154 24.3721 59.5518 24.3176 59.4791 24.3235Z" fill="white"/>
<path opacity="0.56" d="M59.1143 27.6744L40.1527 29.1655C40.0802 29.1712 40.0261 29.2349 40.0317 29.3078L40.1002 30.1886C40.1059 30.2614 40.1692 30.3159 40.2417 30.3102L59.2032 28.8191C59.2757 28.8134 59.3299 28.7497 59.3242 28.6768L59.2557 27.796C59.2501 27.7231 59.1867 27.6687 59.1143 27.6744Z" fill="white"/>
<path d="M37.3651 15.4354C37.8277 15.4354 38.2028 15.0581 38.2028 14.5927C38.2028 14.1273 37.8277 13.75 37.3651 13.75C36.9024 13.75 36.5273 14.1273 36.5273 14.5927C36.5273 15.0581 36.9024 15.4354 37.3651 15.4354Z" fill="#C07F2C"/>
<path d="M41.6872 41.6397C42.2208 41.103 42.2208 40.2329 41.6872 39.6962C41.1537 39.1595 40.2887 39.1595 39.7551 39.6962C39.2216 40.2329 39.2216 41.103 39.7551 41.6397C40.2887 42.1764 41.1537 42.1764 41.6872 41.6397Z" fill="#E3B750"/>
<path opacity="0.56" d="M33.3547 11.5392L15.8634 8.76185C15.7916 8.75045 15.7242 8.79976 15.7129 8.87198L15.5804 9.71631C15.5691 9.78853 15.6181 9.85632 15.6899 9.86772L33.1812 12.645C33.253 12.6564 33.3203 12.6071 33.3317 12.5349L33.4642 11.6906C33.4755 11.6183 33.4265 11.5506 33.3547 11.5392Z" fill="white"/>
<path opacity="0.56" d="M32.6865 14.4828L15.3351 11.7277C15.2633 11.7163 15.1959 11.7656 15.1846 11.8378L15.061 12.6251C15.0497 12.6973 15.0987 12.7651 15.1705 12.7765L32.522 15.5316C32.5937 15.543 32.6611 15.4937 32.6725 15.4215L32.796 14.6342C32.8073 14.562 32.7583 14.4942 32.6865 14.4828Z" fill="white"/>
</g>
<defs>
<linearGradient id="paint0_linear_4799_1001" x1="45.506" y1="16.692" x2="10.3389" y2="18.3745" gradientUnits="userSpaceOnUse">
<stop stop-color="#E8BE55"/>
<stop offset="1" stop-color="#BE7C2A"/>
</linearGradient>
<linearGradient id="paint1_linear_4799_1001" x1="10.5795" y1="44.7333" x2="48.8167" y2="30.3407" gradientUnits="userSpaceOnUse">
<stop stop-color="#E8BE55"/>
<stop offset="1" stop-color="#BE7C2A"/>
</linearGradient>
<linearGradient id="paint2_linear_4799_1001" x1="27.3713" y1="28.0424" x2="68.3608" y2="26.4903" gradientUnits="userSpaceOnUse">
<stop stop-color="#5B84B2"/>
<stop offset="1" stop-color="#23315F"/>
</linearGradient>
<clipPath id="clip0_4799_1001">
<rect width="67" height="64" fill="white"/>
</clipPath>
</defs>
</svg>
