<svg width="21" height="21" viewBox="0 0 21 21" fill="none" xmlns="http://www.w3.org/2000/svg">
<path d="M10.5 21C16.299 21 21 16.299 21 10.5C21 4.70101 16.299 0 10.5 0C4.70101 0 0 4.70101 0 10.5C0 16.299 4.70101 21 10.5 21Z" fill="#3CA780"/>
<path fill-rule="evenodd" clip-rule="evenodd" d="M7.22136 15.6209L3.38117 11.5107C2.85542 10.948 2.8856 10.0578 3.4483 9.53202C4.011 9.00627 4.90127 9.03653 5.42701 9.59915L8.38917 12.7695L13.0779 8.38867C13.12 8.34924 13.1641 8.31311 13.2097 8.27987L15.4146 6.2198C15.9773 5.69406 16.8676 5.72432 17.3933 6.28702C17.919 6.84964 17.8888 7.73999 17.3262 8.26573L10.5918 14.5579L10.5846 14.5502L8.25507 16.7267L7.22136 15.6204V15.6209Z" fill="white"/>
</svg>
