<svg width="32" height="32" viewBox="0 0 32 32" fill="none" xmlns="http://www.w3.org/2000/svg">
<rect opacity="0.25" x="0.5" y="0.5" width="30.9874" height="30.9874" rx="15.4937" stroke="#414B5B"/>
<g clip-path="url(#clip0_511_990)">
<path fill-rule="evenodd" clip-rule="evenodd" d="M10.7747 11.7549C10.7747 11.4949 10.8779 11.2455 11.0618 11.0617C11.2457 10.8778 11.495 10.7745 11.755 10.7745H21.5278C21.6567 10.7743 21.7843 10.7995 21.9034 10.8487C22.0225 10.8979 22.1308 10.9701 22.2219 11.0611C22.3131 11.1522 22.3854 11.2604 22.4347 11.3794C22.484 11.4985 22.5094 11.6261 22.5093 11.7549V21.5277C22.5094 21.6566 22.4842 21.7842 22.4349 21.9033C22.3857 22.0224 22.3134 22.1307 22.2223 22.2218C22.1312 22.313 22.023 22.3853 21.904 22.4346C21.7849 22.4839 21.6573 22.5092 21.5284 22.5092H11.755C11.6262 22.5092 11.4987 22.4838 11.3797 22.4345C11.2608 22.3852 11.1527 22.3129 11.0616 22.2218C10.9706 22.1307 10.8984 22.0226 10.8491 21.9036C10.7999 21.7846 10.7746 21.657 10.7747 21.5282V11.7549ZM15.4194 15.2486H17.0084V16.0466C17.2378 15.5879 17.8245 15.175 18.7062 15.175C20.3965 15.175 20.7971 16.0887 20.7971 17.7652V20.8706H19.0865V18.1471C19.0865 17.1923 18.8571 16.6536 18.2747 16.6536C17.4666 16.6536 17.1306 17.2344 17.1306 18.1471V20.8706H15.4194V15.2486ZM12.4858 20.7975H14.1969V15.175H12.4858V20.797V20.7975ZM14.4417 13.3412C14.445 13.4877 14.4189 13.6334 14.365 13.7697C14.3112 13.906 14.2307 14.0302 14.1282 14.1349C14.0257 14.2397 13.9034 14.3229 13.7683 14.3797C13.6332 14.4366 13.4882 14.4658 13.3416 14.4658C13.1951 14.4658 13.05 14.4366 12.9149 14.3797C12.7798 14.3229 12.6575 14.2397 12.555 14.1349C12.4525 14.0302 12.372 13.906 12.3182 13.7697C12.2643 13.6334 12.2383 13.4877 12.2415 13.3412C12.2478 13.0536 12.3665 12.78 12.5721 12.5788C12.7778 12.3777 13.054 12.2651 13.3416 12.2651C13.6293 12.2651 13.9055 12.3777 14.1111 12.5788C14.3167 12.78 14.4354 13.0536 14.4417 13.3412V13.3412Z" fill="#414B5B"/>
</g>
<defs>
<clipPath id="clip0_511_990">
<rect width="12.8014" height="12.8014" fill="white" transform="translate(10.2412 10.2411)"/>
</clipPath>
</defs>
</svg>
