<svg width="22" height="26" viewBox="0 0 22 26" fill="none" xmlns="http://www.w3.org/2000/svg">
<path fill-rule="evenodd" clip-rule="evenodd" d="M11 1.7785C8.56313 1.7785 6.22607 2.72877 4.50294 4.42027C2.77981 6.11176 1.81176 8.40591 1.81176 10.798C1.81176 14.294 4.12308 17.6554 6.61057 20.2329C7.83579 21.5024 9.06409 22.541 9.98709 23.2625C10.3947 23.5811 10.7414 23.8368 11 24.0221C11.2586 23.8368 11.6053 23.5811 12.0129 23.2625C12.9359 22.541 14.1642 21.5024 15.3894 20.2329C17.8769 17.6554 20.1882 14.294 20.1882 10.798C20.1882 8.40591 19.2202 6.11176 17.4971 4.42027C15.7739 2.72877 13.4369 1.7785 11 1.7785ZM11 25.1108C10.4975 25.8507 10.4973 25.8505 10.497 25.8503L10.4963 25.8498L10.4941 25.8484L10.487 25.8437L10.4621 25.8272C10.4408 25.813 10.4101 25.7924 10.3709 25.7657C10.2923 25.7123 10.179 25.6342 10.0359 25.5327C9.74977 25.3299 9.34403 25.0333 8.8585 24.6538C7.88885 23.8959 6.59362 22.8013 5.29531 21.456C2.73574 18.8039 0 15.0089 0 10.798C6.17083e-08 7.93423 1.15893 5.1877 3.22183 3.16267C5.28473 1.13765 8.08262 0 11 0C13.9174 0 16.7153 1.13765 18.7782 3.16267C20.8411 5.1877 22 7.93423 22 10.798C22 15.0089 19.2643 18.8039 16.7047 21.456C15.4064 22.8013 14.1111 23.8959 13.1415 24.6538C12.656 25.0333 12.2502 25.3299 11.9641 25.5327C11.821 25.6342 11.7077 25.7123 11.6291 25.7657C11.5899 25.7924 11.5593 25.813 11.5379 25.8272L11.513 25.8437L11.5059 25.8484L11.5037 25.8498L11.503 25.8503C11.5027 25.8505 11.5025 25.8507 11 25.1108ZM11 25.1108L11.5025 25.8507C11.1982 26.0498 10.8018 26.0498 10.4975 25.8507L11 25.1108Z" fill="#C1C9D2"/>
<path fill-rule="evenodd" clip-rule="evenodd" d="M11.5 7.90909C10.0691 7.90909 8.90909 9.06908 8.90909 10.5C8.90909 11.9309 10.0691 13.0909 11.5 13.0909C12.9309 13.0909 14.0909 11.9309 14.0909 10.5C14.0909 9.06908 12.9309 7.90909 11.5 7.90909ZM7 10.5C7 8.01472 9.01472 6 11.5 6C13.9853 6 16 8.01472 16 10.5C16 12.9853 13.9853 15 11.5 15C9.01472 15 7 12.9853 7 10.5Z" fill="#C1C9D2"/>
</svg>
