<svg width="125" height="124" viewBox="0 0 125 124" fill="none" xmlns="http://www.w3.org/2000/svg">
<g clip-path="url(#clip0_1491_1250)">
</g>
<defs>
<linearGradient id="paint0_linear_1491_1250" x1="61.6977" y1="21.7794" x2="61.2282" y2="124.232" gradientUnits="userSpaceOnUse">
<stop stop-color="#FFF7E7"/>
<stop offset="1" stop-color="#F8E6D7"/>
</linearGradient>
<linearGradient id="paint1_linear_1491_1250" x1="71.5075" y1="100.822" x2="45.3714" y2="95.5079" gradientUnits="userSpaceOnUse">
<stop stop-color="#2F5B91"/>
<stop offset="1" stop-color="#00264C"/>
</linearGradient>
<linearGradient id="paint2_linear_1491_1250" x1="65475.5" y1="41580.6" x2="59686.9" y2="40078.3" gradientUnits="userSpaceOnUse">
<stop stop-color="#2F5B91"/>
<stop offset="1" stop-color="#00264C"/>
</linearGradient>
<linearGradient id="paint3_linear_1491_1250" x1="58.1967" y1="26.2745" x2="58.1997" y2="116.735" gradientUnits="userSpaceOnUse">
<stop stop-color="#B1822C"/>
<stop offset="0.01" stop-color="#AF812C"/>
<stop offset="0.28" stop-color="#906A26"/>
<stop offset="0.54" stop-color="#795A21"/>
<stop offset="0.79" stop-color="#6B501F"/>
<stop offset="1" stop-color="#664D1E"/>
</linearGradient>
<linearGradient id="paint4_linear_1491_1250" x1="100.901" y1="68.0484" x2="14.9703" y2="76.4281" gradientUnits="userSpaceOnUse">
<stop stop-color="#E8BE55"/>
<stop offset="1" stop-color="#BE7C2A"/>
</linearGradient>
<linearGradient id="paint5_linear_1491_1250" x1="86.8301" y1="68.054" x2="-36.8969" y2="48.1309" gradientUnits="userSpaceOnUse">
<stop stop-color="#FBD4DA"/>
<stop offset="1" stop-color="#EDB0BA"/>
</linearGradient>
<linearGradient id="paint6_linear_1491_1250" x1="74.1455" y1="64.7568" x2="58.9434" y2="67.0765" gradientUnits="userSpaceOnUse">
<stop stop-color="#AFCAEA"/>
<stop offset="1" stop-color="#73A5D8"/>
</linearGradient>
<linearGradient id="paint7_linear_1491_1250" x1="46.5792" y1="47.7676" x2="55.0972" y2="46.7389" gradientUnits="userSpaceOnUse">
<stop stop-color="#DDBCC2"/>
<stop offset="1" stop-color="#D9A2AB"/>
</linearGradient>
<linearGradient id="paint8_linear_1491_1250" x1="118580" y1="54580.3" x2="109349" y2="55695.2" gradientUnits="userSpaceOnUse">
<stop stop-color="#AFCAEA"/>
<stop offset="1" stop-color="#73A5D8"/>
</linearGradient>
<linearGradient id="paint9_linear_1491_1250" x1="43928.5" y1="47243.8" x2="45486.7" y2="47225.9" gradientUnits="userSpaceOnUse">
<stop stop-color="#2F5B91"/>
<stop offset="1" stop-color="#00264C"/>
</linearGradient>
<linearGradient id="paint10_linear_1491_1250" x1="50073.5" y1="1884.88" x2="52014.5" y2="1650.48" gradientUnits="userSpaceOnUse">
<stop stop-color="#AFCAEA"/>
<stop offset="1" stop-color="#73A5D8"/>
</linearGradient>
<linearGradient id="paint11_linear_1491_1250" x1="43082.6" y1="11897.6" x2="44139.5" y2="11590.5" gradientUnits="userSpaceOnUse">
<stop stop-color="#FBD4DA"/>
<stop offset="1" stop-color="#EDB0BA"/>
</linearGradient>
<linearGradient id="paint12_linear_1491_1250" x1="8203.28" y1="1907.31" x2="8165.59" y2="1918.26" gradientUnits="userSpaceOnUse">
<stop stop-color="#FBD4DA"/>
<stop offset="1" stop-color="#EDB0BA"/>
</linearGradient>
<linearGradient id="paint13_linear_1491_1250" x1="9593.09" y1="12016.3" x2="9985.93" y2="11976.3" gradientUnits="userSpaceOnUse">
<stop stop-color="#AFCAEA"/>
<stop offset="1" stop-color="#73A5D8"/>
</linearGradient>
<linearGradient id="paint14_linear_1491_1250" x1="-8799.45" y1="6013.63" x2="-3570.82" y2="3832.68" gradientUnits="userSpaceOnUse">
<stop stop-color="#2F5B91"/>
<stop offset="1" stop-color="#00264C"/>
</linearGradient>
<linearGradient id="paint15_linear_1491_1250" x1="21486.8" y1="-28782.9" x2="27643.4" y2="-31316.4" gradientUnits="userSpaceOnUse">
<stop stop-color="#FBD4DA"/>
<stop offset="1" stop-color="#EDB0BA"/>
</linearGradient>
<linearGradient id="paint16_linear_1491_1250" x1="-2144.08" y1="1026.05" x2="-5155.07" y2="4920.09" gradientUnits="userSpaceOnUse">
<stop stop-color="#AFCAEA"/>
<stop offset="1" stop-color="#73A5D8"/>
</linearGradient>
<linearGradient id="paint17_linear_1491_1250" x1="13871.5" y1="8415.19" x2="13728" y2="8657.78" gradientUnits="userSpaceOnUse">
<stop stop-color="#AFCAEA"/>
<stop offset="1" stop-color="#73A5D8"/>
</linearGradient>
<linearGradient id="paint18_linear_1491_1250" x1="44.2496" y1="9.45876" x2="16.0005" y2="13.5864" gradientUnits="userSpaceOnUse">
<stop stop-color="#E8BE55"/>
<stop offset="1" stop-color="#BE7C2A"/>
</linearGradient>
<clipPath id="clip0_1491_1250">
<rect width="125" height="124" fill="white"/>
</clipPath>
</defs>
<path d="M114.985 68.2787C110.688 66.8161 105.632 64.6339 104.557 59.3828C103.656 54.9716 106.118 50.6832 106.573 46.1907C107.036 41.6229 105.203 36.7991 102.029 34.2328C98.855 31.6665 94.4918 31.4788 91.211 33.7683C87.2468 36.5362 84.9201 42.4333 80.5026 43.8717C77.5648 44.8284 74.384 43.4799 71.8848 41.3262C69.3857 39.1725 67.4139 36.2715 65.2732 33.617C61.3142 28.7084 56.602 24.4996 51.1987 22.4938C45.7953 20.488 39.6422 20.9006 34.9292 24.6086C33.2177 25.9562 31.7492 27.7769 30.6401 29.8683C28.7718 33.3904 24.8662 34.3418 21.9939 31.9546C21.4927 31.5376 20.9688 31.149 20.4246 30.7903C17.3549 28.7655 13.2486 27.9914 10.6055 30.7116C8.82163 32.547 8.13996 35.5942 8.29939 38.4382C8.45882 41.2821 9.34731 43.9911 10.2539 46.6292C12.2403 52.4096 14.3904 58.2194 15.0583 64.415C15.7262 70.6106 14.6714 77.4073 11.0157 81.7649C7.8392 85.5508 2.93311 87.3118 0.915686 92.1321C-0.440752 95.3731 -0.129658 99.3112 0.800201 102.791C2.67801 109.815 7.02223 115.839 12.5161 119.037C18.2779 122.39 24.8731 122.618 31.2416 122.782C51.7218 123.312 56.2108 104.513 72.4674 110.815C75.718 112.075 92.2141 127.941 103.161 123.074C106.468 121.603 109.452 118.257 109.832 114C110.238 109.478 107.721 105.04 108.312 100.55C109.011 95.2416 113.551 92.2792 117.44 89.7267C121.329 87.1743 125.564 83.0399 124.938 77.704C124.311 72.3526 119.282 69.7413 114.985 68.2787Z" fill="url(#paint0_linear_1491_1250)"/>
<path d="M62.4223 93.7538C62.4955 96.372 62.5585 100.299 62.412 106.441H45.4289C45.1462 101.251 45.1437 97.1392 45.5642 94.8583C51.5966 78.4045 59.8628 87.9388 62.455 90.6391C62.4033 90.7637 62.3559 91.4011 62.4223 93.7538Z" fill="url(#paint1_linear_1491_1250)"/>
<path d="M57.1238 106.662H39.5263C38.1207 97.903 40.426 93.5809 40.9999 91.1711C47.9321 74.8903 55.2244 87.7425 57.5952 90.4904C57.5952 90.4904 57.8804 91.089 57.7865 95.1023C57.7287 97.5466 57.5667 101.169 57.1238 106.662Z" fill="url(#paint2_linear_1491_1250)"/>
<path d="M95.8712 26.2709L88.5185 26.9931L73.1728 28.4998C72.7107 28.5453 72.2855 28.7732 71.9907 29.1332C71.696 29.4933 71.5558 29.9562 71.6009 30.42L72.3205 37.7997C72.3661 38.2634 72.5931 38.69 72.9518 38.9858C73.3106 39.2816 73.7716 39.4225 74.2337 39.3773L80.173 38.7935L71.2105 49.7437C64.5269 45.6162 56.6789 43.8028 48.8698 44.5817C29.0696 46.5261 14.59 64.2159 16.5273 84.0845C18.4646 103.953 36.0854 118.489 55.8847 116.545C75.684 114.601 90.1645 96.9108 88.2272 77.043C87.507 69.549 84.4634 62.4703 79.525 56.8034L88.5909 45.7321L89.1717 51.6933C89.1941 51.923 89.2613 52.146 89.3695 52.3496C89.4778 52.5532 89.6249 52.7334 89.8026 52.88C89.9803 53.0265 90.185 53.1364 90.405 53.2035C90.625 53.2706 90.856 53.2935 91.0849 53.2709L98.4375 52.5487C98.6663 52.5263 98.8885 52.4588 99.0913 52.3503C99.2941 52.2417 99.4736 52.094 99.6196 51.9158C99.7655 51.7376 99.8751 51.5322 99.942 51.3115C100.009 51.0908 100.032 50.859 100.009 50.6294L98.5013 35.2291L97.7817 27.8494C97.7368 27.3858 97.5103 26.9591 97.1521 26.6631C96.7938 26.3671 96.3331 26.226 95.8712 26.2709ZM54.885 106.314C40.7148 107.706 28.1044 97.3052 26.7178 83.0829C25.3312 68.8607 35.6941 56.2048 49.8643 54.814C64.0345 53.4232 76.6449 63.8232 78.0315 78.0446C79.4181 92.266 69.0544 104.924 54.885 106.315V106.314Z" fill="url(#paint3_linear_1491_1250)"/>
<path d="M94.9678 25.4449L87.6152 26.1671L72.2695 27.6738C71.8073 27.7193 71.3821 27.9472 71.0874 28.3073C70.7926 28.6673 70.6524 29.1302 70.6976 29.594L71.4172 36.9737C71.4393 37.2042 71.5065 37.428 71.6151 37.6324C71.7237 37.8367 71.8715 38.0174 72.0499 38.1642C72.2284 38.311 72.434 38.4209 72.6549 38.4876C72.8758 38.5544 73.1077 38.5766 73.3372 38.5531L79.2766 37.9701L70.3141 48.9194C63.6302 44.7917 55.7818 42.9786 47.9725 43.7583C28.1732 45.7019 13.6936 63.3882 15.6308 83.2603C17.5681 103.132 35.1889 117.666 54.9882 115.722C74.7876 113.777 89.268 96.0874 87.3307 76.2188C86.6113 68.7251 83.5687 61.6464 78.6311 55.9791L87.6927 44.9078L88.2735 50.869C88.2959 51.0987 88.3631 51.3218 88.4713 51.5254C88.5796 51.729 88.7268 51.9092 88.9044 52.0557C89.0821 52.2022 89.2868 52.3122 89.5068 52.3793C89.7268 52.4463 89.9579 52.4693 90.1867 52.4467L97.5394 51.7253C98.0014 51.6796 98.4265 51.4517 98.7212 51.0917C99.0159 50.7316 99.1562 50.2689 99.1113 49.8052L97.6032 34.4014L96.8836 27.0208C96.8609 26.7911 96.7934 26.5681 96.6849 26.3645C96.5763 26.161 96.4289 25.9809 96.251 25.8345C96.0731 25.6882 95.8682 25.5784 95.648 25.5116C95.4279 25.4447 95.1967 25.4221 94.9678 25.4449ZM53.9817 105.488C39.814 106.884 27.2037 96.4792 25.8171 82.2578C24.4305 68.0364 34.7933 55.3788 48.9635 53.9871C63.1338 52.5955 75.7442 62.9964 77.129 77.2161C78.5139 91.4357 68.1536 104.098 53.9843 105.488H53.9817Z" fill="url(#paint4_linear_1491_1250)"/>
<path d="M63.2409 59.6024C66.177 59.8887 66.8552 67.681 73.0928 73.1907C74.4182 74.3627 78.091 68.9672 81.1366 62.1817C81.1366 62.1817 79.9706 58.9269 79.8439 57.857C79.7741 57.2697 80.4471 56.8787 80.8048 57.498C81.2443 58.2609 81.6114 59.8948 81.6855 59.1293C81.8769 57.1668 82.736 55.2146 82.9161 54.5451C83.054 54.0348 83.7831 54.0876 83.7477 54.6671C83.6917 55.5796 83.3427 57.9936 83.3427 57.9936C83.3427 57.9936 83.9615 55.3037 84.3708 54.0607C84.5845 53.4094 85.5833 53.4363 85.4386 54.3617C85.0482 56.8493 84.7931 57.8336 84.7302 58.0109C84.8164 57.7662 85.6937 55.3815 86.0642 54.4154C86.2581 53.9111 86.8975 53.9258 86.8984 54.5477C86.8984 56.5812 86.0125 58.5818 86.0125 58.5818C86.0125 58.5818 86.6158 57.2731 87.0148 56.8242C87.3689 56.4264 88.0067 56.5924 87.5456 58.0205C86.6838 60.7018 86.0961 61.5736 84.7018 62.7898C84.5604 62.9143 84.4579 63.3952 84.4579 63.3952C84.3579 64.0638 83.4979 71.9149 75.7694 79.1035C70.9202 83.6133 60.1187 65.6545 59.4086 63.4246C58.3133 59.977 60.8417 59.368 63.2409 59.6024Z" fill="url(#paint5_linear_1491_1250)"/>
<path d="M57.7766 53.3487C57.7766 53.3487 62.3087 48.2828 64.988 56.0707C65.5826 57.8006 70.1035 70.7151 75.007 72.8169C75.3146 73.4414 73.1809 79.3714 72.1528 79.4527C71.5202 79.6326 62.9378 78.2738 58.984 64.7227C56.9148 63.0698 57.7766 53.3487 57.7766 53.3487Z" fill="url(#paint6_linear_1491_1250)"/>
<path d="M49.5523 39.9768L47.7158 53.0841C47.7158 53.0841 52.6926 57.1736 55.1065 57.158C57.9124 57.139 54.6971 41.7776 54.6971 41.7776L49.5523 39.9768Z" fill="url(#paint7_linear_1491_1250)"/>
<path d="M63.7169 52.9812C62.338 50.5741 55.7092 48.3019 55.7739 49.1547C55.7937 49.4142 55.7738 50.7609 53.41 51.65C50.112 52.8938 48.1928 49.9522 48.1928 49.9522C44.8138 49.819 41.8949 53.0729 40.5807 55.4056C37.5412 60.8012 37.4154 69.4653 39.8215 91.5663C40.155 94.6256 56.3254 94.9171 62.444 91.8613C67.6328 71.664 65.6903 56.4237 63.7169 52.9812Z" fill="url(#paint8_linear_1491_1250)"/>
<path d="M52.0871 50.8059C51.8286 51.196 49.7129 53.3687 49.7129 53.3687L53.2514 55.5536C53.2514 55.5536 58.7193 71.3959 57.8059 85.0853C59.4105 86.7175 60.1327 88.1663 60.1327 88.1663L61.4719 83.954C61.4719 83.954 61.7545 69.9229 54.9706 55.0043C54.9551 55.0156 55.6868 52.2737 55.6868 52.2737L52.0871 50.8059Z" fill="url(#paint9_linear_1491_1250)"/>
<path d="M45.0762 50.3856C45.0762 50.3856 46.0974 52.8127 49.9478 54.9698C50.4717 54.2415 52.9459 51.5049 52.9459 51.5049L56.2483 53.6984C56.2483 53.6984 58.3475 51.9789 58.0451 49.4031C57.366 49.0389 55.8191 48.8599 55.8191 48.8599C55.8191 48.8599 52.9657 52.1415 47.7882 49.5302C46.5257 49.6245 45.0762 50.3856 45.0762 50.3856Z" fill="url(#paint10_linear_1491_1250)"/>
<path d="M52.0914 29.7635C51.7173 30.0792 46.4898 33.7751 50.0084 40.9931C51.2434 44.5964 56.6665 45.3014 58.0635 39.8808C59.4604 34.4602 56.2417 26.2527 52.0914 29.7635Z" fill="url(#paint11_linear_1491_1250)"/>
<path d="M49.2448 31.8931C49.2448 31.8931 50.5805 24.5714 58.5459 26.1136C58.8909 26.1727 59.2073 26.343 59.4473 26.5988C60.3091 27.5762 58.9768 28.7395 57.7737 28.9748C59.5395 28.7205 61.239 30.2791 58.6355 31.3966C59.4533 31.7841 59.3327 33.5858 57.9582 34.0295C57.9832 33.8929 57.4075 31.7539 55.8037 31.4027C54.8411 31.1916 52.1731 30.8837 51.2717 31.7746C49.3335 33.6835 48.8052 36.9124 48.8052 36.9124C48.8052 36.9124 48.4321 33.8712 49.2448 31.8931Z" fill="#223265"/>
<path d="M49.5022 35.0822C49.5022 35.0822 47.5486 33.6118 47.802 35.7344C48.0036 37.4219 49.6117 37.2515 49.6117 37.2515L49.5022 35.0822Z" fill="url(#paint12_linear_1491_1250)"/>
<path d="M55.9337 39.1992C55.8625 39.1271 55.7776 39.07 55.6841 39.0314C55.5905 38.9927 55.4902 38.9733 55.389 38.9744C55.2468 38.9744 55.0909 38.9744 54.9961 38.9683C54.8812 38.9608 54.7663 38.9804 54.6604 39.0254C54.5544 39.0705 54.4604 39.1398 54.3859 39.2278C53.3871 40.3773 51.6196 41.6124 50.0443 38.6076C49.3032 37.0697 48.868 37.1969 48.868 37.1969C48.868 37.1969 47.0582 46.0271 53.5216 48.4256C57.4857 49.896 62.3798 44.7435 58.2613 38.5557C57.7201 40.3505 56.6851 39.9526 55.9337 39.1992Z" fill="#223265"/>
<path d="M72.4758 71.1277C72.4758 71.1277 71.3779 78.7314 71.4693 79.4675C71.5141 79.8273 72.5103 80.1854 73.5763 79.9294C74.3752 79.7382 74.9173 80.3411 75.5007 79.5834C76.0841 78.8257 75.8704 73.3056 75.5231 72.4044C75.1758 71.5031 74.4217 71.8249 74.4217 71.8249C74.4217 71.8249 73.4281 70.1235 72.4758 71.1277Z" fill="url(#paint13_linear_1491_1250)"/>
<path d="M62.5251 93.3507V91.6926C62.5251 91.6926 51.2229 95.0659 39.9965 92.1588C39.9629 92.625 39.9629 93.5583 39.9629 93.5583C39.9629 93.5583 49.944 96.4758 62.5251 93.3507Z" fill="url(#paint14_linear_1491_1250)"/>
<path d="M44.1317 77.2205C42.6365 81.0773 42.3289 94.4233 42.5116 98.0725C42.5116 98.0725 42.9907 99.6424 43.4888 100.171C43.7267 100.424 43.7853 100.894 43.8499 101.828C43.9361 103.126 43.7034 104.271 42.403 104.288C41.8092 104.297 40.2365 104.029 39.5117 103.612C38.1631 102.844 38.0467 100.937 38.0743 100.039C38.0829 99.7375 38.9309 97.8278 38.9309 97.8278C35.6518 83.3832 36.9117 74.22 36.9117 74.22C36.9117 74.22 45.8406 69.1575 44.1317 77.2205Z" fill="url(#paint15_linear_1491_1250)"/>
<path d="M48.365 64.2419C47.4222 66.3074 44.9032 73.0349 43.1995 84.9764C42.5402 85.382 36.656 84.505 36.656 84.505C36.656 84.505 34.087 73.3152 41.544 54.084C43.9613 50.4513 51.0865 53.3151 49.3328 61.4032C49.1125 62.3815 48.788 63.3332 48.365 64.2419Z" fill="url(#paint16_linear_1491_1250)"/>
<path d="M43.547 82.7309C43.547 82.7309 37.1621 82.6626 36.6019 82.2388C36.0418 81.8149 35.6979 82.9048 36.2891 83.7654C36.8802 84.626 36.0848 85.3439 36.7829 85.9217C37.4809 86.4995 42.5671 86.5557 43.3944 86.2737C44.2217 85.9918 43.4039 84.7782 43.4039 84.7782C43.4039 84.7782 44.4682 83.6625 43.547 82.7309Z" fill="url(#paint17_linear_1491_1250)"/>
<path d="M17.8063 0H41.6818C42.7728 0 43.657 1.02409 43.657 2.28778V13.2345C43.657 14.4973 42.7728 15.5214 41.6818 15.5214H37.4531L33.5173 20.0797L29.5816 15.5214H17.8063C16.7161 15.5214 15.8311 14.4973 15.8311 13.2345V2.28778C15.8311 1.02409 16.7187 0 17.8063 0Z" fill="url(#paint18_linear_1491_1250)"/>
<path d="M35.9805 8.02053C35.9803 8.4207 36.0984 8.81193 36.3198 9.14474C36.5412 9.47755 36.8559 9.73699 37.2242 9.89025C37.5925 10.0435 37.9978 10.0837 38.3889 10.0057C38.78 9.92776 39.1392 9.73515 39.4212 9.45225C39.7032 9.16935 39.8952 8.80887 39.9731 8.4164C40.0509 8.02393 40.0111 7.61711 39.8585 7.24739C39.706 6.87766 39.4477 6.56165 39.1162 6.33931C38.7847 6.11697 38.3949 5.99829 37.9962 5.99829C37.4617 5.99829 36.9492 6.21132 36.5712 6.59054C36.1932 6.96976 35.9807 7.48412 35.9805 8.02053Z" fill="#FEEDD8"/>
<path d="M27.7285 8.02053C27.7283 8.4207 27.8464 8.81193 28.0678 9.14474C28.2892 9.47755 28.6039 9.73699 28.9722 9.89025C29.3406 10.0435 29.7459 10.0837 30.1369 10.0057C30.528 9.92776 30.8872 9.73515 31.1692 9.45225C31.4512 9.16935 31.6433 8.80887 31.7211 8.4164C31.799 8.02393 31.7591 7.61711 31.6066 7.24739C31.454 6.87766 31.1957 6.56165 30.8642 6.33931C30.5327 6.11697 30.1429 5.99829 29.7442 5.99829C29.2098 5.99829 28.6972 6.21132 28.3192 6.59054C27.9412 6.96976 27.7287 7.48412 27.7285 8.02053Z" fill="#FEEDD8"/>
<path d="M19.4766 8.02053C19.4766 8.42049 19.5947 8.81147 19.8161 9.14402C20.0375 9.47658 20.3522 9.73578 20.7204 9.88883C21.0885 10.0419 21.4936 10.0819 21.8845 10.0039C22.2753 9.92588 22.6343 9.73328 22.9161 9.45047C23.1979 9.16765 23.3898 8.80732 23.4675 8.41505C23.5453 8.02277 23.5054 7.61617 23.3529 7.24665C23.2004 6.87714 22.9421 6.56131 22.6108 6.3391C22.2794 6.11689 21.8899 5.99829 21.4914 5.99829C20.957 5.99829 20.4446 6.21135 20.0667 6.59059C19.6888 6.96983 19.4766 7.4842 19.4766 8.02053Z" fill="#FEEDD8"/>

</svg>
