<svg width="108" height="83" viewBox="0 0 108 83" fill="none" xmlns="http://www.w3.org/2000/svg">
<g clip-path="url(#clip0_5616_689)">
<path d="M50.7499 46.6528C50.66 46.118 51.031 45.5974 51.5661 45.5075C52.1011 45.4175 52.6219 45.7882 52.7118 46.323C52.8017 46.8578 52.4307 47.3785 51.8957 47.4684C51.3606 47.5583 50.8398 47.1876 50.7499 46.6528Z" fill="white"/>
<path d="M21.6927 68.2631C21.5653 67.5055 22.0847 66.7766 22.8427 66.6492C23.6007 66.5218 24.3298 67.0408 24.4571 67.7985C24.5845 68.5561 24.0651 69.2849 23.3071 69.4123C22.5491 69.5397 21.82 69.0207 21.6927 68.2631Z" fill="white"/>
<path d="M22.3594 49.3167C22.9012 49.2256 23.2666 48.7128 23.1756 48.1714C23.0845 47.6299 22.5716 47.2647 22.0298 47.3558C21.4881 47.4468 21.1227 47.9596 21.2137 48.5011C21.3047 49.0426 21.8176 49.4078 22.3594 49.3167Z" fill="white"/>
<path d="M33.2724 73.3281C33.8142 73.237 34.1796 72.7243 34.0886 72.1828C33.9975 71.6413 33.4846 71.2761 32.9428 71.3672C32.4011 71.4582 32.0357 71.971 32.1267 72.5125C32.2177 73.054 32.7307 73.4192 33.2724 73.3281Z" fill="white"/>
<path d="M39.5048 47.3972C39.3775 46.6396 39.8968 45.9108 40.6548 45.7833C41.4128 45.6559 42.1419 46.175 42.2693 46.9326C42.3966 47.6902 41.8772 48.4191 41.1192 48.5465C40.3612 48.6739 39.6321 48.1549 39.5048 47.3972Z" fill="white"/>
<path d="M66.2127 65.546C66.0854 64.7884 66.6047 64.0596 67.3627 63.9322C68.1207 63.8047 68.8498 64.3238 68.9772 65.0814C69.1045 65.839 68.5851 66.5679 67.8271 66.6953C67.0691 66.8227 66.34 66.3037 66.2127 65.546Z" fill="white"/>
<path d="M19.6506 52.5674C18.9446 52.7318 18.2387 52.8963 17.5403 53.1054C16.8419 53.3144 16.1955 53.5605 15.5046 53.8141C14.8582 54.0602 14.2268 54.3955 13.5434 54.6937C12.9045 54.9844 12.2657 55.275 11.5747 55.5286C11.3593 55.6107 11.1139 55.5145 11.0318 55.2991C10.9573 55.1283 11.0165 54.9351 11.1799 54.816C11.7888 54.347 12.4126 53.9672 13.0961 53.669C13.7795 53.3709 14.5226 53.1543 15.2285 52.9898C15.9344 52.8254 16.6849 52.6534 17.4058 52.5781C18.1267 52.5027 18.8997 52.4644 19.591 52.4857C19.6356 52.4782 19.6431 52.5228 19.6431 52.5228C19.6952 52.5599 19.6951 52.5599 19.6506 52.5674Z" fill="white"/>
<path d="M21.5076 22.9726C21.0093 22.7356 20.5109 22.4986 20.0201 22.3061C19.5293 22.1137 19.0385 21.9212 18.5105 21.7808C18.0272 21.633 17.5068 21.5371 17.0234 21.3892C16.5401 21.2413 16.0122 21.1009 15.5213 20.9085C15.2759 20.8123 15.1864 20.5524 15.2456 20.3591C15.3123 20.2104 15.4757 20.0913 15.654 20.0613C16.2041 20.0605 16.7691 20.1489 17.3416 20.2818C17.8695 20.4222 18.4199 20.6963 18.8737 20.9408C19.372 21.1778 19.8407 21.5114 20.3019 21.8005C20.7706 22.1342 21.1948 22.4753 21.5818 22.8685C21.5893 22.9131 21.5893 22.9131 21.5968 22.9577C21.5522 22.9651 21.5076 22.9726 21.5076 22.9726Z" fill="white"/>
<path d="M64.7631 13.8234C65.6642 15.0925 66.6098 16.3542 67.5033 17.5788C66.944 16.1605 66.3401 14.7498 65.7808 13.3316C66.6283 13.4641 67.4313 13.6041 68.2788 13.7366C67.4905 13.4108 66.7468 13.0776 65.9585 12.7518C67.2283 11.851 68.4907 10.9056 69.7606 10.0048C68.3045 10.6161 66.8409 11.1829 65.3403 11.8017C65.4655 10.91 65.6353 10.0108 65.7605 9.11902C65.4345 9.90703 65.0638 10.7025 64.7453 11.5351C63.8518 10.3105 63.0103 9.12302 62.1167 7.89844C62.6761 9.31667 63.2799 10.7274 63.8318 12.1011C62.9396 11.9761 62.0921 11.8436 61.1925 11.674C62.0329 12.0368 62.8212 12.3626 63.6616 12.7254C62.4809 13.6113 61.2482 14.46 60.0675 15.3459C61.4418 14.7941 62.7716 14.2498 64.146 13.698C64.0058 14.5006 63.8731 15.3478 63.7775 16.1429C64.1111 15.3994 64.4371 14.6114 64.7631 13.8234Z" fill="white"/>
<g filter="url(#filter0_d_5616_689)">
<path d="M54.5993 72.0011C70.5852 72.0011 83.5443 59.0945 83.5443 43.1734C83.5443 27.2523 70.5852 14.3457 54.5993 14.3457C38.6134 14.3457 25.6543 27.2523 25.6543 43.1734C25.6543 59.0945 38.6134 72.0011 54.5993 72.0011Z" fill="#DF9609" stroke="white" stroke-width="3" stroke-miterlimit="10" stroke-linecap="round" stroke-linejoin="round"/>
<path d="M53.6598 46.7295L53.6708 46.742L53.6826 46.7538C53.9471 47.0183 54.2808 47.1548 54.6543 47.1548C55.0278 47.1548 55.3615 47.0183 55.626 46.7538C55.9104 46.4695 56.0328 46.082 56.0621 45.6722L56.0622 45.6722L56.0627 45.6631L56.935 29.1984C56.9912 28.5297 56.8159 27.9345 56.3468 27.4948C55.8993 27.0509 55.3181 26.8457 54.6543 26.8457C53.9905 26.8457 53.4093 27.0509 52.9618 27.4948C52.4927 27.9345 52.3174 28.5297 52.3736 29.1984L53.2459 45.6631L53.2458 45.6631L53.2467 45.675C53.2773 46.0728 53.4042 46.4374 53.6598 46.7295ZM52.8826 55.1538L52.8883 55.1595L52.8941 55.165C53.3838 55.6241 53.9949 55.8457 54.6907 55.8457C55.3685 55.8457 55.9603 55.6196 56.426 55.1538C56.9179 54.6619 57.1543 54.0328 57.1543 53.3093C57.1543 52.5887 56.9198 51.9616 56.4317 51.4706C55.9693 50.9804 55.3761 50.7366 54.6907 50.7366C53.9852 50.7366 53.3703 50.9771 52.8826 51.4649C52.3907 51.9568 52.1543 52.5859 52.1543 53.3093C52.1543 54.0328 52.3907 54.6619 52.8826 55.1538Z" fill="white" stroke="white"/>
</g>
<path d="M34.9792 10.7009L34.9791 10.7007C34.8221 10.2374 35.0706 9.73448 35.5339 9.57772C35.534 9.5777 35.5341 9.57768 35.5341 9.57766L38.3085 8.63852L37.3693 5.86417C37.3693 5.86411 37.3693 5.86405 37.3693 5.86398C37.2123 5.40074 37.4608 4.89797 37.9241 4.74123L34.9792 10.7009ZM34.9792 10.7009C35.0576 10.932 35.2231 11.1103 35.4255 11.2104C35.6281 11.3105 35.8704 11.3336 36.1019 11.2552L38.8764 10.316M34.9792 10.7009L38.8764 10.316M40.554 9.74822L41.4931 12.5224C41.4931 12.5225 41.4931 12.5225 41.4931 12.5226C41.65 12.9858 41.4016 13.4886 40.9383 13.6454L40.554 9.74822ZM40.554 9.74822L43.3282 8.80904C43.3283 8.80902 43.3283 8.809 43.3284 8.80897C43.7917 8.65223 44.0402 8.14947 43.8833 7.68623L40.554 9.74822ZM38.8764 10.316L39.8155 13.0905C39.8939 13.322 40.0595 13.5004 40.262 13.6005C40.4644 13.7006 40.7067 13.7237 40.9381 13.6454L38.8764 10.316ZM39.0468 5.29608C38.89 4.83278 38.3876 4.58444 37.9243 4.74116L43.8832 7.68603C43.7263 7.22279 43.2238 6.97453 42.7605 7.13137L42.9192 7.59998L42.7605 7.13137L39.9861 8.07062L39.0469 5.29609C39.0469 5.29608 39.0468 5.29608 39.0468 5.29608Z" fill="white" stroke="white"/>
<path d="M64.9109 73.3164L64.9109 73.3162C65.0621 72.9209 65.5053 72.7231 65.9005 72.8745C65.9005 72.8745 65.9006 72.8745 65.9007 72.8746L67.6443 73.5422L68.3119 71.7985C68.3119 71.7985 68.312 71.7984 68.312 71.7983C68.4632 71.4031 68.9063 71.2054 69.3014 71.3568L64.9109 73.3164ZM64.9109 73.3164C64.8355 73.5136 64.8473 73.7239 64.9269 73.9022C65.0065 74.0806 65.1552 74.2299 65.3526 74.3055L67.0965 74.9732M64.9109 73.3164L67.0965 74.9732M67.0965 74.9732L66.4288 76.7169C66.3532 76.9143 66.365 77.1247 66.4446 77.3031C66.5242 77.4815 66.6728 77.6307 66.8701 77.7063L67.0965 74.9732ZM69.743 72.3462C69.8943 71.9511 69.6967 71.5082 69.3016 71.3568L66.8703 77.7064C67.2655 77.8578 67.7086 77.66 67.8598 77.2648C67.8598 77.2648 67.8599 77.2647 67.8599 77.2646L68.5274 75.5211L70.271 76.1886C70.2711 76.1887 70.2712 76.1887 70.2712 76.1887C70.6664 76.3401 71.1094 76.1423 71.2607 75.7472C71.412 75.3519 71.2144 74.909 70.8191 74.7577L69.0753 74.0901L69.743 72.3462C69.743 72.3462 69.743 72.3462 69.743 72.3462Z" fill="white" stroke="white"/>
<path d="M18.9218 38.3325L18.9216 38.3324C18.5551 38.121 18.4295 37.6524 18.6411 37.286C18.6411 37.2859 18.6412 37.2859 18.6412 37.2858L19.5737 35.6707L17.9586 34.7382C17.9585 34.7382 17.9585 34.7381 17.9584 34.7381C17.592 34.5267 17.4665 34.0581 17.678 33.6918L18.9218 38.3325ZM18.9218 38.3325C19.1046 38.4378 19.3141 38.4593 19.5026 38.4088C19.6913 38.3582 19.8621 38.2348 19.9677 38.0518L20.9003 36.4366M18.9218 38.3325L20.9003 36.4366M20.9003 36.4366L22.5155 37.3692C22.6985 37.4748 22.9081 37.4963 23.0968 37.4457C23.2853 37.3952 23.4561 37.2719 23.5617 37.089L20.9003 36.4366ZM21.6663 35.11L23.2813 36.0424C23.2814 36.0425 23.2814 36.0425 23.2815 36.0425C23.6478 36.254 23.7734 36.7225 23.5618 37.0888L21.6663 35.11ZM21.6663 35.11L22.5987 33.4949C22.5987 33.4948 22.5988 33.4948 22.5988 33.4947C22.8103 33.1284 22.6848 32.6599 22.3184 32.4484L21.6663 35.11ZM18.7243 33.4115C18.358 33.2 17.8897 33.3254 17.6782 33.6916L22.3183 32.4483C21.9519 32.2369 21.4837 32.3624 21.2722 32.7288L20.3396 34.3441L18.7243 33.4115C18.7243 33.4115 18.7243 33.4115 18.7243 33.4115Z" fill="white" stroke="white"/>
<path d="M27.1419 6.355L26.0321 6.12745C26.0321 6.12745 26.0321 6.12745 26.0321 6.12745C25.8774 6.09574 25.7496 6.00374 25.6693 5.88196C25.589 5.7602 25.5547 5.60663 25.5863 5.45217L25.5863 5.452C25.6497 5.14223 25.9523 4.94257 26.262 5.00611C26.262 5.00612 26.2621 5.00613 26.2621 5.00614L27.3718 5.23367L27.5993 4.12401C27.5993 4.12396 27.5993 4.12391 27.5993 4.12385C27.6628 3.81418 27.9653 3.61459 28.275 3.67812L27.1419 6.355ZM27.1419 6.355L26.9143 7.46477C26.8826 7.61944 26.9169 7.77314 26.9972 7.89493C27.0776 8.01672 27.2054 8.10871 27.3601 8.14042M27.1419 6.355L30.0487 6.36674M27.3601 8.14042C27.36 8.14041 27.36 8.1404 27.3599 8.14039L27.4404 7.74857L27.3601 8.14042ZM27.3601 8.14042C27.6697 8.20395 27.9723 8.00436 28.0357 7.69469L27.698 7.62546L27.6439 7.61435L27.698 7.62543M27.698 7.62543L28.0357 7.69453L28.2632 6.58494L29.3729 6.81243L29.4422 6.47478M27.698 7.62543L27.6981 7.6252C27.6981 7.62528 27.6981 7.62536 27.698 7.62543ZM29.4422 6.47478L29.4534 6.42061M29.4422 6.47478C29.3866 6.46337 29.3399 6.43251 29.3077 6.39075L29.4534 6.42061M29.4422 6.47478L29.6568 6.28639M29.4534 6.42061L29.4423 6.47479L29.373 6.81246C29.6827 6.87599 29.9852 6.67641 30.0487 6.36674M29.4534 6.42061C29.4534 6.42062 29.4534 6.42062 29.4534 6.42062C29.5466 6.43977 29.6377 6.37965 29.6568 6.28639M30.0487 6.36674L29.6568 6.28639M30.0487 6.36674L29.6568 6.28639M29.6568 6.28639L30.0487 6.36657C30.1121 6.05692 29.9126 5.75457 29.6029 5.69109L29.5337 6.02877L29.6029 5.69109L28.4932 5.46357L28.7207 4.35377C28.7207 4.35377 28.7207 4.35376 28.7207 4.35376C28.7842 4.04411 28.5848 3.74172 28.2751 3.67815L29.6568 6.28639ZM29.6568 6.28639C29.6759 6.19314 29.616 6.10215 29.5227 6.08297M29.6568 6.28639L29.5227 6.08297M29.5227 6.08297C29.5227 6.08296 29.5226 6.08295 29.5226 6.08294L29.5227 6.08297Z" fill="white" stroke="white" stroke-width="0.8"/>
<path d="M81.2228 7.42578C78.7672 7.42578 76.7695 9.4235 76.7695 11.879C76.7695 14.3345 78.7672 16.3322 81.2228 16.3322C83.6783 16.3322 85.676 14.3345 85.676 11.879C85.676 9.4235 83.6783 7.42578 81.2228 7.42578ZM78.9557 11.0153C78.9557 10.8734 79.0134 10.7341 79.1138 10.6337C79.2142 10.5333 79.3532 10.4756 79.4954 10.4756C79.6374 10.4756 79.7767 10.5333 79.8771 10.6337C79.9777 10.7341 80.0352 10.8734 80.0352 11.0153C80.0352 11.1573 79.9777 11.2966 79.8771 11.397C79.7767 11.4974 79.6374 11.5551 79.4954 11.5551C79.3535 11.5551 79.2142 11.4973 79.1138 11.397C79.0134 11.2966 78.9557 11.1573 78.9557 11.0153ZM82.8831 13.5393C82.725 13.6974 82.4687 13.6974 82.3106 13.5393C82.02 13.2488 81.6337 13.0888 81.2228 13.0888C80.8118 13.0888 80.4255 13.2488 80.1349 13.5393C80.0559 13.6184 79.9523 13.6579 79.8487 13.6579C79.7451 13.6579 79.6415 13.6184 79.5624 13.5393C79.4043 13.3812 79.4043 13.1249 79.5624 12.9668C80.0059 12.5233 80.5955 12.2791 81.2227 12.2791C81.2227 12.2791 81.2227 12.2791 81.2228 12.2791C81.8499 12.2791 82.4396 12.5233 82.8831 12.9668C83.0412 13.1249 83.0412 13.3812 82.8831 13.5393ZM83.3317 11.397C83.2313 11.4974 83.092 11.5551 82.9501 11.5551C82.8081 11.5551 82.6688 11.4973 82.5684 11.397C82.4678 11.2966 82.4103 11.1573 82.4103 11.0153C82.4103 10.8734 82.4678 10.7341 82.5684 10.6337C82.6688 10.5333 82.8078 10.4756 82.9501 10.4756C83.092 10.4756 83.2313 10.5333 83.3317 10.6337C83.4324 10.7341 83.4898 10.8734 83.4898 11.0153C83.4898 11.1573 83.4323 11.2966 83.3317 11.397Z" fill="white"/>
<path d="M93.6742 35.0543C92.0941 33.7051 89.7109 33.8929 88.3618 35.473C87.0126 37.0531 87.2004 39.4363 88.7805 40.7855C90.3606 42.1347 92.7438 41.9468 94.093 40.3667C95.4421 38.7866 95.2543 36.4035 93.6742 35.0543ZM90.243 36.1184C90.321 36.0271 90.4347 35.9692 90.5545 35.9597C90.6743 35.9503 90.7955 35.9895 90.887 36.0677C90.9783 36.1457 91.0362 36.2594 91.0457 36.3791C91.0552 36.499 91.0157 36.6203 90.9377 36.7116C90.8597 36.803 90.7462 36.861 90.6263 36.8703C90.5065 36.8797 90.3852 36.8404 90.2938 36.7624C90.2025 36.6844 90.1446 36.5707 90.1351 36.4509C90.1257 36.3311 90.165 36.2098 90.243 36.1184ZM91.3835 39.9005C91.1949 39.9154 91.03 39.7745 91.0151 39.5859C90.9877 39.2393 90.8271 38.9241 90.5626 38.6983C90.2982 38.4725 89.9617 38.3633 89.6151 38.3905C89.5208 38.398 89.4324 38.3665 89.3657 38.3096C89.2991 38.2527 89.2541 38.1703 89.2467 38.076C89.2318 37.8874 89.3726 37.7224 89.5612 37.7075C90.0903 37.6658 90.6039 37.8327 91.0075 38.1773C91.0075 38.1773 91.0075 38.1773 91.0075 38.1773C91.4111 38.5219 91.6564 39.0031 91.6981 39.5321C91.7129 39.7207 91.5721 39.8856 91.3835 39.9005ZM92.8493 38.7684C92.7295 38.7779 92.6082 38.7385 92.5168 38.6605C92.4255 38.5825 92.3676 38.4688 92.3581 38.349C92.3485 38.2291 92.3881 38.1079 92.4661 38.0166C92.5441 37.9252 92.6576 37.8672 92.7775 37.8579C92.8973 37.8485 93.0185 37.8877 93.11 37.9658C93.2013 38.0438 93.2592 38.1575 93.2687 38.2773C93.2783 38.3972 93.2387 38.5184 93.1607 38.6098C93.0827 38.7011 92.9692 38.7591 92.8493 38.7684Z" fill="white"/>
<path d="M44.8758 70.2857C43.3633 68.8611 40.9738 68.9326 39.5493 70.4451C38.1247 71.9576 38.1962 74.3471 39.7087 75.7717C41.2212 77.1962 43.6107 77.1247 45.0352 75.6122C46.4598 74.0997 46.3883 71.7103 44.8758 70.2857ZM41.3969 71.1814C41.4792 71.094 41.5956 71.0417 41.7157 71.0381C41.8358 71.0345 41.9549 71.0796 42.0425 71.1621C42.13 71.2445 42.1822 71.3608 42.1858 71.4809C42.1896 71.6012 42.1442 71.7203 42.0618 71.8078C41.9795 71.8952 41.8633 71.9476 41.743 71.9511C41.6229 71.9547 41.5036 71.9094 41.4162 71.8271C41.3288 71.7447 41.2765 71.6283 41.2729 71.5082C41.2693 71.3882 41.3145 71.2689 41.3969 71.1814ZM42.3517 75.0146C42.1626 75.0203 42.0047 74.8715 41.999 74.6824C41.9886 74.3349 41.8435 74.0122 41.5904 73.7738C41.3373 73.5354 41.0065 73.4099 40.6589 73.4203C40.5644 73.4231 40.4776 73.3873 40.4138 73.3272C40.35 73.2671 40.3091 73.1827 40.3063 73.0881C40.3006 72.899 40.4493 72.7411 40.6384 72.7354C41.1689 72.7196 41.6738 72.9112 42.0601 73.2751C42.0601 73.2751 42.0601 73.2751 42.0601 73.2751C42.4465 73.639 42.668 74.1315 42.6838 74.6619C42.6895 74.851 42.5408 75.0089 42.3517 75.0146ZM43.8709 73.9553C43.7508 73.9589 43.6315 73.9136 43.5441 73.8313C43.4566 73.7489 43.4044 73.6325 43.4008 73.5125C43.397 73.3922 43.4424 73.2731 43.5248 73.1856C43.6071 73.0982 43.7233 73.0458 43.8436 73.0423C43.9637 73.0387 44.0828 73.0838 44.1704 73.1663C44.2578 73.2487 44.3101 73.3651 44.3137 73.4851C44.3175 73.6054 44.2721 73.7245 44.1897 73.812C44.1074 73.8994 43.9911 73.9518 43.8709 73.9553Z" fill="white"/>
<path d="M27.2789 17.5857C25.4795 18.6245 24.8608 20.9336 25.8997 22.733C26.9385 24.5324 29.2476 25.1511 31.047 24.1122C32.8464 23.0733 33.4651 20.7643 32.4262 18.9649C31.3874 17.1655 29.0783 16.5468 27.2789 17.5857ZM27.1363 21.1752C27.0762 21.0712 27.0596 20.9447 27.0907 20.8287C27.1218 20.7126 27.1992 20.6115 27.3034 20.5513C27.4075 20.4912 27.534 20.4747 27.65 20.5057C27.7662 20.5367 27.8673 20.6145 27.9274 20.7185C27.9874 20.8225 28.0042 20.9489 27.9729 21.0651C27.9418 21.1811 27.8642 21.2823 27.7602 21.3424C27.6562 21.4025 27.5297 21.419 27.4136 21.388C27.2976 21.3569 27.1963 21.2793 27.1363 21.1752ZM31.0821 21.3632C31.0331 21.5459 30.8453 21.6543 30.6625 21.6054C30.3267 21.5154 29.9759 21.5616 29.6748 21.7355C29.3736 21.9093 29.1583 22.19 29.0683 22.5259C29.0438 22.6172 28.9846 22.69 28.9087 22.7339C28.8328 22.7777 28.7401 22.7926 28.6487 22.7681C28.466 22.7191 28.3575 22.5313 28.4065 22.3485C28.5438 21.8359 28.8726 21.4075 29.3322 21.1421C29.3322 21.1421 29.3322 21.1421 29.3322 21.1421C29.7918 20.8768 30.3272 20.8063 30.8399 20.9436C31.0226 20.9926 31.131 21.1804 31.0821 21.3632ZM30.5044 19.6035C30.4733 19.7195 30.3957 19.8208 30.2917 19.8808C30.1877 19.9409 30.0612 19.9575 29.9451 19.9264C29.8289 19.8954 29.7278 19.8177 29.6678 19.7137C29.6077 19.6096 29.5909 19.4833 29.6222 19.3671C29.6533 19.251 29.7307 19.1499 29.835 19.0897C29.939 19.0297 30.0655 19.0131 30.1815 19.0442C30.2978 19.0752 30.3988 19.1529 30.4589 19.2569C30.5189 19.3609 30.5357 19.4873 30.5044 19.6035Z" fill="white"/>
</g>
<defs>
<filter id="filter0_d_5616_689" x="-5.8457" y="-17.1543" width="120.89" height="120.655" filterUnits="userSpaceOnUse" color-interpolation-filters="sRGB">
<feFlood flood-opacity="0" result="BackgroundImageFix"/>
<feColorMatrix in="SourceAlpha" type="matrix" values="0 0 0 0 0 0 0 0 0 0 0 0 0 0 0 0 0 0 127 0" result="hardAlpha"/>
<feOffset/>
<feGaussianBlur stdDeviation="15"/>
<feColorMatrix type="matrix" values="0 0 0 0 0 0 0 0 0 0 0 0 0 0 0 0 0 0 0.15 0"/>
<feBlend mode="normal" in2="BackgroundImageFix" result="effect1_dropShadow_5616_689"/>
<feBlend mode="normal" in="SourceGraphic" in2="effect1_dropShadow_5616_689" result="shape"/>
</filter>
<clipPath id="clip0_5616_689">
<rect width="108" height="83" fill="white"/>
</clipPath>
</defs>
</svg>
