<svg width="8" height="12" viewBox="0 0 8 12" fill="none" xmlns="http://www.w3.org/2000/svg">
<path d="M3.72666 8.18273L3.7264 8.18273C3.45007 8.18273 3.25896 7.9344 3.25896 7.6705C3.25896 7.18517 3.31918 6.75897 3.44287 6.39558C3.53463 6.11896 3.68221 5.84406 3.88129 5.5702L3.88178 5.56953C4.0301 5.36785 4.28997 5.0804 4.6571 4.71132C5.02187 4.34393 5.24515 4.06437 5.34391 3.86791C5.44278 3.67125 5.49225 3.45532 5.49225 3.21754C5.49225 2.78584 5.34587 2.40947 5.04915 2.08083C4.75582 1.75594 4.4019 1.59738 3.97906 1.59738C3.56905 1.59738 3.23266 1.74218 2.96013 2.03311C2.76228 2.24438 2.60614 2.55085 2.50067 2.96368L2.50064 2.96376C2.40989 3.31811 2.09704 3.56972 1.74158 3.52143L3.72666 8.18273ZM3.72666 8.18273L4.12277 8.18206M3.72666 8.18273L4.12277 8.18206M4.6657 7.02085L4.66568 7.0209C4.63126 7.16635 4.60583 7.38905 4.59182 7.69347L4.6657 7.02085ZM4.6657 7.02085C4.71293 6.82091 4.78519 6.64682 4.88098 6.49744C4.97751 6.34689 5.19266 6.09951 5.53753 5.75037C6.05409 5.22792 6.41295 4.77385 6.59987 4.38941C6.78657 4.00606 6.87945 3.58757 6.87945 3.1369C6.87945 2.35734 6.61493 1.68746 6.08565 1.13525C5.55093 0.577372 4.83724 0.304102 3.96139 0.304102C3.13259 0.304102 2.45224 0.559503 1.93604 1.08106C1.56596 1.45408 1.30613 1.94089 1.15237 2.53478C1.03832 2.97521 1.2955 3.46109 1.74152 3.52142L4.6657 7.02085ZM4.12277 8.18206C4.38908 8.18206 4.5801 7.94953 4.59182 7.69352L4.12277 8.18206ZM3.95256 9.83819C3.51898 9.83819 3.20007 10.2324 3.20007 10.6757C3.20007 11.119 3.51898 11.5132 3.95256 11.5132C4.38614 11.5132 4.70505 11.119 4.70505 10.6757C4.70505 10.2324 4.38614 9.83819 3.95256 9.83819Z" fill="#414B5B" stroke="#414B5B" stroke-width="0.3"/>
</svg>
