<svg width="13" height="10" viewBox="0 0 13 10" fill="none" xmlns="http://www.w3.org/2000/svg">
<path fill-rule="evenodd" clip-rule="evenodd" d="M6.31224 2.66016L6.34042 3.09268L5.87076 3.03972C4.16119 2.8367 2.66767 2.14818 1.39959 0.991833L0.779637 0.418072L0.619952 0.841772C0.281797 1.78627 0.497841 2.78374 1.20233 3.4546C1.57806 3.82533 1.49352 3.8783 0.84539 3.65762C0.619952 3.587 0.422695 3.53404 0.403908 3.56052C0.338156 3.62231 0.563593 4.42558 0.742064 4.74335C0.986288 5.18471 1.48413 5.61724 2.02893 5.87322L2.4892 6.07625L1.9444 6.08507C1.41838 6.08507 1.39959 6.0939 1.45595 6.27927C1.64381 6.85303 2.38588 7.4621 3.21248 7.72692L3.79486 7.91228L3.28763 8.19475C2.53617 8.6008 1.65321 8.8303 0.770244 8.84796C0.347549 8.85679 0 8.89209 0 8.91857C0 9.00685 1.14597 9.50116 1.81289 9.69536C3.81365 10.2691 6.19013 10.022 7.97484 9.04215C9.24293 8.34481 10.511 6.95896 11.1028 5.61724C11.4222 4.90224 11.7415 3.59583 11.7415 2.96911C11.7415 2.56306 11.7697 2.5101 12.2957 2.0246C12.6057 1.74214 12.8969 1.43319 12.9532 1.34492C13.0472 1.1772 13.0378 1.1772 12.5587 1.32726C11.7603 1.59208 11.6476 1.55677 12.0421 1.15955C12.3333 0.877081 12.6808 0.365108 12.6808 0.215048C12.6808 0.188567 12.5399 0.232702 12.3803 0.312146C12.2112 0.400417 11.8355 0.532824 11.5537 0.612267L11.0464 0.762329L10.5862 0.471034C10.3325 0.312146 9.9756 0.135604 9.78773 0.0826416C9.30868 -0.0409374 8.57601 -0.023284 8.14392 0.11795C6.96977 0.51517 6.2277 1.53911 6.31224 2.66016Z" fill="white"/>
</svg>
