<svg width="33" height="32" viewBox="0 0 33 32" fill="none" xmlns="http://www.w3.org/2000/svg">
<rect opacity="0.25" x="0.989258" y="0.5" width="30.9874" height="30.9874" rx="15.4937" stroke="#414B5B"/>
<path fill-rule="evenodd" clip-rule="evenodd" d="M16.3298 13.9412L16.3529 14.3314L15.9677 14.2836C14.5656 14.1004 13.3406 13.4793 12.3005 12.436L11.792 11.9183L11.6611 12.3006C11.3837 13.1527 11.5609 14.0527 12.1387 14.6579C12.4469 14.9924 12.3776 15.0402 11.846 14.8411C11.6611 14.7774 11.4993 14.7296 11.4839 14.7535C11.4299 14.8092 11.6148 15.5339 11.7612 15.8206C11.9615 16.2188 12.3699 16.6091 12.8167 16.84L13.1942 17.0232L12.7474 17.0312C12.3159 17.0312 12.3005 17.0391 12.3467 17.2064C12.5008 17.724 13.1095 18.2735 13.7874 18.5124L14.2651 18.6797L13.8491 18.9345C13.2327 19.3009 12.5085 19.5079 11.7843 19.5239C11.4376 19.5318 11.1526 19.5637 11.1526 19.5876C11.1526 19.6672 12.0925 20.1132 12.6395 20.2884C14.2805 20.806 16.2297 20.583 17.6935 19.6991C18.7335 19.0699 19.7736 17.8196 20.259 16.6091C20.5209 15.964 20.7829 14.7853 20.7829 14.2199C20.7829 13.8536 20.806 13.8058 21.2374 13.3678C21.4916 13.1129 21.7305 12.8342 21.7767 12.7545C21.8537 12.6032 21.846 12.6032 21.4531 12.7386C20.7983 12.9775 20.7058 12.9457 21.0294 12.5873C21.2682 12.3325 21.5533 11.8706 21.5533 11.7352C21.5533 11.7113 21.4377 11.7511 21.3067 11.8228C21.1681 11.9024 20.8599 12.0219 20.6288 12.0935L20.2127 12.2289L19.8352 11.9661C19.6272 11.8228 19.3345 11.6635 19.1804 11.6157C18.7875 11.5042 18.1865 11.5201 17.8321 11.6476C16.8691 12.0059 16.2605 12.9298 16.3298 13.9412Z" fill="#414B5B"/>
</svg>
