<svg width="11" height="10" viewBox="0 0 11 10" fill="none" xmlns="http://www.w3.org/2000/svg">
<path d="M10.2026 4.97222C10.4095 4.97222 10.5579 5.00926 10.6479 5.08333C10.7468 5.1574 10.7963 5.25369 10.7963 5.37221C10.7963 5.56479 10.7243 5.73516 10.5804 5.8833C10.4455 6.03144 10.2296 6.10921 9.9327 6.11662C9.21303 6.13144 8.57433 6.08699 8.01658 5.98329C7.37788 7.08695 6.60424 8.00544 5.69566 8.73874C4.79608 9.46464 3.89199 9.82759 2.98342 9.82759C2.04785 9.82759 1.35067 9.37946 0.891885 8.4832C0.433098 7.58693 0.203704 6.37587 0.203704 4.85001C0.203704 3.54635 0.316152 2.37603 0.541047 1.33903C0.62201 0.953864 0.734458 0.694615 0.878391 0.561287C1.03132 0.420552 1.2877 0.350184 1.64753 0.350184C2.24126 0.350184 2.53812 0.561287 2.53812 0.983493C2.53812 1.02794 2.52913 1.10941 2.51113 1.22793C2.24126 2.56121 2.10632 3.76857 2.10632 4.85001C2.10632 5.98329 2.21877 6.84622 2.44367 7.43879C2.67756 8.02395 3.0239 8.31653 3.48268 8.31653C3.95047 8.31653 4.45873 8.04988 5.00748 7.51657C5.55622 6.98325 6.05999 6.31291 6.51878 5.50554C5.97003 5.22406 5.55622 4.86112 5.27735 4.41669C4.99848 3.96486 4.85905 3.44636 4.85905 2.8612C4.85905 2.27603 4.967 1.78346 5.1829 1.38348C5.40779 0.976085 5.70915 0.672394 6.08698 0.472402C6.4738 0.27241 6.9011 0.172414 7.36888 0.172414C7.94462 0.172414 8.39891 0.342777 8.73175 0.683505C9.07359 1.02423 9.24451 1.49088 9.24451 2.08345C9.24451 2.93527 9.01962 3.86486 8.56983 4.87223C9.04661 4.93889 9.59085 4.97222 10.2026 4.97222ZM6.22192 2.78342C6.22192 3.50932 6.50528 4.04633 7.07202 4.39447C7.42286 3.56487 7.59828 2.87971 7.59828 2.33899C7.59828 2.0279 7.5488 1.80198 7.44985 1.66124C7.35089 1.5131 7.21595 1.43903 7.04503 1.43903C6.80215 1.43903 6.60424 1.55754 6.45131 1.79457C6.29838 2.02419 6.22192 2.35381 6.22192 2.78342Z" fill="white"/>
<path fill-rule="evenodd" clip-rule="evenodd" d="M9.9387 6.28896L9.93765 6.28899C9.27097 6.30271 8.66769 6.26657 8.12924 6.17893C7.49517 7.24522 6.73141 8.14103 5.83624 8.86352C4.91293 9.60855 3.96109 10 2.98342 10C2.4744 10 2.02219 9.87725 1.63566 9.6288C1.25172 9.38201 0.943986 9.01867 0.704971 8.55174C0.230647 7.62513 0 6.38761 0 4.85001C0 3.53844 0.113086 2.35759 0.340591 1.30837C0.422083 0.92089 0.541602 0.61766 0.72801 0.444987L0.728458 0.444571C0.937724 0.251991 1.26371 0.17777 1.64753 0.17777C1.96798 0.17777 2.24627 0.234112 2.44651 0.376504C2.65355 0.523729 2.74183 0.737171 2.74183 0.983493C2.74183 1.04048 2.73103 1.13232 2.71318 1.2499L2.71263 1.25348L2.71191 1.25704C2.44352 2.58298 2.31003 3.78039 2.31003 4.85001C2.31003 5.97669 2.42229 6.8179 2.63713 7.38479C2.86222 7.94713 3.15934 8.14412 3.48268 8.14412C3.85889 8.14412 4.31533 7.92672 4.85386 7.40333C5.35694 6.91441 5.82479 6.30355 6.25591 5.56819C5.75504 5.28446 5.3673 4.92761 5.09745 4.49756L5.0968 4.49652C4.80061 4.01662 4.65534 3.47002 4.65534 2.8612C4.65534 2.25908 4.76626 1.74044 4.99761 1.31183L4.99834 1.31049C5.23663 0.878833 5.56187 0.546999 5.97897 0.326221L5.98078 0.325259C6.40064 0.108188 6.86489 0 7.36888 0C7.99783 0 8.51215 0.188639 8.88789 0.572762C9.26935 0.953479 9.44822 1.46392 9.44822 2.08345C9.44822 2.90312 9.2461 3.78664 8.84743 4.73262C9.25112 4.77722 9.70262 4.79981 10.2026 4.79981C10.4281 4.79981 10.6402 4.83869 10.7863 4.95682C10.9295 5.06546 11 5.20898 11 5.37221C11 5.60368 10.9124 5.81209 10.7397 5.99077C10.5557 6.19123 10.273 6.28062 9.9387 6.28896ZM10.5804 5.8833C10.7243 5.73516 10.7963 5.56479 10.7963 5.37221C10.7963 5.25369 10.7468 5.1574 10.6479 5.08333C10.5579 5.00926 10.4095 4.97222 10.2026 4.97222C9.67722 4.97222 9.20163 4.94764 8.7758 4.89847C8.7058 4.89039 8.63714 4.88164 8.56983 4.87223C8.59446 4.81706 8.61842 4.76213 8.6417 4.70743C9.04358 3.76328 9.24451 2.88862 9.24451 2.08345C9.24451 1.49088 9.07359 1.02423 8.73175 0.683505C8.39891 0.342777 7.94462 0.172414 7.36888 0.172414C6.9011 0.172414 6.4738 0.27241 6.08698 0.472402C5.70915 0.672394 5.40779 0.976085 5.1829 1.38348C4.967 1.78346 4.85905 2.27603 4.85905 2.8612C4.85905 3.44636 4.99848 3.96486 5.27735 4.41669C5.55622 4.86112 5.97003 5.22406 6.51878 5.50554C6.05999 6.31291 5.55622 6.98325 5.00748 7.51657C4.45873 8.04988 3.95047 8.31653 3.48268 8.31653C3.0239 8.31653 2.67756 8.02395 2.44367 7.43879C2.21877 6.84622 2.10632 5.98329 2.10632 4.85001C2.10632 3.76857 2.24126 2.56121 2.51113 1.22793C2.52913 1.10941 2.53812 1.02794 2.53812 0.983493C2.53812 0.561287 2.24126 0.350184 1.64753 0.350184C1.2877 0.350184 1.03132 0.420552 0.878391 0.561287C0.734458 0.694615 0.62201 0.953864 0.541047 1.33903C0.316152 2.37603 0.203704 3.54635 0.203704 4.85001C0.203704 6.37587 0.433098 7.58693 0.891885 8.4832C1.35067 9.37946 2.04785 9.82759 2.98342 9.82759C3.89199 9.82759 4.79608 9.46464 5.69566 8.73874C6.60424 8.00544 7.37788 7.08695 8.01658 5.98329C8.57433 6.08699 9.21303 6.13144 9.9327 6.11662C10.2296 6.10921 10.4455 6.03144 10.5804 5.8833ZM7.27252 1.7461C7.2021 1.64068 7.12827 1.61144 7.04503 1.61144C6.90026 1.61144 6.76027 1.67544 6.63009 1.87721L6.62878 1.87924C6.50067 2.07159 6.42562 2.36678 6.42562 2.78342C6.42562 3.36262 6.6147 3.79436 6.97684 4.10027C7.25854 3.38699 7.39457 2.80134 7.39457 2.33899C7.39457 2.03552 7.34464 1.84876 7.2748 1.74942L7.27252 1.7461ZM6.9041 4.2795C6.957 4.31987 7.01297 4.35819 7.07202 4.39447C7.09639 4.33686 7.1199 4.27994 7.14257 4.22373C7.44638 3.47041 7.59828 2.84216 7.59828 2.33899C7.59828 2.0279 7.5488 1.80198 7.44985 1.66124C7.35089 1.5131 7.21595 1.43903 7.04503 1.43903C6.80215 1.43903 6.60424 1.55754 6.45131 1.79457C6.29838 2.02419 6.22192 2.35381 6.22192 2.78342C6.22192 3.43368 6.44931 3.93238 6.9041 4.2795Z" fill="white"/>
</svg>
