<svg width="33" height="32" viewBox="0 0 33 32" fill="none" xmlns="http://www.w3.org/2000/svg">
<rect opacity="0.25" x="1.23389" y="0.5" width="30.9874" height="30.9874" rx="15.4937" stroke="#414B5B"/>
<path fill-rule="evenodd" clip-rule="evenodd" d="M22.8987 12.1617C23.3095 12.5888 23.4436 13.5588 23.4436 13.5588C23.4436 13.5588 23.5807 14.6982 23.5807 15.8371V16.9051C23.5807 18.0445 23.4436 19.1834 23.4436 19.1834C23.4436 19.1834 23.3095 20.1534 22.8987 20.5805C22.429 21.0858 21.9082 21.138 21.6138 21.1675C21.5814 21.1708 21.5518 21.1738 21.5252 21.177C19.6068 21.3196 16.7263 21.3239 16.7263 21.3239C16.7263 21.3239 13.162 21.2905 12.0652 21.1823C12.0133 21.1723 11.9503 21.1646 11.879 21.1558C11.5316 21.113 10.9863 21.0458 10.5534 20.5805C10.1426 20.1534 10.0089 19.1834 10.0089 19.1834C10.0089 19.1834 9.87183 18.0445 9.87183 16.9051V15.8371C9.87183 14.6982 10.0089 13.5588 10.0089 13.5588C10.0089 13.5588 10.1426 12.5888 10.5534 12.1617C11.0242 11.6557 11.5455 11.604 11.8399 11.5749C11.8718 11.5717 11.9011 11.5688 11.9273 11.5656C13.8457 11.4231 16.7233 11.4231 16.7233 11.4231H16.7293C16.7293 11.4231 19.6068 11.4231 21.5252 11.5656C21.5515 11.5688 21.5807 11.5717 21.6127 11.5749C21.9069 11.6041 22.4284 11.6558 22.8987 12.1617ZM15.3092 14.2438L15.3096 18.1989L19.0132 16.2281L15.3092 14.2438Z" fill="#414B5B"/>
</svg>
