<svg width="24" height="24" viewBox="0 0 24 24" fill="none" xmlns="http://www.w3.org/2000/svg">
<path fill-rule="evenodd" clip-rule="evenodd" d="M9.24838 17.6484C9.02334 17.8734 8.71817 17.9998 8.39998 17.9998C8.08178 17.9998 7.77661 17.8734 7.55158 17.6484L2.75158 12.8484C2.52661 12.6234 2.40023 12.3182 2.40023 12C2.40023 11.6818 2.52661 11.3766 2.75158 11.1516L7.55158 6.35161C7.7779 6.13302 8.08102 6.01207 8.39566 6.01481C8.71029 6.01754 9.01127 6.14374 9.23376 6.36623C9.45625 6.58872 9.58245 6.8897 9.58518 7.20433C9.58792 7.51897 9.46696 7.82209 9.24838 8.04841L6.49678 10.8L20.4 10.8C20.7182 10.8 21.0235 10.9264 21.2485 11.1515C21.4735 11.3765 21.6 11.6818 21.6 12C21.6 12.3183 21.4735 12.6235 21.2485 12.8485C21.0235 13.0736 20.7182 13.2 20.4 13.2L6.49678 13.2L9.24838 15.9516C9.47334 16.1766 9.59972 16.4818 9.59972 16.8C9.59972 17.1182 9.47334 17.4234 9.24838 17.6484V17.6484Z" fill="#414B5B"/>
</svg>
