<svg width="16" height="16" viewBox="0 0 16 16" fill="none" xmlns="http://www.w3.org/2000/svg">
<path d="M13.3958 2.0667H12.1833V1.4375C12.1833 1.14077 11.9425 0.9 11.6458 0.9C11.3491 0.9 11.1083 1.14077 11.1083 1.4375V2.0667H4.8917V1.4375C4.8917 1.14077 4.65093 0.9 4.3542 0.9C4.05747 0.9 3.8167 1.14077 3.8167 1.4375V2.0667H2.6042C1.66405 2.0667 0.9 2.83063 0.9 3.7708V6.1042V13.3958C0.9 14.336 1.66404 15.1 2.6042 15.1H13.3958C14.336 15.1 15.1 14.336 15.1 13.3958V6.1042V3.7708C15.1 2.83063 14.336 2.0667 13.3958 2.0667ZM14.025 5.5667H1.975V3.7708C1.975 3.42411 2.25748 3.1417 2.6042 3.1417H3.8167V4.0625C3.8167 4.35923 4.05747 4.6 4.3542 4.6C4.65093 4.6 4.8917 4.35923 4.8917 4.0625V3.1417H11.1083V4.0625C11.1083 4.35923 11.3491 4.6 11.6458 4.6C11.9425 4.6 12.1833 4.35923 12.1833 4.0625V3.1417H13.3958C13.7425 3.1417 14.025 3.42411 14.025 3.7708V5.5667ZM1.975 6.6417H14.025V13.3958C14.025 13.7425 13.7425 14.025 13.3958 14.025H2.6042C2.2575 14.025 1.975 13.7425 1.975 13.3958V6.6417Z" fill="#414B5B" stroke="#414B5B" stroke-width="0.2"/>
</svg>
