<svg width="12" height="12" viewBox="0 0 12 12" fill="none" xmlns="http://www.w3.org/2000/svg">
<path d="M10.5 2.25C10.5 2.05109 10.421 1.86032 10.2803 1.71967C10.1397 1.57902 9.94891 1.5 9.75 1.5H8.25V0.75H7.5V1.5H4.5V0.75H3.75V1.5H2.25C2.05109 1.5 1.86032 1.57902 1.71967 1.71967C1.57902 1.86032 1.5 2.05109 1.5 2.25V9.75C1.5 9.94891 1.57902 10.1397 1.71967 10.2803C1.86032 10.421 2.05109 10.5 2.25 10.5H3.75V9.75H2.25V2.25H3.75V3H4.5V2.25H7.5V3H8.25V2.25H9.75V4.5H10.5V2.25Z" fill="#70747E"/>
<path d="M7.875 5.625L8.83087 7.47675L10.875 7.77338L9.375 9.21487L9.75 11.25L7.875 10.2892L6 11.25L6.375 9.21487L4.875 7.77338L6.975 7.47675L7.875 5.625Z" fill="#70747E"/>
</svg>
