<svg width="24" height="24" viewBox="0 0 24 24" fill="none" xmlns="http://www.w3.org/2000/svg">
<path d="M18.75 4C19.1768 4 19.5994 4.08406 19.9937 4.24739C20.388 4.41072 20.7463 4.65011 21.0481 4.9519C21.3499 5.25369 21.5893 5.61197 21.7526 6.00628C21.9159 6.40059 22 6.8232 22 7.25V16.755C22 17.1818 21.9159 17.6044 21.7526 17.9987C21.5893 18.393 21.3499 18.7513 21.0481 19.0531C20.7463 19.3549 20.388 19.5943 19.9937 19.7576C19.5994 19.9209 19.1768 20.005 18.75 20.005H5.25C4.8232 20.005 4.40059 19.9209 4.00628 19.7576C3.61197 19.5943 3.25369 19.3549 2.9519 19.0531C2.65011 18.7513 2.41072 18.393 2.24739 17.9987C2.08406 17.6044 2 17.1818 2 16.755V7.25C1.99995 6.41986 2.31755 5.62117 2.88767 5.01777C3.45779 4.41437 4.23719 4.052 5.066 4.005L5.25 4H18.75ZM18.75 5.5H5.25L5.106 5.506C4.6683 5.54214 4.26019 5.74154 3.96268 6.06461C3.66517 6.38768 3.50002 6.81081 3.5 7.25V16.755C3.5 17.721 4.284 18.505 5.25 18.505H18.75C19.2141 18.505 19.6592 18.3206 19.9874 17.9924C20.3156 17.6642 20.5 17.2191 20.5 16.755V7.25C20.5 6.78587 20.3156 6.34075 19.9874 6.01256C19.6592 5.68437 19.2141 5.5 18.75 5.5ZM9.253 12.5C9.45191 12.5 9.64268 12.579 9.78333 12.7197C9.92398 12.8603 10.003 13.0511 10.003 13.25V13.832C10.003 15.104 9.034 15.75 7.501 15.75C5.968 15.75 5 15.104 5 13.831V13.25C5 13.0511 5.07902 12.8603 5.21967 12.7197C5.36032 12.579 5.55109 12.5 5.75 12.5H9.253ZM10.833 12.499L12.25 12.5C12.4489 12.5 12.6397 12.579 12.7803 12.7197C12.921 12.8603 13 13.0511 13 13.25V13.583C13 14.546 12.235 15 11.125 15C11.009 15 10.896 14.995 10.788 14.985C10.9051 14.6982 10.9747 14.3942 10.994 14.085L11.003 13.832V13.25C11.003 12.981 10.942 12.726 10.833 12.499ZM15.25 12.5H18.25C18.44 12.5001 18.6229 12.5722 18.7618 12.702C18.9006 12.8317 18.9851 13.0093 18.998 13.1989C19.011 13.3885 18.9515 13.5759 18.8316 13.7233C18.7117 13.8707 18.5402 13.9671 18.352 13.993L18.25 14H15.25C15.06 13.9999 14.8771 13.9278 14.7382 13.798C14.5994 13.6683 14.5149 13.4907 14.502 13.3011C14.489 13.1115 14.5485 12.9241 14.6684 12.7767C14.7883 12.6293 14.9598 12.5329 15.148 12.507L15.25 12.5H18.25H15.25ZM7.5 8.5C7.89796 8.5 8.27962 8.65809 8.56101 8.93949C8.84241 9.22088 9.0005 9.60254 9.0005 10.0005C9.0005 10.3985 8.84241 10.7801 8.56101 11.0615C8.27962 11.3429 7.89796 11.501 7.5 11.501C7.10204 11.501 6.72038 11.3429 6.43899 11.0615C6.15759 10.7801 5.9995 10.3985 5.9995 10.0005C5.9995 9.60254 6.15759 9.22088 6.43899 8.93949C6.72038 8.65809 7.10204 8.5 7.5 8.5ZM11.37 9.002C11.5339 9.002 11.6962 9.03428 11.8476 9.097C11.999 9.15972 12.1366 9.25164 12.2525 9.36753C12.3684 9.48342 12.4603 9.621 12.523 9.77241C12.5857 9.92383 12.618 10.0861 12.618 10.25C12.618 10.4139 12.5857 10.5762 12.523 10.7276C12.4603 10.879 12.3684 11.0166 12.2525 11.1325C12.1366 11.2484 11.999 11.3403 11.8476 11.403C11.6962 11.4657 11.5339 11.498 11.37 11.498C11.039 11.498 10.7216 11.3665 10.4875 11.1325C10.2535 10.8984 10.122 10.581 10.122 10.25C10.122 9.91901 10.2535 9.60158 10.4875 9.36753C10.7216 9.13349 11.039 9.002 11.37 9.002ZM15.25 9.5H18.25C18.44 9.50006 18.6229 9.57224 18.7618 9.70197C18.9006 9.8317 18.9851 10.0093 18.998 10.1989C19.011 10.3885 18.9515 10.5759 18.8316 10.7233C18.7117 10.8707 18.5402 10.9671 18.352 10.993L18.25 11H15.25C15.06 10.9999 14.8771 10.9278 14.7382 10.798C14.5994 10.6683 14.5149 10.4907 14.502 10.3011C14.489 10.1115 14.5485 9.92411 14.6684 9.7767C14.7883 9.62929 14.9598 9.5329 15.148 9.507L15.25 9.5H18.25H15.25Z" fill="#660066"/>
</svg>
