<svg width="19" height="21" viewBox="0 0 19 21" fill="none" xmlns="http://www.w3.org/2000/svg">
<path fill-rule="evenodd" clip-rule="evenodd" d="M15.3876 1.46155C14.1312 1.46155 13.1126 2.47187 13.1126 3.71816C13.1126 4.11646 13.2166 4.49065 13.3992 4.81547C13.4078 4.82775 13.416 4.84046 13.4237 4.85359C13.4314 4.86661 13.4385 4.87982 13.445 4.89317C13.8446 5.54183 14.5651 5.97476 15.3876 5.97476C16.644 5.97476 17.6626 4.96445 17.6626 3.71816C17.6626 2.47187 16.644 1.46155 15.3876 1.46155ZM12.7673 5.88675C13.3933 6.63013 14.3348 7.10306 15.3876 7.10306C17.2723 7.10306 18.8001 5.58759 18.8001 3.71816C18.8001 1.84873 17.2723 0.333252 15.3876 0.333252C13.5029 0.333252 11.9751 1.84873 11.9751 3.71816C11.9751 4.13857 12.0524 4.54108 12.1936 4.91247L6.63289 8.13133C6.00692 7.38795 5.06544 6.91501 4.0126 6.91501C2.12793 6.91501 0.600098 8.43049 0.600098 10.2999C0.600098 12.1693 2.12793 13.6848 4.0126 13.6848C5.06556 13.6848 6.00713 13.2118 6.63311 12.4683L12.1952 15.6832C12.0529 16.0557 11.9751 16.4597 11.9751 16.8817C11.9751 18.7511 13.5029 20.2666 15.3876 20.2666C17.2723 20.2666 18.8001 18.7511 18.8001 16.8817C18.8001 15.0122 17.2723 13.4968 15.3876 13.4968C14.3364 13.4968 13.3962 13.9683 12.7702 14.7097L7.20673 11.4939C7.34787 11.1226 7.4251 10.7202 7.4251 10.2999C7.4251 9.87951 7.34783 9.477 7.20661 9.1056L12.7673 5.88675ZM5.95524 9.12491C5.96174 9.13826 5.96882 9.15146 5.97648 9.16449C5.98421 9.17762 5.99239 9.19033 6.00099 9.20261C6.18357 9.52742 6.2876 9.90162 6.2876 10.2999C6.2876 10.6982 6.18357 11.0724 6.00099 11.3972C5.99232 11.4096 5.98408 11.4224 5.9763 11.4357C5.96871 11.4486 5.96169 11.4617 5.95524 11.4749C5.55563 12.1236 4.83508 12.5565 4.0126 12.5565C2.75615 12.5565 1.7376 11.5462 1.7376 10.2999C1.7376 9.05363 2.75615 8.04331 4.0126 8.04331C4.83508 8.04331 5.55562 8.47625 5.95524 9.12491ZM13.3761 15.8265C13.3972 15.8017 13.4164 15.7749 13.4334 15.7459C13.4499 15.7179 13.4636 15.689 13.4747 15.6596C13.8798 15.0372 14.5852 14.6251 15.3876 14.6251C16.644 14.6251 17.6626 15.6354 17.6626 16.8817C17.6626 18.128 16.644 19.1383 15.3876 19.1383C14.1312 19.1383 13.1126 18.128 13.1126 16.8817C13.1126 16.5005 13.2079 16.1414 13.3761 15.8265Z" fill="#660066"/>
</svg>
