<svg width="18" height="26" viewBox="0 0 18 26" fill="none" xmlns="http://www.w3.org/2000/svg">
<path fill-rule="evenodd" clip-rule="evenodd" d="M8.6078 20.7943L2.48376 24.8514C1.9948 25.1587 1.39242 24.9412 1.12286 24.36V24.36C1.04487 24.18 1.0028 23.9804 1 23.7771V5.8C1 2.37143 2.93739 1 5.72534 1H12.2747C14.9776 1 17 2.28 17 5.57143V23.7771C17 24.1015 16.8935 24.4125 16.7038 24.6418C16.5142 24.8712 16.257 25 15.9888 25C15.8177 24.9967 15.6496 24.9459 15.4973 24.8514L9.3355 20.7943C9.10844 20.6459 8.83486 20.6459 8.6078 20.7943Z" stroke="white" stroke-linecap="round" stroke-linejoin="round"/>
</svg>
