<svg width="145" height="141" viewBox="0 0 145 141" fill="none" xmlns="http://www.w3.org/2000/svg">
<circle cx="74" cy="72" r="55" fill="#F2F2F2"/>
<circle cx="138.5" cy="23.5" r="6.5" fill="#F2F2F2"/>
<circle cx="132.5" cy="86.5" r="2.5" fill="#F2F2F2"/>
<circle cx="127.5" cy="125.5" r="3.5" fill="#F2F2F2"/>
<circle cx="93.5" cy="133.5" r="1.5" fill="#F2F2F2"/>
<circle cx="82.5" cy="5.5" r="2.5" fill="#F2F2F2"/>
<circle cx="15.5" cy="8.5" r="8.5" fill="#F2F2F2"/>
<circle cx="7.5" cy="104.5" r="4.5" fill="#F2F2F2"/>
<circle cx="48" cy="138" r="3" fill="#F2F2F2"/>
<circle cx="1" cy="59" r="1" fill="#F2F2F2"/>
<path d="M74.9916 46C67.0928 46 61.9768 49.3214 57.9601 55.2448C57.2315 56.3194 57.4561 57.7926 58.4725 58.5836L62.7414 61.9056C63.7679 62.7044 65.2284 62.5176 66.0321 61.4843C68.5109 58.2972 70.3496 56.4622 74.2216 56.4622C77.2659 56.4622 81.0315 58.473 81.0315 61.5028C81.0315 63.7932 79.1892 64.9695 76.1832 66.6992C72.6778 68.7162 68.039 71.2264 68.039 77.5059V78.5C68.039 79.8462 69.1024 80.9375 70.414 80.9375H77.5857C78.8973 80.9375 79.9607 79.8462 79.9607 78.5V77.9137C79.9607 73.5607 92.357 73.3794 92.357 61.6C92.3571 52.7291 83.3912 46 74.9916 46ZM73.9999 83.9294C70.2201 83.9294 67.145 87.0855 67.145 90.9648C67.145 94.8439 70.2201 98 73.9999 98C77.7797 98 80.8548 94.8439 80.8548 90.9647C80.8548 87.0854 77.7797 83.9294 73.9999 83.9294Z" fill="#E1E1E1"/>
</svg>
