<svg width="8" height="10" viewBox="0 0 8 10" fill="none" xmlns="http://www.w3.org/2000/svg">
<path fill-rule="evenodd" clip-rule="evenodd" d="M0.766113 4.3298C0.772116 2.56289 2.20935 1.13539 3.97626 1.14138C5.74317 1.1474 7.17067 2.58463 7.16468 4.35154V4.38777C7.14292 5.53632 6.50162 6.59792 5.71539 7.42763C5.26574 7.89456 4.76362 8.30793 4.21901 8.65951C4.07339 8.78547 3.85739 8.78547 3.71177 8.65951C2.89989 8.13107 2.18734 7.46389 1.60669 6.6885C1.08918 6.01234 0.795349 5.19165 0.766113 4.34067V4.3298Z" stroke="#F9FAFC" stroke-width="0.5" stroke-linecap="round" stroke-linejoin="round"/>
<path d="M3.96536 5.4168C4.53168 5.4168 4.99077 4.95771 4.99077 4.39138C4.99077 3.82506 4.53168 3.36597 3.96536 3.36597C3.39904 3.36597 2.93994 3.82506 2.93994 4.39138C2.93994 4.95771 3.39904 5.4168 3.96536 5.4168Z" stroke="#F9FAFC" stroke-width="0.5" stroke-linecap="round" stroke-linejoin="round"/>
</svg>
