<svg width="27" height="27" viewBox="0 0 27 27" fill="none" xmlns="http://www.w3.org/2000/svg">
<path d="M7.46899 6.93561V14.7859C7.46899 15.5587 7.94149 16.0717 8.62662 16.0717H19.781C20.4661 16.0717 21.239 15.5149 21.239 14.7859V6.93561H7.46899Z" fill="#D0ABD8"/>
<path d="M21.2255 6.93561V14.7859C21.2255 15.5587 20.753 16.0717 20.0678 16.0717H15.5656C14.8805 16.0717 15.0998 16.0717 14.4282 16.0717V6.93561H21.2255Z" fill="#9A5A9E"/>
<path d="M13.7969 10.6886H14.8701C15.0861 10.6886 15.2144 10.5604 15.2144 10.3444V9.27113C15.2144 9.05513 15.0423 8.92688 14.8701 8.92688H13.7969C13.5809 8.92688 13.4526 9.09901 13.4526 9.27113V10.3444C13.4526 10.5604 13.6248 10.6886 13.7969 10.6886Z" fill="#6F0872"/>
<path d="M17.2293 10.6886H18.3025C18.5185 10.6886 18.6468 10.5604 18.6468 10.3444V9.27113C18.6468 9.05513 18.4746 8.92688 18.3025 8.92688H17.2293C17.0133 8.92688 16.885 9.09901 16.885 9.27113V10.3444C16.885 10.5604 17.0571 10.6886 17.2293 10.6886Z" fill="#6F0872"/>
<path d="M13.7969 14.5496H14.8701C15.0861 14.5496 15.2144 14.4214 15.2144 14.2054V13.1321C15.2144 12.9161 15.0423 12.7879 14.8701 12.7879H13.7969C13.5809 12.7879 13.4526 12.96 13.4526 13.1321V14.2054C13.4526 14.4214 13.6248 14.5496 13.7969 14.5496Z" fill="#6F0872"/>
<path d="M17.2293 14.5496H18.3025C18.5185 14.5496 18.6468 14.4214 18.6468 14.2054V13.1321C18.6468 12.9161 18.4746 12.7879 18.3025 12.7879H17.2293C17.0133 12.7879 16.885 12.96 16.885 13.1321V14.2054C16.885 14.4214 17.0571 14.5496 17.2293 14.5496Z" fill="#6F0872"/>
<path d="M10.4084 10.6886H11.4378C11.6538 10.6886 11.782 10.5604 11.8225 10.3444V9.27113C11.8225 9.05513 11.6504 8.92688 11.4783 8.92688H10.405C10.189 8.92688 10.0608 9.09901 10.0608 9.27113V10.3444C10.0642 10.5604 10.2363 10.6886 10.4084 10.6886Z" fill="#6F0872"/>
<path d="M10.4084 14.5496H11.4378C11.6538 14.5496 11.782 14.4214 11.8225 14.2054V13.1321C11.8225 12.9161 11.6504 12.7879 11.4783 12.7879H10.405C10.189 12.7879 10.0608 12.96 10.0608 13.1321V14.2054C10.0642 14.4214 10.2363 14.5496 10.4084 14.5496Z" fill="#6F0872"/>
<path d="M19.8348 3.61127H18.5489V4.89714C18.5489 5.15364 18.3329 5.32577 18.1203 5.32577C17.9043 5.32577 17.6917 5.15364 17.6917 4.89714V3.61127H10.8269V4.89714C10.8269 5.15364 10.6109 5.32577 10.3983 5.32577C10.1823 5.32577 9.96969 5.15364 9.96969 4.89714V3.61127H8.68382C8.03919 3.61127 7.57007 4.16814 7.57007 4.89714V6.44289H21.2962V4.89714C21.2928 4.16814 20.5199 3.61127 19.8348 3.61127Z" fill="#993299"/>
<path d="M19.3186 14.9377C17.2025 14.9377 15.4846 16.6522 15.4846 18.7717C15.4846 20.8879 17.1991 22.6057 19.3186 22.6057C21.4381 22.6057 23.1526 20.8879 23.1526 18.7717C23.1492 16.6556 21.4347 14.9411 19.3186 14.9377Z" fill="#993299"/>
<path d="M20.8507 19.5379L19.5817 18.9034V17.2901C19.5817 17.0876 19.4163 16.9222 19.2138 16.9222C19.0113 16.9222 18.8459 17.0876 18.8459 17.2901V19.1295C18.8459 19.2679 18.9236 19.3961 19.0484 19.4602L20.5199 20.196C20.7022 20.2871 20.9216 20.2129 21.0127 20.0306C21.1038 19.8517 21.0296 19.629 20.8507 19.5379Z" fill="white"/>
<path d="M2.64595 15.5385C2.64595 14.445 3.53358 13.5574 4.62708 13.5574H10.2836C11.3771 13.5574 12.2647 14.445 12.2647 15.5385V21.195C12.2647 22.2885 11.3771 23.1761 10.2836 23.1761H4.6237C3.5302 23.1761 2.64258 22.2885 2.64258 21.195V15.5385H2.64595Z" fill="#993299"/>
<path d="M4.09378 21.0701C4.04653 21.0229 4.01953 20.9453 4.01953 20.8373V16.1123C4.01953 16.0076 4.04316 15.93 4.09378 15.8828C4.14103 15.8355 4.21866 15.8119 4.32666 15.8119H7.11441C7.19541 15.8119 7.25278 15.8423 7.28653 15.903C7.32366 15.9638 7.34053 16.0616 7.34053 16.1933V16.4261C7.34053 16.5611 7.32366 16.659 7.28653 16.7164C7.24941 16.7771 7.19203 16.8075 7.11441 16.8075H5.19403V17.9145H6.90853C6.98953 17.9145 7.04691 17.9449 7.08066 18.0056C7.11778 18.0664 7.13466 18.1643 7.13466 18.2959V18.5321C7.13466 18.6671 7.11778 18.765 7.08066 18.8224C7.04353 18.8831 6.98616 18.9135 6.90853 18.9135H5.19403V20.1488H7.11778C7.19878 20.1488 7.25616 20.1791 7.28991 20.2399C7.32703 20.3006 7.34391 20.3951 7.34391 20.5268V20.7664C7.34391 20.9014 7.32703 20.9993 7.28991 21.0566C7.25278 21.1174 7.19541 21.1478 7.11778 21.1478H4.32328C4.21866 21.1444 4.14103 21.1208 4.09378 21.0701Z" fill="white"/>
<path d="M8.86601 21.1208C8.79176 21.0971 8.74789 21.0566 8.72764 20.9959L7.51939 17.4488C7.51601 17.4319 7.50926 17.4083 7.50251 17.3779C7.49576 17.3475 7.48901 17.3273 7.48901 17.3104C7.48901 17.253 7.52614 17.2125 7.60039 17.1855C7.67464 17.1585 7.79276 17.145 7.95139 17.145H8.20114C8.32264 17.145 8.42389 17.1585 8.49814 17.1821C8.57239 17.2058 8.61964 17.2463 8.63651 17.3036L9.08201 18.7076C9.09551 18.7583 9.13939 18.9439 9.21364 19.2645L9.29464 19.629H9.32839C9.41614 19.1801 9.48701 18.873 9.53764 18.7076L9.98651 17.3036C10.0034 17.2463 10.0473 17.2058 10.1215 17.1821C10.1958 17.1585 10.2936 17.145 10.4151 17.145H10.6041C10.7628 17.145 10.8775 17.1585 10.9484 17.1855C11.0226 17.2125 11.0564 17.2564 11.0564 17.3104C11.0564 17.3576 11.0496 17.4015 11.0361 17.4488L9.82451 20.9959C9.80764 21.0533 9.76376 21.0938 9.68951 21.1174C9.61526 21.141 9.52076 21.1545 9.39926 21.1545H9.15626C9.03814 21.1579 8.94026 21.1444 8.86601 21.1208Z" fill="white"/>
</svg>
