<svg width="145" height="141" viewBox="0 0 145 141" fill="none" xmlns="http://www.w3.org/2000/svg">
<circle cx="74" cy="72" r="55" fill="#F2F2F2"/>
<circle cx="138.5" cy="23.5" r="6.5" fill="#F2F2F2"/>
<circle cx="132.5" cy="86.5" r="2.5" fill="#F2F2F2"/>
<circle cx="127.5" cy="125.5" r="3.5" fill="#F2F2F2"/>
<circle cx="93.5" cy="133.5" r="1.5" fill="#F2F2F2"/>
<circle cx="82.5" cy="5.5" r="2.5" fill="#F2F2F2"/>
<circle cx="15.5" cy="8.5" r="8.5" fill="#F2F2F2"/>
<circle cx="7.5" cy="104.5" r="4.5" fill="#F2F2F2"/>
<circle cx="48" cy="138" r="3" fill="#F2F2F2"/>
<circle cx="1" cy="59" r="1" fill="#F2F2F2"/>
<path d="M81.7067 84.2338L80.601 85.3376C80.4567 85.4816 80.2804 85.5536 80.0721 85.5536C79.8638 85.5536 79.6795 85.4816 79.5192 85.3376L75 80.8025L70.4808 85.3376C70.3205 85.4816 70.1362 85.5536 69.9279 85.5536C69.7196 85.5536 69.5433 85.4816 69.399 85.3376L68.2933 84.2338C68.149 84.0898 68.0769 83.9139 68.0769 83.7059C68.0769 83.498 68.149 83.314 68.2933 83.154L72.8365 78.6429L68.2933 74.1317C68.149 73.9717 68.0769 73.7878 68.0769 73.5798C68.0769 73.3718 68.149 73.1959 68.2933 73.0519L69.399 71.9481C69.5433 71.8041 69.7196 71.7321 69.9279 71.7321C70.1362 71.7321 70.3205 71.8041 70.4808 71.9481L75 76.4593L79.5192 71.9481C79.6795 71.8041 79.8638 71.7321 80.0721 71.7321C80.2804 71.7321 80.4567 71.8041 80.601 71.9481L81.7067 73.0519C81.851 73.1959 81.9231 73.3718 81.9231 73.5798C81.9231 73.7878 81.851 73.9717 81.7067 74.1317L77.1875 78.6429L81.7067 83.154C81.851 83.314 81.9231 83.498 81.9231 83.7059C81.9231 83.9139 81.851 84.0898 81.7067 84.2338ZM58.0769 90.9286H91.9231V66.3571H58.0769V90.9286ZM67.3077 61.75V54.8393C67.3077 54.6153 67.2356 54.4314 67.0913 54.2874C66.9471 54.1434 66.7628 54.0714 66.5385 54.0714H65C64.7756 54.0714 64.5913 54.1434 64.4471 54.2874C64.3029 54.4314 64.2308 54.6153 64.2308 54.8393V61.75C64.2308 61.974 64.3029 62.1579 64.4471 62.3019C64.5913 62.4459 64.7756 62.5179 65 62.5179H66.5385C66.7628 62.5179 66.9471 62.4459 67.0913 62.3019C67.2356 62.1579 67.3077 61.974 67.3077 61.75ZM85.7692 61.75V54.8393C85.7692 54.6153 85.6971 54.4314 85.5529 54.2874C85.4087 54.1434 85.2244 54.0714 85 54.0714H83.4615C83.2372 54.0714 83.0529 54.1434 82.9087 54.2874C82.7644 54.4314 82.6923 54.6153 82.6923 54.8393V61.75C82.6923 61.974 82.7644 62.1579 82.9087 62.3019C83.0529 62.4459 83.2372 62.5179 83.4615 62.5179H85C85.2244 62.5179 85.4087 62.4459 85.5529 62.3019C85.6971 62.1579 85.7692 61.974 85.7692 61.75ZM95 60.2143V90.9286C95 91.7604 94.6955 92.4803 94.0865 93.0882C93.4776 93.6961 92.7564 94 91.9231 94H58.0769C57.2436 94 56.5224 93.6961 55.9135 93.0882C55.3045 92.4803 55 91.7604 55 90.9286V60.2143C55 59.3824 55.3045 58.6626 55.9135 58.0547C56.5224 57.4468 57.2436 57.1429 58.0769 57.1429H61.1538V54.8393C61.1538 53.7835 61.5304 52.8797 62.2837 52.1278C63.0369 51.3759 63.9423 51 65 51H66.5385C67.5962 51 68.5016 51.3759 69.2548 52.1278C70.008 52.8797 70.3846 53.7835 70.3846 54.8393V57.1429H79.6154V54.8393C79.6154 53.7835 79.992 52.8797 80.7452 52.1278C81.4984 51.3759 82.4038 51 83.4615 51H85C86.0577 51 86.9631 51.3759 87.7163 52.1278C88.4696 52.8797 88.8462 53.7835 88.8462 54.8393V57.1429H91.9231C92.7564 57.1429 93.4776 57.4468 94.0865 58.0547C94.6955 58.6626 95 59.3824 95 60.2143Z" fill="#D7D7D7"/>
</svg>
