<svg width="30" height="30" viewBox="0 0 30 30" fill="none" xmlns="http://www.w3.org/2000/svg">
<circle cx="14.9999" cy="14.9999" r="14.9091" fill="white" fill-opacity="0.34"/>
<path d="M13.7983 11.1868C13.6448 11.0982 13.4708 11.0515 13.2936 11.0516C13.1164 11.0516 12.9423 11.0983 12.7889 11.1869C12.6355 11.2756 12.5081 11.403 12.4196 11.5565C12.3311 11.71 12.2845 11.8841 12.2846 12.0613V17.8912C12.2845 18.0683 12.3311 18.2424 12.4196 18.3959C12.5081 18.5494 12.6355 18.6769 12.7889 18.7655C12.9423 18.8542 13.1164 18.9009 13.2936 18.9009C13.4708 18.9009 13.6448 18.8543 13.7983 18.7657L19.3483 15.5581C19.4505 15.4991 19.5355 15.4142 19.5945 15.3119C19.6535 15.2096 19.6846 15.0936 19.6846 14.9756C19.6846 14.8575 19.6535 14.7415 19.5945 14.6392C19.5355 14.5369 19.4505 14.452 19.3483 14.393L13.7983 11.1868ZM4.21191 14.9756C4.21191 12.1209 5.34594 9.38308 7.36451 7.36451C9.38308 5.34594 12.1209 4.21191 14.9756 4.21191C17.8302 4.21191 20.568 5.34594 22.5866 7.36451C24.6052 9.38308 25.7392 12.1209 25.7392 14.9756C25.7392 17.8302 24.6052 20.568 22.5866 22.5866C20.568 24.6052 17.8302 25.7392 14.9756 25.7392C12.1209 25.7392 9.38308 24.6052 7.36451 22.5866C5.34594 20.568 4.21191 17.8302 4.21191 14.9756ZM14.9756 5.55737C13.7387 5.55737 12.514 5.80098 11.3714 6.27429C10.2287 6.74759 9.19045 7.44133 8.31589 8.31589C7.44133 9.19045 6.74759 10.2287 6.27428 11.3714C5.80098 12.514 5.55737 13.7387 5.55737 14.9756C5.55737 16.2124 5.80098 17.4371 6.27428 18.5797C6.74759 19.7224 7.44133 20.7607 8.31589 21.6352C9.19045 22.5098 10.2287 23.2035 11.3714 23.6768C12.514 24.1501 13.7387 24.3937 14.9756 24.3937C17.4734 24.3937 19.869 23.4015 21.6352 21.6352C23.4015 19.869 24.3937 17.4734 24.3937 14.9756C24.3937 12.4777 23.4015 10.0821 21.6352 8.31589C19.869 6.54964 17.4734 5.55737 14.9756 5.55737Z" fill="white" fill-opacity="0.4"/>
</svg>
