<svg width="20" height="20" viewBox="0 0 20 20" fill="none" xmlns="http://www.w3.org/2000/svg">
<path d="M10 0C4.47301 0 0 4.4725 0 10C0 15.5269 4.4725 20 10 20C15.527 20 20 15.5275 20 10C20 4.47301 15.5275 0 10 0ZM10 18.6046C5.25539 18.6046 1.39535 14.7446 1.39535 10C1.39535 5.25535 5.25539 1.39535 10 1.39535C14.7446 1.39535 18.6046 5.25535 18.6046 10C18.6046 14.7446 14.7446 18.6046 10 18.6046Z" fill="#660066"/>
<path d="M9.70449 12.6533C9.15164 12.6533 8.7041 13.114 8.7041 13.6668C8.7041 14.2066 9.13848 14.6804 9.70449 14.6804C10.2705 14.6804 10.718 14.2066 10.718 13.6668C10.718 13.114 10.2573 12.6533 9.70449 12.6533Z" fill="#660066"/>
<path d="M9.87535 4.97925C8.09832 4.97925 7.28223 6.03233 7.28223 6.74311C7.28223 7.25647 7.7166 7.49343 8.07199 7.49343C8.78281 7.49343 8.49324 6.47983 9.83586 6.47983C10.494 6.47983 11.0205 6.76944 11.0205 7.37495C11.0205 8.08573 10.2834 8.49378 9.84902 8.86233C9.46727 9.19136 8.96711 9.73108 8.96711 10.8631C8.96711 11.5476 9.15141 11.745 9.69105 11.745C10.336 11.745 10.4677 11.4555 10.4677 11.2053C10.4677 10.5208 10.4808 10.126 11.2048 9.55995C11.5602 9.28355 12.679 8.38843 12.679 7.15112C12.679 5.91382 11.5602 4.97925 9.87535 4.97925Z" fill="#660066"/>
</svg>
