<svg width="28" height="28" viewBox="0 0 28 28" fill="none" xmlns="http://www.w3.org/2000/svg">
<g clip-path="url(#clip0_507_10331)">
<path d="M7.70117 13.0901L8.26367 14.0644L9.3462 13.4394L8.7837 12.4651L7.70117 13.0901ZM15.2789 8.71509L15.8414 9.68937L16.9239 9.06437L16.3614 8.09009L15.2789 8.71509ZM8.82617 15.0386L9.38867 16.0129L10.4712 15.3879L9.9087 14.4136L8.82617 15.0386ZM16.4039 10.6636L16.9664 11.6379L18.0489 11.0129L17.4864 10.0386L16.4039 10.6636ZM9.95117 16.9872L10.5137 17.9615L11.5962 17.3365L11.0337 16.3622L9.95117 16.9872ZM17.5289 12.6122L18.0914 13.5865L19.1739 12.9615L18.6114 11.9872L17.5289 12.6122ZM11.0762 18.9358L11.6387 19.91L12.7212 19.285L12.1587 18.3108L11.0762 18.9358ZM18.6539 14.5608L19.2164 15.535L20.2989 14.91L19.7364 13.9358L18.6539 14.5608Z" fill="#660066"/>
<path d="M3.83864 12.6499C3.40798 12.8985 3.09374 13.3081 2.96503 13.7884C2.83632 14.2688 2.9037 14.7805 3.15234 15.2112L4.08984 16.835C4.17272 16.9786 4.30924 17.0833 4.46935 17.1262C4.62946 17.1691 4.80006 17.1466 4.94361 17.0638C5.37427 16.8151 5.88606 16.7477 6.3664 16.8764C6.84673 17.0052 7.25627 17.3194 7.50491 17.7501C7.75355 18.1807 7.82093 18.6925 7.69222 19.1728C7.56351 19.6532 7.24927 20.0627 6.81861 20.3114C6.67506 20.3942 6.57031 20.5307 6.52741 20.6909C6.4845 20.851 6.50696 21.0216 6.58984 21.1651L7.52734 22.7889C7.77598 23.2196 8.18552 23.5338 8.66586 23.6625C9.14619 23.7912 9.65798 23.7239 10.0886 23.4752L24.1616 15.3502C24.5922 15.1016 24.9065 14.692 25.0352 14.2117C25.1639 13.7314 25.0965 13.2196 24.8479 12.7889L23.9104 11.1651C23.8275 11.0216 23.691 10.9168 23.5308 10.8739C23.3707 10.831 23.2001 10.8535 23.0566 10.9364C22.6259 11.185 22.1141 11.2524 21.6338 11.1237C21.1535 10.995 20.7439 10.6807 20.4953 10.2501C20.2466 9.8194 20.1793 9.30761 20.308 8.82727C20.4367 8.34694 20.7509 7.9374 21.1816 7.68876C21.3251 7.60588 21.4299 7.46937 21.4728 7.30926C21.5157 7.14915 21.4932 6.97855 21.4104 6.835L20.4729 5.2112C20.2242 4.78054 19.8147 4.46629 19.3343 4.33759C18.854 4.20888 18.3422 4.27626 17.9116 4.5249L3.83864 12.6499ZM4.23488 14.5862C4.152 14.4426 4.12954 14.2721 4.17244 14.1119C4.21534 13.9518 4.32009 13.8153 4.46364 13.7324L18.5366 5.60743C18.6801 5.52455 18.8507 5.50209 19.0108 5.545C19.1709 5.5879 19.3074 5.69265 19.3903 5.8362L20.0466 6.97286C19.5065 7.4503 19.1481 8.09977 19.0321 8.81122C18.9161 9.52268 19.0496 10.2524 19.41 10.8766C19.7705 11.5009 20.3356 11.9814 21.0098 12.2366C21.6839 12.4919 22.4256 12.5063 23.1091 12.2773L23.7653 13.4139C23.8482 13.5575 23.8707 13.7281 23.8278 13.8882C23.7849 14.0483 23.6801 14.1848 23.5366 14.2677L9.46364 22.3927C9.32009 22.4756 9.14949 22.498 8.98938 22.4551C8.82927 22.4122 8.69276 22.3075 8.60988 22.1639L7.95363 21.0273C8.49369 20.5498 8.85209 19.9003 8.96809 19.1889C9.0841 18.4774 8.95058 17.7478 8.59015 17.1235C8.22973 16.4992 7.66457 16.0188 6.99043 15.7635C6.31629 15.5082 5.57464 15.4939 4.89113 15.7229L4.23488 14.5862Z" fill="#660066"/>
</g>
<defs>
<clipPath id="clip0_507_10331">
<rect width="20" height="20" fill="white" transform="translate(0.339844 10.3398) rotate(-30)"/>
</clipPath>
</defs>
</svg>
