<svg width="12" height="12" viewBox="0 0 12 12" fill="none" xmlns="http://www.w3.org/2000/svg">
<path d="M1.39648 1.39906V11.7938C1.39648 11.9042 1.48599 11.9938 1.59641 11.9938H9.1926C9.30294 11.9938 9.39244 11.9042 9.39244 11.7938V3.39811C9.39244 3.39366 9.3903 3.38988 9.38989 3.38551C9.3889 3.36797 9.38544 3.35068 9.37968 3.33413C9.37746 3.32771 9.37589 3.32153 9.37309 3.31528C9.36338 3.29354 9.34987 3.27369 9.33307 3.25673L7.33411 1.25776C7.31714 1.24088 7.29722 1.22738 7.27531 1.21775C7.2693 1.21519 7.26321 1.21305 7.25695 1.21116C7.24024 1.20539 7.22286 1.20194 7.20516 1.20078C7.20179 1.20136 7.19783 1.19922 7.19363 1.19922H1.59641C1.48599 1.19922 1.39648 1.28864 1.39648 1.39906ZM8.71001 3.19819H7.39347V1.88165L8.71001 3.19819ZM1.79625 1.59898H6.99371V3.39811C6.99371 3.50845 7.08322 3.59795 7.19355 3.59795H8.99268V11.594H1.79625V1.59898Z" fill="#70747E"/>
<path d="M9.79213 10.3948V10.7945H10.3918C10.5022 10.7945 10.5917 10.7051 10.5917 10.5947V0.199922C10.5917 0.0895036 10.5022 0 10.3918 0H2.79562C2.68521 0 2.5957 0.0895036 2.5957 0.199922V0.799604H2.99555V0.399761H10.1919V10.3948H9.79213Z" fill="#70747E"/>
<path d="M2.99609 3.99805H7.79362V4.3978H2.99609V3.99805Z" fill="#70747E"/>
<path d="M2.99609 2.79834H4.5953V3.19818H2.99609V2.79834Z" fill="#70747E"/>
<path d="M2.99609 5.19727H6.19451V5.5971H2.99609V5.19727Z" fill="#70747E"/>
<path d="M6.59375 5.19727H7.79312V5.5971H6.59375V5.19727Z" fill="#70747E"/>
<path d="M2.99609 6.39697H7.79362V6.79683H2.99609V6.39697Z" fill="#70747E"/>
<path d="M2.99609 8.79541H7.79362V9.19525H2.99609V8.79541Z" fill="#70747E"/>
<path d="M4.79492 7.59619H7.79341V7.99595H4.79492V7.59619Z" fill="#70747E"/>
<path d="M2.99609 7.59619H4.39538V7.99595H2.99609V7.59619Z" fill="#70747E"/>
<path d="M2.99609 9.99512H3.7957V10.3949H2.99609V9.99512Z" fill="#70747E"/>
<path d="M4.19531 9.99512H7.79348V10.3949H4.19531V9.99512Z" fill="#70747E"/>
</svg>
