<svg width="12" height="12" viewBox="0 0 12 12" fill="none" xmlns="http://www.w3.org/2000/svg">
<path d="M10.2427 1.75734C9.10938 0.624117 7.60266 0 6 0C4.39734 0 2.89062 0.624117 1.75734 1.75734C0.624117 2.89062 0 4.39734 0 6C0 7.60266 0.624117 9.10938 1.75734 10.2427C2.89062 11.3759 4.39734 12 6 12C7.60266 12 9.10938 11.3759 10.2427 10.2427C11.3759 9.10938 12 7.60266 12 6C12 4.39734 11.3759 2.89062 10.2427 1.75734ZM9.99405 9.99405C8.9272 11.0609 7.50877 11.6484 6 11.6484C4.49123 11.6484 3.0728 11.0609 2.00595 9.99405C0.939094 8.9272 0.351562 7.50877 0.351562 6C0.351562 4.49123 0.939094 3.0728 2.00595 2.00595C3.0728 0.939094 4.49123 0.351562 6 0.351562C7.50877 0.351562 8.9272 0.939094 9.99405 2.00595C11.0609 3.0728 11.6484 4.49123 11.6484 6C11.6484 7.50877 11.0609 8.9272 9.99405 9.99405Z" fill="#70747E"/>
<path d="M6 1.87891C5.90292 1.87891 5.82422 1.95761 5.82422 2.05469V2.80619C5.82422 2.90327 5.90292 2.98197 6 2.98197C6.09708 2.98197 6.17578 2.90329 6.17578 2.80621V2.05469C6.17578 1.95761 6.09708 1.87891 6 1.87891Z" fill="#70747E"/>
<path d="M6 9.01807C5.90292 9.01807 5.82422 9.09677 5.82422 9.19385V9.94535C5.82422 10.0424 5.90292 10.1211 6 10.1211C6.09708 10.1211 6.17578 10.0424 6.17578 9.94535V9.19385C6.17578 9.09677 6.09708 9.01807 6 9.01807Z" fill="#70747E"/>
<path d="M9.94584 5.82422H9.19434C9.09726 5.82422 9.01855 5.90292 9.01855 6C9.01855 6.09708 9.09726 6.17578 9.19434 6.17578H9.94584C10.0429 6.17578 10.1216 6.09708 10.1216 6C10.1216 5.90292 10.0429 5.82422 9.94584 5.82422Z" fill="#70747E"/>
<path d="M2.80619 5.82422H2.05469C1.95761 5.82422 1.87891 5.90292 1.87891 6C1.87891 6.09708 1.95761 6.17578 2.05469 6.17578H2.80619C2.90327 6.17578 2.98197 6.09708 2.98197 6C2.98197 5.90292 2.90327 5.82422 2.80619 5.82422Z" fill="#70747E"/>
<path d="M2.99632 4.06303L2.67092 3.87515C2.58683 3.82659 2.47934 3.85542 2.43081 3.93949C2.38227 4.02356 2.41107 4.13107 2.49514 4.1796L2.82054 4.36748C2.84822 4.38346 2.87846 4.39106 2.90827 4.39106C2.96902 4.39106 3.0281 4.35951 3.06066 4.30314C3.1092 4.21907 3.08039 4.11157 2.99632 4.06303Z" fill="#70747E"/>
<path d="M9.50511 7.82035L9.17971 7.63248C9.09564 7.58391 8.98813 7.61274 8.93959 7.69681C8.89106 7.78088 8.91986 7.88839 9.00393 7.93693L9.32933 8.12481C9.35701 8.14079 9.38725 8.14839 9.41706 8.14839C9.47781 8.14839 9.53689 8.11684 9.56945 8.06047C9.61798 7.9764 9.58918 7.86889 9.50511 7.82035Z" fill="#70747E"/>
<path d="M8.06093 2.43082C7.97687 2.38225 7.86936 2.41108 7.82082 2.49515L7.63295 2.82056C7.58442 2.90463 7.61322 3.01213 7.69729 3.06067C7.72497 3.07666 7.7552 3.08425 7.78501 3.08425C7.84576 3.08425 7.90484 3.0527 7.9374 2.99634L8.12527 2.67093C8.17381 2.58686 8.145 2.47935 8.06093 2.43082Z" fill="#70747E"/>
<path d="M4.30314 8.93912C4.21905 8.89055 4.11154 8.91938 4.06302 9.00345L3.87514 9.32887C3.8266 9.41294 3.85541 9.52045 3.93948 9.56899C3.96716 9.58497 3.99739 9.59257 4.02721 9.59257C4.08796 9.59257 4.14704 9.56102 4.1796 9.50465L4.36748 9.17924C4.41602 9.09517 4.38721 8.98766 4.30314 8.93912Z" fill="#70747E"/>
<path d="M9.56945 3.93948C9.52091 3.85541 9.41338 3.8266 9.32933 3.87514L9.00393 4.06301C8.91986 4.11155 8.89106 4.21906 8.93959 4.30313C8.97215 4.35952 9.03123 4.39104 9.09198 4.39104C9.1218 4.39104 9.15203 4.38345 9.17971 4.36747L9.50511 4.17959C9.58918 4.13105 9.61798 4.02355 9.56945 3.93948Z" fill="#70747E"/>
<path d="M3.06066 7.69682C3.01212 7.61272 2.90461 7.58392 2.82054 7.63248L2.49514 7.82036C2.41107 7.8689 2.38227 7.97641 2.43081 8.06048C2.46336 8.11687 2.52244 8.1484 2.58319 8.1484C2.61301 8.1484 2.64324 8.1408 2.67092 8.12482L2.99632 7.93694C3.08039 7.88842 3.1092 7.78091 3.06066 7.69682Z" fill="#70747E"/>
<path d="M4.36748 2.82056L4.1796 2.49516C4.13106 2.41106 4.02355 2.38226 3.93948 2.43082C3.85541 2.47936 3.8266 2.58687 3.87514 2.67094L4.06302 2.99635C4.09557 3.05274 4.15466 3.08426 4.21541 3.08426C4.24523 3.08426 4.27546 3.07667 4.30314 3.06068C4.38721 3.01214 4.41602 2.90464 4.36748 2.82056Z" fill="#70747E"/>
<path d="M8.12527 9.32887L7.9374 9.00345C7.88888 8.91938 7.78136 8.89055 7.69729 8.93912C7.61322 8.98766 7.58442 9.09517 7.63295 9.17924L7.82082 9.50465C7.85338 9.56104 7.91246 9.59257 7.97321 9.59257C8.00302 9.59257 8.03326 9.58497 8.06093 9.56899C8.145 9.52045 8.17381 9.41294 8.12527 9.32887Z" fill="#70747E"/>
<path d="M8.61575 5.59763C8.60101 5.5017 8.51143 5.43587 8.41529 5.45063L6.48936 5.74693C6.39746 5.56988 6.21249 5.44859 5.99963 5.44859C5.91158 5.44859 5.82833 5.46945 5.75441 5.50632L3.8694 3.62131C3.80075 3.55266 3.68945 3.55266 3.62082 3.62131C3.55217 3.68996 3.55217 3.80126 3.62082 3.86989L5.50583 5.7549C5.46896 5.82882 5.4481 5.91207 5.4481 6.00012C5.4481 6.30425 5.69553 6.55165 5.99963 6.55165C6.2716 6.55165 6.49808 6.35372 6.54294 6.09439L8.46878 5.79812C8.5647 5.78333 8.63052 5.69358 8.61575 5.59763ZM5.99961 6.20009C5.88934 6.20009 5.79964 6.11037 5.79964 6.00012C5.79964 5.88987 5.88936 5.80015 5.99961 5.80015C6.10986 5.80015 6.19958 5.88987 6.19958 6.00012C6.19958 6.11037 6.10988 6.20009 5.99961 6.20009Z" fill="#70747E"/>
<path d="M9.15806 2.29085C8.22853 1.49781 7.04208 1.0859 5.81712 1.13132C4.58531 1.17686 3.42659 1.68229 2.55443 2.55445C1.68227 3.4266 1.17685 4.58533 1.13131 5.81713C1.086 7.04205 1.4978 8.22857 2.29083 9.15808C2.32559 9.19883 2.37495 9.21976 2.42463 9.21976C2.46499 9.21976 2.50554 9.20596 2.53863 9.17772C2.61249 9.11472 2.62127 9.00376 2.55827 8.92991C1.8226 8.0676 1.44056 6.96677 1.48261 5.83012C1.52487 4.68728 1.99381 3.61225 2.80301 2.80302C3.61221 1.9938 4.68726 1.52488 5.8301 1.48263C6.96682 1.4406 8.06758 1.82261 8.92989 2.55829C9.00372 2.62129 9.1147 2.6125 9.1777 2.53865C9.2407 2.4648 9.23191 2.35385 9.15806 2.29085Z" fill="#70747E"/>
<path d="M9.70919 2.84198C9.64619 2.76812 9.53523 2.75931 9.46138 2.82233C9.38753 2.88534 9.37874 2.99629 9.44174 3.07014C10.1774 3.93245 10.5594 5.03332 10.5174 6.16994C10.4751 7.31278 10.0062 8.38781 9.19701 9.19704C8.38781 10.0063 7.31275 10.4752 6.16992 10.5174C5.03339 10.5595 3.93244 10.1775 3.07013 9.44178C2.9963 9.37878 2.88533 9.38757 2.82233 9.46142C2.75933 9.53527 2.76811 9.64622 2.84197 9.70922C3.72525 10.4628 4.84055 10.8721 6.0004 10.8721C6.0611 10.8721 6.12199 10.871 6.18293 10.8687C7.41473 10.8232 8.57345 10.3178 9.44561 9.44562C10.3178 8.57346 10.8232 7.41473 10.8687 6.18293C10.914 4.95803 10.5022 3.77151 9.70919 2.84198Z" fill="#70747E"/>
</svg>
