<svg width="18" height="21" viewBox="0 0 18 21" fill="none" xmlns="http://www.w3.org/2000/svg">
<path d="M2.4 1.2H12C12.3183 1.2 12.6235 1.32643 12.8485 1.55147C13.0736 1.77652 13.2 2.08174 13.2 2.4V8.4264C13.606 8.46318 14.0077 8.5375 14.4 8.6484V2.4C14.4 1.76348 14.1471 1.15303 13.6971 0.702944C13.247 0.252856 12.6365 0 12 0H2.4C1.76348 0 1.15303 0.252856 0.702944 0.702944C0.252856 1.15303 0 1.76348 0 2.4V16.8C0 17.4365 0.252856 18.047 0.702944 18.4971C1.15303 18.9471 1.76348 19.2 2.4 19.2H7.5084C7.20277 18.8298 6.9384 18.4275 6.72 18H2.4C2.08174 18 1.77652 17.8736 1.55147 17.6485C1.32643 17.4235 1.2 17.1183 1.2 16.8H6.2484C6.13736 16.4077 6.06304 16.006 6.0264 15.6H1.2V2.4C1.2 2.08174 1.32643 1.77652 1.55147 1.55147C1.77652 1.32643 2.08174 1.2 2.4 1.2ZM3.6 2.4C3.28174 2.4 2.97652 2.52643 2.75147 2.75147C2.52643 2.97652 2.4 3.28174 2.4 3.6V4.8C2.4 5.11826 2.52643 5.42348 2.75147 5.64853C2.97652 5.87357 3.28174 6 3.6 6H10.8C11.1183 6 11.4235 5.87357 11.6485 5.64853C11.8736 5.42348 12 5.11826 12 4.8V3.6C12 3.28174 11.8736 2.97652 11.6485 2.75147C11.4235 2.52643 11.1183 2.4 10.8 2.4H3.6ZM10.8 3.6V4.8H3.6V3.6H10.8ZM18 15C18 16.4322 17.4311 17.8057 16.4184 18.8184C15.4057 19.8311 14.0322 20.4 12.6 20.4C11.1678 20.4 9.79432 19.8311 8.78162 18.8184C7.76893 17.8057 7.2 16.4322 7.2 15C7.2 13.5678 7.76893 12.1943 8.78162 11.1816C9.79432 10.1689 11.1678 9.6 12.6 9.6C14.0322 9.6 15.4057 10.1689 16.4184 11.1816C17.4311 12.1943 18 13.5678 18 15ZM12.024 12.6408C11.9462 12.5874 11.8558 12.5552 11.7617 12.5474C11.6676 12.5396 11.5731 12.5565 11.4876 12.5964C11.4178 12.6271 11.3546 12.6711 11.3016 12.726C11.1898 12.8406 11.1273 12.9943 11.1276 13.1544V16.8444C11.1269 16.9239 11.1419 17.0028 11.1717 17.0766C11.2016 17.1503 11.2457 17.2174 11.3016 17.274C11.3564 17.3285 11.4201 17.3731 11.49 17.406C11.6118 17.4618 11.7499 17.4703 11.8776 17.43C11.9329 17.4118 11.9854 17.3859 12.0336 17.3532L14.7888 15.4728C14.8726 15.4176 14.9402 15.3409 14.9844 15.2508C15.03 15.16 15.0534 15.0597 15.0528 14.9582C15.0522 14.8566 15.0275 14.7566 14.9808 14.6664C14.9339 14.5776 14.8649 14.5024 14.7804 14.448L12.024 12.6408Z" fill="#7AAD4F"/>
</svg>
