<svg width="24" height="21" viewBox="0 0 24 21" fill="none" xmlns="http://www.w3.org/2000/svg">
<path d="M8 16L12 20L16 16" stroke="#888C94" stroke-width="2" stroke-linecap="round" stroke-linejoin="round"/>
<path d="M12 11V20" stroke="#888C94" stroke-width="2" stroke-linecap="round" stroke-linejoin="round"/>
<path d="M20.8802 17.0899C21.7496 16.4786 22.4015 15.6061 22.7415 14.5991C23.0814 13.5921 23.0916 12.503 22.7706 11.4898C22.4496 10.4766 21.814 9.59202 20.9562 8.96449C20.0985 8.33697 19.063 7.9991 18.0002 7.99993H16.7402C16.4394 6.82781 15.8767 5.73918 15.0943 4.81601C14.3119 3.89285 13.3303 3.15919 12.2234 2.67029C11.1164 2.18138 9.91302 1.94996 8.7037 1.99345C7.49439 2.03694 6.31069 2.3542 5.24173 2.92136C4.17277 3.48851 3.2464 4.29078 2.53236 5.26776C1.81833 6.24474 1.33523 7.37098 1.11944 8.56168C0.903647 9.75239 0.960787 10.9765 1.28656 12.142C1.61233 13.3074 2.19824 14.3837 3.00018 15.2899" stroke="#888C94" stroke-width="2" stroke-linecap="round" stroke-linejoin="round"/>
</svg>
