<svg width="16" height="15" viewBox="0 0 16 15" fill="none" xmlns="http://www.w3.org/2000/svg">
<path d="M7.9998 10.3066C7.55249 10.3066 7.17754 10.6826 7.17754 11.1311C7.17754 11.5796 7.55249 11.9556 7.9998 11.9556C8.43066 11.9556 8.82206 11.5796 8.80233 11.1509C8.82206 10.6793 8.4504 10.3066 7.9998 10.3066Z" fill="#414B5B"/>
<path d="M15.6107 13.2287C16.127 12.3349 16.1303 11.2696 15.6172 10.3791L10.4666 1.43468C9.95678 0.534293 9.03585 0 8.00309 0C6.97033 0 6.04939 0.537591 5.53959 1.43138L0.382367 10.3857C-0.130724 11.2861 -0.127435 12.358 0.392234 13.2518C0.905326 14.1357 1.82297 14.6667 2.84915 14.6667H13.1373C14.1668 14.6667 15.091 14.1291 15.6107 13.2287ZM14.4924 12.5823C14.2062 13.077 13.6997 13.3705 13.134 13.3705H2.84586C2.28673 13.3705 1.7835 13.0836 1.50393 12.5988C1.22107 12.1073 1.21778 11.5203 1.50064 11.0256L6.65787 2.07451C6.93744 1.58309 7.43737 1.29286 8.00309 1.29286C8.56551 1.29286 9.06874 1.58639 9.34831 2.07781L14.5022 11.0289C14.7785 11.5104 14.7752 12.0909 14.4924 12.5823Z" fill="#414B5B"/>
<path d="M7.79588 4.51841C7.40448 4.63054 7.16109 4.98674 7.16109 5.41879C7.18082 5.67934 7.19727 5.94319 7.217 6.20374C7.27292 7.19647 7.32883 8.16941 7.38475 9.16214C7.40448 9.49854 7.66431 9.7426 7.9998 9.7426C8.33528 9.7426 8.5984 9.48205 8.61485 9.14235C8.61485 8.93787 8.61485 8.74987 8.63458 8.54209C8.67076 7.90556 8.71023 7.26902 8.74641 6.63249C8.76614 6.22023 8.80232 5.80796 8.82206 5.3957C8.82206 5.24729 8.80232 5.11536 8.74641 4.98344C8.57867 4.61405 8.18727 4.42606 7.79588 4.51841Z" fill="#414B5B"/>
</svg>
