<svg width="20" height="20" viewBox="0 0 20 20" fill="none" xmlns="http://www.w3.org/2000/svg">
<g clip-path="url(#clip0_3653_4598)">
<path d="M16.8407 0H3.15926C1.41723 0 0 1.53277 0 3.4168V12.055C0 13.939 1.41723 15.4718 3.15926 15.4718H7.26926L9.48117 19.6864C9.58242 19.8792 9.78223 20 10 20C10.2178 20 10.4176 19.8792 10.5188 19.6864L12.7307 15.4718H16.8407C18.5828 15.4718 20 13.939 20 12.055V3.4168C20 1.53277 18.5828 0 16.8407 0V0ZM18.8281 12.055C18.8281 13.2928 17.9366 14.2999 16.8407 14.2999H12.3766C12.1588 14.2999 11.959 14.4207 11.8577 14.6135L10 18.1532L8.14227 14.6135C8.04102 14.4207 7.84121 14.2999 7.62344 14.2999H3.15926C2.0634 14.2999 1.17188 13.2928 1.17188 12.055V3.4168C1.17188 2.17895 2.0634 1.17188 3.15926 1.17188H16.8407C17.9366 1.17188 18.8281 2.17895 18.8281 3.4168V12.055Z" fill="#7AAD4F"/>
<path d="M9.35477 6.56873C9.68273 6.17908 9.8809 5.67674 9.8809 5.12877C9.8809 3.89385 8.87613 2.88916 7.64113 2.88916C6.40617 2.88916 5.40141 3.89385 5.40141 5.12877C5.40141 5.67674 5.59953 6.17908 5.9275 6.56873C4.62645 7.16647 3.7207 8.48182 3.7207 10.0049V10.0278C3.7207 10.6094 4.19383 11.0825 4.77539 11.0825H10.5068C11.0884 11.0825 11.5615 10.6094 11.5615 10.0278V10.0049C11.5615 8.48182 10.6558 7.16647 9.35477 6.56873ZM7.64113 4.06104C8.22996 4.06104 8.70902 4.54002 8.70902 5.12877C8.70902 5.71752 8.22996 6.19647 7.64113 6.19647C7.05234 6.19647 6.57328 5.71748 6.57328 5.12877C6.57328 4.54006 7.05234 4.06104 7.64113 4.06104ZM4.8943 9.91064C4.94398 8.51639 6.09379 7.39752 7.49996 7.39752H7.78234C9.18852 7.39752 10.3383 8.51639 10.388 9.91064H4.8943Z" fill="#7AAD4F"/>
<path d="M15.0677 4.76709C14.9819 4.76709 14.9039 4.78271 14.8414 4.8217L13.8113 5.44596C13.6552 5.53959 13.585 5.69568 13.585 5.85955C13.585 6.10147 13.741 6.34338 13.9673 6.34338C14.022 6.34338 14.0922 6.32775 14.1625 6.28096L14.3887 6.14049V10.1124C14.3887 10.3622 14.6931 10.487 14.9975 10.487C15.3018 10.487 15.6062 10.3622 15.6062 10.1124V5.14943C15.6062 4.91537 15.3175 4.76709 15.0677 4.76709Z" fill="#7AAD4F"/>
</g>
<defs>
<clipPath id="clip0_3653_4598">
<rect width="20" height="20" fill="white"/>
</clipPath>
</defs>
</svg>
