<svg width="24" height="20" viewBox="0 0 24 20" fill="none" xmlns="http://www.w3.org/2000/svg">
<path d="M22.1095 1.82602C20.9304 0.648506 19.3045 0 17.5312 0C14.4311 0 12.8282 1.57307 12.0295 2.89269C12.0195 2.90905 12.0097 2.92546 12 2.94183C11.9903 2.92546 11.9805 2.90905 11.9705 2.89269C11.1718 1.57307 9.56888 0 6.46875 0C4.69552 0 3.06961 0.648506 1.89047 1.82607C0.653719 3.06118 0 4.7519 0 6.71545C0 10.885 3.75848 13.6494 7.07447 16.0884C8.72677 17.3037 10.2874 18.4517 11.2697 19.6552C11.4476 19.8732 11.7162 20 12 20C12.2838 20 12.5524 19.8732 12.7304 19.6552C13.2356 19.0362 13.9379 18.378 14.9406 17.5838C15.3443 17.264 15.4087 16.6821 15.0844 16.284C14.7602 15.886 14.1701 15.8224 13.7664 16.1421C13.059 16.7025 12.4804 17.2092 12.0004 17.6908C10.9407 16.6254 9.59934 15.6388 8.19548 14.6063C5.08814 12.3207 1.875 9.95733 1.875 6.71545C1.875 3.85017 3.76402 1.84904 6.46875 1.84904C8.22745 1.84904 9.52608 2.50153 10.3284 3.78832C10.9655 4.80978 11.0646 5.87303 11.0652 5.87959C11.1028 6.36122 11.51 6.73514 11.9998 6.73514C12.4897 6.73514 12.8968 6.36529 12.9344 5.88366C12.9353 5.87303 13.0344 4.80978 13.6715 3.78832C14.4739 2.50153 15.7725 1.84904 17.5312 1.84904C20.236 1.84904 22.125 3.85017 22.125 6.71545C22.125 9.39832 19.9101 11.4784 17.5165 13.3266C17.1089 13.6413 17.0371 14.2224 17.3563 14.6245C17.6754 15.0264 18.2647 15.0972 18.6724 14.7824C19.811 13.9032 21.2542 12.7152 22.3157 11.32C23.449 9.83049 24 8.3243 24 6.71545C24 4.7519 23.3463 3.06118 22.1095 1.82602Z" fill="#414B5B"/>
</svg>
