<svg width="25" height="25" viewBox="0 0 25 25" fill="none" xmlns="http://www.w3.org/2000/svg">
<path d="M6.25 7.03125C5.63193 7.03125 5.02775 6.84797 4.51384 6.50459C3.99994 6.16121 3.5994 5.67316 3.36288 5.10214C3.12635 4.53112 3.06447 3.90279 3.18505 3.29659C3.30563 2.6904 3.60325 2.13358 4.04029 1.69654C4.47733 1.2595 5.03415 0.961876 5.64034 0.841297C6.24653 0.720719 6.87487 0.782604 7.44589 1.01913C8.01691 1.25565 8.50496 1.65619 8.84834 2.17009C9.19172 2.684 9.375 3.28818 9.375 3.90625C9.375 4.73505 9.04576 5.52991 8.45971 6.11596C7.87366 6.70201 7.0788 7.03125 6.25 7.03125ZM6.25 2.34375C5.94097 2.34375 5.63887 2.43539 5.38192 2.60708C5.12497 2.77877 4.9247 3.0228 4.80644 3.30831C4.68818 3.59382 4.65723 3.90798 4.71752 4.21108C4.77781 4.51418 4.92663 4.79259 5.14515 5.01111C5.36367 5.22963 5.64208 5.37844 5.94517 5.43873C6.24827 5.49902 6.56243 5.46808 6.84794 5.34981C7.13345 5.23155 7.37748 5.03128 7.54917 4.77433C7.72086 4.51738 7.8125 4.21528 7.8125 3.90625C7.8125 3.49185 7.64788 3.09442 7.35486 2.8014C7.06183 2.50837 6.6644 2.34375 6.25 2.34375Z" fill="#A9B3C2"/>
<path d="M18.75 7.03125C18.1319 7.03125 17.5277 6.84797 17.0138 6.50459C16.4999 6.16121 16.0994 5.67316 15.8629 5.10214C15.6264 4.53112 15.5645 3.90279 15.685 3.29659C15.8056 2.6904 16.1033 2.13358 16.5403 1.69654C16.9773 1.2595 17.5342 0.961876 18.1403 0.841297C18.7465 0.720719 19.3749 0.782604 19.9459 1.01913C20.5169 1.25565 21.005 1.65619 21.3483 2.17009C21.6917 2.684 21.875 3.28818 21.875 3.90625C21.875 4.73505 21.5458 5.52991 20.9597 6.11596C20.3737 6.70201 19.5788 7.03125 18.75 7.03125ZM18.75 2.34375C18.441 2.34375 18.1389 2.43539 17.8819 2.60708C17.625 2.77877 17.4247 3.0228 17.3064 3.30831C17.1882 3.59382 17.1572 3.90798 17.2175 4.21108C17.2778 4.51418 17.4266 4.79259 17.6451 5.01111C17.8637 5.22963 18.1421 5.37844 18.4452 5.43873C18.7483 5.49902 19.0624 5.46808 19.3479 5.34981C19.6335 5.23155 19.8775 5.03128 20.0492 4.77433C20.2209 4.51738 20.3125 4.21528 20.3125 3.90625C20.3125 3.49185 20.1479 3.09442 19.8549 2.8014C19.5618 2.50837 19.1644 2.34375 18.75 2.34375Z" fill="#A9B3C2"/>
<path d="M20.3125 23.4375H17.1875C16.7731 23.4375 16.3757 23.2729 16.0826 22.9799C15.7896 22.6868 15.625 22.2894 15.625 21.875V16.4062H17.1875V21.875H20.3125V14.8438H21.875V10.1562C21.875 9.94905 21.7927 9.75034 21.6462 9.60382C21.4997 9.45731 21.301 9.375 21.0938 9.375H16.0781L12.5 15.625L8.92188 9.375H3.90625C3.69905 9.375 3.50034 9.45731 3.35382 9.60382C3.20731 9.75034 3.125 9.94905 3.125 10.1562V14.8438H4.6875V21.875H7.8125V16.4062H9.375V21.875C9.375 22.2894 9.21038 22.6868 8.91735 22.9799C8.62433 23.2729 8.2269 23.4375 7.8125 23.4375H4.6875C4.2731 23.4375 3.87567 23.2729 3.58265 22.9799C3.28962 22.6868 3.125 22.2894 3.125 21.875V16.4062C2.7106 16.4062 2.31317 16.2416 2.02015 15.9486C1.72712 15.6556 1.5625 15.2582 1.5625 14.8438V10.1562C1.5625 9.53465 1.80943 8.93851 2.24897 8.49897C2.68851 8.05943 3.28465 7.8125 3.90625 7.8125H9.82812L12.5 12.5L15.1719 7.8125H21.0938C21.7154 7.8125 22.3115 8.05943 22.751 8.49897C23.1906 8.93851 23.4375 9.53465 23.4375 10.1562V14.8438C23.4375 15.2582 23.2729 15.6556 22.9799 15.9486C22.6868 16.2416 22.2894 16.4062 21.875 16.4062V21.875C21.875 22.2894 21.7104 22.6868 21.4174 22.9799C21.1243 23.2729 20.7269 23.4375 20.3125 23.4375Z" fill="#A9B3C2"/>
</svg>
