<svg width="23" height="23" viewBox="0 0 23 23" fill="none" xmlns="http://www.w3.org/2000/svg">
<path d="M19.4062 0H15.9922C14.0106 0 12.3984 1.61216 12.3984 3.59375V7.00781C12.3984 8.98941 14.0106 10.6016 15.9922 10.6016H19.4062C21.3878 10.6016 23 8.98941 23 7.00781V3.59375C23 1.61216 21.3878 0 19.4062 0ZM21.2031 7.00781C21.2031 7.99861 20.397 8.80469 19.4062 8.80469H15.9922C15.0014 8.80469 14.1953 7.99861 14.1953 7.00781V3.59375C14.1953 2.60295 15.0014 1.79688 15.9922 1.79688H19.4062C20.397 1.79688 21.2031 2.60295 21.2031 3.59375V7.00781Z" fill="#A9B3C2"/>
<path d="M7.00781 0H3.59375C1.61216 0 0 1.61216 0 3.59375V7.00781C0 8.98941 1.61216 10.6016 3.59375 10.6016H7.00781C8.98941 10.6016 10.6016 8.98941 10.6016 7.00781V3.59375C10.6016 1.61216 8.98941 0 7.00781 0ZM8.80469 7.00781C8.80469 7.99861 7.99861 8.80469 7.00781 8.80469H3.59375C2.60295 8.80469 1.79688 7.99861 1.79688 7.00781V3.59375C1.79688 2.60295 2.60295 1.79688 3.59375 1.79688H7.00781C7.99861 1.79688 8.80469 2.60295 8.80469 3.59375V7.00781Z" fill="#A9B3C2"/>
<path d="M7.00781 12.3984H3.59375C1.61216 12.3984 0 14.0106 0 15.9922V19.4062C0 21.3878 1.61216 23 3.59375 23H7.00781C8.98941 23 10.6016 21.3878 10.6016 19.4062V15.9922C10.6016 14.0106 8.98941 12.3984 7.00781 12.3984ZM8.80469 19.4062C8.80469 20.397 7.99861 21.2031 7.00781 21.2031H3.59375C2.60295 21.2031 1.79688 20.397 1.79688 19.4062V15.9922C1.79688 15.0014 2.60295 14.1953 3.59375 14.1953H7.00781C7.99861 14.1953 8.80469 15.0014 8.80469 15.9922V19.4062Z" fill="#A9B3C2"/>
<path d="M22.1016 18.5078C21.6054 18.5078 21.2031 18.91 21.2031 19.4062C21.2031 20.397 20.397 21.2031 19.4062 21.2031H15.9922C15.0014 21.2031 14.1953 20.397 14.1953 19.4062V15.9922C14.1953 15.0014 15.0014 14.1953 15.9922 14.1953H19.4062C20.1207 14.1953 20.7674 14.6184 21.0538 15.2733C21.2525 15.7279 21.7823 15.9352 22.2369 15.7365C22.6916 15.5377 22.8989 15.0079 22.7001 14.5533C22.1277 13.2443 20.8348 12.3984 19.4062 12.3984H15.9922C14.0106 12.3984 12.3984 14.0106 12.3984 15.9922V19.4062C12.3984 21.3878 14.0106 23 15.9922 23H19.4062C21.3878 23 23 21.3878 23 19.4062C23 18.91 22.5978 18.5078 22.1016 18.5078Z" fill="#A9B3C2"/>
</svg>
