<svg width="17" height="13" viewBox="0 0 17 13" fill="none" xmlns="http://www.w3.org/2000/svg">
<path d="M16.0554 2.88294C16.0569 2.69719 16.0063 2.51475 15.9095 2.35621C15.8127 2.19767 15.6735 2.06935 15.5077 1.98572C15.3504 1.90129 15.1725 1.86314 14.9945 1.87567C14.8165 1.88821 14.6457 1.95092 14.5018 2.05655L12.2777 3.47794V1.77794C12.2777 1.52746 12.1782 1.28724 12.001 1.11012C11.8239 0.933 11.5837 0.833496 11.3332 0.833496H2.83322C2.33226 0.833496 1.85181 1.0325 1.49758 1.38674C1.14334 1.74097 0.944336 2.22142 0.944336 2.72238V10.2779C0.944336 10.7789 1.14334 11.2593 1.49758 11.6136C1.85181 11.9678 2.33226 12.1668 2.83322 12.1668H11.3332C11.5837 12.1668 11.8239 12.0673 12.001 11.8902C12.1782 11.7131 12.2777 11.4729 12.2777 11.2224V9.52238L14.4688 10.9391C14.6154 11.0513 14.7907 11.1197 14.9746 11.1364C15.1584 11.1532 15.3433 11.1175 15.5077 11.0335C15.6765 10.9485 15.8176 10.8172 15.9146 10.655C16.0116 10.4928 16.0604 10.3063 16.0554 10.1174V2.88294ZM15.0779 10.1693C15.0496 10.1693 15.026 10.1693 14.9882 10.141L11.3332 7.80822V11.2224H2.83322C2.58274 11.2224 2.34252 11.1229 2.1654 10.9458C1.98828 10.7686 1.88878 10.5284 1.88878 10.2779V2.72238C1.88878 2.4719 1.98828 2.23168 2.1654 2.05456C2.34252 1.87744 2.58274 1.77794 2.83322 1.77794H11.3332V5.19211L15.0166 2.831C15.0255 2.82447 15.0362 2.82096 15.0473 2.82096C15.0583 2.82096 15.069 2.82447 15.0779 2.831C15.0883 2.835 15.0971 2.8422 15.103 2.85154C15.1089 2.86089 15.1118 2.87189 15.111 2.88294V10.1174C15.1118 10.1284 15.1089 10.1394 15.103 10.1488C15.0971 10.1581 15.0883 10.1653 15.0779 10.1693Z" fill="#888C94"/>
</svg>
