<svg width="29" height="28" viewBox="0 0 29 28" fill="none" xmlns="http://www.w3.org/2000/svg">
<path d="M21.9589 7.02421C20.452 5.52009 18.4525 4.69238 16.3275 4.69238C16.3221 4.69238 16.317 4.69238 16.3119 4.69238C14.1826 4.69633 12.1747 5.54813 10.6579 7.09057C9.13288 8.64151 8.3107 10.6785 8.3427 12.8266C8.37252 14.83 9.14295 16.7369 10.5124 18.196C11.6385 19.3961 12.2588 20.9498 12.2588 22.5709C12.2588 22.9896 12.5983 23.3293 13.0172 23.3293H19.6373C20.0562 23.3293 20.3957 22.9896 20.3957 22.5707C20.3957 20.9417 21.0093 19.3951 22.1234 18.2159C23.5353 16.7216 24.3128 14.7645 24.3128 12.7048C24.3128 10.5566 23.4768 8.5392 21.9589 7.02421Z" fill="#A9B3C2"/>
<path d="M19.5383 27.5431H13.1163C12.6976 27.5431 12.3579 26.9868 12.3579 26.3004C12.3579 25.6143 12.6976 25.0576 13.1163 25.0576H19.5383C19.9572 25.0576 20.2967 25.6143 20.2967 26.3004C20.2967 26.9868 19.9572 27.5431 19.5383 27.5431Z" fill="#A9B3C2"/>
<path d="M21.9592 7.02421C20.4523 5.52009 18.4529 4.69238 16.3278 4.69238C16.3276 4.69238 16.3276 4.69238 16.3276 4.69238V23.3293H19.6377C20.0564 23.3293 20.3961 22.9896 20.3961 22.5707C20.3961 20.9417 21.0095 19.3951 22.1237 18.2159C23.5356 16.7216 24.3132 14.7645 24.3132 12.7048C24.3132 10.5566 23.4772 8.5392 21.9592 7.02421Z" fill="#DDE6F0"/>
<path d="M20.7256 4.75155L20.6506 4.88144C20.2495 4.64975 20.1118 4.1372 20.3436 3.73589C20.3436 3.73588 20.3436 3.73586 20.3436 3.73585L21.0321 2.54315C21.2635 2.14161 21.7761 2.00263 22.1779 2.23612M20.7256 4.75155L22.1027 2.36592M20.7256 4.75155L20.6506 4.88144C21.0481 5.11103 21.5622 4.97835 21.7961 4.57459L21.7962 4.5744L22.4847 3.38162L20.7256 4.75155ZM22.1779 2.23612C22.1779 2.23616 22.178 2.23621 22.1781 2.23626L22.1027 2.36592M22.1779 2.23612C22.1778 2.23609 22.1778 2.23606 22.1777 2.23603L22.1027 2.36592M22.1779 2.23612C22.5789 2.46784 22.7165 2.98032 22.4847 3.38158L22.3548 3.30659C22.5451 2.97711 22.4322 2.55623 22.1027 2.36592M16.3811 3.74564L16.3669 3.89497C15.9057 3.85124 15.5672 3.44245 15.611 2.98107M16.3811 3.74564L16.6404 1.00332C16.261 0.96619 15.9256 1.24469 15.89 1.62408L15.7406 1.60996L15.7406 1.61004L15.611 2.98107M16.3811 3.74564L16.3669 3.89497C16.8239 3.9383 17.2362 3.60368 17.2808 3.13923L17.2808 3.139L17.4104 1.76788M16.3811 3.74564L16.6547 0.854012C17.1158 0.897856 17.4542 1.30658 17.4104 1.76788M15.611 2.98107L15.7603 2.99523L15.611 2.98112L15.611 2.98107ZM17.4104 1.76788L17.2611 1.75372L17.4104 1.76784L17.4104 1.76788ZM10.7033 4.57407L10.7034 4.57428C10.9377 4.97866 11.4521 5.11035 11.8489 4.88111C12.2501 4.64947 12.3877 4.13686 12.1559 3.73556C12.1559 3.73555 12.1559 3.73554 12.1559 3.73553L11.4674 2.54275L11.4673 2.54263C11.2354 2.14164 10.7209 2.00199 10.3214 2.23595C9.92058 2.46771 9.7831 2.98011 10.0148 3.38126C10.0148 3.38127 10.0148 3.38128 10.0148 3.38129L10.7033 4.57407ZM23.8706 8.10184L23.8707 8.102C24.105 8.50643 24.6193 8.63807 25.0161 8.40886C25.0162 8.40886 25.0162 8.40885 25.0162 8.40884L26.209 7.72033L26.209 7.72032C26.6101 7.48866 26.7477 6.97602 26.516 6.57474C26.2845 6.17378 25.7699 6.03578 25.3704 6.26775C25.3703 6.2678 25.3702 6.26786 25.3701 6.26792L24.1776 6.95623L24.1776 6.95624C23.7765 7.18789 23.6388 7.70053 23.8706 8.10184ZM25.8885 13.3405H27.3114C27.7749 13.3405 28.15 12.9654 28.15 12.502C28.15 12.0385 27.7749 11.6634 27.3114 11.6634H25.8885C25.4251 11.6634 25.0499 12.0385 25.0499 12.502C25.0499 12.9654 25.4251 13.3405 25.8885 13.3405Z" fill="#DDE6F0" stroke="#DDE6F0" stroke-width="0.3"/>
<path d="M0 16.8828C0 15.4698 1.14553 14.3242 2.55862 14.3242H9.86895C11.282 14.3242 12.4276 15.4698 12.4276 16.8828V24.1932C12.4276 25.6062 11.282 26.7518 9.86895 26.7518H2.55862C1.14553 26.7518 0 25.6062 0 24.1932V16.8828Z" fill="#DDE6F0"/>
<path d="M4.72232 23.7867C4.58673 23.7867 4.48778 23.7556 4.42548 23.6933C4.36318 23.631 4.33203 23.532 4.33203 23.3964V17.2397C4.33203 17.1335 4.37967 17.0547 4.47495 17.0034C4.57024 16.9484 4.71866 16.9209 4.92021 16.9209H5.25003C5.45159 16.9209 5.60001 16.9484 5.69529 17.0034C5.79058 17.0547 5.83822 17.1335 5.83822 17.2397V22.5059H8.01504C8.11765 22.5059 8.19094 22.5444 8.23492 22.6213C8.28256 22.6983 8.30638 22.8211 8.30638 22.9896V23.2975C8.30638 23.4697 8.28256 23.5943 8.23492 23.6713C8.19094 23.7482 8.11765 23.7867 8.01504 23.7867H4.72232Z" fill="white"/>
</svg>
