<svg width="23" height="22" viewBox="0 0 23 22" fill="none" xmlns="http://www.w3.org/2000/svg">
<path d="M17.0385 5.67456C15.8692 4.50747 14.3178 3.86523 12.6689 3.86523C12.6648 3.86523 12.6608 3.86523 12.6568 3.86523C11.0047 3.8683 9.44671 4.52923 8.26981 5.72605C7.08648 6.92946 6.44853 8.50999 6.47335 10.1768C6.49649 11.7313 7.09429 13.2108 8.15687 14.343C9.03066 15.2742 9.51199 16.4798 9.51199 17.7376C9.51199 18.0625 9.77541 18.3261 10.1004 18.3261H15.2371C15.5621 18.3261 15.8256 18.0625 15.8256 17.7374C15.8256 16.4735 16.3017 15.2735 17.1661 14.3585C18.2616 13.199 18.865 11.6804 18.865 10.0823C18.865 8.41544 18.2163 6.85008 17.0385 5.67456Z" fill="#53822C"/>
<path d="M15.1603 21.5956H10.1773C9.85244 21.5956 9.58887 21.1639 9.58887 20.6313C9.58887 20.0989 9.85244 19.667 10.1773 19.667H15.1603C15.4853 19.667 15.7487 20.0989 15.7487 20.6313C15.7487 21.1639 15.4853 21.5956 15.1603 21.5956Z" fill="#53822C"/>
<path d="M17.0386 5.67456C15.8694 4.50747 14.318 3.86523 12.6691 3.86523C12.6689 3.86523 12.6689 3.86523 12.6689 3.86523V18.3261H15.2373C15.5622 18.3261 15.8257 18.0625 15.8257 17.7374C15.8257 16.4735 16.3017 15.2735 17.1663 14.3585C18.2618 13.199 18.8651 11.6804 18.8651 10.0823C18.8651 8.41544 18.2165 6.85008 17.0386 5.67456Z" fill="#91C467"/>
<path d="M12.7105 3.13041L12.6963 3.27974C12.32 3.24406 12.0438 2.91049 12.0795 2.53399M12.7105 3.13041L12.9117 1.00258C12.6173 0.973766 12.3571 1.18986 12.3294 1.48424L12.1801 1.47012L12.1801 1.4702L12.0795 2.53399M12.7105 3.13041L12.6963 3.27974C13.0693 3.3151 13.4057 3.04207 13.4421 2.66309L13.4421 2.66287L13.5427 1.59899L12.7105 3.13041ZM12.0795 2.53399L12.2288 2.54815L12.0795 2.53403L12.0795 2.53399ZM8.27587 3.79001L8.27599 3.79022C8.46714 4.12017 8.88684 4.22763 9.2107 4.04056C9.538 3.85154 9.65035 3.43325 9.46123 3.10579C9.46122 3.10578 9.46121 3.10576 9.46121 3.10575L8.92698 2.18025L8.92691 2.18014C8.73776 1.85312 8.31798 1.73894 7.99173 1.92996C7.66475 2.11908 7.55259 2.53716 7.74162 2.86448C7.74163 2.86449 7.74164 2.8645 7.74165 2.86452L8.27587 3.79001ZM18.4927 6.5273L18.4928 6.52746C18.6839 6.85747 19.1037 6.96487 19.4275 6.77781L20.353 6.24358L20.353 6.24357C20.6804 6.05454 20.7926 5.63622 20.6036 5.30877C20.4146 4.98159 19.9947 4.86892 19.6685 5.05837C19.6685 5.05839 19.6684 5.05842 19.6684 5.05845L18.7432 5.59247L18.7432 5.59249C18.4159 5.7815 18.3035 6.19983 18.4927 6.5273ZM16.0065 4.04081L16.0815 3.91092L16.0065 4.04081C16.3309 4.22817 16.7504 4.1199 16.9412 3.79046L16.9413 3.79027L17.4756 2.86477C17.6647 2.53733 17.5524 2.11914 17.2252 1.93005C16.8973 1.7395 16.479 1.85301 16.2902 2.18058L15.756 3.106C15.756 3.10602 15.756 3.10603 15.756 3.10604C15.5669 3.43352 15.6792 3.85177 16.0065 4.04081ZM20.0875 10.6089H21.1916C21.5698 10.6089 21.8759 10.3028 21.8759 9.92465C21.8759 9.54651 21.5698 9.2404 21.1916 9.2404H20.0875C19.7094 9.2404 19.4033 9.54651 19.4033 9.92465C19.4033 10.3028 19.7094 10.6089 20.0875 10.6089Z" fill="#91C467" stroke="#91C467" stroke-width="0.3"/>
<path d="M0 13.3242C0 12.2277 0.888846 11.3389 1.98529 11.3389H7.65756C8.75401 11.3389 9.64286 12.2277 9.64286 13.3242V18.9964C9.64286 20.0929 8.75401 20.9817 7.65756 20.9817H1.9853C0.888848 20.9817 0 20.0929 0 18.9964V13.3242Z" fill="#91C467"/>
<path d="M3.66416 18.6809C3.55895 18.6809 3.48218 18.6567 3.43384 18.6084C3.3855 18.56 3.36133 18.4833 3.36133 18.378V13.6009C3.36133 13.5184 3.39829 13.4573 3.47223 13.4175C3.54616 13.3748 3.66132 13.3535 3.81771 13.3535H4.07363C4.23002 13.3535 4.34519 13.3748 4.41912 13.4175C4.49305 13.4573 4.53001 13.5184 4.53001 13.6009V17.6871H6.21907C6.29868 17.6871 6.35555 17.7169 6.38968 17.7766C6.42664 17.8363 6.44513 17.9316 6.44513 18.0624V18.3013C6.44513 18.4349 6.42664 18.5316 6.38968 18.5913C6.35555 18.651 6.29868 18.6809 6.21907 18.6809H3.66416Z" fill="white"/>
</svg>
