<svg width="24" height="24" viewBox="0 0 24 24" fill="none" xmlns="http://www.w3.org/2000/svg">
<g clip-path="url(#clip0_1526_4250)">
<path d="M21.001 3.74854H6.00631C5.17818 3.74854 4.50684 4.41988 4.50684 5.24801C4.50684 6.07614 5.17818 6.74748 6.00631 6.74748H21.001C21.8291 6.74748 22.5005 6.07614 22.5005 5.24801C22.5005 4.41988 21.8291 3.74854 21.001 3.74854Z" fill="white"/>
<path d="M3.00734 5.24804C3.00565 4.85101 2.84657 4.47085 2.565 4.19091C1.98016 3.60954 1.03558 3.60954 0.450743 4.19091C0.169124 4.47085 0.0100394 4.85101 0.00839938 5.24804C-0.00279979 5.34518 -0.00279979 5.4433 0.00839938 5.54044C0.0253621 5.63814 0.0530086 5.73368 0.0908702 5.82534C0.131122 5.91414 0.178777 5.99942 0.23332 6.08025C0.28716 6.16431 0.349997 6.24224 0.420754 6.31267C0.48898 6.38061 0.564375 6.44097 0.645674 6.4926C0.724631 6.5501 0.810241 6.59794 0.900584 6.63505C0.999971 6.6866 1.10592 6.72446 1.21547 6.74751C1.31261 6.75839 1.41073 6.75839 1.50787 6.74751C1.90382 6.74784 2.28385 6.59152 2.565 6.31267C2.63575 6.24224 2.69859 6.16431 2.75243 6.08025C2.80697 5.99942 2.85463 5.91414 2.89488 5.82534C2.94272 5.73481 2.98044 5.63926 3.00734 5.54044C3.01854 5.4433 3.01854 5.34518 3.00734 5.24804Z" fill="white"/>
<path d="M3.00773 11.9956C3.01889 11.8985 3.01889 11.8003 3.00773 11.7032C2.98182 11.6064 2.94405 11.5133 2.89527 11.4258C2.85666 11.3338 2.80891 11.2459 2.75282 11.1634C2.70086 11.0803 2.63779 11.0046 2.56539 10.9385C1.98055 10.3571 1.03597 10.3571 0.451133 10.9385C0.169514 11.2184 0.0104291 11.5986 0.00878906 11.9956C0.0116943 12.1932 0.0497903 12.3886 0.12125 12.5729C0.15883 12.6616 0.204002 12.7469 0.256202 12.8278C0.313229 12.9093 0.37855 12.9847 0.451133 13.0527C0.517391 13.125 0.593021 13.188 0.676054 13.2401C0.755011 13.2977 0.840575 13.3455 0.930965 13.3826C1.02239 13.4211 1.11802 13.4488 1.21586 13.4651C1.31178 13.4866 1.40995 13.4966 1.50826 13.4951C1.6054 13.5063 1.70352 13.5063 1.80066 13.4951C1.89606 13.4787 1.98922 13.451 2.07806 13.4126C2.17089 13.3758 2.25898 13.3279 2.34047 13.2701C2.4235 13.218 2.49913 13.155 2.56539 13.0827C2.63765 13.0164 2.70072 12.9408 2.75282 12.8578C2.81046 12.7789 2.8583 12.6933 2.89527 12.6029C2.94649 12.5033 2.98431 12.3974 3.00773 12.288C3.01926 12.1908 3.01926 12.0927 3.00773 11.9956Z" fill="white"/>
<path d="M3.00783 18.7436C3.01893 18.6465 3.01893 18.5484 3.00783 18.4512C2.98191 18.3521 2.94414 18.2565 2.89536 18.1663C2.85511 18.0776 2.80746 17.9923 2.75292 17.9114C2.70081 17.8284 2.63774 17.7528 2.56548 17.6865C1.98064 17.1051 1.03607 17.1051 0.451225 17.6865C0.378969 17.7528 0.315898 17.8284 0.263791 17.9114C0.209248 17.9923 0.161593 18.0776 0.121341 18.1663C0.0824488 18.2576 0.0547555 18.3533 0.0388704 18.4512C0.0177372 18.5473 0.00770952 18.6453 0.00888098 18.7436C0.0105679 19.1407 0.169653 19.5208 0.451225 19.8008C0.517483 19.873 0.593113 19.9361 0.676146 19.9882C0.755103 20.0458 0.840666 20.0936 0.931056 20.1307C1.02248 20.1691 1.11812 20.1968 1.21596 20.2131C1.31188 20.2346 1.41004 20.2447 1.50835 20.2431C1.60549 20.2543 1.70361 20.2543 1.80075 20.2431C1.89615 20.2268 1.98931 20.1991 2.07815 20.1606C2.17098 20.1238 2.25907 20.076 2.34056 20.0182C2.42359 19.9661 2.49922 19.903 2.56548 19.8308C2.63774 19.7645 2.70081 19.6889 2.75292 19.6058C2.8106 19.527 2.85844 19.4414 2.89536 19.3509C2.94653 19.2514 2.98435 19.1455 3.00783 19.036C3.01935 18.9389 3.01935 18.8408 3.00783 18.7436Z" fill="white"/>
<path d="M22.5005 10.4961H6.00631C5.17818 10.4961 4.50684 11.1674 4.50684 11.9956C4.50684 12.8237 5.17818 13.495 6.00631 13.495H22.5005C23.3286 13.495 24 12.8237 24 11.9956C24 11.1674 23.3286 10.4961 22.5005 10.4961Z" fill="white"/>
<path d="M15.7529 17.2441H6.00631C5.17818 17.2441 4.50684 17.9155 4.50684 18.7436C4.50684 19.5717 5.17818 20.2431 6.00631 20.2431H15.7529C16.581 20.2431 17.2524 19.5717 17.2524 18.7436C17.2524 17.9155 16.581 17.2441 15.7529 17.2441Z" fill="white"/>
</g>
<defs>
<clipPath id="clip0_1526_4250">
<rect width="24" height="24" fill="white"/>
</clipPath>
</defs>
</svg>
