<svg width="14" height="13" viewBox="0 0 14 13" fill="none" xmlns="http://www.w3.org/2000/svg">
<path d="M6.70543 0C4.66868 0 3.00263 1.66724 3.00263 3.70399C3.00263 4.94937 3.62739 6.05221 4.57718 6.72317C2.36625 7.60951 0.798044 9.77192 0.798044 12.2945C0.780393 13.0897 1.98236 13.0897 1.96471 12.2945C1.96471 9.61693 4.1236 7.45918 6.80114 7.45918C7.73579 7.45918 8.60337 7.72556 9.34183 8.1826C10.0057 8.58973 10.6163 7.59401 9.9525 7.18688C9.62003 6.98118 9.25976 6.82076 8.88838 6.68213C9.80522 6.00773 10.4048 4.92461 10.4048 3.70399C10.4048 1.66724 8.74219 0 6.70543 0ZM6.70543 1.16783C8.11167 1.16783 9.23815 2.29775 9.23815 3.70399C9.23815 5.11023 8.11167 6.23551 6.70543 6.23551C5.2992 6.23551 4.1693 5.11023 4.1693 3.70399C4.1693 2.29775 5.2992 1.16783 6.70543 1.16783ZM10.284 11.0936H10.6406C11.2578 11.0936 10.6406 11.0936 11.2578 11.0936H11.4507H12.6185C13.3971 11.0936 13.3971 9.92583 12.6185 9.92583H11.4507C11.4507 9.92583 11.2034 9.92264 10.8763 9.92583C10.5537 9.92804 10.8125 9.92583 10.5 9.92583H10.284H9.08947C8.28302 9.96309 8.33884 11.1308 9.11738 11.0936H10.284Z" fill="#414B5B"/>
</svg>
