<svg width="17" height="17" viewBox="0 0 17 17" fill="none" xmlns="http://www.w3.org/2000/svg">
<path d="M10.6722 7.71015L7.33949 5.28751C7.21719 5.19885 7.05482 5.1855 6.92076 5.2544C6.78564 5.32276 6.70125 5.46163 6.70125 5.61171V10.4554C6.70125 10.6071 6.78564 10.7454 6.92076 10.8138C6.97791 10.8426 7.0404 10.857 7.10342 10.857C7.18567 10.857 7.26899 10.8309 7.33949 10.779L10.6722 8.35854C10.7774 8.2811 10.8389 8.16146 10.8389 8.03435C10.8394 7.9051 10.7764 7.78599 10.6722 7.71015Z" fill="#414B5B" fill-opacity="0.8"/>
<path d="M8.02527 0C3.5923 0 0 3.5923 0 8.02527C0 12.4566 3.5923 16.0479 8.02527 16.0479C12.4572 16.0479 16.05 12.4561 16.05 8.02527C16.0505 3.5923 12.4572 0 8.02527 0ZM8.02527 14.7089C4.33362 14.7089 1.34057 11.7174 1.34057 8.02527C1.34057 4.33469 4.33362 1.3395 8.02527 1.3395C11.7164 1.3395 14.7089 4.33416 14.7089 8.02527C14.7094 11.7174 11.7164 14.7089 8.02527 14.7089Z" fill="#414B5B" fill-opacity="0.8"/>
</svg>
