<svg width="24" height="20" viewBox="0 0 24 20" fill="none" xmlns="http://www.w3.org/2000/svg">
<path d="M2.42441 12.758C3.91395 14.6304 5.84842 16.1357 7.86026 17.4943C7.86026 17.4943 10.259 19.073 11.3616 19.8073C11.7679 20.0642 12.29 20.0642 12.6769 19.8073C13.7795 19.073 16.1589 17.4943 16.1589 17.4943C18.1708 16.1359 20.0666 14.649 21.5754 12.758C22.8524 11.1426 23.8001 9.23351 23.9742 7.21425C24.2837 3.54288 21.7882 0.0183569 17.6485 0.0183569C15.2304 0.0183569 13.1025 1.26662 12.0192 3.12067C10.8972 1.24827 8.78861 0 6.37053 0C2.25011 0 -0.284042 3.52452 0.0254729 7.1959C0.199769 9.21515 1.12831 11.1426 2.42441 12.758Z" fill="#EA4C68"/>
</svg>
