<svg width="24" height="24" viewBox="0 0 24 24" fill="none" xmlns="http://www.w3.org/2000/svg">
<path d="M11.7809 9.22013C11.4884 8.92763 11.0129 8.92613 10.7189 9.21863L8.24986 11.6891L7.28086 10.7186C6.98835 10.4261 6.51285 10.4261 6.22035 10.7186C5.92785 11.0111 5.92785 11.4866 6.22035 11.7791L7.72036 13.2791C7.86586 13.4261 8.05786 13.4996 8.24986 13.4996C8.44186 13.4996 8.63386 13.4261 8.78086 13.2806L11.7809 10.2806C12.0734 9.98813 12.0734 9.51263 11.7809 9.22013Z" fill="#414B5B"/>
<path d="M11.7809 15.2201C11.4884 14.9276 11.0129 14.9261 10.7189 15.2186L8.24986 17.6891L7.28086 16.7201C6.98835 16.4276 6.51285 16.4276 6.22035 16.7201C5.92785 17.0126 5.92785 17.4881 6.22035 17.7806L7.72036 19.2806C7.86586 19.4261 8.05786 19.4996 8.24986 19.4996C8.44186 19.4996 8.63386 19.4261 8.78086 19.2806L11.7809 16.2806C12.0734 15.9881 12.0734 15.5126 11.7809 15.2201Z" fill="#414B5B"/>
<path d="M17.25 10.5H14.25C13.836 10.5 13.5 10.836 13.5 11.25C13.5 11.664 13.836 12 14.25 12H17.25C17.664 12 18 11.664 18 11.25C18 10.836 17.664 10.5 17.25 10.5Z" fill="#414B5B"/>
<path d="M17.25 16.5H14.25C13.836 16.5 13.5 16.836 13.5 17.25C13.5 17.664 13.836 18 14.25 18H17.25C17.664 18 18 17.664 18 17.25C18 16.836 17.664 16.5 17.25 16.5Z" fill="#414B5B"/>
<path d="M19.5 3H16.5V2.25C16.5 1.836 16.164 1.5 15.75 1.5H14.1225C13.812 0.627 12.978 0 12 0C11.022 0 10.188 0.627 9.8775 1.5H8.25C7.836 1.5 7.5 1.836 7.5 2.25V3H4.5C3.6735 3 3 3.6735 3 4.5V22.5C3 23.3265 3.6735 24 4.5 24H19.5C20.3265 24 21 23.3265 21 22.5V4.5C21 3.6735 20.3265 3 19.5 3ZM9 3H10.5C10.914 3 11.25 2.664 11.25 2.25C11.25 1.836 11.586 1.5 12 1.5C12.414 1.5 12.75 1.836 12.75 2.25C12.75 2.664 13.086 3 13.5 3H15V4.5H9V3ZM19.5 22.5H4.5V4.5H7.5V5.25C7.5 5.664 7.836 6 8.25 6H15.75C16.164 6 16.5 5.664 16.5 5.25V4.5H19.5V22.5Z" fill="#414B5B"/>
</svg>
