<svg width="21" height="21" viewBox="0 0 21 21" fill="none" xmlns="http://www.w3.org/2000/svg">
<path d="M0.691384 0.259277C0.508017 0.259277 0.332161 0.332119 0.202502 0.461779C0.072842 0.591438 0 0.767295 0 0.950661C0 1.13403 0.072842 1.30988 0.202502 1.43954C0.332161 1.5692 0.508017 1.64204 0.691384 1.64204H2.22626L2.78075 3.86415L4.85213 14.9055C4.88179 15.064 4.96587 15.2071 5.08984 15.3101C5.21381 15.4131 5.36988 15.4696 5.53107 15.4697H6.91384C6.18037 15.4697 5.47695 15.7611 4.95831 16.2797C4.43967 16.7984 4.1483 17.5018 4.1483 18.2353C4.1483 18.9687 4.43967 19.6721 4.95831 20.1908C5.47695 20.7094 6.18037 21.0008 6.91384 21.0008C7.6473 21.0008 8.35073 20.7094 8.86936 20.1908C9.388 19.6721 9.67937 18.9687 9.67937 18.2353C9.67937 17.5018 9.388 16.7984 8.86936 16.2797C8.35073 15.7611 7.6473 15.4697 6.91384 15.4697H16.5932C15.8597 15.4697 15.1563 15.7611 14.6377 16.2797C14.119 16.7984 13.8277 17.5018 13.8277 18.2353C13.8277 18.9687 14.119 19.6721 14.6377 20.1908C15.1563 20.7094 15.8597 21.0008 16.5932 21.0008C17.3267 21.0008 18.0301 20.7094 18.5487 20.1908C19.0674 19.6721 19.3587 18.9687 19.3587 18.2353C19.3587 17.5018 19.0674 16.7984 18.5487 16.2797C18.0301 15.7611 17.3267 15.4697 16.5932 15.4697H17.976C18.1372 15.4696 18.2932 15.4131 18.4172 15.3101C18.5412 15.2071 18.6253 15.064 18.6549 14.9055L20.7291 3.84341C20.7477 3.74363 20.7442 3.64095 20.7187 3.54268C20.6933 3.44441 20.6465 3.35296 20.5817 3.27482C20.5168 3.19668 20.4356 3.13377 20.3438 3.09056C20.2519 3.04735 20.1516 3.02491 20.0501 3.02481H3.9962L3.43618 0.783346C3.39885 0.633708 3.31257 0.500845 3.19106 0.405885C3.06954 0.310925 2.91976 0.25932 2.76553 0.259277H0.691384ZM6.10492 14.0869L4.28934 4.40758H19.2177L17.4021 14.0869H6.10492ZM8.2966 18.2353C8.2966 18.602 8.15092 18.9537 7.8916 19.213C7.63228 19.4723 7.28057 19.618 6.91384 19.618C6.5471 19.618 6.19539 19.4723 5.93607 19.213C5.67675 18.9537 5.53107 18.602 5.53107 18.2353C5.53107 17.8685 5.67675 17.5168 5.93607 17.2575C6.19539 16.9982 6.5471 16.8525 6.91384 16.8525C7.28057 16.8525 7.63228 16.9982 7.8916 17.2575C8.15092 17.5168 8.2966 17.8685 8.2966 18.2353ZM17.976 18.2353C17.976 18.602 17.8303 18.9537 17.571 19.213C17.3117 19.4723 16.9599 19.618 16.5932 19.618C16.2265 19.618 15.8748 19.4723 15.6154 19.213C15.3561 18.9537 15.2104 18.602 15.2104 18.2353C15.2104 17.8685 15.3561 17.5168 15.6154 17.2575C15.8748 16.9982 16.2265 16.8525 16.5932 16.8525C16.9599 16.8525 17.3117 16.9982 17.571 17.2575C17.8303 17.5168 17.976 17.8685 17.976 18.2353Z" fill="white"/>
</svg>
