<svg width="12" height="12" viewBox="0 0 12 12" fill="none" xmlns="http://www.w3.org/2000/svg">
<path d="M11.8725 4.99287L9.24294 7.68284L9.86391 11.4821C9.89093 11.6482 9.82592 11.8161 9.6959 11.9154C9.62245 11.9716 9.53506 12 9.44768 12C9.38056 12 9.31301 11.9832 9.25138 11.9491L6 10.1553L2.74904 11.9486C2.6072 12.0275 2.43454 12.0146 2.30452 11.9149C2.1745 11.8157 2.10949 11.6478 2.13651 11.4817L2.75749 7.6824L0.127509 4.99287C0.0126845 4.87502 -0.0291081 4.69871 0.0207053 4.53878C0.0705187 4.37885 0.202651 4.26145 0.3618 4.23709L3.99607 3.68332L5.62133 0.226933C5.7636 -0.0756445 6.2364 -0.0756445 6.37867 0.226933L8.00393 3.68332L11.6382 4.23709C11.7973 4.26145 11.9295 4.37841 11.9793 4.53878C12.0291 4.69915 11.9873 4.87458 11.8725 4.99287V4.99287Z" fill="#F6BB22"/>
</svg>
