<svg width="19" height="17" viewBox="0 0 19 17" fill="none" xmlns="http://www.w3.org/2000/svg">
<path d="M17.3896 1.43702C15.3072 -0.479372 11.9781 -0.478955 9.89625 1.43796L1.16467 9.65045C-0.414171 11.1704 -0.383998 13.6064 1.23207 15.0914C2.82155 16.552 5.36006 16.552 6.94953 15.0914L14.8561 7.65488C15.884 6.68812 15.884 5.12066 14.8561 4.1539C13.8282 3.18714 12.1617 3.18714 11.1338 4.1539L3.57101 11.2671C3.30722 11.5239 3.3148 11.9333 3.58793 12.1814C3.85437 12.4235 4.27676 12.4235 4.5432 12.1814L12.106 5.06826C12.6075 4.61638 13.4035 4.63249 13.8839 5.10418C14.3498 5.56162 14.3498 6.28308 13.8839 6.74052L5.97738 14.177C4.90927 15.1673 3.18979 15.1557 2.13687 14.1511C1.09458 13.1567 1.09458 11.5593 2.13687 10.5648L10.8684 2.35232C12.4238 0.888941 14.9458 0.888524 16.5017 2.35133C18.0576 3.81414 18.058 6.18631 16.5028 7.64968L7.77114 15.8622C7.48274 16.0945 7.44915 16.5027 7.69613 16.774C7.94312 17.0452 8.37715 17.0768 8.66555 16.8445C8.69246 16.8228 8.71751 16.7993 8.74056 16.774L17.4722 8.56146C19.5411 6.57267 19.5041 3.38292 17.3896 1.43702Z" fill="#D6D6D6"/>
</svg>
