<svg width="17" height="22" viewBox="0 0 17 22" fill="none" xmlns="http://www.w3.org/2000/svg">
<path d="M15.373 5.11504L11.6645 1.55168C11.2608 1.16378 10.7321 0.95 10.176 0.95H3.11538C1.92062 0.95 0.95 1.93691 0.95 3.14844V18.8516C0.95 20.0631 1.92062 21.05 3.11538 21.05H13.8846C15.0794 21.05 16.05 20.0631 16.05 18.8516V6.7118C16.05 6.11046 15.8034 5.52854 15.373 5.11504ZM11.2038 2.86098L14.0935 5.6375H11.3462C11.2685 5.6375 11.2038 5.573 11.2038 5.49219V2.86098ZM13.8846 19.7781H3.11538C2.61353 19.7781 2.20385 19.3632 2.20385 18.8516V3.14844C2.20385 2.63684 2.61353 2.22187 3.11538 2.22187H9.95V5.49219C9.95 6.27294 10.5755 6.90938 11.3462 6.90938H14.7962V18.8516C14.7962 19.3632 14.3865 19.7781 13.8846 19.7781ZM12.6154 8.7625H4.15385C3.80689 8.7625 3.52692 9.04796 3.52692 9.39844C3.52692 9.74891 3.80689 10.0344 4.15385 10.0344H12.6154C12.9623 10.0344 13.2423 9.74891 13.2423 9.39844C13.2423 9.04796 12.9623 8.7625 12.6154 8.7625ZM12.6154 11.8875H4.15385C3.80689 11.8875 3.52692 12.173 3.52692 12.5234C3.52692 12.8739 3.80689 13.1594 4.15385 13.1594H12.6154C12.9623 13.1594 13.2423 12.8739 13.2423 12.5234C13.2423 12.173 12.9623 11.8875 12.6154 11.8875ZM6.95077 15.0125H4.15385C3.80689 15.0125 3.52692 15.298 3.52692 15.6484C3.52692 15.9989 3.80689 16.2844 4.15385 16.2844H6.95077C7.29773 16.2844 7.57769 15.9989 7.57769 15.6484C7.57769 15.298 7.29773 15.0125 6.95077 15.0125Z" fill="#414B5B" stroke="#414B5B" stroke-width="0.1"/>
</svg>
