<svg width="19" height="19" viewBox="0 0 19 19" fill="none" xmlns="http://www.w3.org/2000/svg">
<path d="M15.5811 3.41886L15.5104 3.48957L15.5811 3.41886C13.9569 1.7947 11.797 0.9 9.5 0.9C7.20305 0.9 5.04308 1.7947 3.41886 3.41886L3.41886 3.41886C1.7947 5.04308 0.9 7.20305 0.9 9.5C0.9 11.797 1.7947 13.9569 3.41886 15.5811L3.48957 15.5104L3.41886 15.5811C5.04308 17.2053 7.20305 18.1 9.5 18.1C11.0725 18.1 12.6113 17.6715 13.9499 16.8606C14.3109 16.6419 14.4262 16.1721 14.2076 15.8112C13.989 15.4503 13.5191 15.3349 13.1582 15.5535C12.0585 16.2197 10.7935 16.5719 9.5 16.5719C5.60064 16.5719 2.42813 13.3994 2.42813 9.5C2.42813 5.60064 5.60064 2.42813 9.5 2.42813C13.3994 2.42813 16.5719 5.60064 16.5719 9.5C16.5719 10.894 16.1574 12.2512 15.3726 13.425C15.1381 13.7758 15.2324 14.2503 15.5832 14.4848C15.934 14.7194 16.4085 14.6251 16.643 14.2743C17.596 12.8488 18.1 11.1978 18.1 9.5C18.1 7.20305 17.2053 5.04308 15.5811 3.41886ZM12.6871 7.64062C12.6871 8.06262 13.0292 8.40469 13.4512 8.40469C13.8732 8.40469 14.2152 8.06262 14.2152 7.64062C14.2152 6.66999 13.4257 5.88047 12.4551 5.88047C11.4844 5.88047 10.6949 6.66999 10.6949 7.64062C10.6949 8.06262 11.037 8.40469 11.459 8.40469C11.881 8.40469 12.223 8.06262 12.223 7.64062C12.223 7.51277 12.3272 7.40859 12.4551 7.40859C12.5829 7.40859 12.6871 7.51277 12.6871 7.64062ZM8.33828 7.64062C8.33828 6.66999 7.54876 5.88047 6.57812 5.88047C5.60749 5.88047 4.81797 6.66999 4.81797 7.64062C4.81797 8.06262 5.16004 8.40469 5.58203 8.40469C6.00402 8.40469 6.34609 8.06262 6.34609 7.64062C6.34609 7.51277 6.45027 7.40859 6.57812 7.40859C6.70598 7.40859 6.81016 7.51277 6.81016 7.64062C6.81016 8.06262 7.15223 8.40469 7.57422 8.40469C7.99621 8.40469 8.33828 8.06262 8.33828 7.64062ZM12.3555 10.5621C12.1085 10.5621 11.8897 10.6799 11.7503 10.8609L11.745 10.8664C11.739 10.8725 11.7297 10.8818 11.7172 10.8939C11.6922 10.9179 11.6544 10.9528 11.6043 10.9949C11.5041 11.0792 11.355 11.1922 11.1613 11.3053C10.7738 11.5316 10.2095 11.7574 9.5 11.7574C8.79051 11.7574 8.22617 11.5316 7.83872 11.3053C7.645 11.1922 7.49594 11.0792 7.39572 10.9949C7.34564 10.9528 7.30783 10.9179 7.28283 10.8939C7.27033 10.8818 7.26103 10.8725 7.25501 10.8664L7.24969 10.8609C7.11032 10.6799 6.89153 10.5621 6.64453 10.5621C6.22254 10.5621 5.88047 10.9042 5.88047 11.3262C5.88047 11.5424 5.97077 11.7372 6.11467 11.8759C6.25408 12.0296 7.45502 13.2855 9.5 13.2855C11.545 13.2855 12.7459 12.0297 12.8853 11.8759C13.0292 11.7372 13.1195 11.5424 13.1195 11.3262C13.1195 10.9042 12.7775 10.5621 12.3555 10.5621Z" fill="#D6D6D6" stroke="#D6D6D6" stroke-width="0.2"/>
</svg>
