<svg width="18" height="19" viewBox="0 0 18 19" fill="none" xmlns="http://www.w3.org/2000/svg">
<path d="M7.28039 13.0214L7.2804 13.0215L12.854 8.0201C12.854 8.0201 12.854 8.0201 12.854 8.0201C12.8785 8.02144 12.9255 8.0302 12.9642 8.0808L12.9642 8.08082L15.9076 11.9316L15.9076 15.8277C15.9076 16.3992 15.4719 16.8487 14.9555 16.8487H3.04453C2.52809 16.8487 2.09241 16.3992 2.09241 15.8277V14.0679L5.14472 11.3085L5.04413 11.1972L5.14472 11.3085C5.20133 11.2573 5.28045 11.2569 5.33745 11.3072L5.43669 11.1948L5.33745 11.3072L7.28039 13.0214ZM12.9186 6.72047L12.9185 6.72046C12.5208 6.69909 12.133 6.8583 11.8544 7.15475L7.64124 11.6382L6.13805 10.312C5.6133 9.84897 4.85217 9.85389 4.33281 10.3234L2.09241 12.3488V3.17235C2.09241 2.60079 2.52809 2.15134 3.04453 2.15134H14.9555C15.4719 2.15134 15.9076 2.60079 15.9076 3.17235V9.84915L13.934 7.26727C13.6862 6.94294 13.3166 6.74219 12.9186 6.72047ZM14.9555 0.85H3.04453C1.82587 0.85 0.85 1.90037 0.85 3.17235V15.8277C0.85 17.0996 1.82587 18.15 3.04453 18.15H14.9555C16.1741 18.15 17.15 17.0996 17.15 15.8277V3.17235C17.15 1.90037 16.1741 0.85 14.9555 0.85ZM6.03669 2.94163C4.69244 2.94163 3.61441 4.10057 3.61441 5.50593C3.61441 6.91132 4.69247 8.07023 6.03669 8.07023C7.3809 8.07023 8.45897 6.91132 8.45897 5.50593C8.45897 4.10054 7.38094 2.94163 6.03669 2.94163ZM6.03669 6.76892C5.39466 6.76892 4.85681 6.2109 4.85681 5.50593C4.85681 4.80093 5.39465 4.24294 6.03669 4.24294C6.67872 4.24294 7.21656 4.80096 7.21656 5.50593C7.21656 6.2109 6.67872 6.76892 6.03669 6.76892Z" fill="#D6D6D6" stroke="#D6D6D6" stroke-width="0.3"/>
</svg>
