<svg width="19" height="19" viewBox="0 0 19 19" fill="none" xmlns="http://www.w3.org/2000/svg">
<path d="M18.2467 0.75333C18.1473 0.654461 18.0218 0.586007 17.8849 0.556018C17.748 0.526029 17.6054 0.535751 17.4738 0.584042L1.281 6.47234C1.14135 6.52531 1.02112 6.61951 0.936281 6.74243C0.851439 6.86535 0.806 7.01118 0.806 7.16053C0.806 7.30989 0.851439 7.45571 0.936281 7.57864C1.02112 7.70156 1.14135 7.79576 1.281 7.84873L7.60356 10.3733L12.27 5.69214L13.3078 6.72995L8.61929 11.4185L11.1513 17.7411C11.2058 17.878 11.3002 17.9954 11.4223 18.0781C11.5443 18.1608 11.6884 18.2049 11.8358 18.2048C11.9845 18.2017 12.1288 18.1537 12.2497 18.0669C12.3706 17.9802 12.4624 17.8589 12.5129 17.719L18.4012 1.52617C18.4514 1.39595 18.4635 1.25415 18.4361 1.11732C18.4087 0.980484 18.343 0.854248 18.2467 0.75333Z" fill="white"/>
</svg>
